<svg width="101" height="100" viewBox="0 0 101 100" fill="none" xmlns="http://www.w3.org/2000/svg">
<g style="mix-blend-mode:multiply">
<path d="M88.5849 55.5223C92.2792 53.2452 95.8768 51.0363 100.875 51.0363V49.7272C95.8708 49.7272 92.27 47.6262 88.5771 45.4639L88.5504 45.4483C84.8771 43.2974 81.109 41.0909 75.875 41.0909C70.6362 41.0909 66.8652 43.4152 63.194 45.678L63.1651 45.6958C59.4708 47.9729 55.8732 50.1818 50.875 50.1818C48.2461 50.1818 46.0205 49.0987 43.988 47.4316C41.9479 45.7582 40.1292 43.5192 38.3127 41.2415L38.0455 40.9062C36.3295 38.7525 34.6044 36.5875 32.7161 34.9395C30.7229 33.2 28.5078 32 25.875 32C23.247 32 20.91 33.1959 18.7642 34.9298C16.6213 36.6615 14.6293 38.9631 12.6956 41.2314L12.3973 41.5816C10.5574 43.7414 8.76654 45.8438 6.91124 47.4375C4.95631 49.1167 2.98479 50.1818 0.875 50.1818V51.0363C2.98479 51.0363 4.95632 52.1014 6.91124 53.7807C8.76654 55.3743 10.5574 57.4767 12.3973 59.6366L12.6956 59.9867C14.6293 62.255 16.6213 64.5567 18.7642 66.2883C20.91 68.0223 23.247 69.2181 25.875 69.2181C28.5078 69.2181 30.7229 68.0181 32.7161 66.2786C34.6044 64.6306 36.3295 62.4656 38.0455 60.3119L38.3127 59.9766C40.1292 57.6989 41.9479 55.4599 43.988 53.7865C46.0205 52.1195 48.2461 51.0363 50.875 51.0363C55.8732 51.0363 59.4708 53.2452 63.1651 55.5223L63.194 55.5401C66.8652 57.8029 70.6362 60.1272 75.875 60.1272C81.1138 60.1272 84.8848 57.8029 88.556 55.5401L88.5849 55.5223Z" fill="#829DF2"/>
</g>
<g style="mix-blend-mode:multiply">
<path d="M76.0029 43.251C81.609 46.3892 87.1937 49.5067 97.3202 50.0994C98.4482 50.0343 99.6311 50 100.875 50L100.875 51.0001C99.6311 51.0001 98.4481 50.9658 97.3202 50.9007C87.1937 51.4934 81.609 54.6109 76.0029 57.749L75.9732 57.7657C69.7088 61.2723 63.4069 64.8 50.875 64.8C38.2688 64.8 31.9271 61.2616 25.646 57.7491L25.625 57.7373C20.0196 54.6027 14.4581 51.4927 4.40747 50.9007C3.28647 50.9658 2.11095 51 0.875 51L0.875016 50.2L0.875016 50C2.11096 50 3.28648 50.0343 4.40747 50.0994C14.4581 49.5074 20.0196 46.3973 25.6249 43.2627L25.646 43.2509C31.9271 39.7385 38.2688 36.2001 50.875 36.2001C63.4069 36.2001 69.7088 39.7277 75.9732 43.2344L76.0029 43.251Z" fill="#597CEE"/>
</g>
<g style="mix-blend-mode:multiply">
<path d="M72.18 47.0465C70.9105 48.8704 69.45 49.9967 67.55 50L67.5417 50L67.5329 50C65.6158 49.9968 64.1527 48.9648 62.8886 47.3175C61.6144 45.657 60.5888 43.431 59.5419 41.1485L59.5148 41.0893C58.4872 38.8488 57.4365 36.5578 56.1187 34.8271C54.7813 33.0709 53.1219 31.8305 50.875 31.8305C48.6432 31.8305 46.971 32.7786 45.6048 34.1635C44.2531 35.5338 43.1827 37.3511 42.1469 39.1124L42.1371 39.1291C41.0924 40.9054 40.0817 42.6239 38.8322 43.9069C37.5932 45.179 36.1409 46 34.2083 46C32.1645 46 30.6713 45.6484 29.4464 45.1295C28.2308 44.6146 27.2649 43.9301 26.2569 43.2156L26.2163 43.1869C25.1995 42.4662 24.1384 41.7193 22.7769 41.1587C21.4098 40.5958 19.7558 40.2264 17.5417 40.2264C13.0116 40.2264 10.7389 42.8084 8.65395 45.2537L8.55637 45.3682C6.50033 47.7806 4.61432 49.9936 0.891174 50L0.875 50V50.8L0.891174 50.8C4.6143 50.8063 6.50031 53.0193 8.55631 55.4317L8.55636 55.4318L8.65395 55.5463C10.7389 57.9916 13.0116 60.5735 17.5417 60.5735C19.7558 60.5735 21.4098 60.2042 22.7769 59.6413C24.1384 59.0807 25.1995 58.3337 26.2163 57.6131L26.2569 57.5843C27.2649 56.8698 28.2308 56.1853 29.4464 55.6704C30.6713 55.1516 32.1645 54.8 34.2083 54.8C36.1409 54.8 37.5932 55.6209 38.8322 56.893C40.0817 58.176 41.0924 59.8946 42.1371 61.6709L42.1469 61.6875C43.1827 63.4488 44.2531 65.2661 45.6048 66.6364C46.971 68.0214 48.6432 68.9695 50.875 68.9695C53.1219 68.9695 54.7813 67.729 56.1186 65.9728C57.4365 64.2422 58.4872 61.9511 59.5148 59.7106L59.5419 59.6515C60.5888 57.369 61.6144 55.143 62.8886 53.4825C64.1527 51.8351 65.6158 50.8031 67.5329 50.8L67.5417 50.8L67.55 50.8C69.45 50.8033 70.9105 51.9295 72.18 53.7535C73.4555 55.5861 74.4809 58.0421 75.5257 60.5536L75.5469 60.6045C76.5751 63.0764 77.6244 65.5986 78.9428 67.5027C80.2742 69.4254 81.9378 70.8 84.2083 70.8C86.4788 70.8 88.1425 69.4254 89.4739 67.5027C90.7923 65.5986 91.8415 63.0764 92.8698 60.6045L92.891 60.5536C93.9358 58.0421 94.9612 55.5861 96.2366 53.7535C97.5066 51.9289 98.9677 50.8025 100.869 50.8L100.875 50.8V50L100.869 50C98.9677 49.9975 97.5066 48.8711 96.2366 47.0465C94.9612 45.2139 93.9358 42.7579 92.891 40.2464L92.8698 40.1955C91.8415 37.7236 90.7923 35.2013 89.4739 33.2973C88.1425 31.3746 86.4788 30 84.2083 30C81.9378 30 80.2742 31.3746 78.9428 33.2973C77.6244 35.2013 76.5751 37.7236 75.5469 40.1955L75.5257 40.2464C74.4809 42.7579 73.4555 45.2139 72.18 47.0465Z" fill="#2F5BEA"/>
</g>
</svg>
