<svg width="101" height="100" viewBox="0 0 101 100" fill="none" xmlns="http://www.w3.org/2000/svg">
<g style="mix-blend-mode:multiply">
<path d="M75.2529 43.251C80.859 46.3892 86.4437 49.5067 96.5702 50.0994C97.6982 50.0343 98.8811 50 100.125 50L100.125 51.0001C98.8811 51.0001 97.6981 50.9658 96.5702 50.9007C86.4437 51.4934 80.859 54.6109 75.2529 57.749L75.2232 57.7657C68.9588 61.2723 62.6569 64.8 50.125 64.8C37.5188 64.8 31.1771 61.2616 24.896 57.7491L24.875 57.7373C19.2696 54.6027 13.7081 51.4927 3.65747 50.9007C2.53647 50.9658 1.36095 51 0.125 51L0.125016 50.2L0.125016 50C1.36096 50 2.53648 50.0343 3.65747 50.0994C13.7081 49.5074 19.2696 46.3973 24.8749 43.2627L24.896 43.2509C31.1771 39.7385 37.5188 36.2001 50.125 36.2001C62.6569 36.2001 68.9588 39.7277 75.2232 43.2344L75.2529 43.251Z" fill="#ACBDF7"/>
</g>
<g style="mix-blend-mode:multiply">
<path d="M87.8349 55.5223C91.5292 53.2452 95.1268 51.0363 100.125 51.0363V49.7272C95.1208 49.7272 91.52 47.6262 87.8271 45.4639L87.8004 45.4483C84.1271 43.2974 80.359 41.0909 75.125 41.0909C69.8862 41.0909 66.1152 43.4152 62.444 45.678L62.4151 45.6958C58.7208 47.9729 55.1232 50.1818 50.125 50.1818C47.4961 50.1818 45.2705 49.0987 43.238 47.4316C41.1979 45.7582 39.3792 43.5192 37.5627 41.2415L37.2955 40.9062C35.5795 38.7525 33.8544 36.5875 31.9661 34.9395C29.9729 33.2 27.7578 32 25.125 32C22.497 32 20.16 33.1959 18.0142 34.9298C15.8713 36.6615 13.8793 38.9631 11.9456 41.2314L11.6473 41.5816C9.8074 43.7414 8.01654 45.8438 6.16124 47.4375C4.20631 49.1167 2.23479 50.1818 0.125 50.1818V51.0363C2.23479 51.0363 4.20632 52.1014 6.16124 53.7807C8.01654 55.3743 9.8074 57.4767 11.6473 59.6366L11.9456 59.9867C13.8793 62.255 15.8713 64.5567 18.0142 66.2883C20.16 68.0223 22.497 69.2181 25.125 69.2181C27.7578 69.2181 29.9729 68.0181 31.9661 66.2786C33.8544 64.6306 35.5795 62.4656 37.2955 60.3119L37.5627 59.9766C39.3792 57.6989 41.1979 55.4599 43.238 53.7865C45.2705 52.1195 47.4961 51.0363 50.125 51.0363C55.1232 51.0363 58.7208 53.2452 62.4151 55.5223L62.444 55.5401C66.1152 57.8029 69.8862 60.1272 75.125 60.1272C80.3638 60.1272 84.1348 57.8029 87.806 55.5401L87.8349 55.5223Z" fill="#597CEE"/>
</g>
</svg>
