<svg width="101" height="100" viewBox="0 0 101 100" fill="none" xmlns="http://www.w3.org/2000/svg">
<g style="mix-blend-mode:multiply">
<path d="M88.3349 55.5223C92.0292 53.2452 95.6268 51.0363 100.625 51.0363V49.7272C95.6208 49.7272 92.02 47.6262 88.3271 45.4639L88.3004 45.4483C84.6271 43.2974 80.859 41.0909 75.625 41.0909C70.3862 41.0909 66.6152 43.4152 62.944 45.678L62.9151 45.6958C59.2208 47.9729 55.6232 50.1818 50.625 50.1818C47.9961 50.1818 45.7705 49.0987 43.738 47.4316C41.6979 45.7582 39.8792 43.5192 38.0627 41.2415L37.7955 40.9062C36.0795 38.7525 34.3544 36.5875 32.4661 34.9395C30.4729 33.2 28.2578 32 25.625 32C22.997 32 20.66 33.1959 18.5142 34.9298C16.3713 36.6615 14.3793 38.9631 12.4456 41.2314L12.1473 41.5816C10.3074 43.7414 8.51654 45.8438 6.66124 47.4375C4.70631 49.1167 2.73479 50.1818 0.625 50.1818V51.0363C2.73479 51.0363 4.70632 52.1014 6.66124 53.7807C8.51654 55.3743 10.3074 57.4767 12.1473 59.6366L12.4456 59.9867C14.3793 62.255 16.3713 64.5567 18.5142 66.2883C20.66 68.0223 22.997 69.2181 25.625 69.2181C28.2578 69.2181 30.4729 68.0181 32.4661 66.2786C34.3544 64.6306 36.0795 62.4656 37.7955 60.3119L38.0627 59.9766C39.8792 57.6989 41.6979 55.4599 43.738 53.7865C45.7705 52.1195 47.9961 51.0363 50.625 51.0363C55.6232 51.0363 59.2208 53.2452 62.9151 55.5223L62.944 55.5401C66.6152 57.8029 70.3862 60.1272 75.625 60.1272C80.8638 60.1272 84.6348 57.8029 88.306 55.5401L88.3349 55.5223Z" fill="#829DF2"/>
</g>
<g style="mix-blend-mode:multiply">
<path d="M4.72926 48.0226C3.63628 49.3447 2.34849 50.2 0.642578 50.2V50.6C2.34965 50.6 3.63761 51.444 4.73014 52.7472C5.82825 54.0571 6.71074 55.8092 7.60644 57.5899L7.61323 57.6034C8.50105 59.3683 9.40256 61.1606 10.5337 62.5097C11.6733 63.869 13.0639 64.8 14.9283 64.8C18.5671 64.8 20.3971 63.7809 22.1943 62.7745L22.209 62.7663C23.9788 61.7751 25.7201 60.8 29.214 60.8C32.8851 60.8 34.7981 58.1527 36.6139 55.6164L36.6394 55.5808C38.469 53.0253 40.2053 50.6 43.4997 50.6C46.9834 50.6 48.7209 52.5791 50.5086 54.6314L50.5289 54.6546C52.3057 56.6945 54.1397 58.8 57.7854 58.8C61.4158 58.8 63.2415 57.7808 65.0385 56.7745L65.0469 56.7698C66.8188 55.7775 68.5644 54.8 72.0712 54.8C75.5732 54.8 77.3145 56.2587 79.0936 57.7531L79.1009 57.7593C80.8906 59.2626 82.7208 60.8 86.3569 60.8C90.0364 60.8 91.8792 58.1685 93.6491 55.641L93.6675 55.6147C95.4635 53.05 97.1922 50.6 100.643 50.6V50.2C97.1939 50.2 95.4653 47.7028 93.6685 45.0868L93.6493 45.0587C91.8804 42.4831 90.0376 39.8 86.3569 39.8C82.7208 39.8 80.8906 41.3374 79.1009 42.8407L79.0936 42.8468C77.3145 44.3413 75.5732 45.8 72.0712 45.8C68.5644 45.8 66.8188 44.8225 65.0469 43.8302L65.0385 43.8255C63.2415 42.8192 61.4158 41.8 57.7854 41.8C54.1382 41.8 52.3039 43.9573 50.5282 46.0456L50.507 46.0704C48.7185 48.1737 46.9813 50.2 43.4997 50.2C40.2065 50.2 38.4702 47.7272 36.6396 45.1201L36.615 45.0851C34.7999 42.5001 32.8869 39.8 29.214 39.8C25.7201 39.8 23.9788 38.8249 22.209 37.8337L22.1943 37.8255C20.3971 36.8191 18.5671 35.8 14.9283 35.8C13.0628 35.8 11.672 36.7447 10.5328 38.1225C9.40188 39.4905 8.50051 41.3077 7.61264 43.0976L7.60594 43.1111C6.71026 44.9168 5.82761 46.6939 4.72926 48.0226Z" fill="#1C378C"/>
</g>
<g style="mix-blend-mode:multiply">
<path d="M75.7529 43.251C81.359 46.3892 86.9437 49.5067 97.0702 50.0994C98.1982 50.0343 99.3811 50 100.625 50L100.625 51.0001C99.3811 51.0001 98.1981 50.9658 97.0702 50.9007C86.9437 51.4934 81.359 54.6109 75.7529 57.749L75.7232 57.7657C69.4588 61.2723 63.1569 64.8 50.625 64.8C38.0188 64.8 31.6771 61.2616 25.396 57.7491L25.375 57.7373C19.7696 54.6027 14.2081 51.4927 4.15747 50.9007C3.03647 50.9658 1.86095 51 0.625 51L0.625016 50.2L0.625016 50C1.86096 50 3.03648 50.0343 4.15747 50.0994C14.2081 49.5074 19.7696 46.3973 25.3749 43.2627L25.396 43.2509C31.6771 39.7385 38.0188 36.2001 50.625 36.2001C63.1569 36.2001 69.4588 39.7277 75.7232 43.2344L75.7529 43.251Z" fill="#597CEE"/>
</g>
<g style="mix-blend-mode:multiply">
<path d="M71.9476 47.0465C70.6781 48.8704 69.2175 49.9967 67.3176 50L67.3092 50L67.3005 50C65.3834 49.9968 63.9202 48.9648 62.6562 47.3175C61.382 45.657 60.3563 43.431 59.3095 41.1485L59.2824 41.0893C58.2548 38.8488 57.2041 36.5578 55.8862 34.8271C54.5489 33.0709 52.8895 31.8305 50.6426 31.8305C48.4108 31.8305 46.7386 32.7786 45.3724 34.1635C44.0207 35.5338 42.9503 37.3511 41.9145 39.1124L41.9047 39.1291C40.86 40.9054 39.8493 42.6239 38.5998 43.9069C37.3608 45.179 35.9084 46 33.9759 46C31.9321 46 30.4389 45.6484 29.214 45.1295C27.9983 44.6146 27.0325 43.9301 26.0245 43.2156L25.9839 43.1869C24.9671 42.4662 23.906 41.7193 22.5445 41.1587C21.1774 40.5958 19.5234 40.2264 17.3092 40.2264C12.7792 40.2264 10.5065 42.8084 8.42153 45.2537L8.32394 45.3682C6.26791 47.7806 4.3819 49.9936 0.658752 50L0.642578 50V50.8L0.658752 50.8C4.38187 50.8063 6.26788 53.0193 8.32389 55.4317L8.32394 55.4318L8.42152 55.5463C10.5065 57.9916 12.7792 60.5735 17.3092 60.5735C19.5234 60.5735 21.1773 60.2042 22.5444 59.6413C23.906 59.0807 24.9671 58.3337 25.9839 57.6131L26.0245 57.5843C27.0325 56.8698 27.9983 56.1853 29.214 55.6704C30.4389 55.1516 31.9321 54.8 33.9759 54.8C35.9084 54.8 37.3608 55.6209 38.5998 56.893C39.8493 58.176 40.86 59.8946 41.9047 61.6709L41.9144 61.6875C42.9503 63.4488 44.0206 65.2661 45.3724 66.6364C46.7386 68.0214 48.4108 68.9695 50.6426 68.9695C52.8895 68.9695 54.5489 67.729 55.8862 65.9728C57.2041 64.2422 58.2548 61.9511 59.2824 59.7106L59.3095 59.6515C60.3563 57.369 61.382 55.143 62.6562 53.4825C63.9202 51.8351 65.3834 50.8031 67.3005 50.8L67.3092 50.8L67.3176 50.8C69.2175 50.8033 70.6781 51.9295 71.9476 53.7535C73.2231 55.5861 74.2485 58.0421 75.2933 60.5536L75.3144 60.6045C76.3427 63.0764 77.3919 65.5986 78.7104 67.5027C80.0418 69.4254 81.7054 70.8 83.9759 70.8C86.2464 70.8 87.91 69.4254 89.2414 67.5027C90.5599 65.5986 91.6091 63.0764 92.6374 60.6045L92.6586 60.5536C93.7034 58.0421 94.7287 55.5861 96.0042 53.7535C97.2741 51.9289 98.7353 50.8025 100.636 50.8L100.643 50.8V50L100.636 50C98.7353 49.9975 97.2742 48.8711 96.0042 47.0465C94.7287 45.2139 93.7034 42.7579 92.6586 40.2464L92.6374 40.1955C91.6091 37.7236 90.5599 35.2013 89.2414 33.2973C87.9101 31.3746 86.2464 30 83.9759 30C81.7054 30 80.0418 31.3746 78.7104 33.2973C77.3919 35.2013 76.3427 37.7236 75.3144 40.1955L75.2933 40.2464C74.2485 42.7579 73.2231 45.2139 71.9476 47.0465Z" fill="#2F5BEA"/>
</g>
</svg>
