<svg width="101" height="100" viewBox="0 0 101 100" fill="none" xmlns="http://www.w3.org/2000/svg">
<g style="mix-blend-mode:multiply">
<path d="M75.5029 43.251C81.109 46.3892 86.6937 49.5067 96.8202 50.0994C97.9482 50.0343 99.1311 50 100.375 50L100.375 51.0001C99.1311 51.0001 97.9481 50.9658 96.8202 50.9007C86.6937 51.4934 81.109 54.6109 75.5029 57.749L75.4732 57.7657C69.2088 61.2723 62.9069 64.8 50.375 64.8C37.7688 64.8 31.4271 61.2616 25.146 57.7491L25.125 57.7373C19.5196 54.6027 13.9581 51.4927 3.90747 50.9007C2.78647 50.9658 1.61095 51 0.375 51L0.375016 50.2L0.375016 50C1.61096 50 2.78648 50.0343 3.90747 50.0994C13.9581 49.5074 19.5196 46.3973 25.1249 43.2627L25.146 43.2509C31.4271 39.7385 37.7688 36.2001 50.375 36.2001C62.9069 36.2001 69.2088 39.7277 75.4732 43.2344L75.5029 43.251Z" fill="#597CEE"/>
</g>
</svg>
