<svg viewBox="0 0 1440 270" fill="none" xmlns="http://www.w3.org/2000/svg">
	<g opacity="0.2">
		<path d="M0.57373 269.052C480 269.052 959.426 269.052 1438.85 269.052" stroke="white" stroke-miterlimit="10" />
		<path d="M0.57373 260.445C243.35 260.496 486.006 259.279 728.723 257.903C833.74 257.305 939.476 257.501 1044.48 258.763C1175.93 260.34 1307.44 258.854 1438.85 260.445" stroke="white" stroke-miterlimit="10" />
		<path d="M0.57373 252.359C69.3614 252.359 138.169 252.647 206.947 252.506C268.413 252.381 329.74 249.663 391.186 249.195C505.649 248.323 620.092 249.336 734.545 248.307C836.134 247.392 938.771 244.968 1040.29 248.666C1099.46 250.845 1158.02 251.836 1217.24 252.735C1291.15 253.856 1364.97 250.812 1438.85 252.359" stroke="white" stroke-miterlimit="10" />
		<path d="M0.57373 244.603C68.3726 244.603 136.351 245.209 204.13 244.555C267.824 243.938 331.148 239.615 394.792 238.504C509.475 236.5 623.259 242.226 737.822 241.205C838.631 240.322 938.012 233.155 1038.93 239.567C1097.92 243.316 1155.08 246.251 1214.5 247.107C1289.41 248.17 1363.95 242.997 1438.85 244.603" stroke="white" stroke-miterlimit="10" />
		<path d="M0.57373 236.98C67.1441 236.98 134.204 237.949 200.724 236.613C267.245 235.277 332.816 229.131 399.137 227.146C459.425 225.342 518.864 225.826 578.832 229.753C632.577 233.276 684.785 235.82 738.97 235.437C786.463 235.096 830.96 231.254 877.864 227.673C931.54 223.569 986.804 225.485 1039.98 230.711C1098.51 236.469 1153.71 241.978 1213.48 242.605C1288.87 243.404 1363.41 235.602 1438.85 236.98" stroke="white" stroke-miterlimit="10" />
		<path d="M0.57373 229.535C65.7058 229.535 131.827 230.865 196.849 228.738C266.326 226.47 334.624 218.255 403.951 215.173C463.475 212.493 523.397 214.33 581.988 220.632C634.295 226.177 684.865 231.131 738.331 230.903C787.842 230.691 832.638 223.882 880.701 218.375C935.255 212.124 989.241 214.495 1042.97 222.075C1100.55 230.214 1153.7 238.982 1213.88 239.215C1289.4 239.513 1363.2 228.624 1438.85 229.541" stroke="white" stroke-miterlimit="10" />
		<path d="M0.57373 221.7C64.1676 221.668 129.32 223.32 192.694 220.431C265.447 217.144 336.522 206.999 409.005 202.761C469.832 199.209 526.045 202.513 584.715 211.437C634.945 219.082 683.596 226.737 736.283 226.753C788.381 226.753 834.726 216.577 884.166 209.148C940.489 200.688 992.427 203.15 1047.46 213.37C1103.47 223.768 1154.9 236.044 1215.41 235.775C1290.82 235.407 1363.23 221.452 1438.85 221.7" stroke="white" stroke-miterlimit="10" />
		<path d="M0.57373 214.41C62.5604 214.361 126.735 216.219 188.352 212.623C264.442 208.185 338.174 195.93 413.995 190.399C475.672 185.901 529.209 190.71 586.93 202.746C634.554 212.677 681.329 223.439 733.157 223.778C787.933 224.139 837.314 209.988 887.974 200.461C946.475 189.459 996.426 191.798 1052.96 205.206C1106.8 217.974 1157 234.366 1217.76 233.447C1292.91 232.31 1363.41 214.935 1438.85 214.41" stroke="white" stroke-miterlimit="10" />
		<path d="M0.57373 207.033C60.971 206.967 124.145 208.96 184.093 204.737C263.437 199.149 339.835 184.867 418.81 178.051C481.735 172.617 532.234 178.838 588.736 194.155C633.422 206.268 678.308 220.258 729.417 220.996C786.867 221.816 840.213 203.3 892.041 191.92C919.188 185.99 947.804 180.435 977.398 181.712C1006.36 182.968 1033.79 189.69 1059.12 197.128C1110.18 212.087 1159.92 232.679 1220.68 231.104C1295.49 229.161 1363.63 208.399 1438.85 207.05" stroke="white" stroke-miterlimit="10" />
		<path d="M0.57373 199.59C59.5044 199.508 121.651 201.54 179.963 196.851C262.336 190.245 341.123 174.2 423.027 166.246C487.391 159.991 534.975 167.435 589.951 185.813C631.632 199.749 674.641 216.779 725.292 217.935C785.221 219.299 843.153 196.544 895.971 183.666C923.638 176.917 954.153 169.802 985.056 171.368C1014.02 172.836 1041.16 180.856 1065.38 189.171C1113.67 205.758 1162.91 230.38 1223.82 228.184C1298.31 225.489 1363.83 201.693 1438.85 199.59" stroke="white" stroke-miterlimit="10" />
		<path d="M0.57373 192.881C58.0949 192.782 119.322 194.824 176.144 189.765C261.202 182.184 342.105 164.359 426.544 155.298C458.696 151.852 489.169 149.859 520.661 155.903C546.321 160.83 568.894 169.479 590.668 178.221C629.621 193.85 670.742 213.894 721.271 215.462C783.397 217.395 845.982 190.381 899.658 176.118C927.804 168.637 960.195 159.972 992.277 161.805C1021.37 163.456 1048.15 172.743 1071.33 181.915C1117.06 199.993 1165.7 228.609 1226.94 225.839C1301.16 222.476 1363.96 195.6 1438.85 192.853" stroke="white" stroke-miterlimit="10" />
		<path d="M0.57373 185.977C56.8863 185.873 117.284 187.895 172.798 182.629C260.013 174.354 342.455 155.087 429.021 145.218C461.282 141.541 491.666 139.261 522.999 146.089C548.418 151.662 570.082 161.225 590.797 170.782C627.464 187.676 666.866 210.133 717.646 212.023C750.097 213.234 782.728 203.946 810.754 196.082C841.847 187.358 871.741 177.418 902.824 168.683C931.39 160.66 965.349 150.818 998.51 152.873C1027.81 154.687 1054.17 164.874 1076.53 174.683C1120.15 193.863 1167.88 225.569 1229.7 222.358C1303.79 218.522 1363.97 189.106 1438.85 185.955" stroke="white" stroke-miterlimit="10" />
		<path d="M0.57373 179.077C55.8776 178.972 115.636 181.009 170.081 175.621C258.835 166.843 342.235 146.172 430.25 135.644C462.361 131.791 492.974 129.331 523.987 136.678C549.377 142.694 570.392 153.123 590.358 163.381C625.496 181.427 663.411 205.851 714.809 207.959C748.149 209.313 781.729 199.208 810.195 190.854C842.326 181.416 873.12 170.673 905.251 161.224C934.217 152.699 969.175 142.039 1003.22 144.213C1032.84 146.106 1058.75 156.975 1080.49 167.393C1122.77 187.64 1169.04 221.767 1231.85 218.327C1305.94 214.271 1363.82 182.357 1438.85 179.099" stroke="white" stroke-miterlimit="10" />
		<path d="M0.57373 172.717C55.097 172.629 114.484 174.69 168.129 169.383C257.629 160.528 341.257 138.921 429.948 128.18C461.619 124.354 492.801 121.862 523.374 129.208C548.972 135.357 569.697 146.273 589.293 156.893C623.871 175.663 660.665 200.894 713.141 202.927C747.219 204.25 780.888 194.111 809.753 185.436C842.563 175.597 873.924 164.381 906.724 154.532C936.058 145.721 971.165 134.964 1005.91 137.106C1035.88 138.954 1061.34 149.946 1082.82 160.735C1124.77 181.807 1168.82 216.559 1233.1 213.176C1307.38 209.268 1363.51 175.619 1438.85 172.728" stroke="white" stroke-miterlimit="10" />
		<path d="M0.57373 165.962C54.8987 165.775 114.098 168.103 167.514 162.667C256.408 153.603 338.969 131.251 426.964 120.21C458.546 116.251 489.708 113.879 520.262 121.171C546.231 127.38 567.365 138.477 587.252 149.276C622.47 168.405 659.655 194.073 712.821 196.466C747.14 198.009 780.61 187.951 809.606 179.1C842.466 169.064 873.769 157.578 906.62 147.536C936.094 138.52 971.023 127.864 1006.03 130.17C1036.19 132.157 1061.51 143.22 1083.03 154.179C1125.15 175.641 1168.37 210.088 1233.16 206.887C1307.65 203.22 1363.2 168.498 1438.85 165.962" stroke="white" stroke-miterlimit="10" />
		<path d="M0.57373 159.631C55.1296 159.291 114.15 162.222 167.757 156.42C255.075 146.969 335.78 124.297 422.168 112.89C454.13 108.666 484.475 106.469 515.468 113.794C541.907 120.035 563.792 130.992 584.407 141.676C620.795 160.556 659.549 186.428 712.716 189.688C746.826 191.781 780.417 181.716 809.163 172.889C841.625 162.923 872.459 151.451 904.911 141.473C934.326 132.428 969.255 121.875 1004.21 124.609C1034.29 126.96 1059.98 138.159 1081.79 148.974C1124.13 169.958 1168.6 203.686 1232.62 200.585C1307.29 196.964 1363.02 162.118 1438.85 159.631" stroke="white" stroke-miterlimit="10" />
		<path d="M0.57373 152.926C55.4388 152.519 114.299 156.282 168.235 150.115C253.774 140.335 332.371 117.276 416.941 105.56C449.173 101.082 478.808 99.0857 510.151 106.347C536.999 112.568 559.762 123.283 581.147 133.927C618.753 152.629 659.295 178.51 712.412 182.575C746.212 185.166 779.542 175.27 808.029 166.447C839.941 156.546 870.125 145.099 902.018 135.203C931.343 126.105 965.942 115.813 1000.74 118.949C1030.85 121.666 1056.99 132.959 1079.3 143.702C1122.2 164.329 1168.12 197.344 1231.65 194.275C1306.65 190.655 1362.69 155.446 1438.85 152.959" stroke="white" stroke-miterlimit="10" />
		<path d="M0.57373 147.04C55.8165 146.65 114.645 151.395 168.959 144.933C252.537 135 328.844 111.77 411.424 99.8838C443.784 95.2269 472.859 93.4772 504.46 100.509C531.787 106.587 555.398 116.965 577.611 127.386C616.784 145.701 658.743 171.136 712.008 175.936C745.407 178.941 778.147 169.501 806.353 160.764C837.565 151.088 866.979 139.772 898.171 130.085C927.385 121.007 961.314 111.255 995.902 114.727C1026.15 117.771 1052.83 128.988 1075.8 139.553C1119.56 159.667 1167.12 191.579 1230.31 188.535C1305.76 184.898 1362.24 149.552 1438.85 147.056" stroke="white" stroke-miterlimit="10" />
		<path d="M0.57373 140.878C56.2671 140.57 115.077 146.468 169.881 139.712C251.364 129.67 325.245 106.184 405.699 94.2066C438.04 89.3806 466.716 87.8801 498.478 94.6188C526.295 100.522 550.735 110.559 573.858 120.683C614.809 138.619 658.047 163.496 711.513 168.998C776.036 175.643 841.238 141.059 893.525 124.756C922.63 115.676 955.641 106.579 989.93 110.388C1020.41 113.78 1047.66 124.91 1071.42 135.337C1116.29 155.02 1165.63 185.856 1228.65 182.789C1304.67 179.095 1361.68 143.417 1438.85 140.878" stroke="white" stroke-miterlimit="10" />
		<path d="M0.57373 135.004C56.7565 134.835 115.576 141.955 170.95 135.004C250.245 125.015 321.58 101.557 399.796 89.6125C432.027 84.6947 460.423 83.4707 492.275 89.7819C520.601 95.4046 545.891 104.94 569.922 114.688C612.651 132.01 657.178 155.916 710.914 162.063C774.458 169.319 836.853 135.933 888.172 119.988C916.548 111.185 949.628 102.311 982.978 106.847C1013.94 111.054 1041.22 121.256 1066.33 131.638C1112.48 150.708 1163.72 180.122 1226.75 177.04C1303.41 173.297 1361.04 137.561 1438.85 134.966" stroke="white" stroke-miterlimit="10" />
		<path d="M0.57373 128.644C57.2855 128.644 116.165 137.158 172.157 129.927C249.194 119.976 317.912 96.3415 393.82 84.4228C525.662 63.7048 594.439 140.19 710.25 154.828C772.674 162.728 831.913 130.437 882.303 114.762C910.549 105.991 942.35 98.0027 975.281 102.811C1006.63 107.389 1034.55 117.399 1060.67 127.619C1108.26 146.259 1161.49 174.427 1224.64 171.286C1302.02 167.448 1360.32 131.314 1438.85 128.644" stroke="white" stroke-miterlimit="10" />
		<path d="M0.57373 123.381C57.8344 123.612 116.813 133.567 173.474 126.09C248.214 116.229 314.304 92.4381 387.845 80.5731C516.959 59.75 595.593 132.878 709.536 148.631C770.881 157.121 826.564 126.128 876.034 110.69C904.16 101.914 934.573 94.9488 967.034 99.9976C998.805 104.953 1027.43 114.753 1054.6 124.801C1103.72 142.971 1158.97 169.9 1222.39 166.673C1300.53 162.703 1359.56 126.15 1438.85 123.381" stroke="white" stroke-miterlimit="10" />
		<path d="M0.57373 117.997C58.4061 118.462 117.507 129.799 174.88 122.183C247.335 112.563 310.721 88.8919 381.988 77.2588C508.37 56.6245 596.737 125.329 708.836 142.029C769.086 151.003 820.985 121.717 869.588 106.675C897.615 98.0026 926.522 92.1915 958.484 97.3733C990.697 102.621 1020.06 112.147 1048.31 121.887C1099.01 139.397 1156.3 164.764 1220.05 161.487C1298.96 157.421 1358.77 120.82 1438.85 117.975" stroke="white" stroke-miterlimit="10" />
		<path d="M1.14746 112.242C59.5143 112.948 118.76 125.75 176.867 117.966C247.055 108.555 307.798 84.8475 376.738 73.399C500.381 52.8629 598.155 117.511 708.369 135.232C767.504 144.741 815.488 116.985 863.241 102.217C891.137 93.5899 918.623 88.9174 950.043 94.2911C982.691 99.8784 1012.81 109.174 1042.11 118.683C1094.37 135.664 1153.66 159.657 1217.78 156.294C1297.48 152.109 1358 115.211 1438.85 112.242" stroke="white" stroke-miterlimit="10" />
		<path d="M1.14746 106.766C60.0518 107.704 119.495 121.857 178.27 113.979C246.299 104.858 304.475 81.2667 371.216 70.0955C492.41 49.814 599.246 109.972 707.67 128.596C765.726 138.573 809.804 112.501 856.778 98.0644C884.553 89.532 910.69 86.0209 941.51 91.522C974.607 97.4211 1005.49 106.461 1035.83 115.664C1089.63 131.987 1150.89 154.52 1215.45 151.102C1295.94 146.822 1357.22 109.797 1438.85 106.777" stroke="white" stroke-miterlimit="10" />
		<path d="M1.14746 101.583C60.6433 102.747 120.229 118.292 179.725 110.287C245.711 101.408 301.432 77.7826 366.1 66.8275C484.972 46.6877 600.359 102.791 706.971 122.444C764.06 132.968 804.197 108.287 850.524 94.1087C878.21 85.6397 902.981 83.1809 933.283 88.8524C966.81 95.1031 998.44 103.982 1029.77 112.937C1085.05 128.733 1148.2 149.988 1213.21 146.475C1294.47 142.076 1356.46 104.703 1438.85 101.583" stroke="white" stroke-miterlimit="10" />
		<path d="M1.14746 96.769C61.2016 98.134 120.956 115.08 181.12 106.935C245.218 98.2605 298.633 74.462 361.363 63.6856C422.215 53.2283 486.952 65.034 543.791 77.6487C598.604 89.8177 650.711 105.779 706.342 116.814C762.712 127.998 798.664 104.309 844.641 90.3956C905.694 71.9303 968.224 95.349 1024.1 110.534C1080.72 125.901 1145.65 146.034 1211.09 142.418C1293.07 137.894 1355.74 99.9832 1438.85 96.7635" stroke="white" stroke-miterlimit="10" />
		<path d="M1.14746 91.4253C61.7624 92.9411 121.529 110.956 182.463 102.797C244.855 94.435 296.145 70.7897 357.189 60.3104C417.484 49.9461 483.93 61.2024 541.041 72.6885C596.963 83.9393 650.19 98.7963 705.812 110.485C761.435 122.174 793.924 99.7759 839.313 86.1392C898.979 68.2177 964.117 93.253 1019.03 107.289C1076.84 122.064 1143.42 140.867 1209.21 137.222C1291.83 132.642 1355.12 94.6977 1438.85 91.4253" stroke="white" stroke-miterlimit="10" />
		<path d="M1.14746 86.4899C62.3311 88.1307 122.047 107.142 183.69 98.9378C244.594 90.8379 293.996 67.2165 353.423 56.9453C413.258 46.6359 481.221 57.4266 538.591 67.9548C595.501 78.4064 649.796 92.3638 705.328 104.762C731.527 110.609 750.727 110.85 776.057 103.308C796.644 97.1767 814.057 88.2729 834.615 82.0981C862.041 73.8506 883.887 74.0803 912.612 80.2113C947.127 87.5892 980.754 96.0719 1014.62 104.314C1073.4 118.578 1141.42 136.276 1207.52 132.601C1290.71 127.974 1354.53 89.7988 1438.85 86.4899" stroke="white" stroke-miterlimit="10" />
		<path d="M1.14746 81.9508C62.9006 83.5974 122.437 103.588 184.799 95.3269C244.496 87.4176 292.211 63.6238 350.44 53.5793C409.966 43.3098 479.178 53.6891 536.777 63.4591C594.377 73.2291 649.68 86.512 705.034 99.685C730.613 105.772 749.314 106.634 774.425 99.1032C794.333 93.1314 810.947 84.3165 830.806 78.3008C858.083 70.0347 879.59 70.9129 907.815 77.2689C942.501 85.0794 976.648 93.576 1011.15 101.617C1070.67 115.482 1140.02 132.255 1206.22 128.556C1289.87 123.885 1354.12 85.3429 1438.85 82.0002" stroke="white" stroke-miterlimit="10" />
		<path d="M1.14746 77.6678C63.5011 79.2738 122.719 99.9981 185.801 91.6985C244.629 83.9489 290.873 59.9245 348.312 50.1564C407.78 40.0308 477.764 49.9584 535.743 59.05C594.191 68.2077 649.993 80.9623 705.135 94.8885C730.205 101.214 748.702 102.545 773.632 94.9985C793.008 89.1409 808.958 80.3628 828.275 74.4502C855.431 66.1396 876.925 67.4872 904.731 74.0982C939.479 82.3484 974.036 90.8845 1009.08 98.7716C1069.01 112.263 1139.54 128.202 1205.71 124.523C1289.72 119.848 1354.3 81.0063 1439.43 77.6678" stroke="white" stroke-miterlimit="10" />
		<path d="M1.14746 72.8677C64.0722 74.3103 122.782 95.3189 186.566 87.0821C244.786 79.5638 290.032 55.6808 346.784 46.1265C406.063 36.153 476.968 45.7672 535.099 54.2055C594.148 62.7799 650.201 75.0616 705.085 89.5918C729.746 96.1246 748.343 97.7034 773.144 90.1852C792.121 84.4308 807.572 75.7367 826.52 69.9279C853.577 61.6312 875.371 63.199 902.848 70.0422C937.527 78.6765 972.345 87.1855 1007.78 94.8616C1067.89 107.878 1139.25 122.947 1205.15 119.36C1289.36 114.781 1354.1 76.1287 1439.43 72.8677" stroke="white" stroke-miterlimit="10" />
		<path d="M1.14746 68.4149C64.3918 69.7224 122.692 91.1545 186.865 82.7652C244.886 75.1835 289.862 51.1033 346.434 41.5162C405.653 31.4842 476.878 41.3844 535.029 49.7188C594.288 58.2125 650.161 70.5136 705.115 85.243C729.686 91.8358 748.543 93.2093 773.174 85.6715C792.021 79.9028 807.373 71.2058 826.22 65.4206C853.188 57.1467 875.381 58.685 902.599 65.7887C937.127 74.7989 971.986 83.4519 1007.57 91.1216C1067.39 104.016 1139.67 119.053 1205.07 115.295C1289.16 110.471 1354.32 72.1233 1439.43 68.4313" stroke="white" stroke-miterlimit="10" />
		<path d="M1.14746 64.0453C64.5303 65.2853 122.66 86.8309 186.981 78.3542C244.911 70.7169 290.116 46.8725 346.727 37.3589C405.945 27.4063 477.008 37.7265 535.067 46.1044C594.135 54.6305 649.768 66.8928 705.1 80.9054C757.477 94.1663 783.435 73.7729 826.572 61.0552C853.54 53.1052 875.872 54.5536 902.84 61.6751C937.218 70.7553 972.015 79.3747 1007.59 86.9461C1067.06 99.598 1140.28 114.686 1205.2 110.615C1288.93 105.359 1354.89 68.6211 1439.43 64.1276" stroke="white" stroke-miterlimit="10" />
		<path d="M1.14746 59.6186C64.7214 60.817 122.712 82.5637 187.235 73.9991C245.165 66.3031 290.551 42.6654 347.193 33.2213C406.412 23.3265 477.268 34.0624 535.238 42.484C594.078 51.0321 649.502 63.2632 705.155 76.5938C757.093 89.0393 783.981 68.9692 827.149 56.8041C854.117 49.185 876.65 50.5923 903.378 57.7386C937.597 66.8858 972.295 75.4558 1007.86 82.91C1067.09 95.328 1141.04 110.286 1205.43 105.932C1288.74 100.303 1355.51 65.0937 1439.43 59.877" stroke="white" stroke-miterlimit="10" />
		<path d="M1.14746 55.8598C64.9398 57.0153 122.839 78.7529 187.6 70.2225C245.46 62.6023 291.114 39.4312 347.795 30.1649C407.013 20.517 477.637 31.4295 535.497 39.7855C594.056 48.2341 649.358 60.2694 705.21 72.7571C756.777 84.2746 784.584 64.8154 827.861 53.3143C854.898 46.1356 877.6 47.531 904.128 54.6115C938.157 63.698 972.784 72.0976 1008.29 79.3144C1067.37 91.3333 1141.77 105.8 1205.71 101.259C1288.61 95.3778 1356.15 62.1063 1439.43 56.2958" stroke="white" stroke-miterlimit="10" />
		<path d="M1.14746 51.6793C65.2108 52.8261 123.002 74.774 188.094 66.222C245.905 58.6312 291.84 35.6784 348.572 26.5803C407.771 17.0836 478.037 28.2623 535.878 36.6068C594.118 45.0168 649.252 56.9492 705.335 68.7068C756.514 79.4377 785.299 60.4552 828.777 49.5549C855.905 42.7505 878.787 44.1976 905.146 51.2697C938.909 60.4195 973.555 68.5611 1008.93 75.6587C1067.96 87.3672 1142.57 101.326 1206.15 96.569C1288.51 90.4363 1356.88 58.7841 1439.43 52.411" stroke="white" stroke-miterlimit="10" />
		<path d="M1.14746 47.4774C65.4991 48.6306 123.269 70.8919 188.679 62.3037C246.439 54.7313 292.682 31.9593 349.483 22.9976C408.661 13.6626 478.626 25.0788 536.356 33.4309C594.285 41.7995 649.268 53.6331 705.48 64.6868C756.278 74.6808 786.102 56.159 829.838 45.863C857.095 39.4438 880.147 40.9813 906.355 48.0595C939.915 57.1989 974.434 65.232 1009.73 72.1164C1068.79 83.5217 1143.39 96.7939 1206.62 91.8848C1288.45 85.5315 1357.6 55.4451 1439.43 48.5372" stroke="white" stroke-miterlimit="10" />
		<path d="M1.14746 43.557C65.8305 44.7161 123.592 67.1768 189.374 58.6517C247.095 51.1703 293.669 28.7205 350.492 19.9702C409.641 10.8628 479.239 22.4201 536.92 30.7035C594.422 38.9429 649.386 50.5935 705.659 60.8654C756.099 70.0771 787.022 52.181 831.06 42.5793C858.467 36.6029 881.7 38.2563 907.799 45.3258C941.13 54.3807 975.494 62.2357 1010.68 68.8412C1069.84 79.8272 1144.21 92.2193 1207.17 87.1933C1288.44 80.7115 1358.33 52.3898 1439.43 45.0566" stroke="white" stroke-miterlimit="10" />
		<path d="M1.14746 39.9688C66.1896 41.15 124 63.7231 190.161 55.28C247.842 47.9635 294.756 25.97 351.638 17.4942C410.747 8.69022 479.964 20.2775 537.516 28.4307C594.617 36.5238 649.522 47.8596 705.814 57.2978C755.904 65.6917 787.986 48.5486 832.353 39.7228C859.93 34.2545 883.342 36.0262 909.361 43.0037C942.47 51.9111 976.692 59.522 1011.77 65.7792C1071.12 76.2947 1145.07 87.5867 1207.8 82.4957C1288.48 75.9338 1359.09 49.5711 1439.43 41.8937" stroke="white" stroke-miterlimit="10" />
		<path d="M1.14746 35.9896C66.5801 37.2121 124.382 60.1643 191.033 51.7775C248.675 44.5195 295.959 22.7458 352.901 14.4747C411.962 5.90064 480.75 17.608 538.222 25.714C594.925 33.7153 649.78 44.8445 706.024 53.5451C755.775 61.2546 789.086 44.6958 833.803 36.5733C861.57 31.5346 885.162 33.5115 911.121 40.428C944 49.2621 978.06 56.6923 1013 62.6533C1072.58 72.7582 1145.93 82.9567 1208.49 77.7694C1288.56 71.1613 1359.85 46.4359 1439.43 38.385" stroke="white" stroke-miterlimit="10" />
		<path d="M1.14746 32.4708C66.9887 33.7149 124.849 56.4762 191.919 48.3518C249.59 41.3903 297.243 20.3707 354.255 12.5276C413.254 4.41403 481.563 15.9083 539.034 23.7514C595.316 31.4431 650.131 42.061 706.314 49.8122C755.724 56.633 790.333 41.1253 835.419 33.9366C863.386 29.4796 887.147 31.6108 913.086 38.3721C945.725 46.897 979.614 53.9403 1014.4 59.4295C1074.21 68.8467 1146.83 77.631 1209.24 72.4762C1288.69 65.9474 1360.61 43.5539 1439.43 35.3755" stroke="white" stroke-miterlimit="10" />
		<path d="M1.14746 28.9915C67.3982 30.2881 125.329 53.5275 192.988 45.4473C250.569 38.5652 298.621 17.7219 355.693 10.0903C414.623 2.20707 482.461 13.8049 539.803 21.5788C595.676 29.1721 650.45 39.5554 706.513 46.5962C755.615 52.7671 791.592 37.8431 837.027 31.4096C865.193 27.4105 889.145 29.7684 915.094 36.5575C947.486 45.0071 981.194 51.8527 1015.81 57.0124C1076.01 65.9843 1147.73 73.4791 1210.04 68.2765C1288.87 61.7117 1361.36 40.9668 1439.43 32.4599" stroke="white" stroke-miterlimit="10" />
		<path d="M1.14746 25.1967C67.8776 26.5739 125.918 50.1077 194.057 42.157C251.628 35.4464 300.1 14.958 357.211 7.62185C416.091 0.0662552 483.42 11.6328 540.682 19.2982C596.135 26.7221 650.87 36.7413 706.783 43.002C755.595 48.489 792.99 34.3271 838.765 28.7358C867.141 25.2516 891.272 27.8689 917.261 34.5849C949.407 42.8697 982.928 49.4386 1017.36 54.201C1077.93 62.607 1148.64 68.6811 1210.88 63.4575C1289.09 56.9006 1362.1 38.0802 1439.43 29.3503" stroke="white" stroke-miterlimit="10" />
		<path d="M1.14746 21.9614C68.357 23.418 126.497 47.3082 195.205 39.4901C252.726 32.941 301.588 12.775 358.799 5.73486C417.599 -1.50392 484.409 10.0439 541.581 17.5806C596.635 24.836 651.299 34.4858 707.033 39.9756C755.595 44.7592 794.438 31.3796 840.563 26.596C869.139 23.6332 893.44 26.5243 919.518 33.2168C951.414 41.3403 984.741 47.6265 1018.97 51.9759C1079.9 59.7885 1149.53 64.3789 1211.74 59.1484C1289.34 52.6324 1362.81 35.7052 1439.43 26.7505" stroke="white" stroke-miterlimit="10" />
		<path d="M1.14746 18.8844C68.8265 20.3954 127.117 44.1524 196.354 36.6356C253.885 30.3906 303.156 10.9654 360.438 4.37261C419.157 -2.38326 485.438 8.87834 542.57 16.1288C597.234 23.0695 651.819 32.119 707.372 36.7389C755.724 40.7554 796.046 28.434 842.501 24.5913C871.286 22.2053 895.757 25.3251 921.936 31.8201C953.583 39.6155 986.714 45.4883 1020.73 49.3321C1082.06 56.3597 1150.51 59.3382 1212.7 54.2237C1289.61 47.8863 1363.52 33.2223 1439.43 24.2544" stroke="white" stroke-miterlimit="10" />
		<path d="M1.14746 15.523C69.3192 17.1225 127.762 41.1816 197.572 33.8607C255.106 27.8063 304.789 8.73708 362.143 2.47528C420.786 -3.91208 486.53 7.25761 543.595 14.3547C597.892 21.1078 652.38 29.7116 707.696 33.5659C755.881 36.9233 797.673 25.4261 844.429 22.4399C873.396 20.5892 898.058 24.0067 924.338 30.4486C955.741 38.0559 988.673 43.6171 1022.45 47.0176C1084.18 53.3667 1151.43 54.7806 1213.62 49.6817C1289.97 43.4253 1364.17 30.7325 1439.43 21.5937" stroke="white" stroke-miterlimit="10" />
	</g>
</svg>
