<?xml version="1.0" encoding="UTF-8"?>
<svg width="65px" height="45px" viewBox="0 0 65 45" version="1.1" xmlns="http://www.w3.org/2000/svg" xmlns:xlink="http://www.w3.org/1999/xlink">
    <!-- Generator: Sketch 60 (88103) - https://sketch.com -->
    <title>Icon</title>
    <desc>Created with Sketch.</desc>
    <g id="FULL-Website" stroke="none" stroke-width="1" fill="none" fill-rule="evenodd">
        <g id="MBL-Home" transform="translate(-93.000000, -1450.000000)" fill="#F6F9FC" fill-rule="nonzero">
            <g id="Infographic" transform="translate(19.000000, 1328.000000)">
                <g id="Cars" transform="translate(1.000000, 59.867925)">
                    <path d="M120.493739,102.628162 C121.0331,102.835608 122.008098,102.897842 123.418733,102.814864 C123.916604,102.814864 124.7049,102.773374 125.783621,102.690396 C126.862342,102.607417 127.692128,102.565928 128.272978,102.565928 C130.928291,102.399971 133.085733,102.399971 134.745304,102.565928 C135.824025,102.565928 136.487854,102.316992 136.736789,101.819121 C136.736789,101.736142 136.861257,101.27976 137.110193,100.449975 C137.193171,99.8691251 137.234661,99.1223182 137.234661,98.2095542 C137.234661,98.0435971 137.27615,96.964876 137.359128,94.9733909 C137.442107,92.9819058 137.483596,91.2393564 137.483596,89.7457425 C137.483596,85.1819225 137.234661,82.5266091 136.736789,81.7798022 C136.487854,81.3649094 135.409133,80.4936347 133.500626,79.165978 C132.255948,78.3361925 131.571375,77.8798105 131.446907,77.796832 C131.322439,77.7138534 131.177227,77.4234285 131.01127,76.9255572 C131.094248,76.9255572 131.239461,76.8633233 131.446907,76.7388555 C131.654353,76.6143877 131.799566,76.5521538 131.882544,76.5521538 C131.965523,76.5521538 132.13148,76.6143877 132.380416,76.7388555 C132.629351,76.8633233 132.961266,76.9255572 133.376158,76.9255572 C135.284665,76.9255572 136.446364,76.7181109 136.861257,76.3032181 C137.27615,75.8883254 137.483596,75.5564112 137.483596,75.3074756 C137.483596,74.8096043 137.27615,74.2702438 136.861257,73.6893939 C136.612322,73.3574798 135.492111,73.0670548 133.500626,72.8181192 C132.836798,72.7351407 132.338926,72.7766299 132.007012,72.942587 C131.675098,73.1085441 131.55063,74.0213081 131.633609,75.680879 L131.633609,75.680879 L130.513398,75.8053469 C130.43042,75.5564112 130.222974,74.8925829 129.891059,73.8138618 C129.559145,72.7351407 129.185742,71.6979088 128.770849,70.7021663 C128.355956,69.7064237 127.941064,68.835149 127.526171,68.0883421 C126.281493,65.9308999 124.953836,64.6032432 123.543201,64.1053719 C123.211286,64.0223934 121.219801,63.7734577 117.568745,63.358565 C113.668754,62.9436723 109.685783,62.7362259 105.619835,62.7362259 C101.636865,62.7362259 97.6538943,62.9436723 93.6709241,63.358565 C90.0198681,63.7734577 88.028383,64.0223934 87.6964688,64.1053719 C86.2858335,64.6032432 84.9581768,65.9308999 83.7134986,68.0883421 C83.2986059,68.835149 82.8837132,69.7064237 82.4688204,70.7021663 C82.0539277,71.6979088 81.6805243,72.7351407 81.3486101,73.8138618 C81.0166959,74.8925829 80.8092495,75.5564112 80.726271,75.8053469 L80.726271,75.8053469 L79.6060606,75.680879 L79.6060606,74.0627974 C79.6060606,73.8138618 79.5645713,73.5856708 79.4815928,73.3782244 C79.3986142,73.170778 79.3156357,73.0255656 79.2326572,72.942587 C78.900743,72.7766299 78.4028717,72.7351407 77.7390433,72.8181192 C75.7475582,73.0670548 74.6273479,73.3574798 74.3784122,73.6893939 C73.9635195,74.2702438 73.7560731,74.8096043 73.7560731,75.3074756 C73.7560731,75.6393898 73.9635195,75.9713039 74.3784122,76.3032181 C74.793305,76.7181109 75.9550046,76.9255572 77.8635111,76.9255572 C78.2784039,76.9255572 78.6103181,76.8633233 78.8592537,76.7388555 C79.1081893,76.6143877 79.2741464,76.5521538 79.357125,76.5521538 C79.4401035,76.5521538 79.585316,76.6143877 79.7927623,76.7388555 C80.0002087,76.8633233 80.1454212,76.9255572 80.2283997,76.9255572 C80.0624426,77.506407 79.5645713,78.0457676 78.7347859,78.5436389 C78.3198931,78.7925745 77.987979,79.0000209 77.7390433,79.165978 C75.8305368,80.4936347 74.7518157,81.3649094 74.50288,81.7798022 C74.0050088,82.5266091 73.7560731,85.1819225 73.7560731,89.7457425 C73.7560731,91.2393564 73.7975624,92.9819058 73.8805409,94.9733909 C73.9635195,96.964876 74.0050088,98.0435971 74.0050088,98.2095542 C74.0050088,99.1223182 74.046498,99.8691251 74.1294766,100.449975 C74.3784122,101.27976 74.50288,101.736142 74.50288,101.819121 C74.7518157,102.316992 75.415644,102.565928 76.4943651,102.565928 C78.1539361,102.399971 80.3113782,102.399971 82.9666917,102.565928 C83.5475415,102.565928 84.3565824,102.607417 85.3938142,102.690396 C86.431046,102.773374 87.1985975,102.814864 87.6964688,102.814864 C89.1071041,102.897842 90.082102,102.835608 90.6214626,102.628162 C91.1608231,102.420715 91.5964605,102.316992 91.9283747,102.316992 C92.0943317,102.316992 93.8576258,102.358482 97.2182569,102.44146 C100.578888,102.524439 103.379414,102.565928 105.619835,102.565928 C107.860255,102.565928 110.640037,102.524439 113.959179,102.44146 C116.804157,102.370336 118.490823,102.329693 119.019176,102.319532 L119.186827,102.316992 C119.518741,102.316992 119.954378,102.420715 120.493739,102.628162 Z M126.591392,75.8256681 L126.157025,75.8053469 C122.174055,75.5564112 115.328325,75.4319434 105.619835,75.4319434 L104.110706,75.4329778 C95.1986718,75.4453901 88.8559848,75.5695131 85.0826446,75.8053469 C84.0039235,75.8883254 83.3815844,75.7223683 83.2156273,75.3074756 C82.9666917,74.6436472 83.3815844,73.1500334 84.4603055,70.8266341 C85.6220052,68.3372777 86.7007263,66.8021746 87.6964688,66.2213248 C88.8581685,65.640475 91.0985892,65.2670715 94.417731,65.1011145 C98.6496369,64.8521788 102.383671,64.727711 105.619835,64.727711 C108.855998,64.727711 112.590033,64.8521788 116.821938,65.1011145 C120.14108,65.2670715 122.381501,65.640475 123.543201,66.2213248 C124.621922,66.9681317 125.700643,68.5032348 126.779364,70.8266341 C127.858085,73.1500334 128.272978,74.6436472 128.024042,75.3074756 C127.858085,75.7223683 127.235746,75.8883254 126.157025,75.8053469 L126.591392,75.8256681 Z M80.2283997,87.1319184 L79.8549962,87.1319184 C79.6890392,87.1319184 79.5438267,87.1111737 79.4193589,87.0696844 C79.2948911,87.0281952 79.1081893,86.9659613 78.8592537,86.8829827 C78.6103181,86.8000042 78.4028717,86.7170256 78.2369146,86.6340471 C77.075215,86.3851114 76.4113866,85.8872402 76.2454295,85.1404333 C75.9964939,84.2276693 75.9964939,83.1074589 76.2454295,81.7798022 C78.4028717,81.6138451 81.1411637,82.0287378 84.4603055,83.0244803 C87.0326405,83.7712873 89.0241256,84.8085191 90.4347608,86.1361758 L90.4347608,86.1361758 L89.0656148,86.3851114 C88.8996577,86.46809 88.6507221,86.5718132 88.3188079,86.696281 C87.9868937,86.8207488 87.6757242,86.924472 87.3852993,87.0074505 C87.0948744,87.0904291 86.7837048,87.1319184 86.4517906,87.1319184 C86.0368979,87.1319184 85.1863678,87.0489398 83.9002004,86.8829827 C82.6140329,86.7170256 81.8879706,86.6340471 81.7220135,86.6340471 C81.5560564,86.6340471 81.3693547,86.6547917 81.1619083,86.696281 C80.954462,86.7377703 80.7677602,86.8207488 80.6018032,86.9452166 C80.4358461,87.0696844 80.3113782,87.1319184 80.2283997,87.1319184 L80.2283997,87.1319184 Z M131.01127,87.1319184 C130.928291,87.1319184 130.803823,87.0696844 130.637866,86.9452166 C130.471909,86.8207488 130.285207,86.7377703 130.077761,86.696281 C129.870315,86.6547917 129.683613,86.6340471 129.517656,86.6340471 C129.351699,86.6340471 128.625637,86.7170256 127.339469,86.8829827 C126.053302,87.0489398 125.202772,87.1319184 124.787879,87.1319184 L124.787879,87.1319184 L122.174055,86.3851114 C121.593205,86.2191544 121.136823,86.1776651 120.804909,86.2606436 L120.804909,86.2606436 L121.427248,85.6383045 C121.84214,85.3063903 122.547458,84.870753 123.543201,84.3313924 C124.538943,83.7920319 125.617664,83.3563945 126.779364,83.0244803 C130.098506,82.0287378 132.836798,81.6138451 134.99424,81.7798022 L134.99424,81.7798022 L134.99424,85.1404333 C134.828283,85.8872402 134.164454,86.3851114 133.002755,86.6340471 L133.002755,86.6340471 L131.01127,87.1319184 Z M106.780099,96.5901805 L104.459571,96.5901805 C98.4093149,96.5763986 94.5641638,96.4523615 92.9241172,96.2180691 C91.8453961,96.052112 90.9533767,95.5334961 90.2480591,94.6622214 C89.5427415,93.7909467 89.5634861,92.9404166 90.310293,92.1106311 C91.4719927,90.8659529 92.3017781,90.1398906 92.7996494,89.9324443 C93.2975207,89.7249979 94.7496452,89.4553176 97.156023,89.1234035 C100.060272,88.7914893 102.881543,88.6255322 105.619835,88.6255322 C108.358127,88.6255322 111.179397,88.7914893 114.083646,89.1234035 C116.490024,89.4553176 117.942149,89.7249979 118.44002,89.9324443 C118.937891,90.1398906 119.767677,90.8659529 120.929376,92.1106311 C121.676183,92.9404166 121.696928,93.7909467 120.99161,94.6622214 C120.286293,95.5334961 119.394273,96.052112 118.315552,96.2180691 C116.573003,96.4670048 112.341097,96.5914726 105.619835,96.5914726 L106.780099,96.5901805 Z M134.99424,106.548898 C135.57509,106.548898 135.989982,106.46592 136.238918,106.299962 C136.653811,106.134005 136.902746,105.30422 136.985725,103.810606 C136.985725,103.727628 137.00647,103.60316 137.047959,103.437203 C137.089448,103.271246 137.110193,103.105288 137.110193,102.939331 L137.110193,102.939331 L137.110193,101.445718 C136.861257,102.275503 136.736789,102.731885 136.736789,102.814864 C136.487854,103.312735 135.824025,103.56167 134.745304,103.56167 C133.085733,103.395713 130.928291,103.395713 128.272978,103.56167 L128.272978,103.56167 L128.272978,104.557413 C128.355956,105.88507 128.812338,106.548898 129.642124,106.548898 L129.642124,106.548898 L134.99424,106.548898 Z M81.5975457,106.548898 C82.4273312,106.548898 82.8837132,105.88507 82.9666917,104.557413 L82.9666917,104.557413 L82.9666917,103.56167 C80.3113782,103.395713 78.1539361,103.395713 76.4943651,103.56167 C75.415644,103.56167 74.7518157,103.312735 74.50288,102.814864 C74.50288,102.731885 74.3784122,102.275503 74.1294766,101.445718 L74.1294766,101.445718 L74.1294766,103.810606 C74.2124551,105.221241 74.50288,106.051027 75.0007513,106.299962 C75.249687,106.46592 75.6645797,106.548898 76.2454295,106.548898 L76.2454295,106.548898 L81.5975457,106.548898 Z" id="Icon"></path>
                </g>
            </g>
        </g>
    </g>
</svg>