<?xml version="1.0" encoding="UTF-8"?>
<svg width="21px" height="21px" viewBox="0 0 21 21" version="1.1" xmlns="http://www.w3.org/2000/svg" xmlns:xlink="http://www.w3.org/1999/xlink">
    <!-- Generator: Sketch 61 (89581) - https://sketch.com -->
    <title>Github</title>
    <desc>Created with Sketch.</desc>
    <g id="Symbols" stroke="none" stroke-width="1" fill="none" fill-rule="evenodd">
        <g id="DSK/Button/Large/Sign-Up" transform="translate(-14.000000, -14.000000)" fill="#2F5BEA">
            <g id="CTA">
                <g id="Icons/Social/Google" transform="translate(12.000000, 12.000000)">
                    <path d="M19.3669423,20.5850671 C17.6674959,22.0541945 15.393913,22.9 12.708,22.9 C8.64044445,22.9 5.13911111,20.5657778 3.42888889,17.1684445 L3.42888889,17.1684445 L6.79155555,14.5568889 C7.62355555,17.0644445 9.95777778,18.8786666 12.708,18.8786666 C14.2564445,18.8786666 15.4351111,18.4511111 16.3133334,17.8386666 L16.3133334,17.8386666 L16.550174,17.6626496 C17.7716524,16.6997447 18.3307974,15.3671372 18.4395555,14.4644445 L18.4395555,14.4644445 L12.708,14.4644445 L12.708,10.6048889 L22.4724445,10.6048889 C22.6226666,11.252 22.692,11.876 22.692,12.7311111 C22.692,15.8973334 21.5595555,18.5666666 19.5951111,20.3808889 L19.5951111,20.3808889 Z M12.708,2.1 C15.516,2.1 17.8617778,3.12844445 19.6644445,4.804 L19.6644445,4.804 L16.7293334,7.66977778 C15.9782222,6.96488889 14.6608889,6.12133334 12.708,6.12133334 C9.95777778,6.12133334 7.62355555,7.93555555 6.78,10.4431111 L6.78,10.4431111 L6.69594428,10.723207 C6.53827664,11.2887891 6.44488889,11.8859047 6.44488889,12.5 C6.44488889,13.2164445 6.572,13.9097778 6.79155555,14.5568889 L6.79155555,14.5568889 L3.41733334,17.1684445 C2.71244444,15.7586666 2.308,14.1755555 2.308,12.5 C2.308,10.8244445 2.71244444,9.24133334 3.41733334,7.83155555 L3.41733334,7.83155555 L3.55607329,7.56557687 C5.31282856,4.31298492 8.74748538,2.1 12.708,2.1 Z" id="Combined-Shape"></path>
                </g>
            </g>
        </g>
    </g>
</svg>