<?xml version="1.0" encoding="UTF-8"?>
<svg width="69px" height="139px" viewBox="0 0 69 139" version="1.1" xmlns="http://www.w3.org/2000/svg" xmlns:xlink="http://www.w3.org/1999/xlink">
    <!-- Generator: Sketch 60 (88103) - https://sketch.com -->
    <title>Icon</title>
    <desc>Created with Sketch.</desc>
    <g id="FULL-Website" stroke="none" stroke-width="1" fill="none" fill-rule="evenodd">
        <g id="MBL-Home" transform="translate(-153.000000, -1691.000000)" fill="#F6F9FC" fill-rule="nonzero">
            <g id="Infographic" transform="translate(19.000000, 1328.000000)">
                <g id="Smartphones" transform="translate(0.995283, 290.000000)">
                    <path d="M193.310884,211.300287 C195.70078,211.300287 197.732192,210.463824 199.40512,208.790896 C201.078048,207.117968 201.914511,205.086556 201.914511,202.696659 L201.914511,202.696659 L201.914511,82.2458693 C201.914511,79.8559726 201.078048,77.8245605 199.40512,76.1516328 C197.732192,74.4787052 195.70078,73.6422414 193.310884,73.6422414 L193.310884,73.6422414 L141.689116,73.6422414 C139.29922,73.6422414 137.267808,74.4787052 135.59488,76.1516328 C133.921952,77.8245605 133.085489,79.8559726 133.085489,82.2458693 L133.085489,82.2458693 L133.085489,202.696659 C133.085489,205.086556 133.921952,207.117968 135.59488,208.790896 C137.267808,210.463824 139.29922,211.300287 141.689116,211.300287 L141.689116,211.300287 L193.310884,211.300287 Z M171.801814,87.9816212 L163.198186,87.9816212 C162.242227,87.9816212 161.764248,87.5036418 161.764248,86.5476832 C161.764248,85.5917245 162.242227,85.1137452 163.198186,85.1137452 L163.198186,85.1137452 L171.801814,85.1137452 C172.757773,85.1137452 173.235752,85.5917245 173.235752,86.5476832 C173.235752,87.5036418 172.757773,87.9816212 171.801814,87.9816212 L171.801814,87.9816212 Z M196.17876,188.35728 L138.82124,188.35728 L138.82124,96.585249 L196.17876,96.585249 L196.17876,188.35728 Z M167.5,205.564535 C163.676165,205.564535 161.764248,203.652618 161.764248,199.828784 C161.764248,196.004949 163.676165,194.093032 167.5,194.093032 C171.323835,194.093032 173.235752,196.004949 173.235752,199.828784 C173.235752,203.652618 171.323835,205.564535 167.5,205.564535 Z" id="Icon"></path>
                </g>
            </g>
        </g>
    </g>
</svg>