<?xml version="1.0" encoding="UTF-8"?>
<svg width="17px" height="15px" viewBox="0 0 17 15" version="1.1" xmlns="http://www.w3.org/2000/svg" xmlns:xlink="http://www.w3.org/1999/xlink">
    <!-- Generator: Sketch 59.1 (86144) - https://sketch.com -->
    <title>Twitter</title>
    <desc>Created with Sketch.</desc>
    <g id="Symbols" stroke="none" stroke-width="1" fill="none" fill-rule="evenodd">
        <g id="MBL/Navigation/Top/About" transform="translate(-261.000000, -23.000000)" fill="#F6F9FC">
            <g id="Social" transform="translate(260.000000, 21.666667)">
                <g id="Icons/Twitter" transform="translate(0.990000, 0.000000)">
                    <path d="M8.25447005,5.2128326 L8.29132036,5.82047693 L7.67714848,5.7460715 C5.44156285,5.46085069 3.48849627,4.49358012 1.8302322,2.86906159 L1.01952532,2.06300278 L0.81070688,2.65824621 C0.368503127,3.98514302 0.651022191,5.38644526 1.57228001,6.32891403 C2.06361751,6.84975203 1.95306657,6.92415746 1.10550938,6.61413484 C0.81070688,6.5149276 0.552754691,6.44052217 0.528187816,6.47772489 C0.442203753,6.56453122 0.737006254,7.69301356 0.970391568,8.13944613 C1.28976095,8.75949137 1.94078314,9.3671357 2.65322252,9.72676194 L3.25511096,10.0119828 L2.54267158,10.0243837 C1.85479907,10.0243837 1.8302322,10.0367846 1.90393282,10.2972036 C2.14960158,11.1032624 3.11999314,11.9589248 4.20093565,12.330952 L4.96250878,12.591371 L4.29920315,12.9881999 C3.31652814,13.5586415 2.16188501,13.8810651 1.00724188,13.9058669 C0.45448719,13.9182678 -3.0148523e-14,13.9678714 -3.0148523e-14,14.0050741 C-3.0148523e-14,14.1290831 1.49857938,14.8235338 2.37070345,15.0963537 C4.98707565,15.9024125 8.09478536,15.5551872 10.4286385,14.1786868 C12.0869026,13.1990153 13.7451666,11.2520732 14.5190232,9.3671357 C14.9366601,8.36266242 15.354297,6.52732851 15.354297,5.64686427 C15.354297,5.07642264 15.3911473,5.00201722 16.0790198,4.31996745 C16.4843732,3.9231385 16.8651598,3.48910683 16.9388604,3.36509778 C17.0616948,3.12948059 17.0494114,3.12948059 16.422956,3.34029597 C15.3788638,3.71232312 15.2314626,3.6627195 15.747367,3.10467878 C16.1281535,2.70784983 16.5826407,1.98859735 16.5826407,1.77778197 C16.5826407,1.74057925 16.3983892,1.80258378 16.1895707,1.91419192 C15.9684688,2.03820097 15.4771313,2.22421454 15.1086282,2.33582268 L14.4453226,2.54663807 L13.8434341,2.13740821 C13.5117813,1.91419192 13.0450107,1.66617383 12.799342,1.5917684 C12.1728866,1.41815573 11.2147785,1.44295754 10.6497404,1.64137202 C9.11431068,2.19941273 8.14391911,3.63791769 8.25447005,5.2128326 Z" id="Shape"></path>
                </g>
            </g>
        </g>
    </g>
</svg>