<svg xmlns="http://www.w3.org/2000/svg" style="height:0;width:0;position:absolute;visibility:hidden">
  <symbol id="benefits-alexa" viewBox="0 0 15 15" fill="none">
    <path fill="#5FCAF4" fill-rule="evenodd" clip-rule="evenodd" d="M7.49626 -3.1665e-07C3.35625 -3.1665e-07 0 3.35792 0 7.5C0 11.3031 2.82936 14.4447 6.49683 14.9335V13.4223C6.49683 12.9961 6.2282 12.613 5.82444 12.4776C3.7084 11.7665 2.19465 9.74279 2.25036 7.37353C2.31824 4.489 4.66672 2.22115 7.55039 2.25023C10.4235 2.27931 12.7437 4.61858 12.7437 7.5C12.7437 7.56567 12.7421 7.63102 12.7397 7.69606C12.7391 7.71062 12.7386 7.72523 12.738 7.73987C12.7353 7.80027 12.7316 7.86058 12.7269 7.92052C12.7254 7.93959 12.7235 7.95861 12.7218 7.97754C12.7181 8.01946 12.7138 8.06092 12.7091 8.10239C12.7038 8.14963 12.6977 8.19637 12.6911 8.24302C12.6882 8.26428 12.6853 8.28561 12.6821 8.30679C12.0396 12.5409 6.52766 14.9207 6.49746 14.9337C6.82428 14.9771 7.15763 15 7.49626 15C11.6364 15 14.9925 11.6422 14.9925 7.5C14.9925 3.35792 11.6364 -3.1665e-07 7.49626 -3.1665e-07" />
  </symbol>
  <symbol id="benefits-asr" viewBox="0 0 27 11" fill="none">
    <path fill="#2C363F" d="M6.49976 7.89746H3.03247L2.37329 9.875H0.270508L3.84326 0.277344H5.67578L9.26831 9.875H7.16553L6.49976 7.89746ZM3.56641 6.29565H5.96582L4.75952 2.70312L3.56641 6.29565Z" />
    <path fill="#2C363F" d="M15.4116 7.35693C15.4116 6.9834 15.2798 6.69775 15.0161 6.5C14.7524 6.29785 14.2778 6.08691 13.5923 5.86719C12.9067 5.64307 12.364 5.42334 11.9641 5.20801C10.8742 4.61914 10.3293 3.82593 10.3293 2.82837C10.3293 2.30981 10.4743 1.84839 10.7644 1.44409C11.0588 1.0354 11.4785 0.716797 12.0234 0.488281C12.5727 0.259766 13.188 0.145508 13.8691 0.145508C14.5547 0.145508 15.1655 0.270752 15.7016 0.52124C16.2378 0.767334 16.6531 1.1167 16.9475 1.56934C17.2463 2.02197 17.3957 2.53613 17.3957 3.11182H15.4182C15.4182 2.67236 15.2798 2.33179 15.0029 2.09009C14.7261 1.84399 14.3371 1.72095 13.8362 1.72095C13.3528 1.72095 12.977 1.82422 12.709 2.03076C12.4409 2.23291 12.3069 2.50098 12.3069 2.83496C12.3069 3.14697 12.4629 3.40845 12.7749 3.61938C13.0913 3.83032 13.5549 4.02808 14.1658 4.21265C15.2908 4.55103 16.1103 4.9707 16.6245 5.47168C17.1387 5.97266 17.3957 6.59668 17.3957 7.34375C17.3957 8.17432 17.0815 8.8269 16.4531 9.30151C15.8247 9.77173 14.9787 10.0068 13.9153 10.0068C13.177 10.0068 12.5046 9.8728 11.8982 9.60474C11.2917 9.33228 10.8281 8.96094 10.5073 8.49072C10.1909 8.02051 10.0327 7.47559 10.0327 6.85596H12.0168C12.0168 7.91504 12.6496 8.44458 13.9153 8.44458C14.3855 8.44458 14.7524 8.3501 15.0161 8.16113C15.2798 7.96777 15.4116 7.69971 15.4116 7.35693Z" />
    <path fill="#2C363F" d="M22.5634 6.36157H20.988V9.875H19.0105V0.277344H22.5766C23.7104 0.277344 24.5849 0.530029 25.2002 1.0354C25.8154 1.54077 26.123 2.25488 26.123 3.17773C26.123 3.83252 25.9802 4.37964 25.6945 4.81909C25.4133 5.25415 24.9848 5.60132 24.4091 5.8606L26.4856 9.78271V9.875H24.363L22.5634 6.36157ZM20.988 4.75977H22.5832C23.0798 4.75977 23.4643 4.63452 23.7368 4.38403C24.0092 4.12915 24.1455 3.77979 24.1455 3.33594C24.1455 2.8833 24.0158 2.52734 23.7566 2.26807C23.5017 2.00879 23.1084 1.87915 22.5766 1.87915H20.988V4.75977Z" />
  </symbol>
  <symbol id="benefits-custom" viewBox="0 0 42 8">
    <path d="M6.21777 5.13184C6.16244 5.89681 5.87923 6.49902 5.36816 6.93848C4.86035 7.37793 4.18978 7.59766 3.35645 7.59766C2.44499 7.59766 1.72721 7.29167 1.20312 6.67969C0.682292 6.06445 0.421875 5.22135 0.421875 4.15039V3.71582C0.421875 3.03223 0.542318 2.43001 0.783203 1.90918C1.02409 1.38835 1.36751 0.989583 1.81348 0.712891C2.2627 0.432943 2.78353 0.292969 3.37598 0.292969C4.19629 0.292969 4.8571 0.512695 5.3584 0.952148C5.8597 1.3916 6.14941 2.00846 6.22754 2.80273H4.7627C4.72689 2.34375 4.59831 2.01172 4.37695 1.80664C4.15885 1.59831 3.8252 1.49414 3.37598 1.49414C2.8877 1.49414 2.52148 1.66992 2.27734 2.02148C2.03646 2.36979 1.91276 2.91178 1.90625 3.64746V4.18457C1.90625 4.9528 2.02181 5.51432 2.25293 5.86914C2.4873 6.22396 2.85514 6.40137 3.35645 6.40137C3.80892 6.40137 4.14583 6.29883 4.36719 6.09375C4.5918 5.88542 4.72038 5.56478 4.75293 5.13184H6.21777Z" />
    <path d="M12.7605 0.390625V5.07324C12.7605 5.85124 12.5164 6.46647 12.0281 6.91895C11.5431 7.37142 10.879 7.59766 10.0359 7.59766C9.20586 7.59766 8.54668 7.37793 8.0584 6.93848C7.57012 6.49902 7.32109 5.89518 7.31133 5.12695V0.390625H8.77617V5.08301C8.77617 5.5485 8.88685 5.88867 9.1082 6.10352C9.33281 6.3151 9.64206 6.4209 10.0359 6.4209C10.8595 6.4209 11.2778 5.98796 11.2908 5.12207V0.390625H12.7605Z" />
    <path d="M17.8482 5.63477C17.8482 5.35807 17.7506 5.14648 17.5553 5C17.36 4.85026 17.0084 4.69401 16.5006 4.53125C15.9928 4.36523 15.5908 4.20247 15.2945 4.04297C14.4872 3.60677 14.0836 3.01921 14.0836 2.28027C14.0836 1.89616 14.191 1.55436 14.4059 1.25488C14.624 0.952148 14.9348 0.716146 15.3385 0.546875C15.7454 0.377604 16.2011 0.292969 16.7057 0.292969C17.2135 0.292969 17.666 0.385742 18.0631 0.571289C18.4602 0.753581 18.7678 1.01237 18.9859 1.34766C19.2073 1.68294 19.318 2.0638 19.318 2.49023H17.8531C17.8531 2.16471 17.7506 1.91243 17.5455 1.7334C17.3404 1.55111 17.0523 1.45996 16.6812 1.45996C16.3232 1.45996 16.0449 1.53646 15.8463 1.68945C15.6477 1.83919 15.5484 2.03776 15.5484 2.28516C15.5484 2.51628 15.664 2.70996 15.8951 2.86621C16.1295 3.02246 16.4729 3.16895 16.9254 3.30566C17.7587 3.55632 18.3658 3.86719 18.7467 4.23828C19.1275 4.60938 19.318 5.07161 19.318 5.625C19.318 6.24023 19.0852 6.72363 18.6197 7.0752C18.1542 7.4235 17.5276 7.59766 16.7398 7.59766C16.193 7.59766 15.6949 7.49837 15.2457 7.2998C14.7965 7.09798 14.4531 6.82292 14.2154 6.47461C13.9811 6.1263 13.8639 5.72266 13.8639 5.26367H15.3336C15.3336 6.04818 15.8023 6.44043 16.7398 6.44043C17.0882 6.44043 17.36 6.37044 17.5553 6.23047C17.7506 6.08724 17.8482 5.88867 17.8482 5.63477Z" />
    <path d="M25.8656 1.57715H23.6879V7.5H22.223V1.57715H20.0746V0.390625H25.8656V1.57715Z" />
    <path d="M32.6086 4.10645C32.6086 4.80631 32.4849 5.41992 32.2375 5.94727C31.9901 6.47461 31.6353 6.88151 31.173 7.16797C30.7141 7.45443 30.1867 7.59766 29.591 7.59766C29.0018 7.59766 28.4761 7.45605 28.0139 7.17285C27.5516 6.88965 27.1936 6.486 26.9396 5.96191C26.6857 5.43457 26.5572 4.8291 26.5539 4.14551V3.79395C26.5539 3.09408 26.6792 2.47884 26.9299 1.94824C27.1838 1.41439 27.5402 1.00586 27.9992 0.722656C28.4615 0.436198 28.9888 0.292969 29.5812 0.292969C30.1737 0.292969 30.6994 0.436198 31.1584 0.722656C31.6206 1.00586 31.9771 1.41439 32.2277 1.94824C32.4816 2.47884 32.6086 3.09245 32.6086 3.78906V4.10645ZM31.1242 3.78418C31.1242 3.03874 30.9908 2.47233 30.7238 2.08496C30.4569 1.69759 30.076 1.50391 29.5812 1.50391C29.0897 1.50391 28.7105 1.69596 28.4436 2.08008C28.1766 2.46094 28.0415 3.02083 28.0383 3.75977V4.10645C28.0383 4.83236 28.1717 5.39551 28.4387 5.7959C28.7056 6.19629 29.0897 6.39648 29.591 6.39648C30.0826 6.39648 30.4602 6.20443 30.7238 5.82031C30.9875 5.43294 31.121 4.86979 31.1242 4.13086V3.78418Z" />
    <path d="M35.7871 0.390625L37.6133 5.54688L39.4297 0.390625H41.3535V7.5H39.8838V5.55664L40.0303 2.20215L38.1113 7.5H37.1055L35.1914 2.20703L35.3379 5.55664V7.5H33.873V0.390625H35.7871Z" />
  </symbol>
  <symbol id="benefits-dialogflow" viewBox="0 0 15 15" fill="none">
    <path d="M13.0472 3.3335L7.27523 6.66692L1.5 3.3335V10.0004L4.38762 11.6658V15.0001L13.0472 10.0004V3.3335Z" fill="#EF6C00"/>
    <path d="M7.27523 6.66685L1.5 3.33343L7.27523 0L13.0472 3.33343L7.27523 6.66685Z" fill="#FF9800"/>
    <path d="M7.17292 6.56524L1.53654 3.3114L1.5 3.33332L7.27523 6.66675L13.0472 3.33332L12.9116 3.25293L7.17292 6.56524Z" fill="#FF9800"/>
    <path d="M7.27523 6.70838V6.66696L1.53654 3.35303L1.5 3.37495L7.27523 6.70838Z" fill="#FF9800"/>
  </symbol>
  <symbol id="benefits-google-assistant" viewBox="0 0 15 15" fill="none">
    <path d="M4.57816 9.49178C7.10661 9.49178 9.15633 7.44206 9.15633 4.91361C9.15633 2.38516 7.10661 0.335449 4.57816 0.335449C2.04971 0.335449 0 2.38516 0 4.91361C0 7.44206 2.04971 9.49178 4.57816 9.49178Z" fill="#4285F4"/>
    <path d="M14.9997 5.36021C14.9997 5.8742 14.583 6.29074 14.0692 6.29074C13.5554 6.29074 13.1387 5.8742 13.1387 5.36021C13.1387 4.84626 13.5554 4.42969 14.0692 4.42969C14.583 4.42969 14.9997 4.84626 14.9997 5.36021Z" fill="#34A853"/>
    <path d="M13.3246 7.63058C13.3246 8.65834 12.4915 9.49157 11.4636 9.49157C10.4356 9.49157 9.60254 8.65834 9.60254 7.63058C9.60254 6.60276 10.4357 5.76953 11.4636 5.76953C12.4915 5.76953 13.3246 6.60279 13.3246 7.63058Z" fill="#EA4335"/>
    <path d="M13.697 12.4324C13.697 13.6658 12.6973 14.6656 11.4637 14.6656C10.2302 14.6656 9.23047 13.6658 9.23047 12.4324C9.23047 11.1991 10.2302 10.1992 11.4637 10.1992C12.6973 10.1992 13.697 11.1991 13.697 12.4324Z" fill="#FBBC05"/>
  </symbol>
  <symbol id="benefits-google-cloud" viewBox="0 0 20 15" fill="none">
    <path d="M12.3985 4.1167H12.961L14.5642 2.53337L14.643 1.86115C13.7245 1.06057 12.6146 0.504431 11.4181 0.245276C10.2215 -0.0138797 8.97784 0.0325003 7.80448 0.380035C6.63112 0.727569 5.56684 1.36478 4.71217 2.23149C3.8575 3.09819 3.24066 4.16577 2.91992 5.33337C3.09853 5.26107 3.29637 5.24935 3.48245 5.30004L6.68885 4.77781C6.68885 4.77781 6.85198 4.51115 6.93636 4.52781C7.62339 3.78263 8.57284 3.32498 9.59036 3.24855C10.6079 3.17213 11.6165 3.4827 12.4097 4.1167H12.3985Z" fill="#EA4335"/>
    <path d="M16.8478 5.33337C16.4793 3.99316 15.7227 2.78833 14.6709 1.8667L12.4208 4.08892C12.8897 4.46735 13.2655 4.946 13.5198 5.48878C13.7742 6.03155 13.9004 6.62428 13.889 7.22226V7.6167C14.1519 7.6167 14.4123 7.66786 14.6553 7.76725C14.8983 7.86664 15.119 8.01232 15.305 8.19598C15.491 8.37963 15.6385 8.59766 15.7391 8.83761C15.8397 9.07757 15.8915 9.33475 15.8915 9.59448C15.8915 9.8542 15.8397 10.1114 15.7391 10.3513C15.6385 10.5913 15.491 10.8093 15.305 10.993C15.119 11.1766 14.8983 11.3223 14.6553 11.4217C14.4123 11.5211 14.1519 11.5723 13.889 11.5723H9.88377L9.48438 11.9723V14.3445L9.88377 14.7389H13.889C15.0074 14.7475 16.0989 14.4004 17.0021 13.7488C17.9053 13.0972 18.5721 12.1759 18.9039 11.121C19.2358 10.0661 19.215 8.93378 18.8447 7.89146C18.4745 6.84915 17.7743 5.95222 16.8478 5.33337V5.33337Z" fill="#4285F4"/>
    <path d="M5.87304 14.7165H9.87822V11.5498H5.87304C5.58768 11.5498 5.30568 11.4892 5.04612 11.3721L4.4836 11.5443L2.86915 13.1276L2.72852 13.6832C3.63386 14.3584 4.73858 14.7214 5.87304 14.7165V14.7165Z" fill="#34A853"/>
    <path d="M5.87319 4.44437C4.78797 4.45077 3.73188 4.79176 2.85242 5.4197C1.97296 6.04765 1.31404 6.93119 0.9677 7.94693C0.621361 8.96267 0.604896 10.0599 0.920605 11.0853C1.23631 12.1107 1.86843 13.0132 2.72867 13.6666L5.0519 11.3721C4.75666 11.2404 4.4982 11.0399 4.29868 10.7878C4.09916 10.5358 3.96454 10.2396 3.90637 9.92489C3.8482 9.61013 3.86822 9.28614 3.96472 8.98071C4.06121 8.67528 4.23129 8.39752 4.46037 8.17128C4.68945 7.94504 4.97069 7.77707 5.27995 7.68177C5.58922 7.58647 5.91727 7.5667 6.23598 7.62414C6.55468 7.68159 6.85451 7.81454 7.10975 8.01159C7.36499 8.20864 7.56801 8.4639 7.7014 8.75548L10.0246 6.46104C9.537 5.83146 8.90852 5.32181 8.18833 4.97196C7.46815 4.62212 6.67578 4.44154 5.87319 4.44437V4.44437Z" fill="#FBBC05"/>
  </symbol>
  <symbol id="benefits-ios" viewBox="0 0 15 16" fill="none">
    <path fill="white" d="M13.87 12.1896C13.6432 12.7136 13.3746 13.196 13.0635 13.6395C12.6395 14.2441 12.2923 14.6626 12.0247 14.895C11.6099 15.2765 11.1654 15.4719 10.6895 15.483C10.3479 15.483 9.93586 15.3858 9.45624 15.1885C8.97505 14.9922 8.53284 14.895 8.1285 14.895C7.70444 14.895 7.24964 14.9922 6.76317 15.1885C6.27597 15.3858 5.88348 15.4885 5.5834 15.4987C5.12702 15.5182 4.67213 15.3172 4.21807 14.895C3.92826 14.6423 3.56577 14.2089 3.13152 13.5951C2.66561 12.9395 2.28257 12.1794 1.98249 11.3127C1.66111 10.3766 1.5 9.47019 1.5 8.59263C1.5 7.58738 1.71722 6.72037 2.1523 5.99382C2.49423 5.41022 2.94912 4.94987 3.51846 4.61191C4.08779 4.27396 4.70296 4.10174 5.36544 4.09072C5.72793 4.09072 6.20328 4.20285 6.79401 4.42321C7.38306 4.64432 7.76129 4.75645 7.92712 4.75645C8.0511 4.75645 8.47127 4.62534 9.18356 4.36396C9.85716 4.12156 10.4257 4.02119 10.8914 4.06073C12.1534 4.16257 13.1015 4.66006 13.732 5.55633C12.6034 6.2402 12.0451 7.19804 12.0562 8.4268C12.0663 9.3839 12.4136 10.1804 13.0959 10.8127C13.4052 11.1063 13.7506 11.3331 14.1348 11.4942C14.0515 11.7359 13.9635 11.9673 13.87 12.1896V12.1896ZM10.9756 0.800084C10.9756 1.55026 10.7016 2.25069 10.1553 2.899C9.49606 3.66972 8.69867 4.11508 7.83398 4.0448C7.82296 3.9548 7.81657 3.86008 7.81657 3.76055C7.81657 3.04039 8.13008 2.26967 8.68682 1.6395C8.96477 1.32044 9.31828 1.05514 9.74697 0.843508C10.1747 0.635033 10.5794 0.51974 10.9599 0.5C10.971 0.600284 10.9756 0.700577 10.9756 0.800074V0.800084Z" />
  </symbol>
  <symbol id="benefits-keyword" viewBox="0 0 33 6" fill="none">
    <path d="M2.23535 3.2002L1.72119 3.75391V5.125H0.732422V0.326172H1.72119V2.50146L2.15625 1.90491L3.37903 0.326172H4.59521L2.89124 2.45862L4.64465 5.125H3.46802L2.23535 3.2002Z" fill="#2C363F"/>
    <path d="M8.0393 3.04529H6.14086V4.33069H8.36889V5.125H5.15209V0.326172H8.3623V1.12708H6.14086V2.27075H8.0393V3.04529Z" fill="#2C363F"/>
    <path d="M10.7385 2.48828L11.7372 0.326172H12.8182L11.2428 3.38477V5.125H10.2375V3.38477L8.66209 0.326172H9.74644L10.7385 2.48828Z" fill="#2C363F"/>
    <path d="M17.1884 3.74072L17.8344 0.326172H18.8199L17.7553 5.125H16.76L15.9789 1.91479L15.1977 5.125H14.2024L13.1378 0.326172H14.1233L14.7726 3.73413L15.5636 0.326172H16.4007L17.1884 3.74072Z" fill="#2C363F"/>
    <path d="M23.434 2.83435C23.434 3.30676 23.3505 3.72095 23.1836 4.0769C23.0166 4.43286 22.7771 4.70752 22.465 4.90088C22.1552 5.09424 21.7993 5.19092 21.3972 5.19092C20.9995 5.19092 20.6446 5.09534 20.3326 4.90417C20.0206 4.71301 19.7789 4.44055 19.6075 4.08679C19.4361 3.73083 19.3493 3.32214 19.3471 2.86072V2.62341C19.3471 2.151 19.4317 1.73572 19.6009 1.37756C19.7723 1.01721 20.0129 0.741455 20.3227 0.550293C20.6347 0.356934 20.9907 0.260254 21.3906 0.260254C21.7905 0.260254 22.1453 0.356934 22.4552 0.550293C22.7672 0.741455 23.0078 1.01721 23.177 1.37756C23.3483 1.73572 23.434 2.1499 23.434 2.62012V2.83435ZM22.4321 2.61682C22.4321 2.11365 22.342 1.73132 22.1618 1.46985C21.9816 1.20837 21.7246 1.07764 21.3906 1.07764C21.0588 1.07764 20.8028 1.20728 20.6226 1.46655C20.4425 1.72363 20.3513 2.10156 20.3491 2.60034V2.83435C20.3491 3.32434 20.4392 3.70447 20.6193 3.97473C20.7995 4.245 21.0588 4.38013 21.3972 4.38013C21.729 4.38013 21.9838 4.25049 22.1618 3.99121C22.3398 3.72974 22.4299 3.34961 22.4321 2.85083V2.61682Z" fill="#2C363F"/>
    <path d="M26.064 3.36829H25.2763V5.125H24.2875V0.326172H26.0706C26.6375 0.326172 27.0748 0.452515 27.3824 0.7052C27.69 0.957886 27.8438 1.31494 27.8438 1.77637C27.8438 2.10376 27.7724 2.37732 27.6296 2.59705C27.489 2.81458 27.2747 2.98816 26.9869 3.1178L28.0251 5.07886V5.125H26.9638L26.064 3.36829ZM25.2763 2.56738H26.0739C26.3222 2.56738 26.5145 2.50476 26.6507 2.37952C26.7869 2.25208 26.8551 2.07739 26.8551 1.85547C26.8551 1.62915 26.7902 1.45117 26.6606 1.32153C26.5332 1.19189 26.3365 1.12708 26.0706 1.12708H25.2763V2.56738Z" fill="#2C363F"/>
    <path d="M28.7336 5.125V0.326172H30.2101C30.632 0.326172 31.0089 0.421753 31.3406 0.612915C31.6746 0.80188 31.935 1.07214 32.1218 1.42371C32.3085 1.77307 32.4019 2.17078 32.4019 2.61682V2.83765C32.4019 3.28369 32.3096 3.6803 32.1251 4.02747C31.9427 4.37463 31.6845 4.6438 31.3505 4.83496C31.0165 5.02612 30.6397 5.1228 30.22 5.125H28.7336ZM29.7224 1.12708V4.33069H30.2003C30.587 4.33069 30.8825 4.20435 31.0869 3.95166C31.2912 3.69897 31.3956 3.33752 31.4 2.86731V2.61353C31.4 2.12573 31.2989 1.75659 31.0967 1.5061C30.8946 1.25342 30.5991 1.12708 30.2101 1.12708H29.7224Z" fill="#2C363F"/>
  </symbol>
  <symbol id="benefits-microsoft" viewBox="0 0 15 15" fill="none">
    <path d="M0.652344 0.652344H7.17408V7.17408H0.652344V0.652344Z" fill="#F35325"/>
    <path d="M7.82617 0.652344H14.3479V7.17408H7.82617V0.652344Z" fill="#81BC06"/>
    <path d="M0.652344 7.82617H7.17408V14.3479H0.652344V7.82617Z" fill="#05A6F0"/>
    <path d="M7.82617 7.82617H14.3479V14.3479H7.82617V7.82617Z" fill="#FFBA08"/>
  </symbol>
  <symbol id="benefits-nlu" viewBox="0 0 25 11" fill="none">
    <path d="M8.10352 9.875H6.12598L2.27637 3.56006V9.875H0.298828V0.277344H2.27637L6.13257 6.60547V0.277344H8.10352V9.875Z" fill="#2C363F"/>
    <path d="M12.0781 8.28638H16.2771V9.875H10.1006V0.277344H12.0781V8.28638Z" fill="#2C363F"/>
    <path d="M24.7934 0.277344V6.59888C24.7934 7.64917 24.4638 8.47974 23.8046 9.09058C23.1499 9.70142 22.2534 10.0068 21.1152 10.0068C19.9946 10.0068 19.1047 9.71021 18.4455 9.11694C17.7863 8.52368 17.4502 7.7085 17.437 6.67139V0.277344H19.4145V6.61206C19.4145 7.24048 19.5639 7.69971 19.8628 7.98975C20.166 8.27539 20.5835 8.41821 21.1152 8.41821C22.227 8.41821 22.7917 7.83374 22.8093 6.66479V0.277344H24.7934Z" fill="#2C363F"/>
  </symbol>
  <symbol id="benefits-rasa" viewBox="0 0 15 15" fill="none">
    <path fill-rule="evenodd" clip-rule="evenodd" d="M10.964 3.09292V2.18153H7.16656V5.979H8.07795V4.83596H10.0526V5.9752H10.964V3.08912V3.09292ZM10.0526 3.92837H8.07795V3.09292H10.0526V3.92837ZM6.55896 10.4623H2.83744V9.5509H5.64757V9.01925H2.83744V6.66482H6.55896V7.57621H3.74884V8.10786H6.55896V10.4623ZM10.964 7.57394V6.66254H7.16656V10.46H8.07795V9.31697H10.0526V10.4562H10.964V7.57014V7.57394ZM10.0526 8.40938H8.07795V7.57394H10.0526V8.40938Z" fill="white"/>
    <path d="M11.7995 1.34818V11.274H10.225V12.9662L7.37844 11.3925L7.15515 11.2694H2.00427V1.34818H11.8017H11.7995ZM12.7891 0.36084H1.01465V12.2613H6.90072L11.2116 14.6424V12.2613H12.7868V0.36084H12.7891Z" fill="white"/>
    <path fill-rule="evenodd" clip-rule="evenodd" d="M5.33694 4.5335L6.50352 4.10894L6.55896 4.08692V2.18362H2.83744V2.25957L2.82909 5.98109H3.74048V5.11451L4.42403 4.86692L5.44934 5.98109H6.57491L5.33694 4.5335ZM3.742 4.14464V3.09502H5.64757V3.45046L3.742 4.14464Z" fill="white"/>
  </symbol>
  <symbol id="benefits-spokestack" viewBox="0 0 15 15" fill="none">
    <path fill-rule="evenodd" clip-rule="evenodd" d="M6.42857 14.4728C5.84311 14.4728 5.29421 14.3161 4.82143 14.0423C4.34865 14.3161 3.79975 14.4728 3.21429 14.4728C1.43908 14.4728 0 13.0319 0 11.2545V5.89068C0 4.70574 0.95939 3.74515 2.14286 3.74515C3.32632 3.74515 4.28571 4.70574 4.28571 5.89068V11.2545C4.28571 11.7986 4.48802 12.2955 4.82143 12.6737C5.15484 12.2955 5.35714 11.7986 5.35714 11.2545V3.74515C5.35714 1.96774 6.79623 0.526855 8.57143 0.526855C9.15689 0.526855 9.70579 0.683577 10.1786 0.957406C10.6513 0.683577 11.2003 0.526855 11.7857 0.526855C13.5609 0.526855 15 1.96773 15 3.74515V9.10898C15 10.2939 14.0406 11.2545 12.8571 11.2545C11.6737 11.2545 10.7143 10.2939 10.7143 9.10898V3.74515C10.7143 3.20102 10.512 2.7042 10.1786 2.32598C9.84516 2.7042 9.64286 3.20102 9.64286 3.74515V11.2545C9.64286 13.0319 8.20377 14.4728 6.42857 14.4728ZM1.07143 5.89068V11.2545C1.07143 12.4395 2.03082 13.4 3.21429 13.4C3.46484 13.4 3.70536 13.357 3.92885 13.2779C3.48197 12.7251 3.21429 12.0211 3.21429 11.2545L3.21429 5.89068C3.21429 5.29821 2.73459 4.81792 2.14286 4.81792C1.55112 4.81792 1.07143 5.29821 1.07143 5.89068ZM11.7857 3.74515C11.7857 2.97857 11.518 2.27459 11.0711 1.7218C11.2946 1.64268 11.5352 1.59962 11.7857 1.59962C12.9692 1.59962 13.9286 2.56021 13.9286 3.74515V9.10898C13.9286 9.70145 13.4489 10.1817 12.8571 10.1817C12.2654 10.1817 11.7857 9.70145 11.7857 9.10898L11.7857 3.74515ZM8.57143 1.59962C8.82199 1.59962 9.0625 1.64268 9.286 1.72181C8.83911 2.27459 8.57143 2.97857 8.57143 3.74515V11.2545C8.57143 12.4395 7.61204 13.4 6.42857 13.4C6.17801 13.4 5.9375 13.357 5.714 13.2779C6.16089 12.7251 6.42857 12.0211 6.42857 11.2545V3.74515C6.42857 2.56021 7.38796 1.59962 8.57143 1.59962Z" fill="#61FAE9"/>
  </symbol>
  <symbol id="benefits-tts" viewBox="0 0 26 11" fill="none">
    <path d="M8.80029 2.37915H5.86035V10.375H3.88281V2.37915H0.982422V0.777344H8.80029V2.37915Z" fill="#2C363F" />
    <path d="M17.5342 2.37915H14.5942V10.375H12.6167V2.37915H9.71629V0.777344H17.5342V2.37915Z" fill="#2C363F" />
    <path d="M23.8093 7.85693C23.8093 7.4834 23.6775 7.19775 23.4138 7C23.1501 6.79785 22.6755 6.58691 21.99 6.36719C21.3044 6.14307 20.7617 5.92334 20.3618 5.70801C19.2719 5.11914 18.727 4.32593 18.727 3.32837C18.727 2.80981 18.872 2.34839 19.1621 1.94409C19.4565 1.5354 19.8762 1.2168 20.4211 0.988281C20.9704 0.759766 21.5857 0.645508 22.2668 0.645508C22.9524 0.645508 23.5632 0.770752 24.0993 1.02124C24.6355 1.26733 25.0507 1.6167 25.3452 2.06934C25.644 2.52197 25.7934 3.03613 25.7934 3.61182H23.8159C23.8159 3.17236 23.6775 2.83179 23.4006 2.59009C23.1237 2.34399 22.7348 2.22095 22.2338 2.22095C21.7504 2.22095 21.3747 2.32422 21.1066 2.53076C20.8386 2.73291 20.7045 3.00098 20.7045 3.33496C20.7045 3.64697 20.8606 3.90845 21.1726 4.11938C21.489 4.33032 21.9526 4.52808 22.5634 4.71265C23.6884 5.05103 24.508 5.4707 25.0222 5.97168C25.5363 6.47266 25.7934 7.09668 25.7934 7.84375C25.7934 8.67432 25.4792 9.3269 24.8508 9.80151C24.2224 10.2717 23.3764 10.5068 22.3129 10.5068C21.5747 10.5068 20.9023 10.3728 20.2959 10.1047C19.6894 9.83228 19.2258 9.46094 18.905 8.99072C18.5886 8.52051 18.4304 7.97559 18.4304 7.35596H20.4145C20.4145 8.41504 21.0473 8.94458 22.3129 8.94458C22.7832 8.94458 23.1501 8.8501 23.4138 8.66113C23.6775 8.46777 23.8093 8.19971 23.8093 7.85693Z" fill="#2C363F" />
  </symbol>
  <symbol id="benefits-vad" viewBox="0 0 27 10" fill="none">
    <path d="M4.53589 7.49536L6.71118 0.277344H8.91284L5.5708 9.875H3.50757L0.178711 0.277344H2.37378L4.53589 7.49536Z" fill="white"/>
    <path d="M15.01 7.89746H11.5427L10.8835 9.875H8.78074L12.3535 0.277344H14.186L17.7785 9.875H15.6758L15.01 7.89746ZM12.0766 6.29565H14.4761L13.2698 2.70312L12.0766 6.29565Z" fill="white"/>
    <path d="M18.945 9.875V0.277344H21.8982C22.7419 0.277344 23.4956 0.468506 24.1591 0.85083C24.8271 1.22876 25.3479 1.76929 25.7214 2.47241C26.0949 3.17114 26.2817 3.96655 26.2817 4.85864V5.30029C26.2817 6.19238 26.0971 6.9856 25.728 7.67993C25.3632 8.37427 24.8469 8.9126 24.1789 9.29492C23.5109 9.67725 22.7573 9.87061 21.9179 9.875H18.945ZM20.9226 1.87915V8.28638H21.8784C22.6518 8.28638 23.2429 8.03369 23.6516 7.52832C24.0603 7.02295 24.269 6.30005 24.2778 5.35962V4.85205C24.2778 3.87646 24.0756 3.13818 23.6713 2.63721C23.267 2.13184 22.676 1.87915 21.8982 1.87915H20.9226Z" fill="white"/>
  </symbol>
  <symbol id="benefits-wake-word" viewBox="0 0 27 20" fill="none">
    <path d="M6.52881 4.6543L7.39014 0.101562H8.7041L7.28467 6.5H5.95752L4.91602 2.21973L3.87451 6.5H2.54736L1.12793 0.101562H2.44189L3.30762 4.64551L4.3623 0.101562H5.47852L6.52881 4.6543Z" fill="#2C363F"/>
    <path d="M13.0194 5.18164H10.7078L10.2684 6.5H8.86652L11.2484 0.101562H12.47L14.8651 6.5H13.4632L13.0194 5.18164ZM11.0638 4.11377H12.6634L11.8592 1.71875L11.0638 4.11377Z" fill="#2C363F"/>
    <path d="M17.6466 3.93359L16.9611 4.67188V6.5H15.6427V0.101562H16.9611V3.00195L17.5412 2.20654L19.1715 0.101562H20.7931L18.5211 2.94482L20.859 6.5H19.2902L17.6466 3.93359Z" fill="#2C363F"/>
    <path d="M25.3852 3.72705H22.854V5.44092H25.8247V6.5H21.5356V0.101562H25.8159V1.16943H22.854V2.69434H25.3852V3.72705Z" fill="#2C363F"/>
    <path d="M5.93994 17.4043L6.80127 12.8516H8.11523L6.6958 19.25H5.36865L4.32715 14.9697L3.28564 19.25H1.9585L0.539062 12.8516H1.85303L2.71875 17.3955L3.77344 12.8516H4.88965L5.93994 17.4043Z" fill="#2C363F"/>
    <path d="M14.2674 16.1958C14.2674 16.8257 14.1561 17.3779 13.9334 17.8525C13.7108 18.3271 13.3914 18.6934 12.9754 18.9512C12.5623 19.209 12.0877 19.3379 11.5516 19.3379C11.0213 19.3379 10.5482 19.2104 10.1321 18.9556C9.71613 18.7007 9.39387 18.3374 9.16535 17.8657C8.93684 17.3911 8.82111 16.8462 8.81818 16.231V15.9146C8.81818 15.2847 8.93098 14.731 9.15656 14.2534C9.38508 13.7729 9.70588 13.4053 10.119 13.1504C10.535 12.8926 11.0096 12.7637 11.5428 12.7637C12.076 12.7637 12.5491 12.8926 12.9622 13.1504C13.3782 13.4053 13.699 13.7729 13.9246 14.2534C14.1531 14.731 14.2674 15.2832 14.2674 15.9102V16.1958ZM12.9315 15.9058C12.9315 15.2349 12.8113 14.7251 12.5711 14.3765C12.3309 14.0278 11.9881 13.8535 11.5428 13.8535C11.1004 13.8535 10.7591 14.0264 10.5189 14.3721C10.2786 14.7148 10.1571 15.2188 10.1541 15.8838V16.1958C10.1541 16.8491 10.2742 17.356 10.5145 17.7163C10.7547 18.0767 11.1004 18.2568 11.5516 18.2568C11.994 18.2568 12.3338 18.084 12.5711 17.7383C12.8084 17.3896 12.9285 16.8828 12.9315 16.2178V15.9058Z" fill="#2C363F"/>
    <path d="M17.7741 16.9077H16.7238V19.25H15.4054V12.8516H17.7829C18.5387 12.8516 19.1217 13.02 19.5319 13.3569C19.942 13.6938 20.1471 14.1699 20.1471 14.7852C20.1471 15.2217 20.0519 15.5864 19.8615 15.8794C19.674 16.1694 19.3883 16.4009 19.0045 16.5737L20.3888 19.1885V19.25H18.9738L17.7741 16.9077ZM16.7238 15.8398H17.7872C18.1183 15.8398 18.3746 15.7563 18.5563 15.5894C18.7379 15.4194 18.8288 15.1865 18.8288 14.8906C18.8288 14.5889 18.7423 14.3516 18.5695 14.1787C18.3996 14.0059 18.1373 13.9194 17.7829 13.9194H16.7238V15.8398Z" fill="#2C363F"/>
    <path d="M21.3335 19.25V12.8516H23.3022C23.8647 12.8516 24.3671 12.979 24.8095 13.2339C25.2548 13.4858 25.602 13.8462 25.851 14.3149C26.1001 14.7808 26.2246 15.311 26.2246 15.9058V16.2002C26.2246 16.7949 26.1015 17.3237 25.8554 17.7866C25.6123 18.2495 25.268 18.6084 24.8227 18.8633C24.3774 19.1182 23.875 19.2471 23.3154 19.25H21.3335ZM22.6518 13.9194V18.1909H23.289C23.8046 18.1909 24.1987 18.0225 24.4712 17.6855C24.7436 17.3486 24.8828 16.8667 24.8886 16.2397V15.9014C24.8886 15.251 24.7539 14.7588 24.4843 14.4248C24.2148 14.0879 23.8208 13.9194 23.3022 13.9194H22.6518Z" fill="#2C363F"/>
  </symbol>
</svg>
