<?xml version="1.0" encoding="UTF-8"?>
<svg width="51px" height="62px" viewBox="0 0 51 62" version="1.1" xmlns="http://www.w3.org/2000/svg" xmlns:xlink="http://www.w3.org/1999/xlink">
    <title>Illustration</title>
    <defs>
        <path d="M5.3874823,2.84217094e-14 C4.82298526,0.00261346023 3.79905732,0.0204052861 2.31652221,0.0536428224 C1.20217855,0.0786257299 0.30961161,0.980281503 0.291871615,2.0907548 L0.29160249,2.12446873 L0.29160249,53.8218641 C0.29160249,54.9543974 1.20052112,55.8746413 2.32869536,55.8932105 L2.36294886,55.8932105 L23.8359063,55.8932105 C24.9684396,55.8932105 25.8886835,54.9842918 25.9069752,53.8561176 L25.9072527,53.8218641 L25.9072527,2.12500964 C25.9072527,0.998987929 25.0077183,0.0792194729 23.8819751,0.0541756397 L22.8380855,0.0318986018 C21.9153379,0.013199068 21.2430319,0.00272090436 20.8215096,2.84217094e-14 L20.7180867,2.84217094e-14 L20.6620613,2.84217094e-14 C20.3897583,2.84217094e-14 20.3184728,0.106516394 20.255013,0.544907044 L20.2251452,0.758029826 C20.2187969,0.800635463 20.2136387,0.831059691 20.206254,0.871372302 C20.0743095,1.59164643 19.6733801,1.96108273 18.6970737,1.96902885 L7.62710351,1.96911095 C6.58046542,1.96377369 6.13524484,1.60212939 5.98294537,0.897323009 L5.97017888,0.834689505 C5.96347368,0.800082007 5.95791565,0.767962872 5.95072237,0.721937519 L5.92120986,0.525419751 C5.85648537,0.109276407 5.78630905,0.00373518426 5.52272155,2.84217094e-14 L5.3874823,2.84217094e-14 Z" id="path-1"></path>
        <circle id="path-3" cx="4.25" cy="4.25" r="4.25"></circle>
        <filter x="-364.7%" y="-341.2%" width="829.4%" height="829.4%" filterUnits="objectBoundingBox" id="filter-4">
            <feOffset dx="0" dy="2" in="SourceAlpha" result="shadowOffsetOuter1"></feOffset>
            <feGaussianBlur stdDeviation="10" in="shadowOffsetOuter1" result="shadowBlurOuter1"></feGaussianBlur>
            <feColorMatrix values="0 0 0 0 0.183302285   0 0 0 0 0.357604153   0 0 0 0 0.9158429  0 0 0 1 0" type="matrix" in="shadowBlurOuter1"></feColorMatrix>
        </filter>
    </defs>
    <g id="Symbols" stroke="none" stroke-width="1" fill="none" fill-rule="evenodd">
        <g id="Dropdown/Features" transform="translate(-55.000000, -182.000000)">
            <g id="Dropdown">
                <g id="Features" transform="translate(49.500000, 76.500000)">
                    <g id="2" transform="translate(0.500000, 106.498750)">
                        <g id="Illustration/Dropdown/Features/ASR" transform="translate(0.000000, 0.033750)">
                            <g id="Image">
                                <g id="Shapes/Shape/3" transform="translate(0.500000, 6.407186)" fill="#CCE4FF">
                                    <path d="M44.5094167,46.4990839 C37.6331765,43.7318115 28.3385927,45.1555801 24.8644817,46.4990839 C19.6533152,48.5143395 15.4605888,46.1938448 11.2774798,38.1976581 C7.09437076,30.2014714 1.47029748,24.9560748 6.59638388,10.3775726 C11.7224703,-4.20092959 27.3141845,1.81045354 36.8050155,0.405682728 C46.2958463,-0.999088082 57.7239233,0.751601298 55.0107746,13.5807159 C52.2976256,26.4098305 56.9886689,29.7273053 54.8912474,39.0038232 C53.4929668,45.1881684 50.0323567,47.6865887 44.5094167,46.4990839 Z" id="Background" transform="translate(30.000000, 23.592814) scale(-1, 1) translate(-30.000000, -23.592814) "></path>
                                </g>
                                <g id="Device" transform="translate(15.500000, 0.000000)">
                                    <path d="M25.5466053,0 C27.7582865,0 29.5512083,1.79292183 29.5512083,4.00460299 L29.5512083,55.995397 C29.5512083,58.2070782 27.7582865,60 25.5466053,60 L4.21173763,60 C2.00005647,60 0.207134638,58.2070782 0.207134638,55.995397 L0.207134638,4.00460299 C0.207134638,1.79292183 2.00005647,0 4.21173763,0 L25.5466053,0 Z" id="Shape" stroke="#2F5BEA" stroke-width="0.5" fill="#FFFFFF" fill-rule="nonzero"></path>
                                    <g id="Screen" transform="translate(1.848789, 1.966398)">
                                        <mask id="mask-2" fill="white">
                                            <use xlink:href="#path-1"></use>
                                        </mask>
                                        <use id="Shape" fill-opacity="0.25" fill="#CCE4FF" xlink:href="#path-1"></use>
                                        <path d="M-3,48.8523941 C-0.699155888,50.1925328 0.332065677,54.5480187 2.46843756,54.5480187 C4.99323697,54.5480187 5.59352621,50.0924272 7.81324569,50.0924272 C10.0329652,50.0924272 10.9746998,53.7711225 13.5674246,53.7711225 C15.1670938,53.7711225 16.5998936,51.2866753 20.4123275,51.2915852 C24.2247614,51.2964951 26.0440248,54.0335348 29.1988552,54.0335348 L29.1988552,55.8932105 L-3,55.8932105 L-3,48.8523941 Z" id="Shape" fill="#2F5BEA" opacity="0.25" mask="url(#mask-2)"></path>
                                        <path d="M-3,54.9202953 C-0.314467011,54.9202953 0.0809555103,51.667522 2.4419866,51.667522 C4.80301768,51.667522 5.80470491,54.9202953 8.56248758,54.9202953 C11.3202702,54.9202953 12.7670597,52.288583 15.387941,52.288583 C18.0088222,52.288583 25.8431822,54.5446999 29.1988552,54.5446999 L29.1988552,55.8837515 L-3,55.8932105 L-3,54.9202953 Z" id="Shape" fill="#2F5BEA" opacity="0.1" mask="url(#mask-2)"></path>
                                        <g id="Button" mask="url(#mask-2)">
                                            <g transform="translate(8.824769, 42.852394)">
                                                <g id="Background" fill="none">
                                                    <use fill="black" fill-opacity="1" filter="url(#filter-4)" xlink:href="#path-3"></use>
                                                    <use fill="#2F5BEA" fill-rule="evenodd" xlink:href="#path-3"></use>
                                                </g>
                                                <path d="M4.25,3.48717949 C4.67129414,3.48717949 5.01282051,3.82870586 5.01282051,4.25 C5.01282051,4.67129414 4.67129414,5.01282051 4.25,5.01282051 C3.82870586,5.01282051 3.48717949,4.67129414 3.48717949,4.25 C3.48717949,3.82870586 3.82870586,3.48717949 4.25,3.48717949 Z M2.72435897,3.81410256 C2.96509848,3.81410256 3.16025641,4.00926049 3.16025641,4.25 C3.16025641,4.49073951 2.96509848,4.68589744 2.72435897,4.68589744 C2.48361947,4.68589744 2.28846154,4.49073951 2.28846154,4.25 C2.28846154,4.00926049 2.48361947,3.81410256 2.72435897,3.81410256 Z M5.77564103,3.81410256 C6.01638053,3.81410256 6.21153846,4.00926049 6.21153846,4.25 C6.21153846,4.49073951 6.01638053,4.68589744 5.77564103,4.68589744 C5.53490152,4.68589744 5.33974359,4.49073951 5.33974359,4.25 C5.33974359,4.00926049 5.53490152,3.81410256 5.77564103,3.81410256 Z" id="Shape" fill="#F6F9FC" fill-rule="evenodd"></path>
                                            </g>
                                        </g>
                                        <g id="Text" mask="url(#mask-2)" fill="#5BA0FF">
                                            <g transform="translate(2.151211, 16.946605)" id="Rectangle">
                                                <rect x="0" y="0" width="3.62780358" height="3" rx="0.5"></rect>
                                                <rect x="4.96540803" y="0" width="6.50359905" height="3" rx="0.5"></rect>
                                                <rect x="12.8066115" y="0" width="6.50359905" height="3" rx="0.5"></rect>
                                                <rect x="8.5617837" y="4" width="12.9038238" height="3" rx="0.5"></rect>
                                                <rect x="-1.8189894e-12" y="4" width="7.21720756" height="3" rx="0.5"></rect>
                                                <rect x="0" y="8" width="11.5586196" height="3" rx="0.5"></rect>
                                            </g>
                                        </g>
                                    </g>
                                </g>
                            </g>
                        </g>
                    </g>
                </g>
            </g>
        </g>
    </g>
</svg>