<?xml version="1.0" encoding="UTF-8"?>
<svg width="61px" height="60px" viewBox="0 0 61 60" version="1.1" xmlns="http://www.w3.org/2000/svg" xmlns:xlink="http://www.w3.org/1999/xlink">
    <title>blog</title>
    <defs>
        <path d="M2.82697585,0.300309439 L48.42023,0.300309439 C49.5247995,0.300309439 50.42023,1.19573994 50.42023,2.30030944 L50.42023,33.7639072 C50.42023,34.8684767 49.5247995,35.7639072 48.42023,35.7639072 L2.82697585,35.7639072 C1.72240635,35.7639072 0.826975852,34.8684767 0.826975852,33.7639072 L0.826975852,2.30030944 C0.826975852,1.19573994 1.72240635,0.300309439 2.82697585,0.300309439 Z" id="path-1"></path>
        <path d="M1.8579324,0.204155824 L46.8261941,0.204155824 C47.3784789,0.204155824 47.8261941,0.651871074 47.8261941,1.20415582 L47.8261941,31.8982863 C47.8261941,32.450571 47.3784789,32.8982863 46.8261941,32.8982863 L1.8579324,32.8982863 C1.30564765,32.8982863 0.857932403,32.450571 0.857932403,31.8982863 L0.857932403,1.20415582 C0.857932403,0.651871074 1.30564765,0.204155824 1.8579324,0.204155824 Z" id="path-3"></path>
    </defs>
    <g id="blog" stroke="none" stroke-width="1" fill="none" fill-rule="evenodd">
        <g id="Image" transform="translate(0.000000, 6.000000)" fill="#CCE4FF">
            <g id="Shapes/Shape/1" transform="translate(0.500000, 0.407186)">
                <path d="M41.2340215,44.6320232 C56.8364508,35.6239564 64.1593288,19.0976295 57.5901272,7.71943862 C55.0635785,3.34332784 50.3831355,4.06538668 45.2663824,2.57078278 C37.0792235,0.179313039 27.0464929,-2.11556843 17.4448384,3.42794941 C8.26478905,8.72805336 5.28957466,17.7637568 2.98518916,25.6892957 C1.37303666,31.2340178 -1.61532761,35.6569643 1.0887326,40.340534 C4.45172593,46.1654093 13.2830539,45.0709112 20.7754913,45.7414044 C27.9186255,46.3806384 33.6189962,49.0285601 41.2340215,44.6320232 Z" id="Shape"></path>
            </g>
        </g>
        <g id="1" transform="translate(4.876397, 11.967892)">
            <mask id="mask-2" fill="white">
                <use xlink:href="#path-1"></use>
            </mask>
            <path stroke="#3364ED" stroke-width="0.5" d="M48.42023,0.550309439 L2.82697585,0.550309439 C2.3437267,0.550309439 1.9062267,0.746184861 1.58953899,1.06287257 C1.27285127,1.37956028 1.07697585,1.81706028 1.07697585,2.30030944 L1.07697585,33.7639072 C1.07697585,34.2471564 1.27285127,34.6846564 1.58953899,35.0013441 C1.9062267,35.3180318 2.3437267,35.5139072 2.82697585,35.5139072 L48.42023,35.5139072 C48.9034791,35.5139072 49.3409791,35.3180318 49.6576669,35.0013441 C49.9743546,34.6846564 50.17023,34.2471564 50.17023,33.7639072 L50.17023,2.30030944 C50.17023,1.81706028 49.9743546,1.37956028 49.6576669,1.06287257 C49.3409791,0.746184861 48.9034791,0.550309439 48.42023,0.550309439 Z"></path>
            <g id="Group-2" mask="url(#mask-2)">
                <g transform="translate(1.281540, 1.480887)">
                    <mask id="mask-4" fill="white">
                        <use xlink:href="#path-3"></use>
                    </mask>
                    <use id="Rectangle-2-Copy" stroke="none" fill="#F6F9FC" fill-rule="evenodd" xlink:href="#path-3"></use>
                    <rect id="Rectangle-6" stroke="none" fill="#5BA0FF" fill-rule="evenodd" mask="url(#mask-4)" x="-0.259499238" y="-1.33745082" width="49.203125" height="12.9932573"></rect>
                    <rect id="Rectangle-4" stroke="none" fill="#FFFFFF" fill-rule="evenodd" mask="url(#mask-4)" x="13.8173561" y="3.73021414" width="21.0494143" height="25.6420138" rx="1"></rect>
                    <rect id="Rectangle" stroke="none" fill="#CCE4FF" fill-rule="evenodd" mask="url(#mask-4)" x="21.6630469" y="7.17466375" width="5.35803274" height="5.35803274" rx="2.67901637"></rect>
                    <rect id="Rectangle-5" stroke="none" fill="#CCE4FF" fill-rule="evenodd" mask="url(#mask-4)" x="17.0704474" y="14.4462796" width="14.5432317" height="3.06173299" rx="1"></rect>
                    <rect id="Rectangle-5" stroke="none" fill="#99CAFF" fill-rule="evenodd" mask="url(#mask-4)" x="17.0704474" y="18.6561625" width="14.5432317" height="3.06173299" rx="1"></rect>
                    <rect id="Rectangle-5" stroke="none" fill="#CCE4FF" fill-rule="evenodd" mask="url(#mask-4)" x="17.0704474" y="22.8660454" width="14.5432317" height="3.06173299" rx="1"></rect>
                </g>
            </g>
        </g>
    </g>
</svg>