<?xml version="1.0" encoding="UTF-8"?>
<svg width="65px" height="48px" viewBox="0 0 65 48" version="1.1" xmlns="http://www.w3.org/2000/svg" xmlns:xlink="http://www.w3.org/1999/xlink">
    <title>Illustration</title>
    <defs>
        <path d="M2.82697585,0.300309439 L48.42023,0.300309439 C49.5247995,0.300309439 50.42023,1.19573994 50.42023,2.30030944 L50.42023,33.7639072 C50.42023,34.8684767 49.5247995,35.7639072 48.42023,35.7639072 L2.82697585,35.7639072 C1.72240635,35.7639072 0.826975852,34.8684767 0.826975852,33.7639072 L0.826975852,2.30030944 C0.826975852,1.19573994 1.72240635,0.300309439 2.82697585,0.300309439 Z" id="path-1"></path>
        <path d="M1.8579324,0.204155824 L46.8261941,0.204155824 C47.3784789,0.204155824 47.8261941,0.651871074 47.8261941,1.20415582 L47.8261941,31.8982863 C47.8261941,32.450571 47.3784789,32.8982863 46.8261941,32.8982863 L1.8579324,32.8982863 C1.30564765,32.8982863 0.857932403,32.450571 0.857932403,31.8982863 L0.857932403,1.20415582 C0.857932403,0.651871074 1.30564765,0.204155824 1.8579324,0.204155824 Z" id="path-3"></path>
    </defs>
    <g id="Symbols" stroke="none" stroke-width="1" fill="none" fill-rule="evenodd">
        <g id="Dropdown/Resources" transform="translate(-50.000000, -240.000000)">
            <g id="Dropdown">
                <g id="Features" transform="translate(49.500000, 28.000000)">
                    <g id="1" transform="translate(0.000000, 2.000000)">
                        <g id="3" transform="translate(0.500000, 204.000000)">
                            <g id="Illustration/Dropdown/Resources/Blog">
                                <g id="Image" transform="translate(0.000000, 6.000000)" fill="#CCE4FF">
                                    <g id="Shapes/Shape/1" transform="translate(0.500000, 0.407186)">
                                        <path d="M41.2340215,44.6320232 C56.8364508,35.6239564 64.1593288,19.0976295 57.5901272,7.71943862 C55.0635785,3.34332784 50.3831355,4.06538668 45.2663824,2.57078278 C37.0792235,0.179313039 27.0464929,-2.11556843 17.4448384,3.42794941 C8.26478905,8.72805336 5.28957466,17.7637568 2.98518916,25.6892957 C1.37303666,31.2340178 -1.61532761,35.6569643 1.0887326,40.340534 C4.45172593,46.1654093 13.2830539,45.0709112 20.7754913,45.7414044 C27.9186255,46.3806384 33.6189962,49.0285601 41.2340215,44.6320232 Z" id="Shape"></path>
                                    </g>
                                </g>
                                <g id="1" transform="translate(4.876397, 11.967892)">
                                    <g id="noun_1687806_cc" transform="translate(50.285794, 21.371510)" fill="#FFFFFF">
                                        <g id="Group">
                                            <ellipse id="Oval" cx="4.86111596" cy="5.88003385" rx="4.86111596" ry="4.84058246"></ellipse>
                                            <path d="M5.97661388,3.39430134 L4.5781566,2.4997617 C4.41151183,2.38691669 4.33375685,2.25669653 4.33375685,2.09172608 C4.32262203,1.9265688 4.40056574,1.78775449 4.56664433,1.67490947 C4.73328911,1.56206445 4.92201479,1.52731416 5.13282137,1.55328347 C5.34362795,1.57962642 5.51027273,1.66612848 5.61010861,1.81409744 C5.77675338,2.01363135 6.08739585,2.08313192 6.34255297,1.97028691 C6.59808754,1.84025357 6.69792342,1.59681474 6.5316561,1.39728083 C6.32047206,1.09330924 5.96510161,0.876400192 5.55481199,0.78055666 L5.55481199,0.433427452 C5.55481199,0.198769602 5.32154705,0.0166108409 5.02185067,0.0166108409 C4.72215429,0.0166108409 4.48926681,0.198956431 4.48926681,0.433427452 L4.48926681,0.772149332 C4.26694796,0.832868919 4.05614137,0.91096365 3.87855051,1.04118381 C3.4793957,1.31040512 3.2574543,1.69247144 3.26858912,2.1006939 C3.26858912,2.50891635 3.5014766,2.89079584 3.91214368,3.14264201 L5.29965487,4.03718165 C5.47686828,4.14143251 5.56613553,4.30621612 5.57727034,4.4713734 C5.57727034,4.65371899 5.48838055,4.80131429 5.31078968,4.91415931 C5.14414491,5.02700433 4.94447314,5.07034877 4.71101948,5.04419264 C4.48945553,5.01822334 4.32281076,4.92275347 4.20089397,4.76656401 C4.0563301,4.56684327 3.73455282,4.49752953 3.47958443,4.61018772 C3.22404986,4.74040788 3.13534879,4.98365988 3.27972393,5.18338062 C3.51261142,5.50472736 3.85665833,5.71304225 4.31186467,5.82570043 L4.31186467,6.16442231 C4.31186467,6.39908016 4.54475215,6.58123893 4.84444853,6.58123893 C5.14414491,6.58123893 5.37740985,6.39889334 5.37740985,6.16442231 L5.37740985,5.82570043 C5.59935125,5.76498085 5.82129264,5.67810513 6.01001832,5.54788497 C6.40955058,5.27903732 6.6426268,4.88800318 6.6426268,4.46240558 C6.63130325,4.04540214 6.3869035,3.66333582 5.97661388,3.39430134 Z" id="Shape" fill-rule="nonzero"></path>
                                        </g>
                                    </g>
                                    <mask id="mask-2" fill="white">
                                        <use xlink:href="#path-1"></use>
                                    </mask>
                                    <path stroke="#3364ED" stroke-width="0.5" d="M48.42023,0.550309439 L2.82697585,0.550309439 C2.3437267,0.550309439 1.9062267,0.746184861 1.58953899,1.06287257 C1.27285127,1.37956028 1.07697585,1.81706028 1.07697585,2.30030944 L1.07697585,33.7639072 C1.07697585,34.2471564 1.27285127,34.6846564 1.58953899,35.0013441 C1.9062267,35.3180318 2.3437267,35.5139072 2.82697585,35.5139072 L48.42023,35.5139072 C48.9034791,35.5139072 49.3409791,35.3180318 49.6576669,35.0013441 C49.9743546,34.6846564 50.17023,34.2471564 50.17023,33.7639072 L50.17023,2.30030944 C50.17023,1.81706028 49.9743546,1.37956028 49.6576669,1.06287257 C49.3409791,0.746184861 48.9034791,0.550309439 48.42023,0.550309439 Z"></path>
                                    <g id="Group-2" mask="url(#mask-2)">
                                        <g transform="translate(1.281540, 1.480887)">
                                            <mask id="mask-4" fill="white">
                                                <use xlink:href="#path-3"></use>
                                            </mask>
                                            <use id="Rectangle-2-Copy" stroke="none" fill="#F6F9FC" fill-rule="evenodd" xlink:href="#path-3"></use>
                                            <rect id="Rectangle-6" stroke="none" fill="#5BA0FF" fill-rule="evenodd" mask="url(#mask-4)" x="-0.259499238" y="-1.33745082" width="49.203125" height="12.9932573"></rect>
                                            <rect id="Rectangle-4" stroke="none" fill="#FFFFFF" fill-rule="evenodd" mask="url(#mask-4)" x="13.8173561" y="3.73021414" width="21.0494143" height="25.6420138" rx="1"></rect>
                                            <rect id="Rectangle" stroke="none" fill="#CCE4FF" fill-rule="evenodd" mask="url(#mask-4)" x="21.6630469" y="7.17466375" width="5.35803274" height="5.35803274" rx="2.67901637"></rect>
                                            <rect id="Rectangle-5" stroke="none" fill="#CCE4FF" fill-rule="evenodd" mask="url(#mask-4)" x="17.0704474" y="14.4462796" width="14.5432317" height="3.06173299" rx="1"></rect>
                                            <rect id="Rectangle-5" stroke="none" fill="#99CAFF" fill-rule="evenodd" mask="url(#mask-4)" x="17.0704474" y="18.6561625" width="14.5432317" height="3.06173299" rx="1"></rect>
                                            <rect id="Rectangle-5" stroke="none" fill="#CCE4FF" fill-rule="evenodd" mask="url(#mask-4)" x="17.0704474" y="22.8660454" width="14.5432317" height="3.06173299" rx="1"></rect>
                                        </g>
                                    </g>
                                </g>
                            </g>
                        </g>
                    </g>
                </g>
            </g>
        </g>
    </g>
</svg>