<?xml version="1.0" encoding="UTF-8"?>
<svg width="61px" height="48px" viewBox="0 0 61 48" version="1.1" xmlns="http://www.w3.org/2000/svg" xmlns:xlink="http://www.w3.org/1999/xlink">
    <title>Illustration</title>
    <g id="Symbols" stroke="none" stroke-width="1" fill="none" fill-rule="evenodd">
        <g id="Dropdown/Resources" transform="translate(-50.000000, -36.000000)">
            <g id="Dropdown">
                <g id="Features" transform="translate(49.500000, 28.000000)">
                    <g id="1" transform="translate(0.000000, 2.000000)">
                        <g transform="translate(0.500000, 0.000000)" id="Illustration/Dropdown/Resources/Docs">
                            <g>
                                <g id="Shapes/Shape/4" transform="translate(0.500000, 6.407186)" fill="#CCE4FF">
                                    <path d="M30,47.1028706 C46.5685425,47.1028706 60,36.558534 60,23.5514353 C60,18.5488382 55.9402847,16.8510766 52.5523517,13.0368392 C47.1314245,6.93379542 40.1961956,0 30,0 C20.2515157,0 13.7270907,6.27420445 8.24742267,11.9286491 C4.41383644,15.8845093 0,18.1973633 0,23.5514353 C0,30.2102028 7.53690516,33.6433466 13.1958763,37.9269869 C18.5910219,42.0109203 21.9134471,47.1028706 30,47.1028706 Z" id="Shape"></path>
                                </g>
                                <g id="2" stroke-width="1" transform="translate(0.500000, 9.875776)">
                                    <g id="Group-61">
                                        <g id="Group-10" transform="translate(1.392553, 1.507878)">
                                            <path d="M2.48583346,0.354164496 L50.008374,0.354164496 C51.1129435,0.354164496 52.008374,1.249595 52.008374,2.3541645 L52.008374,31.9808668 C52.008374,33.0854363 51.1129435,33.9808668 50.008374,33.9808668 L2.48583346,33.9808668 C1.38126396,33.9808668 0.485833462,33.0854363 0.485833462,31.9808668 L0.485833462,2.3541645 C0.485833462,1.249595 1.38126396,0.354164496 2.48583346,0.354164496 Z" id="Rectangle-12-Copy-2" fill="#2C363F"></path>
                                            <g id="Group-49" transform="translate(4.879913, 5.690964)">
                                                <rect id="Rectangle-30" fill="#FACC5F" x="8.36150121" y="0" width="9.12163768" height="1.52479981"></rect>
                                                <rect id="Rectangle-30-Copy-2" fill="#FACC5F" x="25.8446401" y="0" width="9.12163768" height="1.52479981"></rect>
                                                <rect id="Rectangle-30-Copy" fill="#EDF3F9" x="0" y="0" width="6.08109179" height="1.52479981"></rect>
                                                <rect id="Rectangle-30-Copy-3" fill="#EDF3F9" x="19.7635483" y="0" width="3.80068237" height="1.52479981"></rect>
                                            </g>
                                            <g id="Group-49-Copy-2" transform="translate(22.346190, 24.988562) scale(-1, 1) translate(-22.346190, -24.988562) translate(4.846190, 23.988562)">
                                                <rect id="Rectangle-30" fill="#FACC5F" x="8.36150121" y="0" width="9.12163768" height="1.52479981"></rect>
                                                <rect id="Rectangle-30-Copy-2" fill="#61FAE9" x="25.8446401" y="0" width="9.12163768" height="1.52479981"></rect>
                                                <rect id="Rectangle-30-Copy" fill="#EDF3F9" x="0" y="0" width="6.08109179" height="1.52479981"></rect>
                                                <rect id="Rectangle-30-Copy-3" fill="#EDF3F9" x="19.7635483" y="0" width="3.80068237" height="1.52479981"></rect>
                                            </g>
                                            <g id="Group-49-Copy-4" transform="translate(4.879913, 17.889362)" fill="#EDF3F9">
                                                <rect id="Rectangle-30-Copy" x="0" y="0" width="6.08109179" height="1.52479981"></rect>
                                            </g>
                                            <g id="Group-49-Copy" transform="translate(4.879913, 8.740563)">
                                                <rect id="Rectangle-30" fill="#FACC5F" x="25.0845036" y="0" width="5.32095531" height="1.52479981"></rect>
                                                <rect id="Rectangle-30-Copy" fill="#61FAE9" x="0" y="0" width="13.6824565" height="1.52479981"></rect>
                                                <rect id="Rectangle-30-Copy-3" fill="#EDF3F9" x="15.9628659" y="0" width="6.84122826" height="1.52479981"></rect>
                                            </g>
                                            <g id="Group-49-Copy-3" transform="translate(24.146873, 28.038161) scale(-1, 1) translate(-24.146873, -28.038161) translate(4.646873, 27.038161)">
                                                <rect id="Rectangle-30" fill="#61FAE9" x="33.4460048" y="0" width="5.32095531" height="1.52479981"></rect>
                                                <rect id="Rectangle-30-Copy-4" fill="#FACC5F" x="0" y="0" width="6.08109179" height="1.52479981"></rect>
                                                <rect id="Rectangle-30-Copy" fill="#FACC5F" x="8.36150121" y="0" width="13.6824565" height="1.52479981"></rect>
                                                <rect id="Rectangle-30-Copy-3" fill="#EDF3F9" x="24.3243672" y="0" width="6.84122826" height="1.52479981"></rect>
                                            </g>
                                            <g id="Group-49-Copy-5" transform="translate(4.879913, 20.938962)">
                                                <rect id="Rectangle-30" fill="#FACC5F" x="25.0845036" y="0" width="5.32095531" height="1.52479981"></rect>
                                                <rect id="Rectangle-30-Copy" fill="#61FAE9" x="0" y="0" width="13.6824565" height="1.52479981"></rect>
                                                <rect id="Rectangle-30-Copy-3" fill="#EDF3F9" x="15.9628659" y="0" width="6.84122826" height="1.52479981"></rect>
                                            </g>
                                        </g>
                                    </g>
                                    <g id="Group-14" transform="translate(38.000000, 19.500000)">
                                        <path d="M10.9087739,0.872797612 C10.7059963,0.755598026 10.4796441,0.696998233 10.2532919,0.696998233 C10.0269398,0.696998233 9.80058758,0.755598026 9.59780999,0.872797612 L0.899953901,5.89990701 C0.494964559,6.13397914 0.24552795,6.56624834 0.24552795,7.03401551 L0.24552795,17.0902081 C0.24552795,17.5579753 0.494964559,17.9902445 0.899953901,18.2243166 L9.59780999,23.251426 C9.80058758,23.3686256 10.0269398,23.4272254 10.2532919,23.4272254 C10.4796441,23.4272254 10.7059963,23.3686256 10.9087739,23.251426 L19.6066299,18.2243166 C20.0116193,17.9902445 20.2610559,17.5579753 20.2610559,17.0902081 L20.2610559,7.03401551 C20.2610559,6.56624834 20.0116193,6.13397914 19.6066299,5.89990701 L10.9087739,0.872797612 Z" id="Polygon-Copy" stroke="#2F5BEA" stroke-width="0.5" fill="#F6F9FC"></path>
                                        <path d="M10.7836731,2.24518794 L18.4815292,6.69432624 C18.809225,6.88372498 19.0110559,7.23349425 19.0110559,7.61198661 L19.0110559,16.512237 C19.0110559,16.8907293 18.809225,17.2404986 18.4815292,17.4298974 L10.7836731,21.8790357 C10.4555194,22.068699 10.0510645,22.068699 9.72291076,21.8790357 L2.02505467,17.4298974 C1.69735881,17.2404986 1.49552795,16.8907293 1.49552795,16.512237 L1.49552795,7.61198661 C1.49552795,7.23349425 1.69735881,6.88372498 2.02505467,6.69432624 L9.72291076,2.24518794 C10.0510645,2.05552458 10.4555194,2.05552458 10.7836731,2.24518794 Z" id="Polygon-Copy" fill="#CCE4FF"></path>
                                        <path d="M13.2715211,16.8121118 C13.4199586,16.8121118 13.5477798,16.7543861 13.6549846,16.6389347 C13.7621895,16.5234833 13.8157919,16.3832924 13.8157919,16.2183618 L13.8157919,16.2183618 L13.8157919,10.1571639 C13.8157919,10.0911917 13.7992989,10.0087264 13.7663128,9.90976805 L13.7663128,9.90976805 L13.692094,9.76133055 L11.613969,7.48528888 C11.5644898,7.43580972 11.5067641,7.39457708 11.4407919,7.36159097 C11.3913128,7.32860486 11.317094,7.3121118 11.2181357,7.3121118 L11.2181357,7.3121118 L7.25980234,7.3121118 C7.11136484,7.3121118 6.9794204,7.3698375 6.86396901,7.48528888 C6.74851762,7.60074027 6.69079193,7.74093125 6.69079193,7.9058618 L6.69079193,7.9058618 L6.69079193,16.2183618 C6.69079193,16.3832924 6.74851762,16.5234833 6.86396901,16.6389347 C6.9794204,16.7543861 7.11136484,16.8121118 7.25980234,16.8121118 L7.25980234,16.8121118 L13.2715211,16.8121118 Z M12.9499065,10.1324243 L11.4655315,10.1324243 C11.2841079,10.1324243 11.1933961,10.033466 11.1933961,9.8355493 L11.1933961,9.8355493 L11.1933961,8.2027368 L12.9499065,10.1324243 Z M9.70902109,10.4787785 L7.95251068,10.4787785 C7.90303151,10.4787785 7.87829193,10.4540389 7.87829193,10.4045597 L7.87829193,10.4045597 L7.87829193,10.1571639 C7.87829193,10.1076847 7.90303151,10.0829451 7.95251068,10.0829451 L7.95251068,10.0829451 L9.70902109,10.0829451 C9.75850026,10.0829451 9.78323984,10.1076847 9.78323984,10.1571639 L9.78323984,10.1571639 L9.78323984,10.4045597 C9.78323984,10.4540389 9.75850026,10.4787785 9.70902109,10.4787785 L9.70902109,10.4787785 Z M12.5788128,12.0621118 L7.95251068,12.0621118 C7.90303151,12.0621118 7.87829193,12.0373722 7.87829193,11.9878931 L7.87829193,11.9878931 L7.87829193,11.7404972 C7.87829193,11.6910181 7.90303151,11.6662785 7.95251068,11.6662785 L7.95251068,11.6662785 L12.5788128,11.6662785 C12.6117989,11.6662785 12.6282919,11.6910181 12.6282919,11.7404972 L12.6282919,11.7404972 L12.6282919,11.9878931 C12.6282919,12.0373722 12.6117989,12.0621118 12.5788128,12.0621118 L12.5788128,12.0621118 Z M10.9954794,13.6454451 L7.95251068,13.6454451 C7.90303151,13.6454451 7.87829193,13.6207056 7.87829193,13.5712264 L7.87829193,13.5712264 L7.87829193,13.3238306 C7.87829193,13.2743514 7.90303151,13.2496118 7.95251068,13.2496118 L7.95251068,13.2496118 L10.9954794,13.2496118 C11.0284655,13.2496118 11.0449586,13.2743514 11.0449586,13.3238306 L11.0449586,13.3238306 L11.0449586,13.5712264 C11.0449586,13.6207056 11.0284655,13.6454451 10.9954794,13.6454451 L10.9954794,13.6454451 Z M11.7871461,15.2287785 L7.95251068,15.2287785 C7.90303151,15.2287785 7.87829193,15.2040389 7.87829193,15.1545597 L7.87829193,15.1545597 L7.87829193,14.9071639 C7.87829193,14.8576847 7.90303151,14.8329451 7.95251068,14.8329451 L7.95251068,14.8329451 L11.7871461,14.8329451 C11.8201322,14.8329451 11.8366253,14.8576847 11.8366253,14.9071639 L11.8366253,14.9071639 L11.8366253,15.1545597 C11.8366253,15.2040389 11.8201322,15.2287785 11.7871461,15.2287785 L11.7871461,15.2287785 Z" id="" fill="#2F5BEA" fill-rule="nonzero"></path>
                                    </g>
                                </g>
                            </g>
                        </g>
                    </g>
                </g>
            </g>
        </g>
    </g>
</svg>