<?xml version="1.0" encoding="UTF-8"?>
<svg width="58px" height="48px" viewBox="0 0 58 48" version="1.1" xmlns="http://www.w3.org/2000/svg" xmlns:xlink="http://www.w3.org/1999/xlink">
    <title>Illustration</title>
    <g id="Symbols" stroke="none" stroke-width="1" fill="none" fill-rule="evenodd">
        <g id="Dropdown/Resources" transform="translate(-459.000000, -36.000000)">
            <g id="Dropdown">
                <g id="Features" transform="translate(49.500000, 28.000000)">
                    <g id="3" transform="translate(407.000000, 0.000000)">
                        <g id="Illustration/Dropdown/Resources/Libraries" transform="translate(0.500000, 2.000000)">
                            <g id="Shapes/Shape/3" transform="translate(0.500000, 6.407186)" fill="#CCE4FF">
                                <path d="M44.5094167,46.4990839 C37.6331765,43.7318115 28.3385927,45.1555801 24.8644817,46.4990839 C19.6533152,48.5143395 15.4605888,46.1938448 11.2774798,38.1976581 C7.09437076,30.2014714 1.47029748,24.9560748 6.59638388,10.3775726 C11.7224703,-4.20092959 27.3141845,1.81045354 36.8050155,0.405682728 C46.2958463,-0.999088082 57.7239233,0.751601298 55.0107746,13.5807159 C52.2976256,26.4098305 56.9886689,29.7273053 54.8912474,39.0038232 C53.4929668,45.1881684 50.0323567,47.6865887 44.5094167,46.4990839 Z" id="Background" transform="translate(30.000000, 23.592814) scale(-1, 1) translate(-30.000000, -23.592814) "></path>
                            </g>
                            <g id="2" stroke-width="1" transform="translate(0.500000, 9.875776)">
                                <g id="Group-61">
                                    <g id="Group-10" transform="translate(1.392553, 1.507878)">
                                        <path d="M2.48583346,0.354164496 L50.008374,0.354164496 C51.1129435,0.354164496 52.008374,1.249595 52.008374,2.3541645 L52.008374,31.9808668 C52.008374,33.0854363 51.1129435,33.9808668 50.008374,33.9808668 L2.48583346,33.9808668 C1.38126396,33.9808668 0.485833462,33.0854363 0.485833462,31.9808668 L0.485833462,2.3541645 C0.485833462,1.249595 1.38126396,0.354164496 2.48583346,0.354164496 Z" id="Rectangle-12-Copy-2" fill="#2C363F"></path>
                                        <g id="Group-49" transform="translate(4.879913, 5.690964)">
                                            <rect id="Rectangle-30" fill="#FACC5F" x="8.36150121" y="0" width="9.12163768" height="1.52479981"></rect>
                                            <rect id="Rectangle-30-Copy-2" fill="#FACC5F" x="25.8446401" y="0" width="9.12163768" height="1.52479981"></rect>
                                            <rect id="Rectangle-30-Copy" fill="#EDF3F9" x="0" y="0" width="6.08109179" height="1.52479981"></rect>
                                            <rect id="Rectangle-30-Copy-3" fill="#EDF3F9" x="19.7635483" y="0" width="3.80068237" height="1.52479981"></rect>
                                        </g>
                                        <g id="Group-49-Copy-2" transform="translate(22.346190, 24.988562) scale(-1, 1) translate(-22.346190, -24.988562) translate(4.846190, 23.988562)">
                                            <rect id="Rectangle-30" fill="#FACC5F" x="8.36150121" y="0" width="9.12163768" height="1.52479981"></rect>
                                            <rect id="Rectangle-30-Copy-2" fill="#61FAE9" x="25.8446401" y="0" width="9.12163768" height="1.52479981"></rect>
                                            <rect id="Rectangle-30-Copy" fill="#EDF3F9" x="0" y="0" width="6.08109179" height="1.52479981"></rect>
                                            <rect id="Rectangle-30-Copy-3" fill="#EDF3F9" x="19.7635483" y="0" width="3.80068237" height="1.52479981"></rect>
                                        </g>
                                        <g id="Group-49-Copy-4" transform="translate(4.879913, 17.889362)" fill="#EDF3F9">
                                            <rect id="Rectangle-30-Copy" x="0" y="0" width="6.08109179" height="1.52479981"></rect>
                                        </g>
                                        <g id="Group-49-Copy" transform="translate(4.879913, 8.740563)">
                                            <rect id="Rectangle-30" fill="#FACC5F" x="25.0845036" y="0" width="5.32095531" height="1.52479981"></rect>
                                            <rect id="Rectangle-30-Copy" fill="#61FAE9" x="0" y="0" width="13.6824565" height="1.52479981"></rect>
                                            <rect id="Rectangle-30-Copy-3" fill="#EDF3F9" x="15.9628659" y="0" width="6.84122826" height="1.52479981"></rect>
                                        </g>
                                        <g id="Group-49-Copy-3" transform="translate(24.146873, 28.038161) scale(-1, 1) translate(-24.146873, -28.038161) translate(4.646873, 27.038161)">
                                            <rect id="Rectangle-30" fill="#61FAE9" x="33.4460048" y="0" width="5.32095531" height="1.52479981"></rect>
                                            <rect id="Rectangle-30-Copy-4" fill="#FACC5F" x="0" y="0" width="6.08109179" height="1.52479981"></rect>
                                            <rect id="Rectangle-30-Copy" fill="#FACC5F" x="8.36150121" y="0" width="13.6824565" height="1.52479981"></rect>
                                            <rect id="Rectangle-30-Copy-3" fill="#EDF3F9" x="24.3243672" y="0" width="6.84122826" height="1.52479981"></rect>
                                        </g>
                                        <g id="Group-49-Copy-5" transform="translate(4.879913, 20.938962)">
                                            <rect id="Rectangle-30" fill="#FACC5F" x="25.0845036" y="0" width="5.32095531" height="1.52479981"></rect>
                                            <rect id="Rectangle-30-Copy" fill="#61FAE9" x="0" y="0" width="13.6824565" height="1.52479981"></rect>
                                            <rect id="Rectangle-30-Copy-3" fill="#EDF3F9" x="15.9628659" y="0" width="6.84122826" height="1.52479981"></rect>
                                        </g>
                                    </g>
                                </g>
                                <g id="Group-14" transform="translate(38.000000, 19.500000)">
                                    <path d="M10.9087739,0.872797612 C10.7059963,0.755598026 10.4796441,0.696998233 10.2532919,0.696998233 C10.0269398,0.696998233 9.80058758,0.755598026 9.59780999,0.872797612 L0.899953901,5.89990701 C0.494964559,6.13397914 0.24552795,6.56624834 0.24552795,7.03401551 L0.24552795,17.0902081 C0.24552795,17.5579753 0.494964559,17.9902445 0.899953901,18.2243166 L9.59780999,23.251426 C9.80058758,23.3686256 10.0269398,23.4272254 10.2532919,23.4272254 C10.4796441,23.4272254 10.7059963,23.3686256 10.9087739,23.251426 L19.6066299,18.2243166 C20.0116193,17.9902445 20.2610559,17.5579753 20.2610559,17.0902081 L20.2610559,7.03401551 C20.2610559,6.56624834 20.0116193,6.13397914 19.6066299,5.89990701 L10.9087739,0.872797612 Z" id="Polygon-Copy" stroke="#2F5BEA" stroke-width="0.5" fill="#F6F9FC"></path>
                                    <path d="M10.7836731,2.24518794 L18.4815292,6.69432624 C18.809225,6.88372498 19.0110559,7.23349425 19.0110559,7.61198661 L19.0110559,16.512237 C19.0110559,16.8907293 18.809225,17.2404986 18.4815292,17.4298974 L10.7836731,21.8790357 C10.4555194,22.068699 10.0510645,22.068699 9.72291076,21.8790357 L2.02505467,17.4298974 C1.69735881,17.2404986 1.49552795,16.8907293 1.49552795,16.512237 L1.49552795,7.61198661 C1.49552795,7.23349425 1.69735881,6.88372498 2.02505467,6.69432624 L9.72291076,2.24518794 C10.0510645,2.05552458 10.4555194,2.05552458 10.7836731,2.24518794 Z" id="Polygon-Copy" fill="#5BA0FF"></path>
                                    <path d="M7.59049505,9.26708075 C7.73553755,9.26708075 7.86693916,9.32097176 7.97155132,9.40731498 L7.97155132,9.40731498 L8.06218637,9.49978357 C8.14680551,9.60651203 8.1995919,9.74057188 8.1995919,9.88851183 C8.1995919,10.0480655 8.1389644,10.1920362 8.04208528,10.3020846 L8.04208528,10.3020846 L7.99586716,10.3492377 L6.31829016,12.0607642 L7.99225281,13.7685788 L8.05238796,13.8299305 C8.14537655,13.9390356 8.20360248,14.0797966 8.20360248,14.235724 C8.20360248,14.3763993 8.15606351,14.5047013 8.07880518,14.6088571 L8.07880518,14.6088571 L7.96032399,14.7297352 C7.85822147,14.8085932 7.73243951,14.8571429 7.59450564,14.8571429 C7.42742879,14.8571429 7.2762623,14.7883059 7.1662226,14.6771672 L7.1662226,14.6771672 L7.16182774,14.6726835 L5.04560494,12.5136496 L5.01341197,12.4808054 C5.00625531,12.4729526 5.0001073,12.4642546 4.99335891,12.4560099 C4.90490927,12.3481421 4.84956522,12.2110441 4.84956522,12.0593921 C4.84956522,11.9259448 4.89165265,11.8030209 4.96182636,11.7017563 C4.9678783,11.6930215 4.97529914,11.6854505 4.98179537,11.6770465 L4.98179537,11.6770465 L5.08384986,11.5729275 L7.13255269,9.4827918 L7.19279593,9.42131757 C7.29972559,9.32648459 7.43768348,9.26708075 7.59049505,9.26708075 Z M12.9120826,9.26708075 C13.0791606,9.26708075 13.2303282,9.33591765 13.3403687,9.44705638 L13.3403687,9.44705638 L13.3447636,9.45154015 L15.4610015,11.6105862 L15.4931947,11.6434305 C15.5003514,11.6512832 15.5064995,11.6599812 15.5132479,11.668226 C15.6016982,11.7760815 15.6570186,11.9131918 15.6570186,12.0648315 C15.6570186,12.1982788 15.6149309,12.3212027 15.5447567,12.4224673 C15.5387047,12.4312021 15.5312838,12.4387731 15.5247875,12.4471771 L15.5247875,12.4471771 L15.4227323,12.5512961 L13.3740268,14.6414318 L13.3137832,14.702906 C13.2068527,14.797739 13.0688939,14.8571429 12.9160812,14.8571429 C12.7710377,14.8571429 12.6396351,14.8032518 12.5350222,14.7169086 L12.5350222,14.7169086 L12.4443865,14.62444 C12.3597668,14.5177116 12.30698,14.3836517 12.30698,14.2357118 C12.30698,14.0761581 12.3676079,13.9321874 12.4644877,13.822139 L12.4644877,13.822139 L12.5107062,13.7749859 L14.1883072,12.0634716 L12.5143326,10.3556448 L12.454197,10.2942931 C12.3612077,10.185188 12.3029814,10.044427 12.3029814,9.88849957 C12.3029814,9.74782431 12.3505087,9.6195223 12.4277796,9.5153665 L12.4277796,9.5153665 L12.5462616,9.39448845 C12.6483769,9.31563043 12.7741477,9.26708075 12.9120826,9.26708075 Z M10.934642,9.63975155 C10.9986195,9.63975155 11.0590843,9.65242846 11.117191,9.67068672 L11.117191,9.67068672 L11.2056959,9.70543873 C11.4133495,9.80839328 11.5576398,10.0234253 11.5576398,10.2745358 C11.5576398,10.3385335 11.5455542,10.3990899 11.5282609,10.4573436 L11.5282609,10.4573436 L11.4923603,10.5522765 L10.1539419,14.0706766 L10.1393876,14.1091954 C10.0418923,14.3300715 9.82506387,14.484472 9.57195415,14.484472 C9.51497743,14.484472 9.46085017,14.4741478 9.40839328,14.4595437 C9.36762896,14.4481933 9.32884205,14.4329259 9.29186062,14.4138042 C9.08921808,14.3090601 8.9489441,14.0970691 8.9489441,13.8496879 C8.9489441,13.7902077 8.95955585,13.7337811 8.97457686,13.679194 L8.97457686,13.679194 L9.01735545,13.5660779 L10.3489204,10.0657859 L10.3703282,10.0091841 C10.4691132,9.79157416 10.6838659,9.63975155 10.934642,9.63975155 Z" id="Combined-Shape" fill="#EDF3F9" fill-rule="nonzero"></path>
                                </g>
                            </g>
                        </g>
                    </g>
                </g>
            </g>
        </g>
    </g>
</svg>