<?xml version="1.0" encoding="UTF-8"?>
<svg width="61px" height="62px" viewBox="0 0 61 62" version="1.1" xmlns="http://www.w3.org/2000/svg" xmlns:xlink="http://www.w3.org/1999/xlink">
    <title>Illustration</title>
    <defs>
        <path d="M5.13741688,0 C4.57291983,0.00261346023 3.54899189,0.0204052861 2.06645678,0.0536428224 C0.952113125,0.0786257299 0.0595461818,0.980281503 0.0418061866,2.0907548 L0.0415370609,2.12446873 L0.0415370609,53.8218641 C0.0415370609,54.9543974 0.950455692,55.8746413 2.07862994,55.8932105 L2.11288344,55.8932105 L23.5858409,55.8932105 C24.7183741,55.8932105 25.6386181,54.9842918 25.6569097,53.8561176 L25.6571872,53.8218641 L25.6571872,2.12500964 C25.6571872,0.998987929 24.7576528,0.0792194729 23.6319097,0.0541756397 L22.5880201,0.0318986018 C21.6652725,0.013199068 20.9929664,0.00272090436 20.5714442,0 L20.4680212,0 L20.4119958,0 C20.1396929,0 20.0684074,0.106516394 20.0049475,0.544907044 L19.9750797,0.758029826 C19.9687314,0.800635463 19.9635733,0.831059691 19.9561886,0.871372302 C19.824244,1.59164643 19.4233147,1.96108273 18.4470083,1.96902885 L7.37703809,1.96911095 C6.33039999,1.96377369 5.88517941,1.60212939 5.73287994,0.897323009 L5.72011345,0.834689505 C5.71340825,0.800082007 5.70785023,0.767962872 5.70065694,0.721937519 L5.67114443,0.525419751 C5.60641994,0.109276407 5.53624362,0.00373518426 5.27265612,0 L5.13741688,0 Z" id="path-1"></path>
    </defs>
    <g id="Symbols" stroke="none" stroke-width="1" fill="none" fill-rule="evenodd">
        <g id="Dropdown/Features" transform="translate(-50.000000, -77.000000)">
            <g id="Dropdown">
                <g id="Features" transform="translate(49.500000, 76.500000)">
                    <g id="1" transform="translate(0.500000, 0.501250)">
                        <g id="Illustration/Dropdown/Features/NLU" transform="translate(0.500000, 0.932500)">
                            <g id="Image">
                                <g id="Shapes/Shape/1" transform="translate(0.000000, 6.407186)" fill="#CCE4FF">
                                    <path d="M41.2340215,44.6320232 C56.8364508,35.6239564 64.1593288,19.0976295 57.5901272,7.71943862 C55.0635785,3.34332784 50.3831355,4.06538668 45.2663824,2.57078278 C37.0792235,0.179313039 27.0464929,-2.11556843 17.4448384,3.42794941 C8.26478905,8.72805336 5.28957466,17.7637568 2.98518916,25.6892957 C1.37303666,31.2340178 -1.61532761,35.6569643 1.0887326,40.340534 C4.45172593,46.1654093 13.2830539,45.0709112 20.7754913,45.7414044 C27.9186255,46.3806384 33.6189962,49.0285601 41.2340215,44.6320232 Z" id="Shape"></path>
                                </g>
                                <g id="Device" transform="translate(15.000000, 0.000000)">
                                    <path d="M25.5466053,0 C27.7582865,0 29.5512083,1.79292183 29.5512083,4.00460299 L29.5512083,55.995397 C29.5512083,58.2070782 27.7582865,60 25.5466053,60 L4.21173763,60 C2.00005647,60 0.207134638,58.2070782 0.207134638,55.995397 L0.207134638,4.00460299 C0.207134638,1.79292183 2.00005647,0 4.21173763,0 L25.5466053,0 Z" id="Shape" stroke="#2F5BEA" stroke-width="0.5" fill="#FFFFFF" fill-rule="nonzero"></path>
                                    <g id="Screen" transform="translate(2.098854, 1.966398)">
                                        <mask id="mask-2" fill="white">
                                            <use xlink:href="#path-1"></use>
                                        </mask>
                                        <use id="Shape" fill-opacity="0.25" fill="#CCE4FF" xlink:href="#path-1"></use>
                                        <g id="Text" mask="url(#mask-2)" fill="#5BA0FF">
                                            <g transform="translate(2.401146, 4.498602)" id="Rectangle">
                                                <rect x="0" y="0" width="3.62780358" height="3" rx="0.5"></rect>
                                                <rect x="4.96540803" y="0" width="6.50359905" height="3" rx="0.5"></rect>
                                                <rect x="12.8066115" y="0" width="6.50359905" height="3" rx="0.5"></rect>
                                                <rect x="8.5617837" y="4" width="12.9038238" height="3" rx="0.5"></rect>
                                                <rect x="-1.8189894e-12" y="4" width="7.21720756" height="3" rx="0.5"></rect>
                                                <rect x="0" y="8" width="11.5586196" height="3" rx="0.5"></rect>
                                            </g>
                                        </g>
                                        <rect id="Rectangle" fill="#FFFFFF" mask="url(#mask-2)" x="2.04114584" y="18.1366052" width="9.81" height="9.81" rx="1"></rect>
                                        <rect id="Rectangle" fill="#FACC5F" mask="url(#mask-2)" x="2.04114584" y="28.9466052" width="9.81" height="9.81" rx="1"></rect>
                                        <rect id="Rectangle" fill="#FACC5F" mask="url(#mask-2)" x="2.04114584" y="39.5423941" width="9.81" height="9.81" rx="1"></rect>
                                        <rect id="Rectangle" fill="#FFFFFF" mask="url(#mask-2)" x="2.04114584" y="50.3523941" width="9.81" height="9.81" rx="1"></rect>
                                        <rect id="Rectangle" fill="#99CAFF" mask="url(#mask-2)" x="13.8471872" y="18.1366052" width="9.81" height="9.81" rx="1"></rect>
                                        <rect id="Rectangle" fill="#8B9DFF" mask="url(#mask-2)" x="13.8471872" y="28.9466052" width="9.81" height="9.81" rx="1"></rect>
                                        <rect id="Rectangle" fill="#FFFFFF" mask="url(#mask-2)" x="13.8471872" y="39.5423941" width="9.81" height="9.81" rx="1"></rect>
                                        <rect id="Rectangle" fill="#5BA0FF" mask="url(#mask-2)" x="13.8471872" y="50.3523941" width="9.81" height="9.81" rx="1"></rect>
                                        <g id="Button" mask="url(#mask-2)">
                                            <g transform="translate(8.349362, 42.848602)">
                                                <circle id="Background" fill="#2F5BEA" fill-rule="evenodd" cx="4.27465889" cy="4.25" r="4.25"></circle>
                                                <path d="M4.27465889,4.77844501 C4.38591047,4.77844501 4.49041953,4.7497893 4.58818607,4.69247788 C4.68595261,4.63516646 4.76349159,4.55762748 4.82080301,4.45986094 C4.87811443,4.3620944 4.90677014,4.25758534 4.90677014,4.14633375 L4.90677014,4.14633375 L4.90677014,2.88211125 C4.90677014,2.77085967 4.87811443,2.66635061 4.82080301,2.56858407 C4.76349159,2.47081753 4.68595261,2.39327855 4.58818607,2.33596713 C4.49041953,2.27865571 4.38591047,2.25 4.27465889,2.25 C4.16340731,2.25 4.05889824,2.27865571 3.9611317,2.33596713 C3.86336516,2.39327855 3.78582618,2.47081753 3.72851476,2.56858407 C3.67120334,2.66635061 3.64254763,2.77085967 3.64254763,2.88211125 L3.64254763,2.88211125 L3.64254763,4.14633375 C3.64254763,4.25758534 3.67120334,4.3620944 3.72851476,4.45986094 C3.78582618,4.55762748 3.86336516,4.63516646 3.9611317,4.69247788 C4.05889824,4.7497893 4.16340731,4.77844501 4.27465889,4.77844501 Z M4.48199138,6.25 L4.48199138,5.55720607 C4.71123706,5.52686473 4.92278362,5.44511167 5.11663107,5.3119469 C5.31047852,5.17878213 5.46302804,5.01274758 5.57427962,4.81384324 C5.68890246,4.60482512 5.74621388,4.38232196 5.74621388,4.14633375 L5.74621388,4.14633375 L5.39223158,4.14633375 C5.39223158,4.35198062 5.33829142,4.53739992 5.2304111,4.70259166 C5.1292733,4.86104088 4.99358008,4.9857775 4.82333145,5.07680152 C4.65308282,5.16782554 4.47019197,5.21333755 4.27465889,5.21333755 C4.0791258,5.21333755 3.89623495,5.16782554 3.72598632,5.07680152 C3.55573769,4.9857775 3.42004447,4.86104088 3.31890667,4.70259166 C3.21102635,4.53739992 3.15708619,4.35198062 3.15708619,4.14633375 L3.15708619,4.14633375 L2.80310389,4.14633375 C2.80310389,4.38232196 2.86041531,4.60482512 2.97503815,4.81384324 C3.08628973,5.01274758 3.23883925,5.17878213 3.4326867,5.3119469 C3.62653415,5.44511167 3.83808071,5.52686473 4.06732639,5.55720607 L4.06732639,5.55720607 L4.06732639,6.25 L4.48199138,6.25 Z" id="Icon" fill="#F6F9FC" fill-rule="nonzero"></path>
                                            </g>
                                        </g>
                                    </g>
                                </g>
                            </g>
                        </g>
                    </g>
                </g>
            </g>
        </g>
    </g>
</svg>