<?xml version="1.0" encoding="UTF-8"?>
<svg width="60px" height="62px" viewBox="0 0 60 62" version="1.1" xmlns="http://www.w3.org/2000/svg" xmlns:xlink="http://www.w3.org/1999/xlink">
    <title>Illustration</title>
    <defs>
        <path d="M5.13741688,0 C4.57291983,0.00261346023 3.54899189,0.0204052861 2.06645678,0.0536428224 C0.952113125,0.0786257299 0.0595461818,0.980281503 0.0418061866,2.0907548 L0.0415370609,2.12446873 L0.0415370609,53.8218641 C0.0415370609,54.9543974 0.950455692,55.8746413 2.07862994,55.8932105 L2.11288344,55.8932105 L23.5858409,55.8932105 C24.7183741,55.8932105 25.6386181,54.9842918 25.6569097,53.8561176 L25.6571872,53.8218641 L25.6571872,2.12500964 C25.6571872,0.998987929 24.7576528,0.0792194729 23.6319097,0.0541756397 L22.5880201,0.0318986018 C21.6652725,0.013199068 20.9929664,0.00272090436 20.5714442,0 L20.4680212,0 L20.4119958,0 C20.1396929,0 20.0684074,0.106516394 20.0049475,0.544907044 L19.9750797,0.758029826 C19.9687314,0.800635463 19.9635733,0.831059691 19.9561886,0.871372302 C19.824244,1.59164643 19.4233147,1.96108273 18.4470083,1.96902885 L7.37703809,1.96911095 C6.33039999,1.96377369 5.88517941,1.60212939 5.73287994,0.897323009 L5.72011345,0.834689505 C5.71340825,0.800082007 5.70785023,0.767962872 5.70065694,0.721937519 L5.67114443,0.525419751 C5.60641994,0.109276407 5.53624362,0.00373518426 5.27265612,0 L5.13741688,0 Z" id="path-1"></path>
    </defs>
    <g id="Symbols" stroke="none" stroke-width="1" fill="none" fill-rule="evenodd">
        <g id="Dropdown/Features" transform="translate(-457.000000, -77.000000)">
            <g id="Dropdown">
                <g id="Features" transform="translate(49.500000, 76.500000)">
                    <g id="3" transform="translate(407.000000, 1.000000)">
                        <g id="Illustration/Dropdown/Features/TTS" transform="translate(0.500000, 0.433750)">
                            <g id="Image">
                                <g id="Shapes/Shape/2" transform="translate(0.000000, 6.407186)" fill="#CCE4FF">
                                    <path d="M35.8097536,1.46898958 C19.3811147,-3.07133495 3.46067272,3.26538745 0.250451009,15.6224554 C-0.984216782,20.3750473 2.62220188,23.1004584 5.04015318,27.6524838 C8.90904246,34.9360396 14.0744129,43.4237984 24.1845125,46.2178907 C33.5606963,48.8091533 41.3859679,44.9607563 48.0796397,41.1952437 L48.6974672,40.846297 C53.4750104,38.1386597 58.4224015,37.1509267 59.7438152,32.0644249 C61.3872347,25.7384298 54.761289,20.4114982 50.2073272,14.7911894 C45.8656745,9.43290383 43.8280243,3.68497052 35.8097536,1.46898958 Z" id="bat-i"></path>
                                </g>
                                <g id="Device" transform="translate(15.000000, 0.000000)">
                                    <path d="M25.5466053,3.55271368e-15 C27.7582865,3.55271368e-15 29.5512083,1.79292183 29.5512083,4.00460299 L29.5512083,55.995397 C29.5512083,58.2070782 27.7582865,60 25.5466053,60 L4.21173763,60 C2.00005647,60 0.207134638,58.2070782 0.207134638,55.995397 L0.207134638,4.00460299 C0.207134638,1.79292183 2.00005647,3.55271368e-15 4.21173763,3.55271368e-15 L25.5466053,3.55271368e-15 Z" id="Shape" stroke="#2F5BEA" stroke-width="0.5" fill="#FFFFFF" fill-rule="nonzero"></path>
                                    <g id="Screen" transform="translate(2.098854, 1.966398)">
                                        <mask id="mask-2" fill="white">
                                            <use xlink:href="#path-1"></use>
                                        </mask>
                                        <use id="Shape" fill-opacity="0.25" fill="#CCE4FF" xlink:href="#path-1"></use>
                                        <g id="Button" mask="url(#mask-2)">
                                            <g transform="translate(8.574703, 42.348602)">
                                                <circle id="Background" fill="#2F5BEA" fill-rule="evenodd" cx="4.27465889" cy="4.25" r="4.25"></circle>
                                                <path d="M4.27465889,4.77844501 C4.38591047,4.77844501 4.49041953,4.7497893 4.58818607,4.69247788 C4.68595261,4.63516646 4.76349159,4.55762748 4.82080301,4.45986094 C4.87811443,4.3620944 4.90677014,4.25758534 4.90677014,4.14633375 L4.90677014,4.14633375 L4.90677014,2.88211125 C4.90677014,2.77085967 4.87811443,2.66635061 4.82080301,2.56858407 C4.76349159,2.47081753 4.68595261,2.39327855 4.58818607,2.33596713 C4.49041953,2.27865571 4.38591047,2.25 4.27465889,2.25 C4.16340731,2.25 4.05889824,2.27865571 3.9611317,2.33596713 C3.86336516,2.39327855 3.78582618,2.47081753 3.72851476,2.56858407 C3.67120334,2.66635061 3.64254763,2.77085967 3.64254763,2.88211125 L3.64254763,2.88211125 L3.64254763,4.14633375 C3.64254763,4.25758534 3.67120334,4.3620944 3.72851476,4.45986094 C3.78582618,4.55762748 3.86336516,4.63516646 3.9611317,4.69247788 C4.05889824,4.7497893 4.16340731,4.77844501 4.27465889,4.77844501 Z M4.48199138,6.25 L4.48199138,5.55720607 C4.71123706,5.52686473 4.92278362,5.44511167 5.11663107,5.3119469 C5.31047852,5.17878213 5.46302804,5.01274758 5.57427962,4.81384324 C5.68890246,4.60482512 5.74621388,4.38232196 5.74621388,4.14633375 L5.74621388,4.14633375 L5.39223158,4.14633375 C5.39223158,4.35198062 5.33829142,4.53739992 5.2304111,4.70259166 C5.1292733,4.86104088 4.99358008,4.9857775 4.82333145,5.07680152 C4.65308282,5.16782554 4.47019197,5.21333755 4.27465889,5.21333755 C4.0791258,5.21333755 3.89623495,5.16782554 3.72598632,5.07680152 C3.55573769,4.9857775 3.42004447,4.86104088 3.31890667,4.70259166 C3.21102635,4.53739992 3.15708619,4.35198062 3.15708619,4.14633375 L3.15708619,4.14633375 L2.80310389,4.14633375 C2.80310389,4.38232196 2.86041531,4.60482512 2.97503815,4.81384324 C3.08628973,5.01274758 3.23883925,5.17878213 3.4326867,5.3119469 C3.62653415,5.44511167 3.83808071,5.52686473 4.06732639,5.55720607 L4.06732639,5.55720607 L4.06732639,6.25 L4.48199138,6.25 Z" id="Icon" fill="#F6F9FC" fill-rule="nonzero"></path>
                                            </g>
                                        </g>
                                    </g>
                                </g>
                                <g id="TTS" transform="translate(3.823815, 10.099047)">
                                    <path d="M17.1071841,0 C22.0816213,-4.40417465e-15 26.1307232,3.96183112 26.2712659,8.90226933 L26.2750389,9.16785484 L26.2750389,19.3632776 C26.2750389,19.8614615 25.448549,20.0907425 25.0162206,19.712493 L25.0162206,19.712493 L21.6326951,17.1427199 C20.29751,17.9020325 18.7529924,18.3357097 17.1071841,18.3357097 L9.16785484,18.3357097 C4.10458842,18.3357097 2.19363534e-14,14.2311213 2.13162821e-14,9.16785484 C2.06962108e-14,4.10458842 4.10458842,-8.46249888e-16 9.16785484,0 L17.1071841,0 Z" id="Shape" fill="#2F5BEA"></path>
                                    <g id="Logo/Mark/Cyan" transform="translate(6.725612, 2.755947)" fill="#61FAE9">
                                        <path d="M10.0015856,8.20674662 C10.3980905,8.20674662 10.7195212,7.88531591 10.7195212,7.48881102 L10.7195212,3.89913301 C10.7195212,3.10612324 10.0766598,2.46326181 9.28365003,2.46326181 C9.11594068,2.46326181 8.95494682,2.49201426 8.80532894,2.54485868 C9.07468498,2.87910516 9.24632035,3.29292457 9.2782422,3.74531692 L9.28365003,3.89913301 L9.28365003,7.48881102 C9.28365003,7.88531591 9.60508074,8.20674662 10.0015856,8.20674662 Z M7.12984322,2.46326181 C6.33683345,2.46326181 5.69397202,3.10612324 5.69397202,3.89913301 L5.69397202,8.92468223 C5.69397202,9.43687217 5.51518699,9.90730464 5.21661926,10.2769773 C5.36484235,10.3317248 5.52604054,10.3605534 5.69397202,10.3605534 C6.48698179,10.3605534 7.12984322,9.71769199 7.12984322,8.92468223 L7.12984322,3.89913301 C7.12984322,3.38689967 7.30865854,2.91643088 7.60727186,2.54674398 C7.45897289,2.49209047 7.2977747,2.46326181 7.12984322,2.46326181 Z M8.56571442,3.89913301 C8.56571442,3.53537571 8.43044995,3.20321111 8.20747573,2.95019396 C7.9830433,3.20321111 7.84777882,3.53537571 7.84777882,3.89913301 L7.84777882,8.92468223 C7.84777882,10.1141969 6.88348667,11.078489 5.69397202,11.078489 C5.30132874,11.078489 4.93322513,10.9734223 4.61624212,10.7898697 C4.30045647,10.9735523 3.93256549,11.078489 3.54016521,11.078489 C2.40236859,11.078489 1.47063565,10.1962255 1.39176624,9.07849831 L1.3863584,8.92468223 L1.3863584,5.33500422 C1.3863584,4.54199445 2.02921984,3.89913301 2.82222961,3.89913301 C3.56859174,3.89913301 4.18195051,4.46858812 4.2515278,5.19672024 L4.25810081,5.33500422 L4.25810081,8.92468223 C4.25810081,9.28843953 4.39336528,9.62060412 4.61633951,9.87362128 C4.84077194,9.62060412 4.97603641,9.28843953 4.97603641,8.92468223 L4.97603641,3.89913301 C4.97603641,2.70961836 5.94032857,1.74532621 7.12984322,1.74532621 C7.52248649,1.74532621 7.89059011,1.85039297 8.20757311,2.03394555 C8.52335876,1.85026297 8.89124975,1.74532621 9.28365003,1.74532621 C10.4214467,1.74532621 11.3531796,2.62758973 11.432049,3.74531692 L11.4374568,3.89913301 L11.4374568,7.48881102 C11.4374568,8.28182079 10.7945954,8.92468223 10.0015856,8.92468223 C9.25522349,8.92468223 8.64186473,8.35522711 8.57228744,7.627095 L8.56571442,7.48881102 L8.56571442,3.89913301 Z M2.82222961,4.61706861 C2.42572472,4.61706861 2.10429401,4.93849933 2.10429401,5.33500422 L2.10429401,8.92468223 C2.10429401,9.71769199 2.74715544,10.3605534 3.54016521,10.3605534 C3.70787456,10.3605534 3.86886841,10.331801 4.0184863,10.2789566 C3.74909791,9.94463208 3.57749188,9.53084804 3.54557304,9.07849831 L3.54016521,8.92468223 L3.54016521,5.33500422 C3.54016521,4.93849933 3.21873449,4.61706861 2.82222961,4.61706861 Z" id="Combined-Shape"></path>
                                    </g>
                                </g>
                            </g>
                        </g>
                    </g>
                </g>
            </g>
        </g>
    </g>
</svg>