<?xml version="1.0" encoding="UTF-8"?>
<svg width="61px" height="48px" viewBox="0 0 61 48" version="1.1" xmlns="http://www.w3.org/2000/svg" xmlns:xlink="http://www.w3.org/1999/xlink">
    <title>Illustration</title>
    <g id="Symbols" stroke="none" stroke-width="1" fill="none" fill-rule="evenodd">
        <g id="Dropdown/Resources" transform="translate(-50.000000, -138.000000)">
            <g id="Dropdown">
                <g id="Features" transform="translate(49.500000, 28.000000)">
                    <g id="1" transform="translate(0.000000, 2.000000)">
                        <g id="2" transform="translate(0.500000, 102.000000)">
                            <g id="Illustration/Dropdown/Resources/Tutorials">
                                <g id="Image" transform="translate(0.000000, 6.000000)" fill="#CCE4FF">
                                    <g id="Shapes/Shape/2" transform="translate(0.500000, 0.407186)">
                                        <path d="M35.8097536,1.46898958 C19.3811147,-3.07133495 3.46067272,3.26538745 0.250451009,15.6224554 C-0.984216782,20.3750473 2.62220188,23.1004584 5.04015318,27.6524838 C8.90904246,34.9360396 14.0744129,43.4237984 24.1845125,46.2178907 C33.5606963,48.8091533 41.3859679,44.9607563 48.0796397,41.1952437 L48.6974672,40.846297 C53.4750104,38.1386597 58.4224015,37.1509267 59.7438152,32.0644249 C61.3872347,25.7384298 54.761289,20.4114982 50.2073272,14.7911894 C45.8656745,9.43290383 43.8280243,3.68497052 35.8097536,1.46898958 Z" id="bat-i"></path>
                                    </g>
                                </g>
                                <g id="2" transform="translate(0.500000, 9.875776)">
                                    <g id="Group-61">
                                        <g id="Group-10" transform="translate(1.392553, 1.507878)">
                                            <path d="M2.48583346,0.354164496 L50.008374,0.354164496 C51.1129435,0.354164496 52.008374,1.249595 52.008374,2.3541645 L52.008374,31.9808668 C52.008374,33.0854363 51.1129435,33.9808668 50.008374,33.9808668 L2.48583346,33.9808668 C1.38126396,33.9808668 0.485833462,33.0854363 0.485833462,31.9808668 L0.485833462,2.3541645 C0.485833462,1.249595 1.38126396,0.354164496 2.48583346,0.354164496 Z" id="Rectangle-12-Copy-2" fill="#2C363F"></path>
                                            <g id="Group-49" transform="translate(4.879913, 5.690964)">
                                                <rect id="Rectangle-30" fill="#FACC5F" x="8.36150121" y="0" width="9.12163768" height="1.52479981"></rect>
                                                <rect id="Rectangle-30-Copy-2" fill="#FACC5F" x="25.8446401" y="0" width="9.12163768" height="1.52479981"></rect>
                                                <rect id="Rectangle-30-Copy" fill="#EDF3F9" x="0" y="0" width="6.08109179" height="1.52479981"></rect>
                                                <rect id="Rectangle-30-Copy-3" fill="#EDF3F9" x="19.7635483" y="0" width="3.80068237" height="1.52479981"></rect>
                                            </g>
                                            <g id="Group-49-Copy-2" transform="translate(22.346190, 24.988562) scale(-1, 1) translate(-22.346190, -24.988562) translate(4.846190, 23.988562)">
                                                <rect id="Rectangle-30" fill="#FACC5F" x="8.36150121" y="0" width="9.12163768" height="1.52479981"></rect>
                                                <rect id="Rectangle-30-Copy-2" fill="#61FAE9" x="25.8446401" y="0" width="9.12163768" height="1.52479981"></rect>
                                                <rect id="Rectangle-30-Copy" fill="#EDF3F9" x="0" y="0" width="6.08109179" height="1.52479981"></rect>
                                                <rect id="Rectangle-30-Copy-3" fill="#EDF3F9" x="19.7635483" y="0" width="3.80068237" height="1.52479981"></rect>
                                            </g>
                                            <g id="Group-49-Copy-4" transform="translate(4.879913, 17.889362)" fill="#EDF3F9">
                                                <rect id="Rectangle-30-Copy" x="0" y="0" width="6.08109179" height="1.52479981"></rect>
                                            </g>
                                            <g id="Group-49-Copy" transform="translate(4.879913, 8.740563)">
                                                <rect id="Rectangle-30" fill="#FACC5F" x="25.0845036" y="0" width="5.32095531" height="1.52479981"></rect>
                                                <rect id="Rectangle-30-Copy" fill="#61FAE9" x="0" y="0" width="13.6824565" height="1.52479981"></rect>
                                                <rect id="Rectangle-30-Copy-3" fill="#EDF3F9" x="15.9628659" y="0" width="6.84122826" height="1.52479981"></rect>
                                            </g>
                                            <g id="Group-49-Copy-3" transform="translate(24.146873, 28.038161) scale(-1, 1) translate(-24.146873, -28.038161) translate(4.646873, 27.038161)">
                                                <rect id="Rectangle-30" fill="#61FAE9" x="33.4460048" y="0" width="5.32095531" height="1.52479981"></rect>
                                                <rect id="Rectangle-30-Copy-4" fill="#FACC5F" x="0" y="0" width="6.08109179" height="1.52479981"></rect>
                                                <rect id="Rectangle-30-Copy" fill="#FACC5F" x="8.36150121" y="0" width="13.6824565" height="1.52479981"></rect>
                                                <rect id="Rectangle-30-Copy-3" fill="#EDF3F9" x="24.3243672" y="0" width="6.84122826" height="1.52479981"></rect>
                                            </g>
                                            <g id="Group-49-Copy-5" transform="translate(4.879913, 20.938962)">
                                                <rect id="Rectangle-30" fill="#FACC5F" x="25.0845036" y="0" width="5.32095531" height="1.52479981"></rect>
                                                <rect id="Rectangle-30-Copy" fill="#61FAE9" x="0" y="0" width="13.6824565" height="1.52479981"></rect>
                                                <rect id="Rectangle-30-Copy-3" fill="#EDF3F9" x="15.9628659" y="0" width="6.84122826" height="1.52479981"></rect>
                                            </g>
                                        </g>
                                    </g>
                                    <g id="Group-14" transform="translate(38.000000, 19.500000)">
                                        <path d="M10.9087739,0.872797612 C10.7059963,0.755598026 10.4796441,0.696998233 10.2532919,0.696998233 C10.0269398,0.696998233 9.80058758,0.755598026 9.59780999,0.872797612 L0.899953901,5.89990701 C0.494964559,6.13397914 0.24552795,6.56624834 0.24552795,7.03401551 L0.24552795,17.0902081 C0.24552795,17.5579753 0.494964559,17.9902445 0.899953901,18.2243166 L9.59780999,23.251426 C9.80058758,23.3686256 10.0269398,23.4272254 10.2532919,23.4272254 C10.4796441,23.4272254 10.7059963,23.3686256 10.9087739,23.251426 L19.6066299,18.2243166 C20.0116193,17.9902445 20.2610559,17.5579753 20.2610559,17.0902081 L20.2610559,7.03401551 C20.2610559,6.56624834 20.0116193,6.13397914 19.6066299,5.89990701 L10.9087739,0.872797612 Z" id="Polygon-Copy" stroke="#2F5BEA" stroke-width="0.5" fill="#F6F9FC"></path>
                                        <path d="M10.7836731,2.24518794 L18.4815292,6.69432624 C18.809225,6.88372498 19.0110559,7.23349425 19.0110559,7.61198661 L19.0110559,16.512237 C19.0110559,16.8907293 18.809225,17.2404986 18.4815292,17.4298974 L10.7836731,21.8790357 C10.4555194,22.068699 10.0510645,22.068699 9.72291076,21.8790357 L2.02505467,17.4298974 C1.69735881,17.2404986 1.49552795,16.8907293 1.49552795,16.512237 L1.49552795,7.61198661 C1.49552795,7.23349425 1.69735881,6.88372498 2.02505467,6.69432624 L9.72291076,2.24518794 C10.0510645,2.05552458 10.4555194,2.05552458 10.7836731,2.24518794 Z" id="Polygon-Copy" fill="#EDF3F9"></path>
                                        <path d="M9.50275321,16.8121118 C9.49007955,16.808373 9.47740588,16.8045209 9.464691,16.8009057 C9.31929415,16.7597067 9.22323187,16.6173951 9.2420466,16.4710666 C9.26201535,16.3159319 9.38900962,16.2008631 9.54493695,16.2005953 C10.0110909,16.1997714 10.4772655,16.1997714 10.9434195,16.2005953 C11.1040969,16.2008631 11.2331622,16.3177549 11.2503283,16.4746922 C11.2672678,16.6297136 11.1639928,16.7696357 11.0060563,16.8057569 C11.0002758,16.8070958 10.9948354,16.8099592 10.9892199,16.8121118 L9.50275321,16.8121118 Z M10.2533125,15.9526084 C9.88303537,15.9526084 9.51273759,15.953162 9.14246042,15.9524333 C8.85774597,15.9518771 8.63783208,15.726632 8.64315914,15.4427813 C8.64800192,15.1841238 8.86504105,14.9656559 9.12422271,14.9627411 C9.34636222,14.9602383 9.56856355,14.9620304 9.79072367,14.9620201 C10.3151971,14.9619892 10.8396809,14.9616287 11.364144,14.9622055 C11.6020277,14.9624733 11.7977483,15.1188852 11.8512971,15.3491463 C11.9216412,15.6515365 11.6898161,15.9498172 11.3787445,15.9518874 C11.0036349,15.9543593 10.6284531,15.9524745 10.2533228,15.9524745 L10.2533125,15.9526084 Z M13.4898993,10.2058251 C13.3522818,8.95426193 12.494594,7.88881512 11.3001266,7.48497242 C11.021481,7.39076065 10.7355919,7.33418415 10.4417895,7.31795176 C10.4298887,7.31729257 10.418132,7.31410995 10.4063136,7.3121118 L10.1002703,7.3121118 C10.0304105,7.31893023 9.96047869,7.32499678 9.89071169,7.33262889 C8.63969706,7.47044978 7.5726979,8.32788294 7.17005652,9.51832746 C7.07546768,9.79802733 7.01819919,10.0848855 7.00200162,10.3798084 C7.00134218,10.3916119 6.99815831,10.4032506 6.99614907,10.4149615 L6.99614907,10.7208845 C7.00295988,10.7906343 7.00894638,10.8604666 7.01673605,10.9301135 C7.06850231,11.3926029 7.21043709,11.8259441 7.45081431,12.2242661 C7.56794785,12.4183648 7.70000129,12.6034409 7.82491419,12.7928636 C8.12155014,13.2426225 8.40142181,13.7023207 8.65265924,14.1791577 C8.66507531,14.2027132 8.67830538,14.2260834 8.68801156,14.2507512 C8.7291237,14.3551804 8.80709251,14.3996341 8.917034,14.3995415 C9.66376031,14.3989749 10.4104763,14.3992427 11.1572026,14.3992427 C11.3016824,14.3992427 11.4461725,14.3993869 11.5906524,14.3991809 C11.6943497,14.3990573 11.7620972,14.3512356 11.8097213,14.2569002 C11.899251,14.0795489 11.9943447,13.9047622 12.0935394,13.7325814 C12.3497741,13.287859 12.6247824,12.8551358 12.9205631,12.4352461 C13.27421,11.9332262 13.4664273,11.3727759 13.5044174,10.7597145 C13.5052211,10.7467162 13.508374,10.7338622 13.5104348,10.7209257 L13.5104348,10.4150232 C13.5036137,10.3452734 13.4975447,10.275472 13.4898993,10.2058251 L13.4898993,10.2058251 Z M9.72980763,9.33775233 C9.30298324,9.55564343 9.02667668,9.9041353 8.90854367,10.3735462 C8.81535616,10.7438735 8.85764293,11.0556468 8.85807569,11.058747 C8.88385578,11.230866 8.76507364,11.3906357 8.59287662,11.4164056 C8.57713242,11.4187643 8.56147065,11.4199076 8.54601496,11.4199076 C8.3924369,11.4199076 8.257756,11.307146 8.23433547,11.1507546 C8.23181104,11.1339042 8.1738625,10.7325129 8.29050146,10.2466018 C8.44831438,9.5891794 8.84684455,9.08081489 9.44304272,8.77645743 C9.59808392,8.69727299 9.78799316,8.75877277 9.86716752,8.91377363 C9.94637279,9.06878479 9.88486944,9.25859879 9.72980763,9.33775233 Z" id="Shape" fill="#2F5BEA" fill-rule="nonzero"></path>
                                    </g>
                                </g>
                            </g>
                        </g>
                    </g>
                </g>
            </g>
        </g>
    </g>
</svg>