<?xml version="1.0" encoding="UTF-8"?>
<svg width="60px" height="62px" viewBox="0 0 60 62" version="1.1" xmlns="http://www.w3.org/2000/svg" xmlns:xlink="http://www.w3.org/1999/xlink">
    <title>Illustration</title>
    <defs>
        <path d="M5.3874823,2.84217094e-14 C4.82298526,0.00261346023 3.79905732,0.0204052861 2.31652221,0.0536428224 C1.20217855,0.0786257299 0.30961161,0.980281503 0.291871615,2.0907548 L0.29160249,2.12446873 L0.29160249,53.8218641 C0.29160249,54.9543974 1.20052112,55.8746413 2.32869536,55.8932105 L2.36294886,55.8932105 L23.8359063,55.8932105 C24.9684396,55.8932105 25.8886835,54.9842918 25.9069752,53.8561176 L25.9072527,53.8218641 L25.9072527,2.12500964 C25.9072527,0.998987929 25.0077183,0.0792194729 23.8819751,0.0541756397 L22.8380855,0.0318986018 C21.9153379,0.013199068 21.2430319,0.00272090436 20.8215096,2.84217094e-14 L20.7180867,2.84217094e-14 L20.6620613,2.84217094e-14 C20.3897583,2.84217094e-14 20.3184728,0.106516394 20.255013,0.544907044 L20.2251452,0.758029826 C20.2187969,0.800635463 20.2136387,0.831059691 20.206254,0.871372302 C20.0743095,1.59164643 19.6733801,1.96108273 18.6970737,1.96902885 L7.62710351,1.96911095 C6.58046542,1.96377369 6.13524484,1.60212939 5.98294537,0.897323009 L5.97017888,0.834689505 C5.96347368,0.800082007 5.95791565,0.767962872 5.95072237,0.721937519 L5.92120986,0.525419751 C5.85648537,0.109276407 5.78630905,0.00373518426 5.52272155,2.84217094e-14 L5.3874823,2.84217094e-14 Z" id="path-1"></path>
        <circle id="path-3" cx="4.25" cy="4.25" r="4.25"></circle>
        <filter x="-364.7%" y="-341.2%" width="829.4%" height="829.4%" filterUnits="objectBoundingBox" id="filter-4">
            <feOffset dx="0" dy="2" in="SourceAlpha" result="shadowOffsetOuter1"></feOffset>
            <feGaussianBlur stdDeviation="10" in="shadowOffsetOuter1" result="shadowBlurOuter1"></feGaussianBlur>
            <feColorMatrix values="0 0 0 0 0.183302285   0 0 0 0 0.357604153   0 0 0 0 0.9158429  0 0 0 1 0" type="matrix" in="shadowBlurOuter1"></feColorMatrix>
        </filter>
    </defs>
    <g id="Symbols" stroke="none" stroke-width="1" fill="none" fill-rule="evenodd">
        <g id="Dropdown/Features" transform="translate(-457.000000, -182.000000)">
            <g id="Dropdown">
                <g id="Features" transform="translate(49.500000, 76.500000)">
                    <g id="4" transform="translate(407.500000, 106.130000)">
                        <g id="Illustration/Dropdown/Features/Wakeword" transform="translate(0.000000, 0.402500)">
                            <g id="Image">
                                <g id="Shapes/Shape/4" transform="translate(0.000000, 6.407186)" fill="#CCE4FF">
                                    <path d="M30,47.1028706 C46.5685425,47.1028706 60,36.558534 60,23.5514353 C60,18.5488382 55.9402847,16.8510766 52.5523517,13.0368392 C47.1314245,6.93379542 40.1961956,0 30,0 C20.2515157,0 13.7270907,6.27420445 8.24742267,11.9286491 C4.41383644,15.8845093 0,18.1973633 0,23.5514353 C0,30.2102028 7.53690516,33.6433466 13.1958763,37.9269869 C18.5910219,42.0109203 21.9134471,47.1028706 30,47.1028706 Z" id="Shape"></path>
                                </g>
                                <g id="Device" transform="translate(15.000000, 0.000000)">
                                    <path d="M25.5466053,0 C27.7582865,0 29.5512083,1.79292183 29.5512083,4.00460299 L29.5512083,55.995397 C29.5512083,58.2070782 27.7582865,60 25.5466053,60 L4.21173763,60 C2.00005647,60 0.207134638,58.2070782 0.207134638,55.995397 L0.207134638,4.00460299 C0.207134638,1.79292183 2.00005647,0 4.21173763,0 L25.5466053,0 Z" id="Shape" stroke="#2F5BEA" stroke-width="0.5" fill="#FFFFFF" fill-rule="nonzero"></path>
                                    <g id="Screen" transform="translate(1.848789, 1.966398)">
                                        <mask id="mask-2" fill="white">
                                            <use xlink:href="#path-1"></use>
                                        </mask>
                                        <use id="Shape" fill-opacity="0.25" fill="#CCE4FF" xlink:href="#path-1"></use>
                                        <path d="M-3,48.8523941 C-0.699155888,50.1925328 0.332065677,54.5480187 2.46843756,54.5480187 C4.99323697,54.5480187 5.59352621,50.0924272 7.81324569,50.0924272 C10.0329652,50.0924272 10.9746998,53.7711225 13.5674246,53.7711225 C15.1670938,53.7711225 16.5998936,51.2866753 20.4123275,51.2915852 C24.2247614,51.2964951 26.0440248,54.0335348 29.1988552,54.0335348 L29.1988552,55.8932105 L-3,55.8932105 L-3,48.8523941 Z" id="Shape" fill="#2F5BEA" opacity="0.25" mask="url(#mask-2)"></path>
                                        <path d="M-3,54.9202953 C-0.314467011,54.9202953 0.0809555103,51.667522 2.4419866,51.667522 C4.80301768,51.667522 5.80470491,54.9202953 8.56248758,54.9202953 C11.3202702,54.9202953 12.7670597,52.288583 15.387941,52.288583 C18.0088222,52.288583 25.8431822,54.5446999 29.1988552,54.5446999 L29.1988552,55.8837515 L-3,55.8932105 L-3,54.9202953 Z" id="Shape" fill="#2F5BEA" opacity="0.1" mask="url(#mask-2)"></path>
                                        <g id="Button" mask="url(#mask-2)">
                                            <g transform="translate(8.824769, 43.352394)">
                                                <g id="Background" fill="none">
                                                    <use fill="black" fill-opacity="1" filter="url(#filter-4)" xlink:href="#path-3"></use>
                                                    <use fill="#2F5BEA" fill-rule="evenodd" xlink:href="#path-3"></use>
                                                </g>
                                                <path d="M4.25,3.48717949 C4.67129414,3.48717949 5.01282051,3.82870586 5.01282051,4.25 C5.01282051,4.67129414 4.67129414,5.01282051 4.25,5.01282051 C3.82870586,5.01282051 3.48717949,4.67129414 3.48717949,4.25 C3.48717949,3.82870586 3.82870586,3.48717949 4.25,3.48717949 Z M2.72435897,3.81410256 C2.96509848,3.81410256 3.16025641,4.00926049 3.16025641,4.25 C3.16025641,4.49073951 2.96509848,4.68589744 2.72435897,4.68589744 C2.48361947,4.68589744 2.28846154,4.49073951 2.28846154,4.25 C2.28846154,4.00926049 2.48361947,3.81410256 2.72435897,3.81410256 Z M5.77564103,3.81410256 C6.01638053,3.81410256 6.21153846,4.00926049 6.21153846,4.25 C6.21153846,4.49073951 6.01638053,4.68589744 5.77564103,4.68589744 C5.53490152,4.68589744 5.33974359,4.49073951 5.33974359,4.25 C5.33974359,4.00926049 5.53490152,3.81410256 5.77564103,3.81410256 Z" id="Shape" fill="#F6F9FC" fill-rule="evenodd"></path>
                                            </g>
                                        </g>
                                    </g>
                                </g>
                                <g id="Speech" transform="translate(3.823815, 12.470244)">
                                    <path d="M27.8321452,-4.26325641e-14 C32.8065823,-4.35463534e-14 36.8556843,3.96183112 36.996227,8.90226933 L37,9.16785484 L37,17.8764451 C37,18.3019772 36.2940398,18.4978214 35.9247594,18.1747333 L35.9247594,18.1747333 L33.5266267,16.3531937 C31.9625902,17.5943822 29.9839409,18.3357097 27.8321452,18.3357097 L9.16785484,18.3357097 C4.10458842,18.3357097 -8.4645057e-14,14.2311213 -8.52651283e-14,9.16785484 C-8.58851996e-14,4.10458842 4.10458842,-4.17024572e-14 9.16785484,-4.26325641e-14 L27.8321452,-4.26325641e-14 Z" id="Shape" fill="#5BA0FF" transform="translate(18.500000, 9.167855) scale(-1, -1) translate(-18.500000, -9.167855) "></path>
                                    <path d="M10.485282,12.1678548 C10.9745868,12.1678548 11.4084103,12.0502078 11.7867526,11.8149137 C12.1650948,11.5796195 12.4558702,11.2453949 12.6590788,10.8122399 C12.8622873,10.3790848 12.9638916,9.87507409 12.9638916,9.30020778 L12.9638916,9.30020778 L12.9638916,9.0395126 C12.9638916,8.46732008 12.860282,7.96264094 12.6530627,7.52547516 C12.4458435,7.08830939 12.1530627,6.75274789 11.7747205,6.51879067 C11.3963782,6.28483345 10.9638916,6.16785484 10.4772606,6.16785484 C9.99062956,6.16785484 9.55814293,6.28483345 9.17980068,6.51879067 C8.80145843,6.75274789 8.50867769,7.08830939 8.30145843,7.52547516 C8.09423918,7.96264094 7.99062956,8.46865698 7.99062956,9.04352329 L7.99062956,9.04352329 L7.99062956,9.33229335 C7.99330335,9.89379067 8.09891833,10.3904484 8.30747448,10.8222666 C8.51603063,11.2540848 8.81014827,11.586304 9.18982742,11.8189244 C9.56950656,12.0515447 10.0013247,12.1678548 10.485282,12.1678548 Z M10.485282,11.1812238 C10.0735173,11.1812238 9.75800924,11.0167853 9.5387579,10.6879083 C9.31950656,10.3590313 9.20988089,9.89646447 9.20988089,9.30020778 L9.20988089,9.30020778 L9.20988089,9.01544843 C9.21255469,8.40849655 9.32351726,7.94793506 9.5427686,7.63376393 C9.76201993,7.31959281 10.0735173,7.16250725 10.4772606,7.16250725 C10.8836777,7.16250725 11.1965119,7.32159816 11.4157632,7.63977998 C11.6350146,7.95796179 11.7446403,8.42320244 11.7446403,9.0355019 L11.7446403,9.0355019 L11.7446403,9.32026126 C11.7419665,9.92721313 11.6323408,10.3891115 11.4157632,10.7059564 C11.1991857,11.0228014 10.8890253,11.1812238 10.485282,11.1812238 Z M15.2094434,12.0876409 L15.2094434,10.0301543 L16.2642562,10.0301543 C16.9567696,10.0301543 17.4988819,9.86504736 17.8905931,9.53483345 C18.2823043,9.20461955 18.4781599,8.75341634 18.4781599,8.18122383 C18.4781599,7.80421848 18.3885877,7.46798853 18.2094434,7.17253399 C18.030299,6.87707944 17.7742829,6.64913826 17.4413952,6.48871046 C17.1085075,6.32828265 16.7228123,6.24806875 16.2843097,6.24806875 L16.2843097,6.24806875 L14.0062348,6.24806875 L14.0062348,12.0876409 L15.2094434,12.0876409 Z M16.2843097,9.05555538 L15.2094434,9.05555538 L15.2094434,7.22266768 L16.3123845,7.22266768 C16.609176,7.22801527 16.8417963,7.31892436 17.0102455,7.49539495 C17.1786947,7.67186554 17.2629193,7.90314896 17.2629193,8.18924522 C17.2629193,8.46732008 17.1793632,8.68122383 17.0122509,8.83095645 C16.8451386,8.98068907 16.6024915,9.05555538 16.2843097,9.05555538 L16.2843097,9.05555538 Z M23.3868133,12.0876409 L23.3868133,11.1210634 L20.6755834,11.1210634 L20.6755834,9.55689228 L22.9857438,9.55689228 L22.9857438,8.61437891 L20.6755834,8.61437891 L20.6755834,7.22266768 L23.3787919,7.22266768 L23.3787919,6.24806875 L19.4723748,6.24806875 L19.4723748,12.0876409 L23.3868133,12.0876409 Z M25.4639159,12.0876409 L25.4639159,8.24539495 L27.8061619,12.0876409 L29.0093704,12.0876409 L29.0093704,6.24806875 L27.8101726,6.24806875 L27.8101726,10.0983361 L25.4639159,6.24806875 L24.2607073,6.24806875 L24.2607073,12.0876409 L25.4639159,12.0876409 Z" id="Text" fill="#2C363F" fill-rule="nonzero"></path>
                                </g>
                            </g>
                        </g>
                    </g>
                </g>
            </g>
        </g>
    </g>
</svg>