<svg width="636" height="636" viewBox="0 0 636 636" fill="none" xmlns="http://www.w3.org/2000/svg">
<path fill-rule="evenodd" clip-rule="evenodd" d="M338 1.26213C376.792 -3.40511 414.106 14.1147 452.221 22.7084C494.561 32.2549 543.292 28.0558 577.171 55.1875C610.826 82.1404 635.137 126.322 635.439 169.439C635.763 215.81 590.349 250.304 578.848 295.228C571.248 324.915 578.269 355.772 579.902 386.373C582.089 427.351 609.216 471.634 590.201 507.999C572.366 542.106 520.855 539.779 488.658 560.868C455.662 582.48 436.2 628.3 397.229 634.393C357.934 640.536 325.44 601.062 286.61 592.455C249.114 584.143 206.853 602.062 172.642 584.608C138.623 567.253 124.475 526.593 100.017 497.262C74.622 466.809 41.0804 442.738 24.3558 406.785C6.99198 369.458 -3.75925 327.177 1.92884 286.404C7.59234 245.807 32.1675 210.393 56.369 177.31C78.9326 146.466 107.936 121.54 138.91 99.1548C168.196 77.9894 201.527 64.9133 233.953 48.9693C268.486 31.9893 299.793 5.85895 338 1.26213Z" fill="#D6EAFF"/>
<path d="M258 317.546C258 284.409 284.863 257.546 318 257.546C351.137 257.546 378 284.409 378 317.546C378 350.683 351.137 377.546 318 377.546C284.863 377.546 258 350.683 258 317.546Z" fill="#2F5BEA"/>
<path fill-rule="evenodd" clip-rule="evenodd" d="M315.143 336.141C313.582 336.141 312.118 335.723 310.857 334.993C309.596 335.723 308.133 336.141 306.571 336.141C301.838 336.141 298 332.299 298 327.559V313.255C298 310.096 300.558 307.534 303.714 307.534C306.87 307.534 309.429 310.096 309.429 313.255V327.559C309.429 329.01 309.968 330.335 310.857 331.343C311.746 330.335 312.286 329.01 312.286 327.559V307.534C312.286 302.794 316.123 298.952 320.857 298.952C322.418 298.952 323.882 299.37 325.143 300.1C326.404 299.37 327.867 298.952 329.429 298.952C334.162 298.952 338 302.794 338 307.534V321.838C338 324.997 335.442 327.559 332.286 327.559C329.13 327.559 326.571 324.997 326.571 321.838V307.534C326.571 306.083 326.032 304.758 325.143 303.75C324.254 304.758 323.714 306.083 323.714 307.534V327.559C323.714 332.299 319.877 336.141 315.143 336.141ZM300.857 313.255V327.559C300.857 330.719 303.416 333.28 306.571 333.28C307.24 333.28 307.881 333.166 308.477 332.955C307.285 331.48 306.571 329.603 306.571 327.559L306.571 313.255C306.571 311.676 305.292 310.395 303.714 310.395C302.136 310.395 300.857 311.676 300.857 313.255ZM329.429 307.534C329.429 305.49 328.715 303.613 327.523 302.138C328.119 301.927 328.76 301.813 329.429 301.813C332.584 301.813 335.143 304.374 335.143 307.534V321.838C335.143 323.417 333.864 324.698 332.286 324.698C330.708 324.698 329.429 323.417 329.429 321.838L329.429 307.534ZM320.857 301.813C321.525 301.813 322.167 301.927 322.763 302.138C321.571 303.613 320.857 305.49 320.857 307.534V327.559C320.857 330.719 318.299 333.28 315.143 333.28C314.475 333.28 313.833 333.166 313.237 332.955C314.429 331.48 315.143 329.603 315.143 327.559V307.534C315.143 304.374 317.701 301.813 320.857 301.813Z" fill="#61FAE9"/>
</svg>
