<svg width="636" height="636" viewBox="0 0 636 636" fill="none" xmlns="http://www.w3.org/2000/svg">
<path fill-rule="evenodd" clip-rule="evenodd" d="M338 1.26213C376.792 -3.40511 414.106 14.1147 452.221 22.7084C494.561 32.2549 543.292 28.0558 577.171 55.1875C610.826 82.1404 635.137 126.322 635.439 169.439C635.763 215.81 590.349 250.304 578.848 295.228C571.248 324.915 578.269 355.772 579.902 386.373C582.089 427.351 609.216 471.634 590.201 507.999C572.366 542.106 520.855 539.779 488.658 560.868C455.662 582.48 436.2 628.3 397.229 634.393C357.934 640.536 325.44 601.062 286.61 592.455C249.114 584.143 206.853 602.062 172.642 584.608C138.623 567.253 124.475 526.593 100.017 497.262C74.622 466.809 41.0804 442.738 24.3558 406.785C6.99198 369.458 -3.75925 327.177 1.92884 286.404C7.59234 245.807 32.1675 210.393 56.369 177.31C78.9326 146.466 107.936 121.54 138.91 99.1548C168.196 77.9894 201.527 64.9133 233.953 48.9693C268.486 31.9893 299.793 5.85895 338 1.26213Z" fill="#D6EAFF"/>
<path d="M318 207.546L318.065 317.457L422.616 283.554L318.105 317.58L382.656 406.538L318 317.656L253.344 406.538L317.895 317.58L213.384 283.554L317.935 317.457L318 207.546Z" stroke="url(#paint0_linear)" stroke-width="2" stroke-linecap="round" stroke-linejoin="round" stroke-dasharray="10 10"/>
<path d="M223.34 406.99C223.34 390.422 236.771 376.99 253.34 376.99H254.34C270.908 376.99 284.34 390.422 284.34 406.99C284.34 423.559 270.908 436.99 254.34 436.99H253.34C236.771 436.99 223.34 423.559 223.34 406.99Z" fill="black"/>
<g clip-path="url(#clip0)">
<path d="M253.353 397.102C252.543 397.106 251.769 397.174 251.088 397.292C249.082 397.641 248.718 398.37 248.718 399.716V401.493H253.458V402.085H248.718H246.939C245.562 402.085 244.356 402.899 243.978 404.449C243.543 406.225 243.524 407.333 243.978 409.187C244.315 410.567 245.12 411.551 246.497 411.551H248.127V409.421C248.127 407.882 249.481 406.524 251.088 406.524H255.823C257.14 406.524 258.192 405.457 258.192 404.155V399.716C258.192 398.452 257.109 397.503 255.823 397.292C255.008 397.159 254.163 397.099 253.353 397.102ZM250.79 398.531C251.279 398.531 251.679 398.931 251.679 399.422C251.679 399.912 251.279 400.308 250.79 400.308C250.298 400.308 249.9 399.912 249.9 399.422C249.9 398.931 250.298 398.531 250.79 398.531Z" fill="url(#paint1_linear)"/>
<path d="M258.784 402.085V404.155C258.784 405.76 257.401 407.111 255.823 407.111H251.089C249.792 407.111 248.719 408.203 248.719 409.48V413.92C248.719 415.183 249.836 415.927 251.089 416.289C252.589 416.723 254.028 416.801 255.823 416.289C257.016 415.949 258.193 415.265 258.193 413.92V412.143H253.459V411.551H258.193H260.563C261.941 411.551 262.454 410.606 262.933 409.187C263.428 407.727 263.407 406.322 262.933 404.449C262.593 403.1 261.942 402.085 260.563 402.085H258.784ZM256.121 413.328C256.613 413.328 257.011 413.724 257.011 414.213C257.011 414.705 256.613 415.104 256.121 415.104C255.632 415.104 255.232 414.705 255.232 414.213C255.232 413.724 255.632 413.328 256.121 413.328Z" fill="url(#paint2_linear)"/>
</g>
<path d="M253.34 378.99H254.34V374.99H253.34V378.99ZM254.34 434.99H253.34V438.99H254.34V434.99ZM253.34 434.99C237.876 434.99 225.34 422.454 225.34 406.99H221.34C221.34 424.663 235.667 438.99 253.34 438.99V434.99ZM282.34 406.99C282.34 422.454 269.804 434.99 254.34 434.99V438.99C272.013 438.99 286.34 424.663 286.34 406.99H282.34ZM254.34 378.99C269.804 378.99 282.34 391.526 282.34 406.99H286.34C286.34 389.317 272.013 374.99 254.34 374.99V378.99ZM253.34 374.99C235.667 374.99 221.34 389.317 221.34 406.99H225.34C225.34 391.526 237.876 378.99 253.34 378.99V374.99Z" fill="url(#paint3_linear)"/>
<path d="M183.38 283.51C183.38 267.217 196.587 254.01 212.88 254.01C229.172 254.01 242.38 267.217 242.38 283.51V285.51C242.38 301.802 229.172 315.01 212.88 315.01C196.587 315.01 183.38 301.802 183.38 285.51V283.51Z" fill="black"/>
<path fill-rule="evenodd" clip-rule="evenodd" d="M212.211 274.473C212.495 274.3 212.852 274.3 213.14 274.473L220.851 279.072C221.139 279.245 221.316 279.563 221.316 279.906V289.114C221.316 289.457 221.139 289.775 220.851 289.947L213.14 294.546C212.852 294.72 212.495 294.72 212.211 294.546L204.505 289.947C204.21 289.775 204.03 289.457 204.03 289.114V279.906C204.03 279.563 204.201 279.245 204.495 279.072L212.211 274.473Z" fill="url(#paint4_linear)"/>
<path d="M240.38 283.51V285.51H244.38V283.51H240.38ZM185.38 285.51V283.51H181.38V285.51H185.38ZM212.88 313.01C197.692 313.01 185.38 300.698 185.38 285.51H181.38C181.38 302.907 195.483 317.01 212.88 317.01V313.01ZM240.38 285.51C240.38 300.698 228.068 313.01 212.88 313.01V317.01C230.277 317.01 244.38 302.907 244.38 285.51H240.38ZM212.88 256.01C228.068 256.01 240.38 268.322 240.38 283.51H244.38C244.38 266.113 230.277 252.01 212.88 252.01V256.01ZM212.88 252.01C195.483 252.01 181.38 266.113 181.38 283.51H185.38C185.38 268.322 197.692 256.01 212.88 256.01V252.01Z" fill="url(#paint5_linear)"/>
<path d="M288 207.546C288 190.977 301.431 177.546 318 177.546C334.569 177.546 348 190.977 348 207.546C348 224.114 334.569 237.546 318 237.546C301.431 237.546 288 224.114 288 207.546Z" fill="black"/>
<path d="M326.493 213.132C326.191 213.831 325.833 214.474 325.418 215.065C324.853 215.871 324.39 216.429 324.033 216.739C323.48 217.248 322.887 217.508 322.253 217.523C321.797 217.523 321.248 217.394 320.608 217.131C319.967 216.869 319.377 216.739 318.838 216.739C318.273 216.739 317.666 216.869 317.018 217.131C316.368 217.394 315.845 217.531 315.445 217.544C314.836 217.57 314.23 217.302 313.624 216.739C313.238 216.402 312.754 215.824 312.175 215.006C311.554 214.132 311.043 213.118 310.643 211.963C310.215 210.715 310 209.506 310 208.336C310 206.996 310.29 205.84 310.87 204.871C311.326 204.093 311.932 203.479 312.691 203.028C313.45 202.578 314.271 202.348 315.154 202.334C315.637 202.334 316.271 202.483 317.059 202.777C317.844 203.072 318.348 203.221 318.569 203.221C318.735 203.221 319.295 203.046 320.245 202.698C321.143 202.375 321.901 202.241 322.522 202.294C324.205 202.429 325.469 203.093 326.309 204.288C324.804 205.199 324.06 206.477 324.075 208.115C324.088 209.391 324.551 210.453 325.461 211.296C325.874 211.688 326.334 211.99 326.846 212.205C326.735 212.527 326.618 212.836 326.493 213.132ZM322.634 197.946C322.634 198.946 322.269 199.88 321.54 200.745C320.661 201.772 319.598 202.366 318.445 202.272C318.431 202.152 318.422 202.026 318.422 201.893C318.422 200.933 318.84 199.905 319.582 199.065C319.953 198.64 320.424 198.286 320.996 198.004C321.566 197.726 322.106 197.572 322.613 197.546C322.628 197.68 322.634 197.813 322.634 197.946V197.946Z" fill="white"/>
<path d="M318 235.546C302.536 235.546 290 223.01 290 207.546H286C286 225.219 300.327 239.546 318 239.546V235.546ZM346 207.546C346 223.01 333.464 235.546 318 235.546V239.546C335.673 239.546 350 225.219 350 207.546H346ZM318 179.546C333.464 179.546 346 192.082 346 207.546H350C350 189.873 335.673 175.546 318 175.546V179.546ZM318 175.546C300.327 175.546 286 189.873 286 207.546H290C290 192.082 302.536 179.546 318 179.546V175.546Z" fill="url(#paint6_linear)"/>
<path d="M392.62 284.01C392.62 267.441 406.052 254.01 422.62 254.01C439.189 254.01 452.62 267.441 452.62 284.01C452.62 300.578 439.189 314.01 422.62 314.01C406.052 314.01 392.62 300.578 392.62 284.01Z" fill="black"/>
<path d="M427.499 281.784L429.158 278.91C429.252 278.749 429.195 278.544 429.036 278.451C428.877 278.357 428.671 278.411 428.579 278.573L426.898 281.483C425.616 280.898 424.172 280.571 422.62 280.571C421.068 280.571 419.624 280.898 418.342 281.483L416.661 278.573C416.567 278.411 416.363 278.357 416.202 278.451C416.041 278.544 415.986 278.749 416.08 278.91L417.739 281.784C414.878 283.334 412.94 286.23 412.62 289.62H432.62C432.3 286.23 430.362 283.334 427.499 281.784H427.499ZM418.028 286.811C417.565 286.811 417.19 286.434 417.19 285.973C417.19 285.509 417.567 285.135 418.028 285.135C418.492 285.135 418.867 285.511 418.867 285.973C418.869 286.434 418.492 286.811 418.028 286.811ZM427.21 286.811C426.746 286.811 426.371 286.434 426.371 285.973C426.371 285.509 426.748 285.135 427.21 285.135C427.673 285.135 428.048 285.511 428.048 285.973C428.05 286.434 427.673 286.811 427.21 286.811Z" fill="#32DE84"/>
<path d="M422.62 312.01C407.156 312.01 394.62 299.474 394.62 284.01H390.62C390.62 301.683 404.947 316.01 422.62 316.01V312.01ZM450.62 284.01C450.62 299.474 438.084 312.01 422.62 312.01V316.01C440.293 316.01 454.62 301.683 454.62 284.01H450.62ZM422.62 256.01C438.084 256.01 450.62 268.546 450.62 284.01H454.62C454.62 266.337 440.293 252.01 422.62 252.01V256.01ZM422.62 252.01C404.947 252.01 390.62 266.337 390.62 284.01H394.62C394.62 268.546 407.156 256.01 422.62 256.01V252.01Z" fill="url(#paint7_linear)"/>
<path d="M352.66 406.99C352.66 390.422 366.092 376.99 382.66 376.99H383.66C400.229 376.99 413.66 390.422 413.66 406.99C413.66 423.559 400.229 436.99 383.66 436.99H382.66C366.092 436.99 352.66 423.559 352.66 406.99Z" fill="black"/>
<path d="M382.652 409.272C383.803 409.272 384.736 408.354 384.736 407.222C384.736 406.09 383.803 405.172 382.652 405.172C381.501 405.172 380.567 406.09 380.567 407.222C380.567 408.354 381.501 409.272 382.652 409.272Z" fill="#61DAFB"/>
<path fill-rule="evenodd" clip-rule="evenodd" d="M372.688 405.958C372.185 406.405 371.977 406.833 371.977 407.222C371.977 407.611 372.185 408.039 372.688 408.486C373.191 408.932 373.947 409.357 374.925 409.725C376.878 410.458 379.609 410.922 382.652 410.922C385.694 410.922 388.426 410.458 390.378 409.725C391.356 409.357 392.112 408.932 392.615 408.486C393.119 408.039 393.327 407.611 393.327 407.222C393.327 406.833 393.119 406.405 392.615 405.958C392.112 405.512 391.356 405.086 390.378 404.719C388.426 403.986 385.694 403.522 382.652 403.522C379.609 403.522 376.878 403.986 374.925 404.719C373.947 405.086 373.191 405.512 372.688 405.958ZM374.562 403.785C376.658 402.998 379.518 402.522 382.652 402.522C385.786 402.522 388.646 402.998 390.741 403.785C391.787 404.178 392.668 404.658 393.297 405.216C393.925 405.774 394.343 406.451 394.343 407.222C394.343 407.993 393.925 408.67 393.297 409.228C392.668 409.786 391.787 410.266 390.741 410.659C388.646 411.446 385.786 411.922 382.652 411.922C379.518 411.922 376.658 411.446 374.562 410.659C373.517 410.266 372.635 409.786 372.007 409.228C371.378 408.67 370.96 407.993 370.96 407.222C370.96 406.451 371.378 405.774 372.007 405.216C372.635 404.658 373.517 404.178 374.562 403.785Z" fill="#61DAFB"/>
<path fill-rule="evenodd" clip-rule="evenodd" d="M378.782 398.103C378.137 397.897 377.657 397.934 377.314 398.129C376.972 398.323 376.699 398.714 376.557 399.366C376.415 400.018 376.419 400.875 376.585 401.892C376.915 403.921 377.873 406.48 379.394 409.072C380.915 411.664 382.69 413.758 384.311 415.055C385.124 415.704 385.876 416.136 386.521 416.341C387.166 416.546 387.647 416.51 387.989 416.315C388.332 416.121 388.604 415.729 388.746 415.078C388.888 414.426 388.884 413.569 388.718 412.552C388.388 410.522 387.431 407.964 385.909 405.372C384.388 402.78 382.614 400.685 380.992 399.389C380.18 398.739 379.427 398.308 378.782 398.103ZM381.633 398.613C383.374 400.004 385.223 402.202 386.79 404.872C388.357 407.541 389.368 410.216 389.722 412.394C389.899 413.481 389.918 414.472 389.74 415.287C389.563 416.101 389.176 416.796 388.497 417.181C387.819 417.566 387.014 417.549 386.208 417.293C385.402 417.036 384.539 416.525 383.67 415.831C381.93 414.44 380.08 412.241 378.513 409.572C376.947 406.902 375.936 404.228 375.581 402.05C375.404 400.963 375.386 399.972 375.563 399.157C375.74 398.342 376.127 397.648 376.806 397.263C377.484 396.877 378.289 396.895 379.095 397.151C379.901 397.408 380.764 397.918 381.633 398.613Z" fill="#61DAFB"/>
<path fill-rule="evenodd" clip-rule="evenodd" d="M388.746 399.366C388.604 398.714 388.332 398.323 387.989 398.129C387.647 397.934 387.166 397.897 386.521 398.103C385.876 398.308 385.124 398.739 384.311 399.389C382.69 400.685 380.915 402.78 379.394 405.372C377.873 407.964 376.915 410.522 376.585 412.552C376.419 413.569 376.415 414.426 376.557 415.078C376.699 415.729 376.972 416.121 377.314 416.315C377.657 416.51 378.137 416.546 378.782 416.341C379.427 416.136 380.18 415.704 380.992 415.055C382.614 413.758 384.388 411.664 385.909 409.072C387.431 406.48 388.388 403.921 388.718 401.892C388.884 400.875 388.888 400.018 388.746 399.366ZM389.722 402.05C389.368 404.228 388.357 406.902 386.79 409.572C385.223 412.241 383.374 414.44 381.633 415.831C380.764 416.525 379.901 417.036 379.095 417.293C378.289 417.549 377.484 417.566 376.806 417.181C376.127 416.796 375.74 416.101 375.563 415.287C375.386 414.472 375.404 413.481 375.581 412.394C375.936 410.216 376.947 407.541 378.513 404.872C380.08 402.202 381.93 400.004 383.67 398.613C384.539 397.918 385.402 397.408 386.208 397.151C387.014 396.895 387.819 396.877 388.497 397.263C389.176 397.648 389.563 398.342 389.74 399.157C389.918 399.972 389.899 400.963 389.722 402.05Z" fill="#61DAFB"/>
<path d="M382.66 378.99H383.66V374.99H382.66V378.99ZM383.66 434.99H382.66V438.99H383.66V434.99ZM382.66 434.99C367.196 434.99 354.66 422.454 354.66 406.99H350.66C350.66 424.663 364.987 438.99 382.66 438.99V434.99ZM411.66 406.99C411.66 422.454 399.124 434.99 383.66 434.99V438.99C401.333 438.99 415.66 424.663 415.66 406.99H411.66ZM383.66 378.99C399.124 378.99 411.66 391.526 411.66 406.99H415.66C415.66 389.317 401.333 374.99 383.66 374.99V378.99ZM382.66 374.99C364.987 374.99 350.66 389.317 350.66 406.99H354.66C354.66 391.526 367.196 378.99 382.66 378.99V374.99Z" fill="url(#paint8_linear)"/>
<path d="M258 317.546C258 284.409 284.863 257.546 318 257.546C351.137 257.546 378 284.409 378 317.546C378 350.683 351.137 377.546 318 377.546C284.863 377.546 258 350.683 258 317.546Z" fill="#2F5BEA"/>
<path fill-rule="evenodd" clip-rule="evenodd" d="M315.143 336.141C313.582 336.141 312.118 335.723 310.857 334.993C309.596 335.723 308.133 336.141 306.571 336.141C301.838 336.141 298 332.299 298 327.559V313.255C298 310.096 300.558 307.534 303.714 307.534C306.87 307.534 309.429 310.096 309.429 313.255V327.559C309.429 329.01 309.968 330.335 310.857 331.343C311.746 330.335 312.286 329.01 312.286 327.559V307.534C312.286 302.794 316.123 298.952 320.857 298.952C322.418 298.952 323.882 299.37 325.143 300.1C326.404 299.37 327.867 298.952 329.429 298.952C334.162 298.952 338 302.794 338 307.534V321.838C338 324.997 335.442 327.559 332.286 327.559C329.13 327.559 326.571 324.997 326.571 321.838V307.534C326.571 306.083 326.032 304.758 325.143 303.75C324.254 304.758 323.714 306.083 323.714 307.534V327.559C323.714 332.299 319.877 336.141 315.143 336.141ZM300.857 313.255V327.559C300.857 330.719 303.416 333.28 306.571 333.28C307.24 333.28 307.881 333.166 308.477 332.955C307.285 331.48 306.571 329.603 306.571 327.559L306.571 313.255C306.571 311.676 305.292 310.395 303.714 310.395C302.136 310.395 300.857 311.676 300.857 313.255ZM329.429 307.534C329.429 305.49 328.715 303.613 327.523 302.138C328.119 301.927 328.76 301.813 329.429 301.813C332.584 301.813 335.143 304.374 335.143 307.534V321.838C335.143 323.417 333.864 324.698 332.286 324.698C330.708 324.698 329.429 323.417 329.429 321.838L329.429 307.534ZM320.857 301.813C321.525 301.813 322.167 301.927 322.763 302.138C321.571 303.613 320.857 305.49 320.857 307.534V327.559C320.857 330.719 318.299 333.28 315.143 333.28C314.475 333.28 313.833 333.166 313.237 332.955C314.429 331.48 315.143 329.603 315.143 327.559V307.534C315.143 304.374 317.701 301.813 320.857 301.813Z" fill="#61FAE9"/>
<defs>
<linearGradient id="paint0_linear" x1="208" y1="317.546" x2="428" y2="317.546" gradientUnits="userSpaceOnUse">
<stop stop-color="#61FAE9"/>
<stop offset="1" stop-color="#2F5BEA"/>
</linearGradient>
<linearGradient id="paint1_linear" x1="243.645" y1="397.102" x2="254.422" y2="406.439" gradientUnits="userSpaceOnUse">
<stop stop-color="#5A9FD4"/>
<stop offset="1" stop-color="#306998"/>
</linearGradient>
<linearGradient id="paint2_linear" x1="256.008" y1="414.064" x2="252.172" y2="408.599" gradientUnits="userSpaceOnUse">
<stop stop-color="#FFD43B"/>
<stop offset="1" stop-color="#FFE873"/>
</linearGradient>
<linearGradient id="paint3_linear" x1="223.34" y1="406.99" x2="284.34" y2="406.99" gradientUnits="userSpaceOnUse">
<stop stop-color="#61FAE9"/>
<stop offset="1" stop-color="#2F5BEA"/>
</linearGradient>
<linearGradient id="paint4_linear" x1="211.655" y1="293.335" x2="214.793" y2="275.875" gradientUnits="userSpaceOnUse">
<stop offset="0.57" stop-color="#3E863D"/>
<stop offset="0.72" stop-color="#619857"/>
<stop offset="1" stop-color="#76AC64"/>
</linearGradient>
<linearGradient id="paint5_linear" x1="183.38" y1="284.51" x2="242.38" y2="284.51" gradientUnits="userSpaceOnUse">
<stop stop-color="#61FAE9"/>
<stop offset="1" stop-color="#2F5BEA"/>
</linearGradient>
<linearGradient id="paint6_linear" x1="288" y1="207.546" x2="348" y2="207.546" gradientUnits="userSpaceOnUse">
<stop stop-color="#61FAE9"/>
<stop offset="1" stop-color="#2F5BEA"/>
</linearGradient>
<linearGradient id="paint7_linear" x1="392.62" y1="284.01" x2="452.62" y2="284.01" gradientUnits="userSpaceOnUse">
<stop stop-color="#61FAE9"/>
<stop offset="1" stop-color="#2F5BEA"/>
</linearGradient>
<linearGradient id="paint8_linear" x1="352.66" y1="406.99" x2="413.66" y2="406.99" gradientUnits="userSpaceOnUse">
<stop stop-color="#61FAE9"/>
<stop offset="1" stop-color="#2F5BEA"/>
</linearGradient>
<clipPath id="clip0">
<rect width="21.35" height="20" fill="white" transform="translate(242.656 396.99)"/>
</clipPath>
</defs>
</svg>
