<svg width="636" height="636" viewBox="0 0 636 636" fill="none" xmlns="http://www.w3.org/2000/svg">
<path fill-rule="evenodd" clip-rule="evenodd" d="M338 1.76213C376.792 -2.90511 414.106 14.6147 452.221 23.2084C494.561 32.7549 543.292 28.5558 577.171 55.6875C610.826 82.6404 635.137 126.822 635.439 169.939C635.763 216.31 590.349 250.804 578.848 295.728C571.248 325.415 578.269 356.272 579.902 386.873C582.089 427.851 609.216 472.134 590.201 508.499C572.366 542.606 520.855 540.279 488.658 561.368C455.662 582.98 436.2 628.8 397.229 634.893C357.934 641.036 325.44 601.562 286.61 592.955C249.114 584.643 206.853 602.562 172.642 585.108C138.623 567.753 124.475 527.093 100.017 497.762C74.622 467.309 41.0804 443.238 24.3558 407.285C6.99198 369.958 -3.75925 327.677 1.92884 286.904C7.59234 246.307 32.1675 210.893 56.369 177.81C78.9326 146.966 107.936 122.04 138.91 99.6548C168.196 78.4894 201.527 65.4133 233.953 49.4693C268.486 32.4893 299.793 6.35895 338 1.76213Z" fill="#D6EAFF"/>
<path d="M318 208.046L318.064 317.957L422.616 284.054M318 208.046L317.935 317.957L213.383 284.054M318 208.046L409.106 192.648L422.616 284.054M318 208.046L227.969 194.004M422.616 284.054L318.104 318.08L382.656 407.038M422.616 284.054L465.413 365.944L382.656 407.038M382.656 407.038L318 318.156L253.343 407.038M382.656 407.038L318 473.046L253.343 407.038M253.343 407.038L317.895 318.08L213.383 284.054M253.343 407.038L170.586 365.944L213.383 284.054M213.383 284.054L227.969 194.004M228 123.046L227.978 193.978L227.969 194.004M160.475 172.106L227.942 194.004L227.969 194.004" stroke="url(#paint0_linear)" stroke-width="2" stroke-linecap="round" stroke-linejoin="round" stroke-dasharray="10 10"/>
<rect x="130.47" y="142.11" width="60" height="60" rx="30" fill="#3AB795"/>
<path d="M151.174 165.649L152.322 159.579H154.074L152.182 168.11H150.412L149.023 162.403L147.635 168.11H145.865L143.973 159.579H145.725L146.879 165.637L148.285 159.579H149.773L151.174 165.649Z" fill="#2C363F"/>
<path d="M159.828 166.352H156.746L156.16 168.11H154.291L157.467 159.579H159.095L162.289 168.11H160.42L159.828 166.352ZM157.22 164.928H159.353L158.281 161.735L157.22 164.928Z" fill="#2C363F"/>
<path d="M165.998 164.688L165.084 165.672V168.11H163.326V159.579H165.084V163.446L165.857 162.385L168.031 159.579H170.193L167.164 163.37L170.281 168.11H168.189L165.998 164.688Z" fill="#2C363F"/>
<path d="M176.316 164.413H172.941V166.698H176.902V168.11H171.183V159.579H176.89V161.002H172.941V163.036H176.316V164.413Z" fill="#2C363F"/>
<path d="M150.389 182.649L151.537 176.579H153.289L151.396 185.11H149.627L148.238 179.403L146.85 185.11H145.08L143.188 176.579H144.939L146.094 182.637L147.5 176.579H148.988L150.389 182.649Z" fill="#2C363F"/>
<path d="M161.492 181.038C161.492 181.877 161.344 182.614 161.047 183.247C160.75 183.879 160.324 184.368 159.769 184.711C159.219 185.055 158.586 185.227 157.871 185.227C157.164 185.227 156.533 185.057 155.978 184.717C155.424 184.377 154.994 183.893 154.689 183.264C154.385 182.631 154.23 181.905 154.226 181.084V180.663C154.226 179.823 154.377 179.084 154.677 178.448C154.982 177.807 155.41 177.317 155.961 176.977C156.515 176.633 157.148 176.461 157.859 176.461C158.57 176.461 159.201 176.633 159.752 176.977C160.306 177.317 160.734 177.807 161.035 178.448C161.34 179.084 161.492 179.821 161.492 180.657V181.038ZM159.711 180.651C159.711 179.756 159.551 179.077 159.23 178.612C158.91 178.147 158.453 177.915 157.859 177.915C157.269 177.915 156.814 178.145 156.494 178.606C156.174 179.063 156.011 179.735 156.008 180.622V181.038C156.008 181.909 156.168 182.584 156.488 183.065C156.808 183.545 157.269 183.786 157.871 183.786C158.461 183.786 158.914 183.555 159.23 183.094C159.547 182.629 159.707 181.954 159.711 181.067V180.651Z" fill="#2C363F"/>
<path d="M166.167 181.987H164.767V185.11H163.009V176.579H166.179C167.187 176.579 167.964 176.803 168.511 177.252C169.058 177.702 169.332 178.336 169.332 179.157C169.332 179.739 169.205 180.225 168.951 180.616C168.701 181.002 168.32 181.311 167.808 181.542L169.654 185.028V185.11H167.767L166.167 181.987ZM164.767 180.563H166.185C166.626 180.563 166.968 180.452 167.21 180.229C167.453 180.002 167.574 179.692 167.574 179.297C167.574 178.895 167.459 178.579 167.228 178.348C167.001 178.118 166.652 178.002 166.179 178.002H164.767V180.563Z" fill="#2C363F"/>
<path d="M170.913 185.11V176.579H173.538C174.288 176.579 174.958 176.749 175.548 177.088C176.142 177.424 176.605 177.905 176.937 178.53C177.269 179.151 177.435 179.858 177.435 180.651V181.043C177.435 181.836 177.271 182.542 176.943 183.159C176.618 183.776 176.159 184.254 175.566 184.594C174.972 184.934 174.302 185.106 173.556 185.11H170.913ZM172.671 178.002V183.698H173.521C174.208 183.698 174.734 183.473 175.097 183.024C175.46 182.575 175.646 181.932 175.654 181.096V180.645C175.654 179.778 175.474 179.122 175.115 178.676C174.755 178.227 174.23 178.002 173.538 178.002H172.671Z" fill="#2C363F"/>
<rect x="198" y="93.0498" width="60" height="60" rx="30" fill="#FF6666"/>
<path d="M208.981 123.983L208.296 124.722V126.55H206.978V120.151H208.296V123.052L208.876 122.256L210.506 120.151H212.128L209.856 122.995L212.194 126.55H210.625L208.981 123.983Z" fill="#2C363F"/>
<path d="M216.72 123.777H214.189V125.491H217.159V126.55H212.87V120.151H217.151V121.219H214.189V122.744H216.72V123.777Z" fill="#2C363F"/>
<path d="M220.319 123.034L221.651 120.151H223.092L220.991 124.229V126.55H219.651V124.229L217.55 120.151H218.996L220.319 123.034Z" fill="#2C363F"/>
<path d="M228.919 124.704L229.78 120.151H231.094L229.675 126.55H228.348L227.306 122.27L226.265 126.55H224.937L223.518 120.151H224.832L225.698 124.695L226.752 120.151H227.869L228.919 124.704Z" fill="#2C363F"/>
<path d="M237.246 123.496C237.246 124.125 237.135 124.678 236.912 125.152C236.69 125.627 236.37 125.993 235.954 126.251C235.541 126.509 235.067 126.638 234.531 126.638C234 126.638 233.527 126.51 233.111 126.255C232.695 126 232.373 125.637 232.144 125.166C231.916 124.691 231.8 124.146 231.797 123.531V123.214C231.797 122.584 231.91 122.031 232.136 121.553C232.364 121.073 232.685 120.705 233.098 120.45C233.514 120.192 233.989 120.063 234.522 120.063C235.055 120.063 235.528 120.192 235.941 120.45C236.357 120.705 236.678 121.073 236.904 121.553C237.132 122.031 237.246 122.583 237.246 123.21V123.496ZM235.91 123.206C235.91 122.535 235.79 122.025 235.55 121.676C235.31 121.328 234.967 121.153 234.522 121.153C234.079 121.153 233.738 121.326 233.498 121.672C233.258 122.015 233.136 122.519 233.133 123.184V123.496C233.133 124.149 233.253 124.656 233.493 125.016C233.734 125.376 234.079 125.557 234.531 125.557C234.973 125.557 235.313 125.384 235.55 125.038C235.787 124.689 235.907 124.183 235.91 123.518V123.206Z" fill="#2C363F"/>
<path d="M240.753 124.208H239.703V126.55H238.384V120.151H240.762C241.518 120.151 242.101 120.32 242.511 120.657C242.921 120.994 243.126 121.47 243.126 122.085C243.126 122.521 243.031 122.886 242.84 123.179C242.653 123.469 242.367 123.701 241.983 123.874L243.368 126.488V126.55H241.953L240.753 124.208ZM239.703 123.14H240.766C241.097 123.14 241.354 123.056 241.535 122.889C241.717 122.719 241.808 122.486 241.808 122.19C241.808 121.889 241.721 121.651 241.548 121.479C241.379 121.306 241.116 121.219 240.762 121.219H239.703V123.14Z" fill="#2C363F"/>
<path d="M244.312 126.55V120.151H246.281C246.844 120.151 247.346 120.279 247.788 120.534C248.234 120.786 248.581 121.146 248.83 121.615C249.079 122.081 249.204 122.611 249.204 123.206V123.5C249.204 124.095 249.08 124.624 248.834 125.086C248.591 125.549 248.247 125.908 247.802 126.163C247.356 126.418 246.854 126.547 246.294 126.55H244.312ZM245.631 121.219V125.491H246.268C246.784 125.491 247.178 125.322 247.45 124.985C247.723 124.648 247.862 124.167 247.868 123.54V123.201C247.868 122.551 247.733 122.059 247.463 121.725C247.194 121.388 246.8 121.219 246.281 121.219H245.631Z" fill="#2C363F"/>
<rect x="288" y="443.046" width="60" height="60" rx="30" fill="#F29E4C"/>
<path d="M312.138 479.546H309.501L304.368 471.126V479.546H301.731V466.749H304.368L309.51 475.187V466.749H312.138V479.546Z" fill="#2C363F"/>
<path d="M317.437 477.428H323.036V479.546H314.8V466.749H317.437V477.428Z" fill="#2C363F"/>
<path d="M334.391 466.749V475.178C334.391 476.578 333.951 477.686 333.073 478.5C332.199 479.314 331.004 479.722 329.487 479.722C327.992 479.722 326.806 479.326 325.927 478.535C325.048 477.744 324.6 476.657 324.582 475.274V466.749H327.219V475.195C327.219 476.033 327.418 476.646 327.817 477.032C328.221 477.413 328.778 477.604 329.487 477.604C330.969 477.604 331.722 476.824 331.745 475.266V466.749H334.391Z" fill="#2C363F"/>
<rect x="140.59" y="335.94" width="60" height="60" rx="30" fill="#C490D1"/>
<path d="M161.256 369.803H156.633L155.754 372.44H152.95L157.714 359.643H160.157L164.947 372.44H162.144L161.256 369.803ZM157.345 367.667H160.544L158.936 362.877L157.345 367.667Z" fill="#2C363F"/>
<path d="M173.138 369.083C173.138 368.584 172.963 368.204 172.611 367.94C172.259 367.67 171.627 367.389 170.713 367.096C169.798 366.797 169.075 366.504 168.542 366.217C167.089 365.432 166.362 364.375 166.362 363.044C166.362 362.353 166.555 361.738 166.942 361.199C167.335 360.654 167.894 360.229 168.621 359.924C169.353 359.62 170.173 359.467 171.082 359.467C171.996 359.467 172.81 359.634 173.525 359.968C174.24 360.296 174.794 360.762 175.186 361.366C175.585 361.969 175.784 362.655 175.784 363.422H173.147C173.147 362.836 172.963 362.382 172.593 362.06C172.224 361.732 171.706 361.568 171.038 361.568C170.393 361.568 169.892 361.706 169.535 361.981C169.177 362.25 168.999 362.608 168.999 363.053C168.999 363.469 169.207 363.818 169.623 364.099C170.045 364.38 170.663 364.644 171.477 364.89C172.977 365.341 174.07 365.901 174.756 366.569C175.441 367.237 175.784 368.069 175.784 369.065C175.784 370.172 175.365 371.042 174.527 371.675C173.689 372.302 172.561 372.616 171.143 372.616C170.159 372.616 169.262 372.437 168.454 372.08C167.645 371.716 167.027 371.221 166.599 370.594C166.177 369.967 165.966 369.241 165.966 368.415H168.612C168.612 369.827 169.456 370.533 171.143 370.533C171.77 370.533 172.259 370.407 172.611 370.155C172.963 369.897 173.138 369.54 173.138 369.083Z" fill="#2C363F"/>
<path d="M182.674 367.755H180.574V372.44H177.937V359.643H182.692C184.203 359.643 185.369 359.98 186.19 360.654C187.01 361.328 187.42 362.28 187.42 363.51C187.42 364.383 187.23 365.113 186.849 365.699C186.474 366.279 185.903 366.742 185.135 367.087L187.904 372.317V372.44H185.074L182.674 367.755ZM180.574 365.62H182.7C183.363 365.62 183.875 365.453 184.239 365.119C184.602 364.779 184.783 364.313 184.783 363.721C184.783 363.118 184.611 362.643 184.265 362.297C183.925 361.952 183.401 361.779 182.692 361.779H180.574V365.62Z" fill="#2C363F"/>
<rect x="435.41" y="335.94" width="60" height="60" rx="30" fill="#A4036F"/>
<path d="M453.457 369.267L456.357 359.643H459.293L454.837 372.44H452.086L447.647 359.643H450.574L453.457 369.267Z" fill="white"/>
<path d="M467.423 369.803H462.799L461.921 372.44H459.117L463.881 359.643H466.324L471.114 372.44H468.31L467.423 369.803ZM463.511 367.667H466.711L465.102 362.877L463.511 367.667Z" fill="white"/>
<path d="M472.669 372.44V359.643H476.607C477.732 359.643 478.737 359.898 479.621 360.408C480.512 360.912 481.206 361.632 481.704 362.57C482.202 363.501 482.451 364.562 482.451 365.751V366.34C482.451 367.53 482.205 368.587 481.713 369.513C481.227 370.439 480.538 371.157 479.648 371.667C478.757 372.176 477.752 372.434 476.633 372.44H472.669ZM475.306 361.779V370.322H476.58C477.612 370.322 478.4 369.985 478.945 369.311C479.49 368.637 479.768 367.673 479.78 366.419V365.743C479.78 364.442 479.51 363.458 478.971 362.79C478.432 362.116 477.644 361.779 476.607 361.779H475.306Z" fill="white"/>
<rect x="379.109" y="162.65" width="60" height="60" rx="30" fill="#FACC5F"/>
<path d="M402.843 188.489H398.923V199.15H396.286V188.489H392.419V186.353H402.843V188.489Z" fill="#2C363F"/>
<path d="M414.488 188.489H410.568V199.15H407.931V188.489H404.064V186.353H414.488V188.489Z" fill="#2C363F"/>
<path d="M422.855 195.792C422.855 195.294 422.679 194.914 422.327 194.65C421.976 194.38 421.343 194.099 420.429 193.806C419.515 193.507 418.791 193.214 418.258 192.927C416.805 192.142 416.078 191.084 416.078 189.754C416.078 189.063 416.272 188.448 416.658 187.909C417.051 187.364 417.611 186.939 418.337 186.634C419.07 186.33 419.89 186.177 420.798 186.177C421.712 186.177 422.527 186.344 423.241 186.678C423.956 187.006 424.51 187.472 424.903 188.076C425.301 188.679 425.5 189.365 425.5 190.132H422.864C422.864 189.546 422.679 189.092 422.31 188.77C421.941 188.442 421.422 188.278 420.754 188.278C420.11 188.278 419.609 188.416 419.251 188.691C418.894 188.96 418.715 189.318 418.715 189.763C418.715 190.179 418.923 190.528 419.339 190.809C419.761 191.09 420.379 191.354 421.194 191.6C422.694 192.051 423.786 192.611 424.472 193.279C425.158 193.947 425.5 194.779 425.5 195.775C425.5 196.882 425.081 197.752 424.243 198.385C423.406 199.012 422.278 199.326 420.86 199.326C419.875 199.326 418.979 199.147 418.17 198.79C417.362 198.426 416.743 197.931 416.316 197.304C415.894 196.677 415.683 195.951 415.683 195.125H418.328C418.328 196.537 419.172 197.243 420.86 197.243C421.487 197.243 421.976 197.117 422.327 196.865C422.679 196.607 422.855 196.25 422.855 195.792Z" fill="#2C363F"/>
<path d="M223.34 407.49C223.34 390.922 236.771 377.49 253.34 377.49H254.34C270.908 377.49 284.34 390.922 284.34 407.49C284.34 424.059 270.908 437.49 254.34 437.49H253.34C236.771 437.49 223.34 424.059 223.34 407.49Z" fill="black"/>
<g clip-path="url(#clip0)">
<path d="M253.353 397.602C252.543 397.606 251.769 397.674 251.088 397.792C249.082 398.141 248.718 398.87 248.718 400.216V401.993H253.458V402.585H248.718H246.939C245.562 402.585 244.356 403.399 243.978 404.949C243.543 406.725 243.524 407.833 243.978 409.687C244.315 411.067 245.12 412.051 246.497 412.051H248.127V409.921C248.127 408.382 249.481 407.024 251.088 407.024H255.823C257.14 407.024 258.192 405.957 258.192 404.655V400.216C258.192 398.952 257.109 398.003 255.823 397.792C255.008 397.659 254.163 397.599 253.353 397.602ZM250.79 399.031C251.279 399.031 251.679 399.431 251.679 399.922C251.679 400.412 251.279 400.808 250.79 400.808C250.298 400.808 249.9 400.412 249.9 399.922C249.9 399.431 250.298 399.031 250.79 399.031Z" fill="url(#paint1_linear)"/>
<path d="M258.784 402.585V404.655C258.784 406.26 257.401 407.611 255.823 407.611H251.089C249.792 407.611 248.719 408.703 248.719 409.98V414.42C248.719 415.683 249.836 416.427 251.089 416.789C252.589 417.223 254.028 417.301 255.823 416.789C257.016 416.449 258.193 415.765 258.193 414.42V412.643H253.459V412.051H258.193H260.563C261.941 412.051 262.454 411.106 262.933 409.687C263.428 408.227 263.407 406.822 262.933 404.949C262.593 403.6 261.942 402.585 260.563 402.585H258.784ZM256.121 413.828C256.613 413.828 257.011 414.224 257.011 414.713C257.011 415.205 256.613 415.604 256.121 415.604C255.632 415.604 255.232 415.205 255.232 414.713C255.232 414.224 255.632 413.828 256.121 413.828Z" fill="url(#paint2_linear)"/>
</g>
<path d="M253.34 379.49H254.34V375.49H253.34V379.49ZM254.34 435.49H253.34V439.49H254.34V435.49ZM253.34 435.49C237.876 435.49 225.34 422.954 225.34 407.49H221.34C221.34 425.163 235.667 439.49 253.34 439.49V435.49ZM282.34 407.49C282.34 422.954 269.804 435.49 254.34 435.49V439.49C272.013 439.49 286.34 425.163 286.34 407.49H282.34ZM254.34 379.49C269.804 379.49 282.34 392.026 282.34 407.49H286.34C286.34 389.817 272.013 375.49 254.34 375.49V379.49ZM253.34 375.49C235.667 375.49 221.34 389.817 221.34 407.49H225.34C225.34 392.026 237.876 379.49 253.34 379.49V375.49Z" fill="url(#paint3_linear)"/>
<path d="M183.38 284.01C183.38 267.717 196.587 254.51 212.88 254.51C229.172 254.51 242.38 267.717 242.38 284.01V286.01C242.38 302.302 229.172 315.51 212.88 315.51C196.587 315.51 183.38 302.302 183.38 286.01V284.01Z" fill="black"/>
<path fill-rule="evenodd" clip-rule="evenodd" d="M212.211 274.973C212.495 274.8 212.852 274.8 213.14 274.973L220.851 279.572C221.139 279.745 221.316 280.063 221.316 280.406V289.614C221.316 289.957 221.139 290.275 220.851 290.447L213.14 295.046C212.852 295.22 212.495 295.22 212.211 295.046L204.505 290.447C204.21 290.275 204.03 289.957 204.03 289.614V280.406C204.03 280.063 204.201 279.745 204.495 279.572L212.211 274.973Z" fill="url(#paint4_linear)"/>
<path d="M240.38 284.01V286.01H244.38V284.01H240.38ZM185.38 286.01V284.01H181.38V286.01H185.38ZM212.88 313.51C197.692 313.51 185.38 301.198 185.38 286.01H181.38C181.38 303.407 195.483 317.51 212.88 317.51V313.51ZM240.38 286.01C240.38 301.198 228.068 313.51 212.88 313.51V317.51C230.277 317.51 244.38 303.407 244.38 286.01H240.38ZM212.88 256.51C228.068 256.51 240.38 268.822 240.38 284.01H244.38C244.38 266.613 230.277 252.51 212.88 252.51V256.51ZM212.88 252.51C195.483 252.51 181.38 266.613 181.38 284.01H185.38C185.38 268.822 197.692 256.51 212.88 256.51V252.51Z" fill="url(#paint5_linear)"/>
<path d="M288 208.046C288 191.477 301.431 178.046 318 178.046C334.569 178.046 348 191.477 348 208.046C348 224.614 334.569 238.046 318 238.046C301.431 238.046 288 224.614 288 208.046Z" fill="black"/>
<path d="M326.493 213.632C326.191 214.331 325.833 214.974 325.418 215.565C324.853 216.371 324.39 216.929 324.033 217.239C323.48 217.748 322.887 218.008 322.253 218.023C321.797 218.023 321.248 217.894 320.608 217.631C319.967 217.369 319.377 217.239 318.838 217.239C318.273 217.239 317.666 217.369 317.018 217.631C316.368 217.894 315.845 218.031 315.445 218.044C314.836 218.07 314.23 217.802 313.624 217.239C313.238 216.902 312.754 216.324 312.175 215.506C311.554 214.632 311.043 213.618 310.643 212.463C310.215 211.215 310 210.006 310 208.836C310 207.496 310.29 206.34 310.87 205.371C311.326 204.593 311.932 203.979 312.691 203.528C313.45 203.078 314.271 202.848 315.154 202.834C315.637 202.834 316.271 202.983 317.059 203.277C317.844 203.572 318.348 203.721 318.569 203.721C318.735 203.721 319.295 203.546 320.245 203.198C321.143 202.875 321.901 202.741 322.522 202.794C324.205 202.929 325.469 203.593 326.309 204.788C324.804 205.699 324.06 206.977 324.075 208.615C324.088 209.891 324.551 210.953 325.461 211.796C325.874 212.188 326.334 212.49 326.846 212.705C326.735 213.027 326.618 213.336 326.493 213.632ZM322.634 198.446C322.634 199.446 322.269 200.38 321.54 201.245C320.661 202.272 319.598 202.866 318.445 202.772C318.431 202.652 318.422 202.526 318.422 202.393C318.422 201.433 318.84 200.405 319.582 199.565C319.953 199.14 320.424 198.786 320.996 198.504C321.566 198.226 322.106 198.072 322.613 198.046C322.628 198.18 322.634 198.313 322.634 198.446V198.446Z" fill="white"/>
<path d="M318 236.046C302.536 236.046 290 223.51 290 208.046H286C286 225.719 300.327 240.046 318 240.046V236.046ZM346 208.046C346 223.51 333.464 236.046 318 236.046V240.046C335.673 240.046 350 225.719 350 208.046H346ZM318 180.046C333.464 180.046 346 192.582 346 208.046H350C350 190.373 335.673 176.046 318 176.046V180.046ZM318 176.046C300.327 176.046 286 190.373 286 208.046H290C290 192.582 302.536 180.046 318 180.046V176.046Z" fill="url(#paint6_linear)"/>
<path d="M392.62 284.51C392.62 267.941 406.052 254.51 422.62 254.51C439.189 254.51 452.62 267.941 452.62 284.51C452.62 301.078 439.189 314.51 422.62 314.51C406.052 314.51 392.62 301.078 392.62 284.51Z" fill="black"/>
<path d="M427.499 282.284L429.158 279.41C429.252 279.249 429.195 279.044 429.036 278.951C428.877 278.857 428.671 278.911 428.579 279.073L426.898 281.983C425.616 281.398 424.172 281.071 422.62 281.071C421.068 281.071 419.624 281.398 418.342 281.983L416.661 279.073C416.567 278.911 416.363 278.857 416.202 278.951C416.041 279.044 415.986 279.249 416.08 279.41L417.739 282.284C414.878 283.834 412.94 286.73 412.62 290.12H432.62C432.3 286.73 430.362 283.834 427.499 282.284H427.499ZM418.028 287.311C417.565 287.311 417.19 286.934 417.19 286.473C417.19 286.009 417.567 285.635 418.028 285.635C418.492 285.635 418.867 286.011 418.867 286.473C418.869 286.934 418.492 287.311 418.028 287.311ZM427.21 287.311C426.746 287.311 426.371 286.934 426.371 286.473C426.371 286.009 426.748 285.635 427.21 285.635C427.673 285.635 428.048 286.011 428.048 286.473C428.05 286.934 427.673 287.311 427.21 287.311Z" fill="#32DE84"/>
<path d="M422.62 312.51C407.156 312.51 394.62 299.974 394.62 284.51H390.62C390.62 302.183 404.947 316.51 422.62 316.51V312.51ZM450.62 284.51C450.62 299.974 438.084 312.51 422.62 312.51V316.51C440.293 316.51 454.62 302.183 454.62 284.51H450.62ZM422.62 256.51C438.084 256.51 450.62 269.046 450.62 284.51H454.62C454.62 266.837 440.293 252.51 422.62 252.51V256.51ZM422.62 252.51C404.947 252.51 390.62 266.837 390.62 284.51H394.62C394.62 269.046 407.156 256.51 422.62 256.51V252.51Z" fill="url(#paint7_linear)"/>
<path d="M352.66 407.49C352.66 390.922 366.092 377.49 382.66 377.49H383.66C400.229 377.49 413.66 390.922 413.66 407.49C413.66 424.059 400.229 437.49 383.66 437.49H382.66C366.092 437.49 352.66 424.059 352.66 407.49Z" fill="black"/>
<path d="M382.652 409.772C383.803 409.772 384.736 408.854 384.736 407.722C384.736 406.59 383.803 405.672 382.652 405.672C381.501 405.672 380.567 406.59 380.567 407.722C380.567 408.854 381.501 409.772 382.652 409.772Z" fill="#61DAFB"/>
<path fill-rule="evenodd" clip-rule="evenodd" d="M372.688 406.458C372.185 406.905 371.977 407.333 371.977 407.722C371.977 408.111 372.185 408.539 372.688 408.986C373.191 409.432 373.947 409.857 374.925 410.225C376.878 410.958 379.609 411.422 382.652 411.422C385.694 411.422 388.426 410.958 390.378 410.225C391.356 409.857 392.112 409.432 392.615 408.986C393.119 408.539 393.327 408.111 393.327 407.722C393.327 407.333 393.119 406.905 392.615 406.458C392.112 406.012 391.356 405.586 390.378 405.219C388.426 404.486 385.694 404.022 382.652 404.022C379.609 404.022 376.878 404.486 374.925 405.219C373.947 405.586 373.191 406.012 372.688 406.458ZM374.562 404.285C376.658 403.498 379.518 403.022 382.652 403.022C385.786 403.022 388.646 403.498 390.741 404.285C391.787 404.678 392.668 405.158 393.297 405.716C393.925 406.274 394.343 406.951 394.343 407.722C394.343 408.493 393.925 409.17 393.297 409.728C392.668 410.286 391.787 410.766 390.741 411.159C388.646 411.946 385.786 412.422 382.652 412.422C379.518 412.422 376.658 411.946 374.562 411.159C373.517 410.766 372.635 410.286 372.007 409.728C371.378 409.17 370.96 408.493 370.96 407.722C370.96 406.951 371.378 406.274 372.007 405.716C372.635 405.158 373.517 404.678 374.562 404.285Z" fill="#61DAFB"/>
<path fill-rule="evenodd" clip-rule="evenodd" d="M378.782 398.603C378.137 398.397 377.657 398.434 377.314 398.629C376.972 398.823 376.699 399.214 376.557 399.866C376.415 400.518 376.419 401.375 376.585 402.392C376.915 404.421 377.873 406.98 379.394 409.572C380.915 412.164 382.69 414.258 384.311 415.555C385.124 416.204 385.876 416.636 386.521 416.841C387.166 417.046 387.647 417.01 387.989 416.815C388.332 416.621 388.604 416.229 388.746 415.578C388.888 414.926 388.884 414.069 388.718 413.052C388.388 411.022 387.431 408.464 385.909 405.872C384.388 403.28 382.614 401.185 380.992 399.889C380.18 399.239 379.427 398.808 378.782 398.603ZM381.633 399.113C383.374 400.504 385.223 402.702 386.79 405.372C388.357 408.041 389.368 410.716 389.722 412.894C389.899 413.981 389.918 414.972 389.74 415.787C389.563 416.601 389.176 417.296 388.497 417.681C387.819 418.066 387.014 418.049 386.208 417.793C385.402 417.536 384.539 417.025 383.67 416.331C381.93 414.94 380.08 412.741 378.513 410.072C376.947 407.402 375.936 404.728 375.581 402.55C375.404 401.463 375.386 400.472 375.563 399.657C375.74 398.842 376.127 398.148 376.806 397.763C377.484 397.377 378.289 397.395 379.095 397.651C379.901 397.908 380.764 398.418 381.633 399.113Z" fill="#61DAFB"/>
<path fill-rule="evenodd" clip-rule="evenodd" d="M388.746 399.866C388.604 399.214 388.332 398.823 387.989 398.629C387.647 398.434 387.166 398.397 386.521 398.603C385.876 398.808 385.124 399.239 384.311 399.889C382.69 401.185 380.915 403.28 379.394 405.872C377.873 408.464 376.915 411.022 376.585 413.052C376.419 414.069 376.415 414.926 376.557 415.578C376.699 416.229 376.972 416.621 377.314 416.815C377.657 417.01 378.137 417.046 378.782 416.841C379.427 416.636 380.18 416.204 380.992 415.555C382.614 414.258 384.388 412.164 385.909 409.572C387.431 406.98 388.388 404.421 388.718 402.392C388.884 401.375 388.888 400.518 388.746 399.866ZM389.722 402.55C389.368 404.728 388.357 407.402 386.79 410.072C385.223 412.741 383.374 414.94 381.633 416.331C380.764 417.025 379.901 417.536 379.095 417.793C378.289 418.049 377.484 418.066 376.806 417.681C376.127 417.296 375.74 416.601 375.563 415.787C375.386 414.972 375.404 413.981 375.581 412.894C375.936 410.716 376.947 408.041 378.513 405.372C380.08 402.702 381.93 400.504 383.67 399.113C384.539 398.418 385.402 397.908 386.208 397.651C387.014 397.395 387.819 397.377 388.497 397.763C389.176 398.148 389.563 398.842 389.74 399.657C389.918 400.472 389.899 401.463 389.722 402.55Z" fill="#61DAFB"/>
<path d="M382.66 379.49H383.66V375.49H382.66V379.49ZM383.66 435.49H382.66V439.49H383.66V435.49ZM382.66 435.49C367.196 435.49 354.66 422.954 354.66 407.49H350.66C350.66 425.163 364.987 439.49 382.66 439.49V435.49ZM411.66 407.49C411.66 422.954 399.124 435.49 383.66 435.49V439.49C401.333 439.49 415.66 425.163 415.66 407.49H411.66ZM383.66 379.49C399.124 379.49 411.66 392.026 411.66 407.49H415.66C415.66 389.817 401.333 375.49 383.66 375.49V379.49ZM382.66 375.49C364.987 375.49 350.66 389.817 350.66 407.49H354.66C354.66 392.026 367.196 379.49 382.66 379.49V375.49Z" fill="url(#paint8_linear)"/>
<path d="M258 318.046C258 284.909 284.863 258.046 318 258.046C351.137 258.046 378 284.909 378 318.046C378 351.183 351.137 378.046 318 378.046C284.863 378.046 258 351.183 258 318.046Z" fill="#2F5BEA"/>
<path fill-rule="evenodd" clip-rule="evenodd" d="M315.143 336.641C313.582 336.641 312.118 336.223 310.857 335.493C309.596 336.223 308.133 336.641 306.571 336.641C301.838 336.641 298 332.799 298 328.059V313.755C298 310.595 300.558 308.034 303.714 308.034C306.87 308.034 309.429 310.595 309.429 313.755V328.059C309.429 329.51 309.968 330.835 310.857 331.843C311.746 330.835 312.286 329.51 312.286 328.059V308.034C312.286 303.294 316.123 299.452 320.857 299.452C322.418 299.452 323.882 299.87 325.143 300.6C326.404 299.87 327.867 299.452 329.429 299.452C334.162 299.452 338 303.294 338 308.034V322.337C338 325.497 335.442 328.059 332.286 328.059C329.13 328.059 326.571 325.497 326.571 322.337V308.034C326.571 306.583 326.032 305.258 325.143 304.249C324.254 305.258 323.714 306.583 323.714 308.034V328.059C323.714 332.799 319.877 336.641 315.143 336.641ZM300.857 313.755V328.059C300.857 331.219 303.416 333.78 306.571 333.78C307.24 333.78 307.881 333.665 308.477 333.454C307.285 331.98 306.571 330.103 306.571 328.059L306.571 313.755C306.571 312.175 305.292 310.894 303.714 310.894C302.136 310.894 300.857 312.175 300.857 313.755ZM329.429 308.034C329.429 305.99 328.715 304.112 327.523 302.638C328.119 302.427 328.76 302.312 329.429 302.312C332.584 302.312 335.143 304.874 335.143 308.034V322.337C335.143 323.917 333.864 325.198 332.286 325.198C330.708 325.198 329.429 323.917 329.429 322.337L329.429 308.034ZM320.857 302.312C321.525 302.312 322.167 302.427 322.763 302.638C321.571 304.112 320.857 305.99 320.857 308.034V328.059C320.857 331.219 318.299 333.78 315.143 333.78C314.475 333.78 313.833 333.665 313.237 333.454C314.429 331.98 315.143 330.103 315.143 328.059V308.034C315.143 304.874 317.701 302.312 320.857 302.312Z" fill="#61FAE9"/>
<defs>
<linearGradient id="paint0_linear" x1="160.475" y1="298.046" x2="465.413" y2="298.046" gradientUnits="userSpaceOnUse">
<stop stop-color="#61FAE9"/>
<stop offset="1" stop-color="#2F5BEA"/>
</linearGradient>
<linearGradient id="paint1_linear" x1="243.645" y1="397.602" x2="254.422" y2="406.939" gradientUnits="userSpaceOnUse">
<stop stop-color="#5A9FD4"/>
<stop offset="1" stop-color="#306998"/>
</linearGradient>
<linearGradient id="paint2_linear" x1="256.008" y1="414.564" x2="252.172" y2="409.099" gradientUnits="userSpaceOnUse">
<stop stop-color="#FFD43B"/>
<stop offset="1" stop-color="#FFE873"/>
</linearGradient>
<linearGradient id="paint3_linear" x1="223.34" y1="407.49" x2="284.34" y2="407.49" gradientUnits="userSpaceOnUse">
<stop stop-color="#61FAE9"/>
<stop offset="1" stop-color="#2F5BEA"/>
</linearGradient>
<linearGradient id="paint4_linear" x1="211.655" y1="293.836" x2="214.793" y2="276.376" gradientUnits="userSpaceOnUse">
<stop offset="0.57" stop-color="#3E863D"/>
<stop offset="0.72" stop-color="#619857"/>
<stop offset="1" stop-color="#76AC64"/>
</linearGradient>
<linearGradient id="paint5_linear" x1="183.38" y1="285.01" x2="242.38" y2="285.01" gradientUnits="userSpaceOnUse">
<stop stop-color="#61FAE9"/>
<stop offset="1" stop-color="#2F5BEA"/>
</linearGradient>
<linearGradient id="paint6_linear" x1="288" y1="208.046" x2="348" y2="208.046" gradientUnits="userSpaceOnUse">
<stop stop-color="#61FAE9"/>
<stop offset="1" stop-color="#2F5BEA"/>
</linearGradient>
<linearGradient id="paint7_linear" x1="392.62" y1="284.51" x2="452.62" y2="284.51" gradientUnits="userSpaceOnUse">
<stop stop-color="#61FAE9"/>
<stop offset="1" stop-color="#2F5BEA"/>
</linearGradient>
<linearGradient id="paint8_linear" x1="352.66" y1="407.49" x2="413.66" y2="407.49" gradientUnits="userSpaceOnUse">
<stop stop-color="#61FAE9"/>
<stop offset="1" stop-color="#2F5BEA"/>
</linearGradient>
<clipPath id="clip0">
<rect width="21.35" height="20" fill="white" transform="translate(242.656 397.49)"/>
</clipPath>
</defs>
</svg>
