<svg width="636" height="636" viewBox="0 0 636 636" fill="none" xmlns="http://www.w3.org/2000/svg">
<path fill-rule="evenodd" clip-rule="evenodd" d="M338 1.26213C376.792 -3.40511 414.106 14.1147 452.221 22.7084C494.561 32.2549 543.292 28.0558 577.171 55.1875C610.826 82.1404 635.137 126.322 635.439 169.439C635.763 215.81 590.349 250.304 578.848 295.228C571.248 324.915 578.269 355.772 579.902 386.373C582.089 427.351 609.216 471.634 590.201 507.999C572.366 542.106 520.855 539.779 488.658 560.868C455.662 582.48 436.2 628.3 397.229 634.393C357.934 640.536 325.44 601.062 286.61 592.455C249.114 584.143 206.853 602.062 172.642 584.608C138.623 567.253 124.475 526.593 100.017 497.262C74.622 466.809 41.0804 442.738 24.3558 406.785C6.99198 369.458 -3.75925 327.177 1.92884 286.404C7.59234 245.807 32.1675 210.393 56.369 177.31C78.9326 146.466 107.936 121.54 138.91 99.1548C168.196 77.9894 201.527 64.9133 233.953 48.9693C268.486 31.9893 299.793 5.85895 338 1.26213Z" fill="#D6EAFF"/>
<path d="M160.387 171.588L92.9199 193.486L160.374 171.546" stroke="#3AB795" stroke-width="2" stroke-linecap="round" stroke-linejoin="round" stroke-dasharray="10 10"/>
<rect x="63.9199" y="164.49" width="58" height="58" rx="29" fill="black"/>
<path d="M78.1377 194.122C78.0824 194.887 77.7992 195.489 77.2881 195.929C76.7803 196.368 76.1097 196.588 75.2764 196.588C74.3649 196.588 73.6471 196.282 73.123 195.67C72.6022 195.055 72.3418 194.212 72.3418 193.141V192.706C72.3418 192.022 72.4622 191.42 72.7031 190.899C72.944 190.379 73.2874 189.98 73.7334 189.703C74.1826 189.423 74.7035 189.283 75.2959 189.283C76.1162 189.283 76.777 189.503 77.2783 189.942C77.7796 190.382 78.0693 190.999 78.1475 191.793H76.6826C76.6468 191.334 76.5182 191.002 76.2969 190.797C76.0788 190.589 75.7451 190.484 75.2959 190.484C74.8076 190.484 74.4414 190.66 74.1973 191.012C73.9564 191.36 73.8327 191.902 73.8262 192.638V193.175C73.8262 193.943 73.9417 194.505 74.1729 194.859C74.4072 195.214 74.7751 195.392 75.2764 195.392C75.7288 195.392 76.0658 195.289 76.2871 195.084C76.5117 194.876 76.6403 194.555 76.6729 194.122H78.1377Z" fill="#3AB795"/>
<path d="M84.6805 189.381V194.063C84.6805 194.841 84.4363 195.457 83.948 195.909C83.463 196.362 82.799 196.588 81.9559 196.588C81.1258 196.588 80.4666 196.368 79.9783 195.929C79.49 195.489 79.241 194.885 79.2312 194.117V189.381H80.6961V194.073C80.6961 194.539 80.8068 194.879 81.0281 195.094C81.2527 195.305 81.562 195.411 81.9559 195.411C82.7794 195.411 83.1977 194.978 83.2107 194.112V189.381H84.6805Z" fill="#3AB795"/>
<path d="M89.7682 194.625C89.7682 194.348 89.6705 194.137 89.4752 193.99C89.2799 193.84 88.9283 193.684 88.4205 193.521C87.9127 193.355 87.5107 193.193 87.2145 193.033C86.4072 192.597 86.0035 192.009 86.0035 191.271C86.0035 190.886 86.1109 190.545 86.3258 190.245C86.5439 189.942 86.8548 189.706 87.2584 189.537C87.6653 189.368 88.121 189.283 88.6256 189.283C89.1334 189.283 89.5859 189.376 89.983 189.562C90.3801 189.744 90.6878 190.003 90.9059 190.338C91.1272 190.673 91.2379 191.054 91.2379 191.48H89.773C89.773 191.155 89.6705 190.903 89.4654 190.724C89.2604 190.541 88.9723 190.45 88.6012 190.45C88.2431 190.45 87.9648 190.527 87.7662 190.68C87.5676 190.829 87.4684 191.028 87.4684 191.275C87.4684 191.507 87.5839 191.7 87.815 191.856C88.0494 192.013 88.3928 192.159 88.8453 192.296C89.6786 192.547 90.2857 192.857 90.6666 193.229C91.0475 193.6 91.2379 194.062 91.2379 194.615C91.2379 195.23 91.0051 195.714 90.5396 196.065C90.0742 196.414 89.4475 196.588 88.6598 196.588C88.1129 196.588 87.6148 196.489 87.1656 196.29C86.7164 196.088 86.373 195.813 86.1354 195.465C85.901 195.117 85.7838 194.713 85.7838 194.254H87.2535C87.2535 195.038 87.7223 195.431 88.6598 195.431C89.0081 195.431 89.2799 195.361 89.4752 195.221C89.6705 195.077 89.7682 194.879 89.7682 194.625Z" fill="#3AB795"/>
<path d="M97.7855 190.567H95.6078V196.49H94.143V190.567H91.9945V189.381H97.7855V190.567Z" fill="#3AB795"/>
<path d="M104.529 193.097C104.529 193.797 104.405 194.41 104.157 194.938C103.91 195.465 103.555 195.872 103.093 196.158C102.634 196.445 102.107 196.588 101.511 196.588C100.922 196.588 100.396 196.446 99.9338 196.163C99.4715 195.88 99.1135 195.476 98.8596 194.952C98.6057 194.425 98.4771 193.819 98.4738 193.136V192.784C98.4738 192.084 98.5992 191.469 98.8498 190.938C99.1037 190.405 99.4602 189.996 99.9191 189.713C100.381 189.426 100.909 189.283 101.501 189.283C102.094 189.283 102.619 189.426 103.078 189.713C103.541 189.996 103.897 190.405 104.148 190.938C104.402 191.469 104.529 192.083 104.529 192.779V193.097ZM103.044 192.774C103.044 192.029 102.911 191.463 102.644 191.075C102.377 190.688 101.996 190.494 101.501 190.494C101.01 190.494 100.63 190.686 100.363 191.07C100.097 191.451 99.9615 192.011 99.9582 192.75V193.097C99.9582 193.823 100.092 194.386 100.359 194.786C100.626 195.187 101.01 195.387 101.511 195.387C102.002 195.387 102.38 195.195 102.644 194.811C102.907 194.423 103.041 193.86 103.044 193.121V192.774Z" fill="#3AB795"/>
<path d="M107.707 189.381L109.533 194.537L111.35 189.381H113.273V196.49H111.804V194.547L111.95 191.192L110.031 196.49H109.025L107.111 191.197L107.258 194.547V196.49H105.793V189.381H107.707Z" fill="#3AB795"/>
<rect x="63.9199" y="164.49" width="58" height="58" rx="29" stroke="#3AB795" stroke-width="2"/>
<path d="M227.942 122.504L186.267 65.1055L227.977 122.478" stroke="#FF6666" stroke-width="2" stroke-linecap="round" stroke-linejoin="round" stroke-dasharray="10 10"/>
<rect x="157.27" y="30.1099" width="58" height="58" rx="29" fill="black"/>
<path d="M171.487 59.7417C171.432 60.5067 171.149 61.1089 170.638 61.5483C170.13 61.9878 169.459 62.2075 168.626 62.2075C167.715 62.2075 166.997 61.9015 166.473 61.2896C165.952 60.6743 165.691 59.8312 165.691 58.7603V58.3257C165.691 57.6421 165.812 57.0399 166.053 56.519C166.294 55.9982 166.637 55.5994 167.083 55.3228C167.532 55.0428 168.053 54.9028 168.646 54.9028C169.466 54.9028 170.127 55.1226 170.628 55.562C171.129 56.0015 171.419 56.6183 171.497 57.4126H170.032C169.996 56.9536 169.868 56.6216 169.646 56.4165C169.428 56.2082 169.095 56.104 168.646 56.104C168.157 56.104 167.791 56.2798 167.547 56.6313C167.306 56.9797 167.182 57.5216 167.176 58.2573V58.7944C167.176 59.5627 167.291 60.1242 167.522 60.479C167.757 60.8338 168.125 61.0112 168.626 61.0112C169.078 61.0112 169.415 60.9087 169.637 60.7036C169.861 60.4953 169.99 60.1746 170.022 59.7417H171.487Z" fill="#FF6666"/>
<path d="M178.03 55.0005V59.6831C178.03 60.4611 177.786 61.0763 177.298 61.5288C176.813 61.9813 176.149 62.2075 175.305 62.2075C174.475 62.2075 173.816 61.9878 173.328 61.5483C172.84 61.1089 172.591 60.505 172.581 59.7368V55.0005H174.046V59.6929C174.046 60.1584 174.156 60.4985 174.378 60.7134C174.602 60.925 174.912 61.0308 175.305 61.0308C176.129 61.0308 176.547 60.5978 176.56 59.7319V55.0005H178.03Z" fill="#FF6666"/>
<path d="M183.118 60.2446C183.118 59.9679 183.02 59.7563 182.825 59.6099C182.629 59.4601 182.278 59.3039 181.77 59.1411C181.262 58.9751 180.86 58.8123 180.564 58.6528C179.757 58.2166 179.353 57.6291 179.353 56.8901C179.353 56.506 179.461 56.1642 179.675 55.8647C179.893 55.562 180.204 55.326 180.608 55.1567C181.015 54.9875 181.471 54.9028 181.975 54.9028C182.483 54.9028 182.935 54.9956 183.333 55.1812C183.73 55.3634 184.037 55.6222 184.255 55.9575C184.477 56.2928 184.587 56.6737 184.587 57.1001H183.123C183.123 56.7746 183.02 56.5223 182.815 56.3433C182.61 56.161 182.322 56.0698 181.951 56.0698C181.593 56.0698 181.314 56.1463 181.116 56.2993C180.917 56.4491 180.818 56.6476 180.818 56.895C180.818 57.1261 180.934 57.3198 181.165 57.4761C181.399 57.6323 181.742 57.7788 182.195 57.9155C183.028 58.1662 183.635 58.4771 184.016 58.8481C184.397 59.2192 184.587 59.6815 184.587 60.2349C184.587 60.8501 184.355 61.3335 183.889 61.6851C183.424 62.0334 182.797 62.2075 182.009 62.2075C181.462 62.2075 180.964 62.1082 180.515 61.9097C180.066 61.7078 179.723 61.4328 179.485 61.0845C179.251 60.7362 179.133 60.3325 179.133 59.8735H180.603C180.603 60.658 181.072 61.0503 182.009 61.0503C182.358 61.0503 182.629 60.9803 182.825 60.8403C183.02 60.6971 183.118 60.4985 183.118 60.2446Z" fill="#FF6666"/>
<path d="M191.135 56.187H188.957V62.1099H187.493V56.187H185.344V55.0005H191.135V56.187Z" fill="#FF6666"/>
<path d="M197.878 58.7163C197.878 59.4162 197.754 60.0298 197.507 60.5571C197.26 61.0845 196.905 61.4914 196.443 61.7778C195.984 62.0643 195.456 62.2075 194.861 62.2075C194.271 62.2075 193.746 62.0659 193.283 61.7827C192.821 61.4995 192.463 61.0959 192.209 60.5718C191.955 60.0444 191.827 59.439 191.823 58.7554V58.4038C191.823 57.7039 191.949 57.0887 192.199 56.5581C192.453 56.0243 192.81 55.6157 193.269 55.3325C193.731 55.0461 194.258 54.9028 194.851 54.9028C195.443 54.9028 195.969 55.0461 196.428 55.3325C196.89 55.6157 197.247 56.0243 197.497 56.5581C197.751 57.0887 197.878 57.7023 197.878 58.3989V58.7163ZM196.394 58.394C196.394 57.6486 196.26 57.0822 195.993 56.6948C195.726 56.3075 195.346 56.1138 194.851 56.1138C194.359 56.1138 193.98 56.3058 193.713 56.6899C193.446 57.0708 193.311 57.6307 193.308 58.3696V58.7163C193.308 59.4422 193.441 60.0054 193.708 60.4058C193.975 60.8062 194.359 61.0063 194.861 61.0063C195.352 61.0063 195.73 60.8143 195.993 60.4302C196.257 60.0428 196.39 59.4797 196.394 58.7407V58.394Z" fill="#FF6666"/>
<path d="M201.057 55.0005L202.883 60.1567L204.699 55.0005H206.623V62.1099H205.153V60.1665L205.3 56.812L203.381 62.1099H202.375L200.461 56.8169L200.607 60.1665V62.1099H199.143V55.0005H201.057Z" fill="#FF6666"/>
<rect x="157.27" y="30.1099" width="58" height="58" rx="29" stroke="#FF6666" stroke-width="2"/>
<path d="M408.908 190.478L341.405 97.5088L408.965 190.436" stroke="#FACC5F" stroke-width="2" stroke-linecap="round" stroke-linejoin="round" stroke-dasharray="10 10"/>
<rect x="312.4" y="68.5098" width="58" height="58" rx="29" fill="black"/>
<path d="M326.618 98.1416C326.563 98.9066 326.28 99.5088 325.769 99.9482C325.261 100.388 324.59 100.607 323.757 100.607C322.845 100.607 322.128 100.301 321.604 99.6895C321.083 99.0742 320.822 98.2311 320.822 97.1602V96.7256C320.822 96.042 320.943 95.4398 321.184 94.9189C321.424 94.3981 321.768 93.9993 322.214 93.7227C322.663 93.4427 323.184 93.3027 323.776 93.3027C324.597 93.3027 325.257 93.5225 325.759 93.9619C326.26 94.4014 326.55 95.0182 326.628 95.8125H325.163C325.127 95.3535 324.999 95.0215 324.777 94.8164C324.559 94.6081 324.226 94.5039 323.776 94.5039C323.288 94.5039 322.922 94.6797 322.678 95.0312C322.437 95.3796 322.313 95.9215 322.307 96.6572V97.1943C322.307 97.9626 322.422 98.5241 322.653 98.8789C322.888 99.2337 323.256 99.4111 323.757 99.4111C324.209 99.4111 324.546 99.3086 324.768 99.1035C324.992 98.8952 325.121 98.5745 325.153 98.1416H326.618Z" fill="#FACC5F"/>
<path d="M333.161 93.4004V98.083C333.161 98.861 332.917 99.4762 332.429 99.9287C331.943 100.381 331.279 100.607 330.436 100.607C329.606 100.607 328.947 100.388 328.459 99.9482C327.971 99.5088 327.721 98.9049 327.712 98.1367V93.4004H329.177V98.0928C329.177 98.5583 329.287 98.8984 329.509 99.1133C329.733 99.3249 330.042 99.4307 330.436 99.4307C331.26 99.4307 331.678 98.9977 331.691 98.1318V93.4004H333.161Z" fill="#FACC5F"/>
<path d="M338.249 98.6445C338.249 98.3678 338.151 98.1562 337.956 98.0098C337.76 97.86 337.409 97.7038 336.901 97.541C336.393 97.375 335.991 97.2122 335.695 97.0527C334.888 96.6165 334.484 96.029 334.484 95.29C334.484 94.9059 334.591 94.5641 334.806 94.2646C335.024 93.9619 335.335 93.7259 335.739 93.5566C336.146 93.3874 336.601 93.3027 337.106 93.3027C337.614 93.3027 338.066 93.3955 338.463 93.5811C338.861 93.7633 339.168 94.0221 339.386 94.3574C339.608 94.6927 339.718 95.0736 339.718 95.5H338.254C338.254 95.1745 338.151 94.9222 337.946 94.7432C337.741 94.5609 337.453 94.4697 337.082 94.4697C336.724 94.4697 336.445 94.5462 336.247 94.6992C336.048 94.849 335.949 95.0475 335.949 95.2949C335.949 95.526 336.064 95.7197 336.296 95.876C336.53 96.0322 336.873 96.1787 337.326 96.3154C338.159 96.5661 338.766 96.877 339.147 97.248C339.528 97.6191 339.718 98.0814 339.718 98.6348C339.718 99.25 339.486 99.7334 339.02 100.085C338.555 100.433 337.928 100.607 337.14 100.607C336.593 100.607 336.095 100.508 335.646 100.31C335.197 100.108 334.853 99.8327 334.616 99.4844C334.381 99.1361 334.264 98.7324 334.264 98.2734H335.734C335.734 99.0579 336.203 99.4502 337.14 99.4502C337.489 99.4502 337.76 99.3802 337.956 99.2402C338.151 99.097 338.249 98.8984 338.249 98.6445Z" fill="#FACC5F"/>
<path d="M346.266 94.5869H344.088V100.51H342.623V94.5869H340.475V93.4004H346.266V94.5869Z" fill="#FACC5F"/>
<path d="M353.009 97.1162C353.009 97.8161 352.885 98.4297 352.638 98.957C352.39 99.4844 352.036 99.8913 351.573 100.178C351.114 100.464 350.587 100.607 349.991 100.607C349.402 100.607 348.876 100.466 348.414 100.183C347.952 99.8994 347.594 99.4958 347.34 98.9717C347.086 98.4443 346.958 97.8389 346.954 97.1553V96.8037C346.954 96.1038 347.08 95.4886 347.33 94.958C347.584 94.4242 347.941 94.0156 348.4 93.7324C348.862 93.446 349.389 93.3027 349.982 93.3027C350.574 93.3027 351.1 93.446 351.559 93.7324C352.021 94.0156 352.377 94.4242 352.628 94.958C352.882 95.4886 353.009 96.1022 353.009 96.7988V97.1162ZM351.525 96.7939C351.525 96.0485 351.391 95.4821 351.124 95.0947C350.857 94.7074 350.476 94.5137 349.982 94.5137C349.49 94.5137 349.111 94.7057 348.844 95.0898C348.577 95.4707 348.442 96.0306 348.439 96.7695V97.1162C348.439 97.8421 348.572 98.4053 348.839 98.8057C349.106 99.2061 349.49 99.4062 349.991 99.4062C350.483 99.4062 350.861 99.2142 351.124 98.8301C351.388 98.4427 351.521 97.8796 351.525 97.1406V96.7939Z" fill="#FACC5F"/>
<path d="M356.188 93.4004L358.014 98.5566L359.83 93.4004H361.754V100.51H360.284V98.5664L360.431 95.2119L358.512 100.51H357.506L355.592 95.2168L355.738 98.5664V100.51H354.273V93.4004H356.188Z" fill="#FACC5F"/>
<rect x="312.4" y="68.5098" width="58" height="58" rx="29" stroke="#FACC5F" stroke-width="2"/>
<path d="M318 207.546L318.064 317.457L422.616 283.554M318 207.546L317.935 317.457L213.383 283.554M318 207.546L409.106 192.148L422.616 283.554M318 207.546L227.969 193.504M422.616 283.554L318.104 317.58L382.656 406.538M422.616 283.554L465.413 365.444L382.656 406.538M382.656 406.538L318 317.656L253.343 406.538M382.656 406.538L318 472.546L253.343 406.538M253.343 406.538L317.895 317.58L213.383 283.554M253.343 406.538L170.586 365.444L213.383 283.554M213.383 283.554L227.969 193.504M228 122.546L227.978 193.478L227.969 193.504M160.475 171.606L227.942 193.504L227.969 193.504" stroke="url(#paint0_linear)" stroke-width="2" stroke-linecap="round" stroke-linejoin="round" stroke-dasharray="10 10"/>
<rect x="130.47" y="141.61" width="60" height="60" rx="30" fill="#3AB795"/>
<path d="M151.174 165.149L152.322 159.079H154.074L152.182 167.61H150.412L149.023 161.903L147.635 167.61H145.865L143.973 159.079H145.725L146.879 165.137L148.285 159.079H149.773L151.174 165.149Z" fill="#2C363F"/>
<path d="M159.828 165.852H156.746L156.16 167.61H154.291L157.467 159.079H159.095L162.289 167.61H160.42L159.828 165.852ZM157.22 164.428H159.353L158.281 161.235L157.22 164.428Z" fill="#2C363F"/>
<path d="M165.998 164.188L165.084 165.172V167.61H163.326V159.079H165.084V162.946L165.857 161.885L168.031 159.079H170.193L167.164 162.87L170.281 167.61H168.189L165.998 164.188Z" fill="#2C363F"/>
<path d="M176.316 163.913H172.941V166.198H176.902V167.61H171.183V159.079H176.89V160.502H172.941V162.536H176.316V163.913Z" fill="#2C363F"/>
<path d="M150.389 182.149L151.537 176.079H153.289L151.396 184.61H149.627L148.238 178.903L146.85 184.61H145.08L143.188 176.079H144.939L146.094 182.137L147.5 176.079H148.988L150.389 182.149Z" fill="#2C363F"/>
<path d="M161.492 180.538C161.492 181.377 161.344 182.114 161.047 182.747C160.75 183.379 160.324 183.868 159.769 184.211C159.219 184.555 158.586 184.727 157.871 184.727C157.164 184.727 156.533 184.557 155.978 184.217C155.424 183.877 154.994 183.393 154.689 182.764C154.385 182.131 154.23 181.405 154.226 180.584V180.163C154.226 179.323 154.377 178.584 154.677 177.948C154.982 177.307 155.41 176.817 155.961 176.477C156.515 176.133 157.148 175.961 157.859 175.961C158.57 175.961 159.201 176.133 159.752 176.477C160.306 176.817 160.734 177.307 161.035 177.948C161.34 178.584 161.492 179.321 161.492 180.157V180.538ZM159.711 180.151C159.711 179.256 159.551 178.577 159.23 178.112C158.91 177.647 158.453 177.415 157.859 177.415C157.269 177.415 156.814 177.645 156.494 178.106C156.174 178.563 156.011 179.235 156.008 180.122V180.538C156.008 181.409 156.168 182.084 156.488 182.565C156.808 183.045 157.269 183.286 157.871 183.286C158.461 183.286 158.914 183.055 159.23 182.594C159.547 182.129 159.707 181.454 159.711 180.567V180.151Z" fill="#2C363F"/>
<path d="M166.167 181.487H164.767V184.61H163.009V176.079H166.179C167.187 176.079 167.964 176.303 168.511 176.752C169.058 177.202 169.332 177.836 169.332 178.657C169.332 179.239 169.205 179.725 168.951 180.116C168.701 180.502 168.32 180.811 167.808 181.042L169.654 184.528V184.61H167.767L166.167 181.487ZM164.767 180.063H166.185C166.626 180.063 166.968 179.952 167.21 179.729C167.453 179.502 167.574 179.192 167.574 178.797C167.574 178.395 167.459 178.079 167.228 177.848C167.001 177.618 166.652 177.502 166.179 177.502H164.767V180.063Z" fill="#2C363F"/>
<path d="M170.913 184.61V176.079H173.538C174.288 176.079 174.958 176.249 175.548 176.588C176.142 176.924 176.605 177.405 176.937 178.03C177.269 178.651 177.435 179.358 177.435 180.151V180.543C177.435 181.336 177.271 182.042 176.943 182.659C176.618 183.276 176.159 183.754 175.566 184.094C174.972 184.434 174.302 184.606 173.556 184.61H170.913ZM172.671 177.502V183.198H173.521C174.208 183.198 174.734 182.973 175.097 182.524C175.46 182.075 175.646 181.432 175.654 180.596V180.145C175.654 179.278 175.474 178.622 175.115 178.176C174.755 177.727 174.23 177.502 173.538 177.502H172.671Z" fill="#2C363F"/>
<rect x="198" y="92.5498" width="60" height="60" rx="30" fill="#FF6666"/>
<path d="M208.981 123.483L208.296 124.222V126.05H206.978V119.651H208.296V122.552L208.876 121.756L210.506 119.651H212.128L209.856 122.495L212.194 126.05H210.625L208.981 123.483Z" fill="#2C363F"/>
<path d="M216.72 123.277H214.189V124.991H217.159V126.05H212.87V119.651H217.151V120.719H214.189V122.244H216.72V123.277Z" fill="#2C363F"/>
<path d="M220.319 122.534L221.651 119.651H223.092L220.991 123.729V126.05H219.651V123.729L217.55 119.651H218.996L220.319 122.534Z" fill="#2C363F"/>
<path d="M228.919 124.204L229.78 119.651H231.094L229.675 126.05H228.348L227.306 121.77L226.265 126.05H224.937L223.518 119.651H224.832L225.698 124.195L226.752 119.651H227.869L228.919 124.204Z" fill="#2C363F"/>
<path d="M237.246 122.996C237.246 123.625 237.135 124.178 236.912 124.652C236.69 125.127 236.37 125.493 235.954 125.751C235.541 126.009 235.067 126.138 234.531 126.138C234 126.138 233.527 126.01 233.111 125.755C232.695 125.5 232.373 125.137 232.144 124.666C231.916 124.191 231.8 123.646 231.797 123.031V122.714C231.797 122.084 231.91 121.531 232.136 121.053C232.364 120.573 232.685 120.205 233.098 119.95C233.514 119.692 233.989 119.563 234.522 119.563C235.055 119.563 235.528 119.692 235.941 119.95C236.357 120.205 236.678 120.573 236.904 121.053C237.132 121.531 237.246 122.083 237.246 122.71V122.996ZM235.91 122.706C235.91 122.035 235.79 121.525 235.55 121.176C235.31 120.828 234.967 120.653 234.522 120.653C234.079 120.653 233.738 120.826 233.498 121.172C233.258 121.515 233.136 122.019 233.133 122.684V122.996C233.133 123.649 233.253 124.156 233.493 124.516C233.734 124.876 234.079 125.057 234.531 125.057C234.973 125.057 235.313 124.884 235.55 124.538C235.787 124.189 235.907 123.683 235.91 123.018V122.706Z" fill="#2C363F"/>
<path d="M240.753 123.708H239.703V126.05H238.384V119.651H240.762C241.518 119.651 242.101 119.82 242.511 120.157C242.921 120.494 243.126 120.97 243.126 121.585C243.126 122.021 243.031 122.386 242.84 122.679C242.653 122.969 242.367 123.201 241.983 123.374L243.368 125.988V126.05H241.953L240.753 123.708ZM239.703 122.64H240.766C241.097 122.64 241.354 122.556 241.535 122.389C241.717 122.219 241.808 121.986 241.808 121.69C241.808 121.389 241.721 121.151 241.548 120.979C241.379 120.806 241.116 120.719 240.762 120.719H239.703V122.64Z" fill="#2C363F"/>
<path d="M244.312 126.05V119.651H246.281C246.844 119.651 247.346 119.779 247.788 120.034C248.234 120.286 248.581 120.646 248.83 121.115C249.079 121.581 249.204 122.111 249.204 122.706V123C249.204 123.595 249.08 124.124 248.834 124.586C248.591 125.049 248.247 125.408 247.802 125.663C247.356 125.918 246.854 126.047 246.294 126.05H244.312ZM245.631 120.719V124.991H246.268C246.784 124.991 247.178 124.822 247.45 124.485C247.723 124.148 247.862 123.667 247.868 123.04V122.701C247.868 122.051 247.733 121.559 247.463 121.225C247.194 120.888 246.8 120.719 246.281 120.719H245.631Z" fill="#2C363F"/>
<rect x="288" y="442.546" width="60" height="60" rx="30" fill="#F29E4C"/>
<path d="M312.138 479.046H309.501L304.368 470.626V479.046H301.731V466.249H304.368L309.51 474.687V466.249H312.138V479.046Z" fill="#2C363F"/>
<path d="M317.437 476.928H323.036V479.046H314.8V466.249H317.437V476.928Z" fill="#2C363F"/>
<path d="M334.391 466.249V474.678C334.391 476.078 333.951 477.186 333.073 478C332.199 478.814 331.004 479.222 329.487 479.222C327.992 479.222 326.806 478.826 325.927 478.035C325.048 477.244 324.6 476.157 324.582 474.774V466.249H327.219V474.695C327.219 475.533 327.418 476.146 327.817 476.532C328.221 476.913 328.778 477.104 329.487 477.104C330.969 477.104 331.722 476.324 331.745 474.766V466.249H334.391Z" fill="#2C363F"/>
<rect x="140.59" y="335.44" width="60" height="60" rx="30" fill="#C490D1"/>
<path d="M161.256 369.303H156.633L155.754 371.94H152.95L157.714 359.143H160.157L164.947 371.94H162.144L161.256 369.303ZM157.345 367.167H160.544L158.936 362.377L157.345 367.167Z" fill="#2C363F"/>
<path d="M173.138 368.583C173.138 368.084 172.963 367.704 172.611 367.44C172.259 367.17 171.627 366.889 170.713 366.596C169.798 366.297 169.075 366.004 168.542 365.717C167.089 364.932 166.362 363.875 166.362 362.544C166.362 361.853 166.555 361.238 166.942 360.699C167.335 360.154 167.894 359.729 168.621 359.424C169.353 359.12 170.173 358.967 171.082 358.967C171.996 358.967 172.81 359.134 173.525 359.468C174.24 359.796 174.794 360.262 175.186 360.866C175.585 361.469 175.784 362.155 175.784 362.922H173.147C173.147 362.336 172.963 361.882 172.593 361.56C172.224 361.232 171.706 361.068 171.038 361.068C170.393 361.068 169.892 361.206 169.535 361.481C169.177 361.75 168.999 362.108 168.999 362.553C168.999 362.969 169.207 363.318 169.623 363.599C170.045 363.88 170.663 364.144 171.477 364.39C172.977 364.841 174.07 365.401 174.756 366.069C175.441 366.737 175.784 367.569 175.784 368.565C175.784 369.672 175.365 370.542 174.527 371.175C173.689 371.802 172.561 372.116 171.143 372.116C170.159 372.116 169.262 371.937 168.454 371.58C167.645 371.216 167.027 370.721 166.599 370.094C166.177 369.467 165.966 368.741 165.966 367.915H168.612C168.612 369.327 169.456 370.033 171.143 370.033C171.77 370.033 172.259 369.907 172.611 369.655C172.963 369.397 173.138 369.04 173.138 368.583Z" fill="#2C363F"/>
<path d="M182.674 367.255H180.574V371.94H177.937V359.143H182.692C184.203 359.143 185.369 359.48 186.19 360.154C187.01 360.828 187.42 361.78 187.42 363.01C187.42 363.883 187.23 364.613 186.849 365.199C186.474 365.779 185.903 366.242 185.135 366.587L187.904 371.817V371.94H185.074L182.674 367.255ZM180.574 365.12H182.7C183.363 365.12 183.875 364.953 184.239 364.619C184.602 364.279 184.783 363.813 184.783 363.221C184.783 362.618 184.611 362.143 184.265 361.797C183.925 361.452 183.401 361.279 182.692 361.279H180.574V365.12Z" fill="#2C363F"/>
<rect x="435.41" y="335.44" width="60" height="60" rx="30" fill="#A4036F"/>
<path d="M453.457 368.767L456.357 359.143H459.293L454.837 371.94H452.086L447.647 359.143H450.574L453.457 368.767Z" fill="white"/>
<path d="M467.423 369.303H462.799L461.921 371.94H459.117L463.881 359.143H466.324L471.114 371.94H468.31L467.423 369.303ZM463.511 367.167H466.711L465.102 362.377L463.511 367.167Z" fill="white"/>
<path d="M472.669 371.94V359.143H476.607C477.732 359.143 478.737 359.398 479.621 359.908C480.512 360.412 481.206 361.132 481.704 362.07C482.202 363.001 482.451 364.062 482.451 365.251V365.84C482.451 367.03 482.205 368.087 481.713 369.013C481.227 369.939 480.538 370.657 479.648 371.167C478.757 371.676 477.752 371.934 476.633 371.94H472.669ZM475.306 361.279V369.822H476.58C477.612 369.822 478.4 369.485 478.945 368.811C479.49 368.137 479.768 367.173 479.78 365.919V365.243C479.78 363.942 479.51 362.958 478.971 362.29C478.432 361.616 477.644 361.279 476.607 361.279H475.306Z" fill="white"/>
<rect x="379.109" y="162.15" width="60" height="60" rx="30" fill="#FACC5F"/>
<path d="M402.843 187.989H398.923V198.65H396.286V187.989H392.419V185.853H402.843V187.989Z" fill="#2C363F"/>
<path d="M414.488 187.989H410.568V198.65H407.931V187.989H404.064V185.853H414.488V187.989Z" fill="#2C363F"/>
<path d="M422.855 195.292C422.855 194.794 422.679 194.414 422.327 194.15C421.976 193.88 421.343 193.599 420.429 193.306C419.515 193.007 418.791 192.714 418.258 192.427C416.805 191.642 416.078 190.584 416.078 189.254C416.078 188.563 416.272 187.948 416.658 187.409C417.051 186.864 417.611 186.439 418.337 186.134C419.07 185.83 419.89 185.677 420.798 185.677C421.712 185.677 422.527 185.844 423.241 186.178C423.956 186.506 424.51 186.972 424.903 187.576C425.301 188.179 425.5 188.865 425.5 189.632H422.864C422.864 189.046 422.679 188.592 422.31 188.27C421.941 187.942 421.422 187.778 420.754 187.778C420.11 187.778 419.609 187.916 419.251 188.191C418.894 188.46 418.715 188.818 418.715 189.263C418.715 189.679 418.923 190.028 419.339 190.309C419.761 190.59 420.379 190.854 421.194 191.1C422.694 191.551 423.786 192.111 424.472 192.779C425.158 193.447 425.5 194.279 425.5 195.275C425.5 196.382 425.081 197.252 424.243 197.885C423.406 198.512 422.278 198.826 420.86 198.826C419.875 198.826 418.979 198.647 418.17 198.29C417.362 197.926 416.743 197.431 416.316 196.804C415.894 196.177 415.683 195.451 415.683 194.625H418.328C418.328 196.037 419.172 196.743 420.86 196.743C421.487 196.743 421.976 196.617 422.327 196.365C422.679 196.107 422.855 195.75 422.855 195.292Z" fill="#2C363F"/>
<path d="M223.34 406.99C223.34 390.422 236.771 376.99 253.34 376.99H254.34C270.908 376.99 284.34 390.422 284.34 406.99C284.34 423.559 270.908 436.99 254.34 436.99H253.34C236.771 436.99 223.34 423.559 223.34 406.99Z" fill="black"/>
<g clip-path="url(#clip0)">
<path d="M253.353 397.102C252.543 397.106 251.769 397.174 251.088 397.292C249.082 397.641 248.718 398.37 248.718 399.716V401.493H253.458V402.085H248.718H246.939C245.562 402.085 244.356 402.899 243.978 404.449C243.543 406.225 243.524 407.333 243.978 409.187C244.315 410.567 245.12 411.551 246.497 411.551H248.127V409.421C248.127 407.882 249.481 406.524 251.088 406.524H255.823C257.14 406.524 258.192 405.457 258.192 404.155V399.716C258.192 398.452 257.109 397.503 255.823 397.292C255.008 397.159 254.163 397.099 253.353 397.102ZM250.79 398.531C251.279 398.531 251.679 398.931 251.679 399.422C251.679 399.912 251.279 400.308 250.79 400.308C250.298 400.308 249.9 399.912 249.9 399.422C249.9 398.931 250.298 398.531 250.79 398.531Z" fill="url(#paint1_linear)"/>
<path d="M258.784 402.085V404.155C258.784 405.76 257.401 407.111 255.823 407.111H251.089C249.792 407.111 248.719 408.203 248.719 409.48V413.92C248.719 415.183 249.836 415.927 251.089 416.289C252.589 416.723 254.028 416.801 255.823 416.289C257.016 415.949 258.193 415.265 258.193 413.92V412.143H253.459V411.551H258.193H260.563C261.941 411.551 262.454 410.606 262.933 409.187C263.428 407.727 263.407 406.322 262.933 404.449C262.593 403.1 261.942 402.085 260.563 402.085H258.784ZM256.121 413.328C256.613 413.328 257.011 413.724 257.011 414.213C257.011 414.705 256.613 415.104 256.121 415.104C255.632 415.104 255.232 414.705 255.232 414.213C255.232 413.724 255.632 413.328 256.121 413.328Z" fill="url(#paint2_linear)"/>
</g>
<path d="M253.34 378.99H254.34V374.99H253.34V378.99ZM254.34 434.99H253.34V438.99H254.34V434.99ZM253.34 434.99C237.876 434.99 225.34 422.454 225.34 406.99H221.34C221.34 424.663 235.667 438.99 253.34 438.99V434.99ZM282.34 406.99C282.34 422.454 269.804 434.99 254.34 434.99V438.99C272.013 438.99 286.34 424.663 286.34 406.99H282.34ZM254.34 378.99C269.804 378.99 282.34 391.526 282.34 406.99H286.34C286.34 389.317 272.013 374.99 254.34 374.99V378.99ZM253.34 374.99C235.667 374.99 221.34 389.317 221.34 406.99H225.34C225.34 391.526 237.876 378.99 253.34 378.99V374.99Z" fill="url(#paint3_linear)"/>
<path d="M183.38 283.51C183.38 267.217 196.587 254.01 212.88 254.01C229.172 254.01 242.38 267.217 242.38 283.51V285.51C242.38 301.802 229.172 315.01 212.88 315.01C196.587 315.01 183.38 301.802 183.38 285.51V283.51Z" fill="black"/>
<path fill-rule="evenodd" clip-rule="evenodd" d="M212.211 274.473C212.495 274.3 212.852 274.3 213.14 274.473L220.851 279.072C221.139 279.245 221.316 279.563 221.316 279.906V289.114C221.316 289.457 221.139 289.775 220.851 289.947L213.14 294.546C212.852 294.72 212.495 294.72 212.211 294.546L204.505 289.947C204.21 289.775 204.03 289.457 204.03 289.114V279.906C204.03 279.563 204.201 279.245 204.495 279.072L212.211 274.473Z" fill="url(#paint4_linear)"/>
<path d="M240.38 283.51V285.51H244.38V283.51H240.38ZM185.38 285.51V283.51H181.38V285.51H185.38ZM212.88 313.01C197.692 313.01 185.38 300.698 185.38 285.51H181.38C181.38 302.907 195.483 317.01 212.88 317.01V313.01ZM240.38 285.51C240.38 300.698 228.068 313.01 212.88 313.01V317.01C230.277 317.01 244.38 302.907 244.38 285.51H240.38ZM212.88 256.01C228.068 256.01 240.38 268.322 240.38 283.51H244.38C244.38 266.113 230.277 252.01 212.88 252.01V256.01ZM212.88 252.01C195.483 252.01 181.38 266.113 181.38 283.51H185.38C185.38 268.322 197.692 256.01 212.88 256.01V252.01Z" fill="url(#paint5_linear)"/>
<path d="M288 207.546C288 190.977 301.431 177.546 318 177.546C334.569 177.546 348 190.977 348 207.546C348 224.114 334.569 237.546 318 237.546C301.431 237.546 288 224.114 288 207.546Z" fill="black"/>
<path d="M326.493 213.132C326.191 213.831 325.833 214.474 325.418 215.065C324.853 215.871 324.39 216.429 324.033 216.739C323.48 217.248 322.887 217.508 322.253 217.523C321.797 217.523 321.248 217.394 320.608 217.131C319.967 216.869 319.377 216.739 318.838 216.739C318.273 216.739 317.666 216.869 317.018 217.131C316.368 217.394 315.845 217.531 315.445 217.544C314.836 217.57 314.23 217.302 313.624 216.739C313.238 216.402 312.754 215.824 312.175 215.006C311.554 214.132 311.043 213.118 310.643 211.963C310.215 210.715 310 209.506 310 208.336C310 206.996 310.29 205.84 310.87 204.871C311.326 204.093 311.932 203.479 312.691 203.028C313.45 202.578 314.271 202.348 315.154 202.334C315.637 202.334 316.271 202.483 317.059 202.777C317.844 203.072 318.348 203.221 318.569 203.221C318.735 203.221 319.295 203.046 320.245 202.698C321.143 202.375 321.901 202.241 322.522 202.294C324.205 202.429 325.469 203.093 326.309 204.288C324.804 205.199 324.06 206.477 324.075 208.115C324.088 209.391 324.551 210.453 325.461 211.296C325.874 211.688 326.334 211.99 326.846 212.205C326.735 212.527 326.618 212.836 326.493 213.132ZM322.634 197.946C322.634 198.946 322.269 199.88 321.54 200.745C320.661 201.772 319.598 202.366 318.445 202.272C318.431 202.152 318.422 202.026 318.422 201.893C318.422 200.933 318.84 199.905 319.582 199.065C319.953 198.64 320.424 198.286 320.996 198.004C321.566 197.726 322.106 197.572 322.613 197.546C322.628 197.68 322.634 197.813 322.634 197.946V197.946Z" fill="white"/>
<path d="M318 235.546C302.536 235.546 290 223.01 290 207.546H286C286 225.219 300.327 239.546 318 239.546V235.546ZM346 207.546C346 223.01 333.464 235.546 318 235.546V239.546C335.673 239.546 350 225.219 350 207.546H346ZM318 179.546C333.464 179.546 346 192.082 346 207.546H350C350 189.873 335.673 175.546 318 175.546V179.546ZM318 175.546C300.327 175.546 286 189.873 286 207.546H290C290 192.082 302.536 179.546 318 179.546V175.546Z" fill="url(#paint6_linear)"/>
<path d="M392.62 284.01C392.62 267.441 406.052 254.01 422.62 254.01C439.189 254.01 452.62 267.441 452.62 284.01C452.62 300.578 439.189 314.01 422.62 314.01C406.052 314.01 392.62 300.578 392.62 284.01Z" fill="black"/>
<path d="M427.499 281.784L429.158 278.91C429.252 278.749 429.195 278.544 429.036 278.451C428.877 278.357 428.671 278.411 428.579 278.573L426.898 281.483C425.616 280.898 424.172 280.571 422.62 280.571C421.068 280.571 419.624 280.898 418.342 281.483L416.661 278.573C416.567 278.411 416.363 278.357 416.202 278.451C416.041 278.544 415.986 278.749 416.08 278.91L417.739 281.784C414.878 283.334 412.94 286.23 412.62 289.62H432.62C432.3 286.23 430.362 283.334 427.499 281.784H427.499ZM418.028 286.811C417.565 286.811 417.19 286.434 417.19 285.973C417.19 285.509 417.567 285.135 418.028 285.135C418.492 285.135 418.867 285.511 418.867 285.973C418.869 286.434 418.492 286.811 418.028 286.811ZM427.21 286.811C426.746 286.811 426.371 286.434 426.371 285.973C426.371 285.509 426.748 285.135 427.21 285.135C427.673 285.135 428.048 285.511 428.048 285.973C428.05 286.434 427.673 286.811 427.21 286.811Z" fill="#32DE84"/>
<path d="M422.62 312.01C407.156 312.01 394.62 299.474 394.62 284.01H390.62C390.62 301.683 404.947 316.01 422.62 316.01V312.01ZM450.62 284.01C450.62 299.474 438.084 312.01 422.62 312.01V316.01C440.293 316.01 454.62 301.683 454.62 284.01H450.62ZM422.62 256.01C438.084 256.01 450.62 268.546 450.62 284.01H454.62C454.62 266.337 440.293 252.01 422.62 252.01V256.01ZM422.62 252.01C404.947 252.01 390.62 266.337 390.62 284.01H394.62C394.62 268.546 407.156 256.01 422.62 256.01V252.01Z" fill="url(#paint7_linear)"/>
<path d="M352.66 406.99C352.66 390.422 366.092 376.99 382.66 376.99H383.66C400.229 376.99 413.66 390.422 413.66 406.99C413.66 423.559 400.229 436.99 383.66 436.99H382.66C366.092 436.99 352.66 423.559 352.66 406.99Z" fill="black"/>
<path d="M382.652 409.272C383.803 409.272 384.736 408.354 384.736 407.222C384.736 406.09 383.803 405.172 382.652 405.172C381.501 405.172 380.567 406.09 380.567 407.222C380.567 408.354 381.501 409.272 382.652 409.272Z" fill="#61DAFB"/>
<path fill-rule="evenodd" clip-rule="evenodd" d="M372.688 405.958C372.185 406.405 371.977 406.833 371.977 407.222C371.977 407.611 372.185 408.039 372.688 408.486C373.191 408.932 373.947 409.357 374.925 409.725C376.878 410.458 379.609 410.922 382.652 410.922C385.694 410.922 388.426 410.458 390.378 409.725C391.356 409.357 392.112 408.932 392.615 408.486C393.119 408.039 393.327 407.611 393.327 407.222C393.327 406.833 393.119 406.405 392.615 405.958C392.112 405.512 391.356 405.086 390.378 404.719C388.426 403.986 385.694 403.522 382.652 403.522C379.609 403.522 376.878 403.986 374.925 404.719C373.947 405.086 373.191 405.512 372.688 405.958ZM374.562 403.785C376.658 402.998 379.518 402.522 382.652 402.522C385.786 402.522 388.646 402.998 390.741 403.785C391.787 404.178 392.668 404.658 393.297 405.216C393.925 405.774 394.343 406.451 394.343 407.222C394.343 407.993 393.925 408.67 393.297 409.228C392.668 409.786 391.787 410.266 390.741 410.659C388.646 411.446 385.786 411.922 382.652 411.922C379.518 411.922 376.658 411.446 374.562 410.659C373.517 410.266 372.635 409.786 372.007 409.228C371.378 408.67 370.96 407.993 370.96 407.222C370.96 406.451 371.378 405.774 372.007 405.216C372.635 404.658 373.517 404.178 374.562 403.785Z" fill="#61DAFB"/>
<path fill-rule="evenodd" clip-rule="evenodd" d="M378.782 398.103C378.137 397.897 377.657 397.934 377.314 398.129C376.972 398.323 376.699 398.714 376.557 399.366C376.415 400.018 376.419 400.875 376.585 401.892C376.915 403.921 377.873 406.48 379.394 409.072C380.915 411.664 382.69 413.758 384.311 415.055C385.124 415.704 385.876 416.136 386.521 416.341C387.166 416.546 387.647 416.51 387.989 416.315C388.332 416.121 388.604 415.729 388.746 415.078C388.888 414.426 388.884 413.569 388.718 412.552C388.388 410.522 387.431 407.964 385.909 405.372C384.388 402.78 382.614 400.685 380.992 399.389C380.18 398.739 379.427 398.308 378.782 398.103ZM381.633 398.613C383.374 400.004 385.223 402.202 386.79 404.872C388.357 407.541 389.368 410.216 389.722 412.394C389.899 413.481 389.918 414.472 389.74 415.287C389.563 416.101 389.176 416.796 388.497 417.181C387.819 417.566 387.014 417.549 386.208 417.293C385.402 417.036 384.539 416.525 383.67 415.831C381.93 414.44 380.08 412.241 378.513 409.572C376.947 406.902 375.936 404.228 375.581 402.05C375.404 400.963 375.386 399.972 375.563 399.157C375.74 398.342 376.127 397.648 376.806 397.263C377.484 396.877 378.289 396.895 379.095 397.151C379.901 397.408 380.764 397.918 381.633 398.613Z" fill="#61DAFB"/>
<path fill-rule="evenodd" clip-rule="evenodd" d="M388.746 399.366C388.604 398.714 388.332 398.323 387.989 398.129C387.647 397.934 387.166 397.897 386.521 398.103C385.876 398.308 385.124 398.739 384.311 399.389C382.69 400.685 380.915 402.78 379.394 405.372C377.873 407.964 376.915 410.522 376.585 412.552C376.419 413.569 376.415 414.426 376.557 415.078C376.699 415.729 376.972 416.121 377.314 416.315C377.657 416.51 378.137 416.546 378.782 416.341C379.427 416.136 380.18 415.704 380.992 415.055C382.614 413.758 384.388 411.664 385.909 409.072C387.431 406.48 388.388 403.921 388.718 401.892C388.884 400.875 388.888 400.018 388.746 399.366ZM389.722 402.05C389.368 404.228 388.357 406.902 386.79 409.572C385.223 412.241 383.374 414.44 381.633 415.831C380.764 416.525 379.901 417.036 379.095 417.293C378.289 417.549 377.484 417.566 376.806 417.181C376.127 416.796 375.74 416.101 375.563 415.287C375.386 414.472 375.404 413.481 375.581 412.394C375.936 410.216 376.947 407.541 378.513 404.872C380.08 402.202 381.93 400.004 383.67 398.613C384.539 397.918 385.402 397.408 386.208 397.151C387.014 396.895 387.819 396.877 388.497 397.263C389.176 397.648 389.563 398.342 389.74 399.157C389.918 399.972 389.899 400.963 389.722 402.05Z" fill="#61DAFB"/>
<path d="M382.66 378.99H383.66V374.99H382.66V378.99ZM383.66 434.99H382.66V438.99H383.66V434.99ZM382.66 434.99C367.196 434.99 354.66 422.454 354.66 406.99H350.66C350.66 424.663 364.987 438.99 382.66 438.99V434.99ZM411.66 406.99C411.66 422.454 399.124 434.99 383.66 434.99V438.99C401.333 438.99 415.66 424.663 415.66 406.99H411.66ZM383.66 378.99C399.124 378.99 411.66 391.526 411.66 406.99H415.66C415.66 389.317 401.333 374.99 383.66 374.99V378.99ZM382.66 374.99C364.987 374.99 350.66 389.317 350.66 406.99H354.66C354.66 391.526 367.196 378.99 382.66 378.99V374.99Z" fill="url(#paint8_linear)"/>
<path d="M258 317.546C258 284.409 284.863 257.546 318 257.546C351.137 257.546 378 284.409 378 317.546C378 350.683 351.137 377.546 318 377.546C284.863 377.546 258 350.683 258 317.546Z" fill="#2F5BEA"/>
<path fill-rule="evenodd" clip-rule="evenodd" d="M315.143 336.141C313.582 336.141 312.118 335.723 310.857 334.993C309.596 335.723 308.133 336.141 306.571 336.141C301.838 336.141 298 332.299 298 327.559V313.255C298 310.095 300.558 307.534 303.714 307.534C306.87 307.534 309.429 310.095 309.429 313.255V327.559C309.429 329.01 309.968 330.335 310.857 331.343C311.746 330.335 312.286 329.01 312.286 327.559V307.534C312.286 302.794 316.123 298.952 320.857 298.952C322.418 298.952 323.882 299.37 325.143 300.1C326.404 299.37 327.867 298.952 329.429 298.952C334.162 298.952 338 302.794 338 307.534V321.837C338 324.997 335.442 327.559 332.286 327.559C329.13 327.559 326.571 324.997 326.571 321.837V307.534C326.571 306.083 326.032 304.758 325.143 303.749C324.254 304.758 323.714 306.083 323.714 307.534V327.559C323.714 332.299 319.877 336.141 315.143 336.141ZM300.857 313.255V327.559C300.857 330.719 303.416 333.28 306.571 333.28C307.24 333.28 307.881 333.165 308.477 332.954C307.285 331.48 306.571 329.603 306.571 327.559L306.571 313.255C306.571 311.675 305.292 310.394 303.714 310.394C302.136 310.394 300.857 311.675 300.857 313.255ZM329.429 307.534C329.429 305.49 328.715 303.612 327.523 302.138C328.119 301.927 328.76 301.812 329.429 301.812C332.584 301.812 335.143 304.374 335.143 307.534V321.837C335.143 323.417 333.864 324.698 332.286 324.698C330.708 324.698 329.429 323.417 329.429 321.837L329.429 307.534ZM320.857 301.812C321.525 301.812 322.167 301.927 322.763 302.138C321.571 303.612 320.857 305.49 320.857 307.534V327.559C320.857 330.719 318.299 333.28 315.143 333.28C314.475 333.28 313.833 333.165 313.237 332.954C314.429 331.48 315.143 329.603 315.143 327.559V307.534C315.143 304.374 317.701 301.812 320.857 301.812Z" fill="#61FAE9"/>
<defs>
<linearGradient id="paint0_linear" x1="160.475" y1="297.546" x2="465.413" y2="297.546" gradientUnits="userSpaceOnUse">
<stop stop-color="#61FAE9"/>
<stop offset="1" stop-color="#2F5BEA"/>
</linearGradient>
<linearGradient id="paint1_linear" x1="243.645" y1="397.102" x2="254.422" y2="406.439" gradientUnits="userSpaceOnUse">
<stop stop-color="#5A9FD4"/>
<stop offset="1" stop-color="#306998"/>
</linearGradient>
<linearGradient id="paint2_linear" x1="256.008" y1="414.064" x2="252.172" y2="408.599" gradientUnits="userSpaceOnUse">
<stop stop-color="#FFD43B"/>
<stop offset="1" stop-color="#FFE873"/>
</linearGradient>
<linearGradient id="paint3_linear" x1="223.34" y1="406.99" x2="284.34" y2="406.99" gradientUnits="userSpaceOnUse">
<stop stop-color="#61FAE9"/>
<stop offset="1" stop-color="#2F5BEA"/>
</linearGradient>
<linearGradient id="paint4_linear" x1="211.655" y1="293.336" x2="214.793" y2="275.876" gradientUnits="userSpaceOnUse">
<stop offset="0.57" stop-color="#3E863D"/>
<stop offset="0.72" stop-color="#619857"/>
<stop offset="1" stop-color="#76AC64"/>
</linearGradient>
<linearGradient id="paint5_linear" x1="183.38" y1="284.51" x2="242.38" y2="284.51" gradientUnits="userSpaceOnUse">
<stop stop-color="#61FAE9"/>
<stop offset="1" stop-color="#2F5BEA"/>
</linearGradient>
<linearGradient id="paint6_linear" x1="288" y1="207.546" x2="348" y2="207.546" gradientUnits="userSpaceOnUse">
<stop stop-color="#61FAE9"/>
<stop offset="1" stop-color="#2F5BEA"/>
</linearGradient>
<linearGradient id="paint7_linear" x1="392.62" y1="284.01" x2="452.62" y2="284.01" gradientUnits="userSpaceOnUse">
<stop stop-color="#61FAE9"/>
<stop offset="1" stop-color="#2F5BEA"/>
</linearGradient>
<linearGradient id="paint8_linear" x1="352.66" y1="406.99" x2="413.66" y2="406.99" gradientUnits="userSpaceOnUse">
<stop stop-color="#61FAE9"/>
<stop offset="1" stop-color="#2F5BEA"/>
</linearGradient>
<clipPath id="clip0">
<rect width="21.35" height="20" fill="white" transform="translate(242.656 396.99)"/>
</clipPath>
</defs>
</svg>
