<?xml version="1.0" encoding="UTF-8"?>
<svg width="80px" height="63px" viewBox="0 0 80 63" version="1.1" xmlns="http://www.w3.org/2000/svg" xmlns:xlink="http://www.w3.org/1999/xlink">
    <title>Group</title>
    <g id="Symbols" stroke="none" stroke-width="1" fill="none" fill-rule="evenodd">
        <g id="Illustration/Icon+Shape">
            <g id="Group">
                <g id="Shapes/Shape/1" transform="translate(0.000000, 0.000000)" fill="#CCE4FF">
                    <path d="M54.9786953,59.5093642 C75.7819344,47.4986085 85.5457717,25.463506 76.7868363,10.2925848 C73.4181047,4.45777045 67.177514,5.42051557 60.3551765,3.42771038 C49.4389646,0.239084052 36.0619906,-2.82075791 23.2597845,4.57059921 C11.0197187,11.6374045 7.05276621,23.685009 3.98025221,34.2523942 C1.83071555,41.645357 -2.15377015,47.5426191 1.45164347,53.7873787 C5.93563457,61.5538791 17.7107385,60.0945483 27.7006551,60.9885392 C37.2248341,61.8408513 44.8253282,65.3714134 54.9786953,59.5093642 Z" id="Shape"></path>
                </g>
                <g id="Icons/Social/Discourse" transform="translate(23.000000, 14.457086)" fill="#2F5BEA">
                    <path d="M27.4615385,28.7692308 L27.4615385,23.5384615 L28.8509615,23.5384615 C30.2676282,23.5384615 31.4799679,23.0616987 32.4879808,22.1081731 C33.4959936,21.1546474 34,19.9967949 34,18.6346154 L34,18.6346154 L34,4.90384615 C34,3.54166667 33.4959936,2.3838141 32.4879808,1.43028846 C31.4799679,0.476762821 30.2676282,0 28.8509615,0 L28.8509615,0 L11.1153846,0 C9.69871795,0 8.58173077,0.463141026 7.76442308,1.38942308 C6.94711538,2.31570513 6.53846154,3.48717949 6.53846154,4.90384615 L6.53846154,4.90384615 L6.53846154,18.6346154 C6.53846154,19.9967949 7.04246795,21.1546474 8.05048077,22.1081731 C9.05849359,23.0616987 10.2708333,23.5384615 11.6875,23.5384615 L11.6875,23.5384615 L19.9423077,23.5384615 C20.650641,23.5384615 21.1137821,23.6474359 21.3317308,23.8653846 L21.3317308,23.8653846 L27.4615385,28.7692308 Z M5.23076923,34 L9.5625,30.3221154 C9.88942308,30.1586538 10.2435897,30.0769231 10.625,30.0769231 L10.625,30.0769231 L17.9807692,30.0769231 C19.0160256,30.0769231 19.9423077,29.8453526 20.7596154,29.3822115 C21.5769231,28.9190705 22.0673077,28.2788462 22.2307692,27.4615385 L22.2307692,27.4615385 L20.1057692,25.9903846 C19.6698718,25.7179487 19.2067308,25.5817308 18.7163462,25.5817308 L18.7163462,25.5817308 L9.15384615,25.5817308 C7.73717949,25.5817308 6.51121795,25.1185897 5.47596154,24.1923077 C4.44070513,23.2660256 3.92307692,22.1217949 3.92307692,20.7596154 L3.92307692,20.7596154 L3.92307692,12.5048077 L3.75961538,12.5048077 C2.72435897,12.5048077 1.83894231,12.8589744 1.10336538,13.5673077 C0.367788462,14.275641 0,15.1474359 0,16.1826923 L0,16.1826923 L0,26.7259615 C0,27.7067308 0.381410256,28.5104167 1.14423077,29.1370192 C1.90705128,29.7636218 2.83333333,30.0769231 3.92307692,30.0769231 L3.92307692,30.0769231 L5.23076923,30.0769231 L5.23076923,34 Z" id=""></path>
                </g>
            </g>
        </g>
    </g>
</svg>