<?xml version="1.0" encoding="UTF-8"?>
<svg width="80px" height="63px" viewBox="0 0 80 63" version="1.1" xmlns="http://www.w3.org/2000/svg" xmlns:xlink="http://www.w3.org/1999/xlink">
    <title>Group</title>
    <g id="Symbols" stroke="none" stroke-width="1" fill="none" fill-rule="evenodd">
        <g id="Illustration/Icon+Shape">
            <g id="Group">
                <g id="Shapes/Shape/1" transform="translate(0.000000, 0.000000)" fill="#CCE4FF">
                    <path d="M54.9786953,59.5093642 C75.7819344,47.4986085 85.5457717,25.463506 76.7868363,10.2925848 C73.4181047,4.45777045 67.177514,5.42051557 60.3551765,3.42771038 C49.4389646,0.239084052 36.0619906,-2.82075791 23.2597845,4.57059921 C11.0197187,11.6374045 7.05276621,23.685009 3.98025221,34.2523942 C1.83071555,41.645357 -2.15377015,47.5426191 1.45164347,53.7873787 C5.93563457,61.5538791 17.7107385,60.0945483 27.7006551,60.9885392 C37.2248341,61.8408513 44.8253282,65.3714134 54.9786953,59.5093642 Z" id="Shape"></path>
                </g>
                <g id="Icons/Social/Github" transform="translate(23.000000, 14.457086)" fill="#2F5BEA">
                    <path d="M29.8198889,2.40861336 C30.2214667,2.34984229 30.5116,2.33793929 30.6880222,2.3736483 L30.6880222,2.3736483 L30.9536,2.42572393 C31.2958667,3.3299801 31.5293333,4.21600979 31.6528667,5.08418499 C31.7775333,5.95273215 31.8051111,6.71898789 31.7337111,7.3818363 C31.6623111,8.04394078 31.5882667,8.55800167 31.5119556,8.92141519 C31.4348889,9.28482871 31.3434667,9.6080696 31.2373111,9.88927802 C33.0786,12.0016889 34,14.5184298 34,17.4402448 C34,19.071328 33.8541778,20.5506479 33.5663111,21.8774607 C33.2761778,23.2031575 32.8746,24.3525411 32.3615778,25.3263554 C31.8485556,26.3005417 31.1957556,27.1553261 30.4058222,27.8888485 C29.614,28.6208832 28.7553111,29.2257044 27.8278667,29.7014525 C26.9011778,30.1768287 25.8445333,30.5603285 24.6583111,30.8545558 C23.4724667,31.1472953 22.2624444,31.3526221 21.0278667,31.4705362 C19.7951778,31.5877064 18.4397111,31.6464774 16.9648667,31.6464774 C15.4892667,31.6464774 14.1379556,31.5877064 12.9090444,31.4705362 C11.6812667,31.3526221 10.4742667,31.1472953 9.28842222,30.8545558 C8.10144444,30.5603285 7.04744444,30.1768287 6.12755556,29.7014525 C5.20615556,29.2257044 4.35426667,28.6208832 3.56773333,27.8877326 C2.78271111,27.1542102 2.13331111,26.3005417 1.62028889,25.3263554 C1.10613333,24.3525411 0.707577778,23.2031575 0.425,21.8763448 C0.141288889,20.5506479 -6.68336497e-13,19.071328 -6.68336497e-13,17.4402448 C-6.68336497e-13,14.5072707 0.9214,11.9901578 2.76268889,9.88927802 C2.65615556,9.61922867 2.56171111,9.29747565 2.47973333,8.92141519 C2.397,8.54609866 2.32068889,8.02943399 2.24966667,7.37253708 C2.17788889,6.7152682 2.20811111,5.95273215 2.33768889,5.08418499 C2.46688889,4.21600979 2.70413333,3.3299801 3.0464,2.42572393 C3.10457778,2.40191793 3.19562222,2.38183161 3.32028889,2.36472104 C3.44457778,2.34686654 3.72526667,2.36137333 4.16046667,2.40861336 C4.59868889,2.45548143 5.07317778,2.56112057 5.5862,2.72515882 C6.10111111,2.88956903 6.78602222,3.19532739 7.64017778,3.64057405 C8.49773333,4.08582071 9.3976,4.65567692 10.3412889,5.34791087 C11.9593111,4.86658323 14.1787556,4.36330944 17,4.36330944 C19.8216222,4.36330944 22.0338889,4.86658323 23.6405778,5.34791087 C24.5854,4.65567692 25.4818667,4.08284496 26.3322444,3.63239074 C27.183,3.18044864 27.8754667,2.878038 28.4134222,2.72515882 C28.9502444,2.57265161 29.4194444,2.4666405 29.8198889,2.40861336 Z M23.9144667,14.5232654 C23.2004667,14.4905322 22.5193333,14.4964837 21.8703111,14.5414919 C21.2212889,14.587616 20.4177556,14.6501068 19.4604667,14.7289642 C18.5054444,14.8070776 17.6792444,14.8457624 16.9818667,14.8457624 C16.286,14.8457624 15.4601778,14.8070776 14.5028889,14.7289642 C13.5467333,14.6501068 12.7435778,14.587616 12.0941778,14.5414919 C11.4451556,14.4964837 10.7640222,14.4905322 10.0500222,14.5232654 C9.33526667,14.5552547 8.69757778,14.6921392 8.13695556,14.9350349 C7.57671111,15.1768146 7.08371111,15.5335327 6.65871111,16.0044452 C5.24242222,17.5473718 4.53371111,19.2680995 4.53371111,21.1647684 C4.53371111,22.2769552 4.65157778,23.2678801 4.88768889,24.1382871 C5.12304444,25.0072062 5.423,25.7377529 5.78113333,26.3258356 C6.14191111,26.9146622 6.647,27.4116126 7.2964,27.8178025 C7.94655556,28.2232485 8.57291111,28.5360743 9.18226667,28.7592556 C9.78973333,28.9820649 10.5751333,29.1546584 11.5365778,29.278896 C12.4995333,29.4023896 13.3574667,29.4790152 14.1134,29.505053 C14.8685778,29.5310908 15.8258667,29.5437378 16.9818667,29.5437378 C18.139,29.5437378 19.0985556,29.5310908 19.8590222,29.505053 C20.621,29.4790152 21.4834667,29.4023896 22.4452889,29.278896 C23.4078667,29.1546584 24.1932667,28.9820649 24.8007333,28.7592556 C25.4085778,28.5360743 26.0375778,28.2232485 26.6869778,27.8178025 C27.3371333,27.4116126 27.8407111,26.9146622 28.2007333,26.3258356 C28.5611333,25.7377529 28.8584444,25.0072062 29.0941778,24.1382871 C29.3302889,23.2678801 29.4489111,22.2769552 29.4489111,21.1647684 C29.4489111,19.2680995 28.7413333,17.5473718 27.3239111,16.0044452 C26.8981556,15.5335327 26.4032667,15.1768146 25.8354667,14.9350349 C25.2695556,14.6921392 24.6299778,14.5552547 23.9144667,14.5232654 Z M17.6886619,25.4781007 C17.9474397,25.2225582 18.3663952,25.2225582 18.6255508,25.4781007 C18.8858397,25.7336433 18.8858397,26.1476446 18.6255508,26.4028152 C17.9678397,27.0515288 17.3327952,27.3747697 16.6962397,27.3747697 C16.0596841,27.3747697 15.4238841,27.0515288 14.7669286,26.4016993 C14.5062619,26.1476446 14.5062619,25.7336433 14.7669286,25.4781007 C15.0257063,25.2214423 15.4442841,25.2214423 15.7038175,25.4781007 C16.1099286,25.8764793 16.4348175,26.071019 16.6962397,26.071019 C16.9576619,26.071019 17.2825508,25.8764793 17.6886619,25.4781007 Z M9.89642857,17.6415788 C11.0694286,17.6415788 12.0214286,19.0468769 12.0214286,20.7802516 C12.0214286,22.5136262 11.0694286,23.9185524 9.89642857,23.9185524 C8.72342857,23.9185524 7.77142857,22.5136262 7.77142857,20.7802516 C7.77142857,19.0468769 8.72342857,17.6415788 9.89642857,17.6415788 Z M22.525,17.6415788 C23.698,17.6415788 24.65,19.0468769 24.65,20.7802516 C24.65,22.5136262 23.698,23.9185524 22.525,23.9185524 C21.352,23.9185524 20.4,22.5136262 20.4,20.7802516 C20.4,19.0468769 21.352,17.6415788 22.525,17.6415788 Z" id="Combined-Shape"></path>
                </g>
            </g>
        </g>
    </g>
</svg>