<?xml version="1.0" encoding="UTF-8"?>
<svg width="80px" height="63px" viewBox="0 0 80 63" version="1.1" xmlns="http://www.w3.org/2000/svg" xmlns:xlink="http://www.w3.org/1999/xlink">
    <title>Group</title>
    <g id="Symbols" stroke="none" stroke-width="1" fill="none" fill-rule="evenodd">
        <g id="Illustration/Icon+Shape">
            <g id="Group">
                <g id="Shapes/Shape/1" transform="translate(40.000000, 31.457086) scale(-1, 1) translate(-40.000000, -31.457086) translate(0.000000, 0.000000)" fill="#CCE4FF">
                    <path d="M54.9786953,59.5093642 C75.7819344,47.4986085 85.5457717,25.463506 76.7868363,10.2925848 C73.4181047,4.45777045 67.177514,5.42051557 60.3551765,3.42771038 C49.4389646,0.239084052 36.0619906,-2.82075791 23.2597845,4.57059921 C11.0197187,11.6374045 7.05276621,23.685009 3.98025221,34.2523942 C1.83071555,41.645357 -2.15377015,47.5426191 1.45164347,53.7873787 C5.93563457,61.5538791 17.7107385,60.0945483 27.7006551,60.9885392 C37.2248341,61.8408513 44.8253282,65.3714134 54.9786953,59.5093642 Z" id="Shape"></path>
                </g>
                <g id="Icons/Social/Twitter" transform="translate(23.000000, 14.457086)" fill="#2F5BEA">
                    <path d="M16.5089401,10.4256652 L16.5826407,11.6409539 L15.354297,11.492143 C10.8831257,10.9217014 6.97699254,8.98716024 3.6604644,5.73812318 L2.03905064,4.12600556 L1.62141376,5.31649242 C0.737006254,7.97028604 1.30204438,10.7728905 3.14456002,12.6578281 C4.12723502,13.6995041 3.90613315,13.8483149 2.21101876,13.2282697 C1.62141376,13.0298552 1.10550938,12.8810443 1.05637563,12.9554498 C0.884407505,13.1290624 1.47401251,15.3860271 1.94078314,16.2788923 C2.57952189,17.5189827 3.88156627,18.7342714 5.30644503,19.4535239 L6.51022191,20.0239655 L5.08534316,20.0487673 C3.70959815,20.0487673 3.6604644,20.0735691 3.80786565,20.5944071 C4.29920315,22.2065248 6.23998629,23.9178496 8.4018713,24.6619039 L9.92501756,25.1827419 L8.5984063,25.9763998 C6.63305629,27.1172831 4.32377003,27.7621301 2.01448376,27.8117337 C0.90897438,27.8365355 -6.02970459e-14,27.9357428 -6.02970459e-14,28.0101482 C-6.02970459e-14,28.2581663 2.99715877,29.6470676 4.7414069,30.1927074 C9.97415131,31.8048251 16.1895707,31.1103744 20.857277,28.3573735 C24.1738051,26.3980306 27.4903333,22.5041465 29.0380464,18.7342714 C29.8733202,16.7253248 30.7085939,13.054657 30.7085939,11.2937285 C30.7085939,10.1528453 30.7822946,10.0040344 32.1580396,8.6399349 C32.9687464,7.846277 33.7303196,6.97821366 33.8777208,6.73019557 C34.1233896,6.25896118 34.0988227,6.25896118 32.8459121,6.68059195 C30.7577277,7.42464623 30.4629252,7.325439 31.4947339,6.20935756 C32.2563071,5.41569966 33.1652814,3.9771947 33.1652814,3.55556394 C33.1652814,3.48115851 32.7967783,3.60516756 32.3791414,3.82838384 C31.9369377,4.07640194 30.9542627,4.44842908 30.2172564,4.67164537 L28.8906452,5.09327613 L27.6868683,4.27481642 C27.0235627,3.82838384 26.0900214,3.33234765 25.5986839,3.18353679 C24.3457733,2.83631146 22.429557,2.88591508 21.2994808,3.28274403 C18.2286214,4.39882546 16.2878382,7.27583538 16.5089401,10.4256652 Z" id="Shape"></path>
                </g>
            </g>
        </g>
    </g>
</svg>