<svg width="93" height="93" viewBox="0 0 93 93" fill="none" xmlns="http://www.w3.org/2000/svg">
<circle cx="46.3141" cy="46.3141" r="46.3141" fill="#CCE4FF"/>
<path d="M38.5778 27H61.7333C63.8617 27 65.5926 28.7309 65.5926 30.8593V46.2963C65.5926 48.4247 63.8617 50.1555 61.7333 50.1555V34.7185C61.7333 32.5901 60.0024 30.8593 57.874 30.8593H34.7185C34.7185 28.7309 36.4494 27 38.5778 27Z" fill="#2F5BEA"/>
<path fill-rule="evenodd" clip-rule="evenodd" d="M32.7889 65.141V57.874H30.8593C28.7309 57.874 27 56.1432 27 54.0148V38.5778C27 36.4494 28.7309 34.7185 30.8593 34.7185H54.0148C56.1432 34.7185 57.874 36.4494 57.874 38.5778V54.0148C57.874 56.1432 56.1432 57.874 54.0148 57.874H44.9012L32.7889 65.141ZM54.0148 38.5778H30.8593V54.0148H36.6481V58.3256L43.8321 54.0148H54.0148V38.5778Z" fill="#2F5BEA"/>
</svg>
