<svg width="85" height="85" viewBox="0 0 85 85" fill="none" xmlns="http://www.w3.org/2000/svg">
<g clip-path="url(#clip0)">
<circle cx="42.5" cy="42" r="42.5" fill="#CCE4FF"/>
<path d="M52.968 23.5C53.6905 23.5 54.3834 23.787 54.8944 24.2979C55.4053 24.8089 55.6923 25.5018 55.6923 26.2244C55.6923 26.9469 55.4053 27.6399 54.8944 28.1508C54.3834 28.6617 53.6905 28.9487 52.968 28.9487C52.5502 28.9487 52.1506 28.8579 51.7874 28.6763L45.0855 35.3964L45.703 36.2137C49.6806 33.9252 54.3483 32.5812 59.3248 32.5812L61.141 32.6357V36.2863L59.3248 36.2137C54.6389 36.2137 50.2436 37.5759 46.6111 39.9188C46.6111 40.8633 46.4251 41.7986 46.0636 42.6712C45.7022 43.5438 45.1724 44.3367 44.5045 45.0045C43.8367 45.6724 43.0438 46.2022 42.1712 46.5636C41.2986 46.9251 40.3633 47.1111 39.4188 47.1111C37.0759 50.7436 35.7137 55.1389 35.7137 59.8248L35.7863 61.641H32.1357L32.0812 59.8248C32.0812 54.8483 33.4252 50.1806 35.7137 46.203L34.8964 45.5855L28.1763 52.2874C28.3579 52.6506 28.4487 53.0502 28.4487 53.468C28.4487 53.8257 28.3783 54.18 28.2413 54.5105C28.1044 54.8411 27.9038 55.1414 27.6508 55.3944C27.3978 55.6473 27.0975 55.848 26.7669 55.9849C26.4364 56.1218 26.0821 56.1923 25.7244 56.1923C25.0018 56.1923 24.3089 55.9053 23.7979 55.3944C23.287 54.8834 23 54.1905 23 53.468C23 52.7454 23.287 52.0525 23.7979 51.5415C24.3089 51.0306 25.0018 50.7436 25.7244 50.7436C26.1421 50.7436 26.5417 50.8344 26.9049 51.016L33.6068 44.2959C32.6442 43.0791 32.0812 41.5171 32.0812 39.8462C32.0812 37.9194 32.8466 36.0715 34.2091 34.7091C35.5715 33.3466 37.4194 32.5812 39.3462 32.5812C41.0171 32.5812 42.5791 33.1442 43.7959 34.1068L50.516 27.4049C50.3344 27.0417 50.2436 26.6421 50.2436 26.2244C50.2436 25.5018 50.5306 24.8089 51.0415 24.2979C51.5525 23.787 52.2454 23.5 52.968 23.5ZM39.3462 36.2137C38.3828 36.2137 37.4588 36.5964 36.7776 37.2776C36.0964 37.9588 35.7137 38.8828 35.7137 39.8462C35.7137 40.8095 36.0964 41.7335 36.7776 42.4147C37.4588 43.0959 38.3828 43.4786 39.3462 43.4786C40.3095 43.4786 41.2335 43.0959 41.9147 42.4147C42.5959 41.7335 42.9786 40.8095 42.9786 39.8462C42.9786 38.8828 42.5959 37.9588 41.9147 37.2776C41.2335 36.5964 40.3095 36.2137 39.3462 36.2137Z" fill="#2F5BEA"/>
</g>
<defs>
<clipPath id="clip0">
<rect width="85" height="85" fill="white"/>
</clipPath>
</defs>
</svg>
