<svg width="85" height="86" viewBox="0 0 85 86" fill="none" xmlns="http://www.w3.org/2000/svg">
<circle cx="42.5" cy="43" r="42.5" fill="#CCE4FF"/>
<path d="M36.3574 62.5877H38.2617V58.7789H36.3783C35.7918 58.7675 30.6442 58.4495 30.6442 51.1614C30.6442 47.366 29.3778 44.9798 27.7838 43.5439C29.3778 42.1079 30.6442 39.7218 30.6442 35.9263C30.6442 28.6382 35.7918 28.3202 36.3574 28.3088H38.2617V24.5H36.3535C33.0609 24.5076 26.8354 26.9071 26.8354 35.9263C26.8354 41.2586 23.6399 41.6204 23 41.6395L23.0267 45.4482C23.1828 45.4482 26.8354 45.513 26.8354 51.1614C26.8354 60.1806 33.0609 62.5801 36.3574 62.5877ZM61.1144 41.6395C60.9582 41.6395 57.3056 41.5747 57.3056 35.9263C57.3056 26.9071 51.0802 24.5076 47.7837 24.5H45.8793V28.3088H47.7627C48.3493 28.3202 53.4968 28.6382 53.4968 35.9263C53.4968 39.7218 54.7632 42.1079 56.3572 43.5439C54.7632 44.9798 53.4968 47.366 53.4968 51.1614C53.4968 58.4495 48.3493 58.7675 47.7837 58.7789H45.8793V62.5877H47.7875C51.0802 62.5801 57.3056 60.1806 57.3056 51.1614C57.3056 45.8291 60.5012 45.4673 61.141 45.4482L61.1144 41.6395Z" fill="#2F5BEA"/>
</svg>
