<?xml version="1.0" encoding="UTF-8"?>
<svg width="1440px" height="646px" viewBox="0 0 1440 646" version="1.1" xmlns="http://www.w3.org/2000/svg" xmlns:xlink="http://www.w3.org/1999/xlink">
    <title>Hero Background</title>
    <defs>
        <rect id="path-1" x="0.185498873" y="0.864811593" width="1439.00069" height="645"></rect>
        <path d="M-0.76,-0.635188407 L1441.1824,-1.5 L1441.1824,538.5 C838.440624,418.5 739.515423,646.364812 471.07399,645.870508 C292.113036,645.533377 134.835039,598.594238 -0.76,505.053092 L-0.76,-0.635188407 Z" id="path-3"></path>
    </defs>
    <g id="Hero-Background" stroke="none" stroke-width="1" fill="none" fill-rule="evenodd">
        <g id="Background">
            <mask id="mask-2" fill="white">
                <use xlink:href="#path-1"></use>
            </mask>
            <g id="Mask"></g>
            <mask id="mask-4" fill="white">
                <use xlink:href="#path-3"></use>
            </mask>
            <use id="Combined-Shape" fill="#2F5BEA" xlink:href="#path-3"></use>
            <path d="M-0.150294073,310.337613 C102.676799,374.201371 148.763153,581.760254 244.239813,581.760254 C357.075699,581.760254 383.903243,369.430877 483.104793,369.430877 C582.306343,369.430877 624.393432,544.737585 740.264974,544.737585 C811.755841,544.737585 875.78914,426.342278 1046.17074,426.576257 C1216.55233,426.810236 1297.85709,557.242732 1438.84971,557.242732 L1438.84971,645.864812 L-0.150294073,645.864812 L-0.150294073,310.337613 Z" id="Shape" fill="#FFFFFF" opacity="0.25" mask="url(#mask-4)"></path>
            <path d="M0,599.500941 C120.019235,599.500941 137.691075,444.491373 243.207986,444.491373 C348.724897,444.491373 393.491331,599.500941 516.739479,599.500941 C639.987627,599.500941 704.646137,474.087774 821.776021,474.087774 C938.905904,474.087774 1289.03152,581.602097 1439,581.602097 L1439,645.41405 L1.15701979e-12,645.864812 L0,599.500941 Z" id="Shape" fill="#FFFFFF" opacity="0.1" mask="url(#mask-4)"></path>
        </g>
    </g>
</svg>