<?xml version="1.0" encoding="UTF-8"?>
<svg width="1440px" height="593px" viewBox="0 0 1440 593" version="1.1" xmlns="http://www.w3.org/2000/svg" xmlns:xlink="http://www.w3.org/1999/xlink">
    <!-- Generator: Sketch 59.1 (86144) - https://sketch.com -->
    <title>Artboard</title>
    <desc>Created with Sketch.</desc>
    <defs>
        <path d="M118.395556,-606.46743 L1498.86086,-800.613906 C1791.80116,-841.812571 2062.65114,-637.570738 2103.82121,-344.427003 L2125.51715,-189.945184 C2166.68722,103.19855 1962.58713,374.236617 1669.64682,415.435283 L289.181523,609.581758 C-3.75878088,650.780424 -274.608758,446.53859 -315.778833,153.394856 L-337.47477,-1.08696297 C-378.644845,-294.230698 -174.544747,-565.268765 118.395556,-606.46743 Z" id="path-1"></path>
    </defs>
    <g id="Artboard" stroke="none" stroke-width="1" fill="none" fill-rule="evenodd">
        <rect fill="#ffffff" x="0" y="0" width="1440" height="593"></rect>
        <g id="Background" transform="translate(0.000000, -22.000000)">
            <mask id="mask-2" fill="#ffffff">
                <use xlink:href="#path-1"></use>
            </mask>
            <use id="Shape" fill="#2F5BEA" xlink:href="#path-1"></use>
            <path d="M-0.150294073,279.337613 C102.676849,343.201371 148.763225,550.760254 244.239931,550.760254 C357.075871,550.760254 383.903429,338.430877 483.105026,338.430877 C582.306624,338.430877 624.393733,513.737585 740.265331,513.737585 C811.756233,513.737585 875.789562,395.342278 1046.17124,395.576257 C1216.55292,395.810236 1297.85771,526.242732 1438.8504,526.242732 L1438.8504,614.864812 L-0.150294073,614.864812 L-0.150294073,279.337613 Z" id="Shape" fill="#ffffff" opacity="0.25" mask="url(#mask-2)"></path>
            <path d="M2.1817045,568.500941 C122.200998,568.500941 139.872846,413.491373 245.389808,413.491373 C350.90677,413.491373 395.673225,568.500941 518.921432,568.500941 C642.16964,568.500941 706.828182,443.087774 823.958121,443.087774 C941.088061,443.087774 1291.21385,550.602097 1441.1824,550.602097 L1441.1824,614.41405 L2.1817045,614.864812 L2.1817045,568.500941 Z" id="Shape" fill="#ffffff" opacity="0.1" mask="url(#mask-2)"></path>
        </g>
    </g>
</svg>
