<svg width="62" height="62" viewBox="0 0 62 62" fill="none" xmlns="http://www.w3.org/2000/svg">
<path fill-rule="evenodd" clip-rule="evenodd" d="M31.0002 56.1304L27.0844 60.7433L24.4959 55.2741L19.5197 58.7164L18.435 52.7636L12.7373 54.8006L13.2303 48.7699L7.19958 49.2628L9.23658 43.5652L3.2838 42.4805L6.72604 37.5042L1.25684 34.9158L5.86974 31L1.25684 27.0842L6.72604 24.4958L3.2838 19.5195L9.23658 18.4348L7.19958 12.7372L13.2303 13.2301L12.7373 7.1994L18.435 9.2364L19.5197 3.28361L24.4959 6.72586L27.0844 1.25665L31.0002 5.86956L34.916 1.25665L37.5044 6.72586L42.4807 3.28361L43.5654 9.2364L49.263 7.1994L48.7701 13.2301L54.8008 12.7372L52.7638 18.4348L58.7166 19.5195L55.2743 24.4958L60.7435 27.0842L56.1306 31L60.7435 34.9158L55.2743 37.5042L58.7166 42.4805L52.7638 43.5652L54.8008 49.2628L48.7701 48.7699L49.263 54.8006L43.5654 52.7636L42.4807 58.7164L37.5044 55.2741L34.916 60.7433L31.0002 56.1304Z" stroke="#61FAE9" stroke-linecap="round" stroke-linejoin="round"/>
<path d="M22.3953 36H20.3445L16.3523 29.4512V36H14.3016V26.0469H16.3523L20.3514 32.6094V26.0469H22.3953V36ZM30.6246 31.6865H26.6871V34.3525H31.3082V36H24.6363V26.0469H31.2945V27.708H26.6871V30.0801H30.6246V31.6865ZM40.7133 33.1289L42.0531 26.0469H44.0971L41.8891 36H39.8246L38.2045 29.3418L36.5844 36H34.5199L32.3119 26.0469H34.3559L35.7025 33.1152L37.3432 26.0469H39.0795L40.7133 33.1289ZM47.5412 32.9443H45.9006L45.6682 26.0469H47.7736L47.5412 32.9443ZM46.7209 34.0244C47.0536 34.0244 47.3202 34.1224 47.5207 34.3184C47.7258 34.5143 47.8283 34.765 47.8283 35.0703C47.8283 35.3711 47.7258 35.6195 47.5207 35.8154C47.3202 36.0114 47.0536 36.1094 46.7209 36.1094C46.3928 36.1094 46.1262 36.0114 45.9211 35.8154C45.7206 35.6195 45.6203 35.3711 45.6203 35.0703C45.6203 34.7695 45.7206 34.5212 45.9211 34.3252C46.1262 34.1247 46.3928 34.0244 46.7209 34.0244Z" fill="#61FAE9"/>
</svg>
