<?xml version="1.0" encoding="UTF-8"?>
<svg width="437px" height="40px" viewBox="0 0 437 40" version="1.1" xmlns="http://www.w3.org/2000/svg" xmlns:xlink="http://www.w3.org/1999/xlink">
    <title>banner</title>
    <g id="banner" stroke="none" stroke-width="1" fill="none" fill-rule="evenodd">
        <g id="Pattern" transform="translate(218.500000, 20.000000) rotate(-180.000000) translate(-218.500000, -20.000000) translate(0.000000, -199.000000)">
            <g id="Group-3" transform="translate(-0.000000, 0.000000)">
                <path d="M291,292 L291,146 L437,146 L437,292 L292,292 L292,438 L146,438 L146,292 L291,292 Z M204.876296,366.496575 L200.824193,369.391298 L196.77209,366.496575 L194.377244,370.862772 L189.470452,370.012859 L189.207192,374.985751 L184.417562,376.348983 L186.338029,380.943628 L182.614206,384.25 L186.338029,387.556372 L184.417562,392.151017 L189.207192,393.514249 L189.470452,398.487141 L194.377244,397.637228 L196.77209,402.003425 L200.824193,399.108702 L204.876296,402.003425 L207.271142,397.637228 L212.177934,398.487141 L212.441194,393.514249 L217.230824,392.151017 L215.310357,387.556372 L219.03418,384.25 L215.310357,380.943628 L217.230824,376.348983 L212.441194,374.985751 L212.177934,370.012859 L207.271142,370.862772 L204.876296,366.496575 Z M264.625,312.695036 L255.5,313.608648 L246.375,312.695036 L242.603711,321.054324 L237.25,328.5 L242.603711,335.945676 L246.375,344.304964 L255.5,343.391352 L264.625,344.304964 L268.396289,335.945676 L273.75,328.5 L268.396289,321.054324 L264.625,312.695036 Z" id="Combined-Shape" fill="#0820D6"></path>
                <path d="M365,365 L365,438 L292,438 L292,365 L365,365 Z M332.561007,383.707566 L328.5,386.608648 L324.438993,383.707566 L322.038885,388.083356 L317.121311,387.231575 L316.857472,392.215394 L312.057318,393.581622 L313.982006,398.186363 L310.25,401.5 L313.982006,404.813637 L312.057318,409.418378 L316.857472,410.784606 L317.121311,415.768425 L322.038885,414.916644 L324.438993,419.292434 L328.5,416.391352 L332.561007,419.292434 L334.961115,414.916644 L339.878689,415.768425 L340.142528,410.784606 L344.942682,409.418378 L343.017994,404.813637 L346.75,401.5 L343.017994,398.186363 L344.942682,393.581622 L340.142528,392.215394 L339.878689,387.231575 L334.961115,388.083356 L332.561007,383.707566 Z M182.5,182.5 L255.5,182.5 L255.5,255.5 L254.30486,255.490414 C214.940921,254.858571 183.147981,223.069583 182.50978,183.707188 L182.50978,183.707188 L182.5,182.5 Z M437,73 L437,219 L291,219 L291,73 L437,73 Z M401.5,91.25 C391.420803,91.25 383.25,99.4208033 383.25,109.5 C383.25,119.579197 391.420803,127.75 401.5,127.75 C411.579197,127.75 419.75,119.579197 419.75,109.5 C419.75,99.4208033 411.579197,91.25 401.5,91.25 Z M45.1425722,-1.3211654e-14 L49.9987878,8.85367587 L59.9486712,7.13024151 L60.4825043,17.2141608 L70.1948097,19.9784928 L66.3005281,29.2954116 L73.8516142,36 L66.3005281,42.7045884 L70.1948097,52.0215072 L60.4825043,54.7858392 L59.9486712,64.8697585 L49.9987878,63.1463241 L45.1425722,72 L36.9258071,66.1301467 L28.709042,72 L23.8528264,63.1463241 L13.9029429,64.8697585 L13.3691098,54.7858392 L3.65680448,52.0215072 L7.5510861,42.7045884 L2.11741735e-12,36 L7.5510861,29.2954116 L3.65680448,19.9784928 L13.3691098,17.2141608 L13.9029429,7.13024151 L23.8528264,8.85367587 L28.709042,-9.2148511e-15 L36.9258071,5.86985333 L45.1425722,-1.3211654e-14 Z M40.9779104,18.2465753 L36.9258071,21.1412975 L32.8737038,18.2465753 L30.4788577,22.6127717 L25.5720659,21.7628588 L25.3088057,26.7357505 L20.5191757,28.0989827 L22.4396433,32.6936277 L18.71582,36 L22.4396433,39.3063723 L20.5191757,43.9010173 L25.3088057,45.2642495 L25.5720659,50.2371412 L30.4788577,49.3872283 L32.8737038,53.7534247 L36.9258071,50.8587025 L40.9779104,53.7534247 L43.3727565,49.3872283 L48.2795483,50.2371412 L48.5428085,45.2642495 L53.3324385,43.9010173 L51.4119708,39.3063723 L55.1357941,36 L51.4119708,32.6936277 L53.3324385,28.0989827 L48.5428085,26.7357505 L48.2795483,21.7628588 L43.3727565,22.6127717 L40.9779104,18.2465753 Z" id="Combined-Shape" fill="#FACC5F"></path>
                <path d="M209.040958,348.25 L213.897174,357.103676 L223.847057,355.380242 L224.38089,365.464161 L234.093196,368.228493 L230.198914,377.545412 L237.75,384.25 L230.198914,390.954588 L234.093196,400.271507 L224.38089,403.035839 L223.847057,413.119758 L213.897174,411.396324 L209.040958,420.25 L200.824193,414.380147 L192.607428,420.25 L187.751212,411.396324 L177.801329,413.119758 L177.267496,403.035839 L167.55519,400.271507 L171.449472,390.954588 L163.898386,384.25 L171.449472,377.545412 L167.55519,368.228493 L177.267496,365.464161 L177.801329,355.380242 L187.751212,357.103676 L192.607428,348.25 L200.824193,354.119853 L209.040958,348.25 Z M204.876296,366.496575 L200.824193,369.391298 L196.77209,366.496575 L194.377244,370.862772 L189.470452,370.012859 L189.207192,374.985751 L184.417562,376.348983 L186.338029,380.943628 L182.614206,384.25 L186.338029,387.556372 L184.417562,392.151017 L189.207192,393.514249 L189.470452,398.487141 L194.377244,397.637228 L196.77209,402.003425 L200.824193,399.108702 L204.876296,402.003425 L207.271142,397.637228 L212.177934,398.487141 L212.441194,393.514249 L217.230824,392.151017 L215.310357,387.556372 L219.03418,384.25 L215.310357,380.943628 L217.230824,376.348983 L212.441194,374.985751 L212.177934,370.012859 L207.271142,370.862772 L204.876296,366.496575 Z M-4.26325641e-14,292 L1.20718848,292.00978 C40.5695827,292.647981 72.3585709,324.440921 72.9904145,363.80486 L73,365 L146,365 L146,401.5 L7,401.5 C3.13400675,401.5 1.56366747e-12,398.365993 1.56319402e-12,394.5 L-4.26325641e-14,292 Z M365,292 L364.99022,293.207188 C364.352019,332.569583 332.559079,364.358571 293.19514,364.990414 L292,365 L292,292 L365,292 Z M365,73 L365,219 L219,219 L219,80 C219,76.1340068 222.134007,73 226,73 L365,73 Z M266.65,91.25 L244.15,91.25 C240.364548,91.25 237.280901,94.2547834 237.154059,98.0093502 L237.15,98.25 L237.15,120.75 C237.15,124.535452 240.154783,127.619099 243.90935,127.745941 L244.15,127.75 L266.65,127.75 C270.435452,127.75 273.519099,124.745217 273.645941,120.99065 L273.65,120.75 L273.65,98.25 C273.65,94.3840068 270.515993,91.25 266.65,91.25 Z" id="Combined-Shape" fill="#2F5BEA"></path>
                <path d="M146,292 L146,438 C105.683213,438 73,405.316787 73,365 C73,324.683213 105.683213,292 146,292 L146,292 Z M437,365 L437,438 L364,438 L364,365 L437,365 Z M364,182.5 C384.158393,182.5 400.5,198.841607 400.5,219 C400.5,239.158393 384.158393,255.5 364,255.5 C343.841607,255.5 327.5,239.158393 327.5,219 C327.5,198.841607 343.841607,182.5 364,182.5 Z M401.5,44 L413.331485,52.5072671 L426.614737,58.5 L425.16297,73 L426.614737,87.5 L413.331485,93.4927329 L401.5,102 L389.668515,93.4927329 L376.385263,87.5 L377.83703,73 L376.385263,58.5 L389.668515,52.5072671 L401.5,44 Z M401.5,59.037037 L395.803359,63.1331286 L389.407719,66.0185185 L390.106718,73 L389.407719,79.9814815 L395.803359,82.8668714 L401.5,86.962963 L407.196641,82.8668714 L413.592281,79.9814815 L412.893282,73 L413.592281,66.0185185 L407.196641,63.1331286 L401.5,59.037037 Z" id="Combined-Shape" fill="#61FAE9"></path>
                <path d="M146,146 L146,292 L1.80477855e-12,292 L1.80477855e-12,153 C1.8043051e-12,149.134007 3.13400675,146 7,146 L146,146 Z M73,183 L62.9532537,191.396791 L49.8596461,191.4224 L47.5607454,204.31264 L37.5469209,212.748666 L44.071547,224.100867 L41.8230855,237 L54.1182933,241.502342 L60.6872748,252.828934 L73,248.374721 L85.3127252,252.828934 L91.8817067,241.502342 L104.176915,237 L101.928453,224.100867 L108.453079,212.748666 L98.4392546,204.31264 L96.1403539,191.4224 L83.0467463,191.396791 L73,183 Z M365,146 L365,219 L292,219 L292.00978,217.792812 C292.647981,178.430417 324.440921,146.641429 363.80486,146.009586 L365,146 Z" id="Combined-Shape" fill="#EDF3F9"></path>
            </g>
            <g id="Combined-Shape" transform="translate(292.000000, 146.000000)"></g>
        </g>
    </g>
</svg>