<svg width="185" height="185" viewBox="0 0 185 185" fill="none" xmlns="http://www.w3.org/2000/svg">
<path d="M0 92.5C0 41.4137 41.4137 0 92.5 0V0C143.586 0 185 41.4137 185 92.5V92.5C185 143.586 143.586 185 92.5 185V185C41.4137 185 0 143.586 0 92.5V92.5Z" fill="#2F5BEA"/>
<path fill-rule="evenodd" clip-rule="evenodd" d="M86.8164 129.491C83.7108 129.491 80.799 128.659 78.2911 127.207C75.7832 128.659 72.8714 129.491 69.7657 129.491C60.3489 129.491 52.7151 121.847 52.7151 112.419V83.9654C52.7151 77.6797 57.8043 72.5841 64.0822 72.5841C70.3601 72.5841 75.4493 77.6797 75.4493 83.9654V112.419C75.4493 115.305 76.5225 117.941 78.2911 119.947C80.0597 117.941 81.1329 115.305 81.1329 112.419V72.5841C81.1329 63.1555 88.7667 55.5121 98.1836 55.5121C101.289 55.5121 104.201 56.3435 106.709 57.796C109.217 56.3435 112.129 55.5121 115.234 55.5121C124.651 55.5121 132.285 63.1555 132.285 72.5841V101.037C132.285 107.323 127.196 112.419 120.918 112.419C114.64 112.419 109.551 107.323 109.551 101.037V72.5841C109.551 69.6976 108.478 67.0622 106.709 65.0558C104.94 67.0622 103.867 69.6976 103.867 72.5841V112.419C103.867 121.847 96.2333 129.491 86.8164 129.491ZM58.3986 83.9654V112.419C58.3986 118.704 63.4879 123.8 69.7657 123.8C71.0949 123.8 72.3707 123.572 73.5563 123.152C71.1857 120.219 69.7657 116.485 69.7657 112.419L69.7658 83.9654C69.7657 80.8225 67.2211 78.2747 64.0822 78.2747C60.9432 78.2747 58.3986 80.8225 58.3986 83.9654ZM115.234 72.5841C115.234 68.5176 113.814 64.7833 111.444 61.8509C112.629 61.4312 113.905 61.2028 115.234 61.2028C121.512 61.2028 126.601 66.2984 126.601 72.5841V101.037C126.601 104.18 124.057 106.728 120.918 106.728C117.779 106.728 115.234 104.18 115.234 101.037L115.234 72.5841ZM98.1836 61.2028C99.5127 61.2028 100.789 61.4312 101.974 61.8509C99.6035 64.7833 98.1836 68.5176 98.1836 72.5841V112.419C98.1836 118.704 93.0943 123.8 86.8164 123.8C85.4873 123.8 84.2115 123.572 83.0259 123.152C85.3965 120.219 86.8164 116.485 86.8164 112.419V72.5841C86.8164 66.2984 91.9057 61.2028 98.1836 61.2028Z" fill="#61FAE9"/>
</svg>
