<?xml version="1.0" encoding="UTF-8"?>
<svg width="370px" height="370px" viewBox="0 0 370 370" version="1.1" xmlns="http://www.w3.org/2000/svg" xmlns:xlink="http://www.w3.org/1999/xlink">
    <title>logo-light-blue</title>
    <g id="logo-light-blue" stroke="none" stroke-width="1" fill="none" fill-rule="evenodd" fill-opacity="0.2">
        <path d="M288.571429,236.785714 C300.011613,236.785714 309.285714,227.511613 309.285714,216.071429 L309.285714,112.5 C309.285714,89.6196318 290.737511,71.0714286 267.857143,71.0714286 C263.012197,71.0714286 258.361499,71.9031037 254.040025,73.431478 C262.481609,83.8571588 267.615292,97.0691669 267.848817,111.472354 L267.857143,112.5 L267.857143,216.071429 C267.857143,227.511613 277.131244,236.785714 288.571429,236.785714 Z M205.714286,71.0714286 C182.833918,71.0714286 164.285714,89.6196318 164.285714,112.5 L164.285714,257.5 C164.285714,272.301957 159.110565,285.895194 150.47093,296.569046 C154.791384,298.097131 159.441453,298.928571 164.285714,298.928571 C187.166082,298.928571 205.714286,280.380368 205.714286,257.5 L205.714286,112.5 C205.714286,97.6980427 210.889435,84.1048063 219.52907,73.4309537 C215.208616,71.9028687 210.558547,71.0714286 205.714286,71.0714286 Z M247.142857,112.5 C247.142857,101.993144 243.231555,92.3998221 236.785551,85.0966338 C230.339874,92.3998221 226.428571,101.993144 226.428571,112.5 L226.428571,257.5 C226.428571,291.820552 198.606267,319.642857 164.285714,319.642857 C152.966959,319.642857 142.354985,316.616767 133.214689,311.329483 C124.075202,316.616306 113.462474,319.642857 102.142857,319.642857 C68.1655104,319.642857 40.5570959,292.374216 40.0083254,258.527646 L40,257.5 L40,153.928571 C40,131.048203 58.5482032,112.5 81.4285714,112.5 C104.080136,112.5 122.485746,130.679094 122.851593,153.243474 L122.857143,153.928571 L122.857143,257.5 C122.857143,268.006818 126.768417,277.600109 133.214379,284.903287 C139.660155,277.600109 143.571429,268.006818 143.571429,257.5 L143.571429,112.5 C143.571429,78.1794477 171.393733,50.3571429 205.714286,50.3571429 C217.033041,50.3571429 227.645015,53.3832334 236.785311,58.6705172 C245.924798,53.3836941 256.537526,50.3571429 267.857143,50.3571429 C301.83449,50.3571429 329.442904,77.6257838 329.991675,111.472354 L330,112.5 L330,216.071429 C330,238.951797 311.451797,257.5 288.571429,257.5 C265.919864,257.5 247.514254,239.320906 247.148407,216.756526 L247.142857,216.071429 L247.142857,112.5 Z M81.4285714,133.214286 C69.9883873,133.214286 60.7142857,142.488387 60.7142857,153.928571 L60.7142857,257.5 C60.7142857,280.380368 79.2624889,298.928571 102.142857,298.928571 C106.987803,298.928571 111.638501,298.096896 115.959975,296.568522 C107.518572,286.14331 102.384712,272.931088 102.151183,258.527646 L102.142857,257.5 L102.142857,153.928571 C102.142857,142.488387 92.8687555,133.214286 81.4285714,133.214286 Z" id="Combined-Shape" fill="#99CAFF" transform="translate(185.000000, 185.000000) scale(-1, 1) translate(-185.000000, -185.000000) "></path>
    </g>
</svg>