<?xml version="1.0" encoding="UTF-8"?>
<svg width="32px" height="30px" viewBox="0 0 32 30" version="1.1" xmlns="http://www.w3.org/2000/svg" xmlns:xlink="http://www.w3.org/1999/xlink">
    <!-- Generator: Sketch 59.1 (86144) - https://sketch.com -->
    <title>Logo</title>
    <desc>Created with Sketch.</desc>
    <g id="Symbols" stroke="none" stroke-width="1" fill="none" fill-rule="evenodd">
        <g id="MBL/Navigation/Demos" transform="translate(-27.000000, -15.000000)" fill="#61FAE9">
            <g id="Logo/Square-2" transform="translate(23.000000, 10.000000)">
                <path d="M31.1969112,25.5984556 C32.4336879,25.5984556 33.4362934,24.59585 33.4362934,23.3590734 L33.4362934,12.1621622 C33.4362934,9.68860884 31.4310823,7.68339768 28.957529,7.68339768 C28.4336517,7.68339768 27.9307822,7.77334261 27.4635207,7.93863217 C28.3522121,9.03607966 28.9014274,10.4180499 28.9534663,11.9263089 L28.957529,12.1621622 L28.957529,23.3590734 C28.957529,24.59585 29.9601345,25.5984556 31.1969112,25.5984556 Z M22.2393822,7.68339768 C19.7658289,7.68339768 17.7606178,9.68860884 17.7606178,12.1621622 L17.7606178,27.8378378 C17.7606178,29.437722 17.2013711,30.9069872 16.2677008,32.0608102 C16.733871,32.2266574 17.2367405,32.3166023 17.7606178,32.3166023 C20.2341711,32.3166023 22.2393822,30.3113912 22.2393822,27.8378378 L22.2393822,12.1621622 C22.2393822,10.562278 22.7986289,9.09301282 23.7322992,7.93918979 C23.266129,7.77334261 22.7632595,7.68339768 22.2393822,7.68339768 Z M26.7181467,12.1621622 C26.7181467,11.0265209 26.2954782,9.98959922 25.5988706,9.20012629 C24.901433,9.98959922 24.4787645,11.0265209 24.4787645,12.1621622 L24.4787645,27.8378378 C24.4787645,31.5481678 21.4709477,34.5559846 17.7606178,34.5559846 C16.5367916,34.5559846 15.3893964,34.228745 14.4011595,33.6569935 C13.4140759,34.2286357 12.2665017,34.5559846 11.042471,34.5559846 C7.41108425,34.5559846 4.45263455,31.6747984 4.32838698,28.0736911 L4.32432432,27.8378378 L4.32432432,16.6409266 C4.32432432,14.1673733 6.32953548,12.1621622 8.8030888,12.1621622 C11.2059692,12.1621622 13.1668875,14.0544267 13.2769784,16.4300906 L13.2818533,16.6409266 L13.2818533,27.8378378 C13.2818533,28.9734791 13.7045218,30.0104008 14.4011294,30.7998737 C15.098567,30.0104008 15.5212355,28.9734791 15.5212355,27.8378378 L15.5212355,12.1621622 C15.5212355,8.45183218 18.5290523,5.44401544 22.2393822,5.44401544 C23.4634129,5.44401544 24.6109871,5.77136433 25.5993359,6.34329317 C26.5863076,5.77125496 27.7337028,5.44401544 28.957529,5.44401544 C32.5889157,5.44401544 35.5473655,8.3252016 35.671613,11.9263089 L35.6756757,12.1621622 L35.6756757,23.3590734 C35.6756757,25.8326267 33.6704645,27.8378378 31.1969112,27.8378378 C28.7940308,27.8378378 26.8331125,25.9455733 26.7230216,23.5699094 L26.7181467,23.3590734 L26.7181467,12.1621622 Z M8.8030888,14.4015444 C7.56631214,14.4015444 6.56370656,15.40415 6.56370656,16.6409266 L6.56370656,27.8378378 C6.56370656,30.3113912 8.56891772,32.3166023 11.042471,32.3166023 C11.5663483,32.3166023 12.0692178,32.2266574 12.5364793,32.0613678 C11.6477879,30.9639203 11.0985726,29.5819501 11.0465337,28.0736911 L11.042471,27.8378378 L11.042471,16.6409266 C11.042471,15.40415 10.0398655,14.4015444 8.8030888,14.4015444 Z" id="Combined-Shape"></path>
            </g>
        </g>
    </g>
</svg>