<?xml version="1.0" encoding="UTF-8"?>
<svg width="370px" height="370px" viewBox="0 0 370 370" version="1.1" xmlns="http://www.w3.org/2000/svg" xmlns:xlink="http://www.w3.org/1999/xlink">
    <!-- Generator: Sketch 60 (88103) - https://sketch.com -->
    <title>mark</title>
    <desc>Created with Sketch.</desc>
    <defs>
        <circle id="path-1" cx="185" cy="185" r="185"></circle>
    </defs>
    <g id="mark" stroke="none" stroke-width="1" fill="none" fill-rule="evenodd">
        <mask id="mask-2" fill="white">
            <use xlink:href="#path-1"></use>
        </mask>
        <use id="Mask" fill="#2F5BEA" xlink:href="#path-1"></use>
        <path d="M240.545455,205.769231 C240.545455,213.41625 246.732065,219.615385 254.363636,219.615385 C261.995207,219.615385 268.181818,213.41625 268.181818,205.769231 L268.181818,136.538462 C268.181818,121.244422 255.808597,108.846154 240.545455,108.846154 C237.15553,108.846154 233.908158,109.457734 230.907236,110.576788 C236.464182,117.522325 239.839809,126.294648 239.994446,135.851547 L240,136.538462 L240,205.769231 L240.545455,205.769231 Z M198.545455,108.846154 C183.282312,108.846154 170.909091,121.244422 170.909091,136.538462 L170.909091,233.461538 C170.909091,243.2849 167.506048,252.311829 161.816803,259.423226 C164.817249,260.542266 168.06462,261.153846 171.454545,261.153846 C186.717688,261.153846 199.090909,248.755578 199.090909,233.461538 L199.090909,136.538462 C199.090909,126.7151 202.493952,117.688171 208.183197,110.576774 C205.182751,109.457734 201.93538,108.846154 198.545455,108.846154 Z M226.181818,205.769231 L226.181818,136.538462 C226.181818,129.665085 223.682747,123.376579 219.545406,118.535489 C215.408162,123.376579 212.909091,129.665085 212.909091,136.538462 L212.909091,233.461538 C212.909091,256.402597 194.349259,275 171.454545,275 C163.790373,275 156.611978,272.91593 150.452991,269.2825 C144.295867,272.916291 137.118053,275 129.454545,275 C106.788779,275 88.3716301,256.772686 88.0055537,234.148453 L88,233.461538 L88,164.230769 C88,148.93673 100.373221,136.538462 115.636364,136.538462 C130.746874,136.538462 143.024974,148.690004 143.269025,163.772826 L143.272727,164.230769 L143.818182,164.230769 L143.818182,233.461538 C143.818182,240.334915 146.317253,246.623421 150.454594,251.464511 C154.591838,246.623421 157.090909,240.334915 157.090909,233.461538 L157.090909,136.538462 C157.090909,113.597403 175.650741,95 198.545455,95 C206.209627,95 213.388022,97.0840705 219.547009,100.7175 C225.704133,97.083709 232.881947,95 240.545455,95 C263.211221,95 281.62837,113.227314 281.994446,135.851547 L282,136.538462 L282,205.769231 C282,221.06327 269.626779,233.461538 254.363636,233.461538 C239.253126,233.461538 226.975026,221.309996 226.730975,206.227174 L226.727273,205.769231 L226.181818,205.769231 Z M129.454545,164.230769 C129.454545,156.58375 123.267935,150.384615 115.636364,150.384615 C108.004793,150.384615 101.818182,156.58375 101.818182,164.230769 L101.818182,233.461538 C101.818182,248.755578 114.191403,261.153846 129.454545,261.153846 C132.84447,261.153846 136.091842,260.542266 139.092764,259.423212 C133.535818,252.477675 130.160191,243.705352 130.005554,234.148453 L130,233.461538 L130,164.230769 L129.454545,164.230769 Z" id="Combined-Shape" fill="#61FAE9" mask="url(#mask-2)"></path>
    </g>
</svg>