<svg width="185" height="185" viewBox="0 0 185 185" fill="none" xmlns="http://www.w3.org/2000/svg">
<rect width="185" height="185" fill="#2F5BEA"/>
<path fill-rule="evenodd" clip-rule="evenodd" d="M86.8164 129.49C83.7108 129.49 80.799 128.659 78.2911 127.206C75.7832 128.659 72.8714 129.49 69.7657 129.49C60.3489 129.49 52.7151 121.847 52.7151 112.418V83.9652C52.7151 77.6794 57.8043 72.5839 64.0822 72.5839C70.3601 72.5839 75.4493 77.6794 75.4493 83.9652V112.418C75.4493 115.305 76.5225 117.94 78.2911 119.947C80.0597 117.94 81.1329 115.305 81.1329 112.418V72.5839C81.1329 63.1553 88.7667 55.5119 98.1836 55.5119C101.289 55.5119 104.201 56.3433 106.709 57.7958C109.217 56.3433 112.129 55.5119 115.234 55.5119C124.651 55.5119 132.285 63.1553 132.285 72.5839V101.037C132.285 107.323 127.196 112.418 120.918 112.418C114.64 112.418 109.551 107.323 109.551 101.037V72.5839C109.551 69.6974 108.478 67.062 106.709 65.0556C104.94 67.062 103.867 69.6974 103.867 72.5839V112.418C103.867 121.847 96.2333 129.49 86.8164 129.49ZM58.3986 83.9652V112.418C58.3986 118.704 63.4879 123.8 69.7657 123.8C71.0949 123.8 72.3707 123.571 73.5563 123.152C71.1857 120.219 69.7657 116.485 69.7657 112.418L69.7658 83.9652C69.7657 80.8223 67.2211 78.2745 64.0822 78.2745C60.9432 78.2745 58.3986 80.8223 58.3986 83.9652ZM115.234 72.5839C115.234 68.5174 113.814 64.783 111.444 61.8507C112.629 61.431 113.905 61.2026 115.234 61.2026C121.512 61.2026 126.601 66.2981 126.601 72.5839V101.037C126.601 104.18 124.057 106.728 120.918 106.728C117.779 106.728 115.234 104.18 115.234 101.037L115.234 72.5839ZM98.1836 61.2026C99.5127 61.2026 100.789 61.431 101.974 61.8507C99.6035 64.783 98.1836 68.5174 98.1836 72.5839V112.418C98.1836 118.704 93.0943 123.8 86.8164 123.8C85.4873 123.8 84.2115 123.571 83.0259 123.152C85.3965 120.219 86.8164 116.485 86.8164 112.418V72.5839C86.8164 66.2981 91.9057 61.2026 98.1836 61.2026Z" fill="#61FAE9"/>
</svg>
