<svg width="375" height="488" viewBox="0 0 375 488" fill="none" xmlns="http://www.w3.org/2000/svg">
<g clip-path="url(#clip0)">
<g clip-path="url(#clip1)">
<path d="M316.567 -245.133C343.321 -245.133 365.01 -223.599 365.01 -197.036V427.392C365.01 453.956 343.321 475.489 316.567 475.489H58.4838C31.7296 475.489 10.041 453.956 10.041 427.392V-197.036C10.041 -223.599 31.7296 -245.133 58.4838 -245.133H316.567Z" fill="white" stroke="#2F5BEA" stroke-width="2"/>
<path fill-rule="evenodd" clip-rule="evenodd" d="M92.8783 -223.212C85.9523 -223.183 73.3894 -222.968 55.1998 -222.565C41.5276 -222.263 30.5764 -211.345 30.3588 -197.899L30.3555 -197.491V428.49C30.3555 442.203 41.5073 453.346 55.3491 453.568L55.7694 453.571H319.227C333.123 453.571 344.413 442.565 344.638 428.905L344.641 428.49V-197.484C344.641 -211.119 333.605 -222.256 319.792 -222.559L306.985 -222.829C295.663 -223.055 287.415 -223.182 282.243 -223.209L280.974 -223.214L280.286 -223.215C276.945 -223.215 276.071 -221.925 275.292 -216.617L274.926 -214.036C274.848 -213.52 274.785 -213.152 274.694 -212.664C273.075 -203.942 268.156 -199.469 256.177 -199.373L120.357 -199.372C107.515 -199.436 102.053 -203.815 100.184 -212.35L100.028 -213.108C99.9453 -213.527 99.8771 -213.916 99.7888 -214.473L99.4267 -216.853C98.6326 -221.892 97.7716 -223.17 94.5376 -223.214L92.8783 -223.212Z" fill="#EDF3F9"/>
<g opacity="0.4">
<mask id="mask0" mask-type="alpha" maskUnits="userSpaceOnUse" x="30" y="-219" width="315" height="673">
<path fill-rule="evenodd" clip-rule="evenodd" d="M92.929 -218.747C85.9979 -218.719 73.4259 -218.504 55.2229 -218.104C41.5407 -217.804 30.5815 -206.954 30.3637 -193.591L30.3604 -193.186V428.905C30.3604 442.534 41.5203 453.607 55.3723 453.827L55.7929 453.831H319.444C333.349 453.831 344.648 442.893 344.873 429.318L344.876 428.905V-193.179C344.876 -206.729 333.832 -217.797 320.01 -218.098L307.192 -218.366C295.863 -218.591 287.608 -218.717 282.432 -218.744L281.162 -218.749L280.475 -218.75C277.131 -218.75 276.256 -217.468 275.477 -212.193L275.11 -209.628C275.032 -209.116 274.969 -208.75 274.878 -208.265C273.258 -199.597 268.335 -195.152 256.348 -195.056L120.428 -195.055C107.577 -195.119 102.11 -199.471 100.24 -207.952L100.084 -208.706C100.001 -209.122 99.9329 -209.509 99.8446 -210.063L99.4822 -212.427C98.6875 -217.435 97.8259 -218.705 94.5895 -218.749L92.929 -218.747Z" fill="#EDF3F9"/>
</mask>
<g mask="url(#mask0)">
<rect width="315.179" height="250" transform="translate(30 203.572)" fill="#EDF3F9"/>
<g filter="url(#filter0_d)">
<path d="M30 210.572C30 206.706 33.134 203.572 37 203.572H338.179C342.045 203.572 345.179 206.706 345.179 210.572V453.572H30V210.572Z" fill="white"/>
<path fill-rule="evenodd" clip-rule="evenodd" d="M138.8 410.473C138.8 410.169 138.687 409.891 138.5 409.679C138.314 409.891 138.201 410.169 138.2 410.473L138.8 410.473ZM139.4 410.473V413.372C139.4 413.731 139.669 414.022 140 414.022C140.326 414.022 140.592 413.741 140.6 413.39V410.473C140.6 409.81 140.063 409.273 139.4 409.273C139.26 409.273 139.125 409.297 139 409.341C139.25 409.65 139.4 410.044 139.4 410.473Z" fill="#2C363F"/>
<path fill-rule="evenodd" clip-rule="evenodd" d="M137.6 414.672V410.473C137.6 410.044 137.75 409.65 138 409.341C137.875 409.297 137.74 409.273 137.6 409.273C136.937 409.273 136.4 409.81 136.4 410.473L136.4 414.673C136.4 415.101 136.25 415.495 136 415.804C136.125 415.849 136.26 415.873 136.4 415.873C137.063 415.873 137.6 415.335 137.6 414.672Z" fill="#2C363F"/>
<path d="M134.6 414.672V411.773C134.6 411.414 134.331 411.123 134 411.123C133.674 411.123 133.409 411.404 133.4 411.755V414.673C133.4 415.335 133.937 415.873 134.6 415.873C134.74 415.873 134.875 415.848 135 415.804C134.75 415.495 134.6 415.101 134.6 414.672Z" fill="#2C363F"/>
<path d="M135.2 414.672C135.2 414.976 135.313 415.255 135.5 415.466C135.686 415.255 135.8 414.977 135.8 414.673L135.2 414.672Z" fill="#2C363F"/>
<path fill-rule="evenodd" clip-rule="evenodd" d="M144 412.572C144 416.438 140.866 419.572 137 419.572C133.134 419.572 130 416.438 130 412.572C130 408.706 133.134 405.572 137 405.572C140.866 405.572 144 408.706 144 412.572ZM138.5 408.914C138.235 408.76 137.928 408.673 137.6 408.673C136.606 408.673 135.8 409.479 135.8 410.473V414.673L135.2 414.672V411.672H135.196C135.149 411.001 134.631 410.473 134 410.473C133.368 410.473 132.851 411.002 132.803 411.673H132.8V414.673C132.8 415.667 133.606 416.473 134.6 416.473C134.928 416.473 135.236 416.385 135.5 416.232C135.765 416.385 136.073 416.473 136.4 416.473C137.395 416.473 138.2 415.666 138.2 414.672V410.473L138.8 410.473V413.473H138.804C138.851 414.144 139.369 414.672 140 414.672C140.632 414.672 141.149 414.144 141.197 413.473H141.2V410.473C141.2 409.478 140.394 408.673 139.4 408.673C139.072 408.673 138.765 408.76 138.5 408.914Z" fill="#2C363F"/>
<path opacity="0.5" d="M153.632 413.748C153.632 414.471 153.466 415.054 153.135 415.497C152.804 415.939 152.356 416.16 151.791 416.16C151.213 416.16 150.759 415.977 150.428 415.611V417.9H149.615V411.317H150.358L150.397 411.845C150.729 411.435 151.188 411.229 151.777 411.229C152.349 411.229 152.8 411.445 153.131 411.875C153.465 412.306 153.632 412.905 153.632 413.673V413.748ZM152.819 413.655C152.819 413.119 152.705 412.696 152.476 412.385C152.248 412.075 151.934 411.919 151.536 411.919C151.043 411.919 150.674 412.138 150.428 412.574V414.846C150.671 415.28 151.043 415.497 151.544 415.497C151.934 415.497 152.243 415.343 152.472 415.035C152.703 414.725 152.819 414.265 152.819 413.655ZM154.555 413.651C154.555 413.185 154.646 412.766 154.828 412.394C155.012 412.022 155.267 411.735 155.592 411.533C155.921 411.331 156.294 411.229 156.713 411.229C157.36 411.229 157.883 411.454 158.282 411.902C158.683 412.35 158.884 412.946 158.884 413.69V413.748C158.884 414.21 158.795 414.626 158.616 414.996C158.44 415.362 158.187 415.647 157.856 415.853C157.527 416.058 157.15 416.16 156.722 416.16C156.077 416.16 155.554 415.936 155.153 415.488C154.755 415.04 154.555 414.446 154.555 413.708V413.651ZM155.373 413.748C155.373 414.275 155.494 414.698 155.737 415.018C155.984 415.337 156.312 415.497 156.722 415.497C157.135 415.497 157.463 415.335 157.706 415.013C157.949 414.688 158.071 414.234 158.071 413.651C158.071 413.129 157.946 412.708 157.697 412.385C157.451 412.06 157.123 411.897 156.713 411.897C156.312 411.897 155.988 412.057 155.742 412.376C155.496 412.696 155.373 413.153 155.373 413.748ZM164.215 414.952L165.129 411.317H165.942L164.558 416.072H163.899L162.743 412.469L161.618 416.072H160.959L159.579 411.317H160.387L161.323 414.877L162.431 411.317H163.086L164.215 414.952ZM168.848 416.16C168.203 416.16 167.679 415.949 167.274 415.527C166.87 415.103 166.668 414.536 166.668 413.827V413.677C166.668 413.206 166.757 412.785 166.936 412.416C167.118 412.044 167.37 411.754 167.692 411.546C168.017 411.335 168.369 411.229 168.746 411.229C169.365 411.229 169.845 411.433 170.188 411.84C170.531 412.248 170.702 412.831 170.702 413.589V413.928H167.481C167.493 414.396 167.629 414.776 167.89 415.066C168.153 415.353 168.487 415.497 168.891 415.497C169.179 415.497 169.422 415.438 169.621 415.321C169.82 415.204 169.995 415.048 170.144 414.855L170.641 415.242C170.242 415.854 169.644 416.16 168.848 416.16ZM168.746 411.897C168.418 411.897 168.143 412.018 167.92 412.258C167.698 412.495 167.56 412.829 167.507 413.26H169.889V413.198C169.866 412.785 169.754 412.466 169.555 412.24C169.356 412.012 169.086 411.897 168.746 411.897ZM174.047 412.047C173.924 412.026 173.791 412.016 173.647 412.016C173.114 412.016 172.752 412.243 172.562 412.697V416.072H171.749V411.317H172.54L172.553 411.867C172.819 411.442 173.197 411.229 173.687 411.229C173.845 411.229 173.965 411.25 174.047 411.291V412.047ZM176.785 416.16C176.141 416.16 175.616 415.949 175.212 415.527C174.808 415.103 174.606 414.536 174.606 413.827V413.677C174.606 413.206 174.695 412.785 174.874 412.416C175.055 412.044 175.307 411.754 175.63 411.546C175.955 411.335 176.306 411.229 176.684 411.229C177.302 411.229 177.783 411.433 178.126 411.84C178.468 412.248 178.64 412.831 178.64 413.589V413.928H175.419C175.43 414.396 175.567 414.776 175.827 415.066C176.091 415.353 176.425 415.497 176.829 415.497C177.116 415.497 177.36 415.438 177.559 415.321C177.758 415.204 177.932 415.048 178.082 414.855L178.578 415.242C178.18 415.854 177.582 416.16 176.785 416.16ZM176.684 411.897C176.356 411.897 176.081 412.018 175.858 412.258C175.635 412.495 175.498 412.829 175.445 413.26H177.827V413.198C177.803 412.785 177.692 412.466 177.493 412.24C177.294 412.012 177.024 411.897 176.684 411.897ZM179.489 413.655C179.489 412.926 179.661 412.34 180.007 411.897C180.353 411.452 180.805 411.229 181.365 411.229C181.922 411.229 182.363 411.42 182.688 411.801V409.322H183.501V416.072H182.754L182.714 415.562C182.389 415.961 181.936 416.16 181.356 416.16C180.805 416.16 180.356 415.935 180.007 415.483C179.661 415.032 179.489 414.443 179.489 413.717V413.655ZM180.302 413.748C180.302 414.287 180.413 414.708 180.636 415.013C180.858 415.318 181.166 415.47 181.558 415.47C182.074 415.47 182.45 415.239 182.688 414.776V412.592C182.445 412.144 182.071 411.919 181.567 411.919C181.169 411.919 180.858 412.073 180.636 412.381C180.413 412.688 180.302 413.144 180.302 413.748ZM191.228 413.748C191.228 414.474 191.061 415.059 190.727 415.501C190.393 415.94 189.944 416.16 189.382 416.16C188.781 416.16 188.317 415.948 187.989 415.523L187.949 416.072H187.202V409.322H188.015V411.84C188.343 411.433 188.796 411.229 189.373 411.229C189.95 411.229 190.403 411.448 190.731 411.884C191.062 412.321 191.228 412.918 191.228 413.677V413.748ZM190.415 413.655C190.415 413.102 190.308 412.674 190.094 412.372C189.88 412.07 189.572 411.919 189.171 411.919C188.635 411.919 188.25 412.168 188.015 412.667V414.723C188.264 415.221 188.652 415.47 189.18 415.47C189.569 415.47 189.873 415.319 190.089 415.018C190.306 414.716 190.415 414.262 190.415 413.655ZM193.861 414.881L194.968 411.317H195.838L193.926 416.806C193.631 417.597 193.16 417.993 192.516 417.993L192.362 417.979L192.059 417.922V417.263L192.278 417.281C192.554 417.281 192.768 417.225 192.92 417.114C193.075 417.002 193.203 416.799 193.302 416.503L193.483 416.02L191.786 411.317H192.674L193.861 414.881ZM201.016 413.22C200.292 413.012 199.765 412.757 199.434 412.456C199.106 412.151 198.942 411.776 198.942 411.331C198.942 410.827 199.142 410.411 199.544 410.083C199.948 409.751 200.473 409.586 201.117 409.586C201.557 409.586 201.948 409.671 202.29 409.841C202.636 410.011 202.903 410.245 203.09 410.544C203.281 410.843 203.376 411.169 203.376 411.524H202.528C202.528 411.137 202.405 410.834 202.159 410.614C201.913 410.392 201.565 410.28 201.117 410.28C200.701 410.28 200.376 410.373 200.142 410.557C199.91 410.739 199.794 410.992 199.794 411.317C199.794 411.578 199.904 411.799 200.124 411.981C200.347 412.16 200.723 412.324 201.253 412.473C201.787 412.623 202.203 412.788 202.501 412.97C202.803 413.148 203.026 413.358 203.169 413.598C203.316 413.838 203.389 414.121 203.389 414.446C203.389 414.965 203.187 415.381 202.783 415.694C202.378 416.005 201.838 416.16 201.161 416.16C200.722 416.16 200.311 416.077 199.931 415.91C199.55 415.74 199.255 415.508 199.047 415.215C198.842 414.922 198.74 414.59 198.74 414.218H199.588C199.588 414.604 199.73 414.911 200.014 415.136C200.301 415.359 200.684 415.47 201.161 415.47C201.606 415.47 201.948 415.379 202.185 415.198C202.422 415.016 202.541 414.769 202.541 414.455C202.541 414.142 202.431 413.9 202.211 413.73C201.992 413.557 201.593 413.387 201.016 413.22ZM208.465 413.748C208.465 414.471 208.3 415.054 207.969 415.497C207.638 415.939 207.189 416.16 206.624 416.16C206.047 416.16 205.593 415.977 205.262 415.611V417.9H204.449V411.317H205.191L205.231 411.845C205.562 411.435 206.022 411.229 206.611 411.229C207.182 411.229 207.633 411.445 207.964 411.875C208.298 412.306 208.465 412.905 208.465 413.673V413.748ZM207.652 413.655C207.652 413.119 207.538 412.696 207.31 412.385C207.081 412.075 206.768 411.919 206.369 411.919C205.877 411.919 205.508 412.138 205.262 412.574V414.846C205.505 415.28 205.877 415.497 206.378 415.497C206.768 415.497 207.077 415.343 207.305 415.035C207.537 414.725 207.652 414.265 207.652 413.655ZM209.389 413.651C209.389 413.185 209.48 412.766 209.661 412.394C209.846 412.022 210.101 411.735 210.426 411.533C210.754 411.331 211.128 411.229 211.547 411.229C212.194 411.229 212.717 411.454 213.115 411.902C213.517 412.35 213.717 412.946 213.717 413.69V413.748C213.717 414.21 213.628 414.626 213.449 414.996C213.274 415.362 213.02 415.647 212.689 415.853C212.361 416.058 211.983 416.16 211.555 416.16C210.911 416.16 210.388 415.936 209.986 415.488C209.588 415.04 209.389 414.446 209.389 413.708V413.651ZM210.206 413.748C210.206 414.275 210.328 414.698 210.571 415.018C210.817 415.337 211.145 415.497 211.555 415.497C211.968 415.497 212.297 415.335 212.54 415.013C212.783 414.688 212.904 414.234 212.904 413.651C212.904 413.129 212.78 412.708 212.531 412.385C212.285 412.06 211.957 411.897 211.547 411.897C211.145 411.897 210.821 412.057 210.575 412.376C210.329 412.696 210.206 413.153 210.206 413.748ZM216.166 413.871L215.656 414.402V416.072H214.843V409.322H215.656V413.405L216.091 412.882L217.572 411.317H218.561L216.711 413.304L218.776 416.072H217.823L216.166 413.871ZM221.387 416.16C220.743 416.16 220.218 415.949 219.814 415.527C219.41 415.103 219.207 414.536 219.207 413.827V413.677C219.207 413.206 219.297 412.785 219.476 412.416C219.657 412.044 219.909 411.754 220.231 411.546C220.557 411.335 220.908 411.229 221.286 411.229C221.904 411.229 222.385 411.433 222.727 411.84C223.07 412.248 223.242 412.831 223.242 413.589V413.928H220.02C220.032 414.396 220.168 414.776 220.429 415.066C220.693 415.353 221.027 415.497 221.431 415.497C221.718 415.497 221.961 415.438 222.161 415.321C222.36 415.204 222.534 415.048 222.684 414.855L223.18 415.242C222.782 415.854 222.184 416.16 221.387 416.16ZM221.286 411.897C220.958 411.897 220.683 412.018 220.46 412.258C220.237 412.495 220.1 412.829 220.047 413.26H222.429V413.198C222.405 412.785 222.294 412.466 222.095 412.24C221.895 412.012 221.626 411.897 221.286 411.897ZM227.057 414.811C227.057 414.591 226.973 414.421 226.806 414.301C226.642 414.178 226.354 414.073 225.94 413.985C225.53 413.897 225.204 413.792 224.961 413.668C224.72 413.545 224.542 413.399 224.424 413.229C224.31 413.059 224.253 412.857 224.253 412.623C224.253 412.233 224.417 411.903 224.745 411.634C225.076 411.364 225.498 411.229 226.011 411.229C226.55 411.229 226.986 411.369 227.32 411.647C227.657 411.925 227.826 412.281 227.826 412.715H227.008C227.008 412.492 226.913 412.3 226.723 412.139C226.535 411.978 226.298 411.897 226.011 411.897C225.715 411.897 225.483 411.962 225.316 412.091C225.149 412.22 225.066 412.388 225.066 412.596C225.066 412.792 225.144 412.94 225.299 413.04C225.454 413.14 225.734 413.235 226.138 413.326C226.545 413.417 226.875 413.525 227.127 413.651C227.379 413.777 227.565 413.929 227.685 414.108C227.808 414.284 227.87 414.499 227.87 414.754C227.87 415.179 227.7 415.52 227.36 415.778C227.02 416.033 226.579 416.16 226.037 416.16C225.656 416.16 225.319 416.093 225.026 415.958C224.733 415.823 224.503 415.636 224.336 415.396C224.172 415.152 224.09 414.89 224.09 414.609H224.903C224.918 414.881 225.026 415.098 225.229 415.259C225.434 415.417 225.703 415.497 226.037 415.497C226.345 415.497 226.591 415.435 226.775 415.312C226.963 415.186 227.057 415.019 227.057 414.811ZM230.133 410.166V411.317H231.021V411.946H230.133V414.895C230.133 415.085 230.173 415.229 230.252 415.325C230.331 415.419 230.466 415.466 230.656 415.466C230.75 415.466 230.879 415.448 231.043 415.413V416.072C230.829 416.131 230.621 416.16 230.419 416.16C230.056 416.16 229.782 416.05 229.597 415.831C229.413 415.611 229.32 415.299 229.32 414.895V411.946H228.455V411.317H229.32V410.166H230.133ZM235.012 416.072C234.965 415.979 234.927 415.812 234.898 415.571C234.52 415.964 234.069 416.16 233.544 416.16C233.076 416.16 232.69 416.028 232.388 415.765C232.09 415.498 231.94 415.161 231.94 414.754C231.94 414.259 232.128 413.875 232.503 413.603C232.881 413.327 233.411 413.189 234.094 413.189H234.885V412.816C234.885 412.532 234.8 412.306 234.63 412.139C234.46 411.969 234.209 411.884 233.878 411.884C233.588 411.884 233.345 411.958 233.149 412.104C232.952 412.25 232.854 412.428 232.854 412.636H232.037C232.037 412.398 232.12 412.17 232.287 411.95C232.457 411.728 232.686 411.552 232.973 411.423C233.263 411.294 233.581 411.229 233.927 411.229C234.474 411.229 234.904 411.367 235.214 411.643C235.525 411.915 235.686 412.292 235.698 412.772V414.96C235.698 415.397 235.753 415.744 235.865 416.002V416.072H235.012ZM233.663 415.453C233.918 415.453 234.159 415.387 234.388 415.255C234.617 415.123 234.782 414.952 234.885 414.741V413.765H234.247C233.251 413.765 232.753 414.057 232.753 414.64C232.753 414.895 232.838 415.094 233.008 415.237C233.178 415.381 233.396 415.453 233.663 415.453ZM238.981 415.497C239.271 415.497 239.524 415.409 239.741 415.233C239.958 415.057 240.078 414.837 240.102 414.574H240.871C240.856 414.846 240.762 415.105 240.589 415.352C240.416 415.598 240.185 415.794 239.895 415.94C239.608 416.087 239.303 416.16 238.981 416.16C238.333 416.16 237.818 415.945 237.434 415.514C237.053 415.081 236.863 414.489 236.863 413.739V413.603C236.863 413.14 236.948 412.728 237.118 412.368C237.288 412.007 237.531 411.728 237.847 411.528C238.166 411.329 238.543 411.229 238.977 411.229C239.51 411.229 239.952 411.389 240.304 411.708C240.658 412.028 240.847 412.442 240.871 412.952H240.102C240.078 412.645 239.961 412.393 239.75 412.196C239.542 411.997 239.284 411.897 238.977 411.897C238.563 411.897 238.243 412.047 238.014 412.346C237.789 412.642 237.676 413.071 237.676 413.633V413.787C237.676 414.335 237.789 414.757 238.014 415.053C238.24 415.349 238.562 415.497 238.981 415.497ZM243.213 413.871L242.704 414.402V416.072H241.891V409.322H242.704V413.405L243.139 412.882L244.62 411.317H245.608L243.758 413.304L245.824 416.072H244.87L243.213 413.871Z" fill="#2C363F"/>
<rect x="121" y="440.572" width="134" height="5" rx="2.5" fill="black"/>
<g clip-path="url(#clip2)">
<rect width="315" height="135" transform="translate(30 260.572)" fill="white"/>
<g clip-path="url(#clip3)">
<rect x="49.6426" y="333" width="241" height="63" rx="7" fill="#CCE4FF"/>
<path d="M78.2939 356.402H74.124L73.1875 359H71.834L75.6348 349.047H76.7832L80.5908 359H79.2441L78.2939 356.402ZM74.5205 355.322H77.9043L76.209 350.667L74.5205 355.322ZM86.0391 357.038C86.0391 356.696 85.9092 356.432 85.6494 356.245C85.3942 356.054 84.9453 355.89 84.3027 355.753C83.6647 355.616 83.1566 355.452 82.7783 355.261C82.4046 355.069 82.1266 354.841 81.9443 354.577C81.7666 354.313 81.6777 353.998 81.6777 353.634C81.6777 353.028 81.9329 352.515 82.4434 352.096C82.9583 351.676 83.6146 351.467 84.4121 351.467C85.2507 351.467 85.9297 351.683 86.4492 352.116C86.9733 352.549 87.2354 353.103 87.2354 353.777H85.9639C85.9639 353.431 85.8158 353.132 85.5195 352.882C85.2279 352.631 84.8587 352.506 84.4121 352.506C83.9518 352.506 83.5918 352.606 83.332 352.807C83.0723 353.007 82.9424 353.269 82.9424 353.593C82.9424 353.898 83.0632 354.128 83.3047 354.283C83.5462 354.438 83.9814 354.586 84.6104 354.728C85.2438 354.869 85.7565 355.037 86.1484 355.233C86.5404 355.429 86.8298 355.666 87.0166 355.944C87.208 356.218 87.3037 356.553 87.3037 356.949C87.3037 357.61 87.0394 358.141 86.5107 358.542C85.9821 358.938 85.2962 359.137 84.4531 359.137C83.8607 359.137 83.3366 359.032 82.8809 358.822C82.4251 358.613 82.0674 358.321 81.8076 357.947C81.5524 357.569 81.4248 357.161 81.4248 356.724H82.6895C82.7122 357.147 82.8809 357.485 83.1953 357.735C83.5143 357.981 83.9336 358.104 84.4531 358.104C84.9316 358.104 85.3145 358.009 85.6016 357.817C85.8932 357.621 86.0391 357.362 86.0391 357.038ZM91.0156 355.575L90.2227 356.402V359H88.958V348.5H90.2227V354.851L90.8994 354.037L93.2031 351.604H94.7412L91.8633 354.693L95.0762 359H93.5928L91.0156 355.575ZM100.709 351.604L100.743 352.424C101.285 351.786 102.017 351.467 102.938 351.467C103.972 351.467 104.676 351.863 105.05 352.656C105.296 352.301 105.615 352.014 106.007 351.795C106.403 351.576 106.87 351.467 107.408 351.467C109.031 351.467 109.855 352.326 109.883 354.044V359H108.618V354.119C108.618 353.59 108.497 353.196 108.256 352.937C108.014 352.672 107.609 352.54 107.039 352.54C106.57 352.54 106.18 352.681 105.87 352.964C105.56 353.242 105.38 353.618 105.33 354.092V359H104.059V354.153C104.059 353.078 103.532 352.54 102.479 352.54C101.65 352.54 101.083 352.893 100.777 353.6V359H99.5127V351.604H100.709ZM114.866 359.137C113.864 359.137 113.048 358.809 112.419 358.152C111.79 357.492 111.476 356.61 111.476 355.507V355.274C111.476 354.541 111.615 353.887 111.893 353.312C112.175 352.734 112.567 352.283 113.068 351.959C113.574 351.631 114.121 351.467 114.709 351.467C115.671 351.467 116.418 351.784 116.951 352.417C117.484 353.05 117.751 353.957 117.751 355.138V355.664H112.74C112.758 356.393 112.97 356.983 113.376 357.435C113.786 357.881 114.306 358.104 114.935 358.104C115.381 358.104 115.759 358.013 116.069 357.831C116.379 357.649 116.65 357.407 116.883 357.106L117.655 357.708C117.035 358.66 116.106 359.137 114.866 359.137ZM114.709 352.506C114.199 352.506 113.77 352.693 113.424 353.066C113.077 353.436 112.863 353.955 112.781 354.625H116.486V354.529C116.45 353.887 116.277 353.39 115.967 353.039C115.657 352.684 115.238 352.506 114.709 352.506ZM123.315 359V352.581H122.146V351.604H123.315V350.845C123.315 350.052 123.527 349.439 123.951 349.006C124.375 348.573 124.974 348.356 125.749 348.356C126.041 348.356 126.33 348.395 126.617 348.473L126.549 349.498C126.335 349.457 126.107 349.437 125.865 349.437C125.455 349.437 125.138 349.557 124.915 349.799C124.692 350.036 124.58 350.378 124.58 350.824V351.604H126.159V352.581H124.58V359H123.315ZM127.226 355.233C127.226 354.509 127.367 353.857 127.649 353.278C127.937 352.7 128.333 352.253 128.839 351.938C129.349 351.624 129.93 351.467 130.582 351.467C131.589 351.467 132.403 351.815 133.022 352.513C133.647 353.21 133.959 354.137 133.959 355.295V355.384C133.959 356.104 133.82 356.751 133.542 357.325C133.269 357.895 132.874 358.339 132.359 358.658C131.849 358.977 131.261 359.137 130.596 359.137C129.593 359.137 128.78 358.788 128.155 358.091C127.535 357.394 127.226 356.471 127.226 355.322V355.233ZM128.497 355.384C128.497 356.204 128.686 356.863 129.064 357.359C129.447 357.856 129.958 358.104 130.596 358.104C131.238 358.104 131.749 357.854 132.127 357.353C132.505 356.847 132.694 356.14 132.694 355.233C132.694 354.422 132.501 353.766 132.113 353.265C131.73 352.759 131.22 352.506 130.582 352.506C129.958 352.506 129.454 352.754 129.071 353.251C128.688 353.748 128.497 354.459 128.497 355.384ZM139.12 352.738C138.929 352.706 138.721 352.69 138.498 352.69C137.669 352.69 137.106 353.044 136.81 353.75V359H135.545V351.604H136.775L136.796 352.458C137.211 351.797 137.799 351.467 138.56 351.467C138.806 351.467 138.993 351.499 139.12 351.562V352.738ZM148.328 359C148.255 358.854 148.196 358.594 148.15 358.221C147.562 358.831 146.861 359.137 146.045 359.137C145.316 359.137 144.716 358.932 144.247 358.521C143.782 358.107 143.55 357.583 143.55 356.949C143.55 356.179 143.841 355.582 144.425 355.158C145.013 354.73 145.838 354.516 146.899 354.516H148.13V353.935C148.13 353.493 147.998 353.142 147.733 352.882C147.469 352.618 147.079 352.485 146.564 352.485C146.113 352.485 145.735 352.599 145.43 352.827C145.124 353.055 144.972 353.331 144.972 353.654H143.7C143.7 353.285 143.83 352.93 144.09 352.588C144.354 352.242 144.71 351.968 145.156 351.768C145.607 351.567 146.102 351.467 146.64 351.467C147.492 351.467 148.16 351.681 148.643 352.109C149.126 352.533 149.376 353.119 149.395 353.866V357.271C149.395 357.95 149.481 358.49 149.654 358.891V359H148.328ZM146.229 358.036C146.626 358.036 147.002 357.934 147.357 357.729C147.713 357.523 147.97 357.257 148.13 356.929V355.411H147.139C145.589 355.411 144.814 355.865 144.814 356.771C144.814 357.168 144.947 357.478 145.211 357.701C145.475 357.924 145.815 358.036 146.229 358.036ZM154.542 355.24C154.542 354.105 154.811 353.194 155.349 352.506C155.886 351.813 156.59 351.467 157.461 351.467C158.327 351.467 159.013 351.763 159.519 352.355V348.5H160.783V359H159.621L159.56 358.207C159.054 358.827 158.35 359.137 157.447 359.137C156.59 359.137 155.891 358.786 155.349 358.084C154.811 357.382 154.542 356.466 154.542 355.336V355.24ZM155.807 355.384C155.807 356.222 155.98 356.879 156.326 357.353C156.673 357.826 157.151 358.063 157.762 358.063C158.564 358.063 159.149 357.703 159.519 356.983V353.586C159.14 352.889 158.559 352.54 157.775 352.54C157.156 352.54 156.673 352.779 156.326 353.258C155.98 353.736 155.807 354.445 155.807 355.384ZM166.327 352.738C166.136 352.706 165.928 352.69 165.705 352.69C164.876 352.69 164.313 353.044 164.017 353.75V359H162.752V351.604H163.982L164.003 352.458C164.418 351.797 165.006 351.467 165.767 351.467C166.013 351.467 166.2 351.499 166.327 351.562V352.738ZM168.87 359H167.605V351.604H168.87V359ZM167.503 349.642C167.503 349.437 167.564 349.263 167.688 349.122C167.815 348.981 168.002 348.91 168.248 348.91C168.494 348.91 168.681 348.981 168.809 349.122C168.936 349.263 169 349.437 169 349.642C169 349.847 168.936 350.018 168.809 350.154C168.681 350.291 168.494 350.359 168.248 350.359C168.002 350.359 167.815 350.291 167.688 350.154C167.564 350.018 167.503 349.847 167.503 349.642ZM172.097 351.604L172.138 352.533C172.703 351.822 173.441 351.467 174.353 351.467C175.916 351.467 176.704 352.349 176.718 354.112V359H175.453V354.105C175.449 353.572 175.326 353.178 175.084 352.923C174.847 352.668 174.476 352.54 173.97 352.54C173.56 352.54 173.2 352.649 172.89 352.868C172.58 353.087 172.338 353.374 172.165 353.729V359H170.9V351.604H172.097ZM180.689 355.575L179.896 356.402V359H178.632V348.5H179.896V354.851L180.573 354.037L182.877 351.604H184.415L181.537 354.693L184.75 359H183.267L180.689 355.575ZM195.455 355.384C195.455 356.514 195.195 357.423 194.676 358.111C194.156 358.795 193.459 359.137 192.584 359.137C191.65 359.137 190.927 358.806 190.417 358.146L190.355 359H189.193V348.5H190.458V352.417C190.968 351.784 191.673 351.467 192.57 351.467C193.468 351.467 194.172 351.806 194.683 352.485C195.198 353.164 195.455 354.094 195.455 355.274V355.384ZM194.19 355.24C194.19 354.379 194.024 353.714 193.691 353.244C193.359 352.775 192.88 352.54 192.256 352.54C191.422 352.54 190.823 352.927 190.458 353.702V356.901C190.845 357.676 191.449 358.063 192.27 358.063C192.876 358.063 193.347 357.829 193.685 357.359C194.022 356.89 194.19 356.184 194.19 355.24ZM199.393 357.147L201.115 351.604H202.469L199.495 360.142C199.035 361.372 198.303 361.987 197.301 361.987L197.062 361.967L196.59 361.878V360.853L196.932 360.88C197.36 360.88 197.693 360.793 197.93 360.62C198.171 360.447 198.369 360.13 198.524 359.67L198.805 358.918L196.166 351.604H197.547L199.393 357.147ZM208.272 351.604L208.313 352.533C208.879 351.822 209.617 351.467 210.528 351.467C212.091 351.467 212.88 352.349 212.894 354.112V359H211.629V354.105C211.624 353.572 211.501 353.178 211.26 352.923C211.023 352.668 210.651 352.54 210.146 352.54C209.735 352.54 209.375 352.649 209.065 352.868C208.756 353.087 208.514 353.374 208.341 353.729V359H207.076V351.604H208.272ZM219.367 359C219.294 358.854 219.235 358.594 219.189 358.221C218.602 358.831 217.9 359.137 217.084 359.137C216.355 359.137 215.756 358.932 215.286 358.521C214.821 358.107 214.589 357.583 214.589 356.949C214.589 356.179 214.881 355.582 215.464 355.158C216.052 354.73 216.877 354.516 217.938 354.516H219.169V353.935C219.169 353.493 219.037 353.142 218.772 352.882C218.508 352.618 218.118 352.485 217.604 352.485C217.152 352.485 216.774 352.599 216.469 352.827C216.163 353.055 216.011 353.331 216.011 353.654H214.739C214.739 353.285 214.869 352.93 215.129 352.588C215.393 352.242 215.749 351.968 216.195 351.768C216.646 351.567 217.141 351.467 217.679 351.467C218.531 351.467 219.199 351.681 219.682 352.109C220.165 352.533 220.415 353.119 220.434 353.866V357.271C220.434 357.95 220.52 358.49 220.693 358.891V359H219.367ZM217.269 358.036C217.665 358.036 218.041 357.934 218.396 357.729C218.752 357.523 219.009 357.257 219.169 356.929V355.411H218.178C216.628 355.411 215.854 355.865 215.854 356.771C215.854 357.168 215.986 357.478 216.25 357.701C216.514 357.924 216.854 358.036 217.269 358.036ZM223.605 351.604L223.64 352.424C224.182 351.786 224.913 351.467 225.834 351.467C226.868 351.467 227.573 351.863 227.946 352.656C228.192 352.301 228.511 352.014 228.903 351.795C229.3 351.576 229.767 351.467 230.305 351.467C231.927 351.467 232.752 352.326 232.779 354.044V359H231.515V354.119C231.515 353.59 231.394 353.196 231.152 352.937C230.911 352.672 230.505 352.54 229.936 352.54C229.466 352.54 229.076 352.681 228.767 352.964C228.457 353.242 228.277 353.618 228.227 354.092V359H226.955V354.153C226.955 353.078 226.429 352.54 225.376 352.54C224.547 352.54 223.979 352.893 223.674 353.6V359H222.409V351.604H223.605ZM237.763 359.137C236.76 359.137 235.944 358.809 235.315 358.152C234.687 357.492 234.372 356.61 234.372 355.507V355.274C234.372 354.541 234.511 353.887 234.789 353.312C235.072 352.734 235.464 352.283 235.965 351.959C236.471 351.631 237.018 351.467 237.605 351.467C238.567 351.467 239.314 351.784 239.848 352.417C240.381 353.05 240.647 353.957 240.647 355.138V355.664H235.637C235.655 356.393 235.867 356.983 236.272 357.435C236.683 357.881 237.202 358.104 237.831 358.104C238.278 358.104 238.656 358.013 238.966 357.831C239.276 357.649 239.547 357.407 239.779 357.106L240.552 357.708C239.932 358.66 239.002 359.137 237.763 359.137ZM237.605 352.506C237.095 352.506 236.667 352.693 236.32 353.066C235.974 353.436 235.76 353.955 235.678 354.625H239.383V354.529C239.346 353.887 239.173 353.39 238.863 353.039C238.553 352.684 238.134 352.506 237.605 352.506ZM245.255 355.233C245.255 354.509 245.396 353.857 245.679 353.278C245.966 352.7 246.362 352.253 246.868 351.938C247.379 351.624 247.96 351.467 248.611 351.467C249.618 351.467 250.432 351.815 251.052 352.513C251.676 353.21 251.988 354.137 251.988 355.295V355.384C251.988 356.104 251.849 356.751 251.571 357.325C251.298 357.895 250.904 358.339 250.389 358.658C249.878 358.977 249.29 359.137 248.625 359.137C247.622 359.137 246.809 358.788 246.185 358.091C245.565 357.394 245.255 356.471 245.255 355.322V355.233ZM246.526 355.384C246.526 356.204 246.715 356.863 247.094 357.359C247.477 357.856 247.987 358.104 248.625 358.104C249.268 358.104 249.778 357.854 250.156 357.353C250.535 356.847 250.724 356.14 250.724 355.233C250.724 354.422 250.53 353.766 250.143 353.265C249.76 352.759 249.249 352.506 248.611 352.506C247.987 352.506 247.483 352.754 247.101 353.251C246.718 353.748 246.526 354.459 246.526 355.384ZM257.149 352.738C256.958 352.706 256.751 352.69 256.527 352.69C255.698 352.69 255.135 353.044 254.839 353.75V359H253.574V351.604H254.805L254.825 352.458C255.24 351.797 255.828 351.467 256.589 351.467C256.835 351.467 257.022 351.499 257.149 351.562V352.738ZM73.9736 380H72.709V372.604H73.9736V380ZM72.6064 370.642C72.6064 370.437 72.668 370.263 72.791 370.122C72.9186 369.981 73.1055 369.91 73.3516 369.91C73.5977 369.91 73.7845 369.981 73.9121 370.122C74.0397 370.263 74.1035 370.437 74.1035 370.642C74.1035 370.847 74.0397 371.018 73.9121 371.154C73.7845 371.291 73.5977 371.359 73.3516 371.359C73.1055 371.359 72.9186 371.291 72.791 371.154C72.668 371.018 72.6064 370.847 72.6064 370.642ZM77.2002 372.604L77.2412 373.533C77.8063 372.822 78.5446 372.467 79.4561 372.467C81.0192 372.467 81.8076 373.349 81.8213 375.112V380H80.5566V375.105C80.5521 374.572 80.429 374.178 80.1875 373.923C79.9505 373.668 79.5791 373.54 79.0732 373.54C78.6631 373.54 78.3031 373.649 77.9932 373.868C77.6833 374.087 77.4417 374.374 77.2686 374.729V380H76.0039V372.604H77.2002ZM83.4277 376.24C83.4277 375.087 83.6943 374.171 84.2275 373.492C84.7607 372.809 85.4671 372.467 86.3467 372.467C87.249 372.467 87.9531 372.786 88.459 373.424L88.5205 372.604H89.6758V379.822C89.6758 380.779 89.391 381.534 88.8213 382.085C88.2562 382.636 87.4951 382.912 86.5381 382.912C86.0049 382.912 85.4831 382.798 84.9727 382.57C84.4622 382.342 84.0726 382.03 83.8037 381.634L84.46 380.875C85.0023 381.545 85.6654 381.88 86.4492 381.88C87.0645 381.88 87.543 381.707 87.8848 381.36C88.2311 381.014 88.4043 380.526 88.4043 379.897V379.262C87.8984 379.845 87.208 380.137 86.333 380.137C85.4671 380.137 84.7653 379.788 84.2275 379.091C83.6943 378.394 83.4277 377.443 83.4277 376.24ZM84.6992 376.384C84.6992 377.218 84.8701 377.874 85.2119 378.353C85.5537 378.826 86.0322 379.063 86.6475 379.063C87.445 379.063 88.0306 378.701 88.4043 377.977V374.6C88.0169 373.893 87.4359 373.54 86.6611 373.54C86.0459 373.54 85.5651 373.779 85.2188 374.258C84.8724 374.736 84.6992 375.445 84.6992 376.384ZM95.165 373.738C94.9736 373.706 94.7663 373.69 94.543 373.69C93.7135 373.69 93.1507 374.044 92.8545 374.75V380H91.5898V372.604H92.8203L92.8408 373.458C93.2555 372.797 93.8434 372.467 94.6045 372.467C94.8506 372.467 95.0374 372.499 95.165 372.562V373.738ZM99.2666 380.137C98.264 380.137 97.4482 379.809 96.8193 379.152C96.1904 378.492 95.876 377.61 95.876 376.507V376.274C95.876 375.541 96.015 374.887 96.293 374.312C96.5755 373.734 96.9674 373.283 97.4688 372.959C97.9746 372.631 98.5215 372.467 99.1094 372.467C100.071 372.467 100.818 372.784 101.352 373.417C101.885 374.05 102.151 374.957 102.151 376.138V376.664H97.1406C97.1589 377.393 97.3708 377.983 97.7764 378.435C98.1865 378.881 98.7061 379.104 99.335 379.104C99.7816 379.104 100.16 379.013 100.47 378.831C100.78 378.649 101.051 378.407 101.283 378.106L102.056 378.708C101.436 379.66 100.506 380.137 99.2666 380.137ZM99.1094 373.506C98.599 373.506 98.1706 373.693 97.8242 374.066C97.4779 374.436 97.2637 374.955 97.1816 375.625H100.887V375.529C100.85 374.887 100.677 374.39 100.367 374.039C100.057 373.684 99.638 373.506 99.1094 373.506ZM103.313 376.24C103.313 375.105 103.582 374.194 104.12 373.506C104.658 372.813 105.362 372.467 106.232 372.467C107.098 372.467 107.784 372.763 108.29 373.355V369.5H109.555V380H108.393L108.331 379.207C107.825 379.827 107.121 380.137 106.219 380.137C105.362 380.137 104.662 379.786 104.12 379.084C103.582 378.382 103.313 377.466 103.313 376.336V376.24ZM104.578 376.384C104.578 377.222 104.751 377.879 105.098 378.353C105.444 378.826 105.923 379.063 106.533 379.063C107.335 379.063 107.921 378.703 108.29 377.983V374.586C107.912 373.889 107.331 373.54 106.547 373.54C105.927 373.54 105.444 373.779 105.098 374.258C104.751 374.736 104.578 375.445 104.578 376.384ZM112.897 380H111.633V372.604H112.897V380ZM111.53 370.642C111.53 370.437 111.592 370.263 111.715 370.122C111.842 369.981 112.029 369.91 112.275 369.91C112.521 369.91 112.708 369.981 112.836 370.122C112.964 370.263 113.027 370.437 113.027 370.642C113.027 370.847 112.964 371.018 112.836 371.154C112.708 371.291 112.521 371.359 112.275 371.359C112.029 371.359 111.842 371.291 111.715 371.154C111.592 371.018 111.53 370.847 111.53 370.642ZM117.997 380.137C116.994 380.137 116.179 379.809 115.55 379.152C114.921 378.492 114.606 377.61 114.606 376.507V376.274C114.606 375.541 114.745 374.887 115.023 374.312C115.306 373.734 115.698 373.283 116.199 372.959C116.705 372.631 117.252 372.467 117.84 372.467C118.801 372.467 119.549 372.784 120.082 373.417C120.615 374.05 120.882 374.957 120.882 376.138V376.664H115.871C115.889 377.393 116.101 377.983 116.507 378.435C116.917 378.881 117.437 379.104 118.065 379.104C118.512 379.104 118.89 379.013 119.2 378.831C119.51 378.649 119.781 378.407 120.014 378.106L120.786 378.708C120.166 379.66 119.237 380.137 117.997 380.137ZM117.84 373.506C117.329 373.506 116.901 373.693 116.555 374.066C116.208 374.436 115.994 374.955 115.912 375.625H119.617V375.529C119.581 374.887 119.408 374.39 119.098 374.039C118.788 373.684 118.368 373.506 117.84 373.506ZM123.548 372.604L123.589 373.533C124.154 372.822 124.892 372.467 125.804 372.467C127.367 372.467 128.155 373.349 128.169 375.112V380H126.904V375.105C126.9 374.572 126.777 374.178 126.535 373.923C126.298 373.668 125.927 373.54 125.421 373.54C125.011 373.54 124.651 373.649 124.341 373.868C124.031 374.087 123.789 374.374 123.616 374.729V380H122.352V372.604H123.548ZM131.792 370.812V372.604H133.173V373.581H131.792V378.168C131.792 378.464 131.854 378.688 131.977 378.838C132.1 378.984 132.309 379.057 132.605 379.057C132.751 379.057 132.952 379.029 133.207 378.975V380C132.874 380.091 132.551 380.137 132.236 380.137C131.671 380.137 131.245 379.966 130.958 379.624C130.671 379.282 130.527 378.797 130.527 378.168V373.581H129.181V372.604H130.527V370.812H131.792ZM134.615 381.982L133.897 381.49C134.326 380.893 134.549 380.278 134.567 379.645V378.503H135.805V379.494C135.805 379.954 135.691 380.415 135.463 380.875C135.24 381.335 134.957 381.704 134.615 381.982ZM140.542 376.233C140.542 375.509 140.683 374.857 140.966 374.278C141.253 373.7 141.649 373.253 142.155 372.938C142.666 372.624 143.247 372.467 143.898 372.467C144.906 372.467 145.719 372.815 146.339 373.513C146.963 374.21 147.275 375.137 147.275 376.295V376.384C147.275 377.104 147.136 377.751 146.858 378.325C146.585 378.895 146.191 379.339 145.676 379.658C145.165 379.977 144.577 380.137 143.912 380.137C142.91 380.137 142.096 379.788 141.472 379.091C140.852 378.394 140.542 377.471 140.542 376.322V376.233ZM141.813 376.384C141.813 377.204 142.003 377.863 142.381 378.359C142.764 378.856 143.274 379.104 143.912 379.104C144.555 379.104 145.065 378.854 145.443 378.353C145.822 377.847 146.011 377.14 146.011 376.233C146.011 375.422 145.817 374.766 145.43 374.265C145.047 373.759 144.536 373.506 143.898 373.506C143.274 373.506 142.771 373.754 142.388 374.251C142.005 374.748 141.813 375.459 141.813 376.384ZM152.437 373.738C152.245 373.706 152.038 373.69 151.814 373.69C150.985 373.69 150.422 374.044 150.126 374.75V380H148.861V372.604H150.092L150.112 373.458C150.527 372.797 151.115 372.467 151.876 372.467C152.122 372.467 152.309 372.499 152.437 372.562V373.738ZM161.385 378.038C161.385 377.696 161.255 377.432 160.995 377.245C160.74 377.054 160.291 376.89 159.648 376.753C159.01 376.616 158.502 376.452 158.124 376.261C157.75 376.069 157.472 375.841 157.29 375.577C157.112 375.313 157.023 374.998 157.023 374.634C157.023 374.028 157.279 373.515 157.789 373.096C158.304 372.676 158.96 372.467 159.758 372.467C160.596 372.467 161.275 372.683 161.795 373.116C162.319 373.549 162.581 374.103 162.581 374.777H161.31C161.31 374.431 161.161 374.132 160.865 373.882C160.574 373.631 160.204 373.506 159.758 373.506C159.298 373.506 158.938 373.606 158.678 373.807C158.418 374.007 158.288 374.269 158.288 374.593C158.288 374.898 158.409 375.128 158.65 375.283C158.892 375.438 159.327 375.586 159.956 375.728C160.59 375.869 161.102 376.037 161.494 376.233C161.886 376.429 162.175 376.666 162.362 376.944C162.554 377.218 162.649 377.553 162.649 377.949C162.649 378.61 162.385 379.141 161.856 379.542C161.328 379.938 160.642 380.137 159.799 380.137C159.206 380.137 158.682 380.032 158.227 379.822C157.771 379.613 157.413 379.321 157.153 378.947C156.898 378.569 156.771 378.161 156.771 377.724H158.035C158.058 378.147 158.227 378.485 158.541 378.735C158.86 378.981 159.279 379.104 159.799 379.104C160.277 379.104 160.66 379.009 160.947 378.817C161.239 378.621 161.385 378.362 161.385 378.038ZM168.863 380C168.79 379.854 168.731 379.594 168.686 379.221C168.098 379.831 167.396 380.137 166.58 380.137C165.851 380.137 165.252 379.932 164.782 379.521C164.317 379.107 164.085 378.583 164.085 377.949C164.085 377.179 164.377 376.582 164.96 376.158C165.548 375.73 166.373 375.516 167.435 375.516H168.665V374.935C168.665 374.493 168.533 374.142 168.269 373.882C168.004 373.618 167.615 373.485 167.1 373.485C166.648 373.485 166.27 373.599 165.965 373.827C165.66 374.055 165.507 374.331 165.507 374.654H164.235C164.235 374.285 164.365 373.93 164.625 373.588C164.889 373.242 165.245 372.968 165.691 372.768C166.143 372.567 166.637 372.467 167.175 372.467C168.027 372.467 168.695 372.681 169.178 373.109C169.661 373.533 169.911 374.119 169.93 374.866V378.271C169.93 378.95 170.016 379.49 170.189 379.891V380H168.863ZM166.765 379.036C167.161 379.036 167.537 378.934 167.893 378.729C168.248 378.523 168.506 378.257 168.665 377.929V376.411H167.674C166.124 376.411 165.35 376.865 165.35 377.771C165.35 378.168 165.482 378.478 165.746 378.701C166.01 378.924 166.35 379.036 166.765 379.036ZM174.223 378.147L175.945 372.604H177.299L174.325 381.142C173.865 382.372 173.133 382.987 172.131 382.987L171.892 382.967L171.42 382.878V381.853L171.762 381.88C172.19 381.88 172.523 381.793 172.76 381.62C173.001 381.447 173.2 381.13 173.354 380.67L173.635 379.918L170.996 372.604H172.377L174.223 378.147ZM177.654 381.982L176.937 381.49C177.365 380.893 177.588 380.278 177.606 379.645V378.503H178.844V379.494C178.844 379.954 178.73 380.415 178.502 380.875C178.279 381.335 177.996 381.704 177.654 381.982ZM184.853 370.43L184.647 372.877H183.889L183.896 369.5H184.853V370.43ZM186.698 370.43L186.493 372.877H185.734L185.741 369.5H186.698V370.43ZM192.16 378.038C192.16 377.696 192.03 377.432 191.771 377.245C191.515 377.054 191.066 376.89 190.424 376.753C189.786 376.616 189.278 376.452 188.899 376.261C188.526 376.069 188.248 375.841 188.065 375.577C187.888 375.313 187.799 374.998 187.799 374.634C187.799 374.028 188.054 373.515 188.564 373.096C189.079 372.676 189.736 372.467 190.533 372.467C191.372 372.467 192.051 372.683 192.57 373.116C193.094 373.549 193.356 374.103 193.356 374.777H192.085C192.085 374.431 191.937 374.132 191.641 373.882C191.349 373.631 190.98 373.506 190.533 373.506C190.073 373.506 189.713 373.606 189.453 373.807C189.193 374.007 189.063 374.269 189.063 374.593C189.063 374.898 189.184 375.128 189.426 375.283C189.667 375.438 190.103 375.586 190.731 375.728C191.365 375.869 191.878 376.037 192.27 376.233C192.661 376.429 192.951 376.666 193.138 376.944C193.329 377.218 193.425 377.553 193.425 377.949C193.425 378.61 193.16 379.141 192.632 379.542C192.103 379.938 191.417 380.137 190.574 380.137C189.982 380.137 189.458 380.032 189.002 379.822C188.546 379.613 188.188 379.321 187.929 378.947C187.674 378.569 187.546 378.161 187.546 377.724H188.811C188.833 378.147 189.002 378.485 189.316 378.735C189.635 378.981 190.055 379.104 190.574 379.104C191.053 379.104 191.436 379.009 191.723 378.817C192.014 378.621 192.16 378.362 192.16 378.038ZM199.639 379.269C199.146 379.847 198.424 380.137 197.472 380.137C196.683 380.137 196.082 379.909 195.667 379.453C195.257 378.993 195.049 378.314 195.045 377.416V372.604H196.31V377.382C196.31 378.503 196.765 379.063 197.677 379.063C198.643 379.063 199.285 378.703 199.604 377.983V372.604H200.869V380H199.666L199.639 379.269ZM206.372 373.738C206.181 373.706 205.973 373.69 205.75 373.69C204.921 373.69 204.358 374.044 204.062 374.75V380H202.797V372.604H204.027L204.048 373.458C204.463 372.797 205.05 372.467 205.812 372.467C206.058 372.467 206.244 372.499 206.372 372.562V373.738ZM213.789 376.384C213.789 377.509 213.532 378.416 213.017 379.104C212.502 379.793 211.804 380.137 210.925 380.137C210.027 380.137 209.321 379.852 208.806 379.282V382.844H207.541V372.604H208.696L208.758 373.424C209.273 372.786 209.988 372.467 210.904 372.467C211.793 372.467 212.495 372.802 213.01 373.472C213.529 374.142 213.789 375.074 213.789 376.268V376.384ZM212.524 376.24C212.524 375.406 212.347 374.748 211.991 374.265C211.636 373.782 211.148 373.54 210.528 373.54C209.763 373.54 209.188 373.88 208.806 374.559V378.093C209.184 378.767 209.763 379.104 210.542 379.104C211.148 379.104 211.629 378.865 211.984 378.387C212.344 377.904 212.524 377.188 212.524 376.24ZM218.978 373.738C218.786 373.706 218.579 373.69 218.355 373.69C217.526 373.69 216.963 374.044 216.667 374.75V380H215.402V372.604H216.633L216.653 373.458C217.068 372.797 217.656 372.467 218.417 372.467C218.663 372.467 218.85 372.499 218.978 372.562V373.738ZM221.521 380H220.256V372.604H221.521V380ZM220.153 370.642C220.153 370.437 220.215 370.263 220.338 370.122C220.465 369.981 220.652 369.91 220.898 369.91C221.145 369.91 221.331 369.981 221.459 370.122C221.587 370.263 221.65 370.437 221.65 370.642C221.65 370.847 221.587 371.018 221.459 371.154C221.331 371.291 221.145 371.359 220.898 371.359C220.652 371.359 220.465 371.291 220.338 371.154C220.215 371.018 220.153 370.847 220.153 370.642ZM227.857 378.038C227.857 377.696 227.728 377.432 227.468 377.245C227.213 377.054 226.764 376.89 226.121 376.753C225.483 376.616 224.975 376.452 224.597 376.261C224.223 376.069 223.945 375.841 223.763 375.577C223.585 375.313 223.496 374.998 223.496 374.634C223.496 374.028 223.751 373.515 224.262 373.096C224.777 372.676 225.433 372.467 226.23 372.467C227.069 372.467 227.748 372.683 228.268 373.116C228.792 373.549 229.054 374.103 229.054 374.777H227.782C227.782 374.431 227.634 374.132 227.338 373.882C227.046 373.631 226.677 373.506 226.23 373.506C225.77 373.506 225.41 373.606 225.15 373.807C224.891 374.007 224.761 374.269 224.761 374.593C224.761 374.898 224.882 375.128 225.123 375.283C225.365 375.438 225.8 375.586 226.429 375.728C227.062 375.869 227.575 376.037 227.967 376.233C228.359 376.429 228.648 376.666 228.835 376.944C229.026 377.218 229.122 377.553 229.122 377.949C229.122 378.61 228.858 379.141 228.329 379.542C227.8 379.938 227.115 380.137 226.271 380.137C225.679 380.137 225.155 380.032 224.699 379.822C224.243 379.613 223.886 379.321 223.626 378.947C223.371 378.569 223.243 378.161 223.243 377.724H224.508C224.531 378.147 224.699 378.485 225.014 378.735C225.333 378.981 225.752 379.104 226.271 379.104C226.75 379.104 227.133 379.009 227.42 378.817C227.712 378.621 227.857 378.362 227.857 378.038ZM233.839 380.137C232.836 380.137 232.021 379.809 231.392 379.152C230.763 378.492 230.448 377.61 230.448 376.507V376.274C230.448 375.541 230.587 374.887 230.865 374.312C231.148 373.734 231.54 373.283 232.041 372.959C232.547 372.631 233.094 372.467 233.682 372.467C234.643 372.467 235.391 372.784 235.924 373.417C236.457 374.05 236.724 374.957 236.724 376.138V376.664H231.713C231.731 377.393 231.943 377.983 232.349 378.435C232.759 378.881 233.278 379.104 233.907 379.104C234.354 379.104 234.732 379.013 235.042 378.831C235.352 378.649 235.623 378.407 235.855 378.106L236.628 378.708C236.008 379.66 235.078 380.137 233.839 380.137ZM233.682 373.506C233.171 373.506 232.743 373.693 232.396 374.066C232.05 374.436 231.836 374.955 231.754 375.625H235.459V375.529C235.423 374.887 235.249 374.39 234.939 374.039C234.63 373.684 234.21 373.506 233.682 373.506ZM242.855 372.604L242.89 373.424C243.432 372.786 244.163 372.467 245.084 372.467C246.118 372.467 246.823 372.863 247.196 373.656C247.442 373.301 247.761 373.014 248.153 372.795C248.55 372.576 249.017 372.467 249.555 372.467C251.177 372.467 252.002 373.326 252.029 375.044V380H250.765V375.119C250.765 374.59 250.644 374.196 250.402 373.937C250.161 373.672 249.755 373.54 249.186 373.54C248.716 373.54 248.326 373.681 248.017 373.964C247.707 374.242 247.527 374.618 247.477 375.092V380H246.205V375.153C246.205 374.078 245.679 373.54 244.626 373.54C243.797 373.54 243.229 373.893 242.924 374.6V380H241.659V372.604H242.855ZM257.013 380.137C256.01 380.137 255.194 379.809 254.565 379.152C253.937 378.492 253.622 377.61 253.622 376.507V376.274C253.622 375.541 253.761 374.887 254.039 374.312C254.322 373.734 254.714 373.283 255.215 372.959C255.721 372.631 256.268 372.467 256.855 372.467C257.817 372.467 258.564 372.784 259.098 373.417C259.631 374.05 259.897 374.957 259.897 376.138V376.664H254.887C254.905 377.393 255.117 377.983 255.522 378.435C255.933 378.881 256.452 379.104 257.081 379.104C257.528 379.104 257.906 379.013 258.216 378.831C258.526 378.649 258.797 378.407 259.029 378.106L259.802 378.708C259.182 379.66 258.252 380.137 257.013 380.137ZM256.855 373.506C256.345 373.506 255.917 373.693 255.57 374.066C255.224 374.436 255.01 374.955 254.928 375.625H258.633V375.529C258.596 374.887 258.423 374.39 258.113 374.039C257.803 373.684 257.384 373.506 256.855 373.506ZM262.208 370.43L262.003 372.877H261.244L261.251 369.5H262.208V370.43ZM264.054 370.43L263.849 372.877H263.09L263.097 369.5H264.054V370.43ZM265.783 379.337C265.783 379.118 265.847 378.936 265.975 378.79C266.107 378.644 266.303 378.571 266.562 378.571C266.822 378.571 267.018 378.644 267.15 378.79C267.287 378.936 267.355 379.118 267.355 379.337C267.355 379.547 267.287 379.722 267.15 379.863C267.018 380.005 266.822 380.075 266.562 380.075C266.303 380.075 266.107 380.005 265.975 379.863C265.847 379.722 265.783 379.547 265.783 379.337Z" fill="#2C363F"/>
</g>
</g>
<path d="M50.0001 238.572L57.1734 245.572L58.4405 244.336L53.4364 239.432H64.3467V237.713H53.4364L58.4405 232.851L57.1734 231.572L50.0001 238.572Z" fill="#2C363F"/>
<path opacity="0.25" d="M166 216.072H210.064" stroke="#2C363F" stroke-width="3" stroke-linecap="round"/>
<path fill-rule="evenodd" clip-rule="evenodd" d="M310 253.572C318.284 253.572 325 246.857 325 238.572C325 230.288 318.284 223.572 310 223.572C301.716 223.572 295 230.288 295 238.572C295 246.857 301.716 253.572 310 253.572ZM315.337 232.759C315.045 232.433 314.543 232.406 314.217 232.698C313.891 232.991 313.864 233.492 314.156 233.818C315.34 235.137 316.017 236.943 316.017 238.841C316.017 240.739 315.34 242.545 314.156 243.864C313.864 244.19 313.891 244.691 314.217 244.984C314.543 245.276 315.045 245.249 315.337 244.923C316.796 243.297 317.604 241.108 317.604 238.841C317.604 236.574 316.796 234.385 315.337 232.759ZM312.849 235.531C312.557 235.205 312.055 235.178 311.729 235.47C311.403 235.763 311.376 236.264 311.669 236.591C312.191 237.173 312.498 237.98 312.498 238.837C312.498 239.694 312.191 240.501 311.669 241.083C311.376 241.41 311.403 241.911 311.729 242.204C312.055 242.496 312.557 242.469 312.849 242.143C313.648 241.253 314.084 240.063 314.084 238.837C314.084 237.611 313.648 236.421 312.849 235.531ZM309.852 233.344C309.852 233.031 309.669 232.748 309.384 232.62C309.098 232.492 308.765 232.544 308.531 232.752L305.233 235.692H302.716C302.278 235.692 301.923 236.047 301.923 236.485V241.197C301.923 241.635 302.278 241.991 302.716 241.991H305.233L308.531 244.931C308.765 245.139 309.098 245.19 309.384 245.063C309.669 244.935 309.852 244.651 309.852 244.339V233.344Z" fill="#2C363F"/>
</g>
</g>
</g>
</g>
<rect x="90" y="119" width="195" height="49" rx="24.5" fill="#CCE4FF"/>
<path d="M115.977 143.662C114.368 143.2 113.197 142.633 112.461 141.963C111.732 141.286 111.367 140.452 111.367 139.463C111.367 138.343 111.813 137.419 112.705 136.689C113.604 135.954 114.769 135.586 116.201 135.586C117.178 135.586 118.047 135.775 118.809 136.152C119.577 136.53 120.169 137.051 120.586 137.715C121.009 138.379 121.221 139.105 121.221 139.893H119.336C119.336 139.033 119.062 138.359 118.516 137.871C117.969 137.376 117.197 137.129 116.201 137.129C115.277 137.129 114.554 137.334 114.033 137.744C113.519 138.148 113.262 138.711 113.262 139.434C113.262 140.013 113.506 140.505 113.994 140.908C114.489 141.305 115.326 141.67 116.504 142.002C117.689 142.334 118.613 142.702 119.277 143.105C119.948 143.503 120.443 143.968 120.762 144.502C121.087 145.036 121.25 145.664 121.25 146.387C121.25 147.539 120.801 148.464 119.902 149.16C119.004 149.85 117.803 150.195 116.299 150.195C115.322 150.195 114.411 150.01 113.564 149.639C112.718 149.261 112.064 148.747 111.602 148.096C111.146 147.445 110.918 146.706 110.918 145.879H112.803C112.803 146.738 113.118 147.419 113.75 147.92C114.388 148.415 115.238 148.662 116.299 148.662C117.288 148.662 118.047 148.46 118.574 148.057C119.102 147.653 119.365 147.103 119.365 146.406C119.365 145.71 119.121 145.173 118.633 144.795C118.145 144.411 117.259 144.033 115.977 143.662ZM128.045 150.195C126.613 150.195 125.447 149.727 124.549 148.789C123.65 147.845 123.201 146.585 123.201 145.01V144.678C123.201 143.63 123.4 142.695 123.797 141.875C124.201 141.048 124.76 140.404 125.477 139.941C126.199 139.473 126.98 139.238 127.82 139.238C129.194 139.238 130.262 139.691 131.023 140.596C131.785 141.501 132.166 142.796 132.166 144.482V145.234H125.008C125.034 146.276 125.337 147.119 125.916 147.764C126.502 148.402 127.244 148.721 128.143 148.721C128.781 148.721 129.321 148.59 129.764 148.33C130.206 148.07 130.594 147.725 130.926 147.295L132.029 148.154C131.144 149.515 129.816 150.195 128.045 150.195ZM127.82 140.723C127.091 140.723 126.479 140.99 125.984 141.523C125.49 142.051 125.184 142.793 125.066 143.75H130.359V143.613C130.307 142.695 130.06 141.986 129.617 141.484C129.174 140.977 128.576 140.723 127.82 140.723ZM138.932 150.195C137.499 150.195 136.334 149.727 135.436 148.789C134.537 147.845 134.088 146.585 134.088 145.01V144.678C134.088 143.63 134.286 142.695 134.684 141.875C135.087 141.048 135.647 140.404 136.363 139.941C137.086 139.473 137.867 139.238 138.707 139.238C140.081 139.238 141.148 139.691 141.91 140.596C142.672 141.501 143.053 142.796 143.053 144.482V145.234H135.895C135.921 146.276 136.223 147.119 136.803 147.764C137.389 148.402 138.131 148.721 139.029 148.721C139.667 148.721 140.208 148.59 140.65 148.33C141.093 148.07 141.48 147.725 141.812 147.295L142.916 148.154C142.031 149.515 140.702 150.195 138.932 150.195ZM138.707 140.723C137.978 140.723 137.366 140.99 136.871 141.523C136.376 142.051 136.07 142.793 135.953 143.75H141.246V143.613C141.194 142.695 140.947 141.986 140.504 141.484C140.061 140.977 139.462 140.723 138.707 140.723ZM152.482 140.713C153.283 139.73 154.325 139.238 155.607 139.238C157.84 139.238 158.967 140.498 158.986 143.018V150H157.18V143.008C157.173 142.246 156.997 141.683 156.652 141.318C156.314 140.954 155.783 140.771 155.061 140.771C154.475 140.771 153.96 140.928 153.518 141.24C153.075 141.553 152.73 141.963 152.482 142.471V150H150.676V135H152.482V140.713ZM161.494 144.619C161.494 143.584 161.696 142.653 162.1 141.826C162.51 140.999 163.076 140.361 163.799 139.912C164.528 139.463 165.358 139.238 166.289 139.238C167.728 139.238 168.89 139.736 169.775 140.732C170.667 141.729 171.113 143.053 171.113 144.707V144.834C171.113 145.863 170.915 146.787 170.518 147.607C170.127 148.421 169.564 149.056 168.828 149.512C168.099 149.967 167.259 150.195 166.309 150.195C164.876 150.195 163.714 149.697 162.822 148.701C161.937 147.705 161.494 146.387 161.494 144.746V144.619ZM163.311 144.834C163.311 146.006 163.581 146.947 164.121 147.656C164.668 148.366 165.397 148.721 166.309 148.721C167.227 148.721 167.956 148.363 168.496 147.646C169.036 146.924 169.307 145.915 169.307 144.619C169.307 143.46 169.03 142.523 168.477 141.807C167.93 141.084 167.201 140.723 166.289 140.723C165.397 140.723 164.678 141.077 164.131 141.787C163.584 142.497 163.311 143.512 163.311 144.834ZM183.016 147.51L185.047 139.434H186.854L183.777 150H182.312L179.744 141.992L177.244 150H175.779L172.713 139.434H174.51L176.59 147.344L179.051 139.434H180.506L183.016 147.51ZM196.186 150H194.379V139.434H196.186V150ZM194.232 136.631C194.232 136.338 194.32 136.09 194.496 135.889C194.678 135.687 194.945 135.586 195.297 135.586C195.648 135.586 195.915 135.687 196.098 135.889C196.28 136.09 196.371 136.338 196.371 136.631C196.371 136.924 196.28 137.168 196.098 137.363C195.915 137.559 195.648 137.656 195.297 137.656C194.945 137.656 194.678 137.559 194.496 137.363C194.32 137.168 194.232 136.924 194.232 136.631ZM201.818 136.875V139.434H203.791V140.83H201.818V147.383C201.818 147.806 201.906 148.125 202.082 148.34C202.258 148.548 202.557 148.652 202.98 148.652C203.189 148.652 203.475 148.613 203.84 148.535V150C203.365 150.13 202.902 150.195 202.453 150.195C201.646 150.195 201.037 149.951 200.627 149.463C200.217 148.975 200.012 148.281 200.012 147.383V140.83H198.088V139.434H200.012V136.875H201.818ZM220.789 147.51L222.82 139.434H224.627L221.551 150H220.086L217.518 141.992L215.018 150H213.553L210.486 139.434H212.283L214.363 147.344L216.824 139.434H218.279L220.789 147.51ZM226.275 144.619C226.275 143.584 226.477 142.653 226.881 141.826C227.291 140.999 227.857 140.361 228.58 139.912C229.309 139.463 230.139 139.238 231.07 139.238C232.509 139.238 233.671 139.736 234.557 140.732C235.449 141.729 235.895 143.053 235.895 144.707V144.834C235.895 145.863 235.696 146.787 235.299 147.607C234.908 148.421 234.345 149.056 233.609 149.512C232.88 149.967 232.04 150.195 231.09 150.195C229.658 150.195 228.495 149.697 227.604 148.701C226.718 147.705 226.275 146.387 226.275 144.746V144.619ZM228.092 144.834C228.092 146.006 228.362 146.947 228.902 147.656C229.449 148.366 230.178 148.721 231.09 148.721C232.008 148.721 232.737 148.363 233.277 147.646C233.818 146.924 234.088 145.915 234.088 144.619C234.088 143.46 233.811 142.523 233.258 141.807C232.711 141.084 231.982 140.723 231.07 140.723C230.178 140.723 229.459 141.077 228.912 141.787C228.365 142.497 228.092 143.512 228.092 144.834ZM243.549 141.055C243.275 141.009 242.979 140.986 242.66 140.986C241.475 140.986 240.671 141.491 240.248 142.5V150H238.441V139.434H240.199L240.229 140.654C240.821 139.71 241.661 139.238 242.748 139.238C243.1 139.238 243.367 139.284 243.549 139.375V141.055ZM248.449 145.107L247.316 146.289V150H245.51V135H247.316V144.072L248.283 142.91L251.574 139.434H253.771L249.66 143.848L254.25 150H252.131L248.449 145.107ZM262.07 147.197C262.07 146.709 261.885 146.331 261.514 146.064C261.149 145.791 260.508 145.557 259.59 145.361C258.678 145.166 257.952 144.932 257.412 144.658C256.878 144.385 256.481 144.059 256.221 143.682C255.967 143.304 255.84 142.855 255.84 142.334C255.84 141.468 256.204 140.736 256.934 140.137C257.669 139.538 258.607 139.238 259.746 139.238C260.944 139.238 261.914 139.548 262.656 140.166C263.405 140.785 263.779 141.576 263.779 142.539H261.963C261.963 142.044 261.751 141.618 261.328 141.26C260.911 140.902 260.384 140.723 259.746 140.723C259.089 140.723 258.574 140.866 258.203 141.152C257.832 141.439 257.646 141.813 257.646 142.275C257.646 142.712 257.819 143.04 258.164 143.262C258.509 143.483 259.131 143.695 260.029 143.896C260.934 144.098 261.667 144.339 262.227 144.619C262.786 144.899 263.2 145.238 263.467 145.635C263.74 146.025 263.877 146.504 263.877 147.07C263.877 148.014 263.499 148.773 262.744 149.346C261.989 149.912 261.009 150.195 259.805 150.195C258.958 150.195 258.21 150.046 257.559 149.746C256.908 149.447 256.396 149.03 256.025 148.496C255.661 147.956 255.479 147.373 255.479 146.748H257.285C257.318 147.354 257.559 147.835 258.008 148.193C258.464 148.545 259.062 148.721 259.805 148.721C260.488 148.721 261.035 148.584 261.445 148.311C261.862 148.031 262.07 147.66 262.07 147.197Z" fill="black"/>
</g>
<defs>
<filter id="filter0_d" x="15" y="184.572" width="345.179" height="280" filterUnits="userSpaceOnUse" color-interpolation-filters="sRGB">
<feFlood flood-opacity="0" result="BackgroundImageFix"/>
<feColorMatrix in="SourceAlpha" type="matrix" values="0 0 0 0 0 0 0 0 0 0 0 0 0 0 0 0 0 0 127 0"/>
<feOffset dy="-4"/>
<feGaussianBlur stdDeviation="7.5"/>
<feColorMatrix type="matrix" values="0 0 0 0 0 0 0 0 0 0 0 0 0 0 0 0 0 0 0.1 0"/>
<feBlend mode="normal" in2="BackgroundImageFix" result="effect1_dropShadow"/>
<feBlend mode="normal" in="SourceGraphic" in2="effect1_dropShadow" result="shape"/>
</filter>
<clipPath id="clip0">
<rect width="375" height="487.5" fill="white"/>
</clipPath>
<clipPath id="clip1">
<rect width="375" height="487.5" fill="white"/>
</clipPath>
<clipPath id="clip2">
<rect width="315" height="135" fill="white" transform="translate(30 260.572)"/>
</clipPath>
<clipPath id="clip3">
<rect width="275" height="85" fill="white" transform="translate(50 310.572)"/>
</clipPath>
</defs>
</svg>
