<svg width="376" height="488" viewBox="0 0 376 488" fill="none" xmlns="http://www.w3.org/2000/svg">
<g clip-path="url(#clip0)">
<g clip-path="url(#clip1)">
<path d="M318.787 -245.132C345.541 -245.132 367.229 -223.599 367.229 -197.036V427.393C367.229 453.956 345.541 475.49 318.787 475.49H60.7035C33.9493 475.49 12.2607 453.956 12.2607 427.393V-197.036C12.2607 -223.599 33.9493 -245.132 60.7035 -245.132H318.787Z" fill="white" stroke="#2F5BEA" stroke-width="2"/>
<path fill-rule="evenodd" clip-rule="evenodd" d="M93.0443 -223.211C86.1183 -223.183 73.5555 -222.967 55.3658 -222.565C41.6936 -222.262 30.7424 -211.345 30.5248 -197.898L30.5215 -197.49V428.49C30.5215 442.204 41.6733 453.347 55.5152 453.568L55.9354 453.571H319.393C333.289 453.571 344.579 442.566 344.804 428.905L344.807 428.49V-197.484C344.807 -211.118 333.771 -222.255 319.958 -222.558L307.151 -222.828C295.829 -223.054 287.581 -223.181 282.409 -223.209L281.14 -223.214L280.452 -223.214C277.111 -223.214 276.237 -221.925 275.458 -216.616L275.092 -214.036C275.014 -213.52 274.951 -213.151 274.86 -212.663C273.241 -203.942 268.322 -199.468 256.343 -199.372L120.523 -199.371C107.681 -199.436 102.219 -203.815 100.35 -212.349L100.194 -213.107C100.111 -213.526 100.043 -213.915 99.9548 -214.473L99.5927 -216.852C98.7986 -221.891 97.9376 -223.169 94.7036 -223.213L93.0443 -223.211Z" fill="#EDF3F9"/>
<g opacity="0.4">
<mask id="mask0" mask-type="alpha" maskUnits="userSpaceOnUse" x="30" y="-219" width="316" height="673">
<path fill-rule="evenodd" clip-rule="evenodd" d="M93.0901 -218.747C86.1591 -218.719 73.587 -218.504 55.384 -218.104C41.7018 -217.804 30.7426 -206.954 30.5248 -193.591L30.5215 -193.186V428.905C30.5215 442.534 41.6814 453.607 55.5335 453.827L55.9541 453.831H319.605C333.511 453.831 344.81 442.893 345.034 429.318L345.038 428.905V-193.179C345.038 -206.729 333.993 -217.797 320.171 -218.098L307.354 -218.366C296.024 -218.591 287.769 -218.717 282.593 -218.744L281.324 -218.749L280.636 -218.75C277.292 -218.75 276.417 -217.468 275.638 -212.193L275.271 -209.628C275.193 -209.116 275.13 -208.75 275.039 -208.265C273.419 -199.597 268.496 -195.152 256.509 -195.056L120.589 -195.055C107.738 -195.119 102.271 -199.471 100.401 -207.952L100.245 -208.706C100.162 -209.122 100.094 -209.509 100.006 -210.063L99.6434 -212.427C98.8487 -217.435 97.987 -218.705 94.7506 -218.749L93.0901 -218.747Z" fill="#EDF3F9"/>
</mask>
<g mask="url(#mask0)">
<rect width="315.179" height="250" transform="translate(30.5215 203.571)" fill="#EDF3F9"/>
<g filter="url(#filter0_d)">
<path d="M30.5215 210.571C30.5215 206.705 33.6555 203.571 37.5215 203.571H338.7C342.566 203.571 345.7 206.705 345.7 210.571V453.571H30.5215V210.571Z" fill="white"/>
<path fill-rule="evenodd" clip-rule="evenodd" d="M139.321 410.472C139.321 410.168 139.208 409.89 139.022 409.678C138.835 409.89 138.722 410.168 138.722 410.472L139.321 410.472ZM139.921 410.472V413.372C139.922 413.73 140.191 414.021 140.522 414.021C140.848 414.021 141.113 413.74 141.122 413.389V410.472C141.122 409.809 140.585 409.272 139.922 409.272C139.781 409.272 139.646 409.296 139.521 409.341C139.771 409.65 139.921 410.044 139.921 410.472Z" fill="#2C363F"/>
<path fill-rule="evenodd" clip-rule="evenodd" d="M138.122 414.672V410.472C138.122 410.043 138.272 409.649 138.522 409.34C138.397 409.296 138.262 409.272 138.121 409.272C137.459 409.272 136.921 409.809 136.921 410.472L136.921 414.672C136.921 415.101 136.771 415.495 136.521 415.804C136.646 415.848 136.781 415.872 136.922 415.872C137.584 415.872 138.122 415.334 138.122 414.672Z" fill="#2C363F"/>
<path d="M135.122 414.672V411.772C135.122 411.413 134.853 411.122 134.521 411.122C134.195 411.122 133.93 411.404 133.921 411.755V414.672C133.922 415.335 134.459 415.872 135.121 415.872C135.262 415.872 135.397 415.848 135.522 415.803C135.272 415.494 135.122 415.1 135.122 414.672Z" fill="#2C363F"/>
<path d="M135.722 414.672C135.722 414.976 135.835 415.254 136.021 415.466C136.208 415.254 136.321 414.976 136.321 414.672L135.722 414.672Z" fill="#2C363F"/>
<path fill-rule="evenodd" clip-rule="evenodd" d="M144.521 412.572C144.521 416.438 141.387 419.572 137.521 419.572C133.655 419.572 130.521 416.438 130.521 412.572C130.521 408.706 133.655 405.572 137.521 405.572C141.387 405.572 144.521 408.706 144.521 412.572ZM139.021 408.913C138.756 408.76 138.449 408.672 138.121 408.672C137.127 408.672 136.321 409.478 136.321 410.472V414.672L135.722 414.672V411.672H135.718C135.67 411.001 135.153 410.472 134.521 410.472C133.89 410.472 133.372 411.001 133.325 411.672H133.321V414.672C133.321 415.666 134.127 416.472 135.121 416.472C135.449 416.472 135.757 416.384 136.022 416.231C136.287 416.384 136.594 416.472 136.922 416.472C137.916 416.472 138.722 415.666 138.722 414.672V410.472L139.321 410.472V413.472H139.325C139.373 414.143 139.89 414.672 140.522 414.672C141.153 414.672 141.671 414.143 141.718 413.472H141.722V410.472C141.722 409.478 140.916 408.672 139.922 408.672C139.594 408.672 139.286 408.76 139.021 408.913Z" fill="#2C363F"/>
<path opacity="0.5" d="M154.153 413.747C154.153 414.47 153.988 415.053 153.657 415.496C153.326 415.938 152.877 416.159 152.312 416.159C151.735 416.159 151.281 415.976 150.95 415.61V417.9H150.137V411.317H150.879L150.919 411.844C151.25 411.434 151.71 411.229 152.299 411.229C152.87 411.229 153.321 411.444 153.652 411.875C153.986 412.305 154.153 412.904 154.153 413.672V413.747ZM153.34 413.654C153.34 413.118 153.226 412.695 152.998 412.384C152.769 412.074 152.456 411.919 152.057 411.919C151.565 411.919 151.196 412.137 150.95 412.573V414.845C151.193 415.279 151.565 415.496 152.066 415.496C152.456 415.496 152.765 415.342 152.993 415.034C153.225 414.724 153.34 414.264 153.34 413.654ZM155.077 413.65C155.077 413.184 155.168 412.765 155.349 412.393C155.534 412.021 155.789 411.734 156.114 411.532C156.442 411.33 156.816 411.229 157.235 411.229C157.882 411.229 158.405 411.453 158.803 411.901C159.205 412.349 159.405 412.945 159.405 413.69V413.747C159.405 414.21 159.316 414.626 159.137 414.995C158.962 415.361 158.708 415.647 158.377 415.852C158.049 416.057 157.671 416.159 157.243 416.159C156.599 416.159 156.076 415.935 155.674 415.487C155.276 415.039 155.077 414.445 155.077 413.707V413.65ZM155.894 413.747C155.894 414.274 156.016 414.697 156.259 415.017C156.505 415.336 156.833 415.496 157.243 415.496C157.656 415.496 157.985 415.335 158.228 415.012C158.471 414.687 158.592 414.233 158.592 413.65C158.592 413.129 158.468 412.707 158.219 412.384C157.973 412.059 157.645 411.897 157.235 411.897C156.833 411.897 156.509 412.056 156.263 412.376C156.017 412.695 155.894 413.152 155.894 413.747ZM164.737 414.951L165.651 411.317H166.464L165.079 416.071H164.42L163.264 412.468L162.139 416.071H161.48L160.1 411.317H160.909L161.845 414.876L162.952 411.317H163.607L164.737 414.951ZM169.369 416.159C168.724 416.159 168.2 415.948 167.796 415.526C167.391 415.102 167.189 414.535 167.189 413.826V413.676C167.189 413.205 167.279 412.784 167.457 412.415C167.639 412.043 167.891 411.753 168.213 411.545C168.538 411.334 168.89 411.229 169.268 411.229C169.886 411.229 170.367 411.432 170.709 411.839C171.052 412.247 171.224 412.83 171.224 413.589V413.927H168.002C168.014 414.396 168.15 414.775 168.411 415.065C168.675 415.352 169.009 415.496 169.413 415.496C169.7 415.496 169.943 415.437 170.142 415.32C170.342 415.203 170.516 415.047 170.665 414.854L171.162 415.241C170.764 415.853 170.166 416.159 169.369 416.159ZM169.268 411.897C168.94 411.897 168.664 412.017 168.442 412.257C168.219 412.494 168.081 412.828 168.029 413.259H170.411V413.197C170.387 412.784 170.276 412.465 170.077 412.239C169.877 412.011 169.608 411.897 169.268 411.897ZM174.568 412.046C174.445 412.026 174.312 412.015 174.168 412.015C173.635 412.015 173.273 412.242 173.083 412.696V416.071H172.27V411.317H173.061L173.074 411.866C173.341 411.441 173.719 411.229 174.208 411.229C174.366 411.229 174.486 411.249 174.568 411.29V412.046ZM177.307 416.159C176.662 416.159 176.138 415.948 175.734 415.526C175.329 415.102 175.127 414.535 175.127 413.826V413.676C175.127 413.205 175.216 412.784 175.395 412.415C175.577 412.043 175.829 411.753 176.151 411.545C176.476 411.334 176.828 411.229 177.206 411.229C177.824 411.229 178.304 411.432 178.647 411.839C178.99 412.247 179.161 412.83 179.161 413.589V413.927H175.94C175.952 414.396 176.088 414.775 176.349 415.065C176.612 415.352 176.946 415.496 177.351 415.496C177.638 415.496 177.881 415.437 178.08 415.32C178.279 415.203 178.454 415.047 178.603 414.854L179.1 415.241C178.701 415.853 178.104 416.159 177.307 416.159ZM177.206 411.897C176.878 411.897 176.602 412.017 176.38 412.257C176.157 412.494 176.019 412.828 175.966 413.259H178.348V413.197C178.325 412.784 178.214 412.465 178.014 412.239C177.815 412.011 177.546 411.897 177.206 411.897ZM180.01 413.654C180.01 412.925 180.183 412.339 180.529 411.897C180.874 411.451 181.327 411.229 181.886 411.229C182.443 411.229 182.884 411.419 183.209 411.8V409.321H184.022V416.071H183.275L183.236 415.562C182.91 415.96 182.458 416.159 181.878 416.159C181.327 416.159 180.877 415.934 180.529 415.483C180.183 415.031 180.01 414.443 180.01 413.716V413.654ZM180.823 413.747C180.823 414.286 180.934 414.708 181.157 415.012C181.38 415.317 181.687 415.469 182.08 415.469C182.595 415.469 182.972 415.238 183.209 414.775V412.591C182.966 412.143 182.593 411.919 182.089 411.919C181.69 411.919 181.38 412.072 181.157 412.38C180.934 412.688 180.823 413.143 180.823 413.747ZM191.749 413.747C191.749 414.473 191.582 415.058 191.248 415.5C190.914 415.94 190.466 416.159 189.903 416.159C189.303 416.159 188.838 415.947 188.51 415.522L188.471 416.071H187.724V409.321H188.537V411.839C188.865 411.432 189.317 411.229 189.895 411.229C190.472 411.229 190.924 411.447 191.252 411.883C191.584 412.32 191.749 412.918 191.749 413.676V413.747ZM190.936 413.654C190.936 413.101 190.829 412.673 190.615 412.371C190.401 412.069 190.094 411.919 189.692 411.919C189.156 411.919 188.771 412.168 188.537 412.666V414.722C188.786 415.22 189.174 415.469 189.701 415.469C190.091 415.469 190.394 415.318 190.611 415.017C190.828 414.715 190.936 414.261 190.936 413.654ZM194.382 414.88L195.489 411.317H196.36L194.448 416.805C194.152 417.596 193.682 417.992 193.037 417.992L192.883 417.979L192.58 417.922V417.262L192.8 417.28C193.075 417.28 193.289 417.224 193.442 417.113C193.597 417.002 193.724 416.798 193.824 416.502L194.004 416.019L192.308 411.317H193.195L194.382 414.88ZM201.538 413.219C200.814 413.011 200.287 412.756 199.955 412.455C199.627 412.15 199.463 411.775 199.463 411.33C199.463 410.826 199.664 410.41 200.065 410.082C200.47 409.751 200.994 409.585 201.639 409.585C202.078 409.585 202.469 409.67 202.812 409.84C203.158 410.01 203.424 410.244 203.612 410.543C203.802 410.842 203.897 411.169 203.897 411.523H203.049C203.049 411.136 202.926 410.833 202.68 410.613C202.434 410.391 202.087 410.279 201.639 410.279C201.223 410.279 200.897 410.372 200.663 410.556C200.432 410.738 200.316 410.991 200.316 411.317C200.316 411.577 200.426 411.798 200.645 411.98C200.868 412.159 201.245 412.323 201.775 412.472C202.308 412.622 202.724 412.787 203.023 412.969C203.325 413.148 203.547 413.357 203.691 413.597C203.837 413.838 203.911 414.12 203.911 414.445C203.911 414.964 203.708 415.38 203.304 415.693C202.9 416.004 202.359 416.159 201.683 416.159C201.243 416.159 200.833 416.076 200.452 415.909C200.071 415.739 199.777 415.507 199.569 415.214C199.364 414.922 199.261 414.589 199.261 414.217H200.109C200.109 414.604 200.251 414.91 200.536 415.135C200.823 415.358 201.205 415.469 201.683 415.469C202.128 415.469 202.469 415.379 202.706 415.197C202.944 415.015 203.062 414.768 203.062 414.454C203.062 414.141 202.953 413.899 202.733 413.729C202.513 413.556 202.115 413.386 201.538 413.219ZM208.987 413.747C208.987 414.47 208.821 415.053 208.49 415.496C208.159 415.938 207.711 416.159 207.146 416.159C206.568 416.159 206.114 415.976 205.783 415.61V417.9H204.97V411.317H205.713L205.752 411.844C206.084 411.434 206.544 411.229 207.132 411.229C207.704 411.229 208.155 411.444 208.486 411.875C208.82 412.305 208.987 412.904 208.987 413.672V413.747ZM208.174 413.654C208.174 413.118 208.06 412.695 207.831 412.384C207.603 412.074 207.289 411.919 206.891 411.919C206.398 411.919 206.029 412.137 205.783 412.573V414.845C206.026 415.279 206.398 415.496 206.899 415.496C207.289 415.496 207.598 415.342 207.827 415.034C208.058 414.724 208.174 414.264 208.174 413.654ZM209.91 413.65C209.91 413.184 210.001 412.765 210.183 412.393C210.367 412.021 210.622 411.734 210.947 411.532C211.276 411.33 211.649 411.229 212.068 411.229C212.716 411.229 213.238 411.453 213.637 411.901C214.038 412.349 214.239 412.945 214.239 413.69V413.747C214.239 414.21 214.15 414.626 213.971 414.995C213.795 415.361 213.542 415.647 213.211 415.852C212.882 416.057 212.505 416.159 212.077 416.159C211.432 416.159 210.909 415.935 210.508 415.487C210.11 415.039 209.91 414.445 209.91 413.707V413.65ZM210.728 413.747C210.728 414.274 210.849 414.697 211.092 415.017C211.339 415.336 211.667 415.496 212.077 415.496C212.49 415.496 212.818 415.335 213.061 415.012C213.304 414.687 213.426 414.233 213.426 413.65C213.426 413.129 213.301 412.707 213.052 412.384C212.806 412.059 212.478 411.897 212.068 411.897C211.667 411.897 211.343 412.056 211.097 412.376C210.851 412.695 210.728 413.152 210.728 413.747ZM216.687 413.87L216.178 414.401V416.071H215.365V409.321H216.178V413.404L216.613 412.881L218.094 411.317H219.082L217.232 413.303L219.298 416.071H218.344L216.687 413.87ZM221.909 416.159C221.264 416.159 220.74 415.948 220.335 415.526C219.931 415.102 219.729 414.535 219.729 413.826V413.676C219.729 413.205 219.818 412.784 219.997 412.415C220.179 412.043 220.431 411.753 220.753 411.545C221.078 411.334 221.43 411.229 221.808 411.229C222.426 411.229 222.906 411.432 223.249 411.839C223.592 412.247 223.763 412.83 223.763 413.589V413.927H220.542C220.554 414.396 220.69 414.775 220.951 415.065C221.214 415.352 221.548 415.496 221.953 415.496C222.24 415.496 222.483 415.437 222.682 415.32C222.881 415.203 223.056 415.047 223.205 414.854L223.702 415.241C223.303 415.853 222.705 416.159 221.909 416.159ZM221.808 411.897C221.479 411.897 221.204 412.017 220.981 412.257C220.759 412.494 220.621 412.828 220.568 413.259H222.95V413.197C222.927 412.784 222.815 412.465 222.616 412.239C222.417 412.011 222.147 411.897 221.808 411.897ZM227.578 414.81C227.578 414.59 227.495 414.421 227.328 414.3C227.164 414.177 226.875 414.072 226.462 413.984C226.052 413.896 225.725 413.791 225.482 413.668C225.242 413.545 225.063 413.398 224.946 413.228C224.832 413.058 224.774 412.856 224.774 412.622C224.774 412.232 224.939 411.902 225.267 411.633C225.598 411.363 226.02 411.229 226.532 411.229C227.071 411.229 227.508 411.368 227.842 411.646C228.179 411.924 228.347 412.28 228.347 412.714H227.53C227.53 412.491 227.435 412.299 227.244 412.138C227.057 411.977 226.819 411.897 226.532 411.897C226.236 411.897 226.005 411.961 225.838 412.09C225.671 412.219 225.587 412.387 225.587 412.595C225.587 412.792 225.665 412.94 225.82 413.039C225.976 413.139 226.255 413.234 226.66 413.325C227.067 413.416 227.397 413.524 227.648 413.65C227.9 413.776 228.086 413.928 228.207 414.107C228.33 414.283 228.391 414.498 228.391 414.753C228.391 415.178 228.221 415.519 227.881 415.777C227.542 416.032 227.101 416.159 226.559 416.159C226.178 416.159 225.841 416.092 225.548 415.957C225.255 415.822 225.025 415.635 224.858 415.395C224.694 415.151 224.612 414.889 224.612 414.608H225.425C225.44 414.88 225.548 415.097 225.75 415.258C225.955 415.417 226.225 415.496 226.559 415.496C226.866 415.496 227.112 415.434 227.297 415.311C227.484 415.185 227.578 415.018 227.578 414.81ZM230.655 410.165V411.317H231.543V411.945H230.655V414.894C230.655 415.084 230.695 415.228 230.774 415.324C230.853 415.418 230.987 415.465 231.178 415.465C231.272 415.465 231.401 415.447 231.565 415.412V416.071C231.351 416.13 231.143 416.159 230.941 416.159C230.577 416.159 230.303 416.049 230.119 415.83C229.934 415.61 229.842 415.298 229.842 414.894V411.945H228.976V411.317H229.842V410.165H230.655ZM235.534 416.071C235.487 415.978 235.449 415.811 235.419 415.57C235.041 415.963 234.59 416.159 234.066 416.159C233.597 416.159 233.212 416.027 232.91 415.764C232.611 415.497 232.462 415.16 232.462 414.753C232.462 414.258 232.649 413.874 233.024 413.602C233.402 413.326 233.932 413.189 234.615 413.189H235.406V412.815C235.406 412.531 235.321 412.305 235.151 412.138C234.981 411.968 234.731 411.883 234.4 411.883C234.11 411.883 233.867 411.957 233.67 412.103C233.474 412.25 233.376 412.427 233.376 412.635H232.558C232.558 412.398 232.642 412.169 232.809 411.949C232.979 411.727 233.207 411.551 233.494 411.422C233.784 411.293 234.102 411.229 234.448 411.229C234.996 411.229 235.425 411.366 235.736 411.642C236.046 411.914 236.207 412.291 236.219 412.771V414.96C236.219 415.396 236.275 415.743 236.386 416.001V416.071H235.534ZM234.184 415.452C234.439 415.452 234.681 415.386 234.909 415.254C235.138 415.122 235.304 414.951 235.406 414.74V413.764H234.769C233.773 413.764 233.275 414.056 233.275 414.639C233.275 414.894 233.36 415.093 233.53 415.236C233.7 415.38 233.918 415.452 234.184 415.452ZM239.502 415.496C239.792 415.496 240.046 415.408 240.263 415.232C240.479 415.056 240.6 414.837 240.623 414.573H241.392C241.377 414.845 241.284 415.105 241.111 415.351C240.938 415.597 240.706 415.793 240.416 415.94C240.129 416.086 239.825 416.159 239.502 416.159C238.855 416.159 238.339 415.944 237.956 415.513C237.575 415.08 237.384 414.488 237.384 413.738V413.602C237.384 413.139 237.469 412.727 237.639 412.367C237.809 412.006 238.052 411.727 238.369 411.527C238.688 411.328 239.064 411.229 239.498 411.229C240.031 411.229 240.474 411.388 240.825 411.708C241.18 412.027 241.369 412.442 241.392 412.951H240.623C240.6 412.644 240.482 412.392 240.271 412.195C240.063 411.996 239.806 411.897 239.498 411.897C239.085 411.897 238.764 412.046 238.536 412.345C238.31 412.641 238.197 413.07 238.197 413.632V413.786C238.197 414.334 238.31 414.756 238.536 415.052C238.761 415.348 239.083 415.496 239.502 415.496ZM243.735 413.87L243.225 414.401V416.071H242.412V409.321H243.225V413.404L243.66 412.881L245.141 411.317H246.13L244.28 413.303L246.345 416.071H245.392L243.735 413.87Z" fill="#2C363F"/>
<rect x="121.521" y="440.571" width="134" height="5" rx="2.5" fill="black"/>
<g clip-path="url(#clip2)">
<rect width="315" height="135" transform="translate(30.5215 260.571)" fill="white"/>
<g clip-path="url(#clip3)">
<rect x="50.5215" y="332.571" width="301" height="63" rx="7" fill="#CCE4FF"/>
<path d="M79.1729 355.974H75.0029L74.0664 358.571H72.7129L76.5137 348.618H77.6621L81.4697 358.571H80.123L79.1729 355.974ZM75.3994 354.894H78.7832L77.0879 350.238L75.3994 354.894ZM86.918 356.609C86.918 356.268 86.7881 356.003 86.5283 355.817C86.2731 355.625 85.8242 355.461 85.1816 355.324C84.5436 355.188 84.0355 355.024 83.6572 354.832C83.2835 354.641 83.0055 354.413 82.8232 354.149C82.6455 353.884 82.5566 353.57 82.5566 353.205C82.5566 352.599 82.8118 352.086 83.3223 351.667C83.8372 351.248 84.4935 351.038 85.291 351.038C86.1296 351.038 86.8086 351.255 87.3281 351.688C87.8522 352.121 88.1143 352.674 88.1143 353.349H86.8428C86.8428 353.002 86.6947 352.704 86.3984 352.453C86.1068 352.203 85.7376 352.077 85.291 352.077C84.8307 352.077 84.4707 352.178 84.2109 352.378C83.9512 352.579 83.8213 352.841 83.8213 353.164C83.8213 353.47 83.9421 353.7 84.1836 353.855C84.4251 354.01 84.8604 354.158 85.4893 354.299C86.1227 354.44 86.6354 354.609 87.0273 354.805C87.4193 355.001 87.7087 355.238 87.8955 355.516C88.0869 355.789 88.1826 356.124 88.1826 356.521C88.1826 357.181 87.9183 357.712 87.3896 358.113C86.861 358.51 86.1751 358.708 85.332 358.708C84.7396 358.708 84.2155 358.603 83.7598 358.394C83.304 358.184 82.9463 357.892 82.6865 357.519C82.4313 357.14 82.3037 356.733 82.3037 356.295H83.5684C83.5911 356.719 83.7598 357.056 84.0742 357.307C84.3932 357.553 84.8125 357.676 85.332 357.676C85.8105 357.676 86.1934 357.58 86.4805 357.389C86.7721 357.193 86.918 356.933 86.918 356.609ZM91.8945 355.147L91.1016 355.974V358.571H89.8369V348.071H91.1016V354.422L91.7783 353.609L94.082 351.175H95.6201L92.7422 354.265L95.9551 358.571H94.4717L91.8945 355.147ZM101.588 351.175L101.622 351.995C102.164 351.357 102.896 351.038 103.816 351.038C104.851 351.038 105.555 351.435 105.929 352.228C106.175 351.872 106.494 351.585 106.886 351.366C107.282 351.148 107.749 351.038 108.287 351.038C109.91 351.038 110.734 351.897 110.762 353.615V358.571H109.497V353.691C109.497 353.162 109.376 352.768 109.135 352.508C108.893 352.244 108.488 352.111 107.918 352.111C107.449 352.111 107.059 352.253 106.749 352.535C106.439 352.813 106.259 353.189 106.209 353.663V358.571H104.938V353.725C104.938 352.649 104.411 352.111 103.358 352.111C102.529 352.111 101.962 352.465 101.656 353.171V358.571H100.392V351.175H101.588ZM115.745 358.708C114.743 358.708 113.927 358.38 113.298 357.724C112.669 357.063 112.354 356.181 112.354 355.078V354.846C112.354 354.112 112.493 353.458 112.771 352.884C113.054 352.305 113.446 351.854 113.947 351.53C114.453 351.202 115 351.038 115.588 351.038C116.549 351.038 117.297 351.355 117.83 351.988C118.363 352.622 118.63 353.529 118.63 354.709V355.235H113.619C113.637 355.965 113.849 356.555 114.255 357.006C114.665 357.453 115.185 357.676 115.813 357.676C116.26 357.676 116.638 357.585 116.948 357.402C117.258 357.22 117.529 356.979 117.762 356.678L118.534 357.279C117.914 358.232 116.985 358.708 115.745 358.708ZM115.588 352.077C115.077 352.077 114.649 352.264 114.303 352.638C113.956 353.007 113.742 353.526 113.66 354.196H117.365V354.101C117.329 353.458 117.156 352.961 116.846 352.61C116.536 352.255 116.117 352.077 115.588 352.077ZM124.194 358.571V352.152H123.025V351.175H124.194V350.416C124.194 349.623 124.406 349.01 124.83 348.577C125.254 348.144 125.853 347.928 126.628 347.928C126.92 347.928 127.209 347.967 127.496 348.044L127.428 349.069C127.214 349.028 126.986 349.008 126.744 349.008C126.334 349.008 126.017 349.129 125.794 349.37C125.571 349.607 125.459 349.949 125.459 350.396V351.175H127.038V352.152H125.459V358.571H124.194ZM128.104 354.805C128.104 354.08 128.246 353.429 128.528 352.85C128.815 352.271 129.212 351.824 129.718 351.51C130.228 351.195 130.809 351.038 131.461 351.038C132.468 351.038 133.282 351.387 133.901 352.084C134.526 352.781 134.838 353.709 134.838 354.866V354.955C134.838 355.675 134.699 356.322 134.421 356.897C134.147 357.466 133.753 357.911 133.238 358.23C132.728 358.549 132.14 358.708 131.475 358.708C130.472 358.708 129.659 358.359 129.034 357.662C128.414 356.965 128.104 356.042 128.104 354.894V354.805ZM129.376 354.955C129.376 355.776 129.565 356.434 129.943 356.931C130.326 357.428 130.837 357.676 131.475 357.676C132.117 357.676 132.628 357.425 133.006 356.924C133.384 356.418 133.573 355.712 133.573 354.805C133.573 353.994 133.38 353.337 132.992 352.836C132.609 352.33 132.099 352.077 131.461 352.077C130.837 352.077 130.333 352.326 129.95 352.822C129.567 353.319 129.376 354.03 129.376 354.955ZM139.999 352.31C139.808 352.278 139.6 352.262 139.377 352.262C138.548 352.262 137.985 352.615 137.688 353.321V358.571H136.424V351.175H137.654L137.675 352.029C138.09 351.369 138.677 351.038 139.438 351.038C139.685 351.038 139.871 351.07 139.999 351.134V352.31ZM149.207 358.571C149.134 358.426 149.075 358.166 149.029 357.792C148.441 358.403 147.74 358.708 146.924 358.708C146.195 358.708 145.595 358.503 145.126 358.093C144.661 357.678 144.429 357.154 144.429 356.521C144.429 355.75 144.72 355.153 145.304 354.73C145.892 354.301 146.716 354.087 147.778 354.087H149.009V353.506C149.009 353.064 148.877 352.713 148.612 352.453C148.348 352.189 147.958 352.057 147.443 352.057C146.992 352.057 146.614 352.171 146.309 352.399C146.003 352.626 145.851 352.902 145.851 353.226H144.579C144.579 352.857 144.709 352.501 144.969 352.159C145.233 351.813 145.589 351.54 146.035 351.339C146.486 351.138 146.981 351.038 147.519 351.038C148.371 351.038 149.038 351.252 149.521 351.681C150.005 352.105 150.255 352.69 150.273 353.438V356.842C150.273 357.521 150.36 358.061 150.533 358.462V358.571H149.207ZM147.108 357.608C147.505 357.608 147.881 357.505 148.236 357.3C148.592 357.095 148.849 356.828 149.009 356.5V354.983H148.018C146.468 354.983 145.693 355.436 145.693 356.343C145.693 356.739 145.826 357.049 146.09 357.273C146.354 357.496 146.694 357.608 147.108 357.608ZM155.421 354.812C155.421 353.677 155.69 352.765 156.228 352.077C156.765 351.385 157.469 351.038 158.34 351.038C159.206 351.038 159.892 351.334 160.397 351.927V348.071H161.662V358.571H160.5L160.438 357.778C159.933 358.398 159.229 358.708 158.326 358.708C157.469 358.708 156.77 358.357 156.228 357.655C155.69 356.954 155.421 356.038 155.421 354.907V354.812ZM156.686 354.955C156.686 355.794 156.859 356.45 157.205 356.924C157.551 357.398 158.03 357.635 158.641 357.635C159.443 357.635 160.028 357.275 160.397 356.555V353.157C160.019 352.46 159.438 352.111 158.654 352.111C158.035 352.111 157.551 352.351 157.205 352.829C156.859 353.308 156.686 354.016 156.686 354.955ZM167.206 352.31C167.015 352.278 166.807 352.262 166.584 352.262C165.755 352.262 165.192 352.615 164.896 353.321V358.571H163.631V351.175H164.861L164.882 352.029C165.297 351.369 165.884 351.038 166.646 351.038C166.892 351.038 167.078 351.07 167.206 351.134V352.31ZM169.749 358.571H168.484V351.175H169.749V358.571ZM168.382 349.213C168.382 349.008 168.443 348.835 168.566 348.693C168.694 348.552 168.881 348.482 169.127 348.482C169.373 348.482 169.56 348.552 169.688 348.693C169.815 348.835 169.879 349.008 169.879 349.213C169.879 349.418 169.815 349.589 169.688 349.726C169.56 349.862 169.373 349.931 169.127 349.931C168.881 349.931 168.694 349.862 168.566 349.726C168.443 349.589 168.382 349.418 168.382 349.213ZM172.976 351.175L173.017 352.105C173.582 351.394 174.32 351.038 175.231 351.038C176.795 351.038 177.583 351.92 177.597 353.684V358.571H176.332V353.677C176.327 353.144 176.204 352.749 175.963 352.494C175.726 352.239 175.354 352.111 174.849 352.111C174.438 352.111 174.078 352.221 173.769 352.44C173.459 352.658 173.217 352.945 173.044 353.301V358.571H171.779V351.175H172.976ZM181.568 355.147L180.775 355.974V358.571H179.511V348.071H180.775V354.422L181.452 353.609L183.756 351.175H185.294L182.416 354.265L185.629 358.571H184.146L181.568 355.147ZM196.334 354.955C196.334 356.085 196.074 356.995 195.555 357.683C195.035 358.366 194.338 358.708 193.463 358.708C192.529 358.708 191.806 358.378 191.296 357.717L191.234 358.571H190.072V348.071H191.337V351.988C191.847 351.355 192.551 351.038 193.449 351.038C194.347 351.038 195.051 351.378 195.562 352.057C196.076 352.736 196.334 353.665 196.334 354.846V354.955ZM195.069 354.812C195.069 353.95 194.903 353.285 194.57 352.816C194.238 352.346 193.759 352.111 193.135 352.111C192.301 352.111 191.701 352.499 191.337 353.274V356.473C191.724 357.248 192.328 357.635 193.148 357.635C193.755 357.635 194.226 357.4 194.563 356.931C194.901 356.461 195.069 355.755 195.069 354.812ZM200.271 356.719L201.994 351.175H203.348L200.374 359.713C199.914 360.943 199.182 361.559 198.18 361.559L197.94 361.538L197.469 361.449V360.424L197.811 360.451C198.239 360.451 198.572 360.365 198.809 360.192C199.05 360.018 199.248 359.702 199.403 359.241L199.684 358.489L197.045 351.175H198.426L200.271 356.719ZM209.151 351.175L209.192 352.105C209.757 351.394 210.496 351.038 211.407 351.038C212.97 351.038 213.759 351.92 213.772 353.684V358.571H212.508V353.677C212.503 353.144 212.38 352.749 212.139 352.494C211.902 352.239 211.53 352.111 211.024 352.111C210.614 352.111 210.254 352.221 209.944 352.44C209.634 352.658 209.393 352.945 209.22 353.301V358.571H207.955V351.175H209.151ZM220.246 358.571C220.173 358.426 220.114 358.166 220.068 357.792C219.48 358.403 218.779 358.708 217.963 358.708C217.234 358.708 216.634 358.503 216.165 358.093C215.7 357.678 215.468 357.154 215.468 356.521C215.468 355.75 215.759 355.153 216.343 354.73C216.931 354.301 217.756 354.087 218.817 354.087H220.048V353.506C220.048 353.064 219.916 352.713 219.651 352.453C219.387 352.189 218.997 352.057 218.482 352.057C218.031 352.057 217.653 352.171 217.348 352.399C217.042 352.626 216.89 352.902 216.89 353.226H215.618C215.618 352.857 215.748 352.501 216.008 352.159C216.272 351.813 216.628 351.54 217.074 351.339C217.525 351.138 218.02 351.038 218.558 351.038C219.41 351.038 220.077 351.252 220.561 351.681C221.044 352.105 221.294 352.69 221.312 353.438V356.842C221.312 357.521 221.399 358.061 221.572 358.462V358.571H220.246ZM218.147 357.608C218.544 357.608 218.92 357.505 219.275 357.3C219.631 357.095 219.888 356.828 220.048 356.5V354.983H219.057C217.507 354.983 216.732 355.436 216.732 356.343C216.732 356.739 216.865 357.049 217.129 357.273C217.393 357.496 217.733 357.608 218.147 357.608ZM224.484 351.175L224.519 351.995C225.061 351.357 225.792 351.038 226.713 351.038C227.747 351.038 228.451 351.435 228.825 352.228C229.071 351.872 229.39 351.585 229.782 351.366C230.179 351.148 230.646 351.038 231.184 351.038C232.806 351.038 233.631 351.897 233.658 353.615V358.571H232.394V353.691C232.394 353.162 232.273 352.768 232.031 352.508C231.79 352.244 231.384 352.111 230.814 352.111C230.345 352.111 229.955 352.253 229.646 352.535C229.336 352.813 229.156 353.189 229.105 353.663V358.571H227.834V353.725C227.834 352.649 227.308 352.111 226.255 352.111C225.425 352.111 224.858 352.465 224.553 353.171V358.571H223.288V351.175H224.484ZM238.642 358.708C237.639 358.708 236.823 358.38 236.194 357.724C235.565 357.063 235.251 356.181 235.251 355.078V354.846C235.251 354.112 235.39 353.458 235.668 352.884C235.951 352.305 236.342 351.854 236.844 351.53C237.35 351.202 237.896 351.038 238.484 351.038C239.446 351.038 240.193 351.355 240.727 351.988C241.26 352.622 241.526 353.529 241.526 354.709V355.235H236.516C236.534 355.965 236.746 356.555 237.151 357.006C237.562 357.453 238.081 357.676 238.71 357.676C239.157 357.676 239.535 357.585 239.845 357.402C240.155 357.22 240.426 356.979 240.658 356.678L241.431 357.279C240.811 358.232 239.881 358.708 238.642 358.708ZM238.484 352.077C237.974 352.077 237.546 352.264 237.199 352.638C236.853 353.007 236.639 353.526 236.557 354.196H240.262V354.101C240.225 353.458 240.052 352.961 239.742 352.61C239.432 352.255 239.013 352.077 238.484 352.077ZM246.134 354.805C246.134 354.08 246.275 353.429 246.558 352.85C246.845 352.271 247.241 351.824 247.747 351.51C248.257 351.195 248.839 351.038 249.49 351.038C250.497 351.038 251.311 351.387 251.931 352.084C252.555 352.781 252.867 353.709 252.867 354.866V354.955C252.867 355.675 252.728 356.322 252.45 356.897C252.177 357.466 251.783 357.911 251.268 358.23C250.757 358.549 250.169 358.708 249.504 358.708C248.501 358.708 247.688 358.359 247.063 357.662C246.444 356.965 246.134 356.042 246.134 354.894V354.805ZM247.405 354.955C247.405 355.776 247.594 356.434 247.973 356.931C248.355 357.428 248.866 357.676 249.504 357.676C250.146 357.676 250.657 357.425 251.035 356.924C251.413 356.418 251.603 355.712 251.603 354.805C251.603 353.994 251.409 353.337 251.021 352.836C250.639 352.33 250.128 352.077 249.49 352.077C248.866 352.077 248.362 352.326 247.979 352.822C247.597 353.319 247.405 354.03 247.405 354.955ZM258.028 352.31C257.837 352.278 257.63 352.262 257.406 352.262C256.577 352.262 256.014 352.615 255.718 353.321V358.571H254.453V351.175H255.684L255.704 352.029C256.119 351.369 256.707 351.038 257.468 351.038C257.714 351.038 257.901 351.07 258.028 351.134V352.31ZM264.044 358.571H262.779V351.175H264.044V358.571ZM262.677 349.213C262.677 349.008 262.738 348.835 262.861 348.693C262.989 348.552 263.176 348.482 263.422 348.482C263.668 348.482 263.855 348.552 263.982 348.693C264.11 348.835 264.174 349.008 264.174 349.213C264.174 349.418 264.11 349.589 263.982 349.726C263.855 349.862 263.668 349.931 263.422 349.931C263.176 349.931 262.989 349.862 262.861 349.726C262.738 349.589 262.677 349.418 262.677 349.213ZM267.271 351.175L267.312 352.105C267.877 351.394 268.615 351.038 269.526 351.038C271.09 351.038 271.878 351.92 271.892 353.684V358.571H270.627V353.677C270.622 353.144 270.499 352.749 270.258 352.494C270.021 352.239 269.649 352.111 269.144 352.111C268.733 352.111 268.373 352.221 268.063 352.44C267.754 352.658 267.512 352.945 267.339 353.301V358.571H266.074V351.175H267.271ZM273.498 354.812C273.498 353.659 273.765 352.743 274.298 352.064C274.831 351.38 275.537 351.038 276.417 351.038C277.319 351.038 278.023 351.357 278.529 351.995L278.591 351.175H279.746V358.394C279.746 359.351 279.461 360.105 278.892 360.656C278.326 361.208 277.565 361.484 276.608 361.484C276.075 361.484 275.553 361.37 275.043 361.142C274.533 360.914 274.143 360.602 273.874 360.205L274.53 359.446C275.073 360.116 275.736 360.451 276.52 360.451C277.135 360.451 277.613 360.278 277.955 359.932C278.301 359.585 278.475 359.098 278.475 358.469V357.833C277.969 358.416 277.278 358.708 276.403 358.708C275.537 358.708 274.836 358.359 274.298 357.662C273.765 356.965 273.498 356.015 273.498 354.812ZM274.77 354.955C274.77 355.789 274.94 356.445 275.282 356.924C275.624 357.398 276.103 357.635 276.718 357.635C277.515 357.635 278.101 357.273 278.475 356.548V353.171C278.087 352.465 277.506 352.111 276.731 352.111C276.116 352.111 275.635 352.351 275.289 352.829C274.943 353.308 274.77 354.016 274.77 354.955ZM285.235 352.31C285.044 352.278 284.837 352.262 284.613 352.262C283.784 352.262 283.221 352.615 282.925 353.321V358.571H281.66V351.175H282.891L282.911 352.029C283.326 351.369 283.914 351.038 284.675 351.038C284.921 351.038 285.108 351.07 285.235 351.134V352.31ZM289.337 358.708C288.334 358.708 287.519 358.38 286.89 357.724C286.261 357.063 285.946 356.181 285.946 355.078V354.846C285.946 354.112 286.085 353.458 286.363 352.884C286.646 352.305 287.038 351.854 287.539 351.53C288.045 351.202 288.592 351.038 289.18 351.038C290.141 351.038 290.889 351.355 291.422 351.988C291.955 352.622 292.222 353.529 292.222 354.709V355.235H287.211C287.229 355.965 287.441 356.555 287.847 357.006C288.257 357.453 288.776 357.676 289.405 357.676C289.852 357.676 290.23 357.585 290.54 357.402C290.85 357.22 291.121 356.979 291.354 356.678L292.126 357.279C291.506 358.232 290.576 358.708 289.337 358.708ZM289.18 352.077C288.669 352.077 288.241 352.264 287.895 352.638C287.548 353.007 287.334 353.526 287.252 354.196H290.957V354.101C290.921 353.458 290.747 352.961 290.438 352.61C290.128 352.255 289.708 352.077 289.18 352.077ZM293.384 354.812C293.384 353.677 293.653 352.765 294.19 352.077C294.728 351.385 295.432 351.038 296.303 351.038C297.169 351.038 297.854 351.334 298.36 351.927V348.071H299.625V358.571H298.463L298.401 357.778C297.896 358.398 297.191 358.708 296.289 358.708C295.432 358.708 294.733 358.357 294.19 357.655C293.653 356.954 293.384 356.038 293.384 354.907V354.812ZM294.648 354.955C294.648 355.794 294.822 356.45 295.168 356.924C295.514 357.398 295.993 357.635 296.604 357.635C297.406 357.635 297.991 357.275 298.36 356.555V353.157C297.982 352.46 297.401 352.111 296.617 352.111C295.997 352.111 295.514 352.351 295.168 352.829C294.822 353.308 294.648 354.016 294.648 354.955ZM302.968 358.571H301.703V351.175H302.968V358.571ZM301.601 349.213C301.601 349.008 301.662 348.835 301.785 348.693C301.913 348.552 302.1 348.482 302.346 348.482C302.592 348.482 302.779 348.552 302.906 348.693C303.034 348.835 303.098 349.008 303.098 349.213C303.098 349.418 303.034 349.589 302.906 349.726C302.779 349.862 302.592 349.931 302.346 349.931C302.1 349.931 301.913 349.862 301.785 349.726C301.662 349.589 301.601 349.418 301.601 349.213ZM308.067 358.708C307.065 358.708 306.249 358.38 305.62 357.724C304.991 357.063 304.677 356.181 304.677 355.078V354.846C304.677 354.112 304.816 353.458 305.094 352.884C305.376 352.305 305.768 351.854 306.27 351.53C306.775 351.202 307.322 351.038 307.91 351.038C308.872 351.038 309.619 351.355 310.152 351.988C310.686 352.622 310.952 353.529 310.952 354.709V355.235H305.941C305.96 355.965 306.172 356.555 306.577 357.006C306.987 357.453 307.507 357.676 308.136 357.676C308.582 357.676 308.961 357.585 309.271 357.402C309.58 357.22 309.852 356.979 310.084 356.678L310.856 357.279C310.237 358.232 309.307 358.708 308.067 358.708ZM307.91 352.077C307.4 352.077 306.971 352.264 306.625 352.638C306.279 353.007 306.064 353.526 305.982 354.196H309.688V354.101C309.651 353.458 309.478 352.961 309.168 352.61C308.858 352.255 308.439 352.077 307.91 352.077ZM313.618 351.175L313.659 352.105C314.224 351.394 314.963 351.038 315.874 351.038C317.437 351.038 318.226 351.92 318.239 353.684V358.571H316.975V353.677C316.97 353.144 316.847 352.749 316.605 352.494C316.368 352.239 315.997 352.111 315.491 352.111C315.081 352.111 314.721 352.221 314.411 352.44C314.101 352.658 313.86 352.945 313.687 353.301V358.571H312.422V351.175H313.618ZM321.862 349.384V351.175H323.243V352.152H321.862V356.739C321.862 357.036 321.924 357.259 322.047 357.409C322.17 357.555 322.38 357.628 322.676 357.628C322.822 357.628 323.022 357.601 323.277 357.546V358.571C322.945 358.663 322.621 358.708 322.307 358.708C321.742 358.708 321.315 358.537 321.028 358.195C320.741 357.854 320.598 357.368 320.598 356.739V352.152H319.251V351.175H320.598V349.384H321.862ZM324.686 360.554L323.968 360.062C324.396 359.465 324.619 358.849 324.638 358.216V357.074H325.875V358.066C325.875 358.526 325.761 358.986 325.533 359.446C325.31 359.907 325.027 360.276 324.686 360.554ZM73.1436 375.805C73.1436 375.08 73.2848 374.429 73.5674 373.85C73.8545 373.271 74.251 372.824 74.7568 372.51C75.2673 372.195 75.8483 372.038 76.5 372.038C77.5072 372.038 78.3206 372.387 78.9404 373.084C79.5648 373.781 79.877 374.709 79.877 375.866V375.955C79.877 376.675 79.738 377.322 79.46 377.897C79.1865 378.466 78.7923 378.911 78.2773 379.23C77.7669 379.549 77.179 379.708 76.5137 379.708C75.5111 379.708 74.6976 379.359 74.0732 378.662C73.4535 377.965 73.1436 377.042 73.1436 375.894V375.805ZM74.415 375.955C74.415 376.776 74.6042 377.434 74.9824 377.931C75.3652 378.428 75.8757 378.676 76.5137 378.676C77.1562 378.676 77.6667 378.425 78.0449 377.924C78.4232 377.418 78.6123 376.712 78.6123 375.805C78.6123 374.994 78.4186 374.337 78.0312 373.836C77.6484 373.33 77.138 373.077 76.5 373.077C75.8757 373.077 75.3721 373.326 74.9893 373.822C74.6064 374.319 74.415 375.03 74.415 375.955ZM85.0381 373.31C84.8467 373.278 84.6393 373.262 84.416 373.262C83.5866 373.262 83.0238 373.615 82.7275 374.321V379.571H81.4629V372.175H82.6934L82.7139 373.029C83.1286 372.369 83.7165 372.038 84.4775 372.038C84.7236 372.038 84.9105 372.07 85.0381 372.134V373.31ZM93.9863 377.609C93.9863 377.268 93.8564 377.003 93.5967 376.817C93.3415 376.625 92.8926 376.461 92.25 376.324C91.612 376.188 91.1038 376.024 90.7256 375.832C90.3519 375.641 90.0739 375.413 89.8916 375.149C89.7139 374.884 89.625 374.57 89.625 374.205C89.625 373.599 89.8802 373.086 90.3906 372.667C90.9056 372.248 91.5618 372.038 92.3594 372.038C93.1979 372.038 93.877 372.255 94.3965 372.688C94.9206 373.121 95.1826 373.674 95.1826 374.349H93.9111C93.9111 374.002 93.763 373.704 93.4668 373.453C93.1751 373.203 92.806 373.077 92.3594 373.077C91.8991 373.077 91.5391 373.178 91.2793 373.378C91.0195 373.579 90.8896 373.841 90.8896 374.164C90.8896 374.47 91.0104 374.7 91.252 374.855C91.4935 375.01 91.9287 375.158 92.5576 375.299C93.1911 375.44 93.7038 375.609 94.0957 375.805C94.4876 376.001 94.777 376.238 94.9639 376.516C95.1553 376.789 95.251 377.124 95.251 377.521C95.251 378.181 94.9867 378.712 94.458 379.113C93.9294 379.51 93.2435 379.708 92.4004 379.708C91.8079 379.708 91.2839 379.603 90.8281 379.394C90.3724 379.184 90.0146 378.892 89.7549 378.519C89.4997 378.14 89.3721 377.733 89.3721 377.295H90.6367C90.6595 377.719 90.8281 378.056 91.1426 378.307C91.4616 378.553 91.8809 378.676 92.4004 378.676C92.8789 378.676 93.2617 378.58 93.5488 378.389C93.8405 378.193 93.9863 377.933 93.9863 377.609ZM101.465 379.571C101.392 379.426 101.333 379.166 101.287 378.792C100.699 379.403 99.9974 379.708 99.1816 379.708C98.4525 379.708 97.8532 379.503 97.3838 379.093C96.9189 378.678 96.6865 378.154 96.6865 377.521C96.6865 376.75 96.9782 376.153 97.5615 375.73C98.1494 375.301 98.9743 375.087 100.036 375.087H101.267V374.506C101.267 374.064 101.134 373.713 100.87 373.453C100.606 373.189 100.216 373.057 99.7012 373.057C99.25 373.057 98.8717 373.171 98.5664 373.399C98.2611 373.626 98.1084 373.902 98.1084 374.226H96.8369C96.8369 373.857 96.9668 373.501 97.2266 373.159C97.4909 372.813 97.8464 372.54 98.293 372.339C98.7441 372.138 99.2386 372.038 99.7764 372.038C100.629 372.038 101.296 372.252 101.779 372.681C102.262 373.105 102.513 373.69 102.531 374.438V377.842C102.531 378.521 102.618 379.061 102.791 379.462V379.571H101.465ZM99.3662 378.608C99.7627 378.608 100.139 378.505 100.494 378.3C100.85 378.095 101.107 377.828 101.267 377.5V375.983H100.275C98.7259 375.983 97.9512 376.436 97.9512 377.343C97.9512 377.739 98.0833 378.049 98.3477 378.273C98.612 378.496 98.9515 378.608 99.3662 378.608ZM106.824 377.719L108.547 372.175H109.9L106.927 380.713C106.466 381.943 105.735 382.559 104.732 382.559L104.493 382.538L104.021 382.449V381.424L104.363 381.451C104.792 381.451 105.124 381.365 105.361 381.192C105.603 381.018 105.801 380.702 105.956 380.241L106.236 379.489L103.598 372.175H104.979L106.824 377.719ZM110.256 381.554L109.538 381.062C109.966 380.465 110.19 379.849 110.208 379.216V378.074H111.445V379.066C111.445 379.526 111.331 379.986 111.104 380.446C110.88 380.907 110.598 381.276 110.256 381.554ZM117.454 370.001L117.249 372.448H116.49L116.497 369.071H117.454V370.001ZM119.3 370.001L119.095 372.448H118.336L118.343 369.071H119.3V370.001ZM124.762 377.609C124.762 377.268 124.632 377.003 124.372 376.817C124.117 376.625 123.668 376.461 123.025 376.324C122.387 376.188 121.879 376.024 121.501 375.832C121.127 375.641 120.849 375.413 120.667 375.149C120.489 374.884 120.4 374.57 120.4 374.205C120.4 373.599 120.656 373.086 121.166 372.667C121.681 372.248 122.337 372.038 123.135 372.038C123.973 372.038 124.652 372.255 125.172 372.688C125.696 373.121 125.958 373.674 125.958 374.349H124.687C124.687 374.002 124.538 373.704 124.242 373.453C123.951 373.203 123.581 373.077 123.135 373.077C122.674 373.077 122.314 373.178 122.055 373.378C121.795 373.579 121.665 373.841 121.665 374.164C121.665 374.47 121.786 374.7 122.027 374.855C122.269 375.01 122.704 375.158 123.333 375.299C123.966 375.44 124.479 375.609 124.871 375.805C125.263 376.001 125.552 376.238 125.739 376.516C125.931 376.789 126.026 377.124 126.026 377.521C126.026 378.181 125.762 378.712 125.233 379.113C124.705 379.51 124.019 379.708 123.176 379.708C122.583 379.708 122.059 379.603 121.604 379.394C121.148 379.184 120.79 378.892 120.53 378.519C120.275 378.14 120.147 377.733 120.147 377.295H121.412C121.435 377.719 121.604 378.056 121.918 378.307C122.237 378.553 122.656 378.676 123.176 378.676C123.654 378.676 124.037 378.58 124.324 378.389C124.616 378.193 124.762 377.933 124.762 377.609ZM132.24 378.84C131.748 379.419 131.026 379.708 130.073 379.708C129.285 379.708 128.683 379.48 128.269 379.025C127.858 378.564 127.651 377.885 127.646 376.987V372.175H128.911V376.953C128.911 378.074 129.367 378.635 130.278 378.635C131.244 378.635 131.887 378.275 132.206 377.555V372.175H133.471V379.571H132.268L132.24 378.84ZM138.974 373.31C138.782 373.278 138.575 373.262 138.352 373.262C137.522 373.262 136.959 373.615 136.663 374.321V379.571H135.398V372.175H136.629L136.649 373.029C137.064 372.369 137.652 372.038 138.413 372.038C138.659 372.038 138.846 372.07 138.974 372.134V373.31ZM146.391 375.955C146.391 377.081 146.133 377.988 145.618 378.676C145.103 379.364 144.406 379.708 143.526 379.708C142.629 379.708 141.922 379.423 141.407 378.854V382.415H140.143V372.175H141.298L141.359 372.995C141.874 372.357 142.59 372.038 143.506 372.038C144.395 372.038 145.096 372.373 145.611 373.043C146.131 373.713 146.391 374.645 146.391 375.839V375.955ZM145.126 375.812C145.126 374.978 144.948 374.319 144.593 373.836C144.237 373.353 143.75 373.111 143.13 373.111C142.364 373.111 141.79 373.451 141.407 374.13V377.664C141.785 378.339 142.364 378.676 143.144 378.676C143.75 378.676 144.23 378.437 144.586 377.958C144.946 377.475 145.126 376.76 145.126 375.812ZM151.579 373.31C151.388 373.278 151.18 373.262 150.957 373.262C150.128 373.262 149.565 373.615 149.269 374.321V379.571H148.004V372.175H149.234L149.255 373.029C149.67 372.369 150.257 372.038 151.019 372.038C151.265 372.038 151.451 372.07 151.579 372.134V373.31ZM154.122 379.571H152.857V372.175H154.122V379.571ZM152.755 370.213C152.755 370.008 152.816 369.835 152.939 369.693C153.067 369.552 153.254 369.482 153.5 369.482C153.746 369.482 153.933 369.552 154.061 369.693C154.188 369.835 154.252 370.008 154.252 370.213C154.252 370.418 154.188 370.589 154.061 370.726C153.933 370.862 153.746 370.931 153.5 370.931C153.254 370.931 153.067 370.862 152.939 370.726C152.816 370.589 152.755 370.418 152.755 370.213ZM160.459 377.609C160.459 377.268 160.329 377.003 160.069 376.817C159.814 376.625 159.365 376.461 158.723 376.324C158.085 376.188 157.576 376.024 157.198 375.832C156.825 375.641 156.547 375.413 156.364 375.149C156.187 374.884 156.098 374.57 156.098 374.205C156.098 373.599 156.353 373.086 156.863 372.667C157.378 372.248 158.035 372.038 158.832 372.038C159.671 372.038 160.35 372.255 160.869 372.688C161.393 373.121 161.655 373.674 161.655 374.349H160.384C160.384 374.002 160.236 373.704 159.939 373.453C159.648 373.203 159.279 373.077 158.832 373.077C158.372 373.077 158.012 373.178 157.752 373.378C157.492 373.579 157.362 373.841 157.362 374.164C157.362 374.47 157.483 374.7 157.725 374.855C157.966 375.01 158.401 375.158 159.03 375.299C159.664 375.44 160.176 375.609 160.568 375.805C160.96 376.001 161.25 376.238 161.437 376.516C161.628 376.789 161.724 377.124 161.724 377.521C161.724 378.181 161.459 378.712 160.931 379.113C160.402 379.51 159.716 379.708 158.873 379.708C158.281 379.708 157.757 379.603 157.301 379.394C156.845 379.184 156.487 378.892 156.228 378.519C155.972 378.14 155.845 377.733 155.845 377.295H157.109C157.132 377.719 157.301 378.056 157.615 378.307C157.934 378.553 158.354 378.676 158.873 378.676C159.352 378.676 159.734 378.58 160.021 378.389C160.313 378.193 160.459 377.933 160.459 377.609ZM166.44 379.708C165.438 379.708 164.622 379.38 163.993 378.724C163.364 378.063 163.05 377.181 163.05 376.078V375.846C163.05 375.112 163.189 374.458 163.467 373.884C163.749 373.305 164.141 372.854 164.643 372.53C165.148 372.202 165.695 372.038 166.283 372.038C167.245 372.038 167.992 372.355 168.525 372.988C169.059 373.622 169.325 374.529 169.325 375.709V376.235H164.314C164.333 376.965 164.545 377.555 164.95 378.006C165.36 378.453 165.88 378.676 166.509 378.676C166.955 378.676 167.334 378.585 167.644 378.402C167.953 378.22 168.225 377.979 168.457 377.678L169.229 378.279C168.61 379.232 167.68 379.708 166.44 379.708ZM166.283 373.077C165.773 373.077 165.344 373.264 164.998 373.638C164.652 374.007 164.438 374.526 164.355 375.196H168.061V375.101C168.024 374.458 167.851 373.961 167.541 373.61C167.231 373.255 166.812 373.077 166.283 373.077ZM175.457 372.175L175.491 372.995C176.034 372.357 176.765 372.038 177.686 372.038C178.72 372.038 179.424 372.435 179.798 373.228C180.044 372.872 180.363 372.585 180.755 372.366C181.151 372.148 181.618 372.038 182.156 372.038C183.779 372.038 184.604 372.897 184.631 374.615V379.571H183.366V374.691C183.366 374.162 183.245 373.768 183.004 373.508C182.762 373.244 182.357 373.111 181.787 373.111C181.318 373.111 180.928 373.253 180.618 373.535C180.308 373.813 180.128 374.189 180.078 374.663V379.571H178.807V374.725C178.807 373.649 178.28 373.111 177.228 373.111C176.398 373.111 175.831 373.465 175.525 374.171V379.571H174.261V372.175H175.457ZM189.614 379.708C188.612 379.708 187.796 379.38 187.167 378.724C186.538 378.063 186.224 377.181 186.224 376.078V375.846C186.224 375.112 186.363 374.458 186.641 373.884C186.923 373.305 187.315 372.854 187.816 372.53C188.322 372.202 188.869 372.038 189.457 372.038C190.419 372.038 191.166 372.355 191.699 372.988C192.232 373.622 192.499 374.529 192.499 375.709V376.235H187.488C187.507 376.965 187.718 377.555 188.124 378.006C188.534 378.453 189.054 378.676 189.683 378.676C190.129 378.676 190.507 378.585 190.817 378.402C191.127 378.22 191.398 377.979 191.631 377.678L192.403 378.279C191.784 379.232 190.854 379.708 189.614 379.708ZM189.457 373.077C188.947 373.077 188.518 373.264 188.172 373.638C187.826 374.007 187.611 374.526 187.529 375.196H191.234V375.101C191.198 374.458 191.025 373.961 190.715 373.61C190.405 373.255 189.986 373.077 189.457 373.077ZM194.81 370.001L194.604 372.448H193.846L193.853 369.071H194.81V370.001ZM196.655 370.001L196.45 372.448H195.691L195.698 369.071H196.655V370.001ZM198.385 378.908C198.385 378.69 198.449 378.507 198.576 378.361C198.708 378.216 198.904 378.143 199.164 378.143C199.424 378.143 199.62 378.216 199.752 378.361C199.889 378.507 199.957 378.69 199.957 378.908C199.957 379.118 199.889 379.293 199.752 379.435C199.62 379.576 199.424 379.647 199.164 379.647C198.904 379.647 198.708 379.576 198.576 379.435C198.449 379.293 198.385 379.118 198.385 378.908Z" fill="#2C363F"/>
</g>
</g>
<path d="M50.5216 238.571L57.6949 245.571L58.962 244.335L53.9579 239.431H64.8682V237.712H53.9579L58.962 232.85L57.6949 231.571L50.5216 238.571Z" fill="#2C363F"/>
<path opacity="0.25" d="M166.521 216.071H210.586" stroke="#2C363F" stroke-width="3" stroke-linecap="round"/>
<path fill-rule="evenodd" clip-rule="evenodd" d="M310.521 253.571C318.806 253.571 325.521 246.856 325.521 238.571C325.521 230.287 318.806 223.571 310.521 223.571C302.237 223.571 295.521 230.287 295.521 238.571C295.521 246.856 302.237 253.571 310.521 253.571ZM315.859 232.758C315.566 232.432 315.065 232.405 314.739 232.697C314.413 232.99 314.385 233.491 314.678 233.817C315.861 235.136 316.539 236.942 316.539 238.84C316.539 240.738 315.861 242.544 314.678 243.863C314.385 244.189 314.413 244.69 314.739 244.983C315.065 245.275 315.566 245.248 315.859 244.922C317.318 243.296 318.125 241.107 318.125 238.84C318.125 236.573 317.318 234.384 315.859 232.758ZM313.371 235.53C313.078 235.204 312.577 235.177 312.251 235.47C311.925 235.762 311.897 236.264 312.19 236.59C312.713 237.172 313.019 237.979 313.019 238.836C313.019 239.693 312.713 240.5 312.19 241.083C311.897 241.409 311.925 241.91 312.251 242.203C312.577 242.495 313.078 242.468 313.371 242.142C314.169 241.252 314.605 240.062 314.605 238.836C314.605 237.611 314.169 236.42 313.371 235.53ZM310.374 233.343C310.374 233.031 310.19 232.747 309.905 232.619C309.62 232.491 309.286 232.543 309.053 232.751L305.754 235.691H303.238C302.799 235.691 302.444 236.046 302.444 236.484V241.197C302.444 241.635 302.799 241.99 303.238 241.99H305.754L309.053 244.93C309.286 245.138 309.62 245.19 309.905 245.062C310.19 244.934 310.374 244.65 310.374 244.338V233.343Z" fill="#2C363F"/>
</g>
</g>
</g>
</g>
<rect x="90.1641" y="119" width="195" height="49" rx="24.5" fill="#CCE4FF"/>
<path d="M116.141 143.662C114.533 143.2 113.361 142.633 112.625 141.963C111.896 141.286 111.531 140.452 111.531 139.463C111.531 138.343 111.977 137.419 112.869 136.689C113.768 135.954 114.933 135.586 116.365 135.586C117.342 135.586 118.211 135.775 118.973 136.152C119.741 136.53 120.333 137.051 120.75 137.715C121.173 138.379 121.385 139.105 121.385 139.893H119.5C119.5 139.033 119.227 138.359 118.68 137.871C118.133 137.376 117.361 137.129 116.365 137.129C115.441 137.129 114.718 137.334 114.197 137.744C113.683 138.148 113.426 138.711 113.426 139.434C113.426 140.013 113.67 140.505 114.158 140.908C114.653 141.305 115.49 141.67 116.668 142.002C117.853 142.334 118.777 142.702 119.441 143.105C120.112 143.503 120.607 143.968 120.926 144.502C121.251 145.036 121.414 145.664 121.414 146.387C121.414 147.539 120.965 148.464 120.066 149.16C119.168 149.85 117.967 150.195 116.463 150.195C115.486 150.195 114.575 150.01 113.729 149.639C112.882 149.261 112.228 148.747 111.766 148.096C111.31 147.445 111.082 146.706 111.082 145.879H112.967C112.967 146.738 113.283 147.419 113.914 147.92C114.552 148.415 115.402 148.662 116.463 148.662C117.452 148.662 118.211 148.46 118.738 148.057C119.266 147.653 119.529 147.103 119.529 146.406C119.529 145.71 119.285 145.173 118.797 144.795C118.309 144.411 117.423 144.033 116.141 143.662ZM128.209 150.195C126.777 150.195 125.611 149.727 124.713 148.789C123.814 147.845 123.365 146.585 123.365 145.01V144.678C123.365 143.63 123.564 142.695 123.961 141.875C124.365 141.048 124.924 140.404 125.641 139.941C126.363 139.473 127.145 139.238 127.984 139.238C129.358 139.238 130.426 139.691 131.188 140.596C131.949 141.501 132.33 142.796 132.33 144.482V145.234H125.172C125.198 146.276 125.501 147.119 126.08 147.764C126.666 148.402 127.408 148.721 128.307 148.721C128.945 148.721 129.485 148.59 129.928 148.33C130.37 148.07 130.758 147.725 131.09 147.295L132.193 148.154C131.308 149.515 129.98 150.195 128.209 150.195ZM127.984 140.723C127.255 140.723 126.643 140.99 126.148 141.523C125.654 142.051 125.348 142.793 125.23 143.75H130.523V143.613C130.471 142.695 130.224 141.986 129.781 141.484C129.339 140.977 128.74 140.723 127.984 140.723ZM139.096 150.195C137.663 150.195 136.498 149.727 135.6 148.789C134.701 147.845 134.252 146.585 134.252 145.01V144.678C134.252 143.63 134.451 142.695 134.848 141.875C135.251 141.048 135.811 140.404 136.527 139.941C137.25 139.473 138.031 139.238 138.871 139.238C140.245 139.238 141.312 139.691 142.074 140.596C142.836 141.501 143.217 142.796 143.217 144.482V145.234H136.059C136.085 146.276 136.387 147.119 136.967 147.764C137.553 148.402 138.295 148.721 139.193 148.721C139.831 148.721 140.372 148.59 140.814 148.33C141.257 148.07 141.645 147.725 141.977 147.295L143.08 148.154C142.195 149.515 140.867 150.195 139.096 150.195ZM138.871 140.723C138.142 140.723 137.53 140.99 137.035 141.523C136.54 142.051 136.234 142.793 136.117 143.75H141.41V143.613C141.358 142.695 141.111 141.986 140.668 141.484C140.225 140.977 139.626 140.723 138.871 140.723ZM152.646 140.713C153.447 139.73 154.489 139.238 155.771 139.238C158.005 139.238 159.131 140.498 159.15 143.018V150H157.344V143.008C157.337 142.246 157.161 141.683 156.816 141.318C156.478 140.954 155.947 140.771 155.225 140.771C154.639 140.771 154.124 140.928 153.682 141.24C153.239 141.553 152.894 141.963 152.646 142.471V150H150.84V135H152.646V140.713ZM161.658 144.619C161.658 143.584 161.86 142.653 162.264 141.826C162.674 140.999 163.24 140.361 163.963 139.912C164.692 139.463 165.522 139.238 166.453 139.238C167.892 139.238 169.054 139.736 169.939 140.732C170.831 141.729 171.277 143.053 171.277 144.707V144.834C171.277 145.863 171.079 146.787 170.682 147.607C170.291 148.421 169.728 149.056 168.992 149.512C168.263 149.967 167.423 150.195 166.473 150.195C165.04 150.195 163.878 149.697 162.986 148.701C162.101 147.705 161.658 146.387 161.658 144.746V144.619ZM163.475 144.834C163.475 146.006 163.745 146.947 164.285 147.656C164.832 148.366 165.561 148.721 166.473 148.721C167.391 148.721 168.12 148.363 168.66 147.646C169.201 146.924 169.471 145.915 169.471 144.619C169.471 143.46 169.194 142.523 168.641 141.807C168.094 141.084 167.365 140.723 166.453 140.723C165.561 140.723 164.842 141.077 164.295 141.787C163.748 142.497 163.475 143.512 163.475 144.834ZM183.18 147.51L185.211 139.434H187.018L183.941 150H182.477L179.908 141.992L177.408 150H175.943L172.877 139.434H174.674L176.754 147.344L179.215 139.434H180.67L183.18 147.51ZM196.35 150H194.543V139.434H196.35V150ZM194.396 136.631C194.396 136.338 194.484 136.09 194.66 135.889C194.842 135.687 195.109 135.586 195.461 135.586C195.812 135.586 196.079 135.687 196.262 135.889C196.444 136.09 196.535 136.338 196.535 136.631C196.535 136.924 196.444 137.168 196.262 137.363C196.079 137.559 195.812 137.656 195.461 137.656C195.109 137.656 194.842 137.559 194.66 137.363C194.484 137.168 194.396 136.924 194.396 136.631ZM201.982 136.875V139.434H203.955V140.83H201.982V147.383C201.982 147.806 202.07 148.125 202.246 148.34C202.422 148.548 202.721 148.652 203.145 148.652C203.353 148.652 203.639 148.613 204.004 148.535V150C203.529 150.13 203.066 150.195 202.617 150.195C201.81 150.195 201.201 149.951 200.791 149.463C200.381 148.975 200.176 148.281 200.176 147.383V140.83H198.252V139.434H200.176V136.875H201.982ZM220.953 147.51L222.984 139.434H224.791L221.715 150H220.25L217.682 141.992L215.182 150H213.717L210.65 139.434H212.447L214.527 147.344L216.988 139.434H218.443L220.953 147.51ZM226.439 144.619C226.439 143.584 226.641 142.653 227.045 141.826C227.455 140.999 228.021 140.361 228.744 139.912C229.473 139.463 230.303 139.238 231.234 139.238C232.673 139.238 233.835 139.736 234.721 140.732C235.613 141.729 236.059 143.053 236.059 144.707V144.834C236.059 145.863 235.86 146.787 235.463 147.607C235.072 148.421 234.509 149.056 233.773 149.512C233.044 149.967 232.204 150.195 231.254 150.195C229.822 150.195 228.66 149.697 227.768 148.701C226.882 147.705 226.439 146.387 226.439 144.746V144.619ZM228.256 144.834C228.256 146.006 228.526 146.947 229.066 147.656C229.613 148.366 230.342 148.721 231.254 148.721C232.172 148.721 232.901 148.363 233.441 147.646C233.982 146.924 234.252 145.915 234.252 144.619C234.252 143.46 233.975 142.523 233.422 141.807C232.875 141.084 232.146 140.723 231.234 140.723C230.342 140.723 229.623 141.077 229.076 141.787C228.529 142.497 228.256 143.512 228.256 144.834ZM243.713 141.055C243.439 141.009 243.143 140.986 242.824 140.986C241.639 140.986 240.835 141.491 240.412 142.5V150H238.605V139.434H240.363L240.393 140.654C240.985 139.71 241.825 139.238 242.912 139.238C243.264 139.238 243.531 139.284 243.713 139.375V141.055ZM248.613 145.107L247.48 146.289V150H245.674V135H247.48V144.072L248.447 142.91L251.738 139.434H253.936L249.824 143.848L254.414 150H252.295L248.613 145.107ZM262.234 147.197C262.234 146.709 262.049 146.331 261.678 146.064C261.313 145.791 260.672 145.557 259.754 145.361C258.842 145.166 258.117 144.932 257.576 144.658C257.042 144.385 256.645 144.059 256.385 143.682C256.131 143.304 256.004 142.855 256.004 142.334C256.004 141.468 256.368 140.736 257.098 140.137C257.833 139.538 258.771 139.238 259.91 139.238C261.108 139.238 262.078 139.548 262.82 140.166C263.569 140.785 263.943 141.576 263.943 142.539H262.127C262.127 142.044 261.915 141.618 261.492 141.26C261.076 140.902 260.548 140.723 259.91 140.723C259.253 140.723 258.738 140.866 258.367 141.152C257.996 141.439 257.811 141.813 257.811 142.275C257.811 142.712 257.983 143.04 258.328 143.262C258.673 143.483 259.295 143.695 260.193 143.896C261.098 144.098 261.831 144.339 262.391 144.619C262.951 144.899 263.364 145.238 263.631 145.635C263.904 146.025 264.041 146.504 264.041 147.07C264.041 148.014 263.663 148.773 262.908 149.346C262.153 149.912 261.173 150.195 259.969 150.195C259.122 150.195 258.374 150.046 257.723 149.746C257.072 149.447 256.561 149.03 256.189 148.496C255.825 147.956 255.643 147.373 255.643 146.748H257.449C257.482 147.354 257.723 147.835 258.172 148.193C258.628 148.545 259.227 148.721 259.969 148.721C260.652 148.721 261.199 148.584 261.609 148.311C262.026 148.031 262.234 147.66 262.234 147.197Z" fill="black"/>
</g>
<defs>
<filter id="filter0_d" x="15.5215" y="184.571" width="345.179" height="280" filterUnits="userSpaceOnUse" color-interpolation-filters="sRGB">
<feFlood flood-opacity="0" result="BackgroundImageFix"/>
<feColorMatrix in="SourceAlpha" type="matrix" values="0 0 0 0 0 0 0 0 0 0 0 0 0 0 0 0 0 0 127 0"/>
<feOffset dy="-4"/>
<feGaussianBlur stdDeviation="7.5"/>
<feColorMatrix type="matrix" values="0 0 0 0 0 0 0 0 0 0 0 0 0 0 0 0 0 0 0.1 0"/>
<feBlend mode="normal" in2="BackgroundImageFix" result="effect1_dropShadow"/>
<feBlend mode="normal" in="SourceGraphic" in2="effect1_dropShadow" result="shape"/>
</filter>
<clipPath id="clip0">
<rect width="375" height="487.5" fill="white" transform="translate(0.164062)"/>
</clipPath>
<clipPath id="clip1">
<rect width="375" height="487.5" fill="white" transform="translate(0.164062)"/>
</clipPath>
<clipPath id="clip2">
<rect width="315" height="135" fill="white" transform="translate(30.5215 260.571)"/>
</clipPath>
<clipPath id="clip3">
<rect width="275" height="85" fill="white" transform="translate(50.5215 310.571)"/>
</clipPath>
</defs>
</svg>
