<svg width="72" height="50" viewBox="0 0 72 50" fill="none" xmlns="http://www.w3.org/2000/svg">
<g clip-path="url(#clip0)">
<path d="M28.6667 34.2222L47.8889 24.2778L28.6667 14.25V34.2222Z" fill="white"/>
<path d="M70.8058 10.7778C70.8058 10.7778 70.1117 5.88889 67.9736 3.72222C65.2803 0.888889 62.2536 0.888889 60.8375 0.722222C50.925 0 36.0139 0 36.0139 0H35.9861C35.9861 0 21.0753 0 11.107 0.722222C9.71863 0.888889 6.69196 0.888889 3.97085 3.72222C1.86057 5.88889 1.1664 10.7778 1.1664 10.7778C1.1664 10.7778 0.444458 16.5556 0.444458 22.3056V27.6944C0.444458 33.4444 1.1664 39.1944 1.1664 39.1944C1.1664 39.1944 1.86057 44.0833 3.99862 46.25C6.69196 49.0833 10.2461 49 11.8289 49.2778C17.5211 49.8333 35.9861 50 35.9861 50C35.9861 50 50.9247 49.9722 60.8653 49.25C62.2536 49.0833 65.2803 49.0833 68.0014 46.25C70.1395 44.0833 70.8336 39.1944 70.8336 39.1944C70.8336 39.1944 71.5556 33.4444 71.5556 27.6944V22.3056C71.5278 16.5556 70.8058 10.7778 70.8058 10.7778ZM28.6558 34.2222V14.25L47.8703 24.2778L28.6556 34.2222H28.6558Z" fill="#E52D27"/>
</g>
<defs>
<clipPath id="clip0">
<rect width="71.1111" height="50" fill="white" transform="translate(0.444458)"/>
</clipPath>
</defs>
</svg>
