<svg width="239" height="239" viewBox="0 0 239 239" fill="none" xmlns="http://www.w3.org/2000/svg">
<path fill-rule="evenodd" clip-rule="evenodd" d="M127 0.723605C141.547 -1.02661 155.54 5.54333 169.833 8.76594C185.711 12.3459 203.985 10.7712 216.69 20.9456C229.31 31.0529 238.427 47.6212 238.54 63.7899C238.661 81.1791 221.631 94.1145 217.319 110.961C214.469 122.093 217.101 133.665 217.714 145.14C218.534 160.507 228.706 177.113 221.576 190.75C214.888 203.54 195.571 202.668 183.497 210.576C171.124 218.68 163.825 235.863 149.211 238.148C134.476 240.451 122.29 225.649 107.729 222.421C93.6682 219.304 77.8204 226.024 64.991 219.478C52.234 212.97 46.9285 197.723 37.7566 186.724C28.2336 175.304 15.6555 166.277 9.38381 152.795C2.87236 138.797 -1.15935 122.942 0.97368 107.652C3.09749 92.4281 12.3132 79.1477 21.3887 66.7417C29.8501 55.1752 40.7265 45.8277 52.3417 37.4334C63.324 29.4963 75.8229 24.5928 87.9827 18.6138C100.933 12.2463 112.673 2.44741 127 0.723605Z" fill="#D6EAFF"/>
<path d="M119.5 78.0796L119.524 119.296L158.731 106.583M119.5 78.0796L119.475 119.296L80.2685 106.583M119.5 78.0796L153.665 72.3055L158.731 106.583M119.5 78.0796L85.7382 72.8139M158.731 106.583L119.539 119.342L143.746 152.702M158.731 106.583L174.78 137.291L143.746 152.702M143.746 152.702L119.5 119.371L95.2535 152.702M143.746 152.702L119.5 177.455L95.2535 152.702M95.2535 152.702L119.46 119.342L80.2685 106.583M95.2535 152.702L64.2195 137.291L80.2685 106.583M80.2685 106.583L85.7382 72.8139M85.7496 46.2046L85.7414 72.8043L85.7382 72.8139M60.4277 64.602L85.7281 72.8139L85.7382 72.8139" stroke="url(#paint0_linear)" stroke-width="2" stroke-linecap="round" stroke-linejoin="round" stroke-dasharray="10 10"/>
<rect x="49.1758" y="53.354" width="22.5" height="22.5" rx="11.25" fill="#3AB795"/>
<path d="M56.9402 62.1812L57.3708 59.9048H58.0278L57.3181 63.104H56.6545L56.1338 60.9639L55.613 63.104H54.9495L54.2397 59.9048H54.8967L55.3296 62.1768L55.8569 59.9048H56.415L56.9402 62.1812Z" fill="#2C363F"/>
<path d="M60.1855 62.4448H59.0297L58.81 63.104H58.109L59.3 59.9048H59.9108L61.1083 63.104H60.4074L60.1855 62.4448ZM59.2077 61.9109H60.0075L59.6054 60.7134L59.2077 61.9109Z" fill="#2C363F"/>
<path d="M62.4991 61.8208L62.1563 62.1899V63.104H61.4971V59.9048H62.1563V61.355L62.4464 60.9573L63.2615 59.9048H64.0723L62.9363 61.3264L64.1053 63.104H63.3209L62.4991 61.8208Z" fill="#2C363F"/>
<path d="M66.3684 61.7175H65.1028V62.5745H66.5881V63.104H64.4436V59.9048H66.5837V60.4387H65.1028V61.2012H66.3684V61.7175Z" fill="#2C363F"/>
<path d="M56.6458 68.5562L57.0764 66.2798H57.7334L57.0237 69.479H56.3601L55.8394 67.3389L55.3186 69.479H54.655L53.9453 66.2798H54.6023L55.0352 68.5518L55.5625 66.2798H56.1206L56.6458 68.5562Z" fill="#2C363F"/>
<path d="M60.8095 67.9519C60.8095 68.2668 60.7538 68.543 60.6425 68.7803C60.5312 69.0176 60.3715 69.2007 60.1635 69.3296C59.9569 69.4585 59.7196 69.5229 59.4516 69.5229C59.1864 69.5229 58.9499 69.4592 58.7419 69.3318C58.5338 69.2043 58.3727 69.0227 58.2585 68.7869C58.1442 68.5496 58.0863 68.2771 58.0849 67.9695V67.8113C58.0849 67.4963 58.1413 67.2195 58.2541 66.9807C58.3683 66.7405 58.5287 66.5566 58.7353 66.4292C58.9433 66.3003 59.1806 66.2358 59.4472 66.2358C59.7138 66.2358 59.9504 66.3003 60.1569 66.4292C60.3649 66.5566 60.5253 66.7405 60.6381 66.9807C60.7524 67.2195 60.8095 67.4956 60.8095 67.8091V67.9519ZM60.1415 67.8069C60.1415 67.4714 60.0815 67.2166 59.9613 67.0422C59.8412 66.8679 59.6698 66.7808 59.4472 66.7808C59.226 66.7808 59.0553 66.8672 58.9352 67.04C58.8151 67.2114 58.7543 67.4634 58.7528 67.7959V67.9519C58.7528 68.2786 58.8129 68.532 58.933 68.7122C59.0531 68.8923 59.226 68.9824 59.4516 68.9824C59.6728 68.9824 59.8427 68.896 59.9613 68.7231C60.08 68.5488 60.14 68.2954 60.1415 67.9629V67.8069Z" fill="#2C363F"/>
<path d="M62.5628 68.3079H62.0377V69.479H61.3785V66.2798H62.5672C62.9451 66.2798 63.2366 66.364 63.4417 66.5325C63.6468 66.7009 63.7493 66.939 63.7493 67.2466C63.7493 67.4648 63.7017 67.6472 63.6065 67.7937C63.5128 67.9387 63.3699 68.0544 63.178 68.1409L63.8702 69.4482V69.479H63.1627L62.5628 68.3079ZM62.0377 67.7739H62.5694C62.7349 67.7739 62.8631 67.7322 62.9539 67.6487C63.0447 67.5637 63.0902 67.4473 63.0902 67.2993C63.0902 67.1484 63.0469 67.0298 62.9605 66.9434C62.8756 66.8569 62.7445 66.8137 62.5672 66.8137H62.0377V67.7739Z" fill="#2C363F"/>
<path d="M64.3425 69.479V66.2798H65.3269C65.6081 66.2798 65.8594 66.3435 66.0805 66.4709C66.3032 66.5969 66.4768 66.7771 66.6013 67.0115C66.7258 67.2444 66.7881 67.5095 66.7881 67.8069V67.9541C66.7881 68.2515 66.7265 68.5159 66.6035 68.7473C66.4819 68.9788 66.3098 69.1582 66.0871 69.2856C65.8645 69.4131 65.6133 69.4775 65.3335 69.479H64.3425ZM65.0017 66.8137V68.9495H65.3203C65.5781 68.9495 65.7751 68.8652 65.9114 68.6968C66.0476 68.5283 66.1172 68.2874 66.1201 67.9739V67.8047C66.1201 67.4795 66.0527 67.2334 65.9179 67.0664C65.7832 66.8979 65.5862 66.8137 65.3269 66.8137H65.0017Z" fill="#2C363F"/>
<rect x="74.5" y="34.9561" width="22.5" height="22.5" rx="11.25" fill="#FF6666"/>
<path d="M78.6177 46.5559L78.3606 46.8328V47.5183H77.8662V45.1189H78.3606V46.2065L78.5781 45.9083L79.1895 45.1189H79.7976L78.9456 46.1851L79.8223 47.5183H79.234L78.6177 46.5559Z" fill="#2C363F"/>
<path d="M81.5196 46.4785H80.5704V47.1212H81.6844V47.5183H80.076V45.1189H81.6811V45.5193H80.5704V46.0912H81.5196V46.4785Z" fill="#2C363F"/>
<path d="M82.8693 46.2L83.3686 45.1189H83.9091L83.1214 46.6482V47.5183H82.6188V46.6482L81.831 45.1189H82.3732L82.8693 46.2Z" fill="#2C363F"/>
<path d="M86.0942 46.8262L86.4172 45.1189H86.91L86.3777 47.5183H85.88L85.4894 45.9132L85.0989 47.5183H84.6012L84.0689 45.1189H84.5616L84.8863 46.8229L85.2818 45.1189H85.7004L86.0942 46.8262Z" fill="#2C363F"/>
<path d="M89.217 46.373C89.217 46.6092 89.1753 46.8163 89.0918 46.9943C89.0083 47.1722 88.8885 47.3096 88.7325 47.4062C88.5776 47.5029 88.3996 47.5513 88.1986 47.5513C87.9997 47.5513 87.8223 47.5035 87.6663 47.4079C87.5103 47.3123 87.3894 47.1761 87.3038 46.9992C87.2181 46.8212 87.1747 46.6169 87.1736 46.3862V46.2675C87.1736 46.0313 87.2159 45.8237 87.3005 45.6446C87.3861 45.4644 87.5064 45.3265 87.6614 45.231C87.8174 45.1343 87.9953 45.0859 88.1953 45.0859C88.3952 45.0859 88.5727 45.1343 88.7276 45.231C88.8836 45.3265 89.0039 45.4644 89.0885 45.6446C89.1742 45.8237 89.217 46.0308 89.217 46.2659V46.373ZM88.716 46.2642C88.716 46.0126 88.671 45.8215 88.5809 45.6907C88.4908 45.56 88.3623 45.4946 88.1953 45.4946C88.0294 45.4946 87.9014 45.5594 87.8113 45.6891C87.7212 45.8176 87.6756 46.0066 87.6745 46.256V46.373C87.6745 46.618 87.7196 46.808 87.8097 46.9432C87.8998 47.0783 88.0294 47.1459 88.1986 47.1459C88.3645 47.1459 88.4919 47.0811 88.5809 46.9514C88.6699 46.8207 88.7149 46.6306 88.716 46.3812V46.2642Z" fill="#2C363F"/>
<path d="M90.532 46.64H90.1382V47.5183H89.6438V45.1189H90.5353C90.8188 45.1189 91.0374 45.1821 91.1912 45.3084C91.345 45.4348 91.4219 45.6133 91.4219 45.844C91.4219 46.0077 91.3862 46.1445 91.3148 46.2543C91.2445 46.3631 91.1374 46.4499 90.9934 46.5147L91.5125 47.4952V47.5183H90.9819L90.532 46.64ZM90.1382 46.2395H90.537C90.6611 46.2395 90.7572 46.2082 90.8254 46.1456C90.8935 46.0818 90.9275 45.9945 90.9275 45.8835C90.9275 45.7704 90.8951 45.6814 90.8303 45.6166C90.7666 45.5518 90.6683 45.5193 90.5353 45.5193H90.1382V46.2395Z" fill="#2C363F"/>
<path d="M91.8668 47.5183V45.1189H92.6051C92.816 45.1189 93.0044 45.1667 93.1703 45.2623C93.3373 45.3568 93.4675 45.4919 93.5609 45.6677C93.6543 45.8423 93.701 46.0412 93.701 46.2642V46.3746C93.701 46.5977 93.6548 46.796 93.5625 46.9695C93.4713 47.1431 93.3423 47.2777 93.1753 47.3733C93.0083 47.4689 92.8199 47.5172 92.61 47.5183H91.8668ZM92.3612 45.5193V47.1212H92.6001C92.7935 47.1212 92.9413 47.058 93.0434 46.9316C93.1456 46.8053 93.1978 46.6246 93.2 46.3895V46.2626C93.2 46.0187 93.1494 45.8341 93.0484 45.7089C92.9473 45.5825 92.7995 45.5193 92.6051 45.5193H92.3612Z" fill="#2C363F"/>
<rect x="108.25" y="166.205" width="22.5" height="22.5" rx="11.25" fill="#F29E4C"/>
<path d="M117.302 179.892H116.313L114.388 176.735V179.892H113.399V175.093H114.388L116.316 178.257V175.093H117.302V179.892Z" fill="#2C363F"/>
<path d="M119.289 179.098H121.389V179.892H118.3V175.093H119.289V179.098Z" fill="#2C363F"/>
<path d="M125.647 175.093V178.254C125.647 178.779 125.482 179.194 125.152 179.5C124.825 179.805 124.377 179.958 123.808 179.958C123.247 179.958 122.802 179.81 122.473 179.513C122.143 179.216 121.975 178.809 121.968 178.29V175.093H122.957V178.261C122.957 178.575 123.032 178.804 123.181 178.949C123.333 179.092 123.542 179.164 123.808 179.164C124.363 179.164 124.646 178.871 124.655 178.287V175.093H125.647Z" fill="#2C363F"/>
<rect x="52.9707" y="126.04" width="22.5" height="22.5" rx="11.25" fill="#C490D1"/>
<path d="M60.7201 138.739H58.9865L58.6569 139.728H57.6055L59.3918 134.929H60.3081L62.1044 139.728H61.053L60.7201 138.739ZM59.2534 137.938H60.4531L59.85 136.142L59.2534 137.938Z" fill="#2C363F"/>
<path d="M65.176 138.469C65.176 138.282 65.1101 138.139 64.9783 138.04C64.8464 137.939 64.6091 137.833 64.2663 137.724C63.9236 137.612 63.6522 137.502 63.4523 137.394C62.9073 137.1 62.6349 136.703 62.6349 136.204C62.6349 135.945 62.7074 135.714 62.8524 135.512C62.9996 135.308 63.2095 135.148 63.4819 135.034C63.7566 134.92 64.0642 134.863 64.4048 134.863C64.7475 134.863 65.053 134.925 65.321 135.051C65.5891 135.174 65.7967 135.348 65.944 135.575C66.0934 135.801 66.1681 136.058 66.1681 136.346H65.1793C65.1793 136.126 65.1101 135.956 64.9717 135.835C64.8332 135.712 64.6388 135.651 64.3883 135.651C64.1466 135.651 63.9587 135.702 63.8247 135.805C63.6907 135.906 63.6236 136.041 63.6236 136.208C63.6236 136.364 63.7017 136.494 63.8577 136.6C64.0159 136.705 64.2477 136.804 64.5531 136.896C65.1156 137.066 65.5254 137.275 65.7825 137.526C66.0395 137.776 66.1681 138.088 66.1681 138.462C66.1681 138.877 66.011 139.203 65.6968 139.441C65.3826 139.676 64.9596 139.793 64.4278 139.793C64.0587 139.793 63.7225 139.726 63.4193 139.592C63.1161 139.456 62.8843 139.271 62.7239 139.035C62.5657 138.8 62.4866 138.528 62.4866 138.218H63.4786C63.4786 138.748 63.795 139.012 64.4278 139.012C64.663 139.012 64.8464 138.965 64.9783 138.871C65.1101 138.774 65.176 138.64 65.176 138.469Z" fill="#2C363F"/>
<path d="M68.7519 137.971H67.9642V139.728H66.9754V134.929H68.7585C69.3254 134.929 69.7627 135.055 70.0703 135.308C70.3779 135.56 70.5317 135.917 70.5317 136.379C70.5317 136.706 70.4603 136.98 70.3175 137.2C70.1769 137.417 69.9626 137.591 69.6748 137.72L70.713 139.681V139.728H69.6517L68.7519 137.971ZM67.9642 137.17H68.7618C69.0101 137.17 69.2024 137.107 69.3386 136.982C69.4748 136.855 69.5429 136.68 69.5429 136.458C69.5429 136.232 69.4781 136.054 69.3485 135.924C69.221 135.794 69.0244 135.73 68.7585 135.73H67.9642V137.17Z" fill="#2C363F"/>
<rect x="163.528" y="126.04" width="22.5" height="22.5" rx="11.25" fill="#A4036F"/>
<path d="M170.296 138.538L171.383 134.929H172.484L170.813 139.728H169.782L168.117 134.929H169.215L170.296 138.538Z" fill="white"/>
<path d="M175.533 138.739H173.799L173.47 139.728H172.418L174.205 134.929H175.121L176.917 139.728H175.866L175.533 138.739ZM174.066 137.938H175.266L174.663 136.142L174.066 137.938Z" fill="white"/>
<path d="M177.5 139.728V134.929H178.977C179.399 134.929 179.776 135.024 180.107 135.215C180.441 135.404 180.702 135.675 180.889 136.026C181.075 136.376 181.169 136.773 181.169 137.219V137.44C181.169 137.886 181.076 138.283 180.892 138.63C180.709 138.977 180.451 139.246 180.117 139.438C179.783 139.629 179.406 139.725 178.987 139.728H177.5ZM178.489 135.73V138.933H178.967C179.354 138.933 179.649 138.807 179.854 138.554C180.058 138.302 180.162 137.94 180.167 137.47V137.216C180.167 136.728 180.066 136.359 179.864 136.109C179.661 135.856 179.366 135.73 178.977 135.73H178.489Z" fill="white"/>
<rect x="142.416" y="61.0557" width="22.5" height="22.5" rx="11.25" fill="#FACC5F"/>
<path d="M151.316 70.7452H149.846V74.7432H148.857V70.7452H147.407V69.9443H151.316V70.7452Z" fill="#2C363F"/>
<path d="M155.683 70.7452H154.213V74.7432H153.224V70.7452H151.774V69.9443H155.683V70.7452Z" fill="#2C363F"/>
<path d="M158.821 73.4841C158.821 73.2974 158.755 73.1545 158.623 73.0557C158.491 72.9546 158.254 72.8491 157.911 72.7393C157.568 72.6272 157.297 72.5173 157.097 72.4097C156.552 72.1152 156.28 71.7186 156.28 71.2198C156.28 70.9606 156.352 70.7299 156.497 70.5277C156.644 70.3234 156.854 70.1641 157.127 70.0498C157.401 69.9355 157.709 69.8784 158.049 69.8784C158.392 69.8784 158.698 69.941 158.966 70.0663C159.234 70.1893 159.441 70.364 159.589 70.5903C159.738 70.8167 159.813 71.0737 159.813 71.3616H158.824C158.824 71.1418 158.755 70.9716 158.616 70.8507C158.478 70.7277 158.283 70.6661 158.033 70.6661C157.791 70.6661 157.603 70.7178 157.469 70.821C157.335 70.9221 157.268 71.0562 157.268 71.2231C157.268 71.3792 157.346 71.5099 157.502 71.6154C157.661 71.7208 157.892 71.8197 158.198 71.912C158.76 72.0812 159.17 72.291 159.427 72.5415C159.684 72.792 159.813 73.104 159.813 73.4775C159.813 73.8928 159.656 74.2191 159.341 74.4564C159.027 74.6915 158.604 74.8091 158.072 74.8091C157.703 74.8091 157.367 74.7421 157.064 74.608C156.761 74.4718 156.529 74.2861 156.369 74.051C156.21 73.8159 156.131 73.5435 156.131 73.2336H157.123C157.123 73.7632 157.44 74.028 158.072 74.028C158.308 74.028 158.491 73.9807 158.623 73.8862C158.755 73.7896 158.821 73.6555 158.821 73.4841Z" fill="#2C363F"/>
<path d="M84.0029 152.871C84.0029 146.658 89.0397 141.621 95.2529 141.621H95.6279C101.841 141.621 106.878 146.658 106.878 152.871V152.871C106.878 159.084 101.841 164.121 95.6279 164.121H95.2529C89.0397 164.121 84.0029 159.084 84.0029 152.871V152.871Z" fill="black"/>
<g clip-path="url(#clip0)">
<path d="M95.2589 149.163C94.955 149.165 94.6648 149.19 94.4095 149.234C93.6573 149.365 93.5208 149.639 93.5208 150.143V150.81H95.2982V151.032H93.5208H92.8537C92.3371 151.032 91.8848 151.337 91.7433 151.918C91.5801 152.584 91.5729 153 91.7433 153.695C91.8696 154.213 92.1714 154.581 92.688 154.581H93.2991V153.783C93.2991 153.206 93.8067 152.696 94.4095 152.696H96.1849C96.6791 152.696 97.0737 152.296 97.0737 151.808V150.143C97.0737 149.669 96.6673 149.314 96.1849 149.234C95.8796 149.184 95.5627 149.162 95.2589 149.163ZM94.2976 149.699C94.4812 149.699 94.6312 149.849 94.6312 150.033C94.6312 150.217 94.4812 150.365 94.2976 150.365C94.1134 150.365 93.9641 150.217 93.9641 150.033C93.9641 149.849 94.1134 149.699 94.2976 149.699Z" fill="url(#paint1_linear)"/>
<path d="M97.2951 151.032V151.808C97.2951 152.41 96.7763 152.917 96.1847 152.917H94.4092C93.9229 152.917 93.5205 153.326 93.5205 153.805V155.47C93.5205 155.944 93.9394 156.222 94.4092 156.358C94.9719 156.521 95.5114 156.55 96.1847 156.358C96.6321 156.231 97.0734 155.974 97.0734 155.47V154.804H95.298V154.581H97.0734H97.9621C98.4787 154.581 98.6712 154.227 98.8509 153.695C99.0364 153.147 99.0285 152.621 98.8509 151.918C98.7232 151.412 98.4794 151.032 97.9621 151.032H97.2951ZM96.2965 155.248C96.4808 155.248 96.6301 155.396 96.6301 155.58C96.6301 155.764 96.4808 155.914 96.2965 155.914C96.1129 155.914 95.963 155.764 95.963 155.58C95.963 155.396 96.1129 155.248 96.2965 155.248Z" fill="url(#paint2_linear)"/>
</g>
<path d="M95.2529 143.621H95.6279V139.621H95.2529V143.621ZM95.6279 162.121H95.2529V166.121H95.6279V162.121ZM95.2529 162.121C90.1443 162.121 86.0029 157.98 86.0029 152.871H82.0029C82.0029 160.189 87.9352 166.121 95.2529 166.121V162.121ZM104.878 152.871C104.878 157.98 100.737 162.121 95.6279 162.121V166.121C102.946 166.121 108.878 160.189 108.878 152.871H104.878ZM95.6279 143.621C100.737 143.621 104.878 147.762 104.878 152.871H108.878C108.878 145.553 102.946 139.621 95.6279 139.621V143.621ZM95.2529 139.621C87.9352 139.621 82.0029 145.553 82.0029 152.871H86.0029C86.0029 147.762 90.1443 143.621 95.2529 143.621V139.621Z" fill="url(#paint3_linear)"/>
<path d="M69.0176 106.566C69.0176 100.456 73.9704 95.5034 80.0801 95.5034V95.5034C86.1897 95.5034 91.1426 100.456 91.1426 106.566V107.316C91.1426 113.426 86.1897 118.378 80.0801 118.378V118.378C73.9704 118.378 69.0176 113.426 69.0176 107.316V106.566Z" fill="black"/>
<path fill-rule="evenodd" clip-rule="evenodd" d="M79.8294 103.177C79.9361 103.112 80.0698 103.112 80.1779 103.177L83.0695 104.902C83.1777 104.967 83.2438 105.086 83.2438 105.214V108.667C83.2438 108.796 83.1777 108.915 83.0695 108.98L80.1779 110.705C80.0698 110.77 79.9361 110.77 79.8294 110.705L76.9396 108.98C76.8293 108.915 76.7617 108.796 76.7617 108.667V105.214C76.7617 105.086 76.8257 104.967 76.936 104.902L79.8294 103.177Z" fill="url(#paint4_linear)"/>
<path d="M89.1426 106.566V107.316H93.1426V106.566H89.1426ZM71.0176 107.316V106.566H67.0176V107.316H71.0176ZM80.0801 116.378C75.075 116.378 71.0176 112.321 71.0176 107.316H67.0176C67.0176 114.53 72.8659 120.378 80.0801 120.378V116.378ZM89.1426 107.316C89.1426 112.321 85.0852 116.378 80.0801 116.378V120.378C87.2943 120.378 93.1426 114.53 93.1426 107.316H89.1426ZM80.0801 97.5034C85.0852 97.5034 89.1426 101.561 89.1426 106.566H93.1426C93.1426 99.3517 87.2943 93.5034 80.0801 93.5034V97.5034ZM80.0801 93.5034C72.8659 93.5034 67.0176 99.3517 67.0176 106.566H71.0176C71.0176 101.561 75.075 97.5034 80.0801 97.5034V93.5034Z" fill="url(#paint5_linear)"/>
<path d="M108.25 78.0796C108.25 71.8664 113.287 66.8296 119.5 66.8296V66.8296C125.713 66.8296 130.75 71.8664 130.75 78.0796V78.0796C130.75 84.2928 125.713 89.3296 119.5 89.3296V89.3296C113.287 89.3296 108.25 84.2928 108.25 78.0796V78.0796Z" fill="black"/>
<path d="M122.685 80.1744C122.572 80.4364 122.437 80.6776 122.282 80.8993C122.07 81.2017 121.896 81.4109 121.762 81.5271C121.555 81.7178 121.333 81.8155 121.095 81.8211C120.924 81.8211 120.718 81.7725 120.478 81.6739C120.238 81.5757 120.016 81.5271 119.814 81.5271C119.602 81.5271 119.375 81.5757 119.132 81.6739C118.888 81.7725 118.692 81.8239 118.542 81.8289C118.314 81.8387 118.086 81.7382 117.859 81.5271C117.714 81.4007 117.533 81.1841 117.316 80.8771C117.083 80.5494 116.891 80.1693 116.741 79.736C116.581 79.2679 116.5 78.8147 116.5 78.3759C116.5 77.8733 116.609 77.4398 116.826 77.0765C116.997 76.7847 117.225 76.5545 117.509 76.3855C117.794 76.2166 118.101 76.1305 118.433 76.125C118.614 76.125 118.852 76.181 119.147 76.2912C119.442 76.4017 119.631 76.4578 119.714 76.4578C119.776 76.4578 119.986 76.3923 120.342 76.2616C120.679 76.1404 120.963 76.0902 121.196 76.11C121.827 76.1609 122.301 76.4096 122.616 76.8578C122.052 77.1997 121.773 77.6786 121.778 78.293C121.783 78.7715 121.957 79.1698 122.298 79.486C122.453 79.6327 122.625 79.7461 122.817 79.8267C122.776 79.9475 122.732 80.0633 122.685 80.1744V80.1744ZM121.238 74.4796C121.238 74.8547 121.101 75.2049 120.828 75.5291C120.498 75.9144 120.099 76.1371 119.667 76.102C119.661 76.057 119.658 76.0096 119.658 75.9599C119.658 75.5998 119.815 75.2144 120.093 74.8993C120.232 74.7398 120.409 74.6072 120.623 74.5013C120.837 74.3971 121.04 74.3395 121.23 74.3296C121.236 74.3797 121.238 74.4299 121.238 74.4796V74.4796Z" fill="white"/>
<path d="M119.5 87.3296C114.391 87.3296 110.25 83.1882 110.25 78.0796H106.25C106.25 85.3974 112.182 91.3296 119.5 91.3296V87.3296ZM128.75 78.0796C128.75 83.1882 124.609 87.3296 119.5 87.3296V91.3296C126.818 91.3296 132.75 85.3974 132.75 78.0796H128.75ZM119.5 68.8296C124.609 68.8296 128.75 72.971 128.75 78.0796H132.75C132.75 70.7618 126.818 64.8296 119.5 64.8296V68.8296ZM119.5 64.8296C112.182 64.8296 106.25 70.7618 106.25 78.0796H110.25C110.25 72.971 114.391 68.8296 119.5 68.8296V64.8296Z" fill="url(#paint6_linear)"/>
<path d="M147.482 106.753C147.482 100.54 152.519 95.5034 158.732 95.5034V95.5034C164.946 95.5034 169.982 100.54 169.982 106.753V106.753C169.982 112.967 164.946 118.003 158.732 118.003V118.003C152.519 118.003 147.482 112.967 147.482 106.753V106.753Z" fill="black"/>
<path d="M160.562 105.919L161.184 104.841C161.219 104.781 161.198 104.704 161.139 104.669C161.079 104.634 161.001 104.654 160.967 104.715L160.337 105.806C159.856 105.587 159.315 105.464 158.732 105.464C158.15 105.464 157.609 105.587 157.128 105.806L156.498 104.715C156.463 104.654 156.386 104.634 156.325 104.669C156.265 104.704 156.245 104.781 156.28 104.841L156.902 105.919C155.829 106.5 155.102 107.586 154.982 108.857H162.482C162.362 107.586 161.636 106.5 160.562 105.919H160.562ZM157.011 107.804C156.837 107.804 156.696 107.663 156.696 107.49C156.696 107.316 156.837 107.176 157.011 107.176C157.184 107.176 157.325 107.317 157.325 107.49C157.326 107.663 157.184 107.804 157.011 107.804ZM160.454 107.804C160.28 107.804 160.139 107.663 160.139 107.49C160.139 107.316 160.28 107.176 160.454 107.176C160.627 107.176 160.768 107.317 160.768 107.49C160.769 107.663 160.627 107.804 160.454 107.804Z" fill="#32DE84"/>
<path d="M158.732 116.003C153.624 116.003 149.482 111.862 149.482 106.753H145.482C145.482 114.071 151.415 120.003 158.732 120.003V116.003ZM167.982 106.753C167.982 111.862 163.841 116.003 158.732 116.003V120.003C166.05 120.003 171.982 114.071 171.982 106.753H167.982ZM158.732 97.5034C163.841 97.5034 167.982 101.645 167.982 106.753H171.982C171.982 99.4356 166.05 93.5034 158.732 93.5034V97.5034ZM158.732 93.5034C151.415 93.5034 145.482 99.4356 145.482 106.753H149.482C149.482 101.645 153.624 97.5034 158.732 97.5034V93.5034Z" fill="url(#paint7_linear)"/>
<path d="M132.497 152.871C132.497 146.658 137.534 141.621 143.747 141.621H144.122C150.335 141.621 155.372 146.658 155.372 152.871V152.871C155.372 159.084 150.335 164.121 144.122 164.121H143.747C137.534 164.121 132.497 159.084 132.497 152.871V152.871Z" fill="black"/>
<path d="M143.744 153.727C144.175 153.727 144.525 153.383 144.525 152.958C144.525 152.534 144.175 152.189 143.744 152.189C143.312 152.189 142.962 152.534 142.962 152.958C142.962 153.383 143.312 153.727 143.744 153.727Z" fill="#61DAFB"/>
<path fill-rule="evenodd" clip-rule="evenodd" d="M140.007 152.484C139.819 152.652 139.741 152.812 139.741 152.958C139.741 153.104 139.819 153.265 140.007 153.432C140.196 153.6 140.48 153.759 140.846 153.897C141.578 154.172 142.603 154.346 143.744 154.346C144.885 154.346 145.909 154.172 146.641 153.897C147.008 153.759 147.292 153.6 147.48 153.432C147.669 153.265 147.747 153.104 147.747 152.958C147.747 152.812 147.669 152.652 147.48 152.484C147.292 152.317 147.008 152.157 146.641 152.02C145.909 151.745 144.885 151.571 143.744 151.571C142.603 151.571 141.578 151.745 140.846 152.02C140.48 152.157 140.196 152.317 140.007 152.484ZM140.71 151.669C141.496 151.374 142.569 151.196 143.744 151.196C144.919 151.196 145.991 151.374 146.777 151.669C147.169 151.817 147.5 151.997 147.736 152.206C147.971 152.415 148.128 152.669 148.128 152.958C148.128 153.247 147.971 153.501 147.736 153.71C147.5 153.92 147.169 154.1 146.777 154.247C145.991 154.542 144.919 154.721 143.744 154.721C142.569 154.721 141.496 154.542 140.71 154.247C140.318 154.1 139.988 153.92 139.752 153.71C139.516 153.501 139.359 153.247 139.359 152.958C139.359 152.669 139.516 152.415 139.752 152.206C139.988 151.997 140.318 151.817 140.71 151.669Z" fill="#61DAFB"/>
<path fill-rule="evenodd" clip-rule="evenodd" d="M142.293 149.538C142.051 149.461 141.871 149.475 141.742 149.548C141.614 149.621 141.511 149.768 141.458 150.012C141.405 150.257 141.407 150.578 141.469 150.959C141.593 151.721 141.952 152.68 142.522 153.652C143.093 154.624 143.758 155.409 144.366 155.896C144.671 156.139 144.953 156.301 145.195 156.378C145.437 156.455 145.617 156.441 145.745 156.368C145.874 156.295 145.976 156.149 146.029 155.904C146.082 155.66 146.081 155.338 146.019 154.957C145.895 154.196 145.536 153.236 144.965 152.264C144.395 151.293 143.73 150.507 143.121 150.021C142.817 149.777 142.535 149.615 142.293 149.538ZM143.362 149.73C144.014 150.252 144.708 151.076 145.296 152.077C145.883 153.078 146.262 154.081 146.395 154.898C146.462 155.305 146.468 155.677 146.402 155.983C146.336 156.288 146.19 156.548 145.936 156.693C145.681 156.837 145.38 156.831 145.077 156.735C144.775 156.639 144.451 156.447 144.126 156.187C143.473 155.665 142.78 154.841 142.192 153.839C141.604 152.838 141.225 151.835 141.092 151.019C141.026 150.611 141.019 150.239 141.085 149.934C141.152 149.628 141.297 149.368 141.552 149.223C141.806 149.079 142.108 149.085 142.41 149.182C142.712 149.278 143.036 149.469 143.362 149.73Z" fill="#61DAFB"/>
<path fill-rule="evenodd" clip-rule="evenodd" d="M146.029 150.012C145.976 149.768 145.874 149.621 145.745 149.548C145.617 149.475 145.437 149.461 145.195 149.538C144.953 149.615 144.671 149.777 144.366 150.021C143.758 150.507 143.093 151.293 142.522 152.264C141.952 153.236 141.593 154.196 141.469 154.957C141.407 155.338 141.405 155.66 141.458 155.904C141.511 156.149 141.614 156.295 141.742 156.368C141.871 156.441 142.051 156.455 142.293 156.378C142.535 156.301 142.817 156.139 143.121 155.896C143.73 155.409 144.395 154.624 144.965 153.652C145.536 152.68 145.895 151.721 146.019 150.959C146.081 150.578 146.082 150.257 146.029 150.012ZM146.395 151.019C146.262 151.835 145.883 152.838 145.296 153.839C144.708 154.841 144.014 155.665 143.362 156.187C143.036 156.447 142.712 156.639 142.41 156.735C142.108 156.831 141.806 156.837 141.552 156.693C141.297 156.548 141.152 156.288 141.085 155.983C141.019 155.677 141.026 155.305 141.092 154.898C141.225 154.081 141.604 153.078 142.192 152.077C142.78 151.076 143.473 150.252 144.126 149.73C144.451 149.469 144.775 149.278 145.077 149.182C145.38 149.085 145.681 149.079 145.936 149.223C146.19 149.368 146.336 149.628 146.402 149.934C146.468 150.239 146.462 150.611 146.395 151.019Z" fill="#61DAFB"/>
<path d="M143.747 143.621H144.122V139.621H143.747V143.621ZM144.122 162.121H143.747V166.121H144.122V162.121ZM143.747 162.121C138.638 162.121 134.497 157.98 134.497 152.871H130.497C130.497 160.189 136.429 166.121 143.747 166.121V162.121ZM153.372 152.871C153.372 157.98 149.231 162.121 144.122 162.121V166.121C151.44 166.121 157.372 160.189 157.372 152.871H153.372ZM144.122 143.621C149.231 143.621 153.372 147.762 153.372 152.871H157.372C157.372 145.553 151.44 139.621 144.122 139.621V143.621ZM143.747 139.621C136.429 139.621 130.497 145.553 130.497 152.871H134.497C134.497 147.762 138.638 143.621 143.747 143.621V139.621Z" fill="url(#paint8_linear)"/>
<path d="M97 119.33C97 106.903 107.074 96.8296 119.5 96.8296V96.8296C131.926 96.8296 142 106.903 142 119.33V119.33C142 131.756 131.926 141.83 119.5 141.83V141.83C107.074 141.83 97 131.756 97 119.33V119.33Z" fill="#2F5BEA"/>
<path fill-rule="evenodd" clip-rule="evenodd" d="M118.429 126.302C117.843 126.302 117.294 126.146 116.821 125.872C116.349 126.146 115.8 126.302 115.214 126.302C113.439 126.302 112 124.862 112 123.084V117.72C112 116.535 112.959 115.575 114.143 115.575C115.326 115.575 116.286 116.535 116.286 117.72V123.084C116.286 123.628 116.488 124.125 116.821 124.503C117.155 124.125 117.357 123.628 117.357 123.084V115.575C117.357 113.797 118.796 112.356 120.571 112.356C121.157 112.356 121.706 112.513 122.179 112.787C122.651 112.513 123.2 112.356 123.786 112.356C125.561 112.356 127 113.797 127 115.575V120.939C127 122.124 126.041 123.084 124.857 123.084C123.674 123.084 122.714 122.124 122.714 120.939V115.575C122.714 115.031 122.512 114.534 122.179 114.156C121.845 114.534 121.643 115.031 121.643 115.575V123.084C121.643 124.862 120.204 126.302 118.429 126.302ZM113.071 117.72V123.084C113.071 124.269 114.031 125.23 115.214 125.23C115.465 125.23 115.705 125.187 115.929 125.107C115.482 124.555 115.214 123.851 115.214 123.084L115.214 117.72C115.214 117.128 114.735 116.648 114.143 116.648C113.551 116.648 113.071 117.128 113.071 117.72ZM123.786 115.575C123.786 114.808 123.518 114.104 123.071 113.551C123.295 113.472 123.535 113.429 123.786 113.429C124.969 113.429 125.929 114.39 125.929 115.575V120.939C125.929 121.531 125.449 122.011 124.857 122.011C124.265 122.011 123.786 121.531 123.786 120.939L123.786 115.575ZM120.571 113.429C120.822 113.429 121.063 113.472 121.286 113.551C120.839 114.104 120.571 114.808 120.571 115.575V123.084C120.571 124.269 119.612 125.23 118.429 125.23C118.178 125.23 117.937 125.187 117.714 125.107C118.161 124.555 118.429 123.851 118.429 123.084V115.575C118.429 114.39 119.388 113.429 120.571 113.429Z" fill="#61FAE9"/>
<defs>
<linearGradient id="paint0_linear" x1="60.4277" y1="111.83" x2="174.78" y2="111.83" gradientUnits="userSpaceOnUse">
<stop stop-color="#61FAE9"/>
<stop offset="1" stop-color="#2F5BEA"/>
</linearGradient>
<linearGradient id="paint1_linear" x1="91.6182" y1="149.163" x2="95.6597" y2="152.664" gradientUnits="userSpaceOnUse">
<stop stop-color="#5A9FD4"/>
<stop offset="1" stop-color="#306998"/>
</linearGradient>
<linearGradient id="paint2_linear" x1="96.2538" y1="155.524" x2="94.8154" y2="153.475" gradientUnits="userSpaceOnUse">
<stop stop-color="#FFD43B"/>
<stop offset="1" stop-color="#FFE873"/>
</linearGradient>
<linearGradient id="paint3_linear" x1="84.0029" y1="152.871" x2="106.878" y2="152.871" gradientUnits="userSpaceOnUse">
<stop stop-color="#61FAE9"/>
<stop offset="1" stop-color="#2F5BEA"/>
</linearGradient>
<linearGradient id="paint4_linear" x1="79.621" y1="110.251" x2="80.7976" y2="103.703" gradientUnits="userSpaceOnUse">
<stop offset="0.57" stop-color="#3E863D"/>
<stop offset="0.72" stop-color="#619857"/>
<stop offset="1" stop-color="#76AC64"/>
</linearGradient>
<linearGradient id="paint5_linear" x1="69.0176" y1="106.941" x2="91.1426" y2="106.941" gradientUnits="userSpaceOnUse">
<stop stop-color="#61FAE9"/>
<stop offset="1" stop-color="#2F5BEA"/>
</linearGradient>
<linearGradient id="paint6_linear" x1="108.25" y1="78.0796" x2="130.75" y2="78.0796" gradientUnits="userSpaceOnUse">
<stop stop-color="#61FAE9"/>
<stop offset="1" stop-color="#2F5BEA"/>
</linearGradient>
<linearGradient id="paint7_linear" x1="147.482" y1="106.753" x2="169.982" y2="106.753" gradientUnits="userSpaceOnUse">
<stop stop-color="#61FAE9"/>
<stop offset="1" stop-color="#2F5BEA"/>
</linearGradient>
<linearGradient id="paint8_linear" x1="132.497" y1="152.871" x2="155.372" y2="152.871" gradientUnits="userSpaceOnUse">
<stop stop-color="#61FAE9"/>
<stop offset="1" stop-color="#2F5BEA"/>
</linearGradient>
<clipPath id="clip0">
<rect width="8.00625" height="7.5" fill="white" transform="translate(91.2471 149.121)"/>
</clipPath>
</defs>
</svg>
