<svg width="1440" height="549" viewBox="0 0 1440 549" fill="none" xmlns="http://www.w3.org/2000/svg">
<path fill-rule="evenodd" clip-rule="evenodd" d="M0 0H1440V457.944C838.07 356.179 739.278 549.419 471.198 548.995C203.119 548.57 0 429.58 0 429.58L0 0Z" fill="#2F5BEA"/>
<g opacity="0.2">
<path d="M-374.97 548.128C485.474 548.128 1345.92 548.128 2206.36 548.128" stroke="white" stroke-miterlimit="10"/>
<path d="M-374.97 535.04C60.7497 535.117 496.254 533.268 931.866 531.175C1120.34 530.264 1310.11 530.563 1498.57 532.482C1734.49 534.88 1970.5 532.621 2206.36 535.04" stroke="white" stroke-miterlimit="10"/>
<path d="M-374.97 522.744C-251.514 522.744 -128.022 523.183 -4.58446 522.967C105.732 522.777 215.797 518.644 326.077 517.932C531.508 516.607 736.903 518.147 942.316 516.582C1124.64 515.191 1308.85 511.506 1491.05 517.129C1597.24 520.441 1702.34 521.949 1808.62 523.315C1941.27 525.021 2073.76 520.392 2206.36 522.744" stroke="white" stroke-miterlimit="10"/>
<path d="M-374.97 510.95C-253.289 510.95 -131.285 511.871 -9.63956 510.877C104.674 509.939 218.324 503.366 332.548 501.676C538.374 498.628 742.586 507.335 948.196 505.783C1129.12 504.441 1307.48 493.542 1488.61 503.293C1594.48 508.993 1697.07 513.456 1803.71 514.758C1938.15 516.375 2071.94 508.508 2206.36 510.95" stroke="white" stroke-miterlimit="10"/>
<path d="M-374.97 499.359C-255.493 499.359 -135.139 500.832 -15.7523 498.8C103.634 496.769 221.318 487.422 340.346 484.404C448.547 481.661 555.224 482.397 662.851 488.369C759.311 493.726 853.009 497.595 950.257 497.012C1035.5 496.494 1115.36 490.651 1199.54 485.205C1295.87 478.966 1395.05 481.879 1490.49 489.826C1595.54 498.582 1694.61 506.958 1801.88 507.913C1937.19 509.126 2070.97 497.263 2206.36 499.359" stroke="white" stroke-miterlimit="10"/>
<path d="M-374.97 488.038C-258.075 488.038 -139.405 490.059 -22.7076 486.825C101.985 483.376 224.562 470.885 348.986 466.199C455.817 462.123 563.36 464.917 668.516 474.499C762.394 482.931 853.153 490.464 949.11 490.117C1037.97 489.795 1118.37 479.441 1204.63 471.067C1302.54 461.562 1399.43 465.167 1495.85 476.693C1599.19 489.069 1694.6 502.402 1802.6 502.757C1938.14 503.211 2070.59 486.652 2206.36 488.046" stroke="white" stroke-miterlimit="10"/>
<path d="M-374.97 476.123C-260.835 476.074 -143.905 478.586 -30.1647 474.194C100.408 469.194 227.968 453.769 358.057 447.324C467.226 441.923 568.113 446.947 673.41 460.517C763.559 472.142 850.876 483.783 945.435 483.807C1038.94 483.807 1122.11 468.332 1210.85 457.036C1311.93 444.172 1405.15 447.915 1503.92 463.456C1604.45 479.267 1696.75 497.936 1805.34 497.525C1940.68 496.967 2070.65 475.745 2206.36 476.123" stroke="white" stroke-miterlimit="10"/>
<path d="M-374.97 465.038C-263.72 464.963 -148.544 467.789 -37.9578 462.32C98.6037 455.571 230.935 436.937 367.012 428.526C477.706 421.686 573.79 429 677.386 447.301C762.858 462.403 846.806 478.768 939.825 479.284C1038.13 479.832 1126.76 458.314 1217.68 443.827C1322.67 427.096 1412.32 430.654 1513.78 451.041C1610.41 470.457 1700.5 495.383 1809.57 493.986C1944.43 492.258 2070.97 465.836 2206.36 465.038" stroke="white" stroke-miterlimit="10"/>
<path d="M-374.97 453.82C-266.572 453.72 -153.192 456.751 -45.6012 450.329C96.8012 441.831 233.916 420.114 375.655 409.749C488.587 401.486 579.22 410.947 680.626 434.238C760.826 452.657 841.385 473.93 933.111 475.052C1036.22 476.3 1131.96 448.144 1224.98 430.839C1273.7 421.822 1325.06 413.374 1378.17 415.317C1430.16 417.226 1479.38 427.448 1524.84 438.759C1616.48 461.506 1705.75 492.818 1814.79 490.424C1949.06 487.468 2071.36 455.897 2206.36 453.846" stroke="white" stroke-miterlimit="10"/>
<path d="M-374.97 442.502C-269.205 442.377 -157.667 445.467 -53.0136 438.337C94.8245 428.291 236.227 403.894 383.223 391.799C498.74 382.286 584.141 393.606 682.807 421.552C757.613 442.743 834.804 468.64 925.708 470.398C1033.27 472.472 1137.24 437.87 1232.03 418.287C1281.69 408.025 1336.45 397.205 1391.92 399.587C1443.9 401.819 1492.61 414.014 1536.08 426.659C1622.75 451.881 1711.11 489.323 1820.43 485.982C1954.12 481.884 2071.72 445.7 2206.36 442.502" stroke="white" stroke-miterlimit="10"/>
<path d="M-374.97 432.3C-271.734 432.149 -161.849 435.255 -59.868 427.562C92.7891 416.035 237.989 388.929 389.535 375.15C447.238 369.91 501.93 366.88 558.451 376.071C604.502 383.563 645.015 396.714 684.093 410.008C754.004 433.773 827.805 464.252 918.493 466.638C1029.99 469.577 1142.32 428.499 1238.65 406.81C1289.16 395.433 1347.3 382.257 1404.88 385.045C1457.09 387.556 1505.15 401.678 1546.76 415.625C1628.82 443.115 1716.12 486.629 1826.03 482.418C1959.24 477.303 2071.95 436.435 2206.36 432.258" stroke="white" stroke-miterlimit="10"/>
<path d="M-374.97 421.802C-273.903 421.644 -165.505 424.719 -65.8732 416.711C90.6559 404.128 238.616 374.83 393.98 359.822C451.881 354.231 506.412 350.765 562.645 361.147C608.267 369.622 647.148 384.163 684.326 398.695C750.132 424.385 820.85 458.533 911.986 461.408C970.227 463.25 1028.79 449.125 1079.09 437.168C1134.89 423.902 1188.55 408.786 1244.33 395.504C1295.6 383.304 1356.55 368.339 1416.06 371.463C1468.66 374.222 1515.96 389.712 1556.08 404.628C1634.38 433.793 1720.03 482.007 1830.99 477.124C1963.97 471.291 2071.97 426.56 2206.36 421.769" stroke="white" stroke-miterlimit="10"/>
<path d="M-374.97 411.309C-275.714 411.15 -168.463 414.247 -70.749 406.054C88.5407 392.706 238.222 361.273 396.185 345.263C453.817 339.405 508.76 335.665 564.42 346.837C609.988 355.984 647.704 371.842 683.538 387.442C746.601 414.883 814.648 452.023 906.895 455.228C966.731 457.287 1027 441.922 1078.09 429.218C1135.75 414.866 1191.02 398.53 1248.69 384.161C1300.67 371.198 1363.41 354.988 1424.52 358.294C1477.67 361.172 1524.17 377.7 1563.2 393.542C1639.08 424.331 1722.11 476.225 1834.85 470.995C1967.82 464.827 2071.7 416.297 2206.36 411.343" stroke="white" stroke-miterlimit="10"/>
<path d="M-374.97 401.638C-277.115 401.505 -170.53 404.639 -74.253 396.568C86.3767 383.103 236.466 350.247 395.644 333.914C452.485 328.096 508.449 324.306 563.318 335.477C609.261 344.828 646.456 361.426 681.626 377.576C743.684 406.118 809.721 444.485 903.901 447.577C965.063 449.588 1025.49 434.17 1077.29 420.979C1136.18 406.018 1192.46 388.963 1251.33 373.985C1303.98 360.587 1366.99 344.229 1429.35 347.487C1483.13 350.297 1528.84 367.012 1567.37 383.419C1642.66 415.46 1721.73 468.306 1837.1 463.161C1970.41 457.218 2071.15 406.052 2206.36 401.655" stroke="white" stroke-miterlimit="10"/>
<path d="M-374.97 391.366C-277.471 391.082 -171.224 394.622 -75.356 386.356C84.1847 372.572 232.36 338.584 390.288 321.795C446.969 315.775 502.898 312.168 557.734 323.256C604.341 332.698 642.272 349.571 677.963 365.994C741.169 395.081 807.908 434.112 903.327 437.752C964.921 440.098 1024.99 424.803 1077.03 411.345C1136.01 396.083 1192.19 378.617 1251.14 363.347C1304.04 349.638 1366.73 333.433 1429.56 336.939C1483.7 339.962 1529.14 356.785 1567.75 373.449C1643.34 406.085 1720.91 458.466 1837.2 453.598C1970.89 448.021 2070.59 395.223 2206.36 391.366" stroke="white" stroke-miterlimit="10"/>
<path d="M-374.97 381.739C-277.056 381.222 -171.13 385.679 -74.9195 376.856C81.7921 362.485 226.637 328.01 381.681 310.664C439.045 304.24 493.505 300.899 549.13 312.038C596.581 321.528 635.858 338.191 672.858 354.437C738.163 383.147 807.717 422.487 903.139 427.444C964.357 430.627 1024.64 415.322 1076.24 401.9C1134.5 386.746 1189.83 369.3 1248.08 354.128C1300.87 340.373 1363.56 324.327 1426.3 328.484C1480.28 332.059 1526.38 349.088 1565.53 365.534C1641.52 397.443 1721.33 448.731 1836.22 444.016C1970.24 438.508 2070.27 385.521 2206.36 381.739" stroke="white" stroke-miterlimit="10"/>
<path d="M-374.97 371.544C-276.501 370.925 -170.862 376.646 -74.0611 367.27C79.4586 352.398 220.52 317.334 372.3 299.517C430.148 292.709 483.335 289.672 539.587 300.714C587.773 310.174 628.627 326.468 667.007 342.653C734.499 371.092 807.261 410.447 902.592 416.629C963.254 420.568 1023.07 405.521 1074.2 392.104C1131.47 377.048 1185.65 359.641 1242.88 344.594C1295.52 330.759 1357.61 315.109 1420.07 319.877C1474.1 324.009 1521.03 341.181 1561.06 357.517C1638.05 388.884 1720.47 439.087 1834.48 434.42C1969.09 428.916 2069.68 375.375 2206.36 371.594" stroke="white" stroke-miterlimit="10"/>
<path d="M-374.97 362.593C-275.824 362.001 -170.242 369.215 -72.763 359.39C77.2379 344.285 214.189 308.961 362.397 290.886C420.476 283.805 472.657 281.144 529.374 291.837C578.418 301.079 620.794 316.86 660.661 332.707C730.965 360.558 806.27 399.234 901.867 406.533C961.81 411.103 1020.57 396.749 1071.19 383.462C1127.21 368.748 1180 351.541 1235.98 336.811C1288.41 323.007 1349.31 308.177 1411.38 313.457C1465.66 318.086 1513.56 335.143 1554.79 351.207C1633.32 381.793 1718.68 430.321 1832.08 425.692C1967.5 420.162 2068.86 366.413 2206.36 362.618" stroke="white" stroke-miterlimit="10"/>
<path d="M-374.97 353.222C-275.015 352.754 -169.467 361.723 -71.1075 351.45C75.1321 336.18 207.73 300.466 352.123 282.253C410.167 274.915 461.633 272.633 518.637 282.88C568.561 291.857 612.426 307.119 653.924 322.514C727.42 349.787 805.022 387.616 900.979 395.983C1016.78 406.088 1133.8 353.498 1227.64 328.708C1279.88 314.9 1339.12 301.067 1400.66 306.86C1455.37 312.017 1504.28 328.942 1546.92 344.797C1627.44 374.728 1716 421.617 1829.11 416.953C1965.55 411.337 2067.87 357.084 2206.36 353.222" stroke="white" stroke-miterlimit="10"/>
<path d="M-374.97 344.291C-274.136 344.033 -168.571 354.86 -69.1895 344.291C73.1244 329.102 201.151 293.431 341.529 275.267C399.376 267.789 450.339 265.928 507.505 275.525C558.343 284.075 603.731 298.574 646.861 313.398C723.548 339.737 803.462 376.09 899.903 385.437C1013.95 396.472 1125.93 345.703 1218.03 321.457C1268.96 308.071 1328.33 294.577 1388.19 301.474C1443.76 307.872 1492.71 323.385 1537.78 339.172C1620.61 368.171 1712.57 412.899 1825.69 408.213C1963.29 402.521 2066.7 348.179 2206.36 344.233" stroke="white" stroke-miterlimit="10"/>
<path d="M-374.97 334.619C-273.187 334.619 -167.515 347.566 -67.0226 336.57C71.239 321.439 194.568 285.5 330.805 267.376C567.425 235.871 690.862 352.176 898.711 374.435C1010.75 386.449 1117.07 337.345 1207.5 313.511C1258.2 300.172 1315.27 288.026 1374.37 295.337C1430.64 302.298 1480.74 317.521 1527.62 333.06C1613.04 361.405 1708.56 404.239 1821.91 399.462C1960.78 393.626 2065.41 338.679 2206.36 334.619" stroke="white" stroke-miterlimit="10"/>
<path d="M-374.97 326.616C-272.202 326.968 -166.351 342.105 -64.6585 330.735C69.4793 315.741 188.093 279.564 320.08 261.522C551.805 229.858 692.934 341.059 897.43 365.012C1007.53 377.922 1107.47 330.794 1196.25 307.318C1246.73 293.973 1301.31 283.382 1359.57 291.059C1416.59 298.594 1467.97 313.497 1516.73 328.776C1604.88 356.405 1704.05 397.354 1817.88 392.448C1958.11 386.411 2064.05 330.828 2206.36 326.616" stroke="white" stroke-miterlimit="10"/>
<path d="M-374.97 318.429C-271.176 319.136 -165.105 336.377 -62.1359 324.794C67.9023 310.167 181.663 274.172 309.568 256.482C536.391 225.105 694.986 329.579 896.174 354.973C1004.31 368.619 1097.45 324.087 1184.68 301.214C1234.98 288.025 1286.86 279.189 1344.23 287.069C1402.04 295.048 1454.74 309.534 1505.44 324.345C1596.43 350.971 1699.26 389.545 1813.67 384.561C1955.28 378.379 2062.63 322.722 2206.36 318.396" stroke="white" stroke-miterlimit="10"/>
<path d="M-373.94 309.678C-269.187 310.752 -162.857 330.219 -58.5702 318.382C67.3987 304.072 176.416 268.021 300.146 250.612C522.052 219.385 697.53 317.691 895.335 344.637C1001.47 359.097 1087.59 316.891 1173.29 294.435C1223.36 281.315 1272.69 274.21 1329.08 282.382C1387.67 290.878 1441.73 305.013 1494.31 319.473C1588.11 345.295 1694.51 381.779 1809.59 376.664C1952.63 370.301 2061.26 314.192 2206.36 309.678" stroke="white" stroke-miterlimit="10"/>
<path d="M-373.94 301.351C-268.223 302.777 -161.537 324.299 -56.0524 312.319C66.0426 298.449 170.452 262.576 290.236 245.589C507.746 214.749 699.489 306.226 894.082 334.546C998.276 349.718 1077.39 310.073 1161.69 288.12C1211.54 275.145 1258.45 269.806 1313.76 278.171C1373.16 287.141 1428.58 300.887 1483.04 314.881C1579.6 339.703 1689.55 373.968 1805.4 368.769C1949.88 362.261 2059.84 305.961 2206.36 301.368" stroke="white" stroke-miterlimit="10"/>
<path d="M-373.94 293.47C-267.161 295.24 -160.22 318.878 -53.441 306.706C64.9858 293.204 164.992 257.278 281.053 240.62C494.397 209.995 701.487 295.307 892.826 325.192C995.287 341.195 1067.32 303.665 1150.47 282.104C1200.16 269.226 1244.61 265.487 1299 274.111C1359.17 283.616 1415.94 297.118 1472.17 310.735C1571.38 334.755 1684.72 367.076 1801.39 361.733C1947.23 355.045 2058.49 298.215 2206.36 293.47" stroke="white" stroke-miterlimit="10"/>
<path d="M-373.94 286.15C-266.159 288.225 -158.915 313.994 -50.9368 301.608C64.1017 288.418 159.967 252.229 272.551 235.842C381.766 219.94 497.951 237.893 599.962 257.075C698.336 275.579 791.854 299.85 891.698 316.631C992.867 333.637 1057.39 297.616 1139.91 276.458C1249.48 248.379 1361.71 283.99 1462 307.081C1563.62 330.448 1680.14 361.063 1797.58 355.564C1944.71 348.685 2057.19 291.037 2206.36 286.141" stroke="white" stroke-miterlimit="10"/>
<path d="M-373.94 278.024C-265.153 280.329 -157.888 307.722 -48.5267 295.315C63.4508 282.6 155.502 246.645 265.06 230.71C373.275 214.949 492.528 232.066 595.026 249.532C695.392 266.64 790.919 289.232 890.747 307.006C990.575 324.78 1048.88 290.722 1130.35 269.986C1237.43 242.734 1354.34 280.803 1452.89 302.147C1556.64 324.614 1676.13 353.205 1794.22 347.664C1942.5 340.699 2056.09 283 2206.36 278.024" stroke="white" stroke-miterlimit="10"/>
<path d="M-373.94 270.519C-264.132 273.014 -156.958 301.922 -46.3248 289.448C62.9819 277.131 151.646 241.211 258.301 225.593C365.69 209.916 487.665 226.324 590.629 242.334C692.768 258.227 790.212 279.451 889.878 298.305C936.898 307.195 971.357 307.561 1016.82 296.092C1053.77 286.77 1085.02 273.23 1121.91 263.841C1171.14 251.299 1210.34 251.649 1261.9 260.971C1323.84 272.191 1384.2 285.09 1444.98 297.623C1550.47 319.312 1672.55 346.225 1791.18 340.636C1940.48 333.6 2055.02 275.55 2206.36 270.519" stroke="white" stroke-miterlimit="10"/>
<path d="M-373.94 263.617C-263.11 266.121 -156.257 296.518 -44.3335 283.957C62.8058 271.93 148.442 235.748 252.947 220.474C359.782 204.858 483.998 220.641 587.374 235.498C690.75 250.354 790.005 270.552 889.35 290.584C935.259 299.84 968.822 301.15 1013.89 289.699C1049.62 280.618 1079.44 267.214 1115.08 258.066C1164.03 245.497 1202.63 246.832 1253.29 256.497C1315.54 268.374 1376.83 281.294 1438.75 293.522C1545.57 314.605 1670.04 340.111 1788.84 334.486C1938.97 327.383 2054.28 268.775 2206.36 263.692" stroke="white" stroke-miterlimit="10"/>
<path d="M-373.94 257.104C-262.032 259.546 -155.752 291.06 -42.5353 278.439C63.0454 266.655 146.04 230.123 249.129 215.269C355.857 199.872 481.461 214.968 585.518 228.793C690.417 242.718 790.567 262.114 889.533 283.29C934.526 292.908 967.724 294.932 1012.47 283.457C1047.24 274.55 1075.87 261.202 1110.54 252.211C1159.27 239.574 1197.85 241.623 1247.75 251.676C1310.12 264.221 1372.14 277.201 1435.04 289.195C1542.59 309.711 1669.18 333.948 1787.94 328.353C1938.71 321.244 2054.61 262.181 2207.39 257.104" stroke="white" stroke-miterlimit="10"/>
<path d="M-373.94 249.805C-261.007 251.998 -155.639 283.945 -41.1637 271.419C63.3265 259.987 144.531 223.67 246.386 209.141C352.776 193.975 480.032 208.595 584.361 221.426C690.339 234.465 790.939 253.141 889.442 275.236C933.701 285.17 967.079 287.571 1011.59 276.138C1045.65 267.388 1073.38 254.167 1107.39 245.334C1155.95 232.718 1195.06 235.102 1244.38 245.508C1306.61 258.638 1369.1 271.577 1432.71 283.249C1540.58 303.043 1668.65 325.957 1786.92 320.502C1938.05 313.54 2054.25 254.763 2207.39 249.805" stroke="white" stroke-miterlimit="10"/>
<path d="M-373.94 243.034C-260.434 245.022 -155.8 277.612 -40.626 264.855C63.5057 253.326 144.226 216.709 245.759 202.131C352.041 186.876 479.871 201.93 584.236 214.604C690.59 227.52 790.868 246.225 889.496 268.623C933.594 278.648 967.438 280.737 1011.64 269.275C1045.47 260.502 1073.02 247.278 1106.85 238.48C1155.25 225.899 1195.08 228.238 1243.93 239.04C1305.9 252.741 1368.46 265.899 1432.33 277.562C1539.69 297.17 1669.42 320.035 1786.78 314.321C1937.7 306.986 2054.64 248.673 2207.39 243.059" stroke="white" stroke-miterlimit="10"/>
<path d="M-373.94 236.389C-260.185 238.275 -155.858 271.037 -40.4178 258.147C63.5504 246.534 144.681 210.276 246.283 195.809C352.564 180.675 480.104 196.368 584.305 209.108C690.317 222.073 790.162 240.719 889.47 262.027C983.471 282.192 1030.06 251.181 1107.48 231.842C1155.88 219.753 1195.96 221.956 1244.36 232.785C1306.06 246.592 1368.51 259.699 1432.36 271.213C1539.09 290.451 1670.5 313.395 1787.02 307.204C1937.29 299.212 2055.67 243.347 2207.39 236.514" stroke="white" stroke-miterlimit="10"/>
<path d="M-373.94 229.658C-259.842 231.48 -155.764 264.549 -39.9627 251.525C64.0076 239.822 145.463 203.878 247.121 189.517C353.404 174.471 480.57 190.796 584.612 203.602C690.214 216.601 789.685 235.2 889.568 255.471C982.783 274.396 1031.04 243.876 1108.51 225.378C1156.91 213.792 1197.36 215.932 1245.33 226.799C1306.74 240.708 1369.01 253.74 1432.85 265.075C1539.15 283.958 1671.87 306.703 1787.42 300.083C1936.94 291.523 2056.78 237.983 2207.39 230.05" stroke="white" stroke-miterlimit="10"/>
<path d="M-373.94 223.942C-259.45 225.699 -155.536 258.754 -39.3064 245.782C64.5363 234.195 146.474 198.96 248.201 184.87C354.482 170.199 481.233 186.793 585.076 199.499C690.174 212.346 789.427 230.647 889.667 249.636C982.216 267.15 1032.12 237.56 1109.79 220.071C1158.32 209.155 1199.06 211.277 1246.67 222.044C1307.74 235.861 1369.89 248.634 1433.62 259.608C1539.65 277.884 1673.17 299.882 1787.93 292.977C1936.72 284.034 2057.93 233.441 2207.39 224.605" stroke="white" stroke-miterlimit="10"/>
<path d="M-373.94 217.585C-258.964 219.329 -155.244 252.703 -38.421 239.699C65.3342 228.156 147.775 193.254 249.595 179.419C355.842 164.978 481.95 181.976 585.759 194.665C690.285 207.454 789.237 225.598 889.891 243.477C981.743 259.795 1033.41 230.93 1111.44 214.355C1160.12 204.008 1201.19 206.208 1248.5 216.962C1309.09 230.876 1371.28 243.256 1434.77 254.049C1540.71 271.853 1674.62 293.078 1788.71 285.846C1936.53 276.52 2059.23 228.389 2207.39 218.698" stroke="white" stroke-miterlimit="10"/>
<path d="M-373.94 211.195C-258.446 212.949 -154.765 246.8 -37.3705 233.741C66.293 222.226 149.288 187.598 251.231 173.971C357.44 159.776 483.008 177.135 586.618 189.836C690.586 202.561 789.266 220.556 890.151 237.365C981.32 252.562 1034.85 224.397 1113.34 208.741C1162.26 198.979 1203.63 201.317 1250.67 212.081C1310.9 225.978 1372.85 238.194 1436.2 248.662C1542.19 266.005 1676.08 286.187 1789.57 278.723C1936.43 269.061 2060.53 223.311 2207.39 212.807" stroke="white" stroke-miterlimit="10"/>
<path d="M-373.94 205.234C-257.851 206.996 -154.185 241.151 -36.1242 228.187C67.4704 216.811 151.06 182.673 253.041 169.367C359.199 155.518 484.107 173.093 587.63 185.689C690.831 198.218 789.478 215.934 890.473 231.554C980.999 245.561 1036.5 218.348 1115.53 203.747C1164.72 194.659 1206.42 197.174 1253.26 207.924C1313.08 221.693 1374.76 233.637 1437.9 243.682C1544.07 260.387 1677.55 279.231 1790.56 271.588C1936.4 261.732 2061.85 218.665 2207.39 207.514" stroke="white" stroke-miterlimit="10"/>
<path d="M-373.94 199.778C-257.207 201.574 -153.452 235.899 -34.7104 223.06C68.8118 211.935 153.01 178.491 255.098 165.602C361.184 152.215 485.41 169.835 588.699 182.233C691.182 194.539 789.72 211.777 890.751 226.129C980.649 238.893 1038.23 212.824 1117.85 199.403C1167.35 191.088 1209.37 193.782 1256.06 204.393C1315.49 217.937 1376.91 229.511 1439.86 239.026C1546.37 255.016 1679.1 272.187 1791.69 264.445C1936.48 254.467 2063.21 214.379 2207.39 202.705" stroke="white" stroke-miterlimit="10"/>
<path d="M-373.94 193.727C-256.506 195.586 -152.767 230.487 -33.1461 217.734C70.3058 206.698 155.168 173.588 257.365 161.011C363.363 147.973 486.82 165.775 589.967 178.101C691.734 190.268 790.185 207.192 891.127 220.422C980.417 232.145 1040.2 206.966 1120.46 194.614C1170.29 186.952 1212.63 189.959 1259.22 200.476C1318.23 213.909 1379.36 225.208 1442.07 234.272C1549 249.638 1680.65 265.146 1792.92 257.258C1936.63 247.21 2064.57 209.612 2207.39 197.369" stroke="white" stroke-miterlimit="10"/>
<path d="M-373.94 188.376C-255.773 190.268 -151.928 224.879 -31.5554 212.525C71.9488 201.939 157.473 169.976 259.795 158.05C365.683 145.712 488.278 163.191 591.424 175.117C692.436 186.813 790.814 202.959 891.647 214.746C980.327 225.118 1042.44 201.536 1123.36 190.605C1173.55 183.827 1216.2 187.068 1262.75 197.35C1321.33 210.313 1382.15 221.023 1444.59 229.37C1551.93 243.69 1682.25 257.048 1794.27 249.209C1936.85 239.281 2065.94 205.229 2207.39 192.793" stroke="white" stroke-miterlimit="10"/>
<path d="M-373.94 183.085C-255.038 185.057 -151.067 220.395 -29.6373 208.109C73.7056 197.643 159.947 165.948 262.376 154.344C368.139 142.356 489.892 159.992 592.804 171.813C693.082 183.36 791.388 199.149 892.006 209.855C980.13 219.239 1044.7 196.545 1126.24 186.762C1176.79 180.681 1219.78 184.267 1266.35 194.59C1324.49 207.439 1384.98 217.849 1447.12 225.695C1555.16 239.338 1683.87 250.734 1795.7 242.823C1937.18 232.841 2067.28 201.295 2207.39 188.36" stroke="white" stroke-miterlimit="10"/>
<path d="M-373.94 177.315C-254.177 179.409 -150.01 215.195 -27.7193 203.105C75.6057 192.901 162.6 161.746 265.101 150.59C370.774 139.101 491.612 156.689 594.382 168.345C693.906 179.634 792.14 194.87 892.49 204.39C980.094 212.734 1047.21 191.199 1129.36 182.696C1180.29 177.398 1223.6 181.378 1270.24 191.591C1327.94 204.189 1388.1 214.178 1449.9 221.419C1558.6 234.202 1685.51 243.438 1797.21 235.495C1937.57 225.525 2068.61 196.906 2207.39 183.631" stroke="white" stroke-miterlimit="10"/>
<path d="M-373.94 172.395C-253.317 174.61 -148.97 210.938 -25.6578 199.05C77.5776 189.091 165.271 158.426 267.951 147.721C373.481 136.713 493.387 154.273 595.995 165.734C694.803 176.766 792.911 191.44 892.938 199.788C980.094 207.062 1049.81 186.717 1132.59 179.443C1183.88 174.937 1227.49 179.334 1274.29 189.51C1331.54 201.863 1391.35 211.422 1452.78 218.036C1562.13 229.916 1687.11 236.896 1798.75 228.943C1938.02 219.034 2069.88 193.294 2207.39 179.678" stroke="white" stroke-miterlimit="10"/>
<path d="M-373.94 167.716C-252.474 170.014 -147.859 206.139 -23.5963 194.709C79.657 185.213 168.086 155.674 270.891 145.649C376.277 135.376 495.234 152.501 597.77 163.526C695.878 174.08 793.843 187.841 893.547 194.866C980.327 200.974 1052.69 182.237 1136.07 176.394C1187.73 172.766 1231.65 177.51 1278.63 187.386C1335.43 199.24 1394.89 208.171 1455.94 214.016C1566.02 224.702 1688.87 229.231 1800.47 221.454C1938.5 211.817 2071.15 189.519 2207.39 175.882" stroke="white" stroke-miterlimit="10"/>
<path d="M-373.94 162.605C-251.59 165.037 -146.7 201.622 -21.4102 190.489C81.8481 181.283 171.016 152.286 273.952 142.764C379.2 133.051 497.194 150.036 599.61 160.828C697.06 171.097 794.85 184.18 894.129 190.041C980.608 195.147 1055.61 177.664 1139.53 173.123C1191.52 170.308 1235.78 175.505 1282.94 185.301C1339.3 196.869 1398.41 205.325 1459.04 210.496C1569.83 220.151 1690.51 222.301 1802.12 214.547C1939.15 205.034 2072.33 185.733 2207.39 171.836" stroke="white" stroke-miterlimit="10"/>
</g>
</svg>
