<?xml version="1.0" encoding="UTF-8"?>
<svg width="503px" height="462px" viewBox="0 0 503 462" version="1.1" xmlns="http://www.w3.org/2000/svg" xmlns:xlink="http://www.w3.org/1999/xlink">
    <title>Illustration</title>
    <g id="Symbols" stroke="none" stroke-width="1" fill="none" fill-rule="evenodd">
        <g id="Illustration/API" transform="translate(1.000000, -19.000000)">
            <g id="Illustration" transform="translate(-1.000000, 20.500000)">
                <g id="Image" transform="translate(0.804419, 0.000000)">
                    <g id="Shapes/Shape/4" transform="translate(0.195581, 63.820961)" fill="#CCE4FF">
                        <path d="M250.5,365.358078 C388.84733,365.358078 501,283.569887 501,182.679039 C501,143.8759 467.101377,130.707044 438.812137,101.121534 C393.547395,53.7826705 335.638234,0 250.5,0 C169.100156,0 114.621208,48.6664879 68.8659793,92.5257472 C36.8555343,123.209769 0,141.14965 0,182.679039 C0,234.328429 62.9331581,260.957948 110.185567,294.184428 C155.235033,325.861861 182.977283,365.358078 250.5,365.358078 Z" id="Shape"></path>
                    </g>
                    <g id="Vector" transform="translate(29.695581, 0.500000)">
                        <line x1="221" y1="129.5" x2="221" y2="363.5" id="Path-3" stroke="#2F5BEA" stroke-width="2"></line>
                        <line x1="221" y1="129.5" x2="174.5" y2="40.5" id="Path-3" stroke="#2F5BEA" stroke-width="2"></line>
                        <line x1="221" y1="129.5" x2="263.5" y2="39.5" id="Path-3" stroke="#2F5BEA" stroke-width="2"></line>
                        <line x1="86.5" y1="247.5" x2="221" y2="363.5" id="Path-3" stroke="#2F5BEA" stroke-width="2"></line>
                        <line x1="131.5" y1="160.5" x2="221" y2="363.5" id="Path-3" stroke="#2F5BEA" stroke-width="2"></line>
                        <line x1="131.5" y1="160.5" x2="40.5" y2="156.5" id="Path-3" stroke="#2F5BEA" stroke-width="2"></line>
                        <line x1="131.5" y1="160.5" x2="84.5" y2="75.5" id="Path-3" stroke="#2F5BEA" stroke-width="2"></line>
                        <line x1="221" y1="160.5" x2="310.5" y2="363.5" id="Path-3" stroke="#2F5BEA" stroke-width="2" transform="translate(265.750000, 262.000000) scale(-1, 1) translate(-265.750000, -262.000000) "></line>
                        <line x1="354.5" y1="160.5" x2="311.404462" y2="76.0989522" id="Path-3" stroke="#2F5BEA" stroke-width="2" transform="translate(332.500000, 118.000000) scale(-1, 1) translate(-332.500000, -118.000000) "></line>
                        <line x1="398.5" y1="160.5" x2="311.105099" y2="156.598952" id="Path-3" stroke="#2F5BEA" stroke-width="2" transform="translate(354.500000, 158.500000) scale(-1, 1) translate(-354.500000, -158.500000) "></line>
                        <line x1="221" y1="247.5" x2="355.5" y2="363.5" id="Path-3" stroke="#2F5BEA" stroke-width="2" transform="translate(288.250000, 305.500000) scale(-1, 1) translate(-288.250000, -305.500000) "></line>
                        <line x1="310.5" y1="247.5" x2="350.5" y2="160.5" id="Path-3" stroke="#2F5BEA" stroke-width="2" transform="translate(330.500000, 204.000000) scale(-1, 1) translate(-330.500000, -204.000000) "></line>
                        <line x1="90.9012747" y1="247.5" x2="130.901275" y2="160.5" id="Path-3" stroke="#2F5BEA" stroke-width="2"></line>
                        <path d="M221,247.5 C221,247.5 243.666667,239.5 289,223.5 L350.5,129.654759" id="Path-3" stroke="#2F5BEA" stroke-width="2" transform="translate(285.750000, 188.577379) scale(-1, 1) translate(-285.750000, -188.577379) "></path>
                        <path d="M90.9012747,247.5 C90.9012747,247.5 113.567941,239.5 158.901275,223.5 L220.401275,129.654759" id="Path-3" stroke="#2F5BEA" stroke-width="2"></path>
                        <polyline id="Path-4" stroke="#2F5BEA" stroke-width="2" points="90.5 247.5 221.5 218.5 310.5 161.5"></polyline>
                        <polyline id="Path-4" stroke="#2F5BEA" stroke-width="2" transform="translate(242.000000, 204.500000) scale(-1, 1) translate(-242.000000, -204.500000) " points="132.5 247.5 262.5 218.5 351.5 161.5"></polyline>
                        <g id="Spokestack" transform="translate(126.000000, 268.805801)">
                            <path d="M51.7272756,179.098494 C98.3281338,202.842817 155.354171,184.313934 179.098494,137.713076 C202.842817,91.1122181 184.313934,34.0861813 137.713076,10.3418581 C91.1122181,-13.4024651 34.0861813,5.12641745 10.3418581,51.7272756 C-13.4024651,98.3281338 5.12641745,155.354171 51.7272756,179.098494 Z" id="Oval" fill="#2F5BEA"></path>
                            <g id="Logo/Mark/Cyan" transform="translate(47.720176, 47.720176)" fill="#61FAE9">
                                <path d="M73.3127413,60.1563707 C76.2191665,60.1563707 78.5752896,57.8002475 78.5752896,54.8938224 L78.5752896,28.5810811 C78.5752896,22.7682308 73.8630434,18.0559846 68.0501931,18.0559846 C66.8195781,18.0559846 65.6382916,18.2671846 64.5406026,18.6553156 C66.6743632,21.2920654 67.9760556,24.6285721 68.0471244,28.266655 L68.0501931,28.5810811 L68.0501931,54.8938224 C68.0501931,57.8002475 70.4063162,60.1563707 73.3127413,60.1563707 Z M52.2625483,18.0559846 C46.449698,18.0559846 41.7374517,22.7682308 41.7374517,28.5810811 L41.7374517,65.4189189 C41.7374517,69.1792125 40.4228265,72.632459 38.2281064,75.344128 C39.3254891,75.7328044 40.5068049,75.9440154 41.7374517,75.9440154 C47.550302,75.9440154 52.2625483,71.2317692 52.2625483,65.4189189 L52.2625483,28.5810811 C52.2625483,24.8207875 53.5771735,21.367541 55.7718936,18.655872 C54.6751644,18.2673124 53.4935355,18.0559846 52.2625483,18.0559846 Z M62.7876448,28.5810811 C62.7876448,25.9119201 61.794073,23.4748202 60.1566021,21.619454 C58.5186683,23.4748202 57.5250965,25.9119201 57.5250965,28.5810811 L57.5250965,65.4189189 C57.5250965,74.1381944 50.4567272,81.2065637 41.7374517,81.2065637 C38.8617969,81.2065637 36.1657126,80.4377308 33.8435402,79.0944064 C31.5215965,80.4377164 28.8254887,81.2065637 25.9498069,81.2065637 C17.335583,81.2065637 10.332724,74.3074905 10.1652308,65.733345 L10.1621622,65.4189189 L10.1621622,39.1061776 C10.1621622,33.2933273 14.8744084,28.5810811 20.6872587,28.5810811 C26.4048164,28.5810811 31.0575596,33.1400938 31.2085719,38.821203 L31.2123552,39.1061776 L31.2123552,65.4189189 C31.2123552,68.0880849 32.2059307,70.5251888 33.843407,72.3805563 C35.481328,70.5251888 36.4749035,68.0880849 36.4749035,65.4189189 L36.4749035,28.5810811 C36.4749035,19.8618056 43.5432728,12.7934363 52.2625483,12.7934363 C55.1384944,12.7934363 57.8348336,13.5624249 60.1571655,14.9060019 C62.4784035,13.5622836 65.1745113,12.7934363 68.0501931,12.7934363 C76.664417,12.7934363 83.667276,19.6925095 83.8347692,28.266655 L83.8378378,28.5810811 L83.8378378,54.8938224 C83.8378378,60.7066727 79.1255916,65.4189189 73.3127413,65.4189189 C67.5951836,65.4189189 62.9424404,60.8599062 62.7914281,55.178797 L62.7876448,54.8938224 L62.7876448,28.5810811 Z M20.6872587,33.8436293 C17.7808335,33.8436293 15.4247104,36.1997525 15.4247104,39.1061776 L15.4247104,65.4189189 C15.4247104,71.2317692 20.1369566,75.9440154 25.9498069,75.9440154 C27.1804538,75.9440154 28.3617696,75.7328044 29.4594826,75.3446543 C27.3256368,72.7079346 26.0239444,69.3714279 25.9528756,65.733345 L25.9498069,65.4189189 L25.9498069,39.1061776 C25.9498069,36.1997525 23.5936838,33.8436293 20.6872587,33.8436293 Z" id="Combined-Shape"></path>
                            </g>
                        </g>
                        <g id="Android" transform="translate(310.598725, 207.154759)" fill-rule="nonzero">
                            <path d="M79.9580307,44.0207124 C78.5777537,65.4567922 59.6178418,81.7443084 37.6098823,80.3998981 C15.6019228,79.0554878 -1.1201179,60.5882518 0.260159092,39.152172 L0.402971239,36.9342602 C1.78324823,15.4981804 20.7431601,-0.789335792 42.7511196,0.555074515 C64.7590791,1.89948482 81.4811198,20.3667208 80.1008428,41.8028006 L79.9580307,44.0207124 Z" id="Path" stroke="#2F5BEA" stroke-width="2" fill="#5BA0FF"></path>
                            <path d="M72.0025247,43.3120672 C70.8983031,60.460931 55.7303737,73.490944 38.124006,72.4154157 C20.5176384,71.3398875 7.14000587,56.5660987 8.24422746,39.4172349 L8.35847718,37.6429054 C9.46269877,20.4940416 24.6306282,7.46402863 42.2369959,8.53955687 C59.8433635,9.61508512 73.220996,24.3888739 72.1167744,41.5377378 L72.0025247,43.3120672 Z" id="Path" fill="#FFFFFF"></path>
                            <path d="M17.223372,45.4774863 L17.7975908,43.6181113 L21.0856767,43.6181113 L21.6667314,45.4774863 L24.2438799,45.4774863 L20.5661455,35.5243613 L18.3102861,35.5243613 L14.6598955,45.4774863 L17.223372,45.4774863 Z M20.511458,41.7655722 L18.3718095,41.7655722 L19.4382158,38.3134238 L20.511458,41.7655722 Z M26.9905595,45.4774863 L26.9905595,40.2548301 C27.2093095,39.8993613 27.5442705,39.7216269 27.9954424,39.7216269 C28.3919267,39.7216269 28.6653642,39.8093548 28.8157549,39.9848105 C28.9661455,40.1602663 29.0413408,40.4348431 29.0413408,40.808541 L29.0413408,40.808541 L29.0413408,45.4774863 L31.3518877,45.4774863 L31.3518877,40.7128379 C31.3382158,39.7877077 31.1411129,39.0949993 30.7605791,38.6347129 C30.3800452,38.1744264 29.8046872,37.9442832 29.0345049,37.9442832 C28.1367184,37.9442832 27.4326168,38.2792441 26.9222002,38.949166 L26.9222002,38.949166 L26.8470049,38.0810019 L24.6868486,38.0810019 L24.6868486,45.4774863 L26.9905595,45.4774863 Z M35.3973955,45.6142051 C36.1265622,45.6142051 36.7281247,45.3043092 37.202083,44.6845176 L37.202083,44.6845176 L37.3182939,45.4774863 L39.389583,45.4774863 L39.389583,34.9774863 L37.0790361,34.9774863 L37.0790361,38.7235801 C36.6278642,38.2040488 36.0718747,37.9442832 35.4110674,37.9442832 C34.5041663,37.9442832 33.7977861,38.2815228 33.2919267,38.9560019 C32.7860674,39.6304811 32.5331377,40.5533327 32.5331377,41.7245566 C32.5331377,42.9686972 32.7906247,43.9280071 33.3055986,44.6024863 C33.8205726,45.2769655 34.5178382,45.6142051 35.3973955,45.6142051 Z M35.9852861,43.8368613 C35.2196611,43.8368613 34.8368486,43.1806113 34.8368486,41.8681113 L34.8368486,41.8681113 L34.8436845,41.4442832 C34.9029293,40.2958457 35.2880205,39.7216269 35.998958,39.7216269 C36.5093747,39.7216269 36.8694007,39.9403769 37.0790361,40.3778769 L37.0790361,40.3778769 L37.0790361,43.1942832 C36.8602861,43.6226686 36.4957028,43.8368613 35.9852861,43.8368613 Z M43.2163408,45.4774863 L43.2163408,40.7948691 C43.4214189,40.3391399 43.8862627,40.1112754 44.610872,40.1112754 L44.610872,40.1112754 L45.3696611,40.1659629 L45.4106767,38.0263144 C45.2283851,37.9716269 45.0141924,37.9442832 44.7680986,37.9442832 C44.0753903,37.9442832 43.5353512,38.3065879 43.1479814,39.0311972 L43.1479814,39.0311972 L43.0727861,38.0810019 L40.9126299,38.0810019 L40.9126299,45.4774863 L43.2163408,45.4774863 Z M49.4356767,45.6142051 C50.5294267,45.6142051 51.3964515,45.2758261 52.036751,44.5990683 C52.6770504,43.9223105 52.9972002,43.0074342 52.9972002,41.8544394 L52.9972002,41.8544394 L52.9972002,41.7724082 C52.9972002,40.5920696 52.6781898,39.6589642 52.0401689,38.9730918 C51.4021481,38.2872194 50.5294267,37.9442832 49.4220049,37.9442832 C48.6973955,37.9442832 48.0662106,38.0992311 47.5284502,38.4091269 C46.9906898,38.7190228 46.5782549,39.1622194 46.2911455,39.7387168 C46.0040361,40.3152142 45.8604814,40.9726035 45.8604814,41.7108847 L45.8604814,41.7108847 L45.8673174,42.1005332 C45.9174476,43.1806113 46.2615231,44.0362428 46.8995439,44.6674277 C47.5375648,45.2986126 48.3829424,45.6142051 49.4356767,45.6142051 Z M49.4356767,43.8368613 C49.0164059,43.8368613 48.6996741,43.6773561 48.4854814,43.3583457 C48.2712887,43.0393353 48.1641924,42.5380332 48.1641924,41.8544394 L48.1641924,41.8544394 L48.1710283,41.4374472 C48.2348304,40.293567 48.6518226,39.7216269 49.4220049,39.7216269 C50.2696611,39.7216269 50.6934892,40.3847129 50.6934892,41.7108847 L50.6934892,41.7108847 L50.6934892,41.9433066 C50.6752601,43.2056764 50.2559892,43.8368613 49.4356767,43.8368613 Z M55.4704424,37.2948691 C55.8486976,37.2948691 56.1563148,37.1900514 56.3932939,36.980416 C56.6302731,36.7707806 56.7487627,36.5019004 56.7487627,36.1737754 C56.7487627,35.8456504 56.6302731,35.5767702 56.3932939,35.3671347 C56.1563148,35.1574993 55.8486976,35.0526816 55.4704424,35.0526816 C55.0921872,35.0526816 54.78457,35.1574993 54.5475908,35.3671347 C54.3106116,35.5767702 54.192122,35.8456504 54.192122,36.1737754 C54.192122,36.5019004 54.3106116,36.7707806 54.5475908,36.980416 C54.78457,37.1900514 55.0921872,37.2948691 55.4704424,37.2948691 Z M56.6393877,45.4774863 L56.6393877,38.0810019 L54.3288408,38.0810019 L54.3288408,45.4774863 L56.6393877,45.4774863 Z M60.8284502,45.6142051 C61.5576168,45.6142051 62.1591793,45.3043092 62.6331377,44.6845176 L62.6331377,44.6845176 L62.7493486,45.4774863 L64.8206377,45.4774863 L64.8206377,34.9774863 L62.5100908,34.9774863 L62.5100908,38.7235801 C62.0589189,38.2040488 61.5029293,37.9442832 60.842122,37.9442832 C59.935221,37.9442832 59.2288408,38.2815228 58.7229814,38.9560019 C58.217122,39.6304811 57.9641924,40.5533327 57.9641924,41.7245566 C57.9641924,42.9686972 58.2216793,43.9280071 58.7366533,44.6024863 C59.2516273,45.2769655 59.9488929,45.6142051 60.8284502,45.6142051 Z M61.4163408,43.8368613 C60.6507158,43.8368613 60.2679033,43.1806113 60.2679033,41.8681113 L60.2679033,41.8681113 L60.2747392,41.4442832 C60.333984,40.2958457 60.7190752,39.7216269 61.4300127,39.7216269 C61.9404293,39.7216269 62.3004554,39.9403769 62.5100908,40.3778769 L62.5100908,40.3778769 L62.5100908,43.1942832 C62.2913408,43.6226686 61.9267575,43.8368613 61.4163408,43.8368613 Z" fill="#2F5BEA" transform="translate(39.740267, 40.295846) rotate(-360.000000) translate(-39.740267, -40.295846) "></path>
                        </g>
                        <g id="React-Native" transform="translate(50.401275, 207.154759)" fill-rule="nonzero">
                            <path d="M62.1666544,73.0242577 C44.6657311,85.7468418 20.2295419,81.7835251 7.58689829,64.171942 C-5.05574536,46.5603589 -1.11733153,21.9696577 16.3835918,9.24707356 L18.1943475,7.93071491 C35.6952708,-4.79186922 60.13146,-0.828552486 72.7741036,16.7830306 C85.4167473,34.3946137 81.4783334,58.9853149 63.9774101,71.707899 L62.1666544,73.0242577 Z" id="Path" stroke="#2F5BEA" stroke-width="2" fill="#5BA0FF"></path>
                            <path d="M57.7694237,66.5149034 C43.7686851,76.6929707 24.2197337,73.5223173 14.1056188,59.4330509 C3.9915039,45.3437844 7.14223496,25.6712234 21.1429736,15.4931561 L22.5915782,14.4400692 C36.5923168,4.26200188 56.1412682,7.43265527 66.2553831,21.5219217 C76.369498,35.6111882 73.2187669,55.2837492 59.2180283,65.4618165 L57.7694237,66.5149034 Z" id="Path" fill="#FFFFFF"></path>
                            <path d="M24.7073564,37.4774863 L24.7073564,33.9638144 L26.0061845,33.9638144 L27.7630205,37.4774863 L30.333333,37.4774863 L30.333333,37.3749472 L28.255208,33.3622519 C28.8522132,33.0796998 29.2908525,32.7105592 29.571126,32.2548301 C29.8513994,31.7991009 29.9915361,31.2248821 29.9915361,30.5321738 C29.9915361,29.5751426 29.6588538,28.8345827 28.9934892,28.3104941 C28.3281247,27.7864056 27.4052731,27.5243613 26.2249345,27.5243613 L26.2249345,27.5243613 L22.3079424,27.5243613 L22.3079424,37.4774863 L24.7073564,37.4774863 Z M26.2249345,32.1112754 L24.7073564,32.1112754 L24.7073564,29.3769004 L26.2249345,29.3769004 C26.6761064,29.3769004 27.0179033,29.4988079 27.2503252,29.742623 C27.482747,29.9864381 27.598958,30.3225384 27.598958,30.7509238 C27.598958,31.1793092 27.4838864,31.5131308 27.2537431,31.7523886 C27.0235999,31.9916465 26.6806637,32.1112754 26.2249345,32.1112754 L26.2249345,32.1112754 Z M35.1102861,37.6142051 C35.7164059,37.6142051 36.2826494,37.4968548 36.8090166,37.2621543 C37.3353838,37.0274538 37.742122,36.7118613 38.0292314,36.3153769 L38.0292314,36.3153769 L36.976497,35.0712363 C36.5663408,35.581653 35.9966793,35.8368613 35.2675127,35.8368613 C34.8254554,35.8368613 34.4654293,35.7183717 34.1874345,35.4813926 C33.9094398,35.2444134 33.7294267,34.918567 33.6473955,34.5038535 L33.6473955,34.5038535 L38.2274736,34.5038535 L38.2274736,33.6083457 C38.2274736,32.4553509 37.9266924,31.5564251 37.3251299,30.9115683 C36.7235674,30.2667116 35.9032549,29.9442832 34.8641924,29.9442832 C34.1259111,29.9442832 33.4878903,30.1026491 32.9501299,30.4193808 C32.4123694,30.7361126 32.0033525,31.1838665 31.7230791,31.7626426 C31.4428056,32.3414186 31.3026689,33.0090618 31.3026689,33.7655722 L31.3026689,33.7655722 L31.3026689,33.9569785 C31.3026689,35.0416139 31.6535804,35.9223105 32.3554033,36.5990683 C33.0572262,37.2758261 33.9755205,37.6142051 35.1102861,37.6142051 Z M35.9716142,33.0614707 L33.6473955,33.0614707 C33.7749997,32.1682415 34.1760413,31.7216269 34.8505205,31.7216269 C35.2151038,31.7216269 35.4953773,31.8230267 35.6913408,32.0258261 C35.8873043,32.2286256 35.9807288,32.5145957 35.9716142,32.8837363 L35.9716142,32.8837363 L35.9716142,33.0614707 Z M41.5210283,37.6142051 C42.282096,37.6142051 42.8745439,37.3476035 43.298372,36.8144004 C43.3621741,37.106067 43.4350908,37.3270957 43.517122,37.4774863 L43.517122,37.4774863 L45.820833,37.4774863 L45.820833,37.3612754 C45.6203122,37.0012493 45.5154944,36.4817181 45.5063799,35.8026816 L45.5063799,35.8026816 L45.5063799,32.5282676 C45.492708,31.7261842 45.2124345,31.0949993 44.6655595,30.6347129 C44.1186845,30.1744264 43.3735674,29.9442832 42.430208,29.9442832 C41.4868486,29.9442832 40.7109697,30.1675905 40.1025713,30.6142051 C39.4941728,31.0608196 39.1899736,31.6418743 39.1899736,32.3573691 L39.1899736,32.3573691 L41.4936845,32.3573691 C41.4936845,31.8196087 41.767122,31.5507285 42.313997,31.5507285 C42.9018877,31.5507285 43.195833,31.8902467 43.195833,32.5692832 L43.195833,32.5692832 L43.195833,32.9589316 L42.4848955,32.9589316 C41.3546872,32.9589316 40.493359,33.1640097 39.9009111,33.574166 C39.3084632,33.9843222 39.0122392,34.590442 39.0122392,35.3925254 C39.0122392,36.0305462 39.2560543,36.5603314 39.7436845,36.9818808 C40.2313148,37.4034303 40.8237627,37.6142051 41.5210283,37.6142051 Z M42.0747392,35.9735801 C41.8559892,35.9735801 41.6759762,35.9086386 41.5347002,35.7787558 C41.3934241,35.648873 41.3227861,35.4791139 41.3227861,35.2694785 C41.3227861,34.5494264 41.7238278,34.1894004 42.5259111,34.1894004 L42.5259111,34.1894004 L43.195833,34.1894004 L43.195833,35.3720176 C43.1138017,35.5269655 42.9782223,35.6659629 42.7890947,35.7890097 C42.5999671,35.9120566 42.3618486,35.9735801 42.0747392,35.9735801 Z M50.1602861,37.6142051 C51.0763017,37.6142051 51.8248369,37.3544394 52.4058916,36.8349082 C52.9869463,36.3153769 53.2774736,35.6500123 53.2774736,34.8388144 L53.2774736,34.8388144 L51.1173174,34.8388144 C51.1218747,35.1532676 51.0352861,35.398222 50.8575517,35.5736777 C50.6798174,35.7491334 50.4291663,35.8368613 50.1055986,35.8368613 C49.7182288,35.8368613 49.4356767,35.6933066 49.2579424,35.4061972 C49.080208,35.1190879 48.9913408,34.6041139 48.9913408,33.8612754 C48.9913408,33.4374472 49.0072913,33.1047649 49.0391924,32.8632285 C49.1394528,32.1021608 49.4880856,31.7216269 50.0850908,31.7216269 C50.3995439,31.7216269 50.650195,31.824166 50.8370439,32.0292441 C51.0238929,32.2343222 51.1173174,32.5282676 51.1173174,32.9110801 L51.1173174,32.9110801 L53.2774736,32.9110801 C53.2774736,31.9996217 52.9949215,31.277291 52.4298174,30.7440879 C51.8647132,30.2108847 51.1013668,29.9442832 50.1397783,29.9442832 C49.4288408,29.9442832 48.8136064,30.0980918 48.2940752,30.405709 C47.7745439,30.7133261 47.3769202,31.1531048 47.1012041,31.7250449 C46.8254879,32.296985 46.6876299,32.956653 46.6876299,33.7040488 L46.6876299,33.7040488 L46.6876299,33.7997519 C46.6876299,34.9937623 46.9975257,35.9280071 47.6173174,36.6024863 C48.237109,37.2769655 49.0847653,37.6142051 50.1602861,37.6142051 Z M57.152083,37.6142051 C57.6032549,37.6142051 58.0361976,37.5481243 58.4509111,37.4159629 L58.4509111,37.4159629 L58.4509111,35.7685019 C58.2959632,35.7958457 58.1045569,35.8095176 57.8766924,35.8095176 C57.5804684,35.8095176 57.3822262,35.7548301 57.2819658,35.6454551 C57.1817054,35.5360801 57.1315752,35.3423952 57.1315752,35.0644004 L57.1315752,35.0644004 L57.1315752,31.6806113 L58.348372,31.6806113 L58.348372,30.0810019 L57.1315752,30.0810019 L57.1315752,28.2421347 L54.8278642,28.2421347 L54.8278642,30.0810019 L53.8845049,30.0810019 L53.8845049,31.6806113 L54.8278642,31.6806113 L54.8278642,35.3515097 C54.8278642,36.1125774 55.0169918,36.6799603 55.395247,37.0536582 C55.7735023,37.4273561 56.3591142,37.6142051 57.152083,37.6142051 Z M22.4009111,53.4774863 L22.4009111,47.2841269 L25.9282549,53.4774863 L28.313997,53.4774863 L28.313997,43.5243613 L25.9214189,43.5243613 L25.9214189,49.7177207 L22.4009111,43.5243613 L20.001497,43.5243613 L20.001497,53.4774863 L22.4009111,53.4774863 Z M32.0929033,53.6142051 C32.853971,53.6142051 33.4464189,53.3476035 33.870247,52.8144004 C33.9340491,53.106067 34.0069658,53.3270957 34.088997,53.4774863 L34.088997,53.4774863 L36.392708,53.4774863 L36.392708,53.3612754 C36.1921872,53.0012493 36.0873694,52.4817181 36.0782549,51.8026816 L36.0782549,51.8026816 L36.0782549,48.5282676 C36.064583,47.7261842 35.7843095,47.0949993 35.2374345,46.6347129 C34.6905595,46.1744264 33.9454424,45.9442832 33.002083,45.9442832 C32.0587236,45.9442832 31.2828447,46.1675905 30.6744463,46.6142051 C30.0660478,47.0608196 29.7618486,47.6418743 29.7618486,48.3573691 L29.7618486,48.3573691 L32.0655595,48.3573691 C32.0655595,47.8196087 32.338997,47.5507285 32.885872,47.5507285 C33.4737627,47.5507285 33.767708,47.8902467 33.767708,48.5692832 L33.767708,48.5692832 L33.767708,48.9589316 L33.0567705,48.9589316 C31.9265622,48.9589316 31.065234,49.1640097 30.4727861,49.574166 C29.8803382,49.9843222 29.5841142,50.590442 29.5841142,51.3925254 C29.5841142,52.0305462 29.8279293,52.5603314 30.3155595,52.9818808 C30.8031898,53.4034303 31.3956377,53.6142051 32.0929033,53.6142051 Z M32.6466142,51.9735801 C32.4278642,51.9735801 32.2478512,51.9086386 32.1065752,51.7787558 C31.9652991,51.648873 31.8946611,51.4791139 31.8946611,51.2694785 C31.8946611,50.5494264 32.2957028,50.1894004 33.0977861,50.1894004 L33.0977861,50.1894004 L33.767708,50.1894004 L33.767708,51.3720176 C33.6856767,51.5269655 33.5500973,51.6659629 33.3609697,51.7890097 C33.1718421,51.9120566 32.9337236,51.9735801 32.6466142,51.9735801 Z M40.2536455,53.6142051 C40.7048174,53.6142051 41.1377601,53.5481243 41.5524736,53.4159629 L41.5524736,53.4159629 L41.5524736,51.7685019 C41.3975257,51.7958457 41.2061194,51.8095176 40.9782549,51.8095176 C40.6820309,51.8095176 40.4837887,51.7548301 40.3835283,51.6454551 C40.2832679,51.5360801 40.2331377,51.3423952 40.2331377,51.0644004 L40.2331377,51.0644004 L40.2331377,47.6806113 L41.4499345,47.6806113 L41.4499345,46.0810019 L40.2331377,46.0810019 L40.2331377,44.2421347 L37.9294267,44.2421347 L37.9294267,46.0810019 L36.9860674,46.0810019 L36.9860674,47.6806113 L37.9294267,47.6806113 L37.9294267,51.3515097 C37.9294267,52.1125774 38.1185543,52.6799603 38.4968095,53.0536582 C38.8750648,53.4273561 39.4606767,53.6142051 40.2536455,53.6142051 Z M43.8138017,45.2948691 C44.1920569,45.2948691 44.4996741,45.1900514 44.7366533,44.980416 C44.9736325,44.7707806 45.092122,44.5019004 45.092122,44.1737754 C45.092122,43.8456504 44.9736325,43.5767702 44.7366533,43.3671347 C44.4996741,43.1574993 44.1920569,43.0526816 43.8138017,43.0526816 C43.4355465,43.0526816 43.1279293,43.1574993 42.8909502,43.3671347 C42.653971,43.5767702 42.5354814,43.8456504 42.5354814,44.1737754 C42.5354814,44.5019004 42.653971,44.7707806 42.8909502,44.980416 C43.1279293,45.1900514 43.4355465,45.2948691 43.8138017,45.2948691 Z M44.982747,53.4774863 L44.982747,46.0810019 L42.6722002,46.0810019 L42.6722002,53.4774863 L44.982747,53.4774863 Z M50.7304033,53.4774863 L53.1434892,46.0810019 L50.7167314,46.0810019 L49.5477861,50.7362754 L48.3993486,46.0810019 L45.9657549,46.0810019 L48.3788408,53.4774863 L50.7304033,53.4774863 Z M57.517122,53.6142051 C58.1232418,53.6142051 58.6894853,53.4968548 59.2158525,53.2621543 C59.7422197,53.0274538 60.148958,52.7118613 60.4360674,52.3153769 L60.4360674,52.3153769 L59.383333,51.0712363 C58.9731767,51.581653 58.4035153,51.8368613 57.6743486,51.8368613 C57.2322913,51.8368613 56.8722653,51.7183717 56.5942705,51.4813926 C56.3162757,51.2444134 56.1362627,50.918567 56.0542314,50.5038535 L56.0542314,50.5038535 L60.6343095,50.5038535 L60.6343095,49.6083457 C60.6343095,48.4553509 60.3335283,47.5564251 59.7319658,46.9115683 C59.1304033,46.2667116 58.3100908,45.9442832 57.2710283,45.9442832 C56.532747,45.9442832 55.8947262,46.1026491 55.3569658,46.4193808 C54.8192054,46.7361126 54.4101885,47.1838665 54.129915,47.7626426 C53.8496416,48.3414186 53.7095049,49.0090618 53.7095049,49.7655722 L53.7095049,49.7655722 L53.7095049,49.9569785 C53.7095049,51.0416139 54.0604163,51.9223105 54.7622392,52.5990683 C55.4640622,53.2758261 56.3823564,53.6142051 57.517122,53.6142051 Z M58.3784502,49.0614707 L56.0542314,49.0614707 C56.1818356,48.1682415 56.5828773,47.7216269 57.2573564,47.7216269 C57.6219398,47.7216269 57.9022132,47.8230267 58.0981767,48.0258261 C58.2941403,48.2286256 58.3875648,48.5145957 58.3784502,48.8837363 L58.3784502,48.8837363 L58.3784502,49.0614707 Z" id="ReactNative" fill="#2F5BEA" transform="translate(40.317903, 40.569283) rotate(-360.000000) translate(-40.317903, -40.569283) "></path>
                        </g>
                        <g id="iOS" transform="translate(180.500000, 178.309517)" fill-rule="nonzero">
                            <path d="M67.220667,12.0599434 C83.2963028,26.5645456 84.5942251,51.3817679 70.1196576,67.4907606 C55.6450902,83.5997534 30.8792572,84.9003689 14.8036214,70.3957667 L13.1403349,68.8950292 C-2.93530087,54.390427 -4.23322318,29.5732048 10.2413443,13.464212 C24.7159117,-2.64478082 49.4817447,-3.94539632 65.5573805,10.5592059 L67.220667,12.0599434 Z" id="Path" stroke="#2F5BEA" stroke-width="2" fill="#5BA0FF"></path>
                            <path d="M61.8126338,17.743452 C74.6731424,29.3471338 75.7114803,49.2009115 64.1318263,62.0881058 C52.5521723,74.9753 32.7395059,76.0157924 19.8789973,64.4121106 L18.5483681,63.2115206 C5.6878595,51.6078388 4.64952165,31.7540611 16.2291756,18.8668668 C27.8088296,5.97967261 47.621496,4.9391802 60.4820046,16.542862 L61.8126338,17.743452 Z" id="Path" fill="#FFFFFF"></path>
                            <path d="M30.6532549,37.2948691 C31.0315101,37.2948691 31.3391273,37.1900514 31.5761064,36.980416 C31.8130856,36.7707806 31.9315752,36.5019004 31.9315752,36.1737754 C31.9315752,35.8456504 31.8130856,35.5767702 31.5761064,35.3671347 C31.3391273,35.1574993 31.0315101,35.0526816 30.6532549,35.0526816 C30.2749997,35.0526816 29.9673825,35.1574993 29.7304033,35.3671347 C29.4934241,35.5767702 29.3749345,35.8456504 29.3749345,36.1737754 C29.3749345,36.5019004 29.4934241,36.7707806 29.7304033,36.980416 C29.9673825,37.1900514 30.2749997,37.2948691 30.6532549,37.2948691 Z M31.8222002,45.4774863 L31.8222002,38.0810019 L29.5116533,38.0810019 L29.5116533,45.4774863 L31.8222002,45.4774863 Z M37.6313799,45.6142051 C38.4790361,45.6142051 39.2344072,45.4125449 39.8974931,45.0092246 C40.5605791,44.6059043 41.0721351,44.0305462 41.4321611,43.2831504 C41.7921872,42.5357545 41.9722002,41.6767051 41.9722002,40.7060019 L41.9722002,40.7060019 L41.9722002,40.2479941 C41.9676429,39.2909629 41.7819332,38.4421673 41.4150713,37.7016074 C41.0482093,36.9610475 40.5343747,36.3902467 39.8735674,35.9892051 C39.2127601,35.5881634 38.4608069,35.3876426 37.617708,35.3876426 C36.7654944,35.3876426 36.0055661,35.590442 35.3379228,35.996041 C34.6702796,36.4016399 34.1575843,36.976998 33.7998369,37.7221152 C33.4420895,38.4672324 33.2632158,39.3274212 33.2632158,40.3026816 L33.2632158,40.3026816 L33.2632158,40.8632285 C33.281445,41.8020306 33.4739905,42.6337363 33.8408525,43.3583457 C34.2077145,44.0829551 34.7192705,44.640084 35.3755205,45.0297324 C36.0317705,45.4193808 36.7837236,45.6142051 37.6313799,45.6142051 Z M37.6313799,43.7411582 C36.993359,43.7411582 36.5125648,43.4791139 36.188997,42.9550254 C35.8654293,42.4309368 35.7036455,41.6812623 35.7036455,40.7060019 L35.7036455,40.7060019 L35.7104814,39.9745566 C35.7788408,38.1698691 36.414583,37.2675254 37.617708,37.2675254 C38.2329424,37.2675254 38.7057614,37.523873 39.036165,38.0365683 C39.3665687,38.5492636 39.5317705,39.3000774 39.5317705,40.2890097 L39.5317705,40.2890097 L39.5317705,40.7470176 C39.5272132,41.7131634 39.360872,42.4537233 39.032747,42.9686972 C38.704622,43.4836712 38.2374997,43.7411582 37.6313799,43.7411582 Z M47.2550127,45.6142051 C48.3988929,45.6142051 49.298958,45.3658327 49.955208,44.8690879 C50.611458,44.3723431 50.939583,43.6887493 50.939583,42.8183066 C50.939583,41.7291139 50.4018226,40.8746217 49.3263017,40.2548301 C48.8842444,39.9996217 48.3191403,39.7615032 47.6309892,39.5404746 C46.9428382,39.3194459 46.4620439,39.1052532 46.1886064,38.8978965 C45.9151689,38.6905397 45.7784502,38.4592571 45.7784502,38.2040488 C45.7784502,37.9123821 45.9026364,37.671985 46.1510088,37.4828574 C46.3993812,37.2937298 46.7377601,37.199166 47.1661455,37.199166 C47.5899736,37.199166 47.9260739,37.3108196 48.1744463,37.5341269 C48.4228187,37.7574342 48.5470049,38.0718873 48.5470049,38.4774863 L48.5470049,38.4774863 L50.939583,38.4774863 C50.939583,37.8713665 50.7823564,37.3324668 50.4679033,36.8607871 C50.1534502,36.3891074 49.7125322,36.0256634 49.1451494,35.7704551 C48.5777666,35.5152467 47.9363278,35.3876426 47.220833,35.3876426 C46.487109,35.3876426 45.8263017,35.5049928 45.2384111,35.7396933 C44.6505205,35.9743939 44.1959306,36.3025189 43.8746416,36.7240683 C43.5533525,37.1456178 43.392708,37.6321087 43.392708,38.183541 C43.392708,39.2909629 44.0375648,40.1614056 45.3272783,40.7948691 C45.7237627,40.9908327 46.2341793,41.1936321 46.8585283,41.4032676 C47.4828773,41.612903 47.9192379,41.8157024 48.1676103,42.011666 C48.4159827,42.2076295 48.5401689,42.481067 48.5401689,42.8319785 C48.5401689,43.1418743 48.4250973,43.3822715 48.1949541,43.5531699 C47.9648108,43.7240683 47.651497,43.8095176 47.2550127,43.8095176 C46.635221,43.8095176 46.1874671,43.6830527 45.911751,43.430123 C45.6360348,43.1771933 45.4981767,42.7841269 45.4981767,42.2509238 L45.4981767,42.2509238 L43.0919267,42.2509238 C43.0919267,42.9071738 43.2571286,43.4870892 43.5875322,43.9906699 C43.9179358,44.4942506 44.4101233,44.890735 45.0640947,45.180123 C45.7180661,45.469511 46.448372,45.6142051 47.2550127,45.6142051 Z" fill="#2F5BEA"></path>
                        </g>
                        <g id="ASR" transform="translate(131.401275, 161.376855) rotate(-90.000000) translate(-131.401275, -161.376855) translate(90.901275, 120.876855)" fill-rule="nonzero">
                            <path d="M67.686177,12.2822405 C83.7618127,26.7868428 85.0597351,51.604065 70.5851676,67.7130578 C56.1106001,83.8220505 31.3447671,85.1226661 15.2691314,70.6180638 L13.6058449,69.1173263 C-2.46979089,54.6127241 -3.7677132,29.7955019 10.7068543,13.6865091 C25.1814217,-2.42248369 49.9472547,-3.7230992 66.0228905,10.7815031 L67.686177,12.2822405 Z" id="Path" stroke="#2F5BEA" stroke-width="2" fill="#99CAFF"></path>
                            <path d="M62.7739648,17.5783713 C75.6344734,29.1820531 76.6728113,49.0358308 65.0931573,61.9230251 C53.5135033,74.8102193 33.7008369,75.8507117 20.8403283,64.2470299 L19.5096991,63.0464399 C6.64919051,51.4427581 5.61085266,31.5889803 17.1905066,18.7017861 C28.7701606,5.81459189 48.582827,4.77409948 61.4433356,16.3777813 L62.7739648,17.5783713 Z" id="Path" fill="#FFFFFF"></path>
                            <path d="M29.6731796,45.3124056 L30.2473984,43.4530306 L33.5354843,43.4530306 L34.116539,45.3124056 L36.6936874,45.3124056 L33.0159531,35.3592806 L30.7600937,35.3592806 L27.1097031,45.3124056 L29.6731796,45.3124056 Z M32.9612656,41.6004915 L30.8216171,41.6004915 L31.8880234,38.1483431 L32.9612656,41.6004915 Z M41.4638046,45.4491243 C42.6076848,45.4491243 43.5077499,45.2007519 44.1639999,44.7040071 C44.8202499,44.2072624 45.1483749,43.5236686 45.1483749,42.6532259 C45.1483749,41.5640332 44.6106145,40.709541 43.5350937,40.0897493 C43.0930364,39.834541 42.5279322,39.5964225 41.8397812,39.3753939 C41.1516301,39.1543652 40.6708359,38.9401725 40.3973984,38.7328157 C40.1239609,38.525459 39.9872421,38.2941764 39.9872421,38.0389681 C39.9872421,37.7473014 40.1114283,37.5069043 40.3598007,37.3177767 C40.6081731,37.1286491 40.946552,37.0340853 41.3749374,37.0340853 C41.7987656,37.0340853 42.1348658,37.1457389 42.3832382,37.3690462 C42.6316106,37.5923535 42.7557968,37.9068066 42.7557968,38.3124056 L42.7557968,38.3124056 L45.1483749,38.3124056 C45.1483749,37.7062858 44.9911484,37.1673861 44.6766952,36.6957064 C44.3622421,36.2240267 43.9213241,35.8605827 43.3539413,35.6053743 C42.7865585,35.350166 42.1451197,35.2225618 41.4296249,35.2225618 C40.695901,35.2225618 40.0350937,35.3399121 39.4472031,35.5746126 C38.8593124,35.8093131 38.4047226,36.1374381 38.0834335,36.5589876 C37.7621445,36.9805371 37.6014999,37.467028 37.6014999,38.0184603 C37.6014999,39.1258821 38.2463567,39.9963249 39.5360702,40.6297884 C39.9325546,40.8257519 40.4429713,41.0285514 41.0673202,41.2381868 C41.6916692,41.4478223 42.1280299,41.6506217 42.3764023,41.8465853 C42.6247747,42.0425488 42.7489609,42.3159863 42.7489609,42.6668978 C42.7489609,42.9767936 42.6338893,43.2171907 42.403746,43.3880892 C42.1736028,43.5589876 41.860289,43.6444368 41.4638046,43.6444368 C40.8440129,43.6444368 40.396259,43.517972 40.1205429,43.2650423 C39.8448268,43.0121126 39.7069687,42.6190462 39.7069687,42.0858431 L39.7069687,42.0858431 L37.3007187,42.0858431 C37.3007187,42.7420931 37.4659205,43.3220084 37.7963241,43.8255892 C38.1267278,44.3291699 38.6189153,44.7256543 39.2728866,45.0150423 C39.926858,45.3044303 40.657164,45.4491243 41.4638046,45.4491243 Z M48.9751327,45.3124056 L48.9751327,41.7987337 L50.2739609,41.7987337 L52.0307968,45.3124056 L54.6011093,45.3124056 L54.6011093,45.2098665 L52.5229843,41.1971712 C53.1199895,40.9146191 53.5586288,40.5454785 53.8389023,40.0897493 C54.1191757,39.6340202 54.2593124,39.0598014 54.2593124,38.3670931 C54.2593124,37.4100618 53.9266301,36.6695019 53.2612656,36.1454134 C52.595901,35.6213249 51.6730494,35.3592806 50.4927109,35.3592806 L50.4927109,35.3592806 L46.5757187,35.3592806 L46.5757187,45.3124056 L48.9751327,45.3124056 Z M50.4927109,39.9461946 L48.9751327,39.9461946 L48.9751327,37.2118196 L50.4927109,37.2118196 C50.9438827,37.2118196 51.2856796,37.3337272 51.5181015,37.5775423 C51.7505234,37.8213574 51.8667343,38.1574577 51.8667343,38.5858431 C51.8667343,39.0142285 51.7516627,39.3480501 51.5215195,39.5873079 C51.2913762,39.8265657 50.94844,39.9461946 50.4927109,39.9461946 L50.4927109,39.9461946 Z" fill="#2F5BEA" transform="translate(40.855406, 40.335843) rotate(-270.000000) translate(-40.855406, -40.335843) "></path>
                        </g>
                        <g id="NLU" transform="translate(221.000000, 129.654759) rotate(-90.000000) translate(-221.000000, -129.654759) translate(180.500000, 89.154759)" fill-rule="nonzero">
                            <path d="M62.7435844,73.3169604 C45.2426611,86.0395446 20.8064719,82.0762278 8.16382826,64.4646447 C-4.47881539,46.8530616 -0.540401566,22.2623604 16.9605217,9.53977629 L18.7712774,8.22341764 C36.2722008,-4.49916649 60.7083899,-0.535849752 73.3510336,17.0757333 C85.9936772,34.6873164 82.0552634,59.2780177 64.5543401,72.0006018 L62.7435844,73.3169604 Z" id="Path" stroke="#2F5BEA" stroke-width="2" fill="#99CAFF"></path>
                            <path d="M58.3463537,66.8076062 C44.3456151,76.9856735 24.7966637,73.8150201 14.6825488,59.7257536 C4.56843387,45.6364871 7.71916493,25.9639261 21.7199036,15.7858588 L23.1685081,14.7327719 C37.1692468,4.55470462 56.7181981,7.72535801 66.832313,21.8146245 C76.946428,35.903891 73.7956969,55.5764519 59.7949583,65.7545192 L58.3463537,66.8076062 Z" id="Path" fill="#FFFFFF"></path>
                            <path d="M30.334677,45.770189 L30.334677,39.5768297 L33.8620208,45.770189 L36.247763,45.770189 L36.247763,35.817064 L33.8551848,35.817064 L33.8551848,42.0104234 L30.334677,35.817064 L27.935263,35.817064 L27.935263,45.770189 L30.334677,45.770189 Z M44.538388,45.770189 L44.538388,43.9244859 L40.3616301,43.9244859 L40.3616301,35.817064 L37.9622161,35.817064 L37.9622161,45.770189 L44.538388,45.770189 Z M49.4794036,45.9069078 C50.2814869,45.9069078 50.9764739,45.7656317 51.5643645,45.4830797 C52.1522551,45.2005276 52.603427,44.789232 52.9178801,44.2491929 C53.2323333,43.7091539 53.3895598,43.0699937 53.3895598,42.3317125 L53.3895598,42.3317125 L53.3895598,35.817064 L50.9901458,35.817064 L50.9901458,42.3180406 C50.9901458,42.933275 50.8625416,43.3776109 50.6073333,43.6510484 C50.3521249,43.9244859 49.9761484,44.0612047 49.4794036,44.0612047 C48.4950286,44.0612047 47.9891692,43.5166083 47.9618255,42.4274156 L47.9618255,42.4274156 L47.9618255,35.817064 L45.5487395,35.817064 L45.5487395,42.379564 C45.5624114,43.473314 45.9178801,44.3346422 46.6151458,44.9635484 C47.3124114,45.5924547 48.267164,45.9069078 49.4794036,45.9069078 Z" fill="#2F5BEA" transform="translate(40.662411, 40.861986) rotate(-270.000000) translate(-40.662411, -40.861986) "></path>
                        </g>
                        <g id="TTS" transform="translate(310.500000, 161.876855) rotate(-90.000000) translate(-310.500000, -161.876855) translate(270.000000, 121.376855)" fill-rule="nonzero">
                            <path d="M80.5517001,43.6186268 C79.1714231,65.0547066 60.2115113,81.3422228 38.2035518,79.9978125 C16.1955922,78.6534022 -0.52644845,60.1861662 0.853828537,38.7500864 L0.996640684,36.5321746 C2.37691767,15.0960948 21.3368295,-1.19142139 43.344789,0.152988921 C65.3527486,1.49739923 82.0747892,19.9646352 80.6945123,41.400715 L80.5517001,43.6186268 Z" id="Path" stroke="#2F5BEA" stroke-width="2" fill="#99CAFF"></path>
                            <path d="M72.5961942,42.9099816 C71.4919726,60.0588454 56.3240431,73.0888584 38.7176755,72.0133301 C21.1113079,70.9378019 7.73367532,56.1640131 8.83789691,39.0151493 L8.95214663,37.2408198 C10.0563682,20.091956 25.2242977,7.06194303 42.8306653,8.13747128 C60.4370329,9.21299952 73.8146655,23.9867883 72.7104439,41.1356522 L72.5961942,42.9099816 Z" id="Path" fill="#FFFFFF"></path>
                            <path d="M32.8499516,45.0754007 L32.8499516,36.9748148 L35.8372563,36.9748148 L35.8372563,35.1222757 L27.5179204,35.1222757 L27.5179204,36.9748148 L30.4505376,36.9748148 L30.4505376,45.0754007 L32.8499516,45.0754007 Z M41.981397,45.0754007 L41.981397,36.9748148 L44.9687016,36.9748148 L44.9687016,35.1222757 L36.6493657,35.1222757 L36.6493657,36.9748148 L39.5819829,36.9748148 L39.5819829,45.0754007 L41.981397,45.0754007 Z M49.9165532,45.2121195 C51.0604334,45.2121195 51.9604985,44.9637471 52.6167485,44.4670023 C53.2729985,43.9702575 53.6011235,43.2866637 53.6011235,42.416221 C53.6011235,41.3270283 53.0633631,40.4725361 51.9878423,39.8527445 C51.545785,39.5975361 50.9806808,39.3594176 50.2925298,39.138389 C49.6043787,38.9173603 49.1235845,38.7031676 48.850147,38.4958109 C48.5767095,38.2884541 48.4399907,38.0571715 48.4399907,37.8019632 C48.4399907,37.5102965 48.5641769,37.2698994 48.8125493,37.0807718 C49.0609217,36.8916442 49.3993006,36.7970804 49.827686,36.7970804 C50.2515141,36.7970804 50.5876144,36.908734 50.8359868,37.1320413 C51.0843592,37.3553486 51.2085454,37.6698017 51.2085454,38.0754007 L51.2085454,38.0754007 L53.6011235,38.0754007 C53.6011235,37.4692809 53.443897,36.9303812 53.1294438,36.4587015 C52.8149907,35.9870218 52.3740727,35.6235778 51.8066899,35.3683695 C51.2393071,35.1131611 50.5978683,34.985557 49.8823735,34.985557 C49.1486496,34.985557 48.4878423,35.1029072 47.8999516,35.3376077 C47.312061,35.5723083 46.8574712,35.9004333 46.5361821,36.3219827 C46.2148931,36.7435322 46.0542485,37.2300231 46.0542485,37.7814554 C46.0542485,38.8888773 46.6991053,39.75932 47.9888188,40.3927835 C48.3853032,40.5887471 48.8957199,40.7915465 49.5200688,41.001182 C50.1444178,41.2108174 50.5807785,41.4136169 50.8291509,41.6095804 C51.0775233,41.8055439 51.2017095,42.0789814 51.2017095,42.4298929 C51.2017095,42.7397887 51.0866378,42.9801859 50.8564946,43.1510843 C50.6263514,43.3219827 50.3130376,43.407432 49.9165532,43.407432 C49.2967615,43.407432 48.8490076,43.2809671 48.5732915,43.0280374 C48.2975753,42.7751077 48.1597173,42.3820413 48.1597173,41.8488382 L48.1597173,41.8488382 L45.7534673,41.8488382 C45.7534673,42.5050882 45.9186691,43.0850036 46.2490727,43.5885843 C46.5794764,44.092165 47.0716639,44.4886494 47.7256352,44.7780374 C48.3796066,45.0674254 49.1099126,45.2121195 49.9165532,45.2121195 Z" fill="#2F5BEA" transform="translate(40.559522, 40.098838) rotate(-270.000000) translate(-40.559522, -40.098838) "></path>
                        </g>
                        <g id="Apple" transform="translate(84.799363, 75.598952) scale(-1, 1) translate(-84.799363, -75.598952) translate(44.799363, 35.598952)" fill-rule="nonzero">
                            <path d="M79.7775297,43.5432261 C78.3972527,64.9793059 59.4373409,81.2668221 37.4293814,79.9224118 C15.4214218,78.5780015 -1.30061885,60.1107655 0.0796581397,38.6746857 L0.222470286,36.4567739 C1.60274727,15.0206941 20.5626591,-1.26682209 42.5706186,0.0775882123 C64.5785782,1.42199852 81.3006188,19.8892345 79.9203419,41.3253143 L79.7775297,43.5432261 Z" id="Path" stroke="#2F5BEA" stroke-width="2" fill="#EDF3F9"></path>
                            <path d="M71.8220238,42.8345809 C70.7178022,59.9834447 55.5498727,73.0134577 37.9435051,71.9379294 C20.3371375,70.8624012 6.95950492,56.0886124 8.06372651,38.9397485 L8.17797623,37.1654191 C9.28219782,20.0165553 24.4501273,6.98654232 42.0564949,8.06207057 C59.6628625,9.13759882 73.0404951,23.9113876 71.9362735,41.0602515 L71.8220238,42.8345809 Z" id="Path" fill="#FFFFFF"></path>
                            <path d="M23.8295898,45 L24.4038086,43.140625 L27.6918945,43.140625 L28.2729492,45 L30.8500977,45 L27.1723633,35.046875 L24.9165039,35.046875 L21.2661133,45 L23.8295898,45 Z M27.1176758,41.2880859 L24.9780273,41.2880859 L26.0444336,37.8359375 L27.1176758,41.2880859 Z M33.6583008,47.84375 L33.6583008,44.3916016 C34.0958008,44.8883464 34.654069,45.1367187 35.3331055,45.1367187 C36.2126628,45.1367187 36.9110677,44.7937826 37.4283203,44.1079102 C37.9455729,43.4220378 38.2041992,42.5048828 38.2041992,41.3564453 L38.2041992,41.3564453 L38.2041992,41.2470703 C38.2041992,40.0712891 37.9512695,39.1472982 37.4454102,38.4750977 C36.9395508,37.8028971 36.2308919,37.4667969 35.3194336,37.4667969 C34.5993815,37.4667969 34.0183268,37.7402344 33.5762695,38.2871094 L33.5762695,38.2871094 L33.5079102,37.6035156 L31.3545898,37.6035156 L31.3545898,47.84375 L33.6583008,47.84375 Z M34.7657227,43.359375 C34.2279622,43.359375 33.8588216,43.1542969 33.6583008,42.7441406 L33.6583008,42.7441406 L33.6583008,39.8320312 C33.8405924,39.4401042 34.2051758,39.2441406 34.7520508,39.2441406 C35.5176758,39.2441406 35.9004883,39.9003906 35.9004883,41.2128906 L35.9004883,41.2128906 L35.9004883,41.4589844 C35.8777018,42.7259115 35.4994466,43.359375 34.7657227,43.359375 Z M41.7370117,47.84375 L41.7370117,44.3916016 C42.1745117,44.8883464 42.7327799,45.1367187 43.4118164,45.1367187 C44.2913737,45.1367187 44.9897786,44.7937826 45.5070312,44.1079102 C46.0242839,43.4220378 46.2829102,42.5048828 46.2829102,41.3564453 L46.2829102,41.3564453 L46.2829102,41.2470703 C46.2829102,40.0712891 46.0299805,39.1472982 45.5241211,38.4750977 C45.0182617,37.8028971 44.3096029,37.4667969 43.3981445,37.4667969 C42.6780924,37.4667969 42.0970378,37.7402344 41.6549805,38.2871094 L41.6549805,38.2871094 L41.5866211,37.6035156 L39.4333008,37.6035156 L39.4333008,47.84375 L41.7370117,47.84375 Z M42.8444336,43.359375 C42.3066732,43.359375 41.9375326,43.1542969 41.7370117,42.7441406 L41.7370117,42.7441406 L41.7370117,39.8320312 C41.9193034,39.4401042 42.2838867,39.2441406 42.8307617,39.2441406 C43.5963867,39.2441406 43.9791992,39.9003906 43.9791992,41.2128906 L43.9791992,41.2128906 L43.9791992,41.4589844 C43.9564128,42.7259115 43.5781576,43.359375 42.8444336,43.359375 Z M49.9250977,45 L49.9250977,34.5 L47.6145508,34.5 L47.6145508,45 L49.9250977,45 Z M55.119043,45.1367187 C55.7251628,45.1367187 56.2914062,45.0193685 56.8177734,44.784668 C57.3441406,44.5499674 57.7508789,44.234375 58.0379883,43.8378906 L58.0379883,43.8378906 L56.9852539,42.59375 C56.5750977,43.1041667 56.0054362,43.359375 55.2762695,43.359375 C54.8342122,43.359375 54.4741862,43.2408854 54.1961914,43.0039062 C53.9181966,42.7669271 53.7381836,42.4410807 53.6561523,42.0263672 L53.6561523,42.0263672 L58.2362305,42.0263672 L58.2362305,41.1308594 C58.2362305,39.9778646 57.9354492,39.0789388 57.3338867,38.434082 C56.7323242,37.7892253 55.9120117,37.4667969 54.8729492,37.4667969 C54.134668,37.4667969 53.4966471,37.6251628 52.9588867,37.9418945 C52.4211263,38.2586263 52.0121094,38.7063802 51.7318359,39.2851562 C51.4515625,39.8639323 51.3114258,40.5315755 51.3114258,41.2880859 L51.3114258,41.2880859 L51.3114258,41.4794922 C51.3114258,42.5641276 51.6623372,43.4448242 52.3641602,44.121582 C53.0659831,44.7983398 53.9842773,45.1367187 55.119043,45.1367187 Z M55.9803711,40.5839844 L53.6561523,40.5839844 C53.7837565,39.6907552 54.1847982,39.2441406 54.8592773,39.2441406 C55.2238607,39.2441406 55.5041341,39.3455404 55.7000977,39.5483398 C55.8960612,39.7511393 55.9894857,40.0371094 55.9803711,40.40625 L55.9803711,40.40625 L55.9803711,40.5839844 Z" fill="#2F5BEA" transform="translate(39.751172, 41.171875) scale(-1, 1) translate(-39.751172, -41.171875) "></path>
                        </g>
                        <g id="Google" transform="translate(40.500000, 156.598952) scale(-1, 1) translate(-40.500000, -156.598952) translate(0.500000, 116.598952)" fill-rule="nonzero">
                            <path d="M61.9861535,72.5467714 C44.4852302,85.2693555 20.049041,81.3060388 7.40639734,63.6944557 C-5.23624631,46.0828726 -1.29783249,21.4921714 16.2030908,8.76958725 L18.0138465,7.4532286 C35.5147698,-5.26935553 59.950959,-1.30603879 72.5936027,16.3055443 C85.2362463,33.9171274 81.2978325,58.5078286 63.7969092,71.2304127 L61.9861535,72.5467714 Z" id="Path" stroke="#2F5BEA" stroke-width="2" fill="#EDF3F9"></path>
                            <path d="M57.5889228,66.0374171 C43.5881841,76.2154844 24.0392328,73.044831 13.9251179,58.9555646 C3.81100295,44.8662981 6.96173401,25.1937371 20.9624727,15.0156698 L22.4110772,13.9625829 C36.4118159,3.78451558 55.9607672,6.95516897 66.0748821,21.0444354 C76.188997,35.1337019 73.038266,54.8062629 59.0375273,64.9843302 L57.5889228,66.0374171 Z" id="Path" fill="#FFFFFF"></path>
                            <path d="M21.9572266,45.1367188 C22.8048828,45.1367188 23.5841797,45.0113932 24.2951172,44.7607422 C25.0060547,44.5100911 25.5460937,44.1796875 25.9152344,43.7695313 L25.9152344,43.7695313 L25.9152344,39.6816406 L21.8478516,39.6816406 L21.8478516,41.3291016 L23.5158203,41.3291016 L23.5158203,42.8740234 C23.2104818,43.1520182 22.745638,43.2910156 22.1212891,43.2910156 C21.3921224,43.2910156 20.8577799,43.0415039 20.5182617,42.5424805 C20.1787435,42.043457 20.0089844,41.2972005 20.0089844,40.3037109 L20.0089844,40.3037109 L20.0089844,39.7021484 C20.0135417,38.7542318 20.1798828,38.0250651 20.5080078,37.5146484 C20.8361328,37.0042318 21.3009766,36.7490234 21.9025391,36.7490234 C22.4038411,36.7490234 22.7912109,36.867513 23.0646484,37.1044922 C23.3380859,37.3414714 23.5158203,37.7379557 23.5978516,38.2939453 L23.5978516,38.2939453 L25.9083984,38.2939453 C25.7944661,37.1682943 25.3945638,36.3217773 24.7086914,35.7543945 C24.022819,35.1870117 23.0600911,34.9033203 21.8205078,34.9033203 C20.9728516,34.9033203 20.2265951,35.1004232 19.5817383,35.4946289 C18.9368815,35.8888346 18.441276,36.4516602 18.0949219,37.1831055 C17.7485677,37.9145508 17.5753906,38.7701823 17.5753906,39.75 L17.5753906,39.75 L17.5822266,40.6113281 C17.6369141,42.0332031 18.0539062,43.1429036 18.8332031,43.9404297 C19.6125,44.7379557 20.6538411,45.1367188 21.9572266,45.1367188 Z M30.6853516,45.1367188 C31.7791016,45.1367188 32.6461263,44.7983398 33.2864258,44.121582 C33.9267253,43.4448242 34.246875,42.5299479 34.246875,41.3769531 L34.246875,41.3769531 L34.246875,41.2949219 C34.246875,40.1145833 33.9278646,39.1814779 33.2898437,38.4956055 C32.6518229,37.8097331 31.7791016,37.4667969 30.6716797,37.4667969 C29.9470703,37.4667969 29.3158854,37.6217448 28.778125,37.9316406 C28.2403646,38.2415365 27.8279297,38.6847331 27.5408203,39.2612305 C27.2537109,39.8377279 27.1101562,40.4951172 27.1101562,41.2333984 L27.1101562,41.2333984 L27.1169922,41.6230469 C27.1671224,42.703125 27.5111979,43.5587565 28.1492187,44.1899414 C28.7872396,44.8211263 29.6326172,45.1367188 30.6853516,45.1367188 Z M30.6853516,43.359375 C30.2660807,43.359375 29.949349,43.1998698 29.7351562,42.8808594 C29.5209635,42.561849 29.4138672,42.0605469 29.4138672,41.3769531 L29.4138672,41.3769531 L29.4207031,40.9599609 C29.4845052,39.8160807 29.9014974,39.2441406 30.6716797,39.2441406 C31.5193359,39.2441406 31.9431641,39.9072266 31.9431641,41.2333984 L31.9431641,41.2333984 L31.9431641,41.4658203 C31.9249349,42.7281901 31.5056641,43.359375 30.6853516,43.359375 Z M38.7435547,45.1367188 C39.8373047,45.1367188 40.7043294,44.7983398 41.3446289,44.121582 C41.9849284,43.4448242 42.3050781,42.5299479 42.3050781,41.3769531 L42.3050781,41.3769531 L42.3050781,41.2949219 C42.3050781,40.1145833 41.9860677,39.1814779 41.3480469,38.4956055 C40.710026,37.8097331 39.8373047,37.4667969 38.7298828,37.4667969 C38.0052734,37.4667969 37.3740885,37.6217448 36.8363281,37.9316406 C36.2985677,38.2415365 35.8861328,38.6847331 35.5990234,39.2612305 C35.3119141,39.8377279 35.1683594,40.4951172 35.1683594,41.2333984 L35.1683594,41.2333984 L35.1751953,41.6230469 C35.2253255,42.703125 35.569401,43.5587565 36.2074219,44.1899414 C36.8454427,44.8211263 37.6908203,45.1367188 38.7435547,45.1367188 Z M38.7435547,43.359375 C38.3242839,43.359375 38.0075521,43.1998698 37.7933594,42.8808594 C37.5791667,42.561849 37.4720703,42.0605469 37.4720703,41.3769531 L37.4720703,41.3769531 L37.4789062,40.9599609 C37.5427083,39.8160807 37.9597005,39.2441406 38.7298828,39.2441406 C39.5775391,39.2441406 40.0013672,39.9072266 40.0013672,41.2333984 L40.0013672,41.2333984 L40.0013672,41.4658203 C39.983138,42.7281901 39.5638672,43.359375 38.7435547,43.359375 Z M46.4941406,47.9121094 C47.250651,47.9121094 47.9160156,47.7833659 48.4902344,47.5258789 C49.0644531,47.2683919 49.5030924,46.8992513 49.8061523,46.418457 C50.1092122,45.9376628 50.2607422,45.3714193 50.2607422,44.7197266 L50.2607422,44.7197266 L50.2607422,37.6035156 L48.1689453,37.6035156 L48.0869141,38.2460938 C47.6539714,37.7265625 47.0524089,37.4667969 46.2822266,37.4667969 C45.6715495,37.4667969 45.1360677,37.6228841 44.6757812,37.9350586 C44.2154948,38.2472331 43.8623047,38.6904297 43.6162109,39.2646484 C43.3701172,39.8388672 43.2470703,40.4996745 43.2470703,41.2470703 L43.2470703,41.2470703 L43.2470703,41.3291016 C43.2470703,42.4866536 43.5250651,43.4106445 44.0810547,44.1010742 C44.6370443,44.7915039 45.3662109,45.1367188 46.2685547,45.1367188 C46.9430339,45.1367188 47.5013021,44.8929036 47.9433594,44.4052734 L47.9433594,44.4052734 L47.9433594,44.6376953 C47.9433594,45.6858724 47.4329427,46.2099609 46.4121094,46.2099609 C45.7102865,46.2099609 45.1451823,45.9570313 44.7167969,45.4511719 L44.7167969,45.4511719 L43.7529297,46.8046875 C44.0218099,47.1328125 44.410319,47.3994141 44.918457,47.6044922 C45.4265951,47.8095703 45.9518229,47.9121094 46.4941406,47.9121094 Z M46.8564453,43.359375 C46.4462891,43.359375 46.1272786,43.1827799 45.8994141,42.8295898 C45.6715495,42.4763997 45.5576172,41.9967448 45.5576172,41.390625 C45.5576172,40.6933594 45.6738281,40.1612956 45.90625,39.7944336 C46.1386719,39.4275716 46.4599609,39.2441406 46.8701172,39.2441406 C47.3623047,39.2441406 47.7200521,39.4127604 47.9433594,39.75 L47.9433594,39.75 L47.9433594,42.8603516 C47.7154948,43.1930339 47.3531901,43.359375 46.8564453,43.359375 Z M54.196875,45 L54.196875,34.5 L51.8863281,34.5 L51.8863281,45 L54.196875,45 Z M59.3908203,45.1367188 C59.9969401,45.1367188 60.5631836,45.0193685 61.0895508,44.784668 C61.615918,44.5499674 62.0226562,44.234375 62.3097656,43.8378906 L62.3097656,43.8378906 L61.2570312,42.59375 C60.846875,43.1041667 60.2772135,43.359375 59.5480469,43.359375 C59.1059896,43.359375 58.7459635,43.2408854 58.4679687,43.0039063 C58.189974,42.7669271 58.0099609,42.4410807 57.9279297,42.0263672 L57.9279297,42.0263672 L62.5080078,42.0263672 L62.5080078,41.1308594 C62.5080078,39.9778646 62.2072266,39.0789388 61.6056641,38.434082 C61.0041016,37.7892253 60.1837891,37.4667969 59.1447266,37.4667969 C58.4064453,37.4667969 57.7684245,37.6251628 57.2306641,37.9418945 C56.6929036,38.2586263 56.2838867,38.7063802 56.0036133,39.2851563 C55.7233398,39.8639323 55.5832031,40.5315755 55.5832031,41.2880859 L55.5832031,41.2880859 L55.5832031,41.4794922 C55.5832031,42.5641276 55.9341146,43.4448242 56.6359375,44.121582 C57.3377604,44.7983398 58.2560547,45.1367188 59.3908203,45.1367188 Z M60.2521484,40.5839844 L57.9279297,40.5839844 C58.0555339,39.6907552 58.4565755,39.2441406 59.1310547,39.2441406 C59.495638,39.2441406 59.7759115,39.3455404 59.971875,39.5483398 C60.1678385,39.7511393 60.261263,40.0371094 60.2521484,40.40625 L60.2521484,40.40625 L60.2521484,40.5839844 Z" fill="#2F5BEA" transform="translate(40.041699, 41.206055) scale(-1, 1) translate(-40.041699, -41.206055) "></path>
                        </g>
                        <g id="Amazon-Lex" transform="translate(174.248088, 40.500000) rotate(-360.000000) translate(-174.248088, -40.500000) translate(133.748088, 0.000000)" fill-rule="nonzero">
                            <path d="M80.6532223,43.9868745 C79.2729453,65.4229543 60.3130335,81.7104705 38.305074,80.3660602 C16.2971144,79.0216499 -0.424926241,60.5544139 0.955350747,39.1183341 L1.09816289,36.9004223 C2.47843988,15.4643425 21.4383517,-0.823173704 43.4463112,0.521236603 C65.4542708,1.86564691 82.1763115,20.3328829 80.7960345,41.7689627 L80.6532223,43.9868745 Z" id="Path" stroke="#2F5BEA" stroke-width="2" fill="#EDF3F9"></path>
                            <path d="M72.6977164,43.2782293 C71.5934948,60.4270931 56.4255653,73.4571061 38.8191977,72.3815778 C21.2128301,71.3060496 7.83519753,56.5322608 8.93941912,39.3833969 L9.05366884,37.6090675 C10.1578904,20.4602037 25.3258199,7.43019071 42.9321875,8.50571896 C60.5385551,9.58124721 73.9161877,24.355036 72.8119661,41.5038998 L72.6977164,43.2782293 Z" id="Path" fill="#FFFFFF"></path>
                            <path d="M17.1766989,37.6018043 L17.7509177,35.7424293 L21.0390036,35.7424293 L21.6200583,37.6018043 L24.1972067,37.6018043 L20.5194724,27.6486793 L18.263613,27.6486793 L14.6132224,37.6018043 L17.1766989,37.6018043 Z M20.4647849,33.8898902 L18.3251364,33.8898902 L19.3915427,30.4377418 L20.4647849,33.8898902 Z M27.0054099,37.6018043 L27.0054099,32.4543433 C27.2378317,32.0487444 27.5750713,31.8459449 28.0171286,31.8459449 C28.3634828,31.8459449 28.5981833,31.9325334 28.7212302,32.1057105 C28.844277,32.2788876 28.9058005,32.559161 28.9058005,32.9465308 L28.9058005,32.9465308 L28.9058005,37.6018043 L31.2163474,37.6018043 L31.2163474,32.5500464 L31.2095114,32.4543433 C31.4328187,32.0487444 31.7723369,31.8459449 32.2280661,31.8459449 C32.5653057,31.8459449 32.7977276,31.9325334 32.9253317,32.1057105 C33.0529359,32.2788876 33.116738,32.5546037 33.116738,32.9328589 L33.116738,32.9328589 L33.116738,37.6018043 L35.4272849,37.6018043 L35.4272849,32.7893043 C35.3862692,30.9755022 34.6160869,30.0686011 33.116738,30.0686011 C32.1688213,30.0686011 31.4442119,30.4400204 30.9429099,31.1828589 C30.6147849,30.4400204 29.9836,30.0686011 29.0493552,30.0686011 C28.1652406,30.0686011 27.461139,30.4035621 26.9370505,31.0734839 L26.9370505,31.0734839 L26.8618552,30.2053199 L24.7016989,30.2053199 L24.7016989,37.6018043 L27.0054099,37.6018043 Z M39.110488,37.738523 C39.8715557,37.738523 40.4640036,37.4719214 40.8878317,36.9387183 C40.9516338,37.230385 41.0245505,37.4514136 41.1065817,37.6018043 L41.1065817,37.6018043 L43.4102927,37.6018043 L43.4102927,37.4855933 C43.2097718,37.1255673 43.1049541,36.606036 43.0958395,35.9269996 L43.0958395,35.9269996 L43.0958395,32.6525855 C43.0821677,31.8505022 42.8018942,31.2193173 42.2550192,30.7590308 C41.7081442,30.2987444 40.963027,30.0686011 40.0196677,30.0686011 C39.0763083,30.0686011 38.3004294,30.2919084 37.6920309,30.738523 C37.0836325,31.1851376 36.7794333,31.7661923 36.7794333,32.4816871 L36.7794333,32.4816871 L39.0831442,32.4816871 C39.0831442,31.9439267 39.3565817,31.6750464 39.9034567,31.6750464 C40.4913474,31.6750464 40.7852927,32.0145647 40.7852927,32.6936011 L40.7852927,32.6936011 L40.7852927,33.0832496 L40.0743552,33.0832496 C38.9441468,33.0832496 38.0828187,33.2883277 37.4903708,33.6984839 C36.8979229,34.1086402 36.6016989,34.71476 36.6016989,35.5168433 C36.6016989,36.1548642 36.845514,36.6846493 37.3331442,37.1061988 C37.8207744,37.5277483 38.4132224,37.738523 39.110488,37.738523 Z M39.6641989,36.097898 C39.4454489,36.097898 39.2654359,36.0329566 39.1241599,35.9030738 C38.9828838,35.773191 38.9122458,35.6034319 38.9122458,35.3937964 C38.9122458,34.6737444 39.3132875,34.3137183 40.1153708,34.3137183 L40.1153708,34.3137183 L40.7852927,34.3137183 L40.7852927,35.4963355 C40.7032614,35.6512834 40.567682,35.7902808 40.3785544,35.9133277 C40.1894268,36.0363746 39.9513083,36.097898 39.6641989,36.097898 Z M50.6550192,37.6018043 L50.6550192,35.8244605 L47.284902,35.8244605 L50.5798239,31.4494605 L50.5798239,30.2053199 L44.5163474,30.2053199 L44.5163474,31.9826636 L47.6540427,31.9826636 L44.3727927,36.316648 L44.3727927,37.6018043 L50.6550192,37.6018043 Z M55.144863,37.738523 C56.238613,37.738523 57.1056377,37.4001441 57.7459372,36.7233863 C58.3862367,36.0466285 58.7063864,35.1317522 58.7063864,33.9787574 L58.7063864,33.9787574 L58.7063864,33.8967261 C58.7063864,32.7163876 58.387376,31.7832821 57.7493552,31.0974097 C57.1113343,30.4115373 56.238613,30.0686011 55.1311911,30.0686011 C54.4065817,30.0686011 53.7753968,30.223549 53.2376364,30.5334449 C52.699876,30.8433407 52.2874411,31.2865373 52.0003317,31.8630347 C51.7132224,32.4395321 51.5696677,33.0969214 51.5696677,33.8352027 L51.5696677,33.8352027 L51.5765036,34.2248511 C51.6266338,35.3049293 51.9707093,36.1605608 52.6087302,36.7917457 C53.246751,37.4229306 54.0921286,37.738523 55.144863,37.738523 Z M55.144863,35.9611793 C54.7255921,35.9611793 54.4088604,35.801674 54.1946677,35.4826636 C53.980475,35.1636532 53.8733786,34.6623511 53.8733786,33.9787574 L53.8733786,33.9787574 L53.8802145,33.5617652 C53.9440166,32.417885 54.3610088,31.8459449 55.1311911,31.8459449 C55.9788474,31.8459449 56.4026755,32.5090308 56.4026755,33.8352027 L56.4026755,33.8352027 L56.4026755,34.0676246 C56.3844463,35.3299944 55.9651755,35.9611793 55.144863,35.9611793 Z M62.1776755,37.6018043 L62.1776755,32.379148 C62.3964255,32.0236793 62.7313864,31.8459449 63.1825583,31.8459449 C63.5790427,31.8459449 63.8524802,31.9336727 64.0028708,32.1091285 C64.1532614,32.2845842 64.2284567,32.559161 64.2284567,32.9328589 L64.2284567,32.9328589 L64.2284567,37.6018043 L66.5390036,37.6018043 L66.5390036,32.8371558 C66.5253317,31.9120256 66.3282289,31.2193173 65.947695,30.7590308 C65.5671612,30.2987444 64.9918031,30.0686011 64.2216208,30.0686011 C63.3238343,30.0686011 62.6197328,30.4035621 62.1093161,31.0734839 L62.1093161,31.0734839 L62.0341208,30.2053199 L59.8739645,30.2053199 L59.8739645,37.6018043 L62.1776755,37.6018043 Z M36.8245505,53.6018043 L36.8245505,51.7561011 L32.6477927,51.7561011 L32.6477927,43.6486793 L30.2483786,43.6486793 L30.2483786,53.6018043 L36.8245505,53.6018043 Z M41.5058005,53.738523 C42.1119203,53.738523 42.6781638,53.6211727 43.2045309,53.3864722 C43.7308981,53.1517717 44.1376364,52.8361793 44.4247458,52.4396949 L44.4247458,52.4396949 L43.3720114,51.1955543 C42.9618552,51.7059709 42.3921937,51.9611793 41.663027,51.9611793 C41.2209698,51.9611793 40.8609437,51.8426897 40.5829489,51.6057105 C40.3049541,51.3687313 40.1249411,51.042885 40.0429099,50.6281714 L40.0429099,50.6281714 L44.622988,50.6281714 L44.622988,49.7326636 C44.622988,48.5796688 44.3222067,47.6807431 43.7206442,47.0358863 C43.1190817,46.3910295 42.2987692,46.0686011 41.2597067,46.0686011 C40.5214255,46.0686011 39.8834046,46.226967 39.3456442,46.5436988 C38.8078838,46.8604306 38.3988669,47.3081845 38.1185934,47.8869605 C37.83832,48.4657365 37.6981833,49.1333798 37.6981833,49.8898902 L37.6981833,49.8898902 L37.6981833,50.0812964 C37.6981833,51.1659319 38.0490948,52.0466285 38.7509177,52.7233863 C39.4527406,53.4001441 40.3710349,53.738523 41.5058005,53.738523 Z M42.3671286,49.1857886 L40.0429099,49.1857886 C40.170514,48.2925595 40.5715557,47.8459449 41.2460349,47.8459449 C41.6106182,47.8459449 41.8908916,47.9473446 42.0868552,48.1501441 C42.2828187,48.3529436 42.3762432,48.6389136 42.3671286,49.0080543 L42.3671286,49.0080543 L42.3671286,49.1857886 Z M47.5952536,53.6018043 L48.7368552,51.4143043 L49.8989645,53.6018043 L52.3052145,53.6018043 L50.2612692,49.8078589 L52.2095114,46.2053199 L49.8169333,46.2053199 L48.7436911,48.2424293 L47.7046286,46.2053199 L45.2847067,46.2053199 L47.226113,49.8078589 L45.1753317,53.6018043 L47.5952536,53.6018043 Z" id="AmazonLex" fill="#2F5BEA"></path>
                        </g>
                        <g id="Dialogflow" transform="translate(263.846813, 40.000000) rotate(-90.000000) translate(-263.846813, -40.000000) translate(223.846813, 0.000000)" fill-rule="nonzero">
                            <path d="M61.9861535,72.5467714 C44.4852302,85.2693555 20.049041,81.3060388 7.40639734,63.6944557 C-5.23624631,46.0828726 -1.29783249,21.4921714 16.2030908,8.76958725 L18.0138465,7.4532286 C35.5147698,-5.26935553 59.950959,-1.30603879 72.5936027,16.3055443 C85.2362463,33.9171274 81.2978325,58.5078286 63.7969092,71.2304127 L61.9861535,72.5467714 Z" id="Path" stroke="#2F5BEA" stroke-width="2" fill="#EDF3F9"></path>
                            <path d="M57.5889228,66.0374171 C43.5881841,76.2154844 24.0392328,73.044831 13.9251179,58.9555646 C3.81100295,44.8662981 6.96173401,25.1937371 20.9624727,15.0156698 L22.4110772,13.9625829 C36.4118159,3.78451558 55.9607672,6.95516897 66.0748821,21.0444354 C76.188997,35.1337019 73.038266,54.8062629 59.0375273,64.9843302 L57.5889228,66.0374171 Z" id="Path" fill="#FFFFFF"></path>
                            <path d="M14.0292109,44.0618871 C14.7674921,44.0579808 15.4364374,43.881223 16.0360468,43.5316136 C16.6356562,43.1820043 17.1004999,42.6976293 17.430578,42.0784886 C17.7606562,41.459348 17.9256952,40.7591527 17.9256952,39.9779027 L17.9256952,39.9779027 L17.9256952,39.5853246 C17.921789,38.8118871 17.7508905,38.1136449 17.4129999,37.490598 C17.0751093,36.8675511 16.6053827,36.3851293 16.0038202,36.0433324 C15.4022577,35.7015355 14.7245234,35.5306371 13.9706171,35.5306371 L13.9706171,35.5306371 L11.2225702,35.5306371 L11.2225702,44.0618871 L14.0292109,44.0618871 Z M13.9940546,42.4798558 L13.2792109,42.4798558 L13.2792109,37.1185277 L13.9706171,37.1185277 C14.5760859,37.1185277 15.0370234,37.3275121 15.3534296,37.7454808 C15.6698359,38.1634496 15.828039,38.7845433 15.828039,39.6087621 L15.828039,39.6087621 L15.828039,39.9779027 C15.828039,40.8060277 15.6698359,41.4300511 15.3534296,41.849973 C15.0370234,42.2698949 14.5838984,42.4798558 13.9940546,42.4798558 L13.9940546,42.4798558 Z M20.1393671,37.0482152 C20.4635859,37.0482152 20.7272577,36.9583715 20.9303827,36.778684 C21.1335077,36.5989965 21.2350702,36.3685277 21.2350702,36.0872777 C21.2350702,35.8060277 21.1335077,35.575559 20.9303827,35.3958715 C20.7272577,35.216184 20.4635859,35.1263402 20.1393671,35.1263402 C19.8151484,35.1263402 19.5514765,35.216184 19.3483515,35.3958715 C19.1452265,35.575559 19.043664,35.8060277 19.043664,36.0872777 C19.043664,36.3685277 19.1452265,36.5989965 19.3483515,36.778684 C19.5514765,36.9583715 19.8151484,37.0482152 20.1393671,37.0482152 Z M21.1413202,44.0618871 L21.1413202,37.7220433 L19.1608515,37.7220433 L19.1608515,44.0618871 L21.1413202,44.0618871 Z M24.3862421,44.1790746 C25.0385859,44.1790746 25.5463984,43.950559 25.9096796,43.4935277 C25.9643671,43.7435277 26.0268671,43.9329808 26.0971796,44.0618871 L26.0971796,44.0618871 L28.071789,44.0618871 L28.071789,43.9622777 C27.899914,43.653684 27.8100702,43.2083715 27.8022577,42.6263402 L27.8022577,42.6263402 L27.8022577,39.8196996 C27.790539,39.1321996 27.5503046,38.591184 27.0815546,38.1966527 C26.6128046,37.8021215 25.9741327,37.6048558 25.165539,37.6048558 C24.3569452,37.6048558 23.6919062,37.7962621 23.1704218,38.1790746 C22.6489374,38.5618871 22.3881952,39.059934 22.3881952,39.6732152 L22.3881952,39.6732152 L24.3628046,39.6732152 C24.3628046,39.2122777 24.5971796,38.981809 25.0659296,38.981809 C25.5698359,38.981809 25.821789,39.2728246 25.821789,39.8548558 L25.821789,39.8548558 L25.821789,40.1888402 L25.212414,40.1888402 C24.243664,40.1888402 23.5053827,40.3646215 22.9975702,40.716184 C22.4897577,41.0677465 22.2358515,41.5872777 22.2358515,42.2747777 C22.2358515,42.8216527 22.4448359,43.2757543 22.8628046,43.6370824 C23.2807734,43.9984105 23.7885859,44.1790746 24.3862421,44.1790746 Z M24.8608515,42.7728246 C24.6733515,42.7728246 24.5190546,42.7171605 24.3979609,42.6058324 C24.2768671,42.4945043 24.2163202,42.3489965 24.2163202,42.169309 C24.2163202,41.5521215 24.5600702,41.2435277 25.2475702,41.2435277 L25.2475702,41.2435277 L25.821789,41.2435277 L25.821789,42.2571996 C25.7514765,42.3900121 25.6352655,42.5091527 25.4731562,42.6146215 C25.3110468,42.7200902 25.1069452,42.7728246 24.8608515,42.7728246 Z M31.146789,44.0618871 L31.146789,35.0618871 L29.1663202,35.0618871 L29.1663202,44.0618871 L31.146789,44.0618871 Z M35.346789,44.1790746 C36.284289,44.1790746 37.027453,43.8890355 37.5762812,43.3089574 C38.1251093,42.7288793 38.3995234,41.9446996 38.3995234,40.9564183 L38.3995234,40.9564183 L38.3995234,40.8861058 C38.3995234,39.8743871 38.1260859,39.0745824 37.5792109,38.4866918 C37.0323359,37.8988011 36.284289,37.6048558 35.3350702,37.6048558 C34.7139765,37.6048558 34.1729609,37.7376683 33.7120234,38.0032933 C33.2510859,38.2689183 32.8975702,38.6488011 32.6514765,39.1429418 C32.4053827,39.6370824 32.2823359,40.200559 32.2823359,40.8333715 L32.2823359,40.8333715 L32.2881952,41.1673558 C32.331164,42.0931371 32.6260859,42.8265355 33.1729609,43.3675511 C33.7198359,43.9085668 34.4444452,44.1790746 35.346789,44.1790746 Z M35.346789,42.6556371 C34.987414,42.6556371 34.7159296,42.5189183 34.5323359,42.2454808 C34.3487421,41.9720433 34.2569452,41.5423558 34.2569452,40.9564183 L34.2569452,40.9564183 L34.2628046,40.5989965 C34.3174921,39.6185277 34.674914,39.1282933 35.3350702,39.1282933 C36.0616327,39.1282933 36.424914,39.6966527 36.424914,40.8333715 L36.424914,40.8333715 L36.424914,41.0325902 C36.409289,42.1146215 36.049914,42.6556371 35.346789,42.6556371 Z M41.9901484,46.5579808 C42.6385859,46.5579808 43.2088984,46.4476293 43.7010859,46.2269261 C44.1932734,46.006223 44.5692499,45.6898168 44.8290155,45.2777074 C45.0887812,44.865598 45.218664,44.3802465 45.218664,43.8216527 L45.218664,43.8216527 L45.218664,37.7220433 L43.4256952,37.7220433 L43.3553827,38.2728246 C42.984289,37.8275121 42.468664,37.6048558 41.8085077,37.6048558 C41.2850702,37.6048558 40.8260859,37.7386449 40.4315546,38.006223 C40.0370234,38.2738011 39.734289,38.653684 39.5233515,39.1458715 C39.312414,39.638059 39.2069452,40.2044652 39.2069452,40.8450902 L39.2069452,40.8450902 L39.2069452,40.9154027 C39.2069452,41.9075902 39.4452265,42.6995824 39.921789,43.2913793 C40.3983515,43.8831761 41.0233515,44.1790746 41.796789,44.1790746 C42.374914,44.1790746 42.8534296,43.9700902 43.2323359,43.5521215 L43.2323359,43.5521215 L43.2323359,43.7513402 C43.2323359,44.6497777 42.7948359,45.0989965 41.9198359,45.0989965 C41.3182734,45.0989965 40.8338984,44.8821996 40.4667109,44.4486058 L40.4667109,44.4486058 L39.640539,45.6087621 C39.8710077,45.8900121 40.2040155,46.1185277 40.6395624,46.294309 C41.0751093,46.4700902 41.5253046,46.5579808 41.9901484,46.5579808 Z M42.3006952,42.6556371 C41.9491327,42.6556371 41.6756952,42.5042699 41.4803827,42.2015355 C41.2850702,41.8988011 41.187414,41.4876683 41.187414,40.9681371 C41.187414,40.3704808 41.2870234,39.9144261 41.4862421,39.599973 C41.6854609,39.2855199 41.9608515,39.1282933 42.312414,39.1282933 C42.734289,39.1282933 43.0409296,39.2728246 43.2323359,39.5618871 L43.2323359,39.5618871 L43.2323359,42.2279027 C43.0370234,42.513059 42.7264765,42.6556371 42.3006952,42.6556371 Z M48.9264765,44.0618871 L48.9264765,39.0931371 L50.1628046,39.0931371 L50.1628046,37.7220433 L48.9264765,37.7220433 L48.9264765,37.3587621 C48.9264765,36.7611058 49.309289,36.4622777 50.074914,36.4622777 C50.3053827,36.4622777 50.5885859,36.4759496 50.9245234,36.5032933 L50.9245234,36.5032933 L50.9245234,44.0618871 L52.9108515,44.0618871 L52.9108515,35.0618871 C51.4616327,34.9798558 50.4147577,34.9388402 49.7702265,34.9388402 C48.8639765,34.9388402 48.1676874,35.1448949 47.6813593,35.5570043 C47.1950312,35.9691136 46.949914,36.5540746 46.9460077,37.3118871 L46.9460077,37.3118871 L46.9460077,37.7220433 L46.0260859,37.7220433 L46.0260859,39.0931371 L46.9460077,39.0931371 L46.9460077,44.0618871 L48.9264765,44.0618871 Z M57.0991327,44.1790746 C58.0366327,44.1790746 58.7797968,43.8890355 59.3286249,43.3089574 C59.877453,42.7288793 60.1518671,41.9446996 60.1518671,40.9564183 L60.1518671,40.9564183 L60.1518671,40.8861058 C60.1518671,39.8743871 59.8784296,39.0745824 59.3315546,38.4866918 C58.7846796,37.8988011 58.0366327,37.6048558 57.087414,37.6048558 C56.4663202,37.6048558 55.9253046,37.7376683 55.4643671,38.0032933 C55.0034296,38.2689183 54.649914,38.6488011 54.4038202,39.1429418 C54.1577265,39.6370824 54.0346796,40.200559 54.0346796,40.8333715 L54.0346796,40.8333715 L54.040539,41.1673558 C54.0835077,42.0931371 54.3784296,42.8265355 54.9253046,43.3675511 C55.4721796,43.9085668 56.196789,44.1790746 57.0991327,44.1790746 Z M57.0991327,42.6556371 C56.7397577,42.6556371 56.4682734,42.5189183 56.2846796,42.2454808 C56.1010859,41.9720433 56.009289,41.5423558 56.009289,40.9564183 L56.009289,40.9564183 L56.0151484,40.5989965 C56.0698359,39.6185277 56.4272577,39.1282933 57.087414,39.1282933 C57.8139765,39.1282933 58.1772577,39.6966527 58.1772577,40.8333715 L58.1772577,40.8333715 L58.1772577,41.0325902 C58.1616327,42.1146215 57.8022577,42.6556371 57.0991327,42.6556371 Z M63.9299921,44.0618871 L64.9846796,40.3001683 L66.0335077,44.0618871 L67.7034296,44.0618871 L69.1975702,37.7220433 L67.3049921,37.7220433 L66.6663202,41.4603246 L65.6702265,37.7220433 L64.2932734,37.7220433 L63.2854609,41.5482152 L62.6585077,37.7220433 L60.7659296,37.7220433 L62.2600702,44.0618871 L63.9299921,44.0618871 Z" id="Dialogfow" fill="#2F5BEA" transform="translate(40.210070, 40.748411) rotate(-270.000000) translate(-40.210070, -40.748411) "></path>
                        </g>
                        <g id="Google-Cloud" transform="translate(353.595538, 76.098952) rotate(-90.000000) translate(-353.595538, -76.098952) translate(313.095538, 35.598952)" fill-rule="nonzero">
                            <path d="M67.3735859,11.6674994 C83.4492217,26.1721016 84.747144,50.9893238 70.2725765,67.0983166 C55.7980091,83.2073094 31.0321761,84.5079249 14.9565403,70.0033226 L13.2932538,68.5025852 C-2.78238197,53.9979829 -4.08030428,29.1807607 10.3942632,13.0717679 C24.8688306,-3.03722485 49.6346636,-4.33784035 65.7102994,10.1667619 L67.3735859,11.6674994 Z" id="Path" stroke="#2F5BEA" stroke-width="2" fill="#EDF3F9"></path>
                            <path d="M61.9655527,17.3510079 C74.8260613,28.9546897 75.8643992,48.8084675 64.2847452,61.6956617 C52.7050912,74.582856 32.8924248,75.6233484 20.0319162,64.0196666 L18.701287,62.8190766 C5.8407784,51.2153948 4.80244055,31.361617 16.3820945,18.4744228 C27.9617485,5.58722857 47.7744149,4.54673617 60.6349235,16.150418 L61.9655527,17.3510079 Z" id="Path" fill="#FFFFFF"></path>
                            <path d="M22.2906464,37.221761 C23.1383027,37.221761 23.9175995,37.0964355 24.628537,36.8457845 C25.3394745,36.5951334 25.8795136,36.2647298 26.2486542,35.8545735 L26.2486542,35.8545735 L26.2486542,31.7666829 L22.1812714,31.7666829 L22.1812714,33.4141438 L23.8492402,33.4141438 L23.8492402,34.9590657 C23.5439016,35.2370605 23.0790579,35.3760579 22.4547089,35.3760579 C21.7255422,35.3760579 21.1911998,35.1265462 20.8516816,34.6275227 C20.5121633,34.1284993 20.3424042,33.3822428 20.3424042,32.3887532 L20.3424042,32.3887532 L20.3424042,31.7871907 C20.3469615,30.839274 20.5133027,30.1101074 20.8414277,29.5996907 C21.1695527,29.089274 21.6343964,28.8340657 22.2359589,28.8340657 C22.737261,28.8340657 23.1246308,28.9525553 23.3980683,29.1895345 C23.6715058,29.4265136 23.8492402,29.822998 23.9312714,30.3789876 L23.9312714,30.3789876 L26.2418183,30.3789876 C26.127886,29.2533365 25.7279837,28.4068196 25.0421113,27.8394368 C24.3562389,27.272054 23.393511,26.9883626 22.1539277,26.9883626 C21.3062714,26.9883626 20.5600149,27.1854654 19.9151581,27.5796712 C19.2703014,27.9738769 18.7746959,28.5367024 18.4283417,29.2681477 C18.0819876,29.9995931 17.9088105,30.8552246 17.9088105,31.8350423 L17.9088105,31.8350423 L17.9156464,32.6963704 C17.9703339,34.1182454 18.3873261,35.2279459 19.166623,36.025472 C19.9459199,36.822998 20.987261,37.221761 22.2906464,37.221761 Z M31.0187714,37.221761 C32.1125214,37.221761 32.9795462,36.8833821 33.6198456,36.2066243 C34.2601451,35.5298665 34.5802949,34.6149902 34.5802949,33.4619954 L34.5802949,33.4619954 L34.5802949,33.3799641 C34.5802949,32.1996256 34.2612844,31.2665201 33.6232636,30.5806477 C32.9852428,29.8947753 32.1125214,29.5518391 31.0050995,29.5518391 C30.2804902,29.5518391 29.6493053,29.7067871 29.1115449,30.0166829 C28.5737844,30.3265787 28.1613495,30.7697753 27.8742402,31.3462727 C27.5871308,31.9227701 27.4435761,32.5801595 27.4435761,33.3184407 L27.4435761,33.3184407 L27.450412,33.7080891 C27.5005422,34.7881673 27.8446178,35.6437988 28.4826386,36.2749837 C29.1206594,36.9061686 29.966037,37.221761 31.0187714,37.221761 Z M31.0187714,35.4444173 C30.5995006,35.4444173 30.2827688,35.2849121 30.0685761,34.9659016 C29.8543834,34.6468912 29.747287,34.1455891 29.747287,33.4619954 L29.747287,33.4619954 L29.754123,33.0450032 C29.8179251,31.901123 30.2349172,31.3291829 31.0050995,31.3291829 C31.8527558,31.3291829 32.2765839,31.9922688 32.2765839,33.3184407 L32.2765839,33.3184407 L32.2765839,33.5508626 C32.2583547,34.8132324 31.8390839,35.4444173 31.0187714,35.4444173 Z M39.0769745,37.221761 C40.1707245,37.221761 41.0377493,36.8833821 41.6780488,36.2066243 C42.3183482,35.5298665 42.638498,34.6149902 42.638498,33.4619954 L42.638498,33.4619954 L42.638498,33.3799641 C42.638498,32.1996256 42.3194876,31.2665201 41.6814667,30.5806477 C41.0434459,29.8947753 40.1707245,29.5518391 39.0633027,29.5518391 C38.3386933,29.5518391 37.7075084,29.7067871 37.169748,30.0166829 C36.6319876,30.3265787 36.2195527,30.7697753 35.9324433,31.3462727 C35.6453339,31.9227701 35.5017792,32.5801595 35.5017792,33.3184407 L35.5017792,33.3184407 L35.5086152,33.7080891 C35.5587454,34.7881673 35.9028209,35.6437988 36.5408417,36.2749837 C37.1788626,36.9061686 38.0242402,37.221761 39.0769745,37.221761 Z M39.0769745,35.4444173 C38.6577037,35.4444173 38.3409719,35.2849121 38.1267792,34.9659016 C37.9125865,34.6468912 37.8054902,34.1455891 37.8054902,33.4619954 L37.8054902,33.4619954 L37.8123261,33.0450032 C37.8761282,31.901123 38.2931204,31.3291829 39.0633027,31.3291829 C39.9109589,31.3291829 40.334787,31.9922688 40.334787,33.3184407 L40.334787,33.3184407 L40.334787,33.5508626 C40.3165579,34.8132324 39.897287,35.4444173 39.0769745,35.4444173 Z M46.8275605,39.9971516 C47.5840709,39.9971516 48.2494355,39.8684082 48.8236542,39.6109212 C49.397873,39.3534342 49.8365123,38.9842936 50.1395722,38.5034993 C50.4426321,38.022705 50.594162,37.4564615 50.594162,36.8047688 L50.594162,36.8047688 L50.594162,29.6885579 L48.5023652,29.6885579 L48.4203339,30.331136 C47.9873912,29.8116048 47.3858287,29.5518391 46.6156464,29.5518391 C46.0049693,29.5518391 45.4694876,29.7079264 45.0092011,30.0201009 C44.5489146,30.3322753 44.1957245,30.775472 43.9496308,31.3496907 C43.703537,31.9239095 43.5804902,32.5847168 43.5804902,33.3321126 L43.5804902,33.3321126 L43.5804902,33.4141438 C43.5804902,34.5716959 43.858485,35.4956868 44.4144745,36.1861165 C44.9704641,36.8765462 45.6996308,37.221761 46.6019745,37.221761 C47.2764537,37.221761 47.8347219,36.9779459 48.2767792,36.4903157 L48.2767792,36.4903157 L48.2767792,36.7227376 C48.2767792,37.7709147 47.7663626,38.2950032 46.7455292,38.2950032 C46.0437063,38.2950032 45.4786021,38.0420735 45.0502167,37.5362141 L45.0502167,37.5362141 L44.0863495,38.8897298 C44.3552297,39.2178548 44.7437389,39.4844563 45.2518769,39.6895345 C45.7600149,39.8946126 46.2852428,39.9971516 46.8275605,39.9971516 Z M47.1898652,35.4444173 C46.7797089,35.4444173 46.4606985,35.2678222 46.2328339,34.9146321 C46.0049693,34.561442 45.891037,34.0817871 45.891037,33.4756673 C45.891037,32.7784016 46.007248,32.2463378 46.2396699,31.8794759 C46.4720917,31.5126139 46.7933808,31.3291829 47.203537,31.3291829 C47.6957245,31.3291829 48.0534719,31.4978027 48.2767792,31.8350423 L48.2767792,31.8350423 L48.2767792,34.9453938 C48.0489146,35.2780761 47.68661,35.4444173 47.1898652,35.4444173 Z M54.5302949,37.0850423 L54.5302949,26.5850423 L52.219748,26.5850423 L52.219748,37.0850423 L54.5302949,37.0850423 Z M59.7242402,37.221761 C60.33036,37.221761 60.8966034,37.1044108 61.4229706,36.8697102 C61.9493378,36.6350097 62.3560761,36.3194173 62.6431855,35.9229329 L62.6431855,35.9229329 L61.5904511,34.6787923 C61.1802949,35.1892089 60.6106334,35.4444173 59.8814667,35.4444173 C59.4394094,35.4444173 59.0793834,35.3259277 58.8013886,35.0889485 C58.5233938,34.8519694 58.3433808,34.526123 58.2613495,34.1114095 L58.2613495,34.1114095 L62.8414277,34.1114095 L62.8414277,33.2159016 C62.8414277,32.0629069 62.5406464,31.1639811 61.9390839,30.5191243 C61.3375214,29.8742675 60.5172089,29.5518391 59.4781464,29.5518391 C58.7398652,29.5518391 58.1018443,29.710205 57.5640839,30.0269368 C57.0263235,30.3436686 56.6173066,30.7914225 56.3370331,31.3701985 C56.0567597,31.9489746 55.916623,32.6166178 55.916623,33.3731282 L55.916623,33.3731282 L55.916623,33.5645345 C55.916623,34.6491699 56.2675344,35.5298665 56.9693574,36.2066243 C57.6711803,36.8833821 58.5894745,37.221761 59.7242402,37.221761 Z M60.5855683,32.6690266 L58.2613495,32.6690266 C58.3889537,31.7757975 58.7899954,31.3291829 59.4644745,31.3291829 C59.8290579,31.3291829 60.1093313,31.4305826 60.3052949,31.6333821 C60.5012584,31.8361816 60.5946829,32.1221516 60.5855683,32.4912923 L60.5855683,32.4912923 L60.5855683,32.6690266 Z M26.1967011,53.221761 C26.9896699,53.221761 27.6949107,53.0759277 28.3124238,52.784261 C28.9299368,52.4925944 29.4095917,52.0812988 29.7513886,51.5503743 C30.0931855,51.0194498 30.2800344,50.4076334 30.3119355,49.7149251 L30.3119355,49.7149251 L27.9261933,49.7149251 C27.9079641,50.2800293 27.7530162,50.6924641 27.4613495,50.9522298 C27.1696829,51.2119954 26.7481334,51.3418782 26.1967011,51.3418782 C25.5450084,51.3418782 25.0858613,51.1140136 24.8192597,50.6582845 C24.5526581,50.2025553 24.4193574,49.4437662 24.4193574,48.3819173 L24.4193574,48.3819173 L24.4193574,47.6778157 C24.4330292,46.697998 24.5788626,45.9847819 24.8568574,45.5381673 C25.1348521,45.0915527 25.5723521,44.8682454 26.1693574,44.8682454 C26.757248,44.8682454 27.194748,45.0004069 27.4818574,45.2647298 C27.7689667,45.5290527 27.921636,45.964274 27.9398652,46.5703938 L27.9398652,46.5703938 L30.3324433,46.5703938 C30.2321829,45.4538574 29.8151907,44.5777181 29.0814667,43.9419759 C28.3477428,43.3062337 27.3770396,42.9883626 26.1693574,42.9883626 C25.3308157,42.9883626 24.5925344,43.1877441 23.9545136,43.5865071 C23.3164928,43.9852701 22.8277232,44.5503743 22.488205,45.2818196 C22.1486868,46.0132649 21.9789277,46.8666178 21.9789277,47.8418782 L21.9789277,47.8418782 L21.9789277,48.3340657 C21.9789277,49.8881022 22.3549042,51.0912272 23.1068574,51.9434407 C23.8588105,52.7956543 24.8887584,53.221761 26.1967011,53.221761 Z M33.9677949,53.0850423 L33.9677949,42.5850423 L31.657248,42.5850423 L31.657248,53.0850423 L33.9677949,53.0850423 Z M38.8677949,53.221761 C39.9615449,53.221761 40.8285696,52.8833821 41.4688691,52.2066243 C42.1091685,51.5298665 42.4293183,50.6149902 42.4293183,49.4619954 L42.4293183,49.4619954 L42.4293183,49.3799641 C42.4293183,48.1996256 42.1103079,47.2665201 41.472287,46.5806477 C40.8342662,45.8947753 39.9615449,45.5518391 38.854123,45.5518391 C38.1295136,45.5518391 37.4983287,45.7067871 36.9605683,46.0166829 C36.4228079,46.3265787 36.010373,46.7697753 35.7232636,47.3462727 C35.4361542,47.9227701 35.2925995,48.5801595 35.2925995,49.3184407 L35.2925995,49.3184407 L35.2994355,49.7080891 C35.3495657,50.7881673 35.6936412,51.6437988 36.331662,52.2749837 C36.9696829,52.9061686 37.8150605,53.221761 38.8677949,53.221761 Z M38.8677949,51.4444173 C38.448524,51.4444173 38.1317922,51.2849121 37.9175995,50.9659016 C37.7034068,50.6468912 37.5963105,50.1455891 37.5963105,49.4619954 L37.5963105,49.4619954 L37.6031464,49.0450032 C37.6669485,47.901123 38.0839407,47.3291829 38.854123,47.3291829 C39.7017792,47.3291829 40.1256074,47.9922688 40.1256074,49.3184407 L40.1256074,49.3184407 L40.1256074,49.5508626 C40.1073782,50.8132324 39.6881074,51.4444173 38.8677949,51.4444173 Z M46.0715058,53.221761 C46.9009329,53.221761 47.5594615,52.9095865 48.0470917,52.2852376 L48.0470917,52.2852376 L48.1154511,53.0850423 L50.2756074,53.0850423 L50.2756074,45.6885579 L47.9582245,45.6885579 L47.9582245,50.8770345 C47.7349172,51.2552897 47.3589407,51.4444173 46.8302949,51.4444173 C46.2150605,51.4444173 45.9074433,51.1276855 45.9074433,50.494222 L45.9074433,50.494222 L45.9074433,45.6885579 L43.6037324,45.6885579 L43.6037324,50.4805501 C43.6037324,51.3646647 43.8122284,52.0425618 44.2292206,52.5142415 C44.6462128,52.9859212 45.2603079,53.221761 46.0715058,53.221761 Z M54.3074433,53.221761 C55.03661,53.221761 55.6381725,52.9118652 56.1121308,52.2920735 L56.1121308,52.2920735 L56.2283417,53.0850423 L58.2996308,53.0850423 L58.2996308,42.5850423 L55.9890839,42.5850423 L55.9890839,46.331136 C55.537912,45.8116048 54.9819225,45.5518391 54.3211152,45.5518391 C53.4142141,45.5518391 52.7078339,45.8890787 52.2019745,46.5635579 C51.6961152,47.2380371 51.4431855,48.1608886 51.4431855,49.3321126 C51.4431855,50.5762532 51.7006725,51.5355631 52.2156464,52.2100423 C52.7306204,52.8845214 53.427886,53.221761 54.3074433,53.221761 Z M54.8953339,51.4444173 C54.1297089,51.4444173 53.7468964,50.7881673 53.7468964,49.4756673 L53.7468964,49.4756673 L53.7537324,49.0518391 C53.8129771,47.9034016 54.1980683,47.3291829 54.9090058,47.3291829 C55.4194225,47.3291829 55.7794485,47.5479329 55.9890839,47.9854329 L55.9890839,47.9854329 L55.9890839,50.8018391 C55.7703339,51.2302246 55.4057506,51.4444173 54.8953339,51.4444173 Z" id="GoogleCloud" fill="#2F5BEA" transform="translate(40.375119, 39.903402) rotate(-270.000000) translate(-40.375119, -39.903402) "></path>
                        </g>
                        <g id="Amazon-Polly" transform="translate(397.894901, 156.598952) scale(-1, 1) translate(-397.894901, -156.598952) translate(357.894901, 116.598952)" fill-rule="nonzero">
                            <path d="M67.040166,11.5824571 C83.1158018,26.0870593 84.4137241,50.9042816 69.9391567,67.0132743 C55.4645892,83.1222671 30.6987562,84.4228826 14.6231204,69.9182804 L12.959834,68.4175429 C-3.11580182,53.9129407 -4.41372413,29.0957184 10.0608433,12.9867257 C24.5354108,-3.12226712 49.3012438,-4.42288262 65.3768796,10.0817196 L67.040166,11.5824571 Z" id="Path" stroke="#2F5BEA" stroke-width="2" fill="#EDF3F9"></path>
                            <path d="M61.6321328,17.2659657 C74.4926415,28.8696475 75.5309793,48.7234252 63.9513253,61.6106195 C52.3716714,74.4978137 32.559005,75.5383061 19.6984963,63.9346243 L18.3678672,62.7340343 C5.50735855,51.1303525 4.4690207,31.2765748 16.0486747,18.3893805 C27.6283286,5.5021863 47.440995,4.4616939 60.3015037,16.0653757 L61.6321328,17.2659657 Z" id="Path" fill="#FFFFFF"></path>
                            <path d="M16.1774414,37 L16.7516602,35.140625 L20.0397461,35.140625 L20.6208008,37 L23.1979492,37 L19.5202148,27.046875 L17.2643555,27.046875 L13.6139648,37 L16.1774414,37 Z M19.4655273,33.2880859 L17.3258789,33.2880859 L18.3922852,29.8359375 L19.4655273,33.2880859 Z M26.0061523,37 L26.0061523,31.8525391 C26.2385742,31.4469401 26.5758138,31.2441406 27.0178711,31.2441406 C27.3642253,31.2441406 27.5989258,31.3307292 27.7219727,31.5039062 C27.8450195,31.6770833 27.906543,31.9573568 27.906543,32.3447266 L27.906543,32.3447266 L27.906543,37 L30.2170898,37 L30.2170898,31.9482422 L30.2102539,31.8525391 C30.4335612,31.4469401 30.7730794,31.2441406 31.2288086,31.2441406 C31.5660482,31.2441406 31.7984701,31.3307292 31.9260742,31.5039062 C32.0536784,31.6770833 32.1174805,31.9527995 32.1174805,32.3310547 L32.1174805,32.3310547 L32.1174805,37 L34.4280273,37 L34.4280273,32.1875 C34.3870117,30.3736979 33.6168294,29.4667969 32.1174805,29.4667969 C31.1695638,29.4667969 30.4449544,29.8382161 29.9436523,30.5810547 C29.6155273,29.8382161 28.9843424,29.4667969 28.0500977,29.4667969 C27.1659831,29.4667969 26.4618815,29.8017578 25.937793,30.4716797 L25.937793,30.4716797 L25.8625977,29.6035156 L23.7024414,29.6035156 L23.7024414,37 L26.0061523,37 Z M38.1112305,37.1367187 C38.8722982,37.1367187 39.4647461,36.8701172 39.8885742,36.3369141 C39.9523763,36.6285807 40.025293,36.8496094 40.1073242,37 L40.1073242,37 L42.4110352,37 L42.4110352,36.8837891 C42.2105143,36.523763 42.1056966,36.0042318 42.096582,35.3251953 L42.096582,35.3251953 L42.096582,32.0507812 C42.0829102,31.2486979 41.8026367,30.617513 41.2557617,30.1572266 C40.7088867,29.6969401 39.9637695,29.4667969 39.0204102,29.4667969 C38.0770508,29.4667969 37.3011719,29.6901042 36.6927734,30.1367187 C36.084375,30.5833333 35.7801758,31.164388 35.7801758,31.8798828 L35.7801758,31.8798828 L38.0838867,31.8798828 C38.0838867,31.3421224 38.3573242,31.0732422 38.9041992,31.0732422 C39.4920898,31.0732422 39.7860352,31.4127604 39.7860352,32.0917969 L39.7860352,32.0917969 L39.7860352,32.4814453 L39.0750977,32.4814453 C37.9448893,32.4814453 37.0835612,32.6865234 36.4911133,33.0966797 C35.8986654,33.5068359 35.6024414,34.1129557 35.6024414,34.9150391 C35.6024414,35.5530599 35.8462565,36.0828451 36.3338867,36.5043945 C36.8215169,36.925944 37.4139648,37.1367187 38.1112305,37.1367187 Z M38.6649414,35.4960937 C38.4461914,35.4960937 38.2661784,35.4311523 38.1249023,35.3012695 C37.9836263,35.1713867 37.9129883,35.0016276 37.9129883,34.7919922 C37.9129883,34.0719401 38.3140299,33.7119141 39.1161133,33.7119141 L39.1161133,33.7119141 L39.7860352,33.7119141 L39.7860352,34.8945312 C39.7040039,35.0494792 39.5684245,35.1884766 39.3792969,35.3115234 C39.1901693,35.4345703 38.9520508,35.4960937 38.6649414,35.4960937 Z M49.6557617,37 L49.6557617,35.2226562 L46.2856445,35.2226562 L49.5805664,30.8476562 L49.5805664,29.6035156 L43.5170898,29.6035156 L43.5170898,31.3808594 L46.6547852,31.3808594 L43.3735352,35.7148437 L43.3735352,37 L49.6557617,37 Z M54.1456055,37.1367187 C55.2393555,37.1367187 56.1063802,36.7983398 56.7466797,36.121582 C57.3869792,35.4448242 57.7071289,34.5299479 57.7071289,33.3769531 L57.7071289,33.3769531 L57.7071289,33.2949219 C57.7071289,32.1145833 57.3881185,31.1814779 56.7500977,30.4956055 C56.1120768,29.8097331 55.2393555,29.4667969 54.1319336,29.4667969 C53.4073242,29.4667969 52.7761393,29.6217448 52.2383789,29.9316406 C51.7006185,30.2415365 51.2881836,30.6847331 51.0010742,31.2612305 C50.7139648,31.8377279 50.5704102,32.4951172 50.5704102,33.2333984 L50.5704102,33.2333984 L50.5772461,33.6230469 C50.6273763,34.703125 50.9714518,35.5587565 51.6094727,36.1899414 C52.2474935,36.8211263 53.0928711,37.1367187 54.1456055,37.1367187 Z M54.1456055,35.359375 C53.7263346,35.359375 53.4096029,35.1998698 53.1954102,34.8808594 C52.9812174,34.561849 52.8741211,34.0605469 52.8741211,33.3769531 L52.8741211,33.3769531 L52.880957,32.9599609 C52.9447591,31.8160807 53.3617513,31.2441406 54.1319336,31.2441406 C54.9795898,31.2441406 55.403418,31.9072266 55.403418,33.2333984 L55.403418,33.2333984 L55.403418,33.4658203 C55.3851888,34.7281901 54.965918,35.359375 54.1456055,35.359375 Z M61.178418,37 L61.178418,31.7773437 C61.397168,31.421875 61.7321289,31.2441406 62.1833008,31.2441406 C62.5797852,31.2441406 62.8532227,31.3318685 63.0036133,31.5073242 C63.1540039,31.6827799 63.2291992,31.9573568 63.2291992,32.3310547 L63.2291992,32.3310547 L63.2291992,37 L65.5397461,37 L65.5397461,32.2353516 C65.5260742,31.3102214 65.3289714,30.617513 64.9484375,30.1572266 C64.5679036,29.6969401 63.9925456,29.4667969 63.2223633,29.4667969 C62.3245768,29.4667969 61.6204753,29.8017578 61.1100586,30.4716797 L61.1100586,30.4716797 L61.0348633,29.6035156 L58.874707,29.6035156 L58.874707,37 L61.178418,37 Z M26.7416992,53 L26.7416992,49.6230469 L28.2729492,49.6230469 C29.4851888,49.6230469 30.4388021,49.3325195 31.1337891,48.7514648 C31.828776,48.1704102 32.1762695,47.3945312 32.1762695,46.4238281 C32.1762695,45.7675781 32.015625,45.1808268 31.6943359,44.6635742 C31.3730469,44.1463216 30.9195964,43.7475586 30.3339844,43.4672852 C29.7483724,43.1870117 29.0750326,43.046875 28.3139648,43.046875 L28.3139648,43.046875 L24.3422852,43.046875 L24.3422852,53 L26.7416992,53 Z M28.3139648,47.7705078 L26.7416992,47.7705078 L26.7416992,44.8994141 L28.3413086,44.8994141 C28.7742513,44.9039714 29.1160482,45.0452474 29.3666992,45.3232422 C29.6173503,45.601237 29.7426758,45.9726562 29.7426758,46.4375 C29.7426758,46.8613281 29.6207682,47.1894531 29.3769531,47.421875 C29.133138,47.6542969 28.7788086,47.7705078 28.3139648,47.7705078 L28.3139648,47.7705078 Z M36.7413086,53.1367187 C37.8350586,53.1367187 38.7020833,52.7983398 39.3423828,52.121582 C39.9826823,51.4448242 40.302832,50.5299479 40.302832,49.3769531 L40.302832,49.3769531 L40.302832,49.2949219 C40.302832,48.1145833 39.9838216,47.1814779 39.3458008,46.4956055 C38.7077799,45.8097331 37.8350586,45.4667969 36.7276367,45.4667969 C36.0030273,45.4667969 35.3718424,45.6217448 34.834082,45.9316406 C34.2963216,46.2415365 33.8838867,46.6847331 33.5967773,47.2612305 C33.309668,47.8377279 33.1661133,48.4951172 33.1661133,49.2333984 L33.1661133,49.2333984 L33.1729492,49.6230469 C33.2230794,50.703125 33.5671549,51.5587565 34.2051758,52.1899414 C34.8431966,52.8211263 35.6885742,53.1367187 36.7413086,53.1367187 Z M36.7413086,51.359375 C36.3220378,51.359375 36.005306,51.1998698 35.7911133,50.8808594 C35.5769206,50.561849 35.4698242,50.0605469 35.4698242,49.3769531 L35.4698242,49.3769531 L35.4766602,48.9599609 C35.5404622,47.8160807 35.9574544,47.2441406 36.7276367,47.2441406 C37.575293,47.2441406 37.9991211,47.9072266 37.9991211,49.2333984 L37.9991211,49.2333984 L37.9991211,49.4658203 C37.9808919,50.7281901 37.5616211,51.359375 36.7413086,51.359375 Z M43.9450195,53 L43.9450195,42.5 L41.6344727,42.5 L41.6344727,53 L43.9450195,53 Z M47.9905273,53 L47.9905273,42.5 L45.6799805,42.5 L45.6799805,53 L47.9905273,53 Z M50.846582,55.9873047 C51.9312174,55.9873047 52.6877279,55.5087891 53.1161133,54.5517578 L53.1161133,54.5517578 L53.2459961,54.2373047 L56.2606445,45.6035156 L53.7928711,45.6035156 L52.5624023,49.7734375 L51.393457,45.6035156 L48.9325195,45.6035156 L51.502832,53.0683594 L51.3182617,53.5605469 C51.2362305,53.8020833 51.1097656,53.9695638 50.9388672,54.0629883 C50.7679687,54.1564128 50.5207357,54.203125 50.197168,54.203125 L50.197168,54.203125 L49.8963867,54.203125 L49.8963867,55.8505859 C50.229069,55.9417318 50.5458008,55.9873047 50.846582,55.9873047 Z" id="AmazonPolly" fill="#2F5BEA" transform="translate(39.576855, 41.517090) scale(-1, 1) translate(-39.576855, -41.517090) "></path>
                        </g>
                    </g>
                </g>
            </g>
        </g>
    </g>
</svg>