<?xml version="1.0" encoding="UTF-8"?>
<svg width="501px" height="460px" viewBox="0 0 501 460" version="1.1" xmlns="http://www.w3.org/2000/svg" xmlns:xlink="http://www.w3.org/1999/xlink">
    <title>Illustration</title>
    <g id="Homepage" stroke="none" stroke-width="1" fill="none" fill-rule="evenodd">
        <g id="DSK-Home" transform="translate(-100.000000, -2186.000000)">
            <g id="Solution-Point-#-1" transform="translate(-2.000000, 2098.000000)">
                <g id="Illustration/API" transform="translate(102.000000, 68.500000)">
                    <g id="Illustration" transform="translate(-1.000000, 20.500000)">
                        <g id="Image" transform="translate(0.804419, 0.000000)">
                            <path d="M250.695581,429.179039 C389.042912,429.179039 501.195581,347.390848 501.195581,246.5 C501.195581,207.696861 467.296959,194.528005 439.007718,164.942495 C393.742976,117.603631 335.833815,63.8209609 250.695581,63.8209609 C169.295737,63.8209609 114.816789,112.487449 69.0615607,156.346708 C37.0511156,187.030729 0.195581343,204.970611 0.195581343,246.5 C0.195581343,298.149389 63.1287395,324.778909 110.381148,358.005389 C155.430614,389.682822 183.172865,429.179039 250.695581,429.179039 Z" id="Shape" fill-opacity="0.5" fill="#CCE4FF" fill-rule="nonzero"></path>
                            <g id="Vector" transform="translate(29.695581, 0.500000)">
                                <line x1="221" y1="129.5" x2="221" y2="363.5" id="Path-3" stroke="#2F5BEA" stroke-width="2"></line>
                                <line x1="221" y1="129.5" x2="174.5" y2="40.5" id="Path-3" stroke="#2F5BEA" stroke-width="2"></line>
                                <line x1="221" y1="129.5" x2="263.5" y2="39.5" id="Path-3" stroke="#2F5BEA" stroke-width="2"></line>
                                <line x1="86.5" y1="247.5" x2="221" y2="363.5" id="Path-3" stroke="#2F5BEA" stroke-width="2"></line>
                                <line x1="131.5" y1="160.5" x2="221" y2="363.5" id="Path-3" stroke="#2F5BEA" stroke-width="2"></line>
                                <line x1="131.5" y1="160.5" x2="40.5" y2="156.5" id="Path-3" stroke="#2F5BEA" stroke-width="2"></line>
                                <line x1="131.5" y1="160.5" x2="84.5" y2="75.5" id="Path-3" stroke="#2F5BEA" stroke-width="2"></line>
                                <line x1="221" y1="160.5" x2="310.5" y2="363.5" id="Path-3" stroke="#2F5BEA" stroke-width="2" transform="translate(265.750000, 262.000000) scale(-1, 1) translate(-265.750000, -262.000000) "></line>
                                <line x1="354.5" y1="160.5" x2="311.404462" y2="76.0989522" id="Path-3" stroke="#2F5BEA" stroke-width="2" transform="translate(332.500000, 118.000000) scale(-1, 1) translate(-332.500000, -118.000000) "></line>
                                <line x1="398.5" y1="160.5" x2="311.105099" y2="156.598952" id="Path-3" stroke="#2F5BEA" stroke-width="2" transform="translate(354.500000, 158.500000) scale(-1, 1) translate(-354.500000, -158.500000) "></line>
                                <line x1="221" y1="247.5" x2="355.5" y2="363.5" id="Path-3" stroke="#2F5BEA" stroke-width="2" transform="translate(288.250000, 305.500000) scale(-1, 1) translate(-288.250000, -305.500000) "></line>
                                <line x1="310.5" y1="247.5" x2="350.5" y2="160.5" id="Path-3" stroke="#2F5BEA" stroke-width="2" transform="translate(330.500000, 204.000000) scale(-1, 1) translate(-330.500000, -204.000000) "></line>
                                <line x1="90.9012747" y1="247.5" x2="130.901275" y2="160.5" id="Path-3" stroke="#2F5BEA" stroke-width="2"></line>
                                <path d="M221,247.5 C221,247.5 243.666667,239.5 289,223.5 L350.5,129.654759" id="Path-3" stroke="#2F5BEA" stroke-width="2" transform="translate(285.750000, 188.577379) scale(-1, 1) translate(-285.750000, -188.577379) "></path>
                                <path d="M90.9012747,247.5 C90.9012747,247.5 113.567941,239.5 158.901275,223.5 L220.401275,129.654759" id="Path-3" stroke="#2F5BEA" stroke-width="2"></path>
                                <polyline id="Path-4" stroke="#2F5BEA" stroke-width="2" points="90.5 247.5 221.5 218.5 310.5 161.5"></polyline>
                                <polyline id="Path-4" stroke="#2F5BEA" stroke-width="2" transform="translate(242.000000, 204.500000) scale(-1, 1) translate(-242.000000, -204.500000) " points="132.5 247.5 262.5 218.5 351.5 161.5"></polyline>
                                <g id="Spokestack" transform="translate(126.000000, 268.805801)">
                                    <path d="M51.7272756,179.098494 C98.3281338,202.842817 155.354171,184.313934 179.098494,137.713076 C202.842817,91.1122181 184.313934,34.0861813 137.713076,10.3418581 C91.1122181,-13.4024651 34.0861813,5.12641745 10.3418581,51.7272756 C-13.4024651,98.3281338 5.12641745,155.354171 51.7272756,179.098494 Z" id="Oval" fill="#2F5BEA"></path>
                                    <g id="Logo/Mark/Cyan" transform="translate(47.720176, 47.720176)" fill="#61FAE9">
                                        <path d="M73.3127413,60.1563707 C76.2191665,60.1563707 78.5752896,57.8002475 78.5752896,54.8938224 L78.5752896,28.5810811 C78.5752896,22.7682308 73.8630434,18.0559846 68.0501931,18.0559846 C66.8195781,18.0559846 65.6382916,18.2671846 64.5406026,18.6553156 C66.6743632,21.2920654 67.9760556,24.6285721 68.0471244,28.266655 L68.0501931,28.5810811 L68.0501931,54.8938224 C68.0501931,57.8002475 70.4063162,60.1563707 73.3127413,60.1563707 Z M52.2625483,18.0559846 C46.449698,18.0559846 41.7374517,22.7682308 41.7374517,28.5810811 L41.7374517,65.4189189 C41.7374517,69.1792125 40.4228265,72.632459 38.2281064,75.344128 C39.3254891,75.7328044 40.5068049,75.9440154 41.7374517,75.9440154 C47.550302,75.9440154 52.2625483,71.2317692 52.2625483,65.4189189 L52.2625483,28.5810811 C52.2625483,24.8207875 53.5771735,21.367541 55.7718936,18.655872 C54.6751644,18.2673124 53.4935355,18.0559846 52.2625483,18.0559846 Z M62.7876448,28.5810811 C62.7876448,25.9119201 61.794073,23.4748202 60.1566021,21.619454 C58.5186683,23.4748202 57.5250965,25.9119201 57.5250965,28.5810811 L57.5250965,65.4189189 C57.5250965,74.1381944 50.4567272,81.2065637 41.7374517,81.2065637 C38.8617969,81.2065637 36.1657126,80.4377308 33.8435402,79.0944064 C31.5215965,80.4377164 28.8254887,81.2065637 25.9498069,81.2065637 C17.335583,81.2065637 10.332724,74.3074905 10.1652308,65.733345 L10.1621622,65.4189189 L10.1621622,39.1061776 C10.1621622,33.2933273 14.8744084,28.5810811 20.6872587,28.5810811 C26.4048164,28.5810811 31.0575596,33.1400938 31.2085719,38.821203 L31.2123552,39.1061776 L31.2123552,65.4189189 C31.2123552,68.0880849 32.2059307,70.5251888 33.843407,72.3805563 C35.481328,70.5251888 36.4749035,68.0880849 36.4749035,65.4189189 L36.4749035,28.5810811 C36.4749035,19.8618056 43.5432728,12.7934363 52.2625483,12.7934363 C55.1384944,12.7934363 57.8348336,13.5624249 60.1571655,14.9060019 C62.4784035,13.5622836 65.1745113,12.7934363 68.0501931,12.7934363 C76.664417,12.7934363 83.667276,19.6925095 83.8347692,28.266655 L83.8378378,28.5810811 L83.8378378,54.8938224 C83.8378378,60.7066727 79.1255916,65.4189189 73.3127413,65.4189189 C67.5951836,65.4189189 62.9424404,60.8599062 62.7914281,55.178797 L62.7876448,54.8938224 L62.7876448,28.5810811 Z M20.6872587,33.8436293 C17.7808335,33.8436293 15.4247104,36.1997525 15.4247104,39.1061776 L15.4247104,65.4189189 C15.4247104,71.2317692 20.1369566,75.9440154 25.9498069,75.9440154 C27.1804538,75.9440154 28.3617696,75.7328044 29.4594826,75.3446543 C27.3256368,72.7079346 26.0239444,69.3714279 25.9528756,65.733345 L25.9498069,65.4189189 L25.9498069,39.1061776 C25.9498069,36.1997525 23.5936838,33.8436293 20.6872587,33.8436293 Z" id="Combined-Shape"></path>
                                    </g>
                                </g>
                                <g id="Android" transform="translate(310.598725, 207.154759)">
                                    <path d="M79.9580307,44.0207124 C78.5777537,65.4567922 59.6178418,81.7443084 37.6098823,80.3998981 C15.6019228,79.0554878 -1.1201179,60.5882518 0.260159092,39.152172 L0.402971239,36.9342602 C1.78324823,15.4981804 20.7431601,-0.789335792 42.7511196,0.555074515 C64.7590791,1.89948482 81.4811198,20.3667208 80.1008428,41.8028006 L79.9580307,44.0207124 Z" id="Path" stroke="#2F5BEA" stroke-width="2" fill="#5BA0FF" fill-rule="nonzero"></path>
                                    <path d="M72.0025247,43.3120672 C70.8983031,60.460931 55.7303737,73.490944 38.124006,72.4154157 C20.5176384,71.3398875 7.14000587,56.5660987 8.24422746,39.4172349 L8.35847718,37.6429054 C9.46269877,20.4940416 24.6306282,7.46402863 42.2369959,8.53955687 C59.8433635,9.61508512 73.220996,24.3888739 72.1167744,41.5377378 L72.0025247,43.3120672 Z" id="Path" fill="#FFFFFF" fill-rule="nonzero"></path>
                                    <text id="Text" transform="translate(40.180501, 40.477486) rotate(-360.000000) translate(-40.180501, -40.477486) " font-family="Roboto-Black, Roboto" font-size="14" font-weight="700" letter-spacing="0.196875" fill="#2F5BEA">
                                        <tspan x="14.6804033" y="45.4774863">Android</tspan>
                                    </text>
                                </g>
                                <g id="React-Native" transform="translate(50.401275, 207.154759)">
                                    <path d="M62.1666544,73.0242577 C44.6657311,85.7468418 20.2295419,81.7835251 7.58689829,64.171942 C-5.05574536,46.5603589 -1.11733153,21.9696577 16.3835918,9.24707356 L18.1943475,7.93071491 C35.6952708,-4.79186922 60.13146,-0.828552486 72.7741036,16.7830306 C85.4167473,34.3946137 81.4783334,58.9853149 63.9774101,71.707899 L62.1666544,73.0242577 Z" id="Path" stroke="#2F5BEA" stroke-width="2" fill="#5BA0FF" fill-rule="nonzero"></path>
                                    <path d="M57.7694237,66.5149034 C43.7686851,76.6929707 24.2197337,73.5223173 14.1056188,59.4330509 C3.9915039,45.3437844 7.14223496,25.6712234 21.1429736,15.4931561 L22.5915782,14.4400692 C36.5923168,4.26200188 56.1412682,7.43265527 66.2553831,21.5219217 C76.369498,35.6111882 73.2187669,55.2837492 59.2180283,65.4618165 L57.7694237,66.5149034 Z" id="Path" fill="#FFFFFF" fill-rule="nonzero"></path>
                                    <text id="Text" transform="translate(40.180501, 40.477486) rotate(-360.000000) translate(-40.180501, -40.477486) " font-family="Roboto-Black, Roboto" font-size="14" font-weight="700" letter-spacing="0.196875" fill="#2F5BEA">
                                        <tspan x="21.5559892" y="37.4774863">React</tspan>
                                        <tspan x="19.2495439" y="53.4774863">Native</tspan>
                                    </text>
                                </g>
                                <g id="iOS" transform="translate(180.500000, 178.309517)">
                                    <path d="M67.220667,12.0599434 C83.2963028,26.5645456 84.5942251,51.3817679 70.1196576,67.4907606 C55.6450902,83.5997534 30.8792572,84.9003689 14.8036214,70.3957667 L13.1403349,68.8950292 C-2.93530087,54.390427 -4.23322318,29.5732048 10.2413443,13.464212 C24.7159117,-2.64478082 49.4817447,-3.94539632 65.5573805,10.5592059 L67.220667,12.0599434 Z" id="Path" stroke="#2F5BEA" stroke-width="2" fill="#5BA0FF" fill-rule="nonzero"></path>
                                    <path d="M61.8126338,17.743452 C74.6731424,29.3471338 75.7114803,49.2009115 64.1318263,62.0881058 C52.5521723,74.9753 32.7395059,76.0157924 19.8789973,64.4121106 L18.5483681,63.2115206 C5.6878595,51.6078388 4.64952165,31.7540611 16.2291756,18.8668668 C27.8088296,5.97967261 47.621496,4.9391802 60.4820046,16.542862 L61.8126338,17.743452 Z" id="Path" fill="#FFFFFF" fill-rule="nonzero"></path>
                                    <text id="Text" font-family="Roboto-Black, Roboto" font-size="14" font-weight="700" letter-spacing="0.196875" fill="#2F5BEA">
                                        <tspan x="28.7460283" y="45.4774863">iOS</tspan>
                                    </text>
                                </g>
                                <g id="ASR" transform="translate(131.401275, 161.376855) rotate(-90.000000) translate(-131.401275, -161.376855) translate(90.901275, 120.876855)">
                                    <path d="M67.686177,12.2822405 C83.7618127,26.7868428 85.0597351,51.604065 70.5851676,67.7130578 C56.1106001,83.8220505 31.3447671,85.1226661 15.2691314,70.6180638 L13.6058449,69.1173263 C-2.46979089,54.6127241 -3.7677132,29.7955019 10.7068543,13.6865091 C25.1814217,-2.42248369 49.9472547,-3.7230992 66.0228905,10.7815031 L67.686177,12.2822405 Z" id="Path" stroke="#2F5BEA" stroke-width="2" fill="#99CAFF" fill-rule="nonzero"></path>
                                    <path d="M62.7739648,17.5783713 C75.6344734,29.1820531 76.6728113,49.0358308 65.0931573,61.9230251 C53.5135033,74.8102193 33.7008369,75.8507117 20.8403283,64.2470299 L19.5096991,63.0464399 C6.64919051,51.4427581 5.61085266,31.5889803 17.1905066,18.7017861 C28.7701606,5.81459189 48.582827,4.77409948 61.4433356,16.3777813 L62.7739648,17.5783713 Z" id="Path" fill="#FFFFFF" fill-rule="nonzero"></path>
                                    <text id="Text" transform="translate(41.141832, 40.312406) rotate(-270.000000) translate(-41.141832, -40.312406) " font-family="Roboto-Black, Roboto" font-size="14" font-weight="700" letter-spacing="0.196875" fill="#2F5BEA">
                                        <tspan x="27.1302109" y="45.3124056">ASR</tspan>
                                    </text>
                                </g>
                                <g id="NLU" transform="translate(221.000000, 129.654759) rotate(-90.000000) translate(-221.000000, -129.654759) translate(180.500000, 89.154759)">
                                    <path d="M62.7435844,73.3169604 C45.2426611,86.0395446 20.8064719,82.0762278 8.16382826,64.4646447 C-4.47881539,46.8530616 -0.540401566,22.2623604 16.9605217,9.53977629 L18.7712774,8.22341764 C36.2722008,-4.49916649 60.7083899,-0.535849752 73.3510336,17.0757333 C85.9936772,34.6873164 82.0552634,59.2780177 64.5543401,72.0006018 L62.7435844,73.3169604 Z" id="Path" stroke="#2F5BEA" stroke-width="2" fill="#99CAFF" fill-rule="nonzero"></path>
                                    <path d="M58.3463537,66.8076062 C44.3456151,76.9856735 24.7966637,73.8150201 14.6825488,59.7257536 C4.56843387,45.6364871 7.71916493,25.9639261 21.7199036,15.7858588 L23.1685081,14.7327719 C37.1692468,4.55470462 56.7181981,7.72535801 66.832313,21.8146245 C76.946428,35.903891 73.7956969,55.5764519 59.7949583,65.7545192 L58.3463537,66.8076062 Z" id="Path" fill="#FFFFFF" fill-rule="nonzero"></path>
                                    <text id="Text" transform="translate(40.757431, 40.770189) rotate(-270.000000) translate(-40.757431, -40.770189) " font-family="Roboto-Black, Roboto" font-size="14" font-weight="700" letter-spacing="0.196875" fill="#2F5BEA">
                                        <tspan x="27.1833098" y="45.770189">NLU</tspan>
                                    </text>
                                </g>
                                <g id="TTS" transform="translate(310.500000, 161.876855) rotate(-90.000000) translate(-310.500000, -161.876855) translate(270.000000, 121.376855)">
                                    <path d="M80.5517001,43.6186268 C79.1714231,65.0547066 60.2115113,81.3422228 38.2035518,79.9978125 C16.1955922,78.6534022 -0.52644845,60.1861662 0.853828537,38.7500864 L0.996640684,36.5321746 C2.37691767,15.0960948 21.3368295,-1.19142139 43.344789,0.152988921 C65.3527486,1.49739923 82.0747892,19.9646352 80.6945123,41.400715 L80.5517001,43.6186268 Z" id="Path" stroke="#2F5BEA" stroke-width="2" fill="#99CAFF" fill-rule="nonzero"></path>
                                    <path d="M72.5961942,42.9099816 C71.4919726,60.0588454 56.3240431,73.0888584 38.7176755,72.0133301 C21.1113079,70.9378019 7.73367532,56.1640131 8.83789691,39.0151493 L8.95214663,37.2408198 C10.0563682,20.091956 25.2242977,7.06194303 42.8306653,8.13747128 C60.4370329,9.21299952 73.8146655,23.9867883 72.7104439,41.1356522 L72.5961942,42.9099816 Z" id="Path" fill="#FFFFFF" fill-rule="nonzero"></path>
                                    <text id="Text" transform="translate(40.774170, 40.075401) rotate(-270.000000) translate(-40.774170, -40.075401) " font-family="Roboto-Black, Roboto" font-size="14" font-weight="700" letter-spacing="0.196875" fill="#2F5BEA">
                                        <tspan x="27.2718266" y="45.0754007">TTS</tspan>
                                    </text>
                                </g>
                                <g id="Apple" transform="translate(84.799363, 75.598952) scale(-1, 1) translate(-84.799363, -75.598952) translate(44.799363, 35.598952)">
                                    <path d="M79.7775297,43.5432261 C78.3972527,64.9793059 59.4373409,81.2668221 37.4293814,79.9224118 C15.4214218,78.5780015 -1.30061885,60.1107655 0.0796581397,38.6746857 L0.222470286,36.4567739 C1.60274727,15.0206941 20.5626591,-1.26682209 42.5706186,0.0775882123 C64.5785782,1.42199852 81.3006188,19.8892345 79.9203419,41.3253143 L79.7775297,43.5432261 Z" id="Path" stroke="#2F5BEA" stroke-width="2" fill="#EDF3F9" fill-rule="nonzero"></path>
                                    <path d="M71.8220238,42.8345809 C70.7178022,59.9834447 55.5498727,73.0134577 37.9435051,71.9379294 C20.3371375,70.8624012 6.95950492,56.0886124 8.06372651,38.9397485 L8.17797623,37.1654191 C9.28219782,20.0165553 24.4501273,6.98654232 42.0564949,8.06207057 C59.6628625,9.13759882 73.0404951,23.9113876 71.9362735,41.0602515 L71.8220238,42.8345809 Z" id="Path" fill="#FFFFFF" fill-rule="nonzero"></path>
                                    <text id="Text" transform="translate(40.000000, 40.000000) scale(-1, 1) translate(-40.000000, -40.000000) " font-family="Roboto-Black, Roboto" font-size="14" font-weight="700" letter-spacing="0.196875" fill="#2F5BEA">
                                        <tspan x="21.2866211" y="45">Apple</tspan>
                                    </text>
                                </g>
                                <g id="Google" transform="translate(40.500000, 156.598952) scale(-1, 1) translate(-40.500000, -156.598952) translate(0.500000, 116.598952)">
                                    <path d="M61.9861535,72.5467714 C44.4852302,85.2693555 20.049041,81.3060388 7.40639734,63.6944557 C-5.23624631,46.0828726 -1.29783249,21.4921714 16.2030908,8.76958725 L18.0138465,7.4532286 C35.5147698,-5.26935553 59.950959,-1.30603879 72.5936027,16.3055443 C85.2362463,33.9171274 81.2978325,58.5078286 63.7969092,71.2304127 L61.9861535,72.5467714 Z" id="Path" stroke="#2F5BEA" stroke-width="2" fill="#EDF3F9" fill-rule="nonzero"></path>
                                    <path d="M57.5889228,66.0374171 C43.5881841,76.2154844 24.0392328,73.044831 13.9251179,58.9555646 C3.81100295,44.8662981 6.96173401,25.1937371 20.9624727,15.0156698 L22.4110772,13.9625829 C36.4118159,3.78451558 55.9607672,6.95516897 66.0748821,21.0444354 C76.188997,35.1337019 73.038266,54.8062629 59.0375273,64.9843302 L57.5889228,66.0374171 Z" id="Path" fill="#FFFFFF" fill-rule="nonzero"></path>
                                    <text id="Text" transform="translate(40.000000, 40.000000) scale(-1, 1) translate(-40.000000, -40.000000) " font-family="Roboto-Black, Roboto" font-size="14" font-weight="700" letter-spacing="0.196875" fill="#2F5BEA">
                                        <tspan x="17.0148437" y="45">Google</tspan>
                                    </text>
                                </g>
                                <g id="Amazon-Lex" transform="translate(174.248088, 40.500000) rotate(-360.000000) translate(-174.248088, -40.500000) translate(133.748088, 0.000000)">
                                    <path d="M80.6532223,43.9868745 C79.2729453,65.4229543 60.3130335,81.7104705 38.305074,80.3660602 C16.2971144,79.0216499 -0.424926241,60.5544139 0.955350747,39.1183341 L1.09816289,36.9004223 C2.47843988,15.4643425 21.4383517,-0.823173704 43.4463112,0.521236603 C65.4542708,1.86564691 82.1763115,20.3328829 80.7960345,41.7689627 L80.6532223,43.9868745 Z" id="Path" stroke="#2F5BEA" stroke-width="2" fill="#EDF3F9" fill-rule="nonzero"></path>
                                    <path d="M72.6977164,43.2782293 C71.5934948,60.4270931 56.4255653,73.4571061 38.8191977,72.3815778 C21.2128301,71.3060496 7.83519753,56.5322608 8.93941912,39.3833969 L9.05366884,37.6090675 C10.1578904,20.4602037 25.3258199,7.43019071 42.9321875,8.50571896 C60.5385551,9.58124721 73.9161877,24.355036 72.8119661,41.5038998 L72.6977164,43.2782293 Z" id="Path" fill="#FFFFFF" fill-rule="nonzero"></path>
                                    <text id="Text" font-family="Roboto-Black, Roboto" font-size="14" font-weight="700" letter-spacing="0.196875" fill="#2F5BEA">
                                        <tspan x="14.6337302" y="37.6018043">Amazon</tspan>
                                        <tspan x="29.4964255" y="53.6018043">Lex</tspan>
                                    </text>
                                </g>
                                <g id="Dialogflow" transform="translate(263.846813, 40.000000) rotate(-90.000000) translate(-263.846813, -40.000000) translate(223.846813, 0.000000)">
                                    <path d="M61.9861535,72.5467714 C44.4852302,85.2693555 20.049041,81.3060388 7.40639734,63.6944557 C-5.23624631,46.0828726 -1.29783249,21.4921714 16.2030908,8.76958725 L18.0138465,7.4532286 C35.5147698,-5.26935553 59.950959,-1.30603879 72.5936027,16.3055443 C85.2362463,33.9171274 81.2978325,58.5078286 63.7969092,71.2304127 L61.9861535,72.5467714 Z" id="Path" stroke="#2F5BEA" stroke-width="2" fill="#EDF3F9" fill-rule="nonzero"></path>
                                    <path d="M57.5889228,66.0374171 C43.5881841,76.2154844 24.0392328,73.044831 13.9251179,58.9555646 C3.81100295,44.8662981 6.96173401,25.1937371 20.9624727,15.0156698 L22.4110772,13.9625829 C36.4118159,3.78451558 55.9607672,6.95516897 66.0748821,21.0444354 C76.188997,35.1337019 73.038266,54.8062629 59.0375273,64.9843302 L57.5889228,66.0374171 Z" id="Path" fill="#FFFFFF" fill-rule="nonzero"></path>
                                    <text id="Text" transform="translate(40.048351, 40.061887) rotate(-270.000000) translate(-40.048351, -40.061887) " font-family="Roboto-Black, Roboto" font-size="12" font-weight="700" letter-spacing="0.16875" fill="#2F5BEA">
                                        <tspan x="10.578039" y="44.0618871">Dialogflow</tspan>
                                    </text>
                                </g>
                                <g id="Google-Cloud" transform="translate(353.595538, 76.098952) rotate(-90.000000) translate(-353.595538, -76.098952) translate(313.095538, 35.598952)">
                                    <path d="M67.3735859,11.6674994 C83.4492217,26.1721016 84.747144,50.9893238 70.2725765,67.0983166 C55.7980091,83.2073094 31.0321761,84.5079249 14.9565403,70.0033226 L13.2932538,68.5025852 C-2.78238197,53.9979829 -4.08030428,29.1807607 10.3942632,13.0717679 C24.8688306,-3.03722485 49.6346636,-4.33784035 65.7102994,10.1667619 L67.3735859,11.6674994 Z" id="Path" stroke="#2F5BEA" stroke-width="2" fill="#EDF3F9" fill-rule="nonzero"></path>
                                    <path d="M61.9655527,17.3510079 C74.8260613,28.9546897 75.8643992,48.8084675 64.2847452,61.6956617 C52.7050912,74.582856 32.8924248,75.6233484 20.0319162,64.0196666 L18.701287,62.8190766 C5.8407784,51.2153948 4.80244055,31.361617 16.3820945,18.4744228 C27.9617485,5.58722857 47.7744149,4.54673617 60.6349235,16.150418 L61.9655527,17.3510079 Z" id="Path" fill="#FFFFFF" fill-rule="nonzero"></path>
                                    <text id="Text" transform="translate(40.333420, 40.085042) rotate(-270.000000) translate(-40.333420, -40.085042) " font-family="Roboto-Black, Roboto" font-size="14" font-weight="700" letter-spacing="0.196875" fill="#2F5BEA">
                                        <tspan x="17.3482636" y="37.0850423">Google</tspan>
                                        <tspan x="21.507248" y="53.0850423">Cloud</tspan>
                                    </text>
                                </g>
                                <g id="Amazon-Polly" transform="translate(397.894901, 156.598952) scale(-1, 1) translate(-397.894901, -156.598952) translate(357.894901, 116.598952)">
                                    <path d="M67.040166,11.5824571 C83.1158018,26.0870593 84.4137241,50.9042816 69.9391567,67.0132743 C55.4645892,83.1222671 30.6987562,84.4228826 14.6231204,69.9182804 L12.959834,68.4175429 C-3.11580182,53.9129407 -4.41372413,29.0957184 10.0608433,12.9867257 C24.5354108,-3.12226712 49.3012438,-4.42288262 65.3768796,10.0817196 L67.040166,11.5824571 Z" id="Path" stroke="#2F5BEA" stroke-width="2" fill="#EDF3F9" fill-rule="nonzero"></path>
                                    <path d="M61.6321328,17.2659657 C74.4926415,28.8696475 75.5309793,48.7234252 63.9513253,61.6106195 C52.3716714,74.4978137 32.559005,75.5383061 19.6984963,63.9346243 L18.3678672,62.7340343 C5.50735855,51.1303525 4.4690207,31.2765748 16.0486747,18.3893805 C27.6283286,5.5021863 47.440995,4.4616939 60.3015037,16.0653757 L61.6321328,17.2659657 Z" id="Path" fill="#FFFFFF" fill-rule="nonzero"></path>
                                    <text id="Text" transform="translate(40.000000, 40.000000) scale(-1, 1) translate(-40.000000, -40.000000) " font-family="Roboto-Black, Roboto" font-size="14" font-weight="700" letter-spacing="0.196875" fill="#2F5BEA">
                                        <tspan x="13.6344727" y="37">Amazon</tspan>
                                        <tspan x="23.590332" y="53">Polly</tspan>
                                    </text>
                                </g>
                            </g>
                        </g>
                    </g>
                </g>
            </g>
        </g>
    </g>
</svg>