<?xml version="1.0" encoding="UTF-8"?>
<svg width="501px" height="504px" viewBox="0 0 501 504" version="1.1" xmlns="http://www.w3.org/2000/svg" xmlns:xlink="http://www.w3.org/1999/xlink">
    <title>Illustration</title>
    <defs>
        <path d="M42.6915292,0 C37.9779789,0.021822393 29.4281806,0.170384139 17.0490124,0.447917567 C7.7442429,0.656524844 0.291308925,8.18535055 0.143179965,17.4578026 L0.140932765,17.7393139 L0.140932765,449.412565 C0.140932765,458.869218 7.73040333,466.553255 17.1506583,466.708307 L17.436675,466.708307 L196.735869,466.708307 C206.192522,466.708307 213.876559,459.118837 214.029295,449.698582 L214.031612,449.412565 L214.031612,17.7438305 C214.031612,8.34154921 206.520499,0.661482599 197.120544,0.452366591 L188.404066,0.266353325 C180.699123,0.110212218 175.085368,0.0227195514 171.565657,0 L170.702076,0 L170.234264,0 C167.960534,0 167.3653,0.889411891 166.83541,4.54997382 L166.586014,6.32954905 C166.533006,6.68530612 166.489935,6.93934842 166.428273,7.27595873 C165.326536,13.2902477 161.978776,16.3750408 153.826618,16.4413909 L61.3923663,16.4420764 C52.6529382,16.3975103 48.9353464,13.3777804 47.6636458,7.49264713 L47.5570456,6.96965737 C47.5010572,6.68068476 47.4546477,6.41248998 47.3945838,6.02817829 L47.1481543,4.38725492 C46.6077048,0.912457999 46.0217325,0.0311887886 43.8207769,0 L42.6915292,0 Z" id="path-1"></path>
        <circle id="path-3" cx="26.8392857" cy="26.8392857" r="26.8392857"></circle>
        <filter x="-29.8%" y="-26.1%" width="159.6%" height="159.6%" filterUnits="objectBoundingBox" id="filter-4">
            <feOffset dx="0" dy="2" in="SourceAlpha" result="shadowOffsetOuter1"></feOffset>
            <feGaussianBlur stdDeviation="5" in="shadowOffsetOuter1" result="shadowBlurOuter1"></feGaussianBlur>
            <feColorMatrix values="0 0 0 0 0.183302285   0 0 0 0 0.357604153   0 0 0 0 0.9158429  0 0 0 1 0" type="matrix" in="shadowBlurOuter1"></feColorMatrix>
        </filter>
    </defs>
    <g id="Homepage" stroke="none" stroke-width="1" fill="none" fill-rule="evenodd">
        <g id="DSK-Home" transform="translate(-100.000000, -3441.000000)">
            <g id="Point-#-4" transform="translate(0.000000, 3374.000000)">
                <g id="Illustration/Voice-Search" transform="translate(100.000000, 68.500000)">
                    <g id="Illustration" transform="translate(0.000000, -1.000000)">
                        <path d="M299.011443,72.8874434 C161.832308,36.130405 28.8966172,87.4305152 2.09126593,187.469448 C-8.21821013,225.944937 21.8953857,248.009007 42.085279,284.860772 C74.3905045,343.826147 117.521348,412.540372 201.94068,435.160464 C280.231814,456.13851 345.572832,424.983099 401.464992,394.498694 L406.623851,391.673732 C446.516337,369.753552 487.827053,361.757177 498.860857,320.578459 C512.58341,269.365193 457.256763,226.240032 419.231182,180.73978 C382.978382,137.360787 365.964003,90.8273278 299.011443,72.8874434 Z" id="bat-i" fill-opacity="0.5" fill="#CCE4FF" fill-rule="nonzero"></path>
                        <g id="iPhone-X---Outline" transform="translate(126.000000, 0.913174)">
                            <g id="Device">
                                <path d="M213.314154,0 C231.781692,0 246.752589,14.9708973 246.752589,33.438435 L246.752589,467.561565 C246.752589,486.029103 231.781692,501 213.314154,501 L35.1680092,501 C16.7004715,501 1.72957422,486.029103 1.72957422,467.561565 L1.72957422,33.438435 C1.72957422,14.9708973 16.7004715,0 35.1680092,0 L213.314154,0 Z" id="Path" stroke="#2F5BEA" stroke-width="2" fill="#FFFFFF" fill-rule="nonzero"></path>
                                <g id="Mask" transform="translate(17.525432, 16.419426)">
                                    <mask id="mask-2" fill="white">
                                        <use xlink:href="#path-1"></use>
                                    </mask>
                                    <use fill-opacity="0.25" fill="#CCE4FF" xlink:href="#path-1"></use>
                                    <path d="M39.3226004,51.6529045 L39.3226004,50.1851311 C39.3401785,49.3648186 39.6009207,48.5562248 40.1048269,47.7593498 L40.1048269,47.7593498 L38.9095144,47.0650139 C38.4583425,47.4458732 38.078948,47.9483146 37.7713308,48.5723381 C37.4637136,49.1963615 37.309905,49.7837639 37.309905,50.3345451 L37.309905,50.3345451 L37.309905,51.6529045 L39.3226004,51.6529045 Z M42.3372488,51.6529045 L42.3372488,50.1851311 C42.3548269,49.3648186 42.6155691,48.5562248 43.1194754,47.7593498 L43.1194754,47.7593498 L41.9241629,47.0650139 C41.472991,47.4458732 41.0935965,47.9483146 40.7859793,48.5723381 C40.4783621,49.1963615 40.3245535,49.7837639 40.3245535,50.3345451 L40.3245535,50.3345451 L40.3245535,51.6529045 L42.3372488,51.6529045 Z M49.6655691,61.0396232 C51.0835379,61.0396232 52.2114675,60.7246818 53.0493582,60.094799 C53.8872488,59.4649162 54.3061941,58.5962639 54.3061941,57.488842 C54.3061941,56.4927482 53.9634207,55.660717 53.2778738,54.9927482 C52.5923269,54.3247795 51.4995535,53.7652092 49.9995535,53.3140373 C49.1851004,53.0679436 48.5684011,52.8042717 48.1494558,52.5230217 C47.7305105,52.2417717 47.5210379,51.8931389 47.5210379,51.4771232 C47.5210379,51.0318107 47.6997488,50.672924 48.0571707,50.4004631 C48.4145925,50.1280021 48.9155691,49.9917717 49.5601004,49.9917717 C50.2280691,49.9917717 50.7466238,50.1543693 51.1157644,50.4795646 C51.484905,50.80476 51.6694754,51.2603264 51.6694754,51.8462639 L51.6694754,51.8462639 L54.3061941,51.8462639 C54.3061941,51.0786857 54.1084402,50.3931389 53.7129324,49.7896232 C53.3174246,49.1861076 52.7622488,48.7188225 52.047405,48.3877678 C51.3325613,48.0567131 50.5181082,47.8911857 49.6040457,47.8911857 C48.6958425,47.8911857 47.8769949,48.0435295 47.1475027,48.348217 C46.4180105,48.6529045 45.8584402,49.0762443 45.4687918,49.6182365 C45.0791433,50.1602287 44.8843191,50.7769279 44.8843191,51.4683342 C44.8843191,52.7984123 45.6108816,53.8560295 47.0640066,54.6411857 C47.5972097,54.9282951 48.3208425,55.219799 49.234905,55.5156975 C50.1489675,55.8115959 50.78178,56.0928459 51.1333425,56.3594475 C51.484905,56.626049 51.6606863,57.0083732 51.6606863,57.5064201 C51.6606863,57.9634514 51.484905,58.3194084 51.1333425,58.5742912 C50.78178,58.829174 50.2925222,58.9566154 49.6655691,58.9566154 C47.9780691,58.9566154 47.1343191,58.2505607 47.1343191,56.8384514 L47.1343191,56.8384514 L44.4888113,56.8384514 C44.4888113,57.6646232 44.7012136,58.3911857 45.1260183,59.0181389 C45.550823,59.645092 46.1675222,60.1387443 46.976116,60.4990959 C47.7847097,60.8594475 48.6811941,61.0396232 49.6655691,61.0396232 Z M58.6550222,60.863842 L58.6550222,54.1050529 C58.9890066,53.5308342 59.5280691,53.2437248 60.2722097,53.2437248 C60.8171316,53.2437248 61.20678,53.3740959 61.441155,53.6348381 C61.67553,53.8955803 61.7927175,54.2984123 61.7927175,54.8433342 L61.7927175,54.8433342 L61.7927175,60.863842 L64.3327566,60.863842 L64.3327566,54.7730217 C64.3034597,52.3765373 63.2575613,51.1782951 61.1950613,51.1782951 C60.17553,51.1782951 59.3288504,51.582592 58.6550222,52.3911857 L58.6550222,52.3911857 L58.6550222,47.363842 L56.1149832,47.363842 L56.1149832,60.863842 L58.6550222,60.863842 Z M70.6151785,61.0396232 C71.9862722,61.0396232 73.0790457,60.5987053 73.8934988,59.7168693 C74.7079519,58.8350334 75.1151785,57.6646232 75.1151785,56.2056389 L75.1151785,56.2056389 L75.0976004,55.5552482 C75.0038504,54.207592 74.5512136,53.1411857 73.7396902,52.3560295 C72.9281668,51.5708732 71.8808035,51.1782951 70.5976004,51.1782951 C69.6952566,51.1782951 68.9027761,51.3804436 68.220159,51.7847404 C67.5375418,52.1890373 67.0145925,52.7603264 66.6513113,53.4986076 C66.28803,54.2368889 66.1063894,55.0777092 66.1063894,56.0210686 L66.1063894,56.0210686 L66.1063894,56.1353264 C66.1063894,57.6470451 66.5150808,58.8423576 67.3324636,59.7212639 C68.1498465,60.6001701 69.2440847,61.0396232 70.6151785,61.0396232 Z M70.6151785,58.9917717 C69.982366,58.9917717 69.4960379,58.7530021 69.1561941,58.2754631 C68.8163504,57.797924 68.6464285,57.1079826 68.6464285,56.2056389 C68.6464285,55.191967 68.8163504,54.4434318 69.1561941,53.9600334 C69.4960379,53.476635 69.9765066,53.2349357 70.5976004,53.2349357 C71.2245535,53.2349357 71.7108816,53.4780998 72.0565847,53.9644279 C72.4022879,54.4507561 72.5751394,55.1363029 72.5751394,56.0210686 C72.5751394,57.0581779 72.4022879,57.8125725 72.0565847,58.2842521 C71.7108816,58.7559318 71.2304129,58.9917717 70.6151785,58.9917717 Z M80.7472097,60.863842 L82.5489675,54.8784904 L84.3507254,60.863842 L86.4776785,60.863842 L88.9034597,51.3540764 L86.4513113,51.3540764 L85.2032644,57.4097404 L83.4718191,51.3540764 L81.634905,51.3540764 L79.8946707,57.4009514 L78.6554129,51.3540764 L76.2032644,51.3540764 L78.6290457,60.863842 L80.7472097,60.863842 Z M97.6890066,60.863842 L97.6890066,54.1402092 C98.0112722,53.5425529 98.5327566,53.2437248 99.2534597,53.2437248 C99.7749441,53.2437248 100.144085,53.3667717 100.360882,53.6128654 C100.577678,53.8589592 100.686077,54.2573967 100.686077,54.8081779 L100.686077,54.8081779 L100.686077,60.863842 L103.226116,60.863842 L103.217327,54.3335686 C103.510296,53.6070061 104.037639,53.2437248 104.799358,53.2437248 C105.332561,53.2437248 105.704632,53.3682365 105.915569,53.61726 C106.126507,53.8662834 106.231975,54.2603264 106.231975,54.7993889 L106.231975,54.7993889 L106.231975,60.863842 L108.780803,60.863842 L108.780803,54.7905998 C108.780803,53.5835686 108.52885,52.67976 108.024944,52.079174 C107.521038,51.4785881 106.75346,51.1782951 105.72221,51.1782951 C104.485882,51.1782951 103.533733,51.6616936 102.865764,52.6284904 C102.408733,51.6616936 101.567913,51.1782951 100.343303,51.1782951 C99.194866,51.1782951 98.2837332,51.5913811 97.609905,52.4175529 L97.609905,52.4175529 L97.5308035,51.3540764 L95.1489675,51.3540764 L95.1489675,60.863842 L97.6890066,60.863842 Z M115.362053,61.0396232 C116.153069,61.0396232 116.873772,60.8887443 117.524163,60.5869865 C118.174553,60.2852287 118.690178,59.8648186 119.071038,59.3257561 L119.071038,59.3257561 L117.822991,57.9282951 C117.27221,58.6372795 116.507561,58.9917717 115.529046,58.9917717 C114.896233,58.9917717 114.373284,58.8042717 113.960198,58.4292717 C113.547112,58.0542717 113.299553,57.5562248 113.217522,56.9351311 L113.217522,56.9351311 L119.273186,56.9351311 L119.273186,55.8980217 C119.273186,54.3921623 118.899651,53.2290764 118.152581,52.4087639 C117.405511,51.5884514 116.381585,51.1782951 115.080803,51.1782951 C114.213616,51.1782951 113.441643,51.3819084 112.764886,51.789135 C112.088128,52.1963615 111.565178,52.7764396 111.196038,53.5293693 C110.826897,54.282299 110.642327,55.1363029 110.642327,56.0913811 L110.642327,56.0913811 L110.642327,56.3374748 C110.642327,57.7613029 111.080315,58.9009514 111.956292,59.7564201 C112.832268,60.6118889 113.967522,61.0396232 115.362053,61.0396232 Z M116.777093,55.2036857 L113.243889,55.2036857 C113.33178,54.5708732 113.532464,54.0845451 113.84594,53.7447014 C114.159417,53.4048576 114.568108,53.2349357 115.072014,53.2349357 C115.611077,53.2349357 116.027093,53.3887443 116.320061,53.6963615 C116.61303,54.0039787 116.765374,54.4390373 116.777093,55.0015373 L116.777093,55.0015373 L116.777093,55.2036857 Z M126.889788,64.7046623 C128.196428,64.7046623 129.133928,64.0835686 129.702288,62.8413811 L129.702288,62.8413811 L129.913225,62.3404045 L133.736468,51.3540764 L131.011858,51.3540764 L129.254046,57.2691154 L127.487444,51.3540764 L124.754046,51.3540764 L128.0851,60.8902092 L127.786272,61.6724357 C127.651507,62.0122795 127.465471,62.2554436 127.228167,62.4019279 C126.990862,62.5484123 126.631975,62.6216545 126.151507,62.6216545 L126.151507,62.6216545 L125.764788,62.6128654 L125.764788,64.5376701 C126.145647,64.6489982 126.520647,64.7046623 126.889788,64.7046623 Z M139.254241,61.0396232 C140.045257,61.0396232 140.76596,60.8887443 141.41635,60.5869865 C142.066741,60.2852287 142.582366,59.8648186 142.963225,59.3257561 L142.963225,59.3257561 L141.715178,57.9282951 C141.164397,58.6372795 140.399749,58.9917717 139.421233,58.9917717 C138.788421,58.9917717 138.265471,58.8042717 137.852386,58.4292717 C137.4393,58.0542717 137.191741,57.5562248 137.10971,56.9351311 L137.10971,56.9351311 L143.165374,56.9351311 L143.165374,55.8980217 C143.165374,54.3921623 142.791839,53.2290764 142.044768,52.4087639 C141.297698,51.5884514 140.273772,51.1782951 138.972991,51.1782951 C138.105803,51.1782951 137.333831,51.3819084 136.657073,51.789135 C135.980315,52.1963615 135.457366,52.7764396 135.088225,53.5293693 C134.719085,54.282299 134.534514,55.1363029 134.534514,56.0913811 L134.534514,56.0913811 L134.534514,56.3374748 C134.534514,57.7613029 134.972503,58.9009514 135.848479,59.7564201 C136.724456,60.6118889 137.85971,61.0396232 139.254241,61.0396232 Z M140.66928,55.2036857 L137.136077,55.2036857 C137.223968,54.5708732 137.424651,54.0845451 137.738128,53.7447014 C138.051604,53.4048576 138.460296,53.2349357 138.964202,53.2349357 C139.503264,53.2349357 139.91928,53.3887443 140.212249,53.6963615 C140.505218,54.0039787 140.657561,54.4390373 140.66928,55.0015373 L140.66928,55.0015373 L140.66928,55.2036857 Z M147.540569,60.863842 L147.540569,47.363842 L144.991741,47.363842 L144.991741,60.863842 L147.540569,60.863842 Z M152.566155,60.863842 L152.566155,47.363842 L150.017327,47.363842 L150.017327,60.863842 L152.566155,60.863842 Z M159.024358,61.0396232 C160.395452,61.0396232 161.488225,60.5987053 162.302678,59.7168693 C163.117132,58.8350334 163.524358,57.6646232 163.524358,56.2056389 L163.524358,56.2056389 L163.50678,55.5552482 C163.41303,54.207592 162.960393,53.1411857 162.14887,52.3560295 C161.337346,51.5708732 160.289983,51.1782951 159.00678,51.1782951 C158.104436,51.1782951 157.311956,51.3804436 156.629339,51.7847404 C155.946721,52.1890373 155.423772,52.7603264 155.060491,53.4986076 C154.69721,54.2368889 154.515569,55.0777092 154.515569,56.0210686 L154.515569,56.0210686 L154.515569,56.1353264 C154.515569,57.6470451 154.924261,58.8423576 155.741643,59.7212639 C156.559026,60.6001701 157.653264,61.0396232 159.024358,61.0396232 Z M159.024358,58.9917717 C158.391546,58.9917717 157.905218,58.7530021 157.565374,58.2754631 C157.22553,57.797924 157.055608,57.1079826 157.055608,56.2056389 C157.055608,55.191967 157.22553,54.4434318 157.565374,53.9600334 C157.905218,53.476635 158.385686,53.2349357 159.00678,53.2349357 C159.633733,53.2349357 160.120061,53.4780998 160.465764,53.9644279 C160.811468,54.4507561 160.984319,55.1363029 160.984319,56.0210686 C160.984319,57.0581779 160.811468,57.8125725 160.465764,58.2842521 C160.120061,58.7559318 159.639593,58.9917717 159.024358,58.9917717 Z M169.156389,60.863842 L170.958147,54.8784904 L172.759905,60.863842 L174.886858,60.863842 L177.312639,51.3540764 L174.860491,51.3540764 L173.612444,57.4097404 L171.880999,51.3540764 L170.044085,51.3540764 L168.30385,57.4009514 L167.064593,51.3540764 L164.612444,51.3540764 L167.038225,60.863842 L169.156389,60.863842 Z M83.5632254,85.520092 L83.5632254,81.0376701 C84.1550222,81.7056389 84.9313894,82.0396232 85.8923269,82.0396232 C87.0231863,82.0396232 87.9211355,81.5987053 88.5861746,80.7168693 C89.2512136,79.8350334 89.5837332,78.6616936 89.5837332,77.1968498 L89.5837332,77.1968498 L89.5837332,77.0650139 C89.5837332,75.5415764 89.2585379,74.3462639 88.6081472,73.4790764 C87.9577566,72.6118889 87.0466238,72.1782951 85.8747488,72.1782951 C84.8845144,72.1782951 84.08178,72.5474357 83.4665457,73.285717 L83.4665457,73.285717 L83.378655,72.3540764 L81.0231863,72.3540764 L81.0231863,85.520092 L83.5632254,85.520092 Z M85.2243582,79.9917717 C84.4274832,79.9917717 83.8737722,79.6782951 83.5632254,79.051342 L83.5632254,79.051342 L83.5632254,75.1577873 C83.8620535,74.5484123 84.409905,74.2437248 85.20678,74.2437248 C85.8044363,74.2437248 86.2600027,74.4839592 86.5734793,74.9644279 C86.8869558,75.4448967 87.0436941,76.1275139 87.0436941,77.0122795 C87.0436941,78.9986076 86.4372488,79.9917717 85.2243582,79.9917717 Z M94.2665457,82.0396232 C95.2509207,82.0396232 96.0507254,81.6968498 96.6659597,81.0113029 C96.7186941,81.3511467 96.803655,81.6353264 96.9208425,81.863842 L96.9208425,81.863842 L99.4872488,81.863842 L99.4872488,81.7144279 C99.241155,81.2515373 99.1151785,80.5689201 99.1093191,79.6665764 L99.1093191,79.6665764 L99.1093191,75.5445061 C99.1093191,74.4780998 98.7650808,73.6504631 98.0766043,73.0615959 C97.3881277,72.4727287 96.4579519,72.1782951 95.2860769,72.1782951 C94.5126394,72.1782951 93.8153738,72.3115959 93.19428,72.5781975 C92.5731863,72.844799 92.0927175,73.2124748 91.7528738,73.6812248 C91.41303,74.1499748 91.2431082,74.6597404 91.2431082,75.2105217 L91.2431082,75.2105217 L93.7831472,75.2105217 C93.7831472,74.8530998 93.9047293,74.5718498 94.1478933,74.3667717 C94.3910574,74.1616936 94.7265066,74.0591545 95.154241,74.0591545 C95.6405691,74.0591545 95.9965261,74.1909904 96.2221121,74.4546623 C96.447698,74.7183342 96.560491,75.0698967 96.560491,75.5093498 L96.560491,75.5093498 L96.560491,76.0542717 L95.3915457,76.0542717 C93.9794363,76.0601311 92.8998465,76.332592 92.1527761,76.8716545 C91.4057058,77.410717 91.0321707,78.1841545 91.0321707,79.191967 C91.0321707,80.0122795 91.338323,80.691967 91.9506277,81.2310295 C92.5629324,81.770092 93.334905,82.0396232 94.2665457,82.0396232 Z M94.8202566,80.0972404 C94.4335379,80.0972404 94.1288504,79.9947014 93.9061941,79.7896232 C93.6835379,79.5845451 93.5722097,79.3238029 93.5722097,79.0073967 L93.5722097,79.0073967 L93.5809988,78.8579826 C93.66303,77.9790764 94.3397879,77.5396232 95.6112722,77.5396232 L95.6112722,77.5396232 L96.560491,77.5396232 L96.560491,79.1743889 C96.4081472,79.4556389 96.1737722,79.67976 95.857366,79.8467521 C95.5409597,80.0137443 95.1952566,80.0972404 94.8202566,80.0972404 Z M103.800921,81.863842 L103.800921,75.1577873 C104.158343,74.5484123 104.694475,74.2437248 105.409319,74.2437248 C105.954241,74.2437248 106.343889,74.3653068 106.578264,74.6084709 C106.812639,74.851635 106.929827,75.2427482 106.929827,75.7818107 L106.929827,75.7818107 L106.929827,81.863842 L109.469866,81.863842 L109.469866,75.7202873 C109.458147,74.5425529 109.206194,73.6577873 108.714007,73.0659904 C108.221819,72.4741936 107.471819,72.1782951 106.464007,72.1782951 C105.321428,72.1782951 104.410296,72.6030998 103.730608,73.4527092 L103.730608,73.4527092 L103.651507,72.3540764 L101.260882,72.3540764 L101.260882,81.863842 L103.800921,81.863842 Z M114.873382,82.0396232 C115.400725,82.0396232 115.913421,81.9634514 116.411468,81.8111076 L116.411468,81.8111076 L116.411468,79.8863029 C116.194671,79.9273186 115.945647,79.9478264 115.664397,79.9478264 C115.283538,79.9478264 115.025725,79.8716545 114.89096,79.7193107 C114.756194,79.566967 114.688811,79.3150139 114.688811,78.9634514 L114.688811,78.9634514 L114.688811,74.2173576 L116.314788,74.2173576 L116.314788,72.3540764 L114.688811,72.3540764 L114.688811,70.0161857 L112.148772,70.0161857 L112.148772,72.3540764 L110.7601,72.3540764 L110.7601,74.2173576 L112.148772,74.2173576 L112.148772,79.3413811 C112.183928,81.1402092 113.092132,82.0396232 114.873382,82.0396232 Z M121.604046,82.0396232 C122.78178,82.0396232 123.742718,81.7715568 124.486858,81.235424 C125.230999,80.6992912 125.603069,79.9976311 125.603069,79.1304436 C125.603069,77.9175529 124.932171,77.0650139 123.590374,76.5728264 C123.15678,76.4146232 122.623577,76.2725334 121.990764,76.1465568 C121.357952,76.0205803 120.908245,75.8711662 120.641643,75.6983146 C120.375042,75.5254631 120.241741,75.2984123 120.241741,75.0171623 C120.241741,74.7183342 120.358928,74.4722404 120.593303,74.2788811 C120.827678,74.0855217 121.158733,73.988842 121.586468,73.988842 C122.084514,73.988842 122.450725,74.1074943 122.6851,74.344799 C122.919475,74.5821037 123.036663,74.8823967 123.036663,75.2456779 L123.036663,75.2456779 L125.576702,75.2456779 C125.576702,74.3374748 125.214886,73.5991936 124.491253,73.0308342 C123.76762,72.4624748 122.802288,72.1782951 121.595257,72.1782951 C120.464397,72.1782951 119.54887,72.46101 118.848675,73.0264396 C118.148479,73.5918693 117.798382,74.2964592 117.798382,75.1402092 C117.798382,76.5874748 118.929241,77.5484123 121.19096,78.0230217 C121.870647,78.1636467 122.3643,78.3233146 122.671917,78.5020256 C122.979534,78.6807365 123.133343,78.9253654 123.133343,79.2359123 C123.133343,79.5347404 123.008831,79.7764396 122.759807,79.96101 C122.510784,80.1455803 122.143108,80.2378654 121.65678,80.2378654 C121.135296,80.2378654 120.71928,80.1177482 120.408733,79.8775139 C120.098186,79.6372795 119.931194,79.2915764 119.907757,78.8404045 L119.907757,78.8404045 L117.499553,78.8404045 C117.499553,79.4146232 117.675335,79.9492912 118.026897,80.4444084 C118.37846,80.9395256 118.863323,81.329174 119.481487,81.6133537 C120.099651,81.8975334 120.807171,82.0396232 121.604046,82.0396232 Z M128.343499,72.9956779 C128.829827,72.5738029 129.219475,72.0552482 129.512444,71.4400139 C129.805413,70.8247795 129.951897,70.2534904 129.951897,69.7261467 L129.951897,69.7261467 L129.951897,68.363842 L127.930413,68.363842 L127.930413,69.8491936 C127.912835,70.6929436 127.652093,71.5103264 127.148186,72.301342 L127.148186,72.301342 L128.343499,72.9956779 Z M131.393303,72.9956779 C131.879632,72.5738029 132.26928,72.0552482 132.562249,71.4400139 C132.855218,70.8247795 133.001702,70.2534904 133.001702,69.7261467 L133.001702,69.7261467 L133.001702,68.363842 L130.980218,68.363842 L130.980218,69.8491936 C130.962639,70.6929436 130.701897,71.5103264 130.197991,72.301342 L130.197991,72.301342 L131.393303,72.9956779 Z" id="“Showmeyellowpants”" fill="#2F5BEA" fill-rule="nonzero" mask="url(#mask-2)"></path>
                                    <rect id="Rectangle" fill="#FFFFFF" mask="url(#mask-2)" x="19.7683943" y="112.456212" width="81.1568878" height="74.4098781" rx="7"></rect>
                                    <rect id="Rectangle" fill="#FACC5F" mask="url(#mask-2)" x="19.7683943" y="198.584181" width="81.1568878" height="74.4098781" rx="7"></rect>
                                    <rect id="Rectangle" fill="#FACC5F" mask="url(#mask-2)" x="19.7683943" y="284.71215" width="81.1568878" height="74.4098781" rx="7"></rect>
                                    <rect id="Rectangle" fill="#99CAFF" mask="url(#mask-2)" x="113.705894" y="112.456212" width="81.1568878" height="74.4098781" rx="7"></rect>
                                    <rect id="Rectangle" fill="#8B9DFF" mask="url(#mask-2)" x="113.705894" y="198.584181" width="81.1568878" height="74.4098781" rx="7"></rect>
                                    <rect id="Rectangle" fill="#FFFFFF" mask="url(#mask-2)" x="113.705894" y="284.71215" width="81.1568878" height="74.4098781" rx="7"></rect>
                                    <path d="M-27.1380463,407.917491 C-7.92599799,419.107649 0.684702072,455.475956 18.5234073,455.475956 C39.6054824,455.475956 44.6178976,418.271767 63.1525552,418.271767 C81.6872128,418.271767 89.5506967,448.988873 111.199949,448.988873 C124.557187,448.988873 136.521066,428.243739 168.354889,428.284736 C200.188712,428.325734 215.379561,451.180015 241.722394,451.180015 L241.722394,466.708307 L-27.1380463,466.708307 L-27.1380463,407.917491 Z" id="Shape" fill="#2F5BEA" opacity="0.25" mask="url(#mask-2)"></path>
                                    <path d="M-27.1380463,458.584466 C-4.71384587,458.584466 -1.41206782,431.423809 18.3025418,431.423809 C38.0171513,431.423809 46.3812397,458.584466 69.408725,458.584466 C92.4362102,458.584466 104.516902,436.609668 126.401261,436.609668 C148.285619,436.609668 213.702525,455.448244 241.722394,455.448244 L241.722394,466.629325 L-27.1380463,466.708307 L-27.1380463,458.584466 Z" id="Shape" fill="#2F5BEA" opacity="0.1" mask="url(#mask-2)"></path>
                                    <g id="Search" mask="url(#mask-2)" fill-rule="nonzero">
                                        <g transform="translate(-312.985559, 68.863842)" id="Icons/Search">
                                            <g transform="translate(0.276089, 0.276089)">
                                                <path d="M14.5769808,15.9558844 L15.9558844,14.5769808 L11.4252011,10.0462976 L10.681031,10.0462976 L10.44027,9.78364925 C10.8926088,9.27294422 11.2391586,8.68563344 11.4799195,8.02171689 C11.7206805,7.35780035 11.841061,6.66105277 11.841061,5.93147416 C11.841061,4.8516978 11.5820605,3.85947088 11.0640597,2.9547934 C10.5460589,2.05011591 9.84201554,1.33512887 8.95192963,0.809832265 C8.03266057,0.269944088 7.03313787,0 5.95336151,0 C4.87358516,0 3.87771035,0.262648302 2.96573708,0.787944906 C2.05376381,1.31324151 1.33148098,2.03187645 0.798888586,2.94384972 C0.266296195,3.85582299 0,4.8516978 0,5.93147416 C0,7.01125051 0.269944088,8.01077321 0.809832265,8.93004227 C1.33512887,9.82012818 2.05376381,10.5278194 2.96573708,11.053116 C3.87771035,11.5784127 4.87358516,11.841061 5.95336151,11.841061 C6.66834856,11.841061 7.35780035,11.7206805 8.02171689,11.4799195 C8.68563344,11.2391586 9.27294422,10.8926088 9.78364925,10.44027 L9.78364925,10.44027 L10.0462976,10.681031 L10.0462976,11.4033138 L14.5769808,15.9558844 Z M5.95336151,10.0462976 C5.20919133,10.0462976 4.52338743,9.86025501 3.89594981,9.48816991 C3.2685122,9.11608482 2.76875085,8.61632347 2.39666576,7.98888586 C2.02458066,7.36144825 1.83853811,6.67564435 1.83853811,5.93147416 C1.83853811,5.18730397 2.02458066,4.50150007 2.39666576,3.87406246 C2.76875085,3.24662485 3.2685122,2.75051139 3.89594981,2.38572208 C4.52338743,2.02093277 5.20919133,1.83853811 5.95336151,1.83853811 C6.6975317,1.83853811 7.3833356,2.02093277 8.01077321,2.38572208 C8.63821083,2.75051139 9.13432428,3.24662485 9.49911359,3.87406246 C9.8639029,4.50150007 10.0462976,5.18730397 10.0462976,5.93147416 C10.0462976,6.67564435 9.8639029,7.36144825 9.49911359,7.98888586 C9.13432428,8.61632347 8.63821083,9.11608482 8.01077321,9.48816991 C7.3833356,9.86025501 6.6975317,10.0462976 5.95336151,10.0462976 Z" id="" fill="#E6E9E9"></path>
                                            </g>
                                        </g>
                                    </g>
                                    <g id="Search" mask="url(#mask-2)">
                                        <g transform="translate(-801.346850, 40.984053)">
                                            <text id="Ghost-Text" font-family="Roboto-Regular, Roboto" font-size="12" font-weight="normal" line-spacing="26.25" letter-spacing="0.245454545">
                                                <tspan x="40.8979592" y="12.0429501" fill="#2C363F">Search for Github repositories using your voice</tspan>
                                            </text>
                                            <g id="Icons/Search" transform="translate(0.000000, 0.109277)" fill-rule="nonzero">
                                                <path d="M25.6874528,28.1173469 L28.1173469,25.6874528 L20.1334089,17.7035147 L18.8220375,17.7035147 L18.3977702,17.2406778 C19.1948784,16.3407169 19.8055661,15.305762 20.2298333,14.135813 C20.6541005,12.9658639 20.8662341,11.7380602 20.8662341,10.4524019 C20.8662341,8.54962767 20.4098255,6.80113239 19.4970081,5.2069161 C18.5841907,3.61269981 17.3435304,2.35275468 15.7750273,1.42708071 C14.1550978,0.47569357 12.393746,0 10.4909717,0 C8.58819742,0 6.83327384,0.462836987 5.22620097,1.38851096 C3.6191281,2.31418493 2.34632639,3.58055836 1.40779583,5.18763123 C0.469265278,6.7947041 0,8.54962767 0,10.4524019 C0,12.3551762 0.47569357,14.1165281 1.42708071,15.7364575 C2.35275468,17.3049607 3.6191281,18.5520492 5.22620097,19.4777232 C6.83327384,20.4033972 8.58819742,20.8662341 10.4909717,20.8662341 C11.7509168,20.8662341 12.9658639,20.6541005 14.135813,20.2298333 C15.305762,19.8055661 16.3407169,19.1948784 17.2406778,18.3977702 L17.2406778,18.3977702 L17.7035147,18.8220375 L17.7035147,20.0948392 L25.6874528,28.1173469 Z M10.4909717,17.7035147 C9.17960024,17.7035147 7.97108144,17.3756719 6.8654153,16.7199861 C5.75974917,16.0643004 4.87907323,15.1836245 4.2233875,14.0779583 C3.56770177,12.9722922 3.23985891,11.7637734 3.23985891,10.4524019 C3.23985891,9.14103049 3.56770177,7.93251169 4.2233875,6.82684555 C4.87907323,5.72117942 5.75974917,4.84693178 6.8654153,4.20410263 C7.97108144,3.56127348 9.17960024,3.23985891 10.4909717,3.23985891 C11.8023432,3.23985891 13.010862,3.56127348 14.1165281,4.20410263 C15.2221942,4.84693178 16.0964419,5.72117942 16.739271,6.82684555 C17.3821002,7.93251169 17.7035147,9.14103049 17.7035147,10.4524019 C17.7035147,11.7637734 17.3821002,12.9722922 16.739271,14.0779583 C16.0964419,15.1836245 15.2221942,16.0643004 14.1165281,16.7199861 C13.010862,17.3756719 11.8023432,17.7035147 10.4909717,17.7035147 Z" id="" fill="#E6E9E9"></path>
                                            </g>
                                        </g>
                                    </g>
                                    <g id="3" mask="url(#mask-2)">
                                        <g transform="translate(80.452888, 381.083176)">
                                            <g id="middle" fill="none">
                                                <use fill="black" fill-opacity="1" filter="url(#filter-4)" xlink:href="#path-3"></use>
                                                <use fill="#99CAFF" fill-rule="evenodd" xlink:href="#path-3"></use>
                                            </g>
                                            <path d="M26.8392857,22.021978 C29.4998113,22.021978 31.6565934,24.1787601 31.6565934,26.8392857 C31.6565934,29.4998113 29.4998113,31.6565934 26.8392857,31.6565934 C24.1787601,31.6565934 22.021978,29.4998113 22.021978,26.8392857 C22.021978,24.1787601 24.1787601,22.021978 26.8392857,22.021978 Z M17.2046703,24.0865385 C18.7249707,24.0865385 19.9574176,25.3189854 19.9574176,26.8392857 C19.9574176,28.359586 18.7249707,29.592033 17.2046703,29.592033 C15.68437,29.592033 14.4519231,28.359586 14.4519231,26.8392857 C14.4519231,25.3189854 15.68437,24.0865385 17.2046703,24.0865385 Z M36.4739011,24.0865385 C37.9942014,24.0865385 39.2266484,25.3189854 39.2266484,26.8392857 C39.2266484,28.359586 37.9942014,29.592033 36.4739011,29.592033 C34.9536008,29.592033 33.7211538,28.359586 33.7211538,26.8392857 C33.7211538,25.3189854 34.9536008,24.0865385 36.4739011,24.0865385 Z" id="Combined-Shape" fill="#2F5BEA" fill-rule="evenodd"></path>
                                        </g>
                                    </g>
                                </g>
                            </g>
                        </g>
                    </g>
                </g>
            </g>
        </g>
    </g>
</svg>