<?xml version="1.0" encoding="UTF-8"?>
<svg width="139px" height="125px" viewBox="0 0 139 125" version="1.1" xmlns="http://www.w3.org/2000/svg" xmlns:xlink="http://www.w3.org/1999/xlink">
    <title>Illustration</title>
    <defs>
        <path d="M14.3591789,4.03111646 C13.20196,4.03647406 11.1029077,4.0729473 8.06371069,4.14108425 C5.7793062,4.19229921 3.94954397,6.04069354 3.91317698,8.3171638 L3.91262527,8.38627737 L3.91262527,114.365938 C3.91262527,116.687631 5.77590846,118.574131 8.08866567,118.612198 L8.15888534,118.612198 L52.1784481,118.612198 C54.5001413,118.612198 56.3866414,116.748915 56.4241392,114.436158 L56.4247081,114.365938 L56.4247081,8.38738623 C56.4247081,6.07904172 54.5806626,4.19351638 52.2728891,4.14217652 L50.1329155,4.0965086 C48.2412828,4.05817455 46.8630555,4.03669432 45.9989349,4.03111646 L45.7869178,4.03111646 L45.6720658,4.03111646 C45.1138447,4.03111646 44.9677094,4.24947507 44.8376167,5.1481759 L44.7763878,5.58507761 C44.7633738,5.67241916 44.7527995,5.73478883 44.7376609,5.81742968 C44.4671746,7.29399165 43.6452694,8.05133605 41.6438413,8.06762561 L18.9504024,8.06779391 C16.8047943,8.05685253 15.8920921,7.31548171 15.5798782,5.87062863 L15.5537069,5.74222995 C15.5399612,5.67128458 15.5285673,5.60544035 15.513821,5.51108838 L15.4533204,5.10822695 C15.3206352,4.2551331 15.1767737,4.03877359 14.6364193,4.03111646 L14.3591789,4.03111646 Z" id="path-1"></path>
    </defs>
    <g id="Homepage" stroke="none" stroke-width="1" fill="none" fill-rule="evenodd">
        <g id="DSK-Home" transform="translate(-653.000000, -1282.000000)">
            <g id="Solution-Outline" transform="translate(0.000000, 1283.000000)">
                <g id="Intro" transform="translate(417.000000, 0.000000)">
                    <g id="Illustration/IVA-Solution" transform="translate(236.000000, 0.000000)">
                        <g id="Illustration">
                            <path d="M105.199027,115.683088 C87.0959086,109.137309 62.6260033,112.505129 53.4796908,115.683088 C39.7602219,120.450026 28.7220065,114.961067 17.7091108,96.0466785 C6.69621516,77.1322897 -8.11031564,64.7246919 5.38516216,30.2403223 C18.88064,-4.2440473 59.9290377,9.97543522 84.9156043,6.65255369 C109.90217,3.32967215 139.988936,7.4707985 132.846014,37.817121 C125.70309,68.1634435 138.053227,76.010685 132.531334,97.9536024 C128.850072,112.582214 119.739303,118.492043 105.199027,115.683088 Z" id="Background" fill-opacity="0.5" fill="#CCE4FF" fill-rule="nonzero" transform="translate(67.000000, 61.500000) scale(-1, 1) translate(-67.000000, -61.500000) "></path>
                            <g id="Device" transform="translate(36.500000, 0.000000)">
                                <path d="M51.9459148,1.42108547e-14 C56.4798612,1.42108547e-14 60.155351,3.67548975 60.155351,8.20943613 L60.155351,114.790564 C60.155351,119.32451 56.4798612,123 51.9459148,123 L8.20943613,123 C3.67548975,123 6.14619466e-13,119.32451 6.14619466e-13,114.790564 L6.14619466e-13,8.20943613 C6.14619466e-13,3.67548975 3.67548975,1.42108547e-14 8.20943613,1.42108547e-14 L51.9459148,1.42108547e-14 Z" id="Path" stroke="#2F5BEA" stroke-width="2" fill="#FFFFFF" fill-rule="nonzero"></path>
                                <mask id="mask-2" fill="white">
                                    <use xlink:href="#path-1"></use>
                                </mask>
                                <use id="Mask" fill-opacity="0.25" fill="#CCE4FF" xlink:href="#path-1"></use>
                            </g>
                            <g id="Speech" transform="translate(67.000000, 34.235000)">
                                <path d="M2,0.753328326 C2,-0.871220028 4.69513488,-1.61889164 6.10493207,-0.385442575 L6.10493207,-0.385442575 L15.1249539,6.46437761 C20.742885,2.16902235 27.7649043,-0.382705341 35.3829114,-0.382705341 L35.5,-0.3825 L35.5,-0.3825 C54.0205154,-0.317539983 69,14.7145767 69,33.2352061 L69,35.2347939 C69,53.6716668 54.0539615,68.6177053 35.6170886,68.6177053 L35.5,68.6175 L35.5,68.6175 C16.9794846,68.55254 2,53.5204233 2,34.9997939 Z" id="Shape" stroke="#2F5BEA" stroke-width="2" fill="#5BA0FF" transform="translate(35.500000, 33.808853) scale(1, -1) rotate(-90.000000) translate(-35.500000, -33.808853) "></path>
                                <path d="M35.6923077,26.7692308 C39.5583009,26.7692308 42.6923077,29.9032375 42.6923077,33.7692308 C42.6923077,37.635224 39.5583009,40.7692308 35.6923077,40.7692308 C31.8263144,40.7692308 28.6923077,37.635224 28.6923077,33.7692308 C28.6923077,29.9032375 31.8263144,26.7692308 35.6923077,26.7692308 Z M21.6923077,29.7692308 C23.9014467,29.7692308 25.6923077,31.5600918 25.6923077,33.7692308 C25.6923077,35.9783698 23.9014467,37.7692308 21.6923077,37.7692308 C19.4831687,37.7692308 17.6923077,35.9783698 17.6923077,33.7692308 C17.6923077,31.5600918 19.4831687,29.7692308 21.6923077,29.7692308 Z M49.6923077,29.7692308 C51.9014467,29.7692308 53.6923077,31.5600918 53.6923077,33.7692308 C53.6923077,35.9783698 51.9014467,37.7692308 49.6923077,37.7692308 C47.4831687,37.7692308 45.6923077,35.9783698 45.6923077,33.7692308 C45.6923077,31.5600918 47.4831687,29.7692308 49.6923077,29.7692308 Z" id="Shape" fill="#FFFFFF"></path>
                            </g>
                        </g>
                    </g>
                </g>
            </g>
        </g>
    </g>
</svg>