<svg width="505" height="507" viewBox="0 0 505 507" fill="none" xmlns="http://www.w3.org/2000/svg">
<path fill-rule="evenodd" clip-rule="evenodd" d="M242.501 22.6421C311.294 27.1342 378.718 46.6444 427.802 95.053C477.216 143.787 511.973 211.433 503.81 280.354C496.227 344.378 438.782 385.988 388.554 426.407C345.481 461.07 297.664 494.357 242.501 490.635C189.934 487.088 153.206 444.129 114.911 407.944C74.8544 370.093 33.1678 333.86 19.9639 280.354C2.40504 209.2 -16.5894 124.632 31.3092 69.1621C80.2855 12.4445 167.723 17.7591 242.501 22.6421Z" fill="#CCE4FF"/>
<path d="M338.852 9.15356C356.471 9.15356 370.754 23.7864 370.754 41.8368V466.155C370.754 484.206 356.471 498.839 338.852 498.839H168.891C151.272 498.839 136.989 484.206 136.989 466.155V41.8368C136.989 23.7864 151.272 9.15356 168.891 9.15356H338.852Z" fill="white" stroke="#2F5BEA" stroke-width="2"/>
<path fill-rule="evenodd" clip-rule="evenodd" d="M191.497 25.4786C186.932 25.4977 178.653 25.6432 166.665 25.915C157.655 26.1193 150.438 33.4922 150.294 42.5725L150.292 42.8482V465.578C150.292 474.839 157.641 482.364 166.764 482.514L167.041 482.516H340.668C349.825 482.516 357.266 475.084 357.414 465.859L357.416 465.578V42.8526C357.416 33.6451 350.143 26.1242 341.04 25.9194L332.6 25.7372C325.138 25.5843 319.702 25.4986 316.294 25.4802L315.458 25.4769L315.005 25.4764C312.803 25.4764 312.226 26.3474 311.713 29.9321L311.472 31.6748C311.42 32.0232 311.379 32.272 311.319 32.6016C310.252 38.4913 307.01 41.5122 299.116 41.5772L209.606 41.5778C201.143 41.5342 197.543 38.577 196.311 32.8138L196.208 32.3016C196.154 32.0187 196.109 31.756 196.051 31.3797L195.812 29.7727C195.289 26.3699 194.721 25.5069 192.59 25.4772L191.497 25.4786Z" fill="#EDF3F9"/>
<rect x="259.098" y="132.031" width="78.4156" height="71.8965" rx="7" fill="#99CAFF"/>
<rect x="259.098" y="215.25" width="78.4156" height="71.8965" rx="7" fill="#8B9DFF"/>
<path d="M168.334 138.794C168.334 135.059 171.362 132.031 175.098 132.031H239.986C243.721 132.031 246.75 135.059 246.75 138.794V197.164C246.75 200.899 243.721 203.927 239.986 203.927H175.098C171.362 203.927 168.334 200.899 168.334 197.164V138.794Z" fill="white"/>
<path d="M259.099 305.232C259.099 301.496 262.127 298.468 265.862 298.468H330.751C334.486 298.468 337.514 301.496 337.514 305.232V363.601C337.514 367.337 334.486 370.365 330.751 370.365H265.862C262.127 370.365 259.099 367.337 259.099 363.601V305.232Z" fill="white"/>
<path d="M168.334 222.014C168.334 218.279 171.362 215.25 175.098 215.25H239.986C243.721 215.25 246.75 218.279 246.75 222.014V280.383C246.75 284.119 243.721 287.147 239.986 287.147H175.098C171.362 287.147 168.334 284.119 168.334 280.383V222.014Z" fill="#FACC5F"/>
<path d="M168.334 305.233C168.334 301.497 171.362 298.469 175.098 298.469H239.986C243.721 298.469 246.75 301.497 246.75 305.233V363.602C246.75 367.338 243.721 370.366 239.986 370.366H175.098C171.362 370.366 168.334 367.338 168.334 363.602V305.233Z" fill="#FACC5F"/>
<g filter="url(#filter0_dd)">
<mask id="mask0" mask-type="alpha" maskUnits="userSpaceOnUse" x="150" y="25" width="208" height="458">
<path fill-rule="evenodd" clip-rule="evenodd" d="M191.498 25.4792C186.933 25.4984 178.654 25.6439 166.666 25.9157C157.656 26.12 150.439 33.4928 150.295 42.5732L150.293 42.8489V465.579C150.293 474.84 157.642 482.365 166.765 482.514L167.042 482.517H340.669C349.826 482.517 357.267 475.084 357.415 465.859L357.417 465.579V42.8533C357.417 33.6458 350.144 26.1248 341.041 25.92L332.601 25.7379C325.139 25.585 319.703 25.4993 316.295 25.4808L315.459 25.4776L315.006 25.4771C312.804 25.4771 312.227 26.348 311.714 29.9328L311.473 31.6755C311.421 32.0239 311.38 32.2726 311.32 32.6023C310.253 38.492 307.011 41.5128 299.117 41.5778L209.607 41.5785C201.144 41.5349 197.544 38.5777 196.312 32.8145L196.209 32.3023C196.155 32.0193 196.11 31.7567 196.052 31.3803L195.813 29.7734C195.29 26.3706 194.722 25.5076 192.591 25.4779L191.498 25.4792Z" fill="#CCE4FF"/>
</mask>
<g mask="url(#mask0)">
<g filter="url(#filter1_d)">
<path d="M149.183 315.427C149.183 311.561 152.317 308.427 156.183 308.427H350.835C354.701 308.427 357.835 311.561 357.835 315.427V482.808H149.183V315.427Z" fill="#F6F9FC"/>
<g clip-path="url(#clip0)">
<rect x="228.21" y="343.782" width="119.546" height="32.7437" rx="7" fill="white"/>
<path d="M253.19 359.672C252.299 359.416 251.649 359.102 251.241 358.73C250.837 358.355 250.635 357.893 250.635 357.344C250.635 356.724 250.882 356.211 251.376 355.807C251.875 355.399 252.521 355.195 253.315 355.195C253.856 355.195 254.338 355.3 254.76 355.509C255.186 355.718 255.515 356.007 255.746 356.375C255.98 356.743 256.097 357.146 256.097 357.583H255.053C255.053 357.106 254.901 356.733 254.598 356.462C254.295 356.188 253.867 356.05 253.315 356.05C252.802 356.05 252.402 356.164 252.113 356.391C251.828 356.615 251.685 356.927 251.685 357.328C251.685 357.649 251.82 357.922 252.091 358.146C252.365 358.366 252.829 358.568 253.483 358.752C254.139 358.936 254.652 359.14 255.02 359.364C255.392 359.584 255.666 359.842 255.843 360.138C256.023 360.434 256.114 360.782 256.114 361.183C256.114 361.822 255.865 362.334 255.367 362.72C254.869 363.103 254.203 363.294 253.369 363.294C252.827 363.294 252.322 363.191 251.853 362.986C251.384 362.776 251.021 362.491 250.765 362.13C250.512 361.769 250.386 361.36 250.386 360.901H251.431C251.431 361.378 251.606 361.755 251.956 362.033C252.31 362.307 252.781 362.444 253.369 362.444C253.917 362.444 254.338 362.332 254.63 362.109C254.923 361.885 255.069 361.58 255.069 361.194C255.069 360.807 254.933 360.51 254.663 360.3C254.392 360.087 253.901 359.878 253.19 359.672Z" fill="#2C363F"/>
<path d="M258.296 358.037C258.74 357.492 259.317 357.22 260.028 357.22C261.266 357.22 261.89 357.918 261.901 359.315V363.186H260.9V359.31C260.896 358.887 260.799 358.575 260.607 358.373C260.42 358.171 260.125 358.07 259.725 358.07C259.4 358.07 259.115 358.156 258.869 358.33C258.624 358.503 258.433 358.73 258.296 359.012V363.186H257.294V354.87H258.296V358.037Z" fill="#2C363F"/>
<path d="M263.136 360.203C263.136 359.629 263.248 359.113 263.471 358.654C263.699 358.196 264.013 357.842 264.413 357.593C264.818 357.344 265.278 357.22 265.794 357.22C266.592 357.22 267.236 357.496 267.727 358.048C268.221 358.6 268.468 359.335 268.468 360.252V360.322C268.468 360.892 268.358 361.405 268.138 361.86C267.922 362.311 267.609 362.663 267.202 362.915C266.797 363.168 266.332 363.294 265.805 363.294C265.011 363.294 264.366 363.018 263.872 362.466C263.381 361.914 263.136 361.183 263.136 360.273V360.203ZM264.143 360.322C264.143 360.972 264.292 361.493 264.592 361.887C264.895 362.28 265.299 362.477 265.805 362.477C266.314 362.477 266.718 362.278 267.017 361.881C267.317 361.481 267.467 360.921 267.467 360.203C267.467 359.56 267.313 359.041 267.007 358.644C266.703 358.243 266.299 358.043 265.794 358.043C265.299 358.043 264.901 358.239 264.597 358.633C264.294 359.026 264.143 359.589 264.143 360.322Z" fill="#2C363F"/>
<path d="M274.911 361.805L276.037 357.328H277.039L275.333 363.186H274.521L273.097 358.747L271.711 363.186H270.899L269.199 357.328H270.195L271.349 361.713L272.713 357.328H273.52L274.911 361.805Z" fill="#2C363F"/>
<path d="M281.754 357.328L281.781 357.978C282.211 357.472 282.79 357.22 283.519 357.22C284.339 357.22 284.896 357.534 285.192 358.162C285.387 357.88 285.64 357.653 285.95 357.48C286.264 357.306 286.634 357.22 287.06 357.22C288.345 357.22 288.998 357.9 289.02 359.261V363.186H288.018V359.32C288.018 358.902 287.923 358.59 287.731 358.384C287.54 358.174 287.219 358.07 286.768 358.07C286.396 358.07 286.087 358.182 285.842 358.405C285.596 358.626 285.454 358.923 285.414 359.299V363.186H284.407V359.347C284.407 358.496 283.99 358.07 283.157 358.07C282.5 358.07 282.05 358.349 281.808 358.909V363.186H280.807V357.328H281.754Z" fill="#2C363F"/>
<path d="M292.967 363.294C292.173 363.294 291.527 363.034 291.028 362.515C290.53 361.991 290.281 361.293 290.281 360.419V360.235C290.281 359.654 290.391 359.136 290.612 358.682C290.835 358.223 291.146 357.866 291.543 357.61C291.943 357.35 292.377 357.22 292.842 357.22C293.604 357.22 294.196 357.471 294.618 357.972C295.04 358.474 295.251 359.192 295.251 360.127V360.544H291.283C291.297 361.121 291.465 361.589 291.786 361.946C292.111 362.3 292.523 362.477 293.021 362.477C293.375 362.477 293.674 362.405 293.92 362.26C294.165 362.116 294.38 361.925 294.564 361.686L295.176 362.163C294.685 362.917 293.948 363.294 292.967 363.294ZM292.842 358.043C292.438 358.043 292.099 358.191 291.824 358.487C291.55 358.779 291.38 359.19 291.315 359.721H294.25V359.645C294.221 359.136 294.084 358.743 293.838 358.465C293.593 358.183 293.261 358.043 292.842 358.043Z" fill="#2C363F"/>
<path d="M304.114 360.322C304.114 361.213 303.91 361.932 303.502 362.477C303.094 363.022 302.542 363.294 301.846 363.294C301.135 363.294 300.575 363.069 300.167 362.618V365.438H299.166V357.328H300.081L300.129 357.978C300.537 357.472 301.104 357.22 301.829 357.22C302.533 357.22 303.089 357.485 303.497 358.016C303.908 358.546 304.114 359.284 304.114 360.23V360.322ZM303.112 360.208C303.112 359.548 302.972 359.026 302.69 358.644C302.409 358.261 302.022 358.07 301.532 358.07C300.925 358.07 300.47 358.339 300.167 358.876V361.675C300.467 362.21 300.925 362.477 301.542 362.477C302.022 362.477 302.403 362.287 302.685 361.908C302.97 361.526 303.112 360.959 303.112 360.208Z" fill="#2C363F"/>
<path d="M309.008 363.186C308.951 363.07 308.904 362.865 308.868 362.569C308.402 363.052 307.846 363.294 307.2 363.294C306.623 363.294 306.148 363.132 305.776 362.807C305.408 362.479 305.224 362.063 305.224 361.562C305.224 360.952 305.455 360.479 305.917 360.143C306.383 359.804 307.036 359.634 307.877 359.634H308.851V359.174C308.851 358.824 308.747 358.546 308.537 358.34C308.328 358.131 308.019 358.026 307.611 358.026C307.254 358.026 306.955 358.117 306.713 358.297C306.471 358.478 306.35 358.696 306.35 358.952H305.343C305.343 358.66 305.446 358.378 305.652 358.108C305.861 357.833 306.142 357.617 306.496 357.458C306.854 357.299 307.245 357.22 307.671 357.22C308.346 357.22 308.875 357.389 309.257 357.729C309.64 358.064 309.838 358.528 309.853 359.12V361.816C309.853 362.354 309.921 362.782 310.059 363.099V363.186H309.008ZM307.346 362.423C307.66 362.423 307.958 362.341 308.239 362.179C308.521 362.017 308.725 361.805 308.851 361.546V360.344H308.066C306.839 360.344 306.225 360.703 306.225 361.421C306.225 361.735 306.33 361.98 306.54 362.157C306.749 362.334 307.018 362.423 307.346 362.423Z" fill="#2C363F"/>
<path d="M312.37 357.328L312.403 358.064C312.85 357.501 313.435 357.22 314.157 357.22C315.395 357.22 316.019 357.918 316.03 359.315V363.186H315.029V359.31C315.025 358.887 314.928 358.575 314.736 358.373C314.549 358.171 314.254 358.07 313.854 358.07C313.529 358.07 313.244 358.156 312.998 358.33C312.753 358.503 312.562 358.73 312.425 359.012V363.186H311.423V357.328H312.37Z" fill="#2C363F"/>
<path d="M318.9 355.91V357.328H319.993V358.102H318.9V361.735C318.9 361.97 318.948 362.147 319.046 362.266C319.143 362.381 319.309 362.439 319.544 362.439C319.659 362.439 319.818 362.417 320.02 362.374V363.186C319.757 363.258 319.501 363.294 319.252 363.294C318.804 363.294 318.467 363.159 318.239 362.888C318.012 362.618 317.898 362.233 317.898 361.735V358.102H316.831V357.328H317.898V355.91H318.9Z" fill="#2C363F"/>
<path d="M324.579 361.632C324.579 361.361 324.476 361.152 324.27 361.004C324.068 360.853 323.713 360.723 323.204 360.614C322.698 360.506 322.296 360.376 321.996 360.225C321.7 360.073 321.48 359.892 321.336 359.683C321.195 359.474 321.125 359.225 321.125 358.936C321.125 358.456 321.327 358.05 321.731 357.718C322.139 357.386 322.659 357.22 323.29 357.22C323.954 357.22 324.492 357.391 324.904 357.734C325.319 358.077 325.526 358.516 325.526 359.05H324.519C324.519 358.775 324.402 358.539 324.167 358.34C323.936 358.142 323.644 358.043 323.29 358.043C322.926 358.043 322.641 358.122 322.435 358.281C322.229 358.44 322.126 358.647 322.126 358.904C322.126 359.145 322.222 359.328 322.413 359.45C322.605 359.573 322.949 359.69 323.447 359.802C323.949 359.914 324.355 360.048 324.666 360.203C324.976 360.358 325.205 360.546 325.353 360.766C325.505 360.982 325.58 361.248 325.58 361.562C325.58 362.085 325.371 362.506 324.952 362.823C324.534 363.137 323.991 363.294 323.323 363.294C322.854 363.294 322.439 363.211 322.078 363.045C321.717 362.879 321.433 362.648 321.228 362.352C321.026 362.053 320.924 361.73 320.924 361.383H321.926C321.944 361.719 322.078 361.986 322.327 362.184C322.579 362.379 322.911 362.477 323.323 362.477C323.702 362.477 324.005 362.401 324.232 362.249C324.463 362.094 324.579 361.888 324.579 361.632Z" fill="#2C363F"/>
<rect x="159.263" y="386.606" width="98.1608" height="32.8574" rx="7" fill="#99CAFF"/>
<path d="M183.723 403.524L183.875 404.564L184.097 403.627L185.656 398.127H186.533L188.054 403.627L188.271 404.58L188.439 403.519L189.662 398.127H190.707L188.796 406.009H187.849L186.224 400.265L186.1 399.664L185.975 400.265L184.292 406.009H183.344L181.438 398.127H182.478L183.723 403.524Z" fill="#2C363F"/>
<path d="M192.71 400.861C193.154 400.316 193.732 400.043 194.443 400.043C195.681 400.043 196.305 400.742 196.316 402.138V406.009H195.314V402.133C195.311 401.711 195.213 401.399 195.022 401.196C194.834 400.994 194.54 400.893 194.14 400.893C193.815 400.893 193.53 400.98 193.284 401.153C193.039 401.326 192.848 401.554 192.71 401.835V406.009H191.709V397.694H192.71V400.861Z" fill="#2C363F"/>
<path d="M201.432 406.009C201.375 405.894 201.328 405.688 201.292 405.392C200.826 405.876 200.27 406.118 199.624 406.118C199.047 406.118 198.572 405.955 198.2 405.63C197.832 405.302 197.648 404.887 197.648 404.385C197.648 403.775 197.879 403.302 198.341 402.967C198.807 402.628 199.46 402.458 200.301 402.458H201.275V401.998C201.275 401.648 201.171 401.37 200.961 401.164C200.752 400.955 200.443 400.85 200.035 400.85C199.678 400.85 199.379 400.94 199.137 401.121C198.895 401.301 198.774 401.519 198.774 401.776H197.767C197.767 401.483 197.87 401.202 198.076 400.931C198.285 400.657 198.566 400.44 198.92 400.281C199.278 400.123 199.669 400.043 200.095 400.043C200.77 400.043 201.299 400.213 201.681 400.552C202.064 400.888 202.262 401.352 202.277 401.944V404.64C202.277 405.178 202.345 405.605 202.483 405.923V406.009H201.432ZM199.77 405.246C200.084 405.246 200.382 405.165 200.664 405.002C200.945 404.84 201.149 404.629 201.275 404.369V403.167H200.49C199.263 403.167 198.65 403.526 198.65 404.245C198.65 404.559 198.754 404.804 198.964 404.981C199.173 405.158 199.442 405.246 199.77 405.246Z" fill="#2C363F"/>
<path d="M205.206 398.733V400.152H206.299V400.926H205.206V404.559C205.206 404.793 205.255 404.97 205.352 405.089C205.449 405.205 205.615 405.262 205.85 405.262C205.966 405.262 206.124 405.241 206.327 405.197V406.009C206.063 406.082 205.807 406.118 205.558 406.118C205.11 406.118 204.773 405.982 204.545 405.712C204.318 405.441 204.204 405.057 204.204 404.559V400.926H203.138V400.152H204.204V398.733H205.206Z" fill="#2C363F"/>
<path d="M211.583 398.733V400.152H212.677V400.926H211.583V404.559C211.583 404.793 211.632 404.97 211.73 405.089C211.827 405.205 211.993 405.262 212.228 405.262C212.343 405.262 212.502 405.241 212.704 405.197V406.009C212.441 406.082 212.184 406.118 211.935 406.118C211.488 406.118 211.15 405.982 210.923 405.712C210.696 405.441 210.582 405.057 210.582 404.559V400.926H209.515V400.152H210.582V398.733H211.583Z" fill="#2C363F"/>
<path d="M215.768 404.542L217.133 400.152H218.205L215.85 406.914C215.485 407.888 214.906 408.375 214.112 408.375L213.922 408.359L213.549 408.289V407.477L213.819 407.498C214.159 407.498 214.422 407.43 214.61 407.293C214.801 407.155 214.958 406.905 215.081 406.54L215.303 405.945L213.213 400.152H214.307L215.768 404.542Z" fill="#2C363F"/>
<path d="M224.052 403.145C224.052 404.037 223.848 404.755 223.44 405.3C223.032 405.845 222.48 406.118 221.783 406.118C221.072 406.118 220.513 405.892 220.105 405.441V408.262H219.104V400.152H220.018L220.067 400.801C220.475 400.296 221.042 400.043 221.767 400.043C222.471 400.043 223.027 400.309 223.435 400.839C223.846 401.37 224.052 402.108 224.052 403.053V403.145ZM223.05 403.032C223.05 402.371 222.91 401.85 222.628 401.467C222.346 401.085 221.96 400.893 221.469 400.893C220.863 400.893 220.408 401.162 220.105 401.7V404.499C220.405 405.033 220.863 405.3 221.48 405.3C221.96 405.3 222.341 405.111 222.623 404.732C222.908 404.349 223.05 403.783 223.05 403.032Z" fill="#2C363F"/>
<path d="M227.76 406.118C226.966 406.118 226.32 405.858 225.822 405.338C225.324 404.815 225.075 404.116 225.075 403.243V403.059C225.075 402.478 225.185 401.96 225.405 401.505C225.629 401.047 225.94 400.689 226.337 400.433C226.737 400.173 227.17 400.043 227.636 400.043C228.398 400.043 228.989 400.294 229.412 400.796C229.834 401.298 230.045 402.016 230.045 402.951V403.367H226.077C226.091 403.945 226.259 404.412 226.58 404.77C226.905 405.123 227.317 405.3 227.815 405.3C228.168 405.3 228.468 405.228 228.713 405.084C228.959 404.939 229.174 404.748 229.358 404.51L229.969 404.986C229.478 405.741 228.742 406.118 227.76 406.118ZM227.636 400.866C227.232 400.866 226.892 401.014 226.618 401.31C226.344 401.602 226.174 402.014 226.109 402.545H229.044V402.469C229.015 401.96 228.878 401.566 228.632 401.288C228.387 401.007 228.055 400.866 227.636 400.866Z" fill="#2C363F"/>
<path d="M232.384 403.79C232.391 403.36 232.44 403.021 232.53 402.772C232.62 402.523 232.804 402.247 233.082 401.944L233.792 401.213C234.095 400.87 234.246 400.502 234.246 400.108C234.246 399.729 234.147 399.433 233.949 399.22C233.75 399.004 233.461 398.896 233.082 398.896C232.714 398.896 232.418 398.993 232.195 399.188C231.971 399.383 231.859 399.644 231.859 399.973H230.857C230.864 399.388 231.072 398.917 231.48 398.56C231.891 398.199 232.425 398.018 233.082 398.018C233.765 398.018 234.295 398.203 234.674 398.571C235.057 398.935 235.248 399.437 235.248 400.076C235.248 400.707 234.956 401.33 234.371 401.944L233.781 402.528C233.517 402.821 233.386 403.241 233.386 403.79H232.384ZM232.341 405.506C232.341 405.344 232.389 405.208 232.487 405.1C232.588 404.988 232.736 404.932 232.931 404.932C233.126 404.932 233.274 404.988 233.375 405.1C233.476 405.208 233.526 405.344 233.526 405.506C233.526 405.668 233.476 405.804 233.375 405.912C233.274 406.017 233.126 406.069 232.931 406.069C232.736 406.069 232.588 406.017 232.487 405.912C232.389 405.804 232.341 405.668 232.341 405.506Z" fill="#2C363F"/>
<rect x="200.746" y="429.543" width="105.525" height="31.0113" rx="15.5056" fill="url(#paint0_linear)"/>
<path d="M224.694 447.925H228.456V449.348H222.922V440.749H224.694V447.925Z" fill="white"/>
<path d="M231.604 449.348H229.832V440.749H231.604V449.348Z" fill="white"/>
<path d="M237.953 447.092C237.953 446.758 237.834 446.502 237.598 446.324C237.362 446.143 236.937 445.954 236.322 445.757C235.708 445.557 235.222 445.36 234.864 445.167C233.887 444.639 233.399 443.928 233.399 443.035C233.399 442.57 233.529 442.157 233.789 441.794C234.053 441.428 234.429 441.143 234.917 440.938C235.409 440.733 235.96 440.631 236.571 440.631C237.185 440.631 237.732 440.743 238.212 440.968C238.693 441.188 239.065 441.501 239.329 441.907C239.596 442.312 239.73 442.773 239.73 443.289H237.958C237.958 442.895 237.834 442.59 237.586 442.373C237.338 442.153 236.99 442.042 236.541 442.042C236.108 442.042 235.771 442.135 235.531 442.32C235.291 442.501 235.171 442.741 235.171 443.041C235.171 443.32 235.311 443.554 235.59 443.743C235.874 443.932 236.289 444.11 236.836 444.275C237.844 444.578 238.579 444.954 239.039 445.403C239.5 445.852 239.73 446.411 239.73 447.08C239.73 447.825 239.449 448.409 238.886 448.835C238.323 449.256 237.565 449.466 236.612 449.466C235.95 449.466 235.348 449.346 234.805 449.106C234.261 448.862 233.846 448.529 233.558 448.108C233.275 447.687 233.133 447.199 233.133 446.643H234.911C234.911 447.592 235.478 448.067 236.612 448.067C237.033 448.067 237.362 447.982 237.598 447.813C237.834 447.639 237.953 447.399 237.953 447.092Z" fill="white"/>
<path d="M247.65 442.184H245.016V449.348H243.244V442.184H240.646V440.749H247.65V442.184Z" fill="white"/>
<path d="M254.082 445.622H250.68V447.925H254.672V449.348H248.908V440.749H254.661V442.184H250.68V444.234H254.082V445.622Z" fill="white"/>
<path d="M262.947 449.348H261.175L257.726 443.69V449.348H255.954V440.749H257.726L261.181 446.419V440.749H262.947V449.348Z" fill="white"/>
<path d="M266.62 449.348H264.848V440.749H266.62V449.348Z" fill="white"/>
<path d="M275.503 449.348H273.731L270.282 443.69V449.348H268.51V440.749H270.282L273.737 446.419V440.749H275.503V449.348Z" fill="white"/>
<path d="M284.096 448.262C283.777 448.644 283.326 448.941 282.743 449.153C282.161 449.362 281.515 449.466 280.806 449.466C280.062 449.466 279.408 449.305 278.845 448.982C278.286 448.655 277.853 448.183 277.546 447.565C277.243 446.947 277.087 446.22 277.079 445.385V444.801C277.079 443.942 277.223 443.2 277.511 442.574C277.802 441.944 278.219 441.464 278.763 441.133C279.31 440.798 279.95 440.631 280.682 440.631C281.702 440.631 282.499 440.875 283.074 441.363C283.649 441.848 283.99 442.554 284.096 443.484H282.371C282.293 442.991 282.117 442.631 281.846 442.403C281.578 442.174 281.208 442.06 280.735 442.06C280.133 442.06 279.674 442.287 279.359 442.739C279.044 443.192 278.885 443.865 278.881 444.759V445.309C278.881 446.21 279.052 446.891 279.395 447.352C279.737 447.813 280.239 448.043 280.901 448.043C281.566 448.043 282.041 447.901 282.324 447.618V446.135H280.712V444.83H284.096V448.262Z" fill="white"/>
</g>
<path opacity="0.25" d="M231.183 320.927H275.247" stroke="#2C363F" stroke-width="3" stroke-linecap="round"/>
</g>
</g>
</g>
<path fill-rule="evenodd" clip-rule="evenodd" d="M186.491 79.0078V77.5896C186.508 76.797 186.76 76.0157 187.246 75.2457L186.091 74.5748C185.656 74.9428 185.289 75.4283 184.992 76.0312C184.695 76.6342 184.546 77.2017 184.546 77.7339V79.0078H186.491ZM189.403 79.0078V77.5896C189.42 76.797 189.672 76.0157 190.159 75.2457L189.004 74.5748C188.568 74.9428 188.202 75.4283 187.905 76.0312C187.607 76.6342 187.459 77.2017 187.459 77.7339V79.0078H189.403ZM199.754 87.1645C198.944 87.7731 197.854 88.0774 196.484 88.0774C195.533 88.0774 194.667 87.9033 193.886 87.5551C193.104 87.207 192.508 86.73 192.098 86.1242C191.688 85.5184 191.482 84.8164 191.482 84.0181H194.038C194.038 85.3826 194.854 86.0648 196.484 86.0648C197.09 86.0648 197.563 85.9416 197.902 85.6954C198.242 85.4491 198.412 85.1051 198.412 84.6636C198.412 84.1823 198.242 83.8129 197.902 83.5553C197.563 83.2977 196.951 83.026 196.068 82.7401C195.185 82.4542 194.486 82.1725 193.971 81.8951C192.566 81.1365 191.864 80.1146 191.864 78.8294C191.864 78.1614 192.053 77.5655 192.429 77.0418C192.806 76.5181 193.346 76.1091 194.051 75.8147C194.756 75.5203 195.547 75.3731 196.425 75.3731C197.308 75.3731 198.095 75.533 198.786 75.8529C199.476 76.1728 200.013 76.6243 200.395 77.2074C200.777 77.7905 200.968 78.4529 200.968 79.1946H198.42C198.42 78.6284 198.242 78.1883 197.885 77.874C197.529 77.5598 197.028 77.4027 196.382 77.4027C195.76 77.4027 195.276 77.5344 194.93 77.7976C194.585 78.0609 194.412 78.4076 194.412 78.8379C194.412 79.2399 194.615 79.5767 195.019 79.8485C195.424 80.1202 196.02 80.375 196.807 80.6128C198.256 81.0487 199.312 81.5894 199.975 82.2348C200.637 82.8802 200.968 83.6841 200.968 84.6466C200.968 85.7166 200.563 86.5559 199.754 87.1645ZM205.17 87.9076V81.3771C205.493 80.8223 206.014 80.5448 206.733 80.5448C207.259 80.5448 207.636 80.6708 207.862 80.9227C208.089 81.1747 208.202 81.5639 208.202 82.0904V87.9076H210.656V82.0225C210.628 79.7069 209.617 78.5492 207.624 78.5492C206.639 78.5492 205.821 78.9398 205.17 79.7211V74.8636H202.716V87.9076H205.17ZM219.894 86.7993C219.107 87.6514 218.051 88.0774 216.726 88.0774C215.401 88.0774 214.344 87.6528 213.554 86.8036C212.765 85.9544 212.37 84.7994 212.37 83.3388V83.2284C212.37 82.3169 212.545 81.5045 212.896 80.7911C213.247 80.0778 213.753 79.5258 214.412 79.1351C215.072 78.7445 215.837 78.5492 216.709 78.5492C217.949 78.5492 218.961 78.9285 219.745 79.6871C220.529 80.4458 220.967 81.4761 221.057 82.7783L221.074 83.4067C221.074 84.8164 220.681 85.9473 219.894 86.7993ZM216.726 86.0987C216.115 86.0987 215.645 85.868 215.317 85.4066C214.988 84.9452 214.824 84.2786 214.824 83.4067C214.824 82.4273 214.988 81.704 215.317 81.237C215.645 80.7699 216.109 80.5363 216.709 80.5363C217.315 80.5363 217.785 80.7713 218.119 81.2412C218.453 81.7111 218.62 82.3735 218.62 83.2284C218.62 84.2304 218.453 84.9594 218.119 85.4151C217.785 85.8709 217.321 86.0987 216.726 86.0987ZM228.257 82.1244L226.516 87.9076H224.469L222.126 78.719H224.495L225.692 84.5616L227.374 78.719H229.149L230.822 84.5701L232.027 78.719H234.397L232.053 87.9076H229.998L228.257 82.1244ZM242.886 87.9076V81.411C243.197 80.8336 243.701 80.5448 244.397 80.5448C244.901 80.5448 245.258 80.6637 245.467 80.9015C245.677 81.1393 245.781 81.5243 245.781 82.0564V87.9076H248.236L248.227 81.5979C248.51 80.8958 249.02 80.5448 249.756 80.5448C250.271 80.5448 250.63 80.6651 250.834 80.9058C251.038 81.1464 251.14 81.5271 251.14 82.048V87.9076H253.603V82.0395C253.603 80.8732 253.359 79.9999 252.872 79.4196C252.386 78.8393 251.644 78.5492 250.647 78.5492C249.453 78.5492 248.533 79.0162 247.887 79.9504C247.446 79.0162 246.633 78.5492 245.45 78.5492C244.341 78.5492 243.46 78.9483 242.809 79.7466L242.733 78.719H240.431V87.9076H242.886ZM262.051 87.6401C261.422 87.9316 260.726 88.0774 259.962 88.0774C258.614 88.0774 257.517 87.6641 256.671 86.8376C255.825 86.011 255.401 84.9098 255.401 83.5341V83.2963C255.401 82.3735 255.58 81.5483 255.936 80.8208C256.293 80.0933 256.798 79.5329 257.452 79.1394C258.106 78.7459 258.852 78.5492 259.69 78.5492C260.947 78.5492 261.936 78.9455 262.658 79.7381C263.38 80.5307 263.741 81.6545 263.741 83.1095V84.1116H257.89C257.969 84.7117 258.208 85.1929 258.607 85.5552C259.006 85.9176 259.512 86.0987 260.123 86.0987C261.068 86.0987 261.807 85.7562 262.339 85.0712L263.545 86.4214C263.177 86.9423 262.679 87.3485 262.051 87.6401ZM261.329 82.4386H257.915C258 81.8272 258.194 81.3573 258.497 81.0289C258.8 80.7005 259.195 80.5363 259.681 80.5363C260.202 80.5363 260.604 80.685 260.887 80.9822C261.17 81.2794 261.318 81.6998 261.329 82.2433V82.4386ZM273.818 89.8183C273.268 91.0185 272.363 91.6187 271.1 91.6187C270.743 91.6187 270.381 91.5649 270.013 91.4573V89.5975L270.387 89.606C270.851 89.606 271.198 89.5352 271.427 89.3937C271.656 89.2522 271.836 89.0172 271.966 88.6889L272.255 87.933L269.036 78.719H271.678L273.384 84.4343L275.083 78.719H277.715L274.021 89.3343L273.818 89.8183ZM283.047 88.0774C283.811 88.0774 284.508 87.9316 285.136 87.6401C285.764 87.3485 286.263 86.9423 286.631 86.4214L285.425 85.0712C284.892 85.7562 284.154 86.0987 283.208 86.0987C282.597 86.0987 282.091 85.9176 281.692 85.5552C281.293 85.1929 281.054 84.7117 280.975 84.1116H286.826V83.1095C286.826 81.6545 286.465 80.5307 285.743 79.7381C285.021 78.9455 284.032 78.5492 282.775 78.5492C281.937 78.5492 281.191 78.7459 280.537 79.1394C279.884 79.5329 279.378 80.0933 279.022 80.8208C278.665 81.5483 278.487 82.3735 278.487 83.2963V83.5341C278.487 84.9098 278.91 86.011 279.756 86.8376C280.603 87.6641 281.699 88.0774 283.047 88.0774ZM281 82.4386H284.414V82.2433C284.403 81.6998 284.256 81.2794 283.973 80.9822C283.689 80.685 283.287 80.5363 282.767 80.5363C282.28 80.5363 281.885 80.7005 281.582 81.0289C281.279 81.3573 281.085 81.8272 281 82.4386ZM291.053 87.9076V74.8636H288.591V87.9076H291.053ZM295.909 74.8636V87.9076H293.446V74.8636H295.909ZM302.149 88.0774C303.474 88.0774 304.53 87.6514 305.317 86.7993C306.104 85.9473 306.497 84.8164 306.497 83.4067L306.48 82.7783C306.39 81.4761 305.952 80.4458 305.168 79.6871C304.384 78.9285 303.372 78.5492 302.132 78.5492C301.26 78.5492 300.495 78.7445 299.835 79.1351C299.176 79.5258 298.67 80.0778 298.319 80.7911C297.968 81.5045 297.793 82.3169 297.793 83.2284V83.3388C297.793 84.7994 298.188 85.9544 298.977 86.8036C299.767 87.6528 300.824 88.0774 302.149 88.0774ZM300.739 85.4066C301.068 85.868 301.538 86.0987 302.149 86.0987C302.744 86.0987 303.208 85.8709 303.542 85.4151C303.876 84.9594 304.043 84.2304 304.043 83.2284C304.043 82.3735 303.876 81.7111 303.542 81.2412C303.208 80.7713 302.738 80.5363 302.132 80.5363C301.532 80.5363 301.068 80.7699 300.739 81.237C300.411 81.704 300.247 82.4273 300.247 83.4067C300.247 84.2786 300.411 84.9452 300.739 85.4066ZM311.939 87.9076L313.68 82.1244L315.421 87.9076H317.476L319.82 78.719H317.45L316.245 84.5701L314.572 78.719H312.797L311.115 84.5616L309.918 78.719H307.549L309.892 87.9076H311.939ZM229.237 107.4V111.731H226.783V99.0097H229.059L229.144 99.9099C229.738 99.1965 230.514 98.8398 231.47 98.8398C232.603 98.8398 233.483 99.2588 234.111 100.097C234.74 100.935 235.054 102.09 235.054 103.562V103.689C235.054 105.104 234.733 106.238 234.09 107.09C233.448 107.942 232.58 108.368 231.487 108.368C230.559 108.368 229.809 108.045 229.237 107.4ZM230.842 106.389C230.072 106.389 229.537 106.087 229.237 105.481V101.719C229.526 101.13 230.055 100.836 230.825 100.836C231.402 100.836 231.843 101.068 232.145 101.532C232.448 101.996 232.6 102.656 232.6 103.511C232.6 105.43 232.014 106.389 230.842 106.389ZM241.897 107.375C241.303 108.037 240.53 108.368 239.579 108.368C238.679 108.368 237.933 108.108 237.341 107.587C236.749 107.066 236.454 106.409 236.454 105.617C236.454 104.643 236.815 103.896 237.536 103.375C238.258 102.854 239.301 102.591 240.666 102.585H241.795V102.058C241.795 101.634 241.686 101.294 241.468 101.039C241.25 100.785 240.906 100.657 240.436 100.657C240.023 100.657 239.699 100.756 239.464 100.954C239.229 101.153 239.112 101.424 239.112 101.77H236.657C236.657 101.237 236.822 100.745 237.15 100.292C237.478 99.8391 237.943 99.4838 238.543 99.2262C239.143 98.9686 239.816 98.8398 240.564 98.8398C241.696 98.8398 242.595 99.1243 243.26 99.6933C243.925 100.262 244.258 101.062 244.258 102.092V106.075C244.264 106.947 244.385 107.607 244.623 108.054V108.198H242.143C242.03 107.977 241.948 107.703 241.897 107.375ZM240.114 106.491C239.74 106.491 239.446 106.392 239.231 106.194C239.015 105.996 238.908 105.744 238.908 105.438L238.916 105.294C238.996 104.445 239.649 104.02 240.878 104.02H241.795V105.6C241.648 105.871 241.422 106.088 241.116 106.249C240.81 106.411 240.476 106.491 240.114 106.491ZM248.791 101.719V108.198H246.337V99.0097H248.647L248.723 100.071C249.38 99.2503 250.26 98.8398 251.364 98.8398C252.338 98.8398 253.063 99.1258 253.538 99.6976C254.014 100.269 254.257 101.124 254.269 102.262V108.198H251.814V102.322C251.814 101.801 251.701 101.423 251.475 101.188C251.248 100.953 250.872 100.836 250.345 100.836C249.654 100.836 249.136 101.13 248.791 101.719ZM259.49 108.368C259.999 108.368 260.494 108.294 260.976 108.147V106.288C260.766 106.327 260.526 106.347 260.254 106.347C259.886 106.347 259.637 106.273 259.506 106.126C259.376 105.979 259.311 105.736 259.311 105.396V100.81H260.882V99.0097H259.311V96.7508H256.857V99.0097H255.515V100.81H256.857V105.761C256.891 107.499 257.768 108.368 259.49 108.368ZM268.778 107.591C268.059 108.109 267.131 108.368 265.993 108.368C265.223 108.368 264.539 108.231 263.942 107.956C263.345 107.682 262.876 107.305 262.537 106.827C262.197 106.348 262.027 105.832 262.027 105.277H264.354C264.376 105.713 264.538 106.047 264.838 106.279C265.138 106.511 265.54 106.627 266.044 106.627C266.514 106.627 266.869 106.538 267.11 106.36C267.35 106.181 267.47 105.948 267.47 105.659C267.47 105.359 267.322 105.123 267.025 104.95C266.727 104.777 266.25 104.623 265.594 104.487C263.408 104.029 262.316 103.1 262.316 101.702C262.316 100.886 262.654 100.206 263.331 99.6593C264.007 99.113 264.892 98.8398 265.984 98.8398C267.151 98.8398 268.083 99.1144 268.783 99.6636C269.482 100.213 269.831 100.926 269.831 101.804H267.377C267.377 101.453 267.264 101.162 267.037 100.933C266.811 100.704 266.457 100.589 265.976 100.589C265.563 100.589 265.243 100.683 265.016 100.869C264.79 101.056 264.677 101.294 264.677 101.583C264.677 101.855 264.805 102.074 265.063 102.241C265.321 102.408 265.755 102.552 266.366 102.674C266.978 102.796 267.493 102.933 267.912 103.086C269.209 103.562 269.857 104.385 269.857 105.557C269.857 106.395 269.497 107.073 268.778 107.591ZM272.505 99.6296C272.975 99.222 273.351 98.721 273.634 98.1265C273.917 97.5321 274.059 96.9801 274.059 96.4705V95.1542H272.106V96.5894C272.089 97.4047 271.837 98.1944 271.35 98.9587L272.505 99.6296ZM276.581 98.1265C276.298 98.721 275.921 99.222 275.451 99.6296L274.296 98.9587C274.783 98.1944 275.035 97.4047 275.052 96.5894V95.1542H277.006V96.4705C277.006 96.9801 276.864 97.5321 276.581 98.1265Z" fill="#2F5BEA"/>
<defs>
<filter id="filter0_dd" x="131.293" y="293.427" width="245.124" height="208.089" filterUnits="userSpaceOnUse" color-interpolation-filters="sRGB">
<feFlood flood-opacity="0" result="BackgroundImageFix"/>
<feColorMatrix in="SourceAlpha" type="matrix" values="0 0 0 0 0 0 0 0 0 0 0 0 0 0 0 0 0 0 127 0"/>
<feOffset dx="4" dy="4"/>
<feGaussianBlur stdDeviation="7.5"/>
<feColorMatrix type="matrix" values="0 0 0 0 0 0 0 0 0 0 0 0 0 0 0 0 0 0 0.15 0"/>
<feBlend mode="normal" in2="BackgroundImageFix" result="effect1_dropShadow"/>
<feColorMatrix in="SourceAlpha" type="matrix" values="0 0 0 0 0 0 0 0 0 0 0 0 0 0 0 0 0 0 127 0"/>
<feOffset dx="-4"/>
<feGaussianBlur stdDeviation="7.5"/>
<feColorMatrix type="matrix" values="0 0 0 0 0 0 0 0 0 0 0 0 0 0 0 0 0 0 0.15 0"/>
<feBlend mode="normal" in2="effect1_dropShadow" result="effect2_dropShadow"/>
<feBlend mode="normal" in="SourceGraphic" in2="effect2_dropShadow" result="shape"/>
</filter>
<filter id="filter1_d" x="134.183" y="289.427" width="238.653" height="204.381" filterUnits="userSpaceOnUse" color-interpolation-filters="sRGB">
<feFlood flood-opacity="0" result="BackgroundImageFix"/>
<feColorMatrix in="SourceAlpha" type="matrix" values="0 0 0 0 0 0 0 0 0 0 0 0 0 0 0 0 0 0 127 0"/>
<feOffset dy="-4"/>
<feGaussianBlur stdDeviation="7.5"/>
<feColorMatrix type="matrix" values="0 0 0 0 0 0 0 0 0 0 0 0 0 0 0 0 0 0 0.1 0"/>
<feBlend mode="normal" in2="BackgroundImageFix" result="effect1_dropShadow"/>
<feBlend mode="normal" in="SourceGraphic" in2="effect1_dropShadow" result="shape"/>
</filter>
<linearGradient id="paint0_linear" x1="200.746" y1="445.049" x2="306.271" y2="445.049" gradientUnits="userSpaceOnUse">
<stop stop-color="#61FAE9"/>
<stop offset="1" stop-color="#2F5BEA"/>
</linearGradient>
<clipPath id="clip0">
<rect width="188.493" height="116.772" fill="white" transform="translate(159.263 343.782)"/>
</clipPath>
</defs>
</svg>
