<svg width="501" height="502" viewBox="0 0 501 502" fill="none" xmlns="http://www.w3.org/2000/svg">
<path fill-rule="evenodd" clip-rule="evenodd" d="M240.58 21.4778C308.828 25.9344 375.718 45.2901 424.414 93.3152C473.436 141.663 507.918 208.773 499.819 277.148C492.296 340.665 435.307 381.946 385.477 422.045C342.745 456.433 295.306 489.457 240.58 485.764C188.43 482.245 151.992 439.626 114.001 403.727C74.2617 366.176 32.9052 330.231 19.8059 277.148C2.38616 206.558 -16.4579 122.66 31.0614 67.6294C79.6497 11.361 166.395 16.6335 240.58 21.4778Z" fill="#CCE4FF"/>
<path d="M336.166 8.09766C353.645 8.09766 367.815 22.6145 367.815 40.522V461.48C367.815 479.387 353.645 493.904 336.166 493.904H167.552C150.072 493.904 135.902 479.387 135.902 461.48V40.522C135.902 22.6145 150.072 8.09766 167.552 8.09766H336.166Z" fill="white" stroke="#2F5BEA" stroke-width="2"/>
<path fill-rule="evenodd" clip-rule="evenodd" d="M189.98 24.2932C185.451 24.3122 177.238 24.4565 165.345 24.7262C156.406 24.9288 149.246 32.2433 149.104 41.2517L149.102 41.5252V460.907C149.102 470.094 156.393 477.56 165.443 477.708L165.718 477.71H337.969C347.054 477.71 354.436 470.337 354.583 461.185L354.585 460.907V41.5296C354.585 32.395 347.37 24.9337 338.339 24.7305L329.965 24.5498C322.563 24.3981 317.17 24.3131 313.789 24.2948L312.959 24.2915L312.51 24.291C310.325 24.291 309.753 25.1551 309.244 28.7114L309.005 30.4403C308.954 30.786 308.912 31.0328 308.853 31.3598C307.795 37.2028 304.578 40.1998 296.747 40.2643L207.946 40.2649C199.55 40.2216 195.978 37.2879 194.756 31.5703L194.654 31.0622C194.6 30.7815 194.556 30.5209 194.498 30.1475L194.261 28.5533C193.742 25.1775 193.179 24.3213 191.065 24.2918L189.98 24.2932Z" fill="#EDF3F9"/>
<rect x="257.045" y="130" width="77.7945" height="71.327" rx="7" fill="#99CAFF"/>
<rect x="257.045" y="212.561" width="77.7945" height="71.327" rx="7" fill="#8B9DFF"/>
<path d="M167 136.71C167 133.004 170.004 130 173.71 130H238.085C241.79 130 244.795 133.004 244.795 136.71V194.617C244.795 198.323 241.79 201.327 238.085 201.327H173.71C170.004 201.327 167 198.323 167 194.617V136.71Z" fill="white"/>
<path d="M257.046 301.829C257.046 298.123 260.05 295.119 263.756 295.119H328.13C331.836 295.119 334.84 298.123 334.84 301.829V359.736C334.84 363.442 331.836 366.446 328.13 366.446H263.756C260.05 366.446 257.046 363.442 257.046 359.736V301.829Z" fill="white"/>
<path d="M167 219.271C167 215.565 170.004 212.561 173.71 212.561H238.085C241.79 212.561 244.795 215.565 244.795 219.271V277.178C244.795 280.883 241.79 283.888 238.085 283.888H173.71C170.004 283.888 167 280.883 167 277.178V219.271Z" fill="#FACC5F"/>
<path d="M167 301.83C167 298.124 170.004 295.12 173.71 295.12H238.085C241.79 295.12 244.795 298.124 244.795 301.83V359.737C244.795 363.443 241.79 366.447 238.085 366.447H173.71C170.004 366.447 167 363.443 167 359.737V301.83Z" fill="#FACC5F"/>
<g filter="url(#filter0_dd)">
<mask id="mask0" mask-type="alpha" maskUnits="userSpaceOnUse" x="149" y="24" width="206" height="454">
<path fill-rule="evenodd" clip-rule="evenodd" d="M189.98 24.2932C185.451 24.3122 177.238 24.4565 165.345 24.7262C156.406 24.9288 149.246 32.2433 149.104 41.2517L149.102 41.5252V460.907C149.102 470.094 156.393 477.56 165.443 477.708L165.718 477.71H337.969C347.054 477.71 354.436 470.337 354.583 461.185L354.585 460.907V41.5296C354.585 32.395 347.37 24.9337 338.339 24.7305L329.965 24.5498C322.563 24.3981 317.17 24.3131 313.789 24.2948L312.959 24.2915L312.51 24.291C310.325 24.291 309.753 25.1551 309.244 28.7114L309.005 30.4403C308.954 30.786 308.912 31.0328 308.853 31.3598C307.795 37.2028 304.578 40.1998 296.747 40.2643L207.946 40.2649C199.55 40.2216 195.978 37.2879 194.756 31.5703L194.654 31.0622C194.6 30.7815 194.556 30.5209 194.498 30.1475L194.261 28.5533C193.742 25.1775 193.179 24.3213 191.065 24.2918L189.98 24.2932Z" fill="#EDF3F9"/>
</mask>
<g mask="url(#mask0)">
<path d="M148 312C148 308.134 151.134 305 155 305H348C351.866 305 355 308.134 355 312V478H148V312Z" fill="#F6F9FC"/>
<g clip-path="url(#clip0)">
<rect x="226.4" y="340.074" width="118.599" height="32.4844" rx="7" fill="white"/>
<path d="M251.183 355.838C250.298 355.584 249.654 355.273 249.249 354.904C248.848 354.531 248.647 354.073 248.647 353.529C248.647 352.913 248.893 352.404 249.383 352.003C249.877 351.599 250.518 351.396 251.306 351.396C251.843 351.396 252.321 351.5 252.74 351.708C253.163 351.916 253.489 352.202 253.718 352.567C253.951 352.933 254.067 353.332 254.067 353.765H253.03C253.03 353.292 252.88 352.922 252.579 352.653C252.278 352.381 251.854 352.245 251.306 352.245C250.798 352.245 250.4 352.358 250.114 352.583C249.831 352.806 249.689 353.115 249.689 353.513C249.689 353.831 249.824 354.102 250.092 354.324C250.364 354.542 250.825 354.743 251.473 354.925C252.124 355.108 252.633 355.31 252.998 355.532C253.367 355.751 253.639 356.007 253.814 356.3C253.993 356.594 254.083 356.939 254.083 357.337C254.083 357.971 253.836 358.479 253.342 358.862C252.848 359.242 252.187 359.432 251.36 359.432C250.823 359.432 250.321 359.33 249.856 359.125C249.39 358.918 249.031 358.635 248.776 358.277C248.526 357.919 248.4 357.512 248.4 357.058H249.437C249.437 357.53 249.611 357.904 249.958 358.18C250.309 358.452 250.776 358.588 251.36 358.588C251.904 358.588 252.321 358.477 252.611 358.255C252.901 358.033 253.046 357.731 253.046 357.348C253.046 356.965 252.912 356.669 252.644 356.461C252.375 356.25 251.888 356.042 251.183 355.838Z" fill="#2C363F"/>
<path d="M256.248 354.216C256.688 353.676 257.261 353.405 257.966 353.405C259.194 353.405 259.814 354.098 259.825 355.484V359.324H258.831V355.479C258.827 355.06 258.731 354.75 258.541 354.549C258.355 354.349 258.063 354.249 257.666 354.249C257.343 354.249 257.06 354.334 256.817 354.506C256.573 354.678 256.384 354.904 256.248 355.183V359.324H255.254V351.074H256.248V354.216Z" fill="#2C363F"/>
<path d="M261.049 356.365C261.049 355.795 261.16 355.283 261.382 354.829C261.608 354.374 261.919 354.023 262.317 353.776C262.718 353.529 263.174 353.405 263.687 353.405C264.478 353.405 265.117 353.679 265.604 354.227C266.095 354.775 266.34 355.504 266.34 356.413V356.483C266.34 357.049 266.231 357.557 266.012 358.008C265.797 358.456 265.488 358.805 265.083 359.056C264.682 359.306 264.22 359.432 263.697 359.432C262.91 359.432 262.27 359.158 261.78 358.61C261.293 358.062 261.049 357.337 261.049 356.435V356.365ZM262.048 356.483C262.048 357.127 262.197 357.645 262.494 358.035C262.795 358.425 263.196 358.621 263.697 358.621C264.202 358.621 264.603 358.424 264.9 358.03C265.198 357.632 265.346 357.077 265.346 356.365C265.346 355.727 265.194 355.212 264.89 354.818C264.589 354.42 264.188 354.222 263.687 354.222C263.196 354.222 262.8 354.417 262.5 354.807C262.199 355.197 262.048 355.756 262.048 356.483Z" fill="#2C363F"/>
<path d="M272.731 357.955L273.849 353.513H274.842L273.15 359.324H272.345L270.932 354.92L269.557 359.324H268.751L267.065 353.513H268.053L269.197 357.863L270.551 353.513H271.351L272.731 357.955Z" fill="#2C363F"/>
<path d="M279.521 353.513L279.547 354.157C279.973 353.656 280.548 353.405 281.271 353.405C282.084 353.405 282.638 353.717 282.931 354.34C283.125 354.061 283.375 353.835 283.683 353.663C283.995 353.491 284.362 353.405 284.784 353.405C286.059 353.405 286.707 354.08 286.729 355.43V359.324H285.735V355.489C285.735 355.074 285.64 354.764 285.45 354.56C285.26 354.352 284.942 354.249 284.494 354.249C284.125 354.249 283.819 354.36 283.576 354.582C283.332 354.8 283.191 355.095 283.151 355.468V359.324H282.152V355.516C282.152 354.671 281.739 354.249 280.912 354.249C280.26 354.249 279.814 354.526 279.574 355.081V359.324H278.581V353.513H279.521Z" fill="#2C363F"/>
<path d="M290.644 359.432C289.856 359.432 289.215 359.174 288.721 358.658C288.227 358.139 287.98 357.446 287.98 356.58V356.397C287.98 355.82 288.089 355.307 288.308 354.855C288.53 354.401 288.838 354.046 289.231 353.792C289.629 353.534 290.059 353.405 290.521 353.405C291.276 353.405 291.863 353.654 292.282 354.152C292.701 354.65 292.911 355.362 292.911 356.29V356.703H288.974C288.988 357.276 289.154 357.74 289.473 358.094C289.795 358.445 290.204 358.621 290.698 358.621C291.049 358.621 291.346 358.549 291.589 358.406C291.833 358.263 292.046 358.073 292.229 357.836L292.835 358.309C292.348 359.057 291.618 359.432 290.644 359.432ZM290.521 354.222C290.119 354.222 289.783 354.368 289.511 354.662C289.239 354.952 289.07 355.36 289.006 355.887H291.917V355.812C291.888 355.307 291.752 354.916 291.509 354.641C291.265 354.361 290.936 354.222 290.521 354.222Z" fill="#2C363F"/>
<path d="M301.703 356.483C301.703 357.367 301.501 358.08 301.096 358.621C300.692 359.161 300.144 359.432 299.453 359.432C298.747 359.432 298.192 359.208 297.788 358.76V361.559H296.794V353.513H297.702L297.75 354.157C298.155 353.656 298.717 353.405 299.437 353.405C300.135 353.405 300.686 353.668 301.091 354.195C301.499 354.721 301.703 355.453 301.703 356.392V356.483ZM300.709 356.37C300.709 355.715 300.57 355.197 300.291 354.818C300.011 354.438 299.628 354.249 299.141 354.249C298.54 354.249 298.088 354.515 297.788 355.049V357.826C298.085 358.356 298.54 358.621 299.152 358.621C299.628 358.621 300.006 358.433 300.285 358.057C300.568 357.677 300.709 357.115 300.709 356.37Z" fill="#2C363F"/>
<path d="M306.559 359.324C306.501 359.21 306.455 359.006 306.419 358.712C305.957 359.192 305.406 359.432 304.765 359.432C304.192 359.432 303.721 359.271 303.352 358.948C302.987 358.622 302.804 358.211 302.804 357.713C302.804 357.108 303.033 356.639 303.492 356.306C303.954 355.969 304.602 355.801 305.436 355.801H306.403V355.344C306.403 354.997 306.299 354.721 306.091 354.517C305.884 354.309 305.577 354.206 305.173 354.206C304.818 354.206 304.521 354.295 304.281 354.474C304.041 354.653 303.921 354.87 303.921 355.124H302.922C302.922 354.834 303.024 354.555 303.229 354.286C303.436 354.014 303.715 353.799 304.066 353.642C304.421 353.484 304.809 353.405 305.232 353.405C305.902 353.405 306.426 353.574 306.806 353.91C307.185 354.243 307.382 354.703 307.396 355.291V357.965C307.396 358.499 307.465 358.923 307.601 359.238V359.324H306.559ZM304.91 358.567C305.221 358.567 305.517 358.486 305.796 358.325C306.075 358.164 306.278 357.955 306.403 357.697V356.504H305.624C304.407 356.504 303.798 356.861 303.798 357.573C303.798 357.885 303.902 358.128 304.109 358.304C304.317 358.479 304.584 358.567 304.91 358.567Z" fill="#2C363F"/>
<path d="M309.894 353.513L309.926 354.243C310.37 353.685 310.95 353.405 311.667 353.405C312.895 353.405 313.514 354.098 313.525 355.484V359.324H312.531V355.479C312.528 355.06 312.431 354.75 312.241 354.549C312.055 354.349 311.763 354.249 311.366 354.249C311.043 354.249 310.761 354.334 310.517 354.506C310.274 354.678 310.084 354.904 309.948 355.183V359.324H308.954V353.513H309.894Z" fill="#2C363F"/>
<path d="M316.372 352.105V353.513H317.457V354.281H316.372V357.885C316.372 358.118 316.42 358.293 316.517 358.411C316.613 358.526 316.778 358.583 317.011 358.583C317.125 358.583 317.283 358.562 317.483 358.519V359.324C317.222 359.396 316.968 359.432 316.721 359.432C316.277 359.432 315.942 359.297 315.716 359.029C315.491 358.76 315.378 358.379 315.378 357.885V354.281H314.32V353.513H315.378V352.105H316.372Z" fill="#2C363F"/>
<path d="M322.006 357.783C322.006 357.514 321.904 357.306 321.7 357.16C321.499 357.009 321.146 356.88 320.642 356.773C320.14 356.666 319.741 356.537 319.444 356.386C319.15 356.236 318.932 356.057 318.789 355.849C318.649 355.641 318.579 355.394 318.579 355.108C318.579 354.632 318.78 354.229 319.181 353.899C319.585 353.57 320.101 353.405 320.728 353.405C321.386 353.405 321.92 353.575 322.328 353.916C322.74 354.256 322.946 354.691 322.946 355.221H321.947C321.947 354.949 321.83 354.714 321.598 354.517C321.368 354.32 321.078 354.222 320.728 354.222C320.366 354.222 320.083 354.3 319.879 354.458C319.675 354.616 319.573 354.821 319.573 355.076C319.573 355.316 319.668 355.496 319.857 355.618C320.047 355.74 320.389 355.856 320.883 355.967C321.381 356.078 321.784 356.211 322.092 356.365C322.4 356.519 322.627 356.705 322.774 356.923C322.924 357.138 323 357.401 323 357.713C323 358.232 322.792 358.649 322.376 358.964C321.961 359.276 321.422 359.432 320.76 359.432C320.294 359.432 319.882 359.349 319.524 359.185C319.166 359.02 318.885 358.791 318.681 358.497C318.481 358.2 318.38 357.879 318.38 357.536H319.374C319.392 357.869 319.524 358.134 319.771 358.331C320.022 358.524 320.352 358.621 320.76 358.621C321.136 358.621 321.437 358.545 321.662 358.395C321.891 358.241 322.006 358.037 322.006 357.783Z" fill="#2C363F"/>
<rect x="158" y="382.559" width="97.3833" height="32.5972" rx="7" fill="#99CAFF"/>
<path d="M182.267 399.343L182.417 400.375L182.637 399.445L184.184 393.988H185.054L186.563 399.445L186.778 400.391L186.945 399.338L188.159 393.988H189.195L187.299 401.809H186.359L184.748 396.11L184.625 395.514L184.501 396.11L182.831 401.809H181.891L180 393.988H181.031L182.267 399.343Z" fill="#2C363F"/>
<path d="M191.183 396.701C191.623 396.16 192.196 395.89 192.901 395.89C194.13 395.89 194.749 396.583 194.76 397.968V401.809H193.766V397.963C193.763 397.544 193.666 397.234 193.476 397.034C193.29 396.833 192.998 396.733 192.601 396.733C192.278 396.733 191.995 396.819 191.752 396.991C191.508 397.163 191.319 397.388 191.183 397.667V401.809H190.189V393.559H191.183V396.701Z" fill="#2C363F"/>
<path d="M199.835 401.809C199.778 401.694 199.732 401.49 199.696 401.196C199.234 401.676 198.682 401.916 198.042 401.916C197.469 401.916 196.998 401.755 196.629 401.433C196.264 401.107 196.081 400.695 196.081 400.197C196.081 399.592 196.31 399.123 196.769 398.79C197.23 398.453 197.879 398.285 198.713 398.285H199.68V397.829C199.68 397.481 199.576 397.206 199.368 397.001C199.16 396.794 198.854 396.69 198.45 396.69C198.095 396.69 197.798 396.779 197.558 396.958C197.318 397.138 197.198 397.354 197.198 397.608H196.199C196.199 397.318 196.301 397.039 196.505 396.771C196.713 396.498 196.992 396.284 197.343 396.126C197.698 395.968 198.086 395.89 198.509 395.89C199.178 395.89 199.703 396.058 200.083 396.395C200.462 396.728 200.659 397.188 200.673 397.775V400.45C200.673 400.983 200.741 401.408 200.877 401.723V401.809H199.835ZM198.187 401.051C198.498 401.051 198.793 400.971 199.073 400.81C199.352 400.648 199.554 400.439 199.68 400.181V398.989H198.901C197.683 398.989 197.075 399.345 197.075 400.058C197.075 400.369 197.179 400.613 197.386 400.788C197.594 400.964 197.861 401.051 198.187 401.051Z" fill="#2C363F"/>
<path d="M203.579 394.59V395.997H204.664V396.765H203.579V400.369C203.579 400.602 203.627 400.777 203.724 400.896C203.821 401.01 203.986 401.067 204.218 401.067C204.333 401.067 204.49 401.046 204.691 401.003V401.809C204.43 401.88 204.175 401.916 203.928 401.916C203.484 401.916 203.149 401.782 202.924 401.513C202.698 401.245 202.585 400.863 202.585 400.369V396.765H201.527V395.997H202.585V394.59H203.579Z" fill="#2C363F"/>
<path d="M209.906 394.59V395.997H210.991V396.765H209.906V400.369C209.906 400.602 209.955 400.777 210.051 400.896C210.148 401.01 210.313 401.067 210.545 401.067C210.66 401.067 210.818 401.046 211.018 401.003V401.809C210.757 401.88 210.502 401.916 210.255 401.916C209.811 401.916 209.477 401.782 209.251 401.513C209.025 401.245 208.913 400.863 208.913 400.369V396.765H207.854V395.997H208.913V394.59H209.906Z" fill="#2C363F"/>
<path d="M214.058 400.353L215.412 395.997H216.475L214.139 402.706C213.777 403.672 213.202 404.156 212.415 404.156L212.227 404.14L211.856 404.07V403.264L212.125 403.286C212.461 403.286 212.722 403.218 212.909 403.082C213.098 402.945 213.254 402.697 213.376 402.335L213.596 401.744L211.523 395.997H212.608L214.058 400.353Z" fill="#2C363F"/>
<path d="M222.276 398.967C222.276 399.852 222.074 400.564 221.669 401.105C221.264 401.646 220.716 401.916 220.025 401.916C219.32 401.916 218.765 401.692 218.36 401.245V404.043H217.367V395.997H218.274L218.323 396.642C218.727 396.14 219.29 395.89 220.009 395.89C220.708 395.89 221.259 396.153 221.664 396.679C222.072 397.206 222.276 397.938 222.276 398.876V398.967ZM221.282 398.854C221.282 398.199 221.143 397.682 220.863 397.302C220.584 396.923 220.201 396.733 219.714 396.733C219.112 396.733 218.661 397 218.36 397.533V400.31C218.658 400.84 219.112 401.105 219.725 401.105C220.201 401.105 220.579 400.917 220.858 400.541C221.141 400.161 221.282 399.599 221.282 398.854Z" fill="#2C363F"/>
<path d="M225.955 401.916C225.167 401.916 224.526 401.658 224.032 401.143C223.538 400.623 223.291 399.931 223.291 399.064V398.881C223.291 398.305 223.4 397.791 223.619 397.34C223.841 396.885 224.149 396.531 224.542 396.276C224.94 396.019 225.37 395.89 225.832 395.89C226.587 395.89 227.174 396.139 227.593 396.636C228.012 397.134 228.222 397.847 228.222 398.774V399.188H224.285C224.299 399.76 224.465 400.224 224.784 400.579C225.106 400.93 225.515 401.105 226.009 401.105C226.36 401.105 226.657 401.033 226.9 400.89C227.144 400.747 227.357 400.557 227.54 400.321L228.146 400.793C227.66 401.542 226.929 401.916 225.955 401.916ZM225.832 396.706C225.431 396.706 225.094 396.853 224.822 397.146C224.55 397.437 224.381 397.845 224.317 398.371H227.228V398.296C227.199 397.791 227.063 397.401 226.82 397.125C226.576 396.846 226.247 396.706 225.832 396.706Z" fill="#2C363F"/>
<path d="M230.542 399.606C230.549 399.18 230.597 398.844 230.687 398.597C230.777 398.35 230.959 398.076 231.235 397.775L231.938 397.05C232.239 396.71 232.39 396.344 232.39 395.954C232.39 395.578 232.291 395.285 232.094 395.073C231.897 394.858 231.611 394.751 231.235 394.751C230.87 394.751 230.576 394.848 230.354 395.041C230.132 395.234 230.021 395.494 230.021 395.82H229.027C229.035 395.24 229.24 394.772 229.645 394.418C230.053 394.06 230.583 393.881 231.235 393.881C231.912 393.881 232.438 394.063 232.814 394.429C233.194 394.79 233.383 395.288 233.383 395.922C233.383 396.549 233.093 397.166 232.513 397.775L231.928 398.355C231.666 398.645 231.536 399.062 231.536 399.606H230.542ZM230.499 401.309C230.499 401.148 230.547 401.014 230.644 400.906C230.744 400.795 230.891 400.74 231.084 400.74C231.278 400.74 231.425 400.795 231.525 400.906C231.625 401.014 231.675 401.148 231.675 401.309C231.675 401.47 231.625 401.604 231.525 401.712C231.425 401.816 231.278 401.868 231.084 401.868C230.891 401.868 230.744 401.816 230.644 401.712C230.547 401.604 230.499 401.47 230.499 401.309Z" fill="#2C363F"/>
<rect x="199.154" y="425.156" width="104.69" height="30.7656" rx="15.3828" fill="url(#paint0_linear)"/>
<path d="M222.912 443.393H226.645V444.805H221.154V436.273H222.912V443.393Z" fill="white"/>
<path d="M229.767 444.805H228.01V436.273H229.767V444.805Z" fill="white"/>
<path d="M236.066 442.566C236.066 442.234 235.949 441.98 235.714 441.805C235.48 441.625 235.058 441.438 234.449 441.242C233.839 441.043 233.357 440.848 233.001 440.656C232.033 440.133 231.548 439.428 231.548 438.541C231.548 438.08 231.677 437.67 231.935 437.311C232.197 436.947 232.57 436.664 233.054 436.461C233.542 436.258 234.089 436.156 234.695 436.156C235.304 436.156 235.847 436.268 236.324 436.49C236.8 436.709 237.169 437.02 237.431 437.422C237.697 437.824 237.83 438.281 237.83 438.793H236.072C236.072 438.402 235.949 438.1 235.703 437.885C235.457 437.666 235.111 437.557 234.666 437.557C234.236 437.557 233.902 437.648 233.664 437.832C233.425 438.012 233.306 438.25 233.306 438.547C233.306 438.824 233.445 439.057 233.722 439.244C234.003 439.432 234.416 439.607 234.959 439.771C235.959 440.072 236.687 440.445 237.144 440.891C237.601 441.336 237.83 441.891 237.83 442.555C237.83 443.293 237.55 443.873 236.992 444.295C236.433 444.713 235.681 444.922 234.736 444.922C234.08 444.922 233.482 444.803 232.943 444.564C232.404 444.322 231.992 443.992 231.707 443.574C231.425 443.156 231.285 442.672 231.285 442.121H233.048C233.048 443.062 233.611 443.533 234.736 443.533C235.154 443.533 235.48 443.449 235.714 443.281C235.949 443.109 236.066 442.871 236.066 442.566Z" fill="white"/>
<path d="M245.687 437.697H243.074V444.805H241.316V437.697H238.738V436.273H245.687V437.697Z" fill="white"/>
<path d="M252.067 441.107H248.692V443.393H252.653V444.805H246.935V436.273H252.642V437.697H248.692V439.73H252.067V441.107Z" fill="white"/>
<path d="M260.862 444.805H259.104L255.682 439.191V444.805H253.925V436.273H255.682L259.11 441.898V436.273H260.862V444.805Z" fill="white"/>
<path d="M264.506 444.805H262.749V436.273H264.506V444.805Z" fill="white"/>
<path d="M273.319 444.805H271.561L268.139 439.191V444.805H266.381V436.273H268.139L271.567 441.898V436.273H273.319V444.805Z" fill="white"/>
<path d="M281.844 443.727C281.527 444.105 281.08 444.4 280.502 444.611C279.924 444.818 279.283 444.922 278.58 444.922C277.842 444.922 277.193 444.762 276.635 444.441C276.08 444.117 275.65 443.648 275.346 443.035C275.045 442.422 274.891 441.701 274.883 440.873V440.293C274.883 439.441 275.025 438.705 275.311 438.084C275.6 437.459 276.014 436.982 276.553 436.654C277.096 436.322 277.731 436.156 278.457 436.156C279.469 436.156 280.26 436.398 280.83 436.883C281.4 437.363 281.738 438.064 281.844 438.986H280.133C280.055 438.498 279.881 438.141 279.611 437.914C279.346 437.688 278.979 437.574 278.51 437.574C277.912 437.574 277.457 437.799 277.145 438.248C276.832 438.697 276.674 439.365 276.67 440.252V440.797C276.67 441.691 276.84 442.367 277.18 442.824C277.52 443.281 278.018 443.51 278.674 443.51C279.334 443.51 279.805 443.369 280.086 443.088V441.617H278.486V440.322H281.844V443.727Z" fill="white"/>
</g>
<path opacity="0.25" d="M230 317.5H274.064" stroke="#2C363F" stroke-width="3" stroke-linecap="round"/>
</g>
</g>
<path fill-rule="evenodd" clip-rule="evenodd" d="M185.013 77.3978V75.9908C185.03 75.2045 185.28 74.4294 185.763 73.6656L184.617 73C184.185 73.3651 183.821 73.8467 183.526 74.4449C183.231 75.043 183.084 75.6061 183.084 76.1341V77.3978H185.013ZM187.903 77.3978V75.9908C187.92 75.2045 188.17 74.4294 188.653 73.6656L187.507 73C187.075 73.3651 186.711 73.8467 186.416 74.4449C186.121 75.043 185.974 75.6061 185.974 76.1341V77.3978H187.903ZM198.171 85.49C197.368 86.0937 196.287 86.3956 194.928 86.3956C193.984 86.3956 193.125 86.2229 192.35 85.8775C191.575 85.5321 190.983 85.0589 190.576 84.4579C190.169 83.8569 189.965 83.1605 189.965 82.3685H192.501C192.501 83.7221 193.31 84.3989 194.928 84.3989C195.529 84.3989 195.998 84.2768 196.335 84.0324C196.672 83.7881 196.84 83.4469 196.84 83.0088C196.84 82.5314 196.672 82.1649 196.335 81.9094C195.998 81.6538 195.391 81.3842 194.515 81.1006C193.639 80.8169 192.945 80.5375 192.434 80.2623C191.041 79.5097 190.345 78.4959 190.345 77.2209C190.345 76.5581 190.531 75.967 190.905 75.4474C191.278 74.9279 191.815 74.5221 192.514 74.23C193.213 73.938 193.998 73.7919 194.869 73.7919C195.745 73.7919 196.526 73.9506 197.211 74.268C197.896 74.5853 198.428 75.0332 198.807 75.6117C199.187 76.1902 199.376 76.8474 199.376 77.5832H196.849C196.849 77.0215 196.672 76.5848 196.318 76.2731C195.964 75.9614 195.467 75.8055 194.827 75.8055C194.209 75.8055 193.729 75.9361 193.386 76.1973C193.043 76.4584 192.872 76.8025 192.872 77.2293C192.872 77.6281 193.073 77.9623 193.474 78.2319C193.876 78.5015 194.467 78.7542 195.248 78.9901C196.686 79.4226 197.733 79.959 198.39 80.5993C199.048 81.2396 199.376 82.0371 199.376 82.992C199.376 84.0535 198.975 84.8862 198.171 85.49ZM203.545 86.2271V79.7484C203.865 79.1979 204.382 78.9227 205.095 78.9227C205.617 78.9227 205.991 79.0477 206.215 79.2976C206.44 79.5476 206.552 79.9337 206.552 80.4561V86.2271H208.987V80.3887C208.959 78.0915 207.957 76.9429 205.98 76.9429C205.002 76.9429 204.191 77.3304 203.545 78.1055V73.2864H201.11V86.2271H203.545ZM218.152 85.1277C217.371 85.973 216.324 86.3956 215.009 86.3956C213.695 86.3956 212.646 85.9744 211.863 85.1319C211.079 84.2894 210.687 83.1436 210.687 81.6945V81.585C210.687 80.6807 210.862 79.8747 211.21 79.167C211.558 78.4594 212.059 77.9117 212.714 77.5242C213.368 77.1366 214.128 76.9429 214.993 76.9429C216.223 76.9429 217.227 77.3192 218.004 78.0718C218.782 78.8244 219.216 79.8467 219.306 81.1385L219.323 81.7619C219.323 83.1605 218.933 84.2824 218.152 85.1277ZM215.009 84.4326C214.403 84.4326 213.937 84.2037 213.611 83.746C213.285 83.2882 213.122 82.6269 213.122 81.7619C213.122 80.7902 213.285 80.0727 213.611 79.6094C213.937 79.146 214.397 78.9143 214.993 78.9143C215.594 78.9143 216.06 79.1474 216.391 79.6136C216.722 80.0797 216.888 80.7369 216.888 81.585C216.888 82.5791 216.722 83.3023 216.391 83.7544C216.06 84.2066 215.599 84.4326 215.009 84.4326ZM226.449 80.4898L224.722 86.2271H222.691L220.366 77.1114H222.717L223.904 82.9077L225.573 77.1114H227.333L228.993 82.9161L230.189 77.1114H232.54L230.215 86.2271H228.176L226.449 80.4898ZM240.962 86.2271V79.7821C241.27 79.2092 241.77 78.9227 242.461 78.9227C242.961 78.9227 243.315 79.0407 243.523 79.2766C243.731 79.5125 243.834 79.8944 243.834 80.4224V86.2271H246.269L246.261 79.9674C246.542 79.271 247.047 78.9227 247.777 78.9227C248.288 78.9227 248.645 79.0421 248.847 79.2808C249.049 79.5195 249.151 79.8972 249.151 80.4139V86.2271H251.594V80.4055C251.594 79.2485 251.352 78.3821 250.869 77.8064C250.386 77.2307 249.65 76.9429 248.662 76.9429C247.477 76.9429 246.564 77.4062 245.924 78.333C245.486 77.4062 244.68 76.9429 243.506 76.9429C242.405 76.9429 241.532 77.3388 240.886 78.1308L240.81 77.1114H238.527V86.2271H240.962ZM259.975 85.9618C259.351 86.251 258.661 86.3956 257.902 86.3956C256.566 86.3956 255.477 85.9856 254.638 85.1656C253.798 84.3456 253.378 83.2531 253.378 81.8883V81.6524C253.378 80.7369 253.555 79.9183 253.909 79.1965C254.263 78.4748 254.764 77.9188 255.413 77.5284C256.062 77.138 256.802 76.9429 257.633 76.9429C258.88 76.9429 259.861 77.336 260.577 78.1224C261.293 78.9087 261.651 80.0236 261.651 81.4671V82.4612H255.847C255.925 83.0566 256.163 83.534 256.559 83.8934C256.955 84.2529 257.456 84.4326 258.062 84.4326C259 84.4326 259.733 84.0928 260.261 83.4132L261.458 84.7528C261.093 85.2695 260.598 85.6725 259.975 85.9618ZM259.259 80.8015H255.872C255.956 80.1949 256.149 79.7287 256.449 79.4029C256.75 79.0772 257.141 78.9143 257.624 78.9143C258.141 78.9143 258.54 79.0617 258.821 79.3566C259.102 79.6515 259.248 80.0685 259.259 80.6077V80.8015ZM271.649 88.1227C271.104 89.3135 270.205 89.9088 268.953 89.9088C268.599 89.9088 268.239 89.8555 267.874 89.7488V87.9037L268.245 87.9121C268.705 87.9121 269.049 87.8419 269.277 87.7015C269.504 87.5611 269.683 87.328 269.812 87.0022L270.098 86.2524L266.905 77.1114H269.525L271.219 82.7813L272.904 77.1114H275.516L271.851 87.6425L271.649 88.1227ZM280.805 86.3956C281.563 86.3956 282.254 86.251 282.877 85.9618C283.501 85.6725 283.995 85.2695 284.36 84.7528L283.164 83.4132C282.636 84.0928 281.903 84.4326 280.965 84.4326C280.358 84.4326 279.857 84.2529 279.461 83.8934C279.065 83.534 278.828 83.0566 278.749 82.4612H284.554V81.4671C284.554 80.0236 284.196 78.9087 283.48 78.1224C282.764 77.336 281.782 76.9429 280.535 76.9429C279.704 76.9429 278.964 77.138 278.315 77.5284C277.666 77.9188 277.165 78.4748 276.811 79.1965C276.457 79.9183 276.281 80.7369 276.281 81.6524V81.8883C276.281 83.2531 276.7 84.3456 277.54 85.1656C278.38 85.9856 279.468 86.3956 280.805 86.3956ZM278.774 80.8015H282.161V80.6077C282.15 80.0685 282.004 79.6515 281.723 79.3566C281.442 79.0617 281.043 78.9143 280.527 78.9143C280.044 78.9143 279.652 79.0772 279.351 79.4029C279.051 79.7287 278.859 80.1949 278.774 80.8015ZM288.748 86.2271V73.2864H286.305V86.2271H288.748ZM293.565 73.2864V86.2271H291.122V73.2864H293.565ZM299.756 86.3956C301.07 86.3956 302.118 85.973 302.898 85.1277C303.679 84.2824 304.069 83.1605 304.069 81.7619L304.052 81.1385C303.963 79.8467 303.529 78.8244 302.751 78.0718C301.973 77.3192 300.969 76.9429 299.739 76.9429C298.874 76.9429 298.114 77.1366 297.46 77.5242C296.806 77.9117 296.304 78.4594 295.956 79.167C295.608 79.8747 295.434 80.6807 295.434 81.585V81.6945C295.434 83.1436 295.826 84.2894 296.609 85.1319C297.393 85.9744 298.441 86.3956 299.756 86.3956ZM298.357 83.746C298.683 84.2037 299.149 84.4326 299.756 84.4326C300.346 84.4326 300.806 84.2066 301.137 83.7544C301.469 83.3023 301.635 82.5791 301.635 81.585C301.635 80.7369 301.469 80.0797 301.137 79.6136C300.806 79.1474 300.34 78.9143 299.739 78.9143C299.144 78.9143 298.683 79.146 298.357 79.6094C298.031 80.0727 297.869 80.7902 297.869 81.7619C297.869 82.6269 298.031 83.2882 298.357 83.746ZM309.468 86.2271L311.195 80.4898L312.922 86.2271H314.961L317.286 77.1114H314.936L313.739 82.9161L312.08 77.1114H310.319L308.651 82.9077L307.463 77.1114H305.112L307.438 86.2271H309.468ZM227.421 105.565V109.862H224.986V97.2413H227.244L227.328 98.1344C227.918 97.4267 228.688 97.0728 229.637 97.0728C230.76 97.0728 231.633 97.4885 232.257 98.3197C232.88 99.151 233.192 100.297 233.192 101.757V101.883C233.192 103.288 232.873 104.412 232.236 105.258C231.598 106.103 230.738 106.526 229.654 106.526C228.732 106.526 227.988 106.205 227.421 105.565ZM229.013 104.563C228.249 104.563 227.719 104.262 227.421 103.661V99.9289C227.707 99.3447 228.233 99.0527 228.996 99.0527C229.569 99.0527 230.006 99.283 230.307 99.7435C230.607 100.204 230.757 100.858 230.757 101.707C230.757 103.611 230.176 104.563 229.013 104.563ZM239.981 105.54C239.391 106.197 238.624 106.526 237.681 106.526C236.788 106.526 236.048 106.267 235.461 105.75C234.874 105.234 234.581 104.582 234.581 103.796C234.581 102.83 234.939 102.088 235.655 101.572C236.371 101.055 237.406 100.794 238.759 100.788H239.88V100.266C239.88 99.8446 239.772 99.5076 239.555 99.2549C239.339 99.0021 238.998 98.8758 238.532 98.8758C238.122 98.8758 237.8 98.9741 237.567 99.1706C237.334 99.3672 237.218 99.6368 237.218 99.9794H234.783C234.783 99.4515 234.946 98.9628 235.271 98.5135C235.597 98.0642 236.058 97.7117 236.653 97.4562C237.248 97.2006 237.917 97.0728 238.658 97.0728C239.782 97.0728 240.673 97.3551 241.333 97.9195C241.993 98.484 242.323 99.2773 242.323 100.3V104.251C242.329 105.116 242.449 105.77 242.685 106.214V106.357H240.225C240.113 106.138 240.031 105.866 239.981 105.54ZM238.212 104.664C237.841 104.664 237.549 104.565 237.335 104.369C237.122 104.172 237.015 103.922 237.015 103.619L237.024 103.476C237.102 102.633 237.751 102.212 238.97 102.212H239.88V103.779C239.734 104.049 239.509 104.264 239.206 104.424C238.903 104.584 238.571 104.664 238.212 104.664ZM246.82 99.9289V106.357H244.385V97.2413H246.677L246.753 98.2944C247.404 97.48 248.278 97.0728 249.373 97.0728C250.339 97.0728 251.058 97.3565 251.53 97.9237C252.002 98.491 252.243 99.3391 252.254 100.468V106.357H249.82V100.527C249.82 100.01 249.707 99.6354 249.483 99.4023C249.258 99.1692 248.884 99.0527 248.362 99.0527C247.677 99.0527 247.163 99.3447 246.82 99.9289ZM257.434 106.526C257.939 106.526 258.431 106.453 258.908 106.307V104.461C258.701 104.501 258.462 104.52 258.192 104.52C257.827 104.52 257.58 104.447 257.451 104.301C257.322 104.155 257.257 103.914 257.257 103.577V99.0274H258.816V97.2413H257.257V95.0003H254.822V97.2413H253.491V99.0274H254.822V103.939C254.856 105.663 255.727 106.526 257.434 106.526ZM266.649 105.755C265.936 106.269 265.015 106.526 263.886 106.526C263.122 106.526 262.444 106.389 261.851 106.117C261.259 105.845 260.794 105.471 260.457 104.996C260.12 104.522 259.951 104.009 259.951 103.459H262.26C262.282 103.891 262.442 104.223 262.74 104.453C263.038 104.683 263.436 104.798 263.936 104.798C264.403 104.798 264.755 104.71 264.994 104.533C265.232 104.356 265.352 104.124 265.352 103.838C265.352 103.54 265.204 103.306 264.909 103.135C264.615 102.963 264.141 102.81 263.49 102.675C261.322 102.22 260.238 101.299 260.238 99.912C260.238 99.1032 260.573 98.4278 261.245 97.8858C261.916 97.3438 262.793 97.0728 263.877 97.0728C265.034 97.0728 265.96 97.3452 266.653 97.89C267.347 98.4349 267.694 99.1425 267.694 100.013H265.259C265.259 99.6649 265.147 99.377 264.922 99.1496C264.697 98.9221 264.346 98.8084 263.869 98.8084C263.459 98.8084 263.142 98.901 262.917 99.0864C262.692 99.2717 262.58 99.5076 262.58 99.7941C262.58 100.064 262.708 100.281 262.963 100.447C263.219 100.613 263.65 100.756 264.256 100.877C264.863 100.997 265.374 101.134 265.79 101.285C267.076 101.757 267.719 102.574 267.719 103.737C267.719 104.568 267.362 105.241 266.649 105.755ZM270.346 97.8563C270.812 97.4519 271.186 96.9549 271.467 96.3651C271.747 95.7754 271.888 95.2278 271.888 94.7223V93.4164H269.95V94.8402C269.933 95.649 269.683 96.4325 269.2 97.1908L270.346 97.8563ZM274.39 96.3651C274.109 96.9549 273.736 97.4519 273.269 97.8563L272.124 97.1908C272.607 96.4325 272.857 95.649 272.873 94.8402V93.4164H274.811V94.7223C274.811 95.2278 274.671 95.7754 274.39 96.3651Z" fill="#2F5BEA"/>
<defs>
<filter id="filter0_dd" x="130.102" y="290" width="243.484" height="206.71" filterUnits="userSpaceOnUse" color-interpolation-filters="sRGB">
<feFlood flood-opacity="0" result="BackgroundImageFix"/>
<feColorMatrix in="SourceAlpha" type="matrix" values="0 0 0 0 0 0 0 0 0 0 0 0 0 0 0 0 0 0 127 0"/>
<feOffset dx="4" dy="4"/>
<feGaussianBlur stdDeviation="7.5"/>
<feColorMatrix type="matrix" values="0 0 0 0 0 0 0 0 0 0 0 0 0 0 0 0 0 0 0.15 0"/>
<feBlend mode="normal" in2="BackgroundImageFix" result="effect1_dropShadow"/>
<feColorMatrix in="SourceAlpha" type="matrix" values="0 0 0 0 0 0 0 0 0 0 0 0 0 0 0 0 0 0 127 0"/>
<feOffset dx="-4"/>
<feGaussianBlur stdDeviation="7.5"/>
<feColorMatrix type="matrix" values="0 0 0 0 0 0 0 0 0 0 0 0 0 0 0 0 0 0 0.15 0"/>
<feBlend mode="normal" in2="effect1_dropShadow" result="effect2_dropShadow"/>
<feBlend mode="normal" in="SourceGraphic" in2="effect2_dropShadow" result="shape"/>
</filter>
<linearGradient id="paint0_linear" x1="199.154" y1="440.539" x2="303.844" y2="440.539" gradientUnits="userSpaceOnUse">
<stop stop-color="#61FAE9"/>
<stop offset="1" stop-color="#2F5BEA"/>
</linearGradient>
<clipPath id="clip0">
<rect width="187" height="115.847" fill="white" transform="translate(158 340.074)"/>
</clipPath>
</defs>
</svg>
