<svg preserveAspectRatio="none" width="1440" height="470" viewBox="0 0 1440 470" fill="none" xmlns="http://www.w3.org/2000/svg">
<g opacity="0.2">
<path d="M1 469C836.667 469 1672.33 469 2508 469" stroke="white" stroke-miterlimit="10"/>
<path d="M1 453.997C424.172 454.085 847.136 451.965 1270.2 449.567C1453.25 448.523 1637.56 448.865 1820.59 451.065C2049.71 453.814 2278.93 451.224 2508 453.997" stroke="white" stroke-miterlimit="10"/>
<path d="M1 439.901C120.901 439.901 240.836 440.405 360.72 440.158C467.859 439.939 574.755 435.202 681.859 434.386C881.375 432.867 1080.86 434.632 1280.35 432.838C1457.43 431.243 1636.33 427.019 1813.28 433.465C1916.42 437.262 2018.49 438.99 2121.71 440.556C2250.55 442.512 2379.22 437.205 2508 439.901" stroke="white" stroke-miterlimit="10"/>
<path d="M1 426.381C119.177 426.381 237.668 427.438 355.81 426.298C466.832 425.223 577.21 417.687 688.144 415.75C888.043 412.256 1086.37 422.238 1286.06 420.459C1461.78 418.92 1635.01 406.426 1810.91 417.604C1913.74 424.138 2013.37 429.254 2116.94 430.747C2247.52 432.6 2377.44 423.582 2508 426.381" stroke="white" stroke-miterlimit="10"/>
<path d="M1 413.094C117.036 413.094 233.925 414.783 349.873 412.454C465.822 410.126 580.117 399.411 695.718 395.951C800.803 392.806 904.408 393.65 1008.94 400.497C1102.62 406.638 1193.62 411.072 1288.07 410.404C1370.85 409.81 1448.41 403.113 1530.17 396.869C1623.73 389.717 1720.05 393.057 1812.74 402.166C1914.76 412.204 2010.99 421.805 2115.17 422.9C2246.58 424.291 2376.5 410.692 2508 413.094" stroke="white" stroke-miterlimit="10"/>
<path d="M1 400.117C114.529 400.117 229.781 402.434 343.118 398.726C464.22 394.773 583.268 380.454 704.109 375.081C807.863 370.409 912.31 373.612 1014.44 384.596C1105.61 394.262 1193.76 402.897 1286.95 402.5C1373.25 402.131 1451.33 390.261 1535.11 380.662C1630.2 369.766 1724.3 373.899 1817.95 387.112C1918.32 401.299 2010.97 416.583 2115.86 416.989C2247.5 417.51 2376.14 398.528 2508 400.126" stroke="white" stroke-miterlimit="10"/>
<path d="M1 386.458C111.848 386.402 225.411 389.282 335.876 384.247C462.688 378.516 586.576 360.833 712.918 353.445C818.944 347.253 916.926 353.012 1019.19 368.568C1106.74 381.894 1191.55 395.239 1283.38 395.267C1374.19 395.267 1454.97 377.527 1541.15 364.578C1639.32 349.831 1729.86 354.123 1825.78 371.937C1923.42 390.063 2013.06 411.463 2118.53 410.992C2249.97 410.352 2376.19 386.025 2508 386.458" stroke="white" stroke-miterlimit="10"/>
<path d="M1 373.751C109.046 373.665 220.905 376.904 328.307 370.635C460.936 362.899 589.457 341.538 721.616 331.895C829.122 324.054 922.44 332.439 1023.05 353.419C1106.06 370.73 1187.59 389.49 1277.93 390.081C1373.41 390.71 1459.49 366.043 1547.79 349.436C1649.76 330.257 1736.83 334.335 1835.37 357.706C1929.21 379.963 2016.71 408.536 2122.63 406.936C2253.61 404.954 2376.5 374.665 2508 373.751" stroke="white" stroke-miterlimit="10"/>
<path d="M1 360.892C106.276 360.777 216.392 364.251 320.884 356.89C459.186 347.148 592.352 322.253 730.01 310.371C839.69 300.898 927.713 311.744 1026.2 338.443C1104.09 359.558 1182.33 383.945 1271.41 385.231C1371.55 386.661 1464.54 354.385 1554.88 334.547C1602.2 324.211 1652.07 314.527 1703.66 316.753C1754.15 318.942 1801.95 330.66 1846.1 343.626C1935.1 369.702 2021.8 405.596 2127.7 402.852C2258.1 399.464 2376.89 363.272 2508 360.921" stroke="white" stroke-miterlimit="10"/>
<path d="M1 347.917C103.72 347.773 212.045 351.316 313.685 343.142C457.266 331.627 594.597 303.659 737.36 289.794C849.55 278.889 932.492 291.866 1028.32 323.902C1100.97 348.193 1175.94 377.88 1264.22 379.895C1368.68 382.273 1469.66 342.607 1561.73 320.159C1609.95 308.395 1663.14 295.991 1717.01 298.722C1767.5 301.281 1814.8 315.26 1857.02 329.755C1941.2 358.668 2027.01 401.589 2133.18 397.76C2263.02 393.063 2377.23 351.583 2508 347.917" stroke="white" stroke-miterlimit="10"/>
<path d="M1 336.222C101.263 336.049 207.984 339.609 307.028 330.79C455.289 317.576 596.308 286.504 743.49 270.709C799.532 264.702 852.649 261.228 907.542 271.764C952.267 280.353 991.613 295.428 1029.57 310.667C1097.46 337.911 1169.14 372.85 1257.22 375.585C1365.5 378.953 1474.59 331.865 1568.15 307.001C1617.21 293.96 1673.67 278.856 1729.59 282.051C1780.31 284.93 1826.98 301.119 1867.39 317.106C1947.09 348.62 2031.88 398.501 2138.62 393.674C2267.99 387.811 2377.46 340.962 2508 336.174" stroke="white" stroke-miterlimit="10"/>
<path d="M1 324.188C99.156 324.006 204.433 327.531 301.196 318.351C453.218 303.927 596.917 270.342 747.807 253.138C804.041 246.728 857.001 242.755 911.616 254.657C955.923 264.371 993.685 281.04 1029.79 297.699C1093.7 327.149 1162.39 366.294 1250.9 369.59C1307.46 371.701 1364.34 355.51 1413.19 341.802C1467.39 326.595 1519.49 309.267 1573.67 294.041C1623.46 280.056 1682.66 262.9 1740.46 266.482C1791.54 269.644 1837.48 287.402 1876.45 304.501C1952.49 337.934 2035.67 393.203 2143.44 387.605C2272.59 380.919 2377.48 329.642 2508 324.15" stroke="white" stroke-miterlimit="10"/>
<path d="M1 312.159C97.3976 311.977 201.56 315.527 296.46 306.135C451.163 290.833 596.534 254.8 749.949 236.448C805.921 229.733 859.282 225.445 913.339 238.252C957.595 248.737 994.225 266.917 1029.03 284.799C1090.27 316.256 1156.36 358.831 1245.95 362.505C1304.07 364.865 1362.6 347.252 1412.21 332.689C1468.22 316.236 1521.9 297.51 1577.9 281.038C1628.39 266.178 1689.33 247.596 1748.67 251.385C1800.29 254.685 1845.46 273.632 1883.36 291.793C1957.05 327.087 2037.69 386.575 2147.18 380.579C2276.33 373.509 2377.22 317.877 2508 312.198" stroke="white" stroke-miterlimit="10"/>
<path d="M1 301.073C96.037 300.92 199.552 304.512 293.057 295.261C449.062 279.825 594.829 242.161 749.423 223.438C804.628 216.769 858.979 212.424 912.269 225.23C956.889 235.949 993.013 254.976 1027.17 273.489C1087.44 306.208 1151.58 350.19 1243.04 353.734C1302.44 356.04 1361.13 338.366 1411.44 323.245C1468.63 306.094 1523.3 286.543 1580.47 269.373C1631.6 254.014 1692.79 235.263 1753.36 238.998C1805.59 242.218 1849.98 261.379 1887.41 280.187C1960.53 316.918 2037.32 377.497 2149.37 371.599C2278.84 364.787 2376.68 306.132 2508 301.092" stroke="white" stroke-miterlimit="10"/>
<path d="M1 289.297C95.6915 288.972 198.879 293.03 291.986 283.555C446.933 267.754 590.841 228.792 744.221 209.545C799.271 202.644 853.589 198.51 906.845 211.22C952.111 222.044 988.95 241.387 1023.61 260.212C1085 293.556 1149.82 338.299 1242.49 342.472C1302.31 345.161 1360.65 327.628 1411.19 312.2C1468.47 294.705 1523.03 274.683 1580.29 257.178C1631.66 241.463 1692.55 222.886 1753.57 226.906C1806.14 230.371 1850.28 249.656 1887.78 268.759C1961.2 306.17 2036.53 366.217 2149.46 360.637C2279.31 354.244 2376.14 293.719 2508 289.297" stroke="white" stroke-miterlimit="10"/>
<path d="M1 278.261C96.0939 277.669 198.97 282.779 292.41 272.665C444.609 256.19 585.282 216.67 735.862 196.785C791.575 189.422 844.466 185.592 898.49 198.361C944.574 209.239 982.72 228.34 1018.65 246.964C1082.08 279.875 1149.63 324.973 1242.3 330.656C1301.76 334.304 1360.31 316.76 1410.42 301.374C1467 284.001 1520.74 264.002 1577.31 246.611C1628.58 230.843 1689.46 212.448 1750.4 217.214C1802.82 221.311 1847.6 240.833 1885.62 259.685C1959.43 296.264 2036.94 355.058 2148.52 349.652C2278.67 343.339 2375.82 282.597 2508 278.261" stroke="white" stroke-miterlimit="10"/>
<path d="M1 266.575C96.6329 265.865 199.23 272.424 293.244 261.675C442.343 244.627 579.342 204.431 726.752 184.008C782.934 176.203 834.589 172.722 889.222 185.379C936.02 196.224 975.697 214.902 1012.97 233.456C1078.52 266.057 1149.19 311.171 1241.77 318.257C1300.69 322.773 1358.79 305.523 1408.44 290.143C1464.06 272.884 1516.68 252.93 1572.27 235.68C1623.38 219.821 1683.69 201.881 1744.35 207.346C1796.82 212.083 1842.4 231.768 1881.28 250.495C1956.05 286.452 2036.1 344.002 2146.83 338.652C2277.56 332.343 2375.25 270.966 2508 266.632" stroke="white" stroke-miterlimit="10"/>
<path d="M1 256.314C97.2912 255.635 199.832 263.905 294.504 252.642C440.186 235.326 573.193 194.833 717.134 174.113C773.54 165.996 824.219 162.946 879.302 175.203C926.934 185.798 968.09 203.888 1006.81 222.055C1075.09 253.981 1148.22 298.317 1241.07 306.684C1299.29 311.923 1356.35 295.468 1405.52 280.236C1459.92 263.37 1511.19 243.645 1565.56 226.759C1616.48 210.935 1675.62 193.934 1735.91 199.987C1788.63 205.293 1835.15 224.847 1875.19 243.262C1951.46 278.324 2034.36 333.953 2144.49 328.646C2276.02 322.307 2374.45 260.693 2508 256.342" stroke="white" stroke-miterlimit="10"/>
<path d="M1 245.572C98.0766 245.035 200.585 255.316 296.112 243.541C438.141 226.036 566.92 185.095 707.156 164.217C763.528 155.805 813.512 153.189 868.875 164.936C917.361 175.226 959.962 192.721 1000.27 210.37C1071.65 241.634 1147.01 284.999 1240.21 294.59C1352.67 306.174 1466.32 245.888 1557.46 217.47C1608.2 201.642 1665.74 185.785 1725.5 192.424C1778.64 198.336 1826.13 217.738 1867.55 235.914C1945.75 270.225 2031.76 323.976 2141.61 318.63C2274.12 312.191 2373.49 249.999 2508 245.572" stroke="white" stroke-miterlimit="10"/>
<path d="M1 235.333C98.9297 235.038 201.456 247.449 297.975 235.333C436.191 217.922 560.531 177.03 696.867 156.209C753.048 147.636 802.544 145.503 858.063 156.504C907.437 166.305 951.519 182.926 993.406 199.919C1067.89 230.114 1145.5 271.786 1239.16 282.501C1349.92 295.151 1458.68 236.953 1548.13 209.158C1597.59 193.814 1655.25 178.345 1713.39 186.251C1767.36 193.585 1814.9 211.368 1858.67 229.466C1939.12 262.708 2028.43 313.982 2138.29 308.61C2271.92 302.085 2372.36 239.791 2508 235.267" stroke="white" stroke-miterlimit="10"/>
<path d="M1 224.247C99.8517 224.247 202.481 239.088 300.08 226.483C434.36 209.137 554.138 167.939 686.451 147.162C916.258 111.048 1036.14 244.373 1238 269.889C1346.81 283.66 1450.07 227.372 1537.9 200.049C1587.14 184.758 1642.57 170.834 1699.97 179.215C1754.62 187.195 1803.28 204.646 1848.8 222.459C1931.76 254.952 2024.54 304.054 2134.62 298.578C2269.49 291.889 2371.11 228.901 2508 224.247" stroke="white" stroke-miterlimit="10"/>
<path d="M1 215.072C100.809 215.475 203.612 232.828 302.376 219.794C432.651 202.605 547.849 161.134 676.035 140.452C901.087 104.154 1038.15 231.628 1236.76 259.087C1343.69 273.886 1440.75 219.862 1526.98 192.95C1576 177.652 1629.01 165.511 1685.59 174.312C1740.97 182.949 1790.87 200.033 1838.22 217.549C1923.84 249.22 2020.15 296.162 2130.7 290.538C2266.9 283.618 2369.79 219.9 2508 215.072" stroke="white" stroke-miterlimit="10"/>
<path d="M1 205.687C101.805 206.498 204.821 226.261 304.826 212.984C431.119 196.215 541.604 154.953 665.826 134.674C886.117 98.7055 1040.15 218.468 1235.54 247.579C1340.56 263.222 1431.02 212.173 1515.74 185.952C1564.59 170.834 1614.98 160.704 1670.69 169.737C1726.84 178.884 1778.03 195.49 1827.26 212.469C1915.64 242.991 2015.5 287.21 2126.61 281.497C2264.15 274.41 2368.4 210.609 2508 205.649" stroke="white" stroke-miterlimit="10"/>
<path d="M2 195.655C103.737 196.887 207.005 219.202 308.289 205.633C430.63 189.229 536.509 147.903 656.675 127.946C872.191 92.1484 1042.62 204.841 1234.73 235.73C1337.8 252.307 1421.44 203.924 1504.68 178.181C1553.3 163.142 1601.21 154.997 1655.98 164.364C1712.88 174.104 1765.39 190.308 1816.45 206.884C1907.55 236.485 2010.89 278.307 2122.65 272.445C2261.58 265.149 2367.07 200.83 2508 195.655" stroke="white" stroke-miterlimit="10"/>
<path d="M2 186.11C104.674 187.744 208.287 212.416 310.734 198.683C429.313 182.784 530.716 141.661 647.051 122.188C858.297 86.8338 1044.52 191.698 1233.51 224.163C1334.7 241.555 1411.53 196.108 1493.41 170.942C1541.82 156.069 1587.38 149.948 1641.1 159.537C1698.79 169.82 1752.62 185.578 1805.5 201.62C1899.29 230.074 2006.07 269.353 2118.59 263.394C2258.9 255.934 2365.7 191.394 2508 186.129" stroke="white" stroke-miterlimit="10"/>
<path d="M2 177.076C105.705 179.104 209.566 206.201 313.27 192.248C428.287 176.771 525.413 135.587 638.133 116.491C845.333 81.384 1046.46 179.181 1232.29 213.44C1331.8 231.784 1401.76 188.762 1482.51 164.046C1530.77 149.284 1573.95 144.998 1626.76 154.884C1685.2 165.78 1740.34 181.257 1794.95 196.867C1891.31 224.403 2001.38 261.453 2114.69 255.328C2256.33 247.661 2364.39 182.514 2508 177.076" stroke="white" stroke-miterlimit="10"/>
<path d="M2 168.684C106.678 171.063 210.833 200.603 315.702 186.404C427.428 171.284 520.533 129.799 629.875 111.014C735.945 92.7854 848.784 113.365 947.858 135.354C1043.4 156.566 1134.22 184.389 1231.19 203.625C1329.45 223.12 1392.12 181.828 1472.26 157.574C1578.67 125.386 1687.67 166.208 1785.07 192.678C1883.76 219.465 1996.93 254.56 2110.99 248.257C2253.88 240.37 2363.12 174.287 2508 168.674" stroke="white" stroke-miterlimit="10"/>
<path d="M2 159.369C107.655 162.011 211.831 193.413 318.043 179.191C426.796 164.615 516.197 123.398 622.6 105.131C727.699 87.064 843.517 106.685 943.064 126.708C1040.54 146.32 1133.32 172.218 1230.27 192.593C1327.22 212.968 1383.85 173.925 1462.97 150.154C1566.97 118.914 1680.51 162.555 1776.23 187.022C1876.99 212.777 1993.04 245.553 2107.73 239.2C2251.74 231.216 2362.06 165.073 2508 159.369" stroke="white" stroke-miterlimit="10"/>
<path d="M2 150.766C108.646 153.626 212.735 186.765 320.182 172.464C426.341 158.345 512.452 117.169 616.035 99.2647C720.332 81.2937 838.795 100.104 938.794 118.456C1037.99 136.675 1132.63 161.005 1229.43 182.618C1275.09 192.809 1308.56 193.229 1352.71 180.082C1388.6 169.394 1418.95 153.874 1454.78 143.11C1502.59 128.733 1540.66 129.134 1590.73 139.821C1650.9 152.682 1709.51 167.469 1768.54 181.836C1870.99 206.7 1989.56 237.551 2104.77 231.144C2249.77 223.078 2361.01 156.533 2508 150.766" stroke="white" stroke-miterlimit="10"/>
<path d="M2 142.853C109.639 145.724 213.415 180.569 322.116 166.17C426.17 152.383 509.34 110.906 610.836 93.3972C714.594 75.4959 835.233 93.5886 935.633 110.619C1036.03 127.65 1132.43 150.804 1228.91 173.767C1273.5 184.377 1306.1 185.88 1349.87 172.753C1384.57 162.343 1413.53 146.977 1448.14 136.491C1495.69 122.082 1533.17 123.612 1582.37 134.692C1642.83 148.307 1702.35 163.118 1762.5 177.135C1866.24 201.303 1987.12 230.542 2102.5 224.093C2248.31 215.951 2360.3 148.766 2508 142.939" stroke="white" stroke-miterlimit="10"/>
<path d="M2 135.387C110.686 138.187 213.905 174.313 323.862 159.845C426.402 146.336 507.007 104.458 607.128 87.4306C710.782 69.78 832.769 87.0855 933.83 102.934C1035.71 118.897 1132.97 141.13 1229.09 165.406C1272.79 176.431 1305.03 178.752 1348.48 165.598C1382.26 155.387 1410.06 140.085 1443.73 129.779C1491.06 115.292 1528.53 117.641 1577 129.165C1637.56 143.546 1697.8 158.426 1758.89 172.175C1863.34 195.693 1986.29 223.477 2101.62 217.063C2248.05 208.914 2360.62 141.207 2509 135.387" stroke="white" stroke-miterlimit="10"/>
<path d="M2 127.02C111.681 129.535 214.016 166.156 325.194 151.798C426.675 138.692 505.541 97.0605 604.463 80.4059C707.79 63.0205 831.382 79.7795 932.706 94.4888C1035.63 109.435 1133.34 130.844 1229 156.173C1271.99 167.56 1304.4 170.313 1347.63 157.207C1380.71 147.176 1407.64 132.021 1440.67 121.895C1487.83 107.433 1525.82 110.166 1573.72 122.095C1634.16 137.146 1694.85 151.978 1756.62 165.359C1861.39 188.049 1985.77 214.317 2100.64 208.063C2247.42 200.082 2360.27 132.704 2509 127.02" stroke="white" stroke-miterlimit="10"/>
<path d="M2 119.258C112.238 121.537 213.859 158.897 325.716 144.273C426.849 131.057 505.245 89.0811 603.854 72.3694C707.076 54.8819 831.225 72.1395 932.584 86.6677C1035.88 101.474 1133.27 122.916 1229.05 148.592C1271.88 160.084 1304.75 162.479 1347.68 149.339C1380.54 139.283 1407.3 124.123 1440.15 114.039C1487.15 99.6157 1525.84 102.297 1573.28 114.68C1633.47 130.386 1694.23 145.47 1756.26 158.839C1860.52 181.316 1986.52 207.528 2100.5 200.978C2247.07 192.569 2360.65 125.722 2509 119.287" stroke="white" stroke-miterlimit="10"/>
<path d="M2 111.641C112.48 113.803 213.802 151.36 325.919 136.584C426.893 123.271 505.688 81.7062 604.364 65.1224C707.584 47.7736 831.452 65.7632 932.652 80.3672C1035.61 95.2295 1132.58 116.605 1229.03 141.031C1320.32 164.147 1365.57 128.598 1440.76 106.429C1487.77 92.5708 1526.69 95.0956 1573.7 107.51C1633.62 123.338 1694.28 138.363 1756.29 151.561C1859.94 173.615 1987.57 199.916 2100.73 192.819C2246.68 183.657 2361.65 119.617 2509 111.785" stroke="white" stroke-miterlimit="10"/>
<path d="M2 103.925C112.813 106.014 213.894 143.921 326.361 128.992C427.337 115.577 506.447 74.3725 605.177 57.91C708.399 40.6617 831.904 59.3761 932.95 74.0563C1035.51 88.9569 1132.12 110.278 1229.12 133.515C1319.65 155.21 1366.52 120.224 1441.77 99.0184C1488.77 85.7372 1528.05 88.1903 1574.64 100.647C1634.28 116.593 1694.76 131.531 1756.76 144.525C1860 166.172 1988.9 192.245 2101.13 184.656C2246.34 174.844 2362.72 113.469 2509 104.375" stroke="white" stroke-miterlimit="10"/>
<path d="M2 97.3724C113.194 99.3868 214.116 137.279 326.998 122.409C427.85 109.126 507.429 68.7348 606.227 52.5822C709.447 35.7645 832.548 54.7866 933.401 69.3524C1035.47 84.0798 1131.87 105.059 1229.22 126.827C1319.11 146.904 1367.57 112.983 1443.01 92.9352C1490.13 80.4217 1529.71 82.8541 1575.95 95.1966C1635.26 111.036 1695.62 125.678 1757.51 138.258C1860.48 159.208 1990.17 184.426 2101.62 176.511C2246.12 166.259 2363.84 108.261 2509 98.1326" stroke="white" stroke-miterlimit="10"/>
<path d="M2 90.0852C113.666 92.0843 214.399 130.343 327.858 115.435C428.625 102.203 508.693 62.1932 607.58 46.3337C710.767 29.7794 833.245 49.2657 934.064 63.8115C1035.58 78.4714 1131.68 99.2714 1229.44 119.767C1318.65 138.473 1368.82 105.383 1444.6 86.3821C1491.89 74.5209 1531.77 77.0435 1577.72 89.3712C1636.57 105.321 1696.96 119.513 1758.62 131.885C1861.52 152.295 1991.57 176.627 2102.38 168.335C2245.94 157.645 2365.11 102.47 2509 91.3608" stroke="white" stroke-miterlimit="10"/>
<path d="M2 82.7606C114.169 84.7708 214.864 123.576 328.878 108.605C429.556 95.4053 510.162 55.7101 609.169 40.0885C712.319 23.816 834.272 43.7163 934.898 58.2754C1035.87 72.8632 1131.71 93.4909 1229.69 112.759C1318.23 130.181 1370.22 97.894 1446.45 79.9465C1493.96 68.7567 1534.15 71.4369 1579.83 83.7753C1638.32 99.7067 1698.49 113.71 1760.01 125.71C1862.96 145.592 1992.99 168.727 2103.21 160.17C2245.84 149.095 2366.37 96.6497 2509 84.608" stroke="white" stroke-miterlimit="10"/>
<path d="M2 75.9268C114.746 77.9472 215.427 117.1 330.088 102.239C430.7 89.1979 511.882 50.0644 610.927 34.8112C714.028 18.9356 835.34 39.0817 935.881 53.521C1036.11 67.8837 1131.92 88.1926 1230 106.098C1317.92 122.156 1371.82 90.9598 1448.58 74.2224C1496.36 63.8047 1536.85 66.6868 1582.34 79.01C1640.44 94.7942 1700.34 108.487 1761.67 120.001C1864.78 139.151 1994.42 160.753 2104.17 151.992C2245.82 140.693 2367.65 91.3236 2509 78.5408" stroke="white" stroke-miterlimit="10"/>
<path d="M2 69.672C115.372 71.7309 216.14 111.079 331.462 96.3618C432.003 83.6079 513.776 45.2698 612.925 30.4951C715.955 15.1484 836.605 35.3469 936.92 49.5593C1036.45 63.6668 1132.15 83.4268 1230.27 99.8792C1317.58 114.511 1373.5 84.6278 1450.84 69.243C1498.91 59.7109 1539.71 62.7993 1585.07 74.9623C1642.78 90.4892 1702.43 103.756 1763.57 114.663C1867.02 132.994 1995.92 152.677 2105.27 143.803C2245.89 132.365 2368.97 86.4103 2509 73.0273" stroke="white" stroke-miterlimit="10"/>
<path d="M2 62.7355C116.053 64.8665 216.804 104.876 332.981 90.2563C433.454 77.6046 515.872 39.6495 615.127 25.2316C718.072 10.2857 837.974 30.6935 938.151 44.8235C1036.99 58.771 1132.6 78.1709 1230.64 93.3376C1317.36 106.776 1375.42 77.9118 1453.36 63.753C1501.76 54.9698 1542.89 58.4159 1588.13 70.4724C1645.44 85.8715 1704.81 98.8236 1765.72 109.215C1869.57 126.829 1997.43 144.607 2106.46 135.564C2246.04 124.045 2370.29 80.9451 2509 66.9111" stroke="white" stroke-miterlimit="10"/>
<path d="M2 56.6017C116.765 58.7703 217.619 98.4469 334.526 84.2847C435.049 72.1498 518.111 35.5094 617.486 21.8376C720.325 7.69431 839.39 27.7306 939.566 41.4024C1037.67 54.8102 1133.21 73.319 1231.14 86.8305C1317.27 98.7203 1377.59 71.6878 1456.18 59.1569C1504.93 51.3875 1546.35 55.1025 1591.56 66.8885C1648.45 81.7489 1707.52 94.0265 1768.16 103.595C1872.41 120.011 1998.98 135.323 2107.78 126.337C2246.25 114.957 2371.62 75.9214 2509 61.665" stroke="white" stroke-miterlimit="10"/>
<path d="M2 50.5369C117.479 52.797 218.455 93.307 336.389 79.222C436.756 67.2253 520.514 30.8922 619.993 17.5891C722.71 3.84732 840.957 24.0642 940.906 37.6152C1038.3 50.8516 1133.77 68.9514 1231.49 81.2246C1317.08 91.9815 1379.79 65.9665 1458.98 54.7519C1508.08 47.7809 1549.83 51.891 1595.06 63.7255C1651.52 78.4546 1710.28 90.3875 1770.62 99.3816C1875.55 115.021 2000.55 128.086 2109.17 119.017C2246.57 107.573 2372.93 71.4117 2509 56.5829" stroke="white" stroke-miterlimit="10"/>
<path d="M2 43.9219C118.314 46.3226 219.482 87.3456 338.251 73.4864C438.601 61.7887 523.09 26.0741 622.639 13.2861C725.27 0.115523 842.628 20.2779 942.438 33.6398C1039.1 46.5808 1134.5 64.046 1231.96 74.9593C1317.04 84.524 1382.23 59.8375 1462.01 50.0911C1511.48 44.0175 1553.54 48.5799 1598.84 60.2871C1654.87 74.7288 1713.3 86.1793 1773.32 94.4809C1878.89 109.134 2002.15 119.722 2110.63 110.617C2246.95 99.1867 2374.21 66.3798 2509 51.1623" stroke="white" stroke-miterlimit="10"/>
<path d="M2 38.2823C119.15 40.8213 220.492 82.4657 340.253 68.8375C440.516 57.4214 525.684 22.2689 625.407 9.99679C727.898 -2.62155 844.352 17.5082 944.005 30.6459C1039.97 43.293 1135.25 60.1143 1232.4 69.6838C1317.04 78.0223 1384.75 54.6996 1465.15 46.3611C1514.96 41.1964 1557.31 46.236 1602.77 57.9022C1658.37 72.0627 1716.46 83.0206 1776.12 90.6022C1882.32 104.221 2003.7 112.223 2112.13 103.105C2247.38 91.7467 2375.45 62.2398 2509 46.6304" stroke="white" stroke-miterlimit="10"/>
<path d="M2 32.9186C119.968 35.5524 221.571 76.9646 342.256 63.8617C442.536 52.9757 528.418 19.1145 628.263 7.62217C730.614 -4.15439 846.145 15.4764 945.729 28.1151C1041.01 40.2138 1136.16 55.9885 1232.99 64.0417C1317.27 71.0432 1387.55 49.5649 1468.53 42.8666C1518.7 38.7074 1561.35 44.1456 1606.98 55.4674C1662.15 69.0561 1719.9 79.2933 1779.18 85.9936C1886.1 98.2439 2005.41 103.436 2113.8 94.5205C2247.85 83.4735 2376.69 57.9118 2509 42.2792" stroke="white" stroke-miterlimit="10"/>
<path d="M2 27.059C120.827 29.8473 222.696 71.786 344.379 59.0245C444.664 48.4709 531.264 15.2301 631.235 4.31481C733.453 -6.81937 848.049 12.6512 947.516 25.0225C1042.16 36.7943 1137.13 51.7921 1233.55 58.5107C1317.54 64.3632 1390.39 44.3217 1471.89 39.1163C1522.38 35.8902 1565.36 41.8475 1611.17 53.0768C1665.91 66.3375 1723.31 76.0316 1782.2 81.9591C1889.79 93.0266 2007 95.4914 2115.4 86.603C2248.49 75.6973 2377.83 53.5717 2509 37.6412" stroke="white" stroke-miterlimit="10"/>
</g>
</svg>
