<svg width="1440" height="646" viewBox="0 0 1440 646" fill="none" xmlns="http://www.w3.org/2000/svg">
<path fill-rule="evenodd" clip-rule="evenodd" d="M0 0H1440V538.856C838.07 419.11 739.278 646.492 471.198 645.994C203.119 645.495 0 505.48 0 505.48L0 0Z" fill="#232B32"/>
<g opacity="0.2">
<path d="M0.57373 645.428C480 645.428 959.426 645.428 1438.85 645.428" stroke="white" stroke-miterlimit="10"/>
<path d="M0.57373 636.841C243.35 636.891 486.006 635.678 728.723 634.305C833.74 633.708 939.476 633.904 1044.48 635.163C1175.93 636.736 1307.44 635.254 1438.85 636.841" stroke="white" stroke-miterlimit="10"/>
<path d="M0.57373 628.773C69.3614 628.773 138.169 629.061 206.947 628.92C268.413 628.795 329.74 626.084 391.186 625.616C505.649 624.747 620.092 625.758 734.545 624.731C836.134 623.818 938.771 621.4 1040.29 625.089C1099.46 627.263 1158.02 628.252 1217.24 629.148C1291.15 630.268 1364.97 627.23 1438.85 628.773" stroke="white" stroke-miterlimit="10"/>
<path d="M0.57373 621.035C68.3726 621.035 136.351 621.64 204.13 620.987C267.824 620.372 331.148 616.059 394.792 614.951C509.475 612.951 623.259 618.664 737.822 617.645C838.631 616.765 938.012 609.614 1038.93 616.012C1097.92 619.751 1155.08 622.68 1214.5 623.534C1289.41 624.595 1363.95 619.433 1438.85 621.035" stroke="white" stroke-miterlimit="10"/>
<path d="M0.57373 613.431C67.1441 613.431 134.204 614.397 200.724 613.064C267.245 611.732 332.816 605.599 399.137 603.619C459.425 601.819 518.864 602.302 578.832 606.22C632.577 609.735 684.785 612.273 738.97 611.891C786.463 611.551 830.96 607.718 877.864 604.144C931.54 600.051 986.804 601.962 1039.98 607.176C1098.51 612.921 1153.71 618.416 1213.48 619.043C1288.87 619.839 1363.41 612.055 1438.85 613.431" stroke="white" stroke-miterlimit="10"/>
<path d="M0.57373 606.003C65.7058 606.003 131.827 607.329 196.849 605.207C266.326 602.944 334.624 594.749 403.951 591.674C463.475 589 523.397 590.833 581.988 597.12C634.295 602.652 684.865 607.594 738.331 607.367C787.842 607.156 832.638 600.362 880.701 594.868C935.255 588.632 989.241 590.998 1042.97 598.56C1100.55 606.68 1153.7 615.427 1213.88 615.66C1289.4 615.958 1363.2 605.093 1438.85 606.008" stroke="white" stroke-miterlimit="10"/>
<path d="M0.57373 598.186C64.1676 598.153 129.32 599.802 192.694 596.92C265.447 593.64 336.522 583.519 409.005 579.291C469.832 575.747 526.045 579.043 584.715 587.947C634.945 595.573 683.596 603.211 736.283 603.227C788.381 603.227 834.726 593.074 884.166 585.663C940.489 577.223 992.427 579.679 1047.46 589.875C1103.47 600.249 1154.9 612.497 1215.41 612.228C1290.82 611.861 1363.23 597.938 1438.85 598.186" stroke="white" stroke-miterlimit="10"/>
<path d="M0.57373 590.913C62.5604 590.864 126.735 592.718 188.352 589.129C264.442 584.702 338.174 572.476 413.995 566.957C475.672 562.469 529.209 567.268 586.93 579.276C634.554 589.184 681.329 599.921 733.157 600.259C787.933 600.619 837.314 586.501 887.974 576.996C946.475 566.019 996.426 568.353 1052.96 581.73C1106.8 594.468 1157 610.822 1217.76 609.906C1292.91 608.771 1363.41 591.436 1438.85 590.913" stroke="white" stroke-miterlimit="10"/>
<path d="M0.57373 583.553C60.971 583.487 124.145 585.475 184.093 581.262C263.437 575.687 339.835 561.438 418.81 554.638C481.735 549.216 532.234 555.423 588.736 570.705C633.422 582.789 678.308 596.747 729.417 597.483C786.867 598.302 840.213 579.829 892.041 568.475C919.188 562.559 947.804 557.016 977.398 558.291C1006.36 559.543 1033.79 566.25 1059.12 573.671C1110.18 588.595 1159.92 609.139 1220.68 607.568C1295.49 605.629 1363.63 584.915 1438.85 583.569" stroke="white" stroke-miterlimit="10"/>
<path d="M0.57373 576.127C59.5044 576.045 121.651 578.072 179.963 573.394C262.336 566.803 341.123 550.796 423.027 542.861C487.391 536.62 534.975 544.047 589.951 562.382C631.632 576.285 674.641 593.276 725.292 594.429C785.221 595.79 843.153 573.088 895.971 560.24C923.638 553.507 954.153 546.408 985.056 547.971C1014.02 549.435 1041.16 557.436 1065.38 565.732C1113.67 582.28 1162.91 606.846 1223.82 604.654C1298.31 601.966 1363.83 578.225 1438.85 576.127" stroke="white" stroke-miterlimit="10"/>
<path d="M0.57373 569.433C58.0949 569.334 119.322 571.372 176.144 566.325C261.202 558.762 342.105 540.978 426.544 531.938C458.696 528.499 489.169 526.511 520.661 532.542C546.321 537.457 568.894 546.086 590.668 554.807C629.621 570.4 670.742 590.397 721.271 591.963C783.397 593.89 845.982 566.94 899.658 552.709C927.804 545.245 960.195 536.601 992.277 538.429C1021.37 540.077 1048.15 549.343 1071.33 558.493C1117.06 576.529 1165.7 605.078 1226.94 602.316C1301.16 598.96 1363.96 572.146 1438.85 569.406" stroke="white" stroke-miterlimit="10"/>
<path d="M0.57373 562.546C56.8863 562.442 117.284 564.459 172.798 559.205C260.013 550.95 342.455 531.727 429.021 521.881C461.282 518.213 491.666 515.938 522.999 522.75C548.418 528.31 570.082 537.851 590.797 547.385C627.464 564.241 666.866 586.645 717.646 588.531C750.097 589.739 782.728 580.473 810.754 572.627C841.847 563.924 871.741 554.006 902.824 545.291C931.39 537.288 965.349 527.468 998.51 529.519C1027.81 531.328 1054.17 541.492 1076.53 551.278C1120.15 570.413 1167.88 602.046 1229.7 598.842C1303.79 595.015 1363.97 565.668 1438.85 562.524" stroke="white" stroke-miterlimit="10"/>
<path d="M0.57373 555.661C55.8776 555.557 115.636 557.589 170.081 552.213C258.835 543.456 342.235 522.833 430.25 512.329C462.361 508.485 492.974 506.031 523.987 513.361C549.377 519.363 570.392 529.767 590.358 540.002C625.496 558.006 663.411 582.374 714.809 584.476C748.149 585.827 781.729 575.746 810.195 567.411C842.326 557.995 873.12 547.277 905.251 537.85C934.217 529.345 969.175 518.709 1003.22 520.878C1032.84 522.767 1058.75 533.611 1080.49 544.005C1122.77 564.205 1169.04 598.253 1231.85 594.821C1305.94 590.774 1363.82 558.934 1438.85 555.683" stroke="white" stroke-miterlimit="10"/>
<path d="M0.57373 549.316C55.097 549.229 114.484 551.285 168.129 545.99C257.629 537.155 341.257 515.599 429.948 504.883C461.619 501.066 492.801 498.579 523.374 505.908C548.972 512.043 569.697 522.933 589.293 533.529C623.871 552.255 660.665 577.428 713.141 579.456C747.219 580.776 780.888 570.66 809.753 562.006C842.563 552.19 873.924 541 906.724 531.173C936.058 522.382 971.165 511.65 1005.91 513.788C1035.88 515.631 1061.34 526.598 1082.82 537.363C1124.77 558.385 1168.82 593.057 1233.1 589.681C1307.38 585.782 1363.51 552.212 1438.85 549.327" stroke="white" stroke-miterlimit="10"/>
<path d="M0.57373 542.577C54.8987 542.39 114.098 544.713 167.514 539.29C256.408 530.246 338.969 507.947 426.964 496.931C458.546 492.982 489.708 490.615 520.262 497.89C546.231 504.085 567.365 515.155 587.252 525.93C622.47 545.014 659.655 570.622 712.821 573.011C747.14 574.55 780.61 564.515 809.606 555.685C842.466 545.671 873.769 534.212 906.62 524.193C936.094 515.199 971.023 504.567 1006.03 506.868C1036.19 508.85 1061.51 519.888 1083.03 530.821C1125.15 552.234 1168.37 586.601 1233.16 583.407C1307.65 579.748 1363.2 545.107 1438.85 542.577" stroke="white" stroke-miterlimit="10"/>
<path d="M0.57373 536.26C55.1296 535.921 114.15 538.846 167.757 533.057C255.075 523.628 335.78 501.009 422.168 489.628C454.13 485.414 484.475 483.222 515.468 490.53C541.907 496.756 563.792 507.688 584.407 518.347C620.795 537.184 659.549 562.995 712.716 566.248C746.826 568.336 780.417 558.294 809.163 549.488C841.625 539.545 872.459 528.099 904.911 518.145C934.326 509.121 969.255 498.593 1004.21 501.32C1034.29 503.665 1059.98 514.838 1081.79 525.628C1124.13 546.564 1168.6 580.214 1232.62 577.12C1307.29 573.507 1363.02 538.742 1438.85 536.26" stroke="white" stroke-miterlimit="10"/>
<path d="M0.57373 529.572C55.4388 529.165 114.299 532.919 168.235 526.767C253.774 517.01 332.371 494.004 416.941 482.315C449.173 477.848 478.808 475.856 510.151 483.1C536.999 489.307 559.762 499.997 581.147 510.616C618.753 529.275 659.295 555.096 712.412 559.151C746.212 561.736 779.542 551.863 808.029 543.061C839.941 533.183 870.125 521.762 902.018 511.889C931.343 502.812 965.942 492.545 1000.74 495.673C1030.85 498.384 1056.99 509.65 1079.3 520.368C1122.2 540.948 1168.12 573.886 1231.65 570.824C1306.65 567.213 1362.69 532.085 1438.85 529.604" stroke="white" stroke-miterlimit="10"/>
<path d="M0.57373 523.699C55.8165 523.31 114.645 528.044 168.959 521.597C252.537 511.687 328.844 488.511 411.424 476.652C443.784 472.006 472.859 470.26 504.46 477.276C531.787 483.339 555.398 493.693 577.611 504.091C616.784 522.363 658.743 547.739 712.008 552.527C745.407 555.526 778.147 546.108 806.353 537.391C837.565 527.737 866.979 516.448 898.171 506.783C927.385 497.726 961.314 487.996 995.902 491.461C1026.15 494.498 1052.83 505.689 1075.8 516.229C1119.56 536.296 1167.12 568.135 1230.31 565.098C1305.76 561.469 1362.24 526.205 1438.85 523.715" stroke="white" stroke-miterlimit="10"/>
<path d="M0.57373 517.551C56.2671 517.244 115.077 523.128 169.881 516.388C251.364 506.369 325.245 482.937 405.699 470.988C438.04 466.173 466.716 464.676 498.478 471.399C526.295 477.289 550.735 487.302 573.858 497.403C614.809 515.297 658.047 540.117 711.513 545.606C776.036 552.236 841.238 517.732 893.525 501.467C922.63 492.408 955.641 483.332 989.93 487.132C1020.41 490.516 1047.66 501.62 1071.42 512.023C1116.29 531.661 1165.63 562.425 1228.65 559.365C1304.67 555.679 1361.68 520.084 1438.85 517.551" stroke="white" stroke-miterlimit="10"/>
<path d="M0.57373 511.691C56.7565 511.522 115.576 518.625 170.95 511.691C250.245 501.725 321.58 478.322 399.796 466.405C432.027 461.498 460.423 460.277 492.275 466.574C520.601 472.183 545.891 481.696 569.922 491.422C612.651 508.703 657.178 532.554 710.914 538.687C774.458 545.927 836.853 512.618 888.172 496.71C916.548 487.927 949.628 479.074 982.978 483.599C1013.94 487.797 1041.22 497.975 1066.33 508.333C1112.48 527.359 1163.72 556.704 1226.75 553.63C1303.41 549.895 1361.04 514.242 1438.85 511.653" stroke="white" stroke-miterlimit="10"/>
<path d="M0.57373 505.345C57.2855 505.345 116.165 513.84 172.157 506.625C249.194 496.698 317.912 473.118 393.82 461.227C525.662 440.557 594.439 516.865 710.25 531.469C772.674 539.35 831.913 507.134 882.303 491.496C910.549 482.745 942.35 474.775 975.281 479.572C1006.63 484.139 1034.55 494.127 1060.67 504.323C1108.26 522.919 1161.49 551.023 1224.64 547.889C1302.02 544.06 1360.32 508.009 1438.85 505.345" stroke="white" stroke-miterlimit="10"/>
<path d="M0.57373 500.095C57.8344 500.325 116.813 510.257 173.474 502.797C248.214 492.959 314.304 469.224 387.845 457.386C516.959 436.611 595.593 509.57 709.536 525.286C770.881 533.756 826.564 502.836 876.034 487.433C904.16 478.677 934.573 471.728 967.034 476.766C998.805 481.709 1027.43 491.487 1054.6 501.512C1103.72 519.639 1158.97 546.505 1222.39 543.286C1300.53 539.326 1359.56 502.858 1438.85 500.095" stroke="white" stroke-miterlimit="10"/>
<path d="M0.57373 494.723C58.4061 495.187 117.507 506.498 174.88 498.899C247.335 489.302 310.721 465.686 381.988 454.08C508.37 433.493 596.737 502.038 708.836 518.699C769.086 527.652 820.985 498.435 869.588 483.428C897.615 474.775 926.522 468.978 958.484 474.147C990.697 479.383 1020.06 488.887 1048.31 498.604C1099.01 516.074 1156.3 541.382 1220.05 538.112C1298.96 534.056 1358.77 497.54 1438.85 494.701" stroke="white" stroke-miterlimit="10"/>
<path d="M1.1474 488.981C59.5142 489.686 118.76 502.458 176.867 494.692C247.055 485.303 307.798 461.651 376.738 450.229C500.381 429.74 598.154 494.239 708.369 511.918C767.504 521.405 815.488 493.714 863.241 478.98C891.137 470.373 918.623 465.711 950.043 471.072C982.691 476.647 1012.81 485.921 1042.11 495.408C1094.37 512.35 1153.66 536.287 1217.78 532.931C1297.48 528.756 1358 491.943 1438.85 488.981" stroke="white" stroke-miterlimit="10"/>
<path d="M1.1474 483.518C60.0517 484.454 119.495 498.574 178.27 490.714C246.299 481.614 304.475 458.078 371.216 446.933C492.41 426.698 599.246 486.717 707.67 505.297C765.726 515.251 809.804 489.24 856.778 474.837C884.553 466.324 910.69 462.821 941.51 468.31C974.607 474.195 1005.49 483.214 1035.83 492.395C1089.63 508.681 1150.89 531.162 1215.45 527.751C1295.94 523.481 1357.22 486.542 1438.85 483.529" stroke="white" stroke-miterlimit="10"/>
<path d="M1.1474 478.348C60.6433 479.509 120.229 495.017 179.725 487.031C245.71 478.173 301.432 454.602 366.1 443.673C484.972 423.579 600.359 479.552 706.971 499.16C764.06 509.659 804.197 485.036 850.524 470.89C878.21 462.441 902.981 459.988 933.283 465.646C966.81 471.883 998.439 480.741 1029.77 489.675C1085.05 505.435 1148.2 526.64 1213.21 523.135C1294.47 518.747 1356.46 481.46 1438.85 478.348" stroke="white" stroke-miterlimit="10"/>
<path d="M1.1474 473.544C61.2015 474.906 120.956 491.813 181.12 483.686C245.218 475.033 298.633 451.289 361.362 440.538C422.215 430.105 486.952 441.883 543.791 454.469C598.604 466.609 650.711 482.533 706.342 493.543C762.712 504.701 798.664 481.067 844.641 467.186C905.694 448.763 968.224 472.128 1024.1 487.278C1080.72 502.609 1145.65 522.695 1211.09 519.087C1293.07 514.574 1355.74 476.751 1438.85 473.539" stroke="white" stroke-miterlimit="10"/>
<path d="M1.1474 468.213C61.7623 469.725 121.529 487.698 182.463 479.558C244.855 471.216 296.145 447.625 357.189 437.171C417.484 426.83 483.93 438.06 541.041 449.52C596.963 460.745 650.189 475.567 705.812 487.229C761.435 498.89 793.924 476.544 839.313 462.939C898.979 445.059 964.117 470.037 1019.03 484.04C1076.84 498.781 1143.42 517.54 1209.21 513.904C1291.83 509.334 1355.12 471.478 1438.85 468.213" stroke="white" stroke-miterlimit="10"/>
<path d="M1.1474 463.289C62.331 464.926 122.047 483.893 183.69 475.708C244.594 467.627 293.996 444.061 353.422 433.813C413.258 423.528 481.221 434.293 538.591 444.797C595.501 455.225 649.796 469.15 705.328 481.519C731.527 487.352 750.727 487.593 776.057 480.068C796.644 473.951 814.057 465.068 834.614 458.908C862.041 450.679 883.887 450.908 912.612 457.025C947.127 464.386 980.754 472.849 1014.62 481.072C1073.4 495.303 1141.42 512.96 1207.52 509.293C1290.71 504.677 1354.53 466.59 1438.85 463.289" stroke="white" stroke-miterlimit="10"/>
<path d="M1.1474 458.761C62.9005 460.403 122.437 480.347 184.799 472.106C244.496 464.215 292.211 440.476 350.44 430.455C409.966 420.209 479.178 430.565 536.777 440.312C594.377 450.059 649.68 463.311 705.033 476.454C730.613 482.527 749.314 483.386 774.425 475.873C794.333 469.915 810.947 461.121 830.806 455.119C858.083 446.872 879.59 447.748 907.815 454.09C942.501 461.882 976.647 470.359 1011.15 478.381C1070.67 492.214 1140.02 508.949 1206.22 505.258C1289.87 500.598 1354.12 462.145 1438.85 458.81" stroke="white" stroke-miterlimit="10"/>
<path d="M1.1474 454.488C63.5011 456.09 122.719 476.766 185.801 468.486C244.629 460.754 290.873 436.786 348.312 427.04C407.779 416.938 477.764 426.843 535.743 435.913C594.191 445.049 649.993 457.775 705.135 471.668C730.205 477.979 748.702 479.307 773.632 471.778C793.008 465.934 808.958 457.176 828.275 451.278C855.431 442.986 876.925 444.331 904.731 450.926C939.478 459.157 974.036 467.674 1009.08 475.542C1069.01 489.003 1139.54 504.905 1205.71 501.234C1289.72 496.57 1354.3 457.818 1439.43 454.488" stroke="white" stroke-miterlimit="10"/>
<path d="M1.1474 449.699C64.0721 451.138 122.782 472.098 186.566 463.88C244.786 456.379 290.032 432.552 346.784 423.02C406.063 413.069 476.968 422.661 535.098 431.08C594.148 439.634 650.201 451.888 705.085 466.384C729.746 472.902 748.343 474.477 773.144 466.976C792.121 461.235 807.572 452.561 826.52 446.766C853.577 438.488 875.371 440.052 902.848 446.88C937.527 455.494 972.345 463.983 1007.78 471.642C1067.89 484.628 1139.25 499.662 1205.15 496.083C1289.36 491.515 1354.1 452.952 1439.43 449.699" stroke="white" stroke-miterlimit="10"/>
<path d="M1.1474 445.256C64.3917 446.561 122.692 467.943 186.865 459.573C244.886 452.009 289.862 427.985 346.434 418.42C405.653 408.411 476.878 418.288 535.028 426.603C594.288 435.077 650.161 447.35 705.115 462.045C729.686 468.623 748.543 469.993 773.173 462.473C792.021 456.717 807.373 448.041 826.22 442.269C853.188 434.014 875.381 435.549 902.599 442.636C937.127 451.625 971.986 460.258 1007.57 467.91C1067.39 480.775 1139.67 495.777 1205.07 492.028C1289.16 487.215 1354.32 448.956 1439.43 445.273" stroke="white" stroke-miterlimit="10"/>
<path d="M1.1474 440.897C64.5302 442.134 122.659 463.629 186.981 455.172C244.911 447.553 290.116 423.764 346.727 414.272C405.945 404.343 477.008 414.639 535.067 422.997C594.135 431.504 649.768 443.738 705.1 457.718C757.476 470.948 783.435 450.602 826.572 437.914C853.54 429.982 875.872 431.427 902.84 438.532C937.218 447.591 972.015 456.191 1007.59 463.744C1067.06 476.367 1140.28 491.42 1205.2 487.358C1288.93 482.114 1354.89 445.462 1439.43 440.979" stroke="white" stroke-miterlimit="10"/>
<path d="M1.1474 436.48C64.7213 437.676 122.712 459.372 187.235 450.827C245.165 443.149 290.551 419.566 347.193 410.144C406.412 400.272 477.268 410.983 535.238 419.385C594.078 427.914 649.502 440.116 705.155 453.416C757.093 465.833 783.981 445.809 827.149 433.672C854.117 426.071 876.65 427.475 903.378 434.605C937.597 443.731 972.295 452.281 1007.86 459.718C1067.09 472.107 1141.04 487.03 1205.43 482.686C1288.74 477.07 1355.51 441.943 1439.43 436.738" stroke="white" stroke-miterlimit="10"/>
<path d="M1.1474 432.73C64.9397 433.883 122.839 455.57 187.6 447.06C245.46 439.457 291.114 416.34 347.795 407.095C407.013 397.469 477.637 408.357 535.497 416.693C594.055 425.122 649.358 437.13 705.21 449.588C756.777 461.079 784.583 441.665 827.861 430.191C854.898 423.029 877.6 424.421 904.128 431.485C938.156 440.55 972.784 448.93 1008.29 456.13C1067.37 468.121 1141.77 482.554 1205.71 478.024C1288.61 472.156 1356.15 438.962 1439.43 433.165" stroke="white" stroke-miterlimit="10"/>
<path d="M1.1474 428.559C65.2107 429.704 123.002 451.601 188.094 443.068C245.905 435.495 291.84 412.596 348.572 403.519C407.771 394.044 478.037 405.197 535.877 413.522C594.118 421.912 649.252 433.817 705.335 445.547C756.513 456.253 785.299 437.315 828.777 426.44C855.905 419.651 878.787 421.095 905.146 428.151C938.909 437.279 973.555 445.402 1008.93 452.483C1067.96 464.164 1142.57 478.091 1206.15 473.345C1288.51 467.226 1356.88 435.648 1439.43 429.289" stroke="white" stroke-miterlimit="10"/>
<path d="M1.1474 424.367C65.499 425.518 123.269 447.727 188.679 439.159C246.439 431.604 292.682 408.885 349.483 399.944C408.661 390.631 478.626 402.021 536.356 410.353C594.285 418.703 649.268 430.509 705.48 441.537C756.278 451.508 786.102 433.029 829.838 422.757C857.095 416.352 880.147 417.886 906.355 424.948C939.915 434.066 974.434 442.081 1009.73 448.949C1068.79 460.328 1143.39 473.569 1206.62 468.672C1288.45 462.333 1357.6 432.317 1439.43 425.425" stroke="white" stroke-miterlimit="10"/>
<path d="M1.1474 420.456C65.8304 421.612 123.592 444.021 189.373 435.516C247.095 428.052 293.669 405.654 350.492 396.924C409.641 387.838 479.239 399.368 536.92 407.632C594.422 415.853 649.386 427.476 705.659 437.724C756.099 446.915 787.022 429.06 831.06 419.481C858.467 413.518 881.7 415.168 907.799 422.221C941.129 431.255 975.494 439.091 1010.68 445.682C1069.84 456.642 1144.21 469.005 1207.17 463.991C1288.44 457.524 1358.33 429.268 1439.43 421.952" stroke="white" stroke-miterlimit="10"/>
<path d="M1.1474 416.876C66.1896 418.055 124 440.575 190.161 432.152C247.842 424.852 294.756 402.91 351.638 394.454C410.747 385.67 479.964 397.23 537.516 405.365C594.617 413.439 649.522 424.749 705.814 434.165C755.904 442.539 787.986 425.436 832.353 416.631C859.93 411.175 883.342 412.943 909.361 419.904C942.47 428.791 976.692 436.384 1011.77 442.627C1071.12 453.118 1145.07 464.384 1207.8 459.304C1288.48 452.758 1359.09 426.456 1439.43 418.796" stroke="white" stroke-miterlimit="10"/>
<path d="M1.1474 412.906C66.58 414.126 124.382 437.025 191.033 428.657C248.675 421.416 295.959 399.693 352.901 391.441C411.961 382.887 480.75 394.567 538.222 402.654C594.925 410.637 649.78 421.74 706.024 430.421C755.775 438.112 789.085 421.592 833.803 413.488C861.57 408.461 885.162 410.434 911.121 417.334C944 426.148 978.06 433.561 1013 439.508C1072.58 449.589 1145.93 459.764 1208.49 454.589C1288.56 447.996 1359.85 423.328 1439.43 415.296" stroke="white" stroke-miterlimit="10"/>
<path d="M1.1474 409.395C66.9886 410.637 124.849 433.345 191.919 425.24C249.59 418.294 297.243 397.323 354.255 389.499C413.254 381.404 481.562 392.871 539.034 400.696C595.316 408.37 650.131 418.963 706.313 426.697C755.724 433.502 790.333 418.03 835.419 410.858C863.386 406.411 887.147 408.537 913.086 415.283C945.725 423.788 979.614 430.815 1014.4 436.292C1074.21 445.687 1146.83 454.451 1209.24 449.308C1288.69 442.794 1360.61 420.453 1439.43 412.293" stroke="white" stroke-miterlimit="10"/>
<path d="M1.1474 405.924C67.3981 407.218 125.329 430.403 192.988 422.342C250.569 415.476 298.621 394.681 355.693 387.067C414.623 379.202 482.461 390.773 539.803 398.529C595.676 406.104 650.45 416.464 706.513 423.488C755.615 429.645 791.591 414.755 837.027 408.337C865.193 404.347 889.145 406.699 915.094 413.473C947.486 421.903 981.194 428.732 1015.81 433.88C1076.01 442.831 1147.73 450.309 1210.04 445.118C1288.87 438.569 1361.36 417.872 1439.43 409.385" stroke="white" stroke-miterlimit="10"/>
<path d="M1.1474 402.138C67.8775 403.512 125.918 426.991 194.057 419.059C251.628 412.364 300.1 391.923 357.211 384.604C416.091 377.066 483.42 388.606 540.682 396.253C596.135 403.66 650.87 413.656 706.783 419.902C755.595 425.377 792.99 411.247 838.765 405.669C867.141 402.193 891.272 404.804 917.261 411.505C949.407 419.77 982.928 426.324 1017.36 431.075C1077.93 439.462 1148.64 445.522 1210.88 440.31C1289.09 433.769 1362.1 414.992 1439.43 406.282" stroke="white" stroke-miterlimit="10"/>
<path d="M1.1474 398.91C68.357 400.364 126.497 424.198 195.205 416.398C252.726 409.865 301.588 389.745 358.799 382.722C417.599 375.5 484.409 387.021 541.581 394.54C596.635 401.778 651.299 411.406 707.033 416.883C755.595 421.655 794.438 408.307 840.563 403.534C869.139 400.578 893.44 403.463 919.518 410.14C951.414 418.244 984.741 424.516 1018.97 428.855C1079.9 436.65 1149.53 441.23 1211.74 436.011C1289.34 429.51 1362.81 412.622 1439.43 403.688" stroke="white" stroke-miterlimit="10"/>
<path d="M1.1474 395.841C68.8264 397.348 127.117 421.05 196.354 413.551C253.885 407.32 303.156 387.94 360.437 381.362C419.157 374.622 485.438 385.858 542.569 393.091C597.234 400.016 651.819 409.044 707.372 413.654C755.724 417.661 796.046 405.368 842.501 401.534C871.286 399.154 895.757 402.266 921.936 408.746C953.583 416.524 986.714 422.383 1020.73 426.218C1082.06 433.229 1150.51 436.201 1212.7 431.098C1289.61 424.775 1363.52 410.145 1439.43 401.198" stroke="white" stroke-miterlimit="10"/>
<path d="M1.1474 392.487C69.3191 394.083 127.762 418.086 197.572 410.782C255.106 404.742 304.789 385.717 362.143 379.47C420.786 373.097 486.53 384.241 543.595 391.321C597.892 398.059 652.38 406.643 707.696 410.488C755.881 413.838 797.673 402.367 844.429 399.388C873.396 397.541 898.058 400.951 924.338 407.378C955.741 414.968 988.673 420.516 1022.45 423.908C1084.18 430.243 1151.43 431.654 1213.62 426.566C1289.97 420.325 1364.17 407.661 1439.43 398.544" stroke="white" stroke-miterlimit="10"/>
</g>
</svg>
