<svg xmlns="http://www.w3.org/2000/svg" style="height:0;width:0;position:absolute;visibility:hidden">
	<defs>
		<linearGradient id="ios_linear" x1="8.77306" y1="12.9115" x2="8.71662" y2="-3.5061" gradientUnits="userSpaceOnUse">
			<stop />
			<stop offset="1" stop-opacity="0" />
		</linearGradient>
		<linearGradient id="node_linear" x1="8.75396" y1="18.681" x2="11.7449" y2="1.47248" gradientUnits="userSpaceOnUse">
			<stop offset="0.57" stop-color="#3E863D" />
			<stop offset="0.72" stop-color="#619857" />
			<stop offset="1" stop-color="#76AC64" />
		</linearGradient>
		<linearGradient id="python1_linear" x1="0.972656" y1="0.112" x2="11.7233" y2="9.273" gradientUnits="userSpaceOnUse">
			<stop stop-color="#5A9FD4" />
			<stop offset="1" stop-color="#306998" />
		</linearGradient>
		<linearGradient id="python2_linear" x1="13.1322" y1="17.0739" x2="9.27529" y2="11.6692" gradientUnits="userSpaceOnUse">
			<stop stop-color="#FFD43B" />
			<stop offset="1" stop-color="#FFE873" />
		</linearGradient>
	</defs>
	<symbol id="add-circle" viewBox="0 0 24 24">
		<path d="M0 0h24v24H0z" fill="none" />
		<path d="M12 2C6.48 2 2 6.48 2 12s4.48 10 10 10 10-4.48 10-10S17.52 2 12 2zm5 11h-4v4h-2v-4H7v-2h4V7h2v4h4v2z" />
	</symbol>
	<symbol id="android" viewBox="0 0 20 20">
		<path d="M14.8792 7.77413L16.5382 4.9002C16.6318 4.73909 16.5752 4.53443 16.4163 4.44081C16.2573 4.34719 16.0505 4.40162 15.9591 4.56273L14.2782 7.47368C12.9958 6.888 11.5524 6.56142 9.99999 6.56142C8.44763 6.56142 7.00413 6.888 5.72174 7.47368L4.04093 4.56273C3.9473 4.40162 3.74265 4.34719 3.58153 4.44081C3.42042 4.53443 3.36599 4.73909 3.45961 4.9002L5.11865 7.77413C2.25778 9.32432 0.320045 12.22 0 15.6099H20C19.6799 12.22 17.7422 9.32429 14.8792 7.77413H14.8792ZM5.40822 12.8013C4.94447 12.8013 4.56999 12.4247 4.56999 11.9631C4.56999 11.4994 4.94665 11.1249 5.40822 11.1249C5.87197 11.1249 6.24645 11.5015 6.24645 11.9631C6.24864 12.4247 5.87197 12.8013 5.40822 12.8013ZM14.5896 12.8013C14.1259 12.8013 13.7514 12.4247 13.7514 11.9631C13.7514 11.4994 14.128 11.1249 14.5896 11.1249C15.0533 11.1249 15.4278 11.5015 15.4278 11.9631C15.43 12.4247 15.0533 12.8013 14.5896 12.8013Z" fill="#32DE84" />
	</symbol>
	<symbol id="apple" viewBox="0 0 20 24">
		<path transform="translate(-43.000000, -10.000000)" d="M59.3602981,22.7631457 C59.3843874,20.89341 60.3646085,19.1663431 61.9575393,18.1870256 C60.948066,16.7453182 59.3178793,15.8640151 57.5587524,15.8089764 C55.7080075,15.6147146 53.913791,16.9164322 52.9706852,16.9164322 C52.0093281,16.9164322 50.5572686,15.8282638 48.9936402,15.860435 C46.936313,15.9269029 45.0648215,17.068257 44.06389,18.8669091 C41.9323658,22.5573114 43.5222911,27.9809603 45.5641127,30.964003 C46.5856792,32.4247143 47.7795973,34.0563662 49.3418149,33.9985043 C50.8705387,33.9350986 51.4414874,33.0236902 53.2867878,33.0236902 C55.114961,33.0236902 55.6506305,33.9985043 57.2445454,33.9617151 C58.8849373,33.9350876 59.918462,32.4945123 60.9041873,31.0199693 C61.6381812,29.9791592 62.2029883,28.8288374 62.5776872,27.6116137 C60.6293998,26.7875837 59.362572,24.8785284 59.3602981,22.7631457 L59.3602981,22.7631457 Z M56.34968,13.8471256 C57.2440898,12.7734192 57.6847316,11.3933516 57.5780287,10 C56.2115694,10.1435202 54.9493438,10.7965989 54.0428507,11.82911 C53.1477303,12.847821 52.6942645,14.1805677 52.7823308,15.533807 C54.1671126,15.5480651 55.4819338,14.9264033 56.34968,13.8471256 L56.34968,13.8471256 Z" />
	</symbol>
	<symbol id="arrow-down" viewBox="0 0 11 6">
		<path fill-rule="evenodd" clip-rule="evenodd" d="M10.318 0.148403C10.4937 0.324139 10.4937 0.609064 10.318 0.7848L5.818 5.2848C5.73361 5.36919 5.61915 5.4166 5.4998 5.4166C5.38046 5.4166 5.266 5.36919 5.18161 5.2848L0.681607 0.7848C0.505871 0.609064 0.505871 0.32414 0.681607 0.148404C0.857343 -0.0273316 1.14227 -0.0273316 1.318 0.148404L5.4998 4.33021L9.68161 0.148404C9.85734 -0.0273324 10.1423 -0.0273324 10.318 0.148403Z" />
	</symbol>
	<symbol id="arrow-forward" viewBox="0 0 24 24">
		<path d="M0 0h24v24H0z" fill="none" />
		<path d="M12 4l-1.41 1.41L16.17 11H4v2h12.17l-5.58 5.59L12 20l8-8z" />
	</symbol>
	<symbol id="asr" viewBox="0 0 46 39" fill="none">
		<path d="M13.6875 15.8356H13.8104M18.726 15.8356H18.8489M23.7646 15.8356H23.8875M3.00181 2.00088L35 2.00003C35.5523 2.00001 36 2.44773 36 3.00003V29.248C36 29.8003 35.5523 30.248 35 30.248H11.6346C11.4485 30.248 11.2662 30.2999 11.108 30.3978L3.58563 35.0566C2.92014 35.4688 2.06054 34.9911 2.05911 34.2083L2.00184 3.00272C2.00082 2.44972 2.44882 2.00089 3.00181 2.00088Z" stroke="#C490D1" stroke-width="2.25" stroke-linecap="round" stroke-linejoin="round" />
		<path d="M36.3544 33.4466C36.3544 33.702 36.3614 34.0706 36.5019 34.4339H36.0814C36.2219 34.0708 36.229 33.7023 36.229 33.4466V22.8339H36.3544V33.4466ZM33.1865 24.641L33.0496 23.802L33.1865 24.641C33.2464 24.6312 33.3104 24.6221 33.379 24.6136V32.8587C33.3236 32.8641 33.2643 32.8694 33.2008 32.8748C32.243 32.956 31.507 33.757 31.507 34.7182V35.4339C31.507 36.4556 32.3353 37.2839 33.357 37.2839H39.2353C40.2571 37.2839 41.0853 36.4556 41.0853 35.4339V34.7182C41.0853 33.7567 40.3488 32.9555 39.3907 32.8747L39.3193 33.7217L39.3907 32.8747C39.3241 32.8691 39.2621 32.8635 39.2044 32.858V24.6117C39.2757 24.6205 39.3421 24.6299 39.4041 24.6401C39.6499 24.6804 39.7678 24.7229 39.8134 24.7429C39.816 24.7477 39.8189 24.7532 39.8221 24.7597C39.8694 24.8553 39.9487 25.0752 40.0313 25.5445C40.187 26.4289 40.9553 27.0737 41.8533 27.0737H42.5421C43.0439 27.0737 43.5242 26.8699 43.8728 26.5089C44.2214 26.148 44.4084 25.6609 44.391 25.1595L44.2732 21.7696C44.2386 20.7735 43.4211 19.9839 42.4243 19.9839H30.168C29.1713 19.9839 28.3537 20.7735 28.3191 21.7696L28.2013 25.1594C28.1839 25.6609 28.3709 26.148 28.7195 26.5089C29.0681 26.8699 29.5484 27.0737 30.0502 27.0737H30.739C31.637 27.0737 32.4053 26.4289 32.561 25.5445C32.6437 25.0748 32.723 24.8548 32.7702 24.7592C32.7733 24.753 32.7761 24.7477 32.7785 24.7431C32.8245 24.723 32.9422 24.6809 33.1865 24.641Z" fill="#C490D1" stroke="white" stroke-width="2" stroke-linecap="round" stroke-linejoin="round" />
		<path d="M42.4239 21.8339H30.1676L30.0498 25.2237H30.7386C31.1134 23.0953 31.8308 22.7655 34.6165 22.6822L35.2286 22.6635V33.4466C35.2286 34.3595 35.0216 34.5771 33.3566 34.7182V35.4339H39.2349V34.7182C37.561 34.5771 37.354 34.3612 37.354 33.4466V22.6635L37.975 22.6805C40.759 22.7655 41.4781 23.0953 41.8529 25.2237H42.5417L42.4239 21.8339Z" fill="#C490D1" />
	</symbol>
	<symbol id="blog" viewBox="0 0 36 37">
		<path d="M2.7 32.5839C2.14771 32.5839 1.7 33.0316 1.7 33.5839C1.7 34.1362 2.14771 34.5839 2.7 34.5839L2.7 32.5839ZM14.6 34.5839C15.1523 34.5839 15.6 34.1362 15.6 33.5839C15.6 33.0316 15.1523 32.5839 14.6 32.5839L14.6 34.5839ZM2.7 26.3932C2.14771 26.3932 1.7 26.8409 1.7 27.3932C1.7 27.9455 2.14771 28.3932 2.7 28.3932L2.7 26.3932ZM14.6 28.3932C15.1523 28.3932 15.6 27.9455 15.6 27.3932C15.6 26.8409 15.1523 26.3932 14.6 26.3932L14.6 28.3932ZM2.7 20.6839C2.14771 20.6839 1.7 21.1316 1.7 21.6839C1.7 22.2362 2.14771 22.6839 2.7 22.6839L2.7 20.6839ZM14.6 22.6839C15.1523 22.6839 15.6 22.2362 15.6 21.6839C15.6 21.1316 15.1523 20.6839 14.6 20.6839L14.6 22.6839ZM34.1701 12.6368L33.463 11.9297L34.1701 12.6368ZM34.1701 1.82986L34.8772 1.12276V1.12276L34.1701 1.82986ZM1.82986 1.82986L2.53697 2.53697L1.82986 1.82986ZM1.82986 12.6368L2.53697 11.9297L2.53697 11.9297L1.82986 12.6368ZM2.7 34.5839L14.6 34.5839L14.6 32.5839L2.7 32.5839L2.7 34.5839ZM2.7 28.3932L14.6 28.3932L14.6 26.3932L2.7 26.3932L2.7 28.3932ZM2.7 22.6839L14.6 22.6839L14.6 20.6839L2.7 20.6839L2.7 22.6839ZM3.83333 14.4667L32.1667 14.4667V12.4667L3.83333 12.4667L3.83333 14.4667ZM32.1667 14.4667C33.1833 14.4667 34.1584 14.0628 34.8772 13.3439L33.463 11.9297C33.1192 12.2735 32.6529 12.4667 32.1667 12.4667V14.4667ZM34.8772 13.3439C35.5961 12.625 36 11.65 36 10.6333L34 10.6333C34 11.1196 33.8068 11.5859 33.463 11.9297L34.8772 13.3439ZM36 10.6333L36 3.83333L34 3.83333L34 10.6333L36 10.6333ZM36 3.83333C36 2.81667 35.5961 1.84165 34.8772 1.12276L33.463 2.53697C33.8068 2.88079 34 3.3471 34 3.83333L36 3.83333ZM34.8772 1.12276C34.1584 0.403868 33.1833 0 32.1667 0V2C32.6529 2 33.1192 2.19315 33.463 2.53697L34.8772 1.12276ZM32.1667 0L3.83333 0L3.83333 2L32.1667 2V0ZM3.83333 0C2.81667 0 1.84165 0.403868 1.12276 1.12276L2.53697 2.53697C2.88079 2.19315 3.3471 2 3.83333 2L3.83333 0ZM1.12276 1.12276C0.403868 1.84165 0 2.81667 0 3.83333L2 3.83333C2 3.3471 2.19315 2.88079 2.53697 2.53697L1.12276 1.12276ZM0 3.83333L0 10.6333L2 10.6333L2 3.83333L0 3.83333ZM0 10.6333C0 11.65 0.403868 12.625 1.12276 13.3439L2.53697 11.9297C2.19315 11.5859 2 11.1196 2 10.6333L0 10.6333ZM1.12276 13.3439C1.84165 14.0628 2.81667 14.4667 3.83333 14.4667L3.83333 12.4667C3.3471 12.4667 2.88079 12.2735 2.53697 11.9297L1.12276 13.3439ZM31.94 34.2839L24.46 34.2839L24.46 36.2839L31.94 36.2839L31.94 34.2839ZM24.46 34.2839C23.9137 34.2839 23.3897 34.0669 23.0034 33.6805L21.5891 35.0947C22.3505 35.8561 23.3832 36.2839 24.46 36.2839L24.46 34.2839ZM23.0034 33.6805C22.617 33.2942 22.4 32.7702 22.4 32.2239H20.4C20.4 33.3007 20.8278 34.3333 21.5891 35.0947L23.0034 33.6805ZM22.4 32.2239L22.4 23.0439L20.4 23.0439L20.4 32.2239H22.4ZM22.4 23.0439C22.4 22.4975 22.617 21.9736 23.0034 21.5872L21.5891 20.173C20.8278 20.9344 20.4 21.9671 20.4 23.0439L22.4 23.0439ZM23.0034 21.5872C23.3897 21.2009 23.9137 20.9839 24.46 20.9839L24.46 18.9839C23.3832 18.9839 22.3505 19.4116 21.5891 20.173L23.0034 21.5872ZM24.46 20.9839L31.94 20.9839L31.94 18.9839L24.46 18.9839L24.46 20.9839ZM31.94 20.9839C32.4863 20.9839 33.0103 21.2009 33.3966 21.5872L34.8109 20.173C34.0495 19.4116 33.0168 18.9839 31.94 18.9839L31.94 20.9839ZM33.3966 21.5872C33.783 21.9736 34 22.4975 34 23.0439L36 23.0439C36 21.9671 35.5723 20.9344 34.8109 20.173L33.3966 21.5872ZM34 23.0439L34 32.2239L36 32.2239L36 23.0439L34 23.0439ZM34 32.2239C34 32.7702 33.783 33.2942 33.3966 33.6805L34.8109 35.0947C35.5723 34.3333 36 33.3007 36 32.2239L34 32.2239ZM33.3966 33.6805C33.0103 34.0669 32.4863 34.2839 31.94 34.2839L31.94 36.2839C33.0168 36.2839 34.0495 35.8561 34.8109 35.0947L33.3966 33.6805Z" fill="#99CAFF" />
	</symbol>
	<symbol id="checkmark" viewBox="0 0 27 27">
		<polygon fill-rule="nonzero" points="10.713 18.156 19.713 9.156 18.651 8.094 10.713 16.05 7.581 12.918 6.537 13.98" />
	</symbol>
	<symbol id="copy" viewBox="0 0 24 24">
		<path fill="none" d="M0 0h24v24H0z" />
		<path d="M16 1H4c-1.1 0-2 .9-2 2v14h2V3h12V1zm-1 4l6 6v10c0 1.1-.9 2-2 2H7.99C6.89 23 6 22.1 6 21l.01-14c0-1.1.89-2 1.99-2h7zm-1 7h5.5L14 6.5V12z" />
	</symbol>
	<symbol id="community" viewBox="0 0 34 36" fill="none">
		<path d="M17.0002 15.5839C18.9569 15.5839 20.4002 14.1423 20.4002 12.1839C20.4002 10.2255 18.9569 8.78387 17.0002 8.78387C15.0452 8.78387 13.6002 10.2255 13.6002 12.1839C13.6002 14.1423 15.0452 15.5839 17.0002 15.5839ZM17.0002 17.2839C13.2449 17.2839 10.2002 20.0243 10.2002 23.4039V24.0601H23.8002V23.4039C23.8002 20.0243 20.7555 17.2839 17.0002 17.2839Z" fill="#C490D1" />
		<path d="M22.1002 29.6H21.686L21.3931 29.8929L17.0002 34.2858L12.6073 29.8929L12.3144 29.6H11.9002H5.1002C3.77738 29.6 2.7002 28.5228 2.7002 27.2V5.10001C2.7002 3.7772 3.77738 2.70001 5.1002 2.70001H28.9002C30.223 2.70001 31.3002 3.7772 31.3002 5.10001V27.2C31.3002 28.5228 30.223 29.6 28.9002 29.6H22.1002Z" stroke="#C490D1" stroke-width="2" />
	</symbol>
	<symbol id="delete" viewBox="0 0 24 24">
		<path d="M15 16h4v2h-4zm0-8h7v2h-7zm0 4h6v2h-6zM3 18c0 1.1.9 2 2 2h6c1.1 0 2-.9 2-2V8H3v10zM14 5h-3l-1-1H6L5 5H2v2h12z" />
		<path fill="none" d="M0 0h24v24H0z" />
	</symbol>
	<symbol id="docs" viewBox="0 0 34 36" fill="none">
		<path d="M19.7204 1L19.7204 13.24L31.9604 13.24M19.7204 1L31.9604 13.24M19.7204 1L3.40039 1V35H31.9604V13.24" stroke="#FACC5F" stroke-width="2" stroke-linecap="round" stroke-linejoin="round" />
	</symbol>
	<symbol id="download" viewBox="0 0 24 24">
		<path d="M19 9h-4V3H9v6H5l7 7 7-7zM5 18v2h14v-2H5z" />
		<path d="M0 0h24v24H0z" fill="none" />
	</symbol>
	<symbol id="edit" viewBox="0 0 15 15">
		<path d="M0.5 11.5837V14.5H3.41627L12.0173 5.89895L9.10106 2.98268L0.5 11.5837ZM14.2726 3.6437C14.3447 3.57175 14.4019 3.48629 14.4409 3.39222C14.4799 3.29814 14.5 3.19729 14.5 3.09544C14.5 2.99359 14.4799 2.89274 14.4409 2.79866C14.4019 2.70458 14.3447 2.61912 14.2726 2.54718L12.4528 0.727426C12.3809 0.655333 12.2954 0.598137 12.2013 0.559112C12.1073 0.520087 12.0064 0.5 11.9046 0.5C11.8027 0.5 11.7019 0.520087 11.6078 0.559112C11.5137 0.598137 11.4282 0.655333 11.3563 0.727426L9.93316 2.15057L12.8494 5.06684L14.2726 3.6437Z" />
	</symbol>
	<symbol id="email" viewBox="0 0 24 24">
		<path d="M20 4H4c-1.1 0-1.99.9-1.99 2L2 18c0 1.1.9 2 2 2h16c1.1 0 2-.9 2-2V6c0-1.1-.9-2-2-2zm0 4l-8 5-8-5V6l8 5 8-5v2z" />
		<path d="M0 0h24v24H0z" fill="none" />
	</symbol>
	<symbol id="eye" viewBox="0 0 24 24">
		<path d="M0 0h24v24H0z" fill="none" />
		<path d="M12 4.5C7 4.5 2.73 7.61 1 12c1.73 4.39 6 7.5 11 7.5s9.27-3.11 11-7.5c-1.73-4.39-6-7.5-11-7.5zM12 17c-2.76 0-5-2.24-5-5s2.24-5 5-5 5 2.24 5 5-2.24 5-5 5zm0-8c-1.66 0-3 1.34-3 3s1.34 3 3 3 3-1.34 3-3-1.34-3-3-3z" />
	</symbol>
	<symbol id="facebook" viewBox="0 0 17 17">
		<path fill-rule="evenodd" clip-rule="evenodd" d="M0 8.37986C0 12.5229 3.00903 15.9681 6.94444 16.6667V10.6479H4.86111V8.33333H6.94444V6.48125C6.94444 4.39792 8.28681 3.24097 10.1854 3.24097C10.7868 3.24097 11.4354 3.33333 12.0368 3.42569V5.55556H10.9722C9.95347 5.55556 9.72222 6.06458 9.72222 6.71319V8.33333H11.9444L11.5743 10.6479H9.72222V16.6667C13.6576 15.9681 16.6667 12.5236 16.6667 8.37986C16.6667 3.77083 12.9167 0 8.33333 0C3.75 0 0 3.77083 0 8.37986Z" />
	</symbol>
	<symbol id="file" viewBox="0 0 14 16">
		<path fill-rule="evenodd" clip-rule="evenodd" d="M2.1002 1.70005V14.3H12.4602V6.74005L8.1202 6.74005C7.7336 6.74005 7.4202 6.42665 7.4202 6.04005L7.4202 1.70005L2.1002 1.70005ZM1.4002 0.300049L8.1202 0.300049C8.30585 0.300049 8.4839 0.373799 8.61517 0.505074L13.6552 5.54507C13.7864 5.67635 13.8602 5.8544 13.8602 6.04005V15C13.8602 15.3866 13.5468 15.7 13.1602 15.7H1.4002C1.0136 15.7 0.700195 15.3866 0.700195 15V1.00005C0.700195 0.61345 1.0136 0.300049 1.4002 0.300049Z" />
	</symbol>
	<symbol id="github" viewBox="0 0 17 16">
		<path d="M14.9099444,1.20430668 C15.1107333,1.17492115 15.2558,1.16896965 15.3440111,1.18682415 L15.3440111,1.18682415 L15.4768,1.21286196 C15.6479333,1.66499005 15.7646667,2.1080049 15.8264333,2.54209249 C15.8887667,2.97636607 15.9025556,3.35949394 15.8668556,3.69091815 C15.8311556,4.02197039 15.7941333,4.27900083 15.7559778,4.46070759 C15.7174444,4.64241436 15.6717333,4.8040348 15.6186556,4.94463901 C16.5393,6.00084444 17,7.25921491 17,8.72012239 C17,9.535664 16.9270889,10.275324 16.7831556,10.9387303 C16.6380889,11.6015787 16.4373,12.1762706 16.1807889,12.6631777 C15.9242778,13.1502709 15.5978778,13.577663 15.2029111,13.9444243 C14.807,14.3104416 14.3776556,14.6128522 13.9139333,14.8507263 C13.4505889,15.0884143 12.9222667,15.2801643 12.3291556,15.4272779 C11.7362333,15.5736476 11.1312222,15.676311 10.5139333,15.7352681 C9.89758889,15.7938532 9.21985556,15.8232387 8.48243333,15.8232387 C7.74463333,15.8232387 7.06897778,15.7938532 6.45452222,15.7352681 C5.84063333,15.676311 5.23713333,15.5736476 4.64421111,15.4272779 C4.05072222,15.2801643 3.52372222,15.0884143 3.06377778,14.8507263 C2.60307778,14.6128522 2.17713333,14.3104416 1.78386667,13.9438663 C1.39135556,13.5771051 1.06665556,13.1502709 0.810144444,12.6631777 C0.553066667,12.1762706 0.353788889,11.6015787 0.2125,10.9381724 C0.0706444444,10.275324 -4.90274488e-13,9.535664 -4.90274488e-13,8.72012239 C-4.90274488e-13,7.25363537 0.4607,5.99507892 1.38134444,4.94463901 C1.32807778,4.80961433 1.28085556,4.64873783 1.23986667,4.46070759 C1.1985,4.27304933 1.16034444,4.014717 1.12483333,3.68626854 C1.08894444,3.3576341 1.10405556,2.97636607 1.16884444,2.54209249 C1.23344444,2.1080049 1.35206667,1.66499005 1.5232,1.21286196 C1.55228889,1.20095896 1.59781111,1.1909158 1.66014444,1.18236052 C1.72228889,1.17343327 1.86263333,1.18068666 2.08023333,1.20430668 C2.29934444,1.22774072 2.53658889,1.28056029 2.7931,1.36257941 C3.05055556,1.44478452 3.39301111,1.59766369 3.82008889,1.82028702 C4.24886667,2.04291036 4.6988,2.32783846 5.17064444,2.67395543 C5.97965556,2.43329162 7.08937778,2.18165472 8.5,2.18165472 C9.91081111,2.18165472 11.0169444,2.43329162 11.8202889,2.67395543 C12.2927,2.32783846 12.7409333,2.04142248 13.1661222,1.81619537 C13.5915,1.59022432 13.9377333,1.439019 14.2067111,1.36257941 C14.4751222,1.2863258 14.7097222,1.23332025 14.9099444,1.20430668 Z M11.9572333,7.2616327 C11.6002333,7.24526608 11.2596667,7.24824183 10.9351556,7.27074594 C10.6106444,7.29380801 10.2088778,7.32505339 9.73023333,7.36448208 C9.25272222,7.4035388 8.83962222,7.42288118 8.49093333,7.42288118 C8.143,7.42288118 7.73008889,7.4035388 7.25144444,7.36448208 C6.77336667,7.32505339 6.37178889,7.29380801 6.04708889,7.27074594 C5.72257778,7.24824183 5.38201111,7.24526608 5.02501111,7.2616327 C4.66763333,7.27762736 4.34878889,7.34606962 4.06847778,7.46751744 C3.78835556,7.5884073 3.54185556,7.76676634 3.32935556,8.0022226 C2.62121111,8.7736859 2.26685556,9.63404975 2.26685556,10.5823842 C2.26685556,11.1384776 2.32578889,11.63394 2.44384444,12.0691435 C2.56152222,12.5036031 2.7115,12.8688765 2.89056667,13.1629178 C3.07095556,13.4573311 3.3235,13.7058063 3.6482,13.9089013 C3.97327778,14.1116243 4.28645556,14.2680371 4.59113333,14.3796278 C4.89486667,14.4910324 5.28756667,14.5773292 5.76828889,14.639448 C6.24976667,14.7011948 6.67873333,14.7395076 7.0567,14.7525265 C7.43428889,14.7655454 7.91293333,14.7718689 8.49093333,14.7718689 C9.0695,14.7718689 9.54927778,14.7655454 9.92951111,14.7525265 C10.3105,14.7395076 10.7417333,14.7011948 11.2226444,14.639448 C11.7039333,14.5773292 12.0966333,14.4910324 12.4003667,14.3796278 C12.7042889,14.2680371 13.0187889,14.1116243 13.3434889,13.9089013 C13.6685667,13.7058063 13.9203556,13.4573311 14.1003667,13.1629178 C14.2805667,12.8688765 14.4292222,12.5036031 14.5470889,12.0691435 C14.6651444,11.63394 14.7244556,11.1384776 14.7244556,10.5823842 C14.7244556,9.63404975 14.3706667,8.7736859 13.6619556,8.0022226 C13.4490778,7.76676634 13.2016333,7.5884073 12.9177333,7.46751744 C12.6347778,7.34606962 12.3149889,7.27762736 11.9572333,7.2616327 Z M7.38346429,12.7390504 C7.51285317,12.6107211 7.72214206,12.6107211 7.85190873,12.7390504 C8.05496429,12.9382397 8.21740873,13.0355095 8.34811984,13.0355095 C8.47883095,13.0355095 8.6412754,12.9382397 8.84433095,12.7390504 C8.97371984,12.6112791 9.18319762,12.6112791 9.3127754,12.7390504 C9.44291984,12.8668217 9.44291984,13.0738223 9.3127754,13.2014076 C8.98391984,13.5257644 8.66639762,13.6873848 8.34811984,13.6873848 C8.02984206,13.6873848 7.71194206,13.5257644 7.38346429,13.2008496 C7.25313095,13.0738223 7.25313095,12.8668217 7.38346429,12.7390504 Z M4.94821429,8.82078939 C5.53471429,8.82078939 6.01071429,9.52343847 6.01071429,10.3901258 C6.01071429,11.2568131 5.53471429,11.9592762 4.94821429,11.9592762 C4.36171429,11.9592762 3.88571429,11.2568131 3.88571429,10.3901258 C3.88571429,9.52343847 4.36171429,8.82078939 4.94821429,8.82078939 Z M11.2625,8.82078939 C11.849,8.82078939 12.325,9.52343847 12.325,10.3901258 C12.325,11.2568131 11.849,11.9592762 11.2625,11.9592762 C10.676,11.9592762 10.2,11.2568131 10.2,10.3901258 C10.2,9.52343847 10.676,8.82078939 11.2625,8.82078939 Z" />
	</symbol>
	<symbol id="github-fork" viewBox="0 0 15 16">
		<path fill-rule="evenodd" clip-rule="evenodd" d="M7.75401 14.8571C7.40039 14.8571 7.06125 14.7167 6.8112 14.4666C6.56115 14.2166 6.42068 13.8774 6.42068 13.5238C6.42068 13.1702 6.56115 12.831 6.8112 12.581C7.06125 12.331 7.40039 12.1905 7.75401 12.1905C8.10763 12.1905 8.44677 12.331 8.69682 12.581C8.94687 12.831 9.08734 13.1702 9.08734 13.5238C9.08734 13.8774 8.94687 14.2166 8.69682 14.4666C8.44677 14.7167 8.10763 14.8571 7.75401 14.8571ZM5.27782 13.5238C5.27782 14.1805 5.5387 14.8104 6.00308 15.2747C6.46746 15.7391 7.09728 16 7.75401 16C8.41074 16 9.04057 15.7391 9.50494 15.2747C9.96932 14.8104 10.2302 14.1805 10.2302 13.5238C10.2302 12.8671 9.96932 12.2373 9.50494 11.7729C9.04057 11.3085 8.41074 11.0476 7.75401 11.0476C7.09728 11.0476 6.46746 11.3085 6.00308 11.7729C5.5387 12.2373 5.27782 12.8671 5.27782 13.5238ZM2.99211 3.80952C2.81701 3.80952 2.64363 3.77504 2.48186 3.70803C2.32009 3.64102 2.17311 3.54281 2.0493 3.419C1.92549 3.29519 1.82727 3.1482 1.76027 2.98643C1.69326 2.82467 1.65877 2.65129 1.65877 2.47619C1.65877 2.30109 1.69326 2.12771 1.76027 1.96595C1.82727 1.80418 1.92549 1.65719 2.0493 1.53338C2.17311 1.40957 2.32009 1.31136 2.48186 1.24435C2.64363 1.17734 2.81701 1.14286 2.99211 1.14286C3.34573 1.14286 3.68487 1.28333 3.93491 1.53338C4.18496 1.78343 4.32544 2.12257 4.32544 2.47619C4.32544 2.82981 4.18496 3.16895 3.93491 3.419C3.68487 3.66905 3.34573 3.80952 2.99211 3.80952ZM0.515915 2.47619C0.515915 3.13292 0.776798 3.76275 1.24117 4.22712C1.70555 4.6915 2.33538 4.95238 2.99211 4.95238C3.64883 4.95238 4.27866 4.6915 4.74304 4.22712C5.20741 3.76275 5.4683 3.13292 5.4683 2.47619C5.4683 1.81946 5.20741 1.18964 4.74304 0.725259C4.27866 0.260884 3.64883 0 2.99211 0C2.33538 0 1.70555 0.260884 1.24117 0.725259C0.776798 1.18964 0.515915 1.81946 0.515915 2.47619ZM12.5159 3.80952C12.3408 3.80952 12.1674 3.77504 12.0057 3.70803C11.8439 3.64102 11.6969 3.54281 11.5731 3.419C11.4493 3.29519 11.3511 3.1482 11.2841 2.98643C11.2171 2.82467 11.1826 2.65129 11.1826 2.47619C11.1826 2.30109 11.2171 2.12771 11.2841 1.96595C11.3511 1.80418 11.4493 1.65719 11.5731 1.53338C11.6969 1.40957 11.8439 1.31136 12.0057 1.24435C12.1674 1.17734 12.3408 1.14286 12.5159 1.14286C12.8695 1.14286 13.2087 1.28333 13.4587 1.53338C13.7088 1.78343 13.8492 2.12257 13.8492 2.47619C13.8492 2.82981 13.7088 3.16895 13.4587 3.419C13.2087 3.66905 12.8695 3.80952 12.5159 3.80952ZM10.0397 2.47619C10.0397 3.13292 10.3006 3.76275 10.765 4.22712C11.2294 4.6915 11.8592 4.95238 12.5159 4.95238C13.1726 4.95238 13.8025 4.6915 14.2668 4.22712C14.7312 3.76275 14.9921 3.13292 14.9921 2.47619C14.9921 1.81946 14.7312 1.18964 14.2668 0.725259C13.8025 0.260884 13.1726 0 12.5159 0C11.8592 0 11.2294 0.260884 10.765 0.725259C10.3006 1.18964 10.0397 1.81946 10.0397 2.47619Z" />
		<path fill-rule="evenodd" clip-rule="evenodd" d="M3.56353 4.7619V5.52381C3.56353 5.97847 3.74415 6.4145 4.06564 6.73599C4.38713 7.05748 4.82316 7.2381 5.27782 7.2381H10.2302C10.6849 7.2381 11.1209 7.05748 11.4424 6.73599C11.7639 6.4145 11.9445 5.97847 11.9445 5.52381V4.7619H13.0873V5.52381C13.0873 6.28157 12.7863 7.0083 12.2505 7.54411C11.7147 8.07993 10.988 8.38095 10.2302 8.38095H5.27782C4.52006 8.38095 3.79333 8.07993 3.25751 7.54411C2.7217 7.0083 2.42068 6.28157 2.42068 5.52381V4.7619H3.56353Z" />
		<path fill-rule="evenodd" clip-rule="evenodd" d="M7.18258 11.2381V7.42857H8.32544V11.2381H7.18258Z" />
	</symbol>
	<symbol id="github-repo" viewBox="0 0 13 16">
		<path fill-rule="evenodd" clip-rule="evenodd" d="M1.11185e-08 1.87164C1.11185e-08 1.37525 0.19719 0.899191 0.548191 0.548191C0.899192 0.19719 1.37525 0 1.87164 0H11.7403C11.8757 0 12.0055 0.0537791 12.1012 0.149507C12.197 0.245234 12.2507 0.375068 12.2507 0.510447V14.4627C12.2507 14.5981 12.197 14.7279 12.1012 14.8236C12.0055 14.9193 11.8757 14.9731 11.7403 14.9731H7.65671C7.52133 14.9731 7.3915 14.9193 7.29577 14.8236C7.20004 14.7279 7.14626 14.5981 7.14626 14.4627C7.14626 14.3273 7.20004 14.1975 7.29577 14.1017C7.3915 14.006 7.52133 13.9522 7.65671 13.9522H11.2298V11.2298H2.04179C1.77103 11.2298 1.51136 11.3374 1.31991 11.5289C1.12845 11.7203 1.02089 11.98 1.02089 12.2507V12.7612C1.02089 13.2485 1.31355 13.6691 1.73552 13.8535C1.85541 13.9103 1.94847 14.0116 1.995 14.1358C2.04152 14.2601 2.03785 14.3975 1.98476 14.5191C1.93167 14.6407 1.83333 14.7368 1.71058 14.7871C1.58783 14.8375 1.45031 14.838 1.32716 14.7887C0.932667 14.6165 0.596976 14.333 0.361237 13.9728C0.125499 13.6127 -4.31367e-05 13.1916 1.11185e-08 12.7612V1.87164ZM11.2298 1.02089V10.2089H2.04179C1.67018 10.2089 1.32104 10.3083 1.02089 10.4819V1.87164C1.02089 1.40203 1.40203 1.02089 1.87164 1.02089H11.2298Z" />
		<path d="M2.72239 12.4209C2.72239 12.3758 2.74031 12.3325 2.77222 12.3006C2.80413 12.2687 2.84741 12.2507 2.89254 12.2507H6.29552C6.34064 12.2507 6.38392 12.2687 6.41583 12.3006C6.44774 12.3325 6.46567 12.3758 6.46567 12.4209V15.8307C6.46552 15.862 6.45673 15.8927 6.44027 15.9193C6.42381 15.9459 6.40031 15.9675 6.37238 15.9817C6.34444 15.9958 6.31314 16.002 6.28193 15.9995C6.25072 15.997 6.2208 15.9859 6.19547 15.9675L4.69408 14.8758C4.665 14.8547 4.62997 14.8433 4.59403 14.8433C4.55808 14.8433 4.52306 14.8547 4.49398 14.8758L2.99258 15.9668C2.9673 15.9852 2.93745 15.9962 2.90629 15.9988C2.87514 16.0013 2.84389 15.9952 2.81598 15.9811C2.78806 15.9671 2.76456 15.9456 2.74805 15.919C2.73154 15.8925 2.72266 15.8619 2.72239 15.8307V12.4209Z" />
	</symbol>
	<symbol id="github-star" viewBox="0 0 17 16">
		<path fill-rule="evenodd" clip-rule="evenodd" d="M8.38324 1.1741e-07C8.48793 -6.76138e-05 8.59055 0.0291705 8.67948 0.0844051C8.76841 0.13964 8.8401 0.218665 8.88645 0.312537L11.1729 4.94601L16.2864 5.68922C16.3899 5.70437 16.487 5.74815 16.5669 5.81561C16.6468 5.88308 16.7063 5.97154 16.7385 6.071C16.7708 6.17047 16.7746 6.27698 16.7496 6.3785C16.7245 6.48002 16.6715 6.57251 16.5967 6.64552L12.8971 10.2517L13.7704 15.3442C13.7881 15.4474 13.7766 15.5534 13.7373 15.6503C13.6979 15.7473 13.6321 15.8313 13.5475 15.8928C13.4628 15.9543 13.3627 15.991 13.2583 15.9985C13.1539 16.0061 13.0495 15.9843 12.9569 15.9356L8.38324 13.5311L3.80959 15.9356C3.71701 15.9843 3.61269 16.006 3.50841 15.9985C3.40412 15.9909 3.30402 15.9544 3.21942 15.8929C3.13481 15.8315 3.06906 15.7476 3.0296 15.6508C2.99014 15.554 2.97853 15.448 2.99609 15.345L3.8694 10.2517L0.169802 6.64552C0.0947079 6.57249 0.0415713 6.47989 0.0164132 6.3782C-0.00874484 6.27651 -0.00491844 6.16982 0.0274588 6.07019C0.059836 5.97057 0.11947 5.88201 0.199602 5.81454C0.279734 5.74708 0.377162 5.7034 0.480843 5.68847L5.59359 4.94601L7.88079 0.312537C7.92708 0.218779 7.99866 0.139829 8.08744 0.0846025C8.17623 0.0293757 8.27868 7.18837e-05 8.38324 1.1741e-07ZM8.38324 1.82812L6.46914 5.70642C6.42886 5.78794 6.36935 5.85844 6.29576 5.91184C6.22216 5.96525 6.13669 5.99995 6.04669 6.01297L1.76613 6.63506L4.86384 9.65425C4.92887 9.71778 4.97748 9.79616 5.00549 9.88265C5.03349 9.96914 5.04005 10.0611 5.02459 10.1507L4.29335 14.4141L8.1223 12.4013C8.20277 12.359 8.29233 12.3369 8.38324 12.3369C8.47416 12.3369 8.56372 12.359 8.64419 12.4013L12.4724 14.4141L11.7419 10.1507C11.7264 10.0611 11.733 9.96914 11.761 9.88265C11.789 9.79616 11.8376 9.71778 11.9027 9.65425L15.0004 6.63506L10.7198 6.01372C10.6298 6.0007 10.5443 5.96599 10.4707 5.91259C10.3971 5.85919 10.3376 5.78868 10.2973 5.70717L8.38324 1.82737V1.82812Z" />
	</symbol>
	<symbol id="google" viewBox="0 0 21 23">
		<path d="M19.3669423,20.5850671 C17.6674959,22.0541945 15.393913,22.9 12.708,22.9 C8.64044445,22.9 5.13911111,20.5657778 3.42888889,17.1684445 L3.42888889,17.1684445 L6.79155555,14.5568889 C7.62355555,17.0644445 9.95777778,18.8786666 12.708,18.8786666 C14.2564445,18.8786666 15.4351111,18.4511111 16.3133334,17.8386666 L16.3133334,17.8386666 L16.550174,17.6626496 C17.7716524,16.6997447 18.3307974,15.3671372 18.4395555,14.4644445 L18.4395555,14.4644445 L12.708,14.4644445 L12.708,10.6048889 L22.4724445,10.6048889 C22.6226666,11.252 22.692,11.876 22.692,12.7311111 C22.692,15.8973334 21.5595555,18.5666666 19.5951111,20.3808889 L19.5951111,20.3808889 Z M12.708,2.1 C15.516,2.1 17.8617778,3.12844445 19.6644445,4.804 L19.6644445,4.804 L16.7293334,7.66977778 C15.9782222,6.96488889 14.6608889,6.12133334 12.708,6.12133334 C9.95777778,6.12133334 7.62355555,7.93555555 6.78,10.4431111 L6.78,10.4431111 L6.69594428,10.723207 C6.53827664,11.2887891 6.44488889,11.8859047 6.44488889,12.5 C6.44488889,13.2164445 6.572,13.9097778 6.79155555,14.5568889 L6.79155555,14.5568889 L3.41733334,17.1684445 C2.71244444,15.7586666 2.308,14.1755555 2.308,12.5 C2.308,10.8244445 2.71244444,9.24133334 3.41733334,7.83155555 L3.41733334,7.83155555 L3.55607329,7.56557687 C5.31282856,4.31298492 8.74748538,2.1 12.708,2.1 Z" />
	</symbol>
	<symbol id="info" viewBox="0 0 25 25">
		<path fill-rule="evenodd" clip-rule="evenodd" d="M12.5 25C14.7837 25 16.897 24.4291 18.8401 23.2873C20.7232 22.2055 22.2055 20.7232 23.2873 18.8401C24.4291 16.897 25 14.7837 25 12.5C25 10.2163 24.4291 8.10296 23.2873 6.15986C22.2055 4.27684 20.7232 2.79447 18.8401 1.71274C16.897 0.570914 14.7837 0 12.5 0C10.2364 0 8.13301 0.570914 6.1899 1.71274C4.30689 2.8145 2.8145 4.30689 1.71274 6.1899C0.570914 8.13301 0 10.2364 0 12.5C0 14.7636 0.570914 16.867 1.71274 18.8101C2.79447 20.6931 4.27684 22.1855 6.15986 23.2873C8.10296 24.4291 10.2163 25 12.5 25ZM12.5 14.732C11.8196 14.732 11.268 14.1804 11.268 13.5V7.45192C11.268 6.77152 11.8196 6.21995 12.5 6.21995C13.1804 6.21995 13.732 6.77152 13.732 7.45192V13.5C13.732 14.1804 13.1804 14.732 12.5 14.732ZM12.5 16.256C11.8196 16.256 11.268 16.8076 11.268 17.488V17.5481C11.268 18.2285 11.8196 18.78 12.5 18.78C13.1804 18.78 13.732 18.2285 13.732 17.5481V17.488C13.732 16.8076 13.1804 16.256 12.5 16.256Z" />
	</symbol>
	<symbol id="ios" fill="none" viewBox="0 0 20 20">
		<path fill="url(#ios_linear)" d="M18.0685 15.5861C17.7661 16.2848 17.408 16.928 16.9932 17.5193C16.4278 18.3255 15.9649 18.8835 15.6081 19.1934C15.055 19.702 14.4625 19.9625 13.8279 19.9773C13.3724 19.9773 12.823 19.8477 12.1835 19.5847C11.5419 19.323 10.9523 19.1934 10.4132 19.1934C9.84778 19.1934 9.24138 19.323 8.59276 19.5847C7.94315 19.8477 7.41983 19.9847 7.01972 19.9983C6.41122 20.0242 5.8047 19.7563 5.19928 19.1934C4.81288 18.8563 4.32956 18.2786 3.75056 17.4601C3.12935 16.586 2.61862 15.5725 2.21851 14.417C1.79 13.1689 1.5752 11.9603 1.5752 10.7902C1.5752 9.44984 1.86482 8.29382 2.44492 7.32509C2.90083 6.54696 3.50736 5.93315 4.26647 5.48255C5.02558 5.03195 5.84581 4.80232 6.72911 4.78763C7.21243 4.78763 7.84624 4.93713 8.63387 5.23095C9.41928 5.52576 9.92359 5.67526 10.1447 5.67526C10.31 5.67526 10.8702 5.50045 11.8199 5.15194C12.7181 4.82874 13.4761 4.69492 14.097 4.74763C15.7797 4.88343 17.0439 5.54675 17.8846 6.74177C16.3797 7.6536 15.6353 8.93072 15.6501 10.5691C15.6637 11.8452 16.1266 12.9071 17.0365 13.7503C17.4488 14.1417 17.9093 14.4441 18.4216 14.6589C18.3105 14.9812 18.1932 15.2898 18.0685 15.5861V15.5861ZM14.2094 0.400111C14.2094 1.40034 13.844 2.33425 13.1156 3.19867C12.2366 4.22629 11.1734 4.8201 10.0205 4.7264C10.0058 4.6064 9.99729 4.48011 9.99729 4.3474C9.99729 3.38718 10.4153 2.35956 11.1576 1.51934C11.5282 1.09392 11.9996 0.740188 12.5712 0.458011C13.1415 0.180044 13.681 0.0263202 14.1884 0C14.2032 0.133712 14.2094 0.267436 14.2094 0.400099V0.400111Z" />
	</symbol>
	<symbol id="key" viewBox="0 0 24 24">
		<path d="M0 0h24v24H0z" fill="none" />
		<path d="M12.65 10C11.83 7.67 9.61 6 7 6c-3.31 0-6 2.69-6 6s2.69 6 6 6c2.61 0 4.83-1.67 5.65-4H17v4h4v-4h2v-4H12.65zM7 14c-1.1 0-2-.9-2-2s.9-2 2-2 2 .9 2 2-.9 2-2 2z" />
	</symbol>
	<symbol id="keyword" viewBox="0 0 40 38" fill="none">
		<path d="M1 21.3997V2.28356C1 1.73127 1.44773 1.28355 2.00002 1.28356L21.4 1.28388M15.9868 17.7744H16.0916M20.2803 17.7744H20.3851M24.5739 17.7744H24.6786M35 26.154V7.31145C35 6.75917 34.5523 6.31145 34 6.31145H7.02757C6.47528 6.31145 6.02757 6.75917 6.02757 7.31145V32.7115C6.02757 33.4895 6.87693 33.9695 7.54343 33.5682L13.7038 29.8587C13.8595 29.7649 14.0378 29.7153 14.2196 29.7153H31.831C33.5818 29.7153 35 28.1202 35 26.154Z" stroke="#FF6666" stroke-width="2" stroke-linecap="round" stroke-linejoin="round" />
		<path d="M33.6977 16.1113L25.0443 26.0442C25.0443 26.0442 25.0443 26.0442 25.0443 26.0442C24.8449 26.2726 24.7188 26.5505 24.6716 26.8405C24.6244 27.1305 24.6562 27.4302 24.7661 27.7053C24.8762 27.9808 25.0634 28.2274 25.3153 28.4063C25.5683 28.5859 25.873 28.687 26.1915 28.6869C26.1916 28.6869 26.1918 28.6869 26.1919 28.6869H28.4617L26.8764 34.2525C26.8764 34.2526 26.8764 34.2528 26.8763 34.2529C26.8763 34.2531 26.8762 34.2532 26.8762 34.2533C26.7829 34.5805 26.7945 34.9309 26.9105 35.2519L27.8464 34.9137L26.9105 35.2519C27.0268 35.5738 27.2465 35.8601 27.5505 36.0512C27.8564 36.2435 28.2234 36.323 28.588 36.2657C28.9517 36.2085 29.2719 36.0221 29.5031 35.7564L38.1565 25.8236C38.3558 25.5951 38.4819 25.3173 38.5292 25.0272L38.5292 25.0272C38.5764 24.7373 38.5446 24.4375 38.4347 24.1624C38.3246 23.8869 38.1374 23.6404 37.8854 23.4615C37.6325 23.2819 37.3278 23.1808 37.0093 23.1809C37.0091 23.1809 37.009 23.1809 37.0089 23.1809H34.7392L36.3244 17.6164C36.3244 17.6161 36.3245 17.6159 36.3246 17.6157C36.418 17.2881 36.4063 16.9372 36.2899 16.6158C36.2899 16.6158 36.2899 16.6158 36.2899 16.6158L35.3497 16.9564C35.3051 16.8333 35.2231 16.7302 35.1173 16.6639M33.6977 16.1113L35.1173 16.6639M33.6977 16.1113C33.6978 16.1112 33.6979 16.1111 33.698 16.111C33.9289 15.8459 34.2485 15.6597 34.6115 15.6023C34.9756 15.5448 35.3422 15.6236 35.6481 15.8152L36.1173 16.1091V16.2737M33.6977 16.1113L36.1173 16.2737M35.1173 16.6639H36.1173V16.6627V16.2737M35.1173 16.6639L35.118 16.6627L35.648 15.8164C35.8392 15.9361 35.9972 16.0935 36.1173 16.2737" fill="#FF6666" stroke="white" stroke-width="2" />
	</symbol>
	<symbol id="light" viewBox="0 0 14 16">
		<path d="M7.03246 3.77224C7.37679 3.59646 7.51343 3.17483 7.33765 2.83051C7.16187 2.48618 6.74024 2.34954 6.39592 2.52532C5.41285 3.02717 4.74808 3.87757 4.48945 4.95497C4.39622 5.34336 4.3683 5.7081 4.36255 5.97144C4.35965 6.10454 4.36234 6.21536 4.36594 6.29495C4.36775 6.33482 4.36979 6.36709 4.37151 6.39066L4.37377 6.41942L4.37458 6.4287L4.37489 6.43202L4.37502 6.43335L4.37512 6.43445C4.41247 6.81924 4.75469 7.1009 5.13948 7.06355C5.52413 7.02622 5.80573 6.68429 5.76862 6.29967L5.76871 6.3005L5.76782 6.28911C5.76697 6.27746 5.7657 6.25796 5.76451 6.23165C5.76212 6.17886 5.76009 6.09962 5.76222 6.00198C5.76654 5.80383 5.78775 5.54433 5.85078 5.28174C6.015 4.59763 6.41806 4.08589 7.03246 3.77224Z" />
		<path fill-rule="evenodd" clip-rule="evenodd" d="M7.60295 0.428332L7.54346 0.416992H7.02427L6.89642 0.429168C6.83316 0.43512 6.76393 0.441633 6.69396 0.449287C4.70781 0.668096 3.01469 2.02787 2.37506 3.91898C2.23017 4.34744 2.1397 4.79025 2.11101 5.24717L2.09961 5.30623V5.82604L2.11149 5.95098C2.1175 6.01494 2.12416 6.08585 2.13219 6.15762C2.21386 6.8873 2.43938 7.57942 2.82395 8.21668C2.94199 8.41227 3.06852 8.59926 3.18358 8.76929L3.18804 8.77588C3.24499 8.86004 3.2992 8.94017 3.35205 9.02031C3.74987 9.62348 4.12122 10.234 4.45255 10.8628L4.45377 10.8651L4.46294 10.8824L4.46353 10.8835L4.47177 10.899L4.47337 10.9021C4.54709 11.0838 4.67329 11.2597 4.86911 11.383C5.06289 11.5049 5.26708 11.539 5.43508 11.5388C6.21002 11.5382 6.985 11.5383 7.76032 11.5384L8.68059 11.5385C8.82086 11.5385 8.96183 11.5385 9.1029 11.5383C9.28658 11.5381 9.48521 11.4937 9.66772 11.3727C9.84512 11.2551 9.95652 11.0988 10.0273 10.9586C10.1436 10.7281 10.2678 10.4998 10.3983 10.2734C10.7396 9.68094 11.1055 9.10536 11.4984 8.54753C12.0543 7.75835 12.3594 6.87463 12.4237 5.91956L12.4353 5.85448V5.33992L12.4233 5.21417L12.4231 5.21254C12.4171 5.14925 12.4106 5.07984 12.4029 5.00979C12.1843 3.0218 10.8233 1.33193 8.92759 0.690983C8.49955 0.546261 8.05784 0.45692 7.60295 0.428332ZM7.02987 1.8228C6.96421 1.82897 6.90472 1.83458 6.84621 1.84098C5.40033 2.00027 4.16625 2.99277 3.70127 4.36751C3.59083 4.69407 3.52516 5.02514 3.50658 5.36334C3.50517 5.3886 3.50247 5.41331 3.49961 5.43387V5.75958L3.50511 5.81742C3.51138 5.88412 3.51698 5.9436 3.5235 6.00195C3.58385 6.54104 3.74773 7.03784 4.0226 7.49332C4.12023 7.65511 4.22785 7.81443 4.34752 7.99127L4.34865 7.99294C4.40446 8.07543 4.46299 8.16192 4.5208 8.24959C4.92214 8.8581 5.30533 9.4852 5.65325 10.1387C6.35579 10.1383 7.05826 10.1383 7.76045 10.1384L8.87481 10.1385C8.97473 9.94765 9.07853 9.75961 9.18518 9.5745C9.54677 8.94691 9.93538 8.33537 10.3539 7.74127C10.7623 7.16152 10.984 6.51801 11.0284 5.80278C11.0299 5.77804 11.0326 5.75455 11.0353 5.73492V5.4066L11.0295 5.34641C11.0233 5.28069 11.0177 5.2212 11.0113 5.16269C10.8523 3.71719 9.86028 2.48417 8.47918 2.01723C8.15479 1.90755 7.82489 1.84258 7.48729 1.82393C7.46187 1.82252 7.43768 1.81985 7.41709 1.81699H7.0908L7.02987 1.8228Z" />
		<path d="M5.79678 12.2602C5.41018 12.2602 5.09678 12.5736 5.09678 12.9602C5.09678 13.3468 5.41018 13.6602 5.79678 13.6602H8.66363C9.05023 13.6602 9.36363 13.3468 9.36363 12.9602C9.36363 12.5736 9.05023 12.2602 8.66363 12.2602H5.79678Z" />
		<path d="M5.61802 15.117C5.61802 14.7304 5.93142 14.417 6.31802 14.417H8.14239C8.52899 14.417 8.84239 14.7304 8.84239 15.117C8.84239 15.5036 8.52899 15.817 8.14239 15.817H6.31802C5.93142 15.817 5.61802 15.5036 5.61802 15.117Z" />
	</symbol>
	<symbol id="linkedin" viewBox="0 0 20 20">
		<path fill-rule="evenodd" clip-rule="evenodd" d="M2.42515 5.23169C3.7638 5.23169 4.84901 4.24202 4.84901 3.01986C4.84901 1.79663 3.7638 0.805664 2.42515 0.805664C1.08522 0.805664 0 1.79663 0 3.01986C0 4.24202 1.08522 5.23169 2.42515 5.23169ZM0.555577 19.4599H4.90465V6.91678H0.555577V19.4599ZM13.3165 9.63861C11.6892 9.63861 11.0087 11.0453 11.0087 12.4837V19.2997H6.66673V6.75656H11.0087V8.44522C12.1511 6.97002 13.1439 6.36122 14.9438 6.36122C16.7452 6.36122 19.6736 7.21528 19.6736 12.1692V19.2997H15.3439V12.4493C15.3439 11.0453 14.9438 9.63861 13.3165 9.63861Z" />
	</symbol>
	<symbol id="mic" viewBox="0 0 14 14">
		<path d="M8.09738 8.54867C7.7552 8.74926 7.38942 8.84956 7.00004 8.84956C6.61066 8.84956 6.24488 8.74926 5.90269 8.54867C5.56051 8.34808 5.28912 8.0767 5.08853 7.73451C4.88794 7.39233 4.78765 7.02655 4.78765 6.63717V2.21239C4.78765 1.82301 4.88794 1.45723 5.08853 1.11504C5.28912 0.772861 5.56051 0.501475 5.90269 0.300885C6.24488 0.100295 6.61066 0 7.00004 0C7.38942 0 7.7552 0.100295 8.09738 0.300885C8.43957 0.501475 8.71095 0.772861 8.91154 1.11504C9.11213 1.45723 9.21243 1.82301 9.21243 2.21239V6.63717C9.21243 7.02655 9.11213 7.39233 8.91154 7.73451C8.71095 8.0767 8.43957 8.34808 8.09738 8.54867Z" fill="white" />
		<path d="M7.72572 11.5753V14.0001H6.27439V11.5753C5.47203 11.4691 4.73162 11.183 4.05315 10.7169C3.37468 10.2508 2.84076 9.66968 2.45138 8.97352C2.0502 8.24195 1.84961 7.46319 1.84961 6.63724H3.08855C3.08855 7.357 3.27734 8.00597 3.65492 8.58414C4.0089 9.13871 4.48383 9.57529 5.0797 9.89387C5.67557 10.2125 6.31569 10.3717 7.00005 10.3717C7.68442 10.3717 8.32454 10.2125 8.92041 9.89387C9.51628 9.57529 9.9912 9.13871 10.3452 8.58414C10.7228 8.00597 10.9116 7.357 10.9116 6.63724H12.1505C12.1505 7.46319 11.9499 8.24195 11.5487 8.97352C11.1593 9.66968 10.6254 10.2508 9.94695 10.7169C9.26849 11.183 8.52808 11.4691 7.72572 11.5753Z" fill="white" />
	</symbol>
	<symbol id="nlu" viewBox="0 0 34 38" fill="none">
		<path d="M32.8854 1.27521C32.8807 1.1406 32.7702 1.03389 32.6355 1.03389H1.99465C1.85996 1.03389 1.74948 1.1406 1.7448 1.27521L1.45035 9.74971C1.44799 9.81748 1.47327 9.8833 1.52038 9.93207C1.56748 9.98085 1.63239 10.0084 1.7002 10.0084H3.4223C3.54364 10.0084 3.64747 9.92125 3.66851 9.80174C4.13449 7.15526 4.80128 5.71388 6.14183 4.87625C6.82086 4.45196 7.69115 4.17066 8.83612 3.98374C9.98128 3.79679 11.3856 3.70652 13.1244 3.65453L13.1246 3.65453L14.3972 3.61564V30.3156C14.3972 31.4562 14.2613 32.0396 13.7225 32.4255C13.4381 32.6292 13.0217 32.7924 12.4019 32.9256C11.784 33.0585 10.9839 33.1576 9.94606 33.2455C9.81664 33.2565 9.71717 33.3648 9.71717 33.4946V35.2839C9.71717 35.422 9.8291 35.5339 9.96717 35.5339H24.663C24.8011 35.5339 24.913 35.422 24.913 35.2839V33.4946C24.913 33.3647 24.8135 33.2564 24.684 33.2455C23.6406 33.1576 22.8362 33.0587 22.215 32.9262C21.592 32.7932 21.1734 32.6303 20.8876 32.4267C20.3467 32.0413 20.2107 31.4584 20.2107 30.3156V3.61483L21.5056 3.65028C21.5058 3.65028 21.5059 3.65028 21.5061 3.65029C23.2435 3.70335 24.6472 3.7944 25.7921 3.98192C26.9368 4.16944 27.8073 4.45113 28.4867 4.87571C29.8279 5.71391 30.4957 7.15541 30.9617 9.80174C30.9827 9.92125 31.0866 10.0084 31.2079 10.0084H32.93C32.9978 10.0084 33.0627 9.98085 33.1098 9.93207C33.1569 9.8833 33.1822 9.81748 33.1798 9.74971L32.8854 1.27521Z" fill="#F29E4C" stroke="#F29E4C" stroke-width="0.5" stroke-linecap="round" stroke-linejoin="round" />
		<path d="M22.732 28.6869L21.3399 34.2852C21.3399 34.2854 21.3398 34.2855 21.3398 34.2857C21.3398 34.2857 21.3397 34.2858 21.3397 34.2859C21.2642 34.5893 21.2731 34.9126 21.3678 35.2129C21.4623 35.5125 21.6492 35.807 21.9395 36.0161C22.2372 36.2304 22.6171 36.3321 23.0066 36.262C23.3901 36.1929 23.6972 35.9736 23.9013 35.7052C23.9014 35.7051 23.9015 35.705 23.9016 35.7049L31.4561 25.7721C31.4562 25.772 31.4562 25.7719 31.4563 25.7718C31.4564 25.7717 31.4565 25.7716 31.4566 25.7714C31.632 25.5409 31.7343 25.2733 31.7722 25.0072C31.8101 24.7405 31.7852 24.4633 31.6948 24.2041C31.6045 23.9455 31.4445 23.6939 31.2073 23.501C30.9667 23.3053 30.6572 23.1808 30.3169 23.1809C30.3167 23.1809 30.3166 23.1809 30.3164 23.1809H28.4578L29.8498 17.5837C29.9256 17.2797 29.9166 16.9557 29.8215 16.6549C29.784 16.5365 29.7321 16.4189 29.6651 16.307V16.1494L29.248 15.8502C28.9503 15.6366 28.5706 15.5356 28.1817 15.6061C27.7988 15.6754 27.4922 15.8945 27.2884 16.1625C27.2883 16.1626 27.2882 16.1627 27.2882 16.1628L19.7336 26.0957C19.7334 26.0959 19.7332 26.0961 19.7331 26.0963C19.5576 26.3269 19.4553 26.5944 19.4175 26.8605C19.3796 27.1273 19.4045 27.4045 19.4949 27.6637C19.5852 27.9223 19.7451 28.1738 19.9823 28.3667C20.223 28.5624 20.5324 28.687 20.8728 28.6869C20.8729 28.6869 20.8731 28.6869 20.8733 28.6869H22.732Z" fill="#F29E4C" stroke="white" stroke-width="2" />
	</symbol>
	<symbol id="node" viewBox="0 0 20 20">
		<path fill="url(#node_linear)" fill-rule="evenodd" clip-rule="evenodd" d="M9.31907 0.128041C9.60842 -0.0426804 9.9711 -0.0426804 10.2643 0.128041L18.1059 4.65169C18.3992 4.82144 18.5786 5.13395 18.5786 5.47154V14.5285C18.5786 14.8661 18.3992 15.1786 18.1059 15.3483L10.2643 19.872C9.9711 20.0427 9.60842 20.0427 9.31907 19.872L1.48226 15.3483C1.18326 15.1786 1 14.8661 1 14.5285V5.47154C1 5.13395 1.17364 4.82144 1.47264 4.65169L9.31907 0.128041Z" />
	</symbol>
	<symbol id="play-circle-outline" viewBox="0 0 24 24">
		<path d="M0 0h24v24H0z" fill="none" />
		<path d="M10 16.5l6-4.5-6-4.5v9zM12 2C6.48 2 2 6.48 2 12s4.48 10 10 10 10-4.48 10-10S17.52 2 12 2zm0 18c-4.41 0-8-3.59-8-8s3.59-8 8-8 8 3.59 8 8-3.59 8-8 8z" />
	</symbol>
	<symbol id="play-circle" viewBox="0 0 24 24">
		<path d="M0 0h24v24H0z" fill="none" />
		<path d="M12 2C6.48 2 2 6.48 2 12s4.48 10 10 10 10-4.48 10-10S17.52 2 12 2zm-2 14.5v-9l6 4.5-6 4.5z" />
	</symbol>
	<symbol id="play" viewBox="0 0 20 22">
		<g transform="translate(-25.000000, -22.000000)" fill-rule="nonzero">
			<path d="M25.6537588,23.307396 L25.6537588,42.6926134 C25.6537588,43.7077402 26.7615969,44.3343954 27.6316378,43.8114126 L43.7133857,34.1446508 C44.5560327,33.6381345 44.5574722,32.4171431 43.7160219,31.9086413 L27.634274,22.1901856 C26.7642914,21.6644414 25.6537588,22.2908938 25.6537588,23.307396 Z">
			</path>
		</g>
	</symbol>
	<symbol id="python" viewBox="0 0 21 20">
		<path fill="url(#python1_linear)" d="M10.5221 0.112159C9.72507 0.115863 8.96394 0.183837 8.29421 0.302344C6.3213 0.650892 5.9631 1.38043 5.9631 2.72584V4.5027H10.6253V5.09499H5.9631H4.2134C2.85843 5.09499 1.67197 5.90941 1.30087 7.45871C0.872798 9.23457 0.853811 10.3427 1.30087 12.197C1.63227 13.5773 2.42372 14.5607 3.7787 14.5607H5.38168V12.4307C5.38168 10.8918 6.71312 9.53443 8.29421 9.53443H12.951C14.2473 9.53443 15.2821 8.46711 15.2821 7.16528V2.72584C15.2821 1.46234 14.2162 0.513215 12.951 0.302344C12.1501 0.169023 11.3191 0.108456 10.5221 0.112159ZM8.00079 1.54126C8.48236 1.54126 8.87564 1.94095 8.87564 2.43241C8.87564 2.92212 8.48236 3.31812 8.00079 3.31812C7.51748 3.31812 7.12594 2.92212 7.12594 2.43241C7.12594 1.94095 7.51748 1.54126 8.00079 1.54126Z" />
		<path fill="url(#python2_linear)" d="M15.8633 5.09494V7.16523C15.8633 8.7703 14.5026 10.1212 12.9508 10.1212H8.29401C7.01843 10.1212 5.96289 11.213 5.96289 12.4904V16.9298C5.96289 18.1933 7.06158 18.9365 8.29401 19.299C9.76981 19.7329 11.185 19.8114 12.9508 19.299C14.1245 18.9592 15.2819 18.2752 15.2819 16.9298V15.153H10.6251V14.5607H15.2819H17.613C18.968 14.5607 19.4729 13.6156 19.9442 12.197C20.4309 10.7365 20.4102 9.33211 19.9442 7.45866C19.6093 6.10977 18.9697 5.09494 17.613 5.09494H15.8633ZM13.2442 16.3376C13.7275 16.3376 14.1191 16.7336 14.1191 17.2233C14.1191 17.7147 13.7275 18.1144 13.2442 18.1144C12.7627 18.1144 12.3694 17.7147 12.3694 17.2233C12.3694 16.7336 12.7627 16.3376 13.2442 16.3376Z" />
	</symbol>
	<symbol id="react-native" viewBox="0 0 23 22">
		<path d="M11.5 13.2817C12.6322 13.2817 13.55 12.3639 13.55 11.2317C13.55 10.0996 12.6322 9.18175 11.5 9.18175C10.3678 9.18175 9.45 10.0996 9.45 11.2317C9.45 12.3639 10.3678 13.2817 11.5 13.2817Z" fill="#61DAFB" />
		<path fill-rule="evenodd" clip-rule="evenodd" d="M1.69947 9.96806C1.20466 10.4147 1 10.8426 1 11.2317C1 11.6209 1.20466 12.0487 1.69947 12.4954C2.19424 12.9421 2.93825 13.3672 3.90018 13.7345C5.82059 14.4677 8.5074 14.9317 11.5 14.9317C14.4926 14.9317 17.1794 14.4677 19.0998 13.7345C20.0618 13.3672 20.8058 12.9421 21.3005 12.4954C21.7953 12.0487 22 11.6209 22 11.2317C22 10.8426 21.7953 10.4147 21.3005 9.96806C20.8058 9.52143 20.0618 9.09629 19.0998 8.72901C17.1794 7.99576 14.4926 7.53175 11.5 7.53175C8.5074 7.53175 5.82059 7.99576 3.90018 8.72901C2.93825 9.09629 2.19424 9.52143 1.69947 9.96806ZM3.54347 7.79479C5.60427 7.00794 8.41747 6.53175 11.5 6.53175C14.5825 6.53175 17.3957 7.00794 19.4565 7.79479C20.4852 8.18756 21.3521 8.66744 21.9706 9.22577C22.589 9.78405 23 10.4611 23 11.2317C23 12.0024 22.589 12.6794 21.9706 13.2377C21.3521 13.796 20.4852 14.2759 19.4565 14.6687C17.3957 15.4556 14.5825 15.9317 11.5 15.9317C8.41747 15.9317 5.60427 15.4556 3.54347 14.6687C2.51479 14.2759 1.64789 13.796 1.02939 13.2377C0.410952 12.6794 0 12.0024 0 11.2317C0 10.4611 0.410952 9.78405 1.02939 9.22577C1.64789 8.66744 2.51479 8.18756 3.54347 7.79479Z" fill="#61DAFB" />
		<path fill-rule="evenodd" clip-rule="evenodd" d="M7.69412 2.1124C7.05987 1.90722 6.587 1.94392 6.25 2.13848C5.913 2.33304 5.64478 2.72422 5.50535 3.37608C5.36594 4.02788 5.36976 4.88478 5.53265 5.90148C5.85785 7.93123 6.7994 10.4901 8.29571 13.0817C9.79201 15.6734 11.5373 17.7683 13.1325 19.0648C13.9315 19.7142 14.6717 20.1459 15.3059 20.3511C15.9401 20.5563 16.413 20.5196 16.75 20.325C17.087 20.1304 17.3552 19.7393 17.4946 19.0874C17.6341 18.4356 17.6302 17.5787 17.4673 16.562C17.1422 14.5323 16.2006 11.9734 14.7043 9.38175C13.208 6.79008 11.4627 4.69524 9.86752 3.39874C9.06849 2.74932 8.3283 2.31756 7.69412 2.1124ZM10.4982 2.62271C12.2101 4.01399 14.0291 6.2122 15.5703 8.88175C17.1116 11.5513 18.1058 14.2257 18.4548 16.4038C18.6289 17.4911 18.6468 18.4818 18.4725 19.2966C18.2983 20.1113 17.9174 20.8057 17.25 21.191C16.5826 21.5764 15.7908 21.559 14.9981 21.3025C14.2053 21.0461 13.3563 20.5353 12.5018 19.8408C10.7899 18.4495 8.97095 16.2513 7.42968 13.5817C5.88842 10.9122 4.89421 8.2378 4.54525 6.05967C4.37105 4.97242 4.35319 3.98172 4.52747 3.16692C4.70174 2.3522 5.08258 1.65779 5.75 1.27245C6.41742 0.88712 7.20922 0.904503 8.00192 1.16095C8.7947 1.41742 9.64374 1.92824 10.4982 2.62271Z" fill="#61DAFB" />
		<path fill-rule="evenodd" clip-rule="evenodd" d="M17.4946 3.37608C17.3552 2.72422 17.087 2.33304 16.75 2.13848C16.413 1.94391 15.9401 1.90722 15.3059 2.1124C14.6717 2.31756 13.9315 2.74932 13.1325 3.39874C11.5373 4.69524 9.79201 6.79008 8.2957 9.38175C6.7994 11.9734 5.85785 14.5323 5.53265 16.562C5.36976 17.5787 5.36594 18.4356 5.50535 19.0874C5.64478 19.7393 5.913 20.1304 6.25 20.325C6.58699 20.5196 7.05987 20.5563 7.69412 20.3511C8.3283 20.1459 9.06848 19.7142 9.86752 19.0648C11.4627 17.7683 13.208 15.6734 14.7043 13.0817C16.2006 10.4901 17.1422 7.93123 17.4673 5.90148C17.6302 4.88478 17.6341 4.02788 17.4946 3.37608ZM18.4548 6.05967C18.1058 8.2378 17.1116 10.9122 15.5703 13.5817C14.0291 16.2513 12.2101 18.4495 10.4982 19.8408C9.64374 20.5353 8.7947 21.0461 8.00192 21.3025C7.20921 21.559 6.41742 21.5764 5.75 21.191C5.08258 20.8057 4.70174 20.1113 4.52747 19.2966C4.35319 18.4818 4.37105 17.4911 4.54524 16.4038C4.89421 14.2257 5.88842 11.5513 7.42968 8.88175C8.97094 6.2122 10.7899 4.01399 12.5018 2.62271C13.3563 1.92824 14.2053 1.41742 14.9981 1.16095C15.7908 0.904502 16.5826 0.88712 17.25 1.27245C17.9174 1.65779 18.2983 2.3522 18.4725 3.16692C18.6468 3.98172 18.6289 4.97242 18.4548 6.05967Z" fill="#61DAFB" />
	</symbol>
	<symbol id="sdks" viewBox="0 0 36 37">
		<path d="M1 1.28389V0.28389H0V1.28389H1ZM35 1.28389H36V0.28389H35V1.28389ZM35 35.2839V36.2839H36V35.2839H35ZM1 35.2839H0V36.2839H1V35.2839ZM35 14.869C35.5523 14.869 36 14.4213 36 13.869C36 13.3167 35.5523 12.869 35 12.869V14.869ZM1 12.869C0.447715 12.869 0 13.3167 0 13.869C0 14.4213 0.447715 14.869 1 14.869V12.869ZM20.6407 28.5131C20.2813 28.9324 20.3299 29.5637 20.7492 29.9232C21.1685 30.2826 21.7998 30.234 22.1593 29.8147L20.6407 28.5131ZM25.48 24.4039L26.2393 25.0547L26.7971 24.4039L26.2393 23.7531L25.48 24.4039ZM22.1593 18.9931C21.7998 18.5738 21.1685 18.5252 20.7492 18.8846C20.3299 19.2441 20.2813 19.8754 20.6407 20.2947L22.1593 18.9931ZM13.8407 29.8147C14.2002 30.234 14.8315 30.2826 15.2508 29.9232C15.6701 29.5637 15.7187 28.9324 15.3593 28.5131L13.8407 29.8147ZM10.52 24.4039L9.76074 23.7531L9.20292 24.4039L9.76074 25.0547L10.52 24.4039ZM15.3593 20.2947C15.7187 19.8754 15.6701 19.2441 15.2508 18.8846C14.8315 18.5252 14.2002 18.5738 13.8407 18.9931L15.3593 20.2947ZM7.5875 6.375C7.03522 6.375 6.5875 6.82272 6.5875 7.375C6.5875 7.92729 7.03522 8.375 7.5875 8.375V6.375ZM7.71039 8.375C8.26268 8.375 8.71039 7.92729 8.71039 7.375C8.71039 6.82272 8.26268 6.375 7.71039 6.375V8.375ZM12.6261 6.375C12.0738 6.375 11.6261 6.82272 11.6261 7.375C11.6261 7.92729 12.0738 8.375 12.6261 8.375V6.375ZM12.7489 8.375C13.3012 8.375 13.7489 7.92729 13.7489 7.375C13.7489 6.82272 13.3012 6.375 12.7489 6.375V8.375ZM17.6646 6.375C17.1123 6.375 16.6646 6.82272 16.6646 7.375C16.6646 7.92729 17.1123 8.375 17.6646 8.375V6.375ZM17.7875 8.375C18.3398 8.375 18.7875 7.92729 18.7875 7.375C18.7875 6.82272 18.3398 6.375 17.7875 6.375V8.375ZM1 2.28389H35V0.28389H1V2.28389ZM34 1.28389V35.2839H36V1.28389H34ZM35 34.2839H1V36.2839H35V34.2839ZM2 35.2839V1.28389H0V35.2839H2ZM35 12.869H1V14.869H35V12.869ZM22.1593 29.8147L26.2393 25.0547L24.7207 23.7531L20.6407 28.5131L22.1593 29.8147ZM26.2393 23.7531L22.1593 18.9931L20.6407 20.2947L24.7207 25.0547L26.2393 23.7531ZM15.3593 28.5131L11.2793 23.7531L9.76074 25.0547L13.8407 29.8147L15.3593 28.5131ZM11.2793 25.0547L15.3593 20.2947L13.8407 18.9931L9.76074 23.7531L11.2793 25.0547ZM7.5875 8.375H7.71039V6.375H7.5875V8.375ZM12.6261 8.375H12.7489V6.375H12.6261V8.375ZM17.6646 8.375H17.7875V6.375H17.6646V8.375Z" fill="#2F5BEA" />
	</symbol>
	<symbol id="speech-pipeline" viewBox="0 0 43 38" fill="none">
		<path d="M35 4.53258C35 3.28734 28.5457 1 18 1C7.45433 1 1 3.28734 1 4.53258M35 4.53258C35 5.77781 28.5457 8.06516 18 8.06516C7.45433 8.06516 1 5.77781 1 4.53258M35 4.53258V32.7932C30.6338 34.2516 24.2985 35 18 35C11.7015 35 5.36617 34.2516 1 32.7932V4.53258M1 23.9618C5.36617 25.4202 11.7015 26.1686 18 26.1686C24.2985 26.1686 30.6338 25.4202 35 23.9618M1 15.1303C5.36617 16.5887 11.7015 17.3371 18 17.3371C24.2985 17.3371 30.6338 16.5887 35 15.1303" stroke="#99CAFF" stroke-width="2" stroke-linecap="round" stroke-linejoin="round" />
		<path d="M32.232 28.6869L30.8399 34.2852C30.8399 34.2854 30.8398 34.2855 30.8398 34.2857C30.8398 34.2857 30.8397 34.2858 30.8397 34.2859C30.7642 34.5893 30.7731 34.9126 30.8678 35.2129C30.9623 35.5125 31.1492 35.807 31.4395 36.0161C31.7371 36.2304 32.1171 36.3321 32.5066 36.262C32.8903 36.1929 33.1975 35.9735 33.4016 35.7049L40.9561 25.7721C40.9562 25.772 40.9562 25.7719 40.9563 25.7718C40.9564 25.7717 40.9565 25.7716 40.9566 25.7714C41.132 25.5409 41.2343 25.2733 41.2722 25.0072C41.3101 24.7405 41.2852 24.4633 41.1948 24.2041C41.1045 23.9455 40.9445 23.6939 40.7073 23.501C40.4667 23.3053 40.1572 23.1808 39.8169 23.1809C39.8167 23.1809 39.8166 23.1809 39.8164 23.1809H37.9578L39.3498 17.5837C39.3498 17.5835 39.3499 17.5833 39.3499 17.5831C39.4256 17.2792 39.4165 16.9555 39.3215 16.6549C39.284 16.5365 39.2321 16.4189 39.1651 16.307V16.1494L38.7481 15.8502C38.4503 15.6366 38.0706 15.5356 37.6817 15.6061C37.2988 15.6754 36.9922 15.8945 36.7884 16.1625C36.7883 16.1626 36.7882 16.1627 36.7882 16.1628L29.2336 26.0957C29.0578 26.3263 28.9554 26.5942 28.9175 26.8605C28.8796 27.1273 28.9045 27.4045 28.9949 27.6637C29.0852 27.9223 29.2451 28.1738 29.4823 28.3667C29.723 28.5624 30.0324 28.687 30.3728 28.6869C30.3729 28.6869 30.3731 28.6869 30.3733 28.6869H32.232ZM38.38 17.3736L38.3802 17.3733L38.3804 17.373C38.3803 17.3732 38.3801 17.3734 38.38 17.3736Z" fill="#99CAFF" stroke="white" stroke-width="2" />
	</symbol>
	<symbol id="stackoverflow" viewBox="0 0 120 120">
		<path d="M84.4 93.8V70.6h7.7v30.9H22.6V70.6h7.7v23.2z" />
		<path d="M38.8 68.4l37.8 7.9 1.6-7.6-37.8-7.9-1.6 7.6zm5-18l35 16.3 3.2-7-35-16.4-3.2 7.1zm9.7-17.2l29.7 24.7 4.9-5.9-29.7-24.7-4.9 5.9zm19.2-18.3l-6.2 4.6 23 31 6.2-4.6-23-31zM38 86h38.6v-7.7H38V86z" />
	</symbol>
	<symbol id="star" viewBox="0 0 41 41">
		<g transform="translate(-21.000000, -72.000000)" fill="#FACC5F">
			<g transform="translate(0.000000, 16.046250)">
				<g transform="translate(16.500000, 55.953750)">
					<polygon id="Star" points="25 37.6724679 22.3242131 40.8246197 20.5554383 37.0873303 17.1549896 39.4395304 16.413766 35.3717935 12.5203907 36.7637435 12.8572315 32.6427685 8.73625652 32.9796093 10.1282065 29.086234 6.06046958 28.3450104 8.41266974 24.9445617 4.67538034 23.1757869 7.82753209 20.5 4.67538034 17.8242131 8.41266974 16.0554383 6.06046958 12.6549896 10.1282065 11.913766 8.73625652 8.02039071 12.8572315 8.35723149 12.5203907 4.23625652 16.413766 5.62820654 17.1549896 1.56046958 20.5554383 3.91266974 22.3242131 0.175380342 25 3.32753209 27.6757869 0.175380342 29.4445617 3.91266974 32.8450104 1.56046958 33.586234 5.62820654 37.4796093 4.23625652 37.1427685 8.35723149 41.2637435 8.02039071 39.8717935 11.913766 43.9395304 12.6549896 41.5873303 16.0554383 45.3246197 17.8242131 42.1724679 20.5 45.3246197 23.1757869 41.5873303 24.9445617 43.9395304 28.3450104 39.8717935 29.086234 41.2637435 32.9796093 37.1427685 32.6427685 37.4796093 36.7637435 33.586234 35.3717935 32.8450104 39.4395304 29.4445617 37.0873303 27.6757869 40.8246197">
					</polygon>
				</g>
			</g>
		</g>
	</symbol>
	<symbol id="support" viewBox="0 0 34 34" fill="none">
		<path d="M27.819 6.46509L21.8078 12.4763L27.819 6.46509ZM21.8078 22.0915L27.819 28.1027L21.8078 22.0915ZM12.1926 12.4763L6.1814 6.46509L12.1926 12.4763ZM12.1926 22.0915L6.1814 28.1027L12.1926 22.0915ZM32.3002 17.2839C32.3002 19.2931 31.9044 21.2827 31.1356 23.1389C30.3667 24.9952 29.2397 26.6819 27.8189 28.1026C26.3982 29.5234 24.7115 30.6503 22.8553 31.4192C20.999 32.1881 19.0094 32.5839 17.0002 32.5839C14.991 32.5839 13.0014 32.1881 11.1451 31.4192C9.28886 30.6503 7.6022 29.5234 6.18146 28.1026C4.76072 26.6819 3.63374 24.9952 2.86484 23.1389C2.09594 21.2827 1.7002 19.2931 1.7002 17.2839C1.7002 13.2261 3.31215 9.33446 6.18146 6.46515C9.05077 3.59585 12.9424 1.98389 17.0002 1.98389C21.058 1.98389 24.9496 3.59585 27.8189 6.46515C30.6882 9.33446 32.3002 13.2261 32.3002 17.2839ZM23.8002 17.2839C23.8002 19.0874 23.0838 20.817 21.8085 22.0922C20.5333 23.3675 18.8037 24.0839 17.0002 24.0839C15.1967 24.0839 13.4671 23.3675 12.1919 22.0922C10.9166 20.817 10.2002 19.0874 10.2002 17.2839C10.2002 15.4804 10.9166 13.7508 12.1919 12.4756C13.4671 11.2003 15.1967 10.4839 17.0002 10.4839C18.8037 10.4839 20.5333 11.2003 21.8085 12.4756C23.0838 13.7508 23.8002 15.4804 23.8002 17.2839V17.2839Z" stroke-width="2.25" stroke-linecap="round" stroke-linejoin="round" />
	</symbol>
	<symbol id="time" viewBox="0 0 24 24">
		<path d="M11.99 2C6.47 2 2 6.48 2 12s4.47 10 9.99 10C17.52 22 22 17.52 22 12S17.52 2 11.99 2zM12 20c-4.42 0-8-3.58-8-8s3.58-8 8-8 8 3.58 8 8-3.58 8-8 8z" />
		<path d="M0 0h24v24H0z" fill="none" />
		<path d="M12.5 7H11v6l5.25 3.15.75-1.23-4.5-2.67z" />
	</symbol>
	<symbol id="tts" viewBox="0 0 32 31" fill="none">
		<path d="M23.5 8.75049V2.25052C23.5 1.69822 23.0523 1.2505 22.5 1.25052L2.00967 1.25109C1.45362 1.25111 1.00438 1.70472 1.00974 2.26074L1.19395 21.35C1.20147 22.1296 2.05864 22.6011 2.72113 22.19L6.00782 20.1508C6.16613 20.0525 6.34873 20.0005 6.53504 20.0005H8.50001M23.2656 17.6526H23.1843M19.9313 17.6526H19.85M16.597 17.6526H16.5156M8.50001 20.0005L8.50001 9.75049C8.50001 9.1982 8.94772 8.75049 9.50001 8.75049L30 8.75049C30.5523 8.75049 31 9.1982 31 9.75049L31 28.8575C31 29.6355 30.1506 30.1155 29.4842 29.7142L25.0918 27.0693C24.9361 26.9755 24.7578 26.926 24.576 26.926L9.50001 26.926C8.94772 26.926 8.50001 26.4782 8.50001 25.926V20.0005Z" stroke="#FBD67F" stroke-width="2" stroke-linecap="round" stroke-linejoin="round" />
	</symbol>
	<symbol id="tutorials" viewBox="0 0 34 37">
		<path d="M16.8182 7.22063C17.3715 6.93813 17.5911 6.26051 17.3086 5.70713C17.0261 5.15374 16.3485 4.93415 15.7951 5.21665L16.8182 7.22063ZM12.5567 11.0019L11.4628 10.7393L11.4628 10.7393L12.5567 11.0019ZM11.1984 14.1426C11.2584 14.761 11.8084 15.2137 12.4268 15.1536C13.0452 15.0936 13.4979 14.5436 13.4378 13.9252L11.1984 14.1426ZM28.4323 10.9236L29.5506 10.8009L29.5505 10.8007L28.4323 10.9236ZM21.1375 1.85974L20.7772 2.92547L20.7772 2.92547L21.1375 1.85974ZM18.2782 1.30334L18.216 2.42662L18.2161 2.42663L18.2782 1.30334ZM18.1977 1.29107L18.4198 0.188155L18.4083 0.185966L18.1977 1.29107ZM18.16 1.28389L18.3707 0.178787L18.2663 0.15889H18.16V1.28389ZM17.1405 1.28389V0.15889H17.087L17.0338 0.163959L17.1405 1.28389ZM16.9141 1.30546L17.0194 2.42551L17.0207 2.42539L16.9141 1.30546ZM16.4424 1.35224L16.3201 0.233909L16.3192 0.234003L16.4424 1.35224ZM7.37914 8.6334L6.31344 8.27295L6.31343 8.273L7.37914 8.6334ZM6.8193 11.5032L7.94255 11.566L7.94261 11.5649L6.8193 11.5032ZM6.80697 11.5832L5.70457 11.3586L5.70236 11.37L6.80697 11.5832ZM6.7998 11.6203L5.6952 11.4071L5.6748 11.5127V11.6203H6.7998ZM6.7998 12.6395H5.6748V12.6929L5.67986 12.746L6.7998 12.6395ZM6.82061 12.8582L7.94069 12.753L7.94056 12.7516L6.82061 12.8582ZM6.86839 13.3365L5.75036 13.4615L5.75037 13.4616L6.86839 13.3365ZM8.31442 17.6476L7.35122 18.2289H7.35122L8.31442 17.6476ZM9.15107 18.9313L8.21935 19.5618L8.21935 19.5618L9.15107 18.9313ZM9.56065 19.5418L8.62147 20.1611L8.62152 20.1612L9.56065 19.5418ZM12.3181 24.1599L11.3228 24.6843L11.3248 24.688L12.3181 24.1599ZM12.3403 24.2018L11.347 24.7299L11.348 24.7317L12.3403 24.2018ZM12.4359 24.3984L11.389 24.8103L11.3891 24.8105L12.4359 24.3984ZM13.1988 24.8941L13.1979 23.7691H13.1979L13.1988 24.8941ZM18.8474 24.893L18.8473 26.018H18.8473L18.8474 24.893ZM21.0823 24.8932L21.0827 23.7682H21.0824L21.0823 24.8932ZM22.1054 24.8929L22.104 23.7679H22.1038L22.1054 24.8929ZM22.8351 24.4189L23.8394 24.9259L23.8394 24.9259L22.8351 24.4189ZM23.7806 22.6722L22.8058 22.1106L22.8058 22.1107L23.7806 22.6722ZM26.5357 18.3505L25.6159 17.7026L25.6159 17.7026L26.5357 18.3505ZM28.4806 12.7688L29.6035 12.8384L29.6035 12.8382L28.4806 12.7688ZM28.4934 12.6806L29.5994 12.8869L29.6011 12.8772L28.4934 12.6806ZM28.5007 12.6396L29.6084 12.8361L29.6257 12.7386V12.6396H28.5007ZM28.5007 11.6205H29.6257V11.567L29.6206 11.5136L28.5007 11.6205ZM28.4792 11.3958L27.3592 11.5014L27.3593 11.5027L28.4792 11.3958ZM14.0786 28.9209C13.4573 28.9209 12.9536 29.4245 12.9536 30.0459C12.9536 30.6672 13.4573 31.1709 14.0786 31.1709V28.9209ZM21.041 31.1709C21.6623 31.1709 22.166 30.6672 22.166 30.0459C22.166 29.4245 21.6623 28.9209 21.041 28.9209V31.1709ZM15.3445 34.1589C14.7232 34.1589 14.2195 34.6626 14.2195 35.2839C14.2195 35.9052 14.7232 36.4089 15.3445 36.4089V34.1589ZM19.7751 36.4089C20.3964 36.4089 20.9001 35.9052 20.9001 35.2839C20.9001 34.6626 20.3964 34.1589 19.7751 34.1589V36.4089ZM15.7951 5.21665C13.5591 6.35814 12.0521 8.28428 11.4628 10.7393L13.6507 11.2645C14.0883 9.44152 15.1746 8.05965 16.8182 7.22063L15.7951 5.21665ZM11.4628 10.7393C11.2488 11.6309 11.1837 12.4734 11.1704 13.0862C11.1636 13.3949 11.1699 13.6511 11.1782 13.8333C11.1823 13.9246 11.1869 13.9977 11.1907 14.0501C11.1927 14.0762 11.1943 14.0972 11.1957 14.1128C11.1963 14.1205 11.1969 14.1269 11.1974 14.1319C11.1976 14.1344 11.1978 14.1365 11.198 14.1383C11.198 14.1392 11.1981 14.14 11.1982 14.1407C11.1982 14.1411 11.1982 14.1414 11.1983 14.1417C11.1983 14.1419 11.1983 14.1421 11.1983 14.1422C11.1983 14.1424 11.1984 14.1426 12.3181 14.0339C13.4378 13.9252 13.4379 13.9254 13.4379 13.9256C13.4379 13.9256 13.4379 13.9258 13.4379 13.9259C13.4379 13.9262 13.4379 13.9264 13.438 13.9265C13.438 13.9269 13.438 13.9272 13.438 13.9274C13.4381 13.9277 13.4381 13.9278 13.438 13.9275C13.438 13.9268 13.4378 13.9249 13.4375 13.9216C13.437 13.9151 13.436 13.9034 13.4348 13.8869C13.4324 13.8537 13.429 13.8011 13.4259 13.7316C13.4196 13.5924 13.4144 13.387 13.4198 13.1353C13.4309 12.6273 13.4852 11.9539 13.6507 11.2645L11.4628 10.7393ZM29.5505 10.8007C29.0442 6.19549 25.8905 2.27913 21.4979 0.793999L20.7772 2.92547C24.3428 4.13097 26.9035 7.3132 27.314 11.0466L29.5505 10.8007ZM21.4979 0.794003C20.4767 0.448733 19.4241 0.239939 18.3402 0.180057L18.2161 2.42663C19.0897 2.4749 19.9419 2.64305 20.7772 2.92547L21.4979 0.794003ZM18.3404 0.180066C18.3799 0.182252 18.4088 0.186672 18.4206 0.188616C18.4268 0.189639 18.4305 0.190358 18.4301 0.190271C18.4291 0.190082 18.4273 0.189726 18.4198 0.188214L17.9755 2.39392C17.9883 2.3965 18.0946 2.4199 18.216 2.42662L18.3404 0.180066ZM18.4083 0.185966L18.3707 0.178787L17.9494 2.38899L17.987 2.39617L18.4083 0.185966ZM18.16 0.15889H17.1405V2.40889H18.16V0.15889ZM17.0338 0.163959L16.8074 0.185527L17.0207 2.42539L17.2472 2.40382L17.0338 0.163959ZM16.8087 0.185404C16.6528 0.200071 16.487 0.215647 16.3201 0.23391L16.5647 2.47057C16.7119 2.45447 16.8607 2.44045 17.0194 2.42551L16.8087 0.185404ZM16.3192 0.234003C11.7176 0.740951 7.7951 3.89232 6.31344 8.27295L8.44483 8.99385C9.6458 5.44309 12.8322 2.88176 16.5656 2.47047L16.3192 0.234003ZM6.31343 8.273C5.9673 9.29652 5.75581 10.3525 5.69599 11.4415L7.94261 11.5649C7.99071 10.6891 8.16078 9.8338 8.44485 8.9938L6.31343 8.273ZM5.69605 11.4405C5.6983 11.4003 5.70285 11.3707 5.70489 11.3585C5.70596 11.3521 5.70672 11.3482 5.70666 11.3485C5.70649 11.3494 5.70615 11.3511 5.70463 11.3586L7.90931 11.8079C7.91185 11.7954 7.93571 11.6884 7.94255 11.566L5.69605 11.4405ZM5.70236 11.37L5.6952 11.4071L7.90441 11.8336L7.91157 11.7965L5.70236 11.37ZM5.6748 11.6203V12.6395H7.9248V11.6203H5.6748ZM5.67986 12.746L5.70067 12.9647L7.94056 12.7516L7.91975 12.5329L5.67986 12.746ZM5.70054 12.9633C5.71537 13.1212 5.73125 13.2907 5.75036 13.4615L7.98641 13.2114C7.9699 13.0637 7.95582 12.9142 7.94069 12.753L5.70054 12.9633ZM5.75037 13.4616C5.93996 15.1554 6.46231 16.7559 7.35122 18.2289L9.27762 17.0664C8.565 15.8855 8.14171 14.5989 7.9864 13.2113L5.75037 13.4616ZM7.35122 18.2289C7.63258 18.6951 7.93563 19.1425 8.21935 19.5618L10.0828 18.3008C9.79358 17.8734 9.52374 17.4742 9.27762 17.0664L7.35122 18.2289ZM8.21935 19.5618C8.35733 19.7657 8.49092 19.9631 8.62147 20.1611L10.4998 18.9225C10.3607 18.7114 10.2195 18.5029 10.0828 18.3008L8.21935 19.5618ZM8.62152 20.1612C9.5951 21.6373 10.5072 23.1364 11.3228 24.6843L13.3134 23.6355C12.4551 22.0065 11.5025 20.4428 10.4998 18.9224L8.62152 20.1612ZM11.3248 24.688L11.347 24.7299L13.3337 23.6736L13.3114 23.6318L11.3248 24.688ZM11.348 24.7317C11.3665 24.7663 11.376 24.7844 11.3839 24.8002C11.391 24.8144 11.3913 24.8163 11.389 24.8103L13.4827 23.9865C13.4283 23.8481 13.3618 23.7263 13.3327 23.6718L11.348 24.7317ZM11.3891 24.8105C11.5296 25.1676 11.7678 25.4996 12.132 25.7289C12.4868 25.9522 12.8678 26.0193 13.1997 26.0191L13.1979 23.7691C13.1636 23.7691 13.2316 23.7624 13.3307 23.8247C13.3789 23.8551 13.4179 23.8919 13.446 23.9277C13.473 23.962 13.4825 23.9858 13.4827 23.9863L11.3891 24.8105ZM13.1997 26.0191C15.082 26.0176 16.9644 26.0178 18.8473 26.018L18.8475 23.768C16.9647 23.7678 15.0814 23.7676 13.1979 23.7691L13.1997 26.0191ZM21.082 26.0182C21.4229 26.0183 21.7648 26.0184 22.107 26.0179L22.1038 23.7679C21.7639 23.7684 21.4238 23.7683 21.0827 23.7682L21.082 26.0182ZM22.1067 26.0179C22.4604 26.0174 22.828 25.9325 23.1618 25.7113C23.4873 25.4956 23.6989 25.2043 23.8394 24.9259L21.8309 23.9119C21.8128 23.9477 21.8321 23.8933 21.9188 23.8358C21.9609 23.8079 22.0047 23.7891 22.0439 23.7783C22.0624 23.7732 22.0774 23.7705 22.088 23.7692C22.0984 23.7679 22.1041 23.7679 22.104 23.7679L22.1067 26.0179ZM23.8394 24.9259C24.1273 24.3556 24.4341 23.7916 24.7554 23.2338L22.8058 22.1107C22.4663 22.7 22.1395 23.3006 21.8308 23.9119L23.8394 24.9259ZM24.7554 23.2339C25.5927 21.7806 26.4906 20.368 27.4554 18.9983L25.6159 17.7026C24.6101 19.1305 23.6757 20.6009 22.8058 22.1106L24.7554 23.2339ZM27.4554 18.9983C28.7567 17.151 29.4644 15.0827 29.6035 12.8384L27.3578 12.6992C27.2438 14.5395 26.6708 16.2052 25.6159 17.7026L27.4554 18.9983ZM29.6035 12.8382C29.6016 12.8686 29.5984 12.8902 29.5973 12.8972C29.5968 12.9009 29.5965 12.9025 29.5968 12.9005C29.5972 12.8981 29.5978 12.895 29.5993 12.8869L27.3875 12.4743C27.3842 12.4918 27.3646 12.5893 27.3578 12.6994L29.6035 12.8382ZM29.6011 12.8772L29.6084 12.8361L27.393 12.4431L27.3857 12.4841L29.6011 12.8772ZM29.6257 12.6396V11.6205H27.3757V12.6396H29.6257ZM29.6206 11.5136L29.5991 11.2888L27.3593 11.5027L27.3808 11.7275L29.6206 11.5136ZM29.5993 11.2901C29.5845 11.1341 29.5689 10.9681 29.5506 10.8009L27.314 11.0464C27.3301 11.1936 27.3442 11.3425 27.3592 11.5014L29.5993 11.2901ZM18.8473 26.018L21.0822 26.0182L21.0824 23.7682L18.8475 23.768L18.8473 26.018ZM14.0786 31.1709H21.041V28.9209H14.0786V31.1709ZM15.3445 36.4089H19.7751V34.1589H15.3445V36.4089Z" fill="#2E9277" />
	</symbol>
	<symbol id="twitter" viewBox="0 0 17 15">
		<path d="M8.25447005,5.2128326 L8.29132036,5.82047693 L7.67714848,5.7460715 C5.44156285,5.46085069 3.48849627,4.49358012 1.8302322,2.86906159 L1.01952532,2.06300278 L0.81070688,2.65824621 C0.368503127,3.98514302 0.651022191,5.38644526 1.57228001,6.32891403 C2.06361751,6.84975203 1.95306657,6.92415746 1.10550938,6.61413484 C0.81070688,6.5149276 0.552754691,6.44052217 0.528187816,6.47772489 C0.442203753,6.56453122 0.737006254,7.69301356 0.970391568,8.13944613 C1.28976095,8.75949137 1.94078314,9.3671357 2.65322252,9.72676194 L3.25511096,10.0119828 L2.54267158,10.0243837 C1.85479907,10.0243837 1.8302322,10.0367846 1.90393282,10.2972036 C2.14960158,11.1032624 3.11999314,11.9589248 4.20093565,12.330952 L4.96250878,12.591371 L4.29920315,12.9881999 C3.31652814,13.5586415 2.16188501,13.8810651 1.00724188,13.9058669 C0.45448719,13.9182678 -3.0148523e-14,13.9678714 -3.0148523e-14,14.0050741 C-3.0148523e-14,14.1290831 1.49857938,14.8235338 2.37070345,15.0963537 C4.98707565,15.9024125 8.09478536,15.5551872 10.4286385,14.1786868 C12.0869026,13.1990153 13.7451666,11.2520732 14.5190232,9.3671357 C14.9366601,8.36266242 15.354297,6.52732851 15.354297,5.64686427 C15.354297,5.07642264 15.3911473,5.00201722 16.0790198,4.31996745 C16.4843732,3.9231385 16.8651598,3.48910683 16.9388604,3.36509778 C17.0616948,3.12948059 17.0494114,3.12948059 16.422956,3.34029597 C15.3788638,3.71232312 15.2314626,3.6627195 15.747367,3.10467878 C16.1281535,2.70784983 16.5826407,1.98859735 16.5826407,1.77778197 C16.5826407,1.74057925 16.3983892,1.80258378 16.1895707,1.91419192 C15.9684688,2.03820097 15.4771313,2.22421454 15.1086282,2.33582268 L14.4453226,2.54663807 L13.8434341,2.13740821 C13.5117813,1.91419192 13.0450107,1.66617383 12.799342,1.5917684 C12.1728866,1.41815573 11.2147785,1.44295754 10.6497404,1.64137202 C9.11431068,2.19941273 8.14391911,3.63791769 8.25447005,5.2128326 Z" />
	</symbol>
	<symbol id="vad" viewBox="0 0 48 38" fill="none">
		<path d="M12.6875 14.8351H12.8104M17.726 14.8351H17.8489M22.7646 14.8351H22.8875M1.00184 2.00187L1.05911 33.2083C1.06054 33.9911 1.92015 34.4688 2.58564 34.0566L10.108 29.3977C10.2662 29.2997 10.4485 29.2479 10.6346 29.2479H34C34.5523 29.2479 35 28.8001 35 28.2479V2C35 1.44772 34.5523 1 34 1L2.00184 1.00004C1.44883 1.00004 1.00082 1.44887 1.00184 2.00187Z" stroke="#A4036F" stroke-width="2" stroke-linecap="round" stroke-linejoin="round" />
		<path d="M26.4062 25.6159L27.0563 26.3472L26.4062 25.6159C25.2917 26.6066 25.1913 28.3132 26.182 29.4277L31.4709 35.3777C31.9833 35.9541 32.7177 36.2839 33.4889 36.2839C34.2601 36.2839 34.9945 35.9541 35.5069 35.3777L46.0847 23.4777C47.0754 22.3632 46.975 20.6566 45.8605 19.6659C44.746 18.6752 43.0394 18.7756 42.0487 19.8901L33.4889 29.5199L30.218 25.8401C29.2273 24.7256 27.5207 24.6252 26.4062 25.6159Z" fill="#A4036F" stroke="white" stroke-width="2" stroke-linecap="round" stroke-linejoin="round" />
	</symbol>
	<symbol id="wake-word" viewBox="0 0 42 36" fill="none">
		<path d="M12.6875 14.8351H12.8104M17.726 14.8351H17.8489M22.7646 14.8351H22.8875M1.00184 2.00187L1.05911 33.2083C1.06054 33.9911 1.92015 34.4688 2.58564 34.0566L10.108 29.3977C10.2662 29.2997 10.4485 29.2479 10.6346 29.2479H34C34.5523 29.2479 35 28.8001 35 28.2479V2C35 1.44772 34.5523 1 34 1L2.00184 1.00004C1.44883 1.00004 1.00082 1.44887 1.00184 2.00187Z" stroke="#89D4BF" stroke-width="2" stroke-linecap="round" stroke-linejoin="round" />
		<path d="M35.397 13.5613L26.7435 23.4942C26.7435 23.4942 26.7435 23.4942 26.7435 23.4942C26.5441 23.7226 26.418 24.0005 26.3708 24.2905C26.3236 24.5805 26.3554 24.8802 26.4653 25.1553C26.5755 25.4308 26.7626 25.6774 27.0145 25.8563L27.5934 25.0409L27.0146 25.8563C27.2675 26.0359 27.5722 26.1369 27.8907 26.1369C27.8909 26.1369 27.891 26.1369 27.8911 26.1369H30.1609L28.5757 31.7025C28.5756 31.7026 28.5756 31.7028 28.5755 31.7029C28.5755 31.703 28.5755 31.7032 28.5754 31.7033C28.4821 32.0305 28.4937 32.3809 28.6097 32.7019L29.5456 32.3637L28.6097 32.7019C28.726 33.0238 28.9458 33.3101 29.2497 33.5012C29.5556 33.6935 29.9226 33.773 30.2873 33.7157C30.6509 33.6585 30.9711 33.4721 31.2023 33.2064L39.8557 23.2736C40.0551 23.0451 40.1812 22.7673 40.2284 22.4772L40.2284 22.4772C40.2756 22.1873 40.2438 21.8875 40.1339 21.6124C40.0238 21.3369 39.8366 21.0904 39.5847 20.9115C39.3317 20.7319 39.027 20.6308 38.7085 20.6308C38.7084 20.6308 38.7082 20.6308 38.7081 20.6308H36.4384L38.0236 15.0664C38.0236 15.0661 38.0237 15.0659 38.0238 15.0657C38.1172 14.738 38.1055 14.3872 37.9891 14.0658C37.9891 14.0658 37.9891 14.0658 37.9891 14.0658L37.0489 14.4064C37.0043 14.2833 36.9223 14.1802 36.8165 14.1139M35.397 13.5613L36.8165 14.1139M35.397 13.5613C35.397 13.5612 35.3971 13.5611 35.3972 13.561C35.6281 13.2959 35.9477 13.1097 36.3107 13.0523C36.6748 12.9947 37.0414 13.0736 37.3473 13.2652L37.8165 13.5591V13.7237M35.397 13.5613L37.8165 13.7237M36.8165 14.1139H37.8165V14.1127V13.7237M36.8165 14.1139L36.8172 14.1127L37.3473 13.2664C37.5384 13.3861 37.6964 13.5435 37.8165 13.7237" fill="#3AB795" stroke="white" stroke-width="2" />
	</symbol>
	<symbol id="youtube" viewBox="0 0 17 17">
		<path d="M16.3172 4.40727C16.2229 4.07067 16.0391 3.76593 15.7853 3.52544C15.5245 3.27756 15.2047 3.10025 14.8563 3.01023C13.5523 2.66653 8.32802 2.66653 8.32802 2.66653C6.15007 2.64175 3.97265 2.75074 1.80806 2.99287C1.45963 3.08954 1.14049 3.27081 0.879019 3.52058C0.622109 3.76777 0.436023 4.07259 0.338814 4.40657C0.105299 5.66456 -0.00815867 6.94189 -2.92219e-05 8.22134C-0.00836143 9.49964 0.104818 10.7765 0.338814 12.0361C0.43394 12.3687 0.619332 12.6721 0.876936 12.9172C1.13454 13.1623 1.45533 13.3394 1.80806 13.4331C3.12941 13.7761 8.32802 13.7761 8.32802 13.7761C10.5087 13.801 12.6889 13.692 14.8563 13.4498C15.2047 13.3598 15.5245 13.1825 15.7853 12.9346C16.0423 12.6895 16.2249 12.3847 16.3165 12.0528C16.5561 10.7953 16.6726 9.51741 16.6644 8.23731C16.6824 6.95179 16.5661 5.66791 16.3172 4.40657V4.40727ZM6.66713 10.5988V5.84457L11.0138 8.22203L6.66713 10.5988Z" />
	</symbol>
</svg>
