<svg xmlns="http://www.w3.org/2000/svg" style="display: none;">
	<symbol id="add-circle" viewBox="0 0 24 24">
		<path d="M0 0h24v24H0z" fill="none" />
		<path d="M12 2C6.48 2 2 6.48 2 12s4.48 10 10 10 10-4.48 10-10S17.52 2 12 2zm5 11h-4v4h-2v-4H7v-2h4V7h2v4h4v2z" />
	</symbol>
	<symbol id="apple" viewBox="0 0 20 24">
		<g stroke="none" stroke-width="1" fill="none" fill-rule="evenodd">
			<g transform="translate(-43.000000, -10.000000)" fill="#FFFFFF" fill-rule="nonzero">
				<path d="M59.3602981,22.7631457 C59.3843874,20.89341 60.3646085,19.1663431 61.9575393,18.1870256 C60.948066,16.7453182 59.3178793,15.8640151 57.5587524,15.8089764 C55.7080075,15.6147146 53.913791,16.9164322 52.9706852,16.9164322 C52.0093281,16.9164322 50.5572686,15.8282638 48.9936402,15.860435 C46.936313,15.9269029 45.0648215,17.068257 44.06389,18.8669091 C41.9323658,22.5573114 43.5222911,27.9809603 45.5641127,30.964003 C46.5856792,32.4247143 47.7795973,34.0563662 49.3418149,33.9985043 C50.8705387,33.9350986 51.4414874,33.0236902 53.2867878,33.0236902 C55.114961,33.0236902 55.6506305,33.9985043 57.2445454,33.9617151 C58.8849373,33.9350876 59.918462,32.4945123 60.9041873,31.0199693 C61.6381812,29.9791592 62.2029883,28.8288374 62.5776872,27.6116137 C60.6293998,26.7875837 59.362572,24.8785284 59.3602981,22.7631457 L59.3602981,22.7631457 Z M56.34968,13.8471256 C57.2440898,12.7734192 57.6847316,11.3933516 57.5780287,10 C56.2115694,10.1435202 54.9493438,10.7965989 54.0428507,11.82911 C53.1477303,12.847821 52.6942645,14.1805677 52.7823308,15.533807 C54.1671126,15.5480651 55.4819338,14.9264033 56.34968,13.8471256 L56.34968,13.8471256 Z" id="Icon" />
			</g>
    </g>
	</symbol>
	<symbol id="arrow-down" viewBox="0 0 24 24">
		<path d="M16.59 8.59L12 13.17 7.41 8.59 6 10l6 6 6-6z" />
		<path d="M0 0h24v24H0z" fill="none" />
	</symbol>
	<symbol id="arrow-forward" viewBox="0 0 24 24">
		<path d="M0 0h24v24H0z" fill="none" />
		<path d="M12 4l-1.41 1.41L16.17 11H4v2h12.17l-5.58 5.59L12 20l8-8z" />
	</symbol>
	<symbol id="checkmark" viewBox="0 0 27 27">
		<circle fill="#2F5BEA" cx="13.125" cy="13.125" r="13.125"></circle>
		<polygon fill="#F6F9FC" fill-rule="nonzero" points="10.713 18.156 19.713 9.156 18.651 8.094 10.713 16.05 7.581 12.918 6.537 13.98" />
	</symbol>
	<symbol id="copy" viewBox="0 0 24 24">
		<path fill="none" d="M0 0h24v24H0z" />
		<path d="M16 1H4c-1.1 0-2 .9-2 2v14h2V3h12V1zm-1 4l6 6v10c0 1.1-.9 2-2 2H7.99C6.89 23 6 22.1 6 21l.01-14c0-1.1.89-2 1.99-2h7zm-1 7h5.5L14 6.5V12z" />
	</symbol>
	<symbol id="delete" viewBox="0 0 24 24">
		<path d="M15 16h4v2h-4zm0-8h7v2h-7zm0 4h6v2h-6zM3 18c0 1.1.9 2 2 2h6c1.1 0 2-.9 2-2V8H3v10zM14 5h-3l-1-1H6L5 5H2v2h12z" />
		<path fill="none" d="M0 0h24v24H0z" />
	</symbol>
	<symbol id="download" viewBox="0 0 24 24">
		<path d="M19 9h-4V3H9v6H5l7 7 7-7zM5 18v2h14v-2H5z" />
		<path d="M0 0h24v24H0z" fill="none" />
	</symbol>
	<symbol id="email" viewBox="0 0 24 24">
		<path d="M20 4H4c-1.1 0-1.99.9-1.99 2L2 18c0 1.1.9 2 2 2h16c1.1 0 2-.9 2-2V6c0-1.1-.9-2-2-2zm0 4l-8 5-8-5V6l8 5 8-5v2z" />
		<path d="M0 0h24v24H0z" fill="none" />
	</symbol>
	<symbol id="eye" viewBox="0 0 24 24">
		<path d="M0 0h24v24H0z" fill="none" />
		<path d="M12 4.5C7 4.5 2.73 7.61 1 12c1.73 4.39 6 7.5 11 7.5s9.27-3.11 11-7.5c-1.73-4.39-6-7.5-11-7.5zM12 17c-2.76 0-5-2.24-5-5s2.24-5 5-5 5 2.24 5 5-2.24 5-5 5zm0-8c-1.66 0-3 1.34-3 3s1.34 3 3 3 3-1.34 3-3-1.34-3-3-3z" />
	</symbol>
	<symbol id="github" viewBox="0 0 17 16">
		<path d="M14.9099444,1.20430668 C15.1107333,1.17492115 15.2558,1.16896965 15.3440111,1.18682415 L15.3440111,1.18682415 L15.4768,1.21286196 C15.6479333,1.66499005 15.7646667,2.1080049 15.8264333,2.54209249 C15.8887667,2.97636607 15.9025556,3.35949394 15.8668556,3.69091815 C15.8311556,4.02197039 15.7941333,4.27900083 15.7559778,4.46070759 C15.7174444,4.64241436 15.6717333,4.8040348 15.6186556,4.94463901 C16.5393,6.00084444 17,7.25921491 17,8.72012239 C17,9.535664 16.9270889,10.275324 16.7831556,10.9387303 C16.6380889,11.6015787 16.4373,12.1762706 16.1807889,12.6631777 C15.9242778,13.1502709 15.5978778,13.577663 15.2029111,13.9444243 C14.807,14.3104416 14.3776556,14.6128522 13.9139333,14.8507263 C13.4505889,15.0884143 12.9222667,15.2801643 12.3291556,15.4272779 C11.7362333,15.5736476 11.1312222,15.676311 10.5139333,15.7352681 C9.89758889,15.7938532 9.21985556,15.8232387 8.48243333,15.8232387 C7.74463333,15.8232387 7.06897778,15.7938532 6.45452222,15.7352681 C5.84063333,15.676311 5.23713333,15.5736476 4.64421111,15.4272779 C4.05072222,15.2801643 3.52372222,15.0884143 3.06377778,14.8507263 C2.60307778,14.6128522 2.17713333,14.3104416 1.78386667,13.9438663 C1.39135556,13.5771051 1.06665556,13.1502709 0.810144444,12.6631777 C0.553066667,12.1762706 0.353788889,11.6015787 0.2125,10.9381724 C0.0706444444,10.275324 -4.90274488e-13,9.535664 -4.90274488e-13,8.72012239 C-4.90274488e-13,7.25363537 0.4607,5.99507892 1.38134444,4.94463901 C1.32807778,4.80961433 1.28085556,4.64873783 1.23986667,4.46070759 C1.1985,4.27304933 1.16034444,4.014717 1.12483333,3.68626854 C1.08894444,3.3576341 1.10405556,2.97636607 1.16884444,2.54209249 C1.23344444,2.1080049 1.35206667,1.66499005 1.5232,1.21286196 C1.55228889,1.20095896 1.59781111,1.1909158 1.66014444,1.18236052 C1.72228889,1.17343327 1.86263333,1.18068666 2.08023333,1.20430668 C2.29934444,1.22774072 2.53658889,1.28056029 2.7931,1.36257941 C3.05055556,1.44478452 3.39301111,1.59766369 3.82008889,1.82028702 C4.24886667,2.04291036 4.6988,2.32783846 5.17064444,2.67395543 C5.97965556,2.43329162 7.08937778,2.18165472 8.5,2.18165472 C9.91081111,2.18165472 11.0169444,2.43329162 11.8202889,2.67395543 C12.2927,2.32783846 12.7409333,2.04142248 13.1661222,1.81619537 C13.5915,1.59022432 13.9377333,1.439019 14.2067111,1.36257941 C14.4751222,1.2863258 14.7097222,1.23332025 14.9099444,1.20430668 Z M11.9572333,7.2616327 C11.6002333,7.24526608 11.2596667,7.24824183 10.9351556,7.27074594 C10.6106444,7.29380801 10.2088778,7.32505339 9.73023333,7.36448208 C9.25272222,7.4035388 8.83962222,7.42288118 8.49093333,7.42288118 C8.143,7.42288118 7.73008889,7.4035388 7.25144444,7.36448208 C6.77336667,7.32505339 6.37178889,7.29380801 6.04708889,7.27074594 C5.72257778,7.24824183 5.38201111,7.24526608 5.02501111,7.2616327 C4.66763333,7.27762736 4.34878889,7.34606962 4.06847778,7.46751744 C3.78835556,7.5884073 3.54185556,7.76676634 3.32935556,8.0022226 C2.62121111,8.7736859 2.26685556,9.63404975 2.26685556,10.5823842 C2.26685556,11.1384776 2.32578889,11.63394 2.44384444,12.0691435 C2.56152222,12.5036031 2.7115,12.8688765 2.89056667,13.1629178 C3.07095556,13.4573311 3.3235,13.7058063 3.6482,13.9089013 C3.97327778,14.1116243 4.28645556,14.2680371 4.59113333,14.3796278 C4.89486667,14.4910324 5.28756667,14.5773292 5.76828889,14.639448 C6.24976667,14.7011948 6.67873333,14.7395076 7.0567,14.7525265 C7.43428889,14.7655454 7.91293333,14.7718689 8.49093333,14.7718689 C9.0695,14.7718689 9.54927778,14.7655454 9.92951111,14.7525265 C10.3105,14.7395076 10.7417333,14.7011948 11.2226444,14.639448 C11.7039333,14.5773292 12.0966333,14.4910324 12.4003667,14.3796278 C12.7042889,14.2680371 13.0187889,14.1116243 13.3434889,13.9089013 C13.6685667,13.7058063 13.9203556,13.4573311 14.1003667,13.1629178 C14.2805667,12.8688765 14.4292222,12.5036031 14.5470889,12.0691435 C14.6651444,11.63394 14.7244556,11.1384776 14.7244556,10.5823842 C14.7244556,9.63404975 14.3706667,8.7736859 13.6619556,8.0022226 C13.4490778,7.76676634 13.2016333,7.5884073 12.9177333,7.46751744 C12.6347778,7.34606962 12.3149889,7.27762736 11.9572333,7.2616327 Z M7.38346429,12.7390504 C7.51285317,12.6107211 7.72214206,12.6107211 7.85190873,12.7390504 C8.05496429,12.9382397 8.21740873,13.0355095 8.34811984,13.0355095 C8.47883095,13.0355095 8.6412754,12.9382397 8.84433095,12.7390504 C8.97371984,12.6112791 9.18319762,12.6112791 9.3127754,12.7390504 C9.44291984,12.8668217 9.44291984,13.0738223 9.3127754,13.2014076 C8.98391984,13.5257644 8.66639762,13.6873848 8.34811984,13.6873848 C8.02984206,13.6873848 7.71194206,13.5257644 7.38346429,13.2008496 C7.25313095,13.0738223 7.25313095,12.8668217 7.38346429,12.7390504 Z M4.94821429,8.82078939 C5.53471429,8.82078939 6.01071429,9.52343847 6.01071429,10.3901258 C6.01071429,11.2568131 5.53471429,11.9592762 4.94821429,11.9592762 C4.36171429,11.9592762 3.88571429,11.2568131 3.88571429,10.3901258 C3.88571429,9.52343847 4.36171429,8.82078939 4.94821429,8.82078939 Z M11.2625,8.82078939 C11.849,8.82078939 12.325,9.52343847 12.325,10.3901258 C12.325,11.2568131 11.849,11.9592762 11.2625,11.9592762 C10.676,11.9592762 10.2,11.2568131 10.2,10.3901258 C10.2,9.52343847 10.676,8.82078939 11.2625,8.82078939 Z" />
	</symbol>
	<symbol id="google" viewBox="0 0 21 23">
		<path d="M19.3669423,20.5850671 C17.6674959,22.0541945 15.393913,22.9 12.708,22.9 C8.64044445,22.9 5.13911111,20.5657778 3.42888889,17.1684445 L3.42888889,17.1684445 L6.79155555,14.5568889 C7.62355555,17.0644445 9.95777778,18.8786666 12.708,18.8786666 C14.2564445,18.8786666 15.4351111,18.4511111 16.3133334,17.8386666 L16.3133334,17.8386666 L16.550174,17.6626496 C17.7716524,16.6997447 18.3307974,15.3671372 18.4395555,14.4644445 L18.4395555,14.4644445 L12.708,14.4644445 L12.708,10.6048889 L22.4724445,10.6048889 C22.6226666,11.252 22.692,11.876 22.692,12.7311111 C22.692,15.8973334 21.5595555,18.5666666 19.5951111,20.3808889 L19.5951111,20.3808889 Z M12.708,2.1 C15.516,2.1 17.8617778,3.12844445 19.6644445,4.804 L19.6644445,4.804 L16.7293334,7.66977778 C15.9782222,6.96488889 14.6608889,6.12133334 12.708,6.12133334 C9.95777778,6.12133334 7.62355555,7.93555555 6.78,10.4431111 L6.78,10.4431111 L6.69594428,10.723207 C6.53827664,11.2887891 6.44488889,11.8859047 6.44488889,12.5 C6.44488889,13.2164445 6.572,13.9097778 6.79155555,14.5568889 L6.79155555,14.5568889 L3.41733334,17.1684445 C2.71244444,15.7586666 2.308,14.1755555 2.308,12.5 C2.308,10.8244445 2.71244444,9.24133334 3.41733334,7.83155555 L3.41733334,7.83155555 L3.55607329,7.56557687 C5.31282856,4.31298492 8.74748538,2.1 12.708,2.1 Z" />
	</symbol>
	<symbol id="key" viewBox="0 0 24 24">
		<path d="M0 0h24v24H0z" fill="none" />
		<path d="M12.65 10C11.83 7.67 9.61 6 7 6c-3.31 0-6 2.69-6 6s2.69 6 6 6c2.61 0 4.83-1.67 5.65-4H17v4h4v-4h2v-4H12.65zM7 14c-1.1 0-2-.9-2-2s.9-2 2-2 2 .9 2 2-.9 2-2 2z" />
	</symbol>
	<symbol id="linkedin" viewBox="0 0 20 20">
		<path fill-rule="evenodd" clip-rule="evenodd" d="M2.42515 5.23169C3.7638 5.23169 4.84901 4.24202 4.84901 3.01986C4.84901 1.79663 3.7638 0.805664 2.42515 0.805664C1.08522 0.805664 0 1.79663 0 3.01986C0 4.24202 1.08522 5.23169 2.42515 5.23169ZM0.555577 19.4599H4.90465V6.91678H0.555577V19.4599ZM13.3165 9.63861C11.6892 9.63861 11.0087 11.0453 11.0087 12.4837V19.2997H6.66673V6.75656H11.0087V8.44522C12.1511 6.97002 13.1439 6.36122 14.9438 6.36122C16.7452 6.36122 19.6736 7.21528 19.6736 12.1692V19.2997H15.3439V12.4493C15.3439 11.0453 14.9438 9.63861 13.3165 9.63861Z" fill="#F6F9FC" />
	</symbol>
	<symbol id="nlu" viewBox="0 0 12 14">
		<path d="M5.432,8.568 L5.432,3.09866667 L7.76533333,3.09866667 L4.66666667,0 L1.568,3.09866667 L3.90133333,3.09866667 L3.90133333,8.568 L5.432,8.568 Z M9.33333333,14 L12.432,10.9013333 L10.0986667,10.9013333 L10.0986667,5.432 L8.568,5.432 L8.568,10.9013333 L6.23466667,10.9013333 L9.33333333,14 Z" />
	</symbol>
	<symbol id="play-circle-outline" viewBox="0 0 24 24">
		<path d="M0 0h24v24H0z" fill="none" />
		<path d="M10 16.5l6-4.5-6-4.5v9zM12 2C6.48 2 2 6.48 2 12s4.48 10 10 10 10-4.48 10-10S17.52 2 12 2zm0 18c-4.41 0-8-3.59-8-8s3.59-8 8-8 8 3.59 8 8-3.59 8-8 8z" />
	</symbol>
	<symbol id="play-circle" viewBox="0 0 24 24">
		<path d="M0 0h24v24H0z" fill="none" />
		<path d="M12 2C6.48 2 2 6.48 2 12s4.48 10 10 10 10-4.48 10-10S17.52 2 12 2zm-2 14.5v-9l6 4.5-6 4.5z" />
	</symbol>
	<symbol id="play" viewBox="0 0 20 22">
		<g transform="translate(-25.000000, -22.000000)" fill-rule="nonzero">
			<path d="M25.6537588,23.307396 L25.6537588,42.6926134 C25.6537588,43.7077402 26.7615969,44.3343954 27.6316378,43.8114126 L43.7133857,34.1446508 C44.5560327,33.6381345 44.5574722,32.4171431 43.7160219,31.9086413 L27.634274,22.1901856 C26.7642914,21.6644414 25.6537588,22.2908938 25.6537588,23.307396 Z"></path>
		</g>
	</symbol>
	<symbol id="stackoverflow" viewBox="0 0 120 120">
		<path d="M84.4 93.8V70.6h7.7v30.9H22.6V70.6h7.7v23.2z" />
		<path d="M38.8 68.4l37.8 7.9 1.6-7.6-37.8-7.9-1.6 7.6zm5-18l35 16.3 3.2-7-35-16.4-3.2 7.1zm9.7-17.2l29.7 24.7 4.9-5.9-29.7-24.7-4.9 5.9zm19.2-18.3l-6.2 4.6 23 31 6.2-4.6-23-31zM38 86h38.6v-7.7H38V86z" />
	</symbol>
	<symbol id="star" viewBox="0 0 41 41">
	  <g transform="translate(-21.000000, -72.000000)" fill="#FACC5F">
			<g transform="translate(0.000000, 16.046250)">
				<g transform="translate(16.500000, 55.953750)">
					<polygon id="Star" points="25 37.6724679 22.3242131 40.8246197 20.5554383 37.0873303 17.1549896 39.4395304 16.413766 35.3717935 12.5203907 36.7637435 12.8572315 32.6427685 8.73625652 32.9796093 10.1282065 29.086234 6.06046958 28.3450104 8.41266974 24.9445617 4.67538034 23.1757869 7.82753209 20.5 4.67538034 17.8242131 8.41266974 16.0554383 6.06046958 12.6549896 10.1282065 11.913766 8.73625652 8.02039071 12.8572315 8.35723149 12.5203907 4.23625652 16.413766 5.62820654 17.1549896 1.56046958 20.5554383 3.91266974 22.3242131 0.175380342 25 3.32753209 27.6757869 0.175380342 29.4445617 3.91266974 32.8450104 1.56046958 33.586234 5.62820654 37.4796093 4.23625652 37.1427685 8.35723149 41.2637435 8.02039071 39.8717935 11.913766 43.9395304 12.6549896 41.5873303 16.0554383 45.3246197 17.8242131 42.1724679 20.5 45.3246197 23.1757869 41.5873303 24.9445617 43.9395304 28.3450104 39.8717935 29.086234 41.2637435 32.9796093 37.1427685 32.6427685 37.4796093 36.7637435 33.586234 35.3717935 32.8450104 39.4395304 29.4445617 37.0873303 27.6757869 40.8246197"></polygon>
				</g>
			</g>
		</g>
	</symbol>
	<symbol id="time" viewBox="0 0 24 24">
		<path d="M11.99 2C6.47 2 2 6.48 2 12s4.47 10 9.99 10C17.52 22 22 17.52 22 12S17.52 2 11.99 2zM12 20c-4.42 0-8-3.58-8-8s3.58-8 8-8 8 3.58 8 8-3.58 8-8 8z" />
		<path d="M0 0h24v24H0z" fill="none" />
		<path d="M12.5 7H11v6l5.25 3.15.75-1.23-4.5-2.67z" />
	</symbol>
	<symbol id="twitter" viewBox="0 0 17 15">
		<path d="M8.25447005,5.2128326 L8.29132036,5.82047693 L7.67714848,5.7460715 C5.44156285,5.46085069 3.48849627,4.49358012 1.8302322,2.86906159 L1.01952532,2.06300278 L0.81070688,2.65824621 C0.368503127,3.98514302 0.651022191,5.38644526 1.57228001,6.32891403 C2.06361751,6.84975203 1.95306657,6.92415746 1.10550938,6.61413484 C0.81070688,6.5149276 0.552754691,6.44052217 0.528187816,6.47772489 C0.442203753,6.56453122 0.737006254,7.69301356 0.970391568,8.13944613 C1.28976095,8.75949137 1.94078314,9.3671357 2.65322252,9.72676194 L3.25511096,10.0119828 L2.54267158,10.0243837 C1.85479907,10.0243837 1.8302322,10.0367846 1.90393282,10.2972036 C2.14960158,11.1032624 3.11999314,11.9589248 4.20093565,12.330952 L4.96250878,12.591371 L4.29920315,12.9881999 C3.31652814,13.5586415 2.16188501,13.8810651 1.00724188,13.9058669 C0.45448719,13.9182678 -3.0148523e-14,13.9678714 -3.0148523e-14,14.0050741 C-3.0148523e-14,14.1290831 1.49857938,14.8235338 2.37070345,15.0963537 C4.98707565,15.9024125 8.09478536,15.5551872 10.4286385,14.1786868 C12.0869026,13.1990153 13.7451666,11.2520732 14.5190232,9.3671357 C14.9366601,8.36266242 15.354297,6.52732851 15.354297,5.64686427 C15.354297,5.07642264 15.3911473,5.00201722 16.0790198,4.31996745 C16.4843732,3.9231385 16.8651598,3.48910683 16.9388604,3.36509778 C17.0616948,3.12948059 17.0494114,3.12948059 16.422956,3.34029597 C15.3788638,3.71232312 15.2314626,3.6627195 15.747367,3.10467878 C16.1281535,2.70784983 16.5826407,1.98859735 16.5826407,1.77778197 C16.5826407,1.74057925 16.3983892,1.80258378 16.1895707,1.91419192 C15.9684688,2.03820097 15.4771313,2.22421454 15.1086282,2.33582268 L14.4453226,2.54663807 L13.8434341,2.13740821 C13.5117813,1.91419192 13.0450107,1.66617383 12.799342,1.5917684 C12.1728866,1.41815573 11.2147785,1.44295754 10.6497404,1.64137202 C9.11431068,2.19941273 8.14391911,3.63791769 8.25447005,5.2128326 Z" />
	</symbol>
</svg>
